<?xml version="1.0" encoding="UTF-8"?>
<!-- Generator: visioncortex VTracer 0.6.4 -->
<svg version="1.1" xmlns="http://www.w3.org/2000/svg" width="1059" height="1196">
<path d="M0 0 C349.47 0 698.94 0 1059 0 C1059 60.11 1059 60.11 1057.95 88.03 C1057.81 91.65 1057.68 95.27 1057.55 98.89 C1054.26 190.27 1047.9 281.6 1007 511 C1006.83 511.72 1006.65 512.44 1006.47 513.18 C997.93 548.28 987.48 582.87 975.69 617.01 C975.03 618.91 974.38 620.81 973.73 622.71 C963.88 651.33 952.55 679.45 940 707 C939.5 708.11 938.99 709.22 938.47 710.36 C923.36 743.54 906.68 775.68 888 807 C887.39 808.02 886.78 809.04 886.16 810.09 C878.19 823.41 869.83 836.41 861.12 849.25 C860.69 849.89 860.26 850.53 859.81 851.18 C853.68 860.22 847.37 869.13 841 878 C839.89 879.56 838.78 881.11 837.67 882.67 C830.56 892.62 823.19 902.33 815.63 911.93 C814.12 913.84 812.62 915.76 811.13 917.68 C801.95 929.45 792.57 941.05 782.89 952.41 C780.02 955.78 777.21 959.19 774.44 962.62 C770.56 967.39 766.49 971.93 762.34 976.45 C760.34 978.63 758.38 980.83 756.44 983.06 C753.1 986.9 749.71 990.67 746.31 994.44 C744.82 996.09 743.33 997.75 741.85 999.4 C736.21 1005.69 730.5 1011.92 724.75 1018.11 C723.63 1019.33 722.5 1020.54 721.37 1021.76 C709.79 1034.27 697.79 1046.36 685.72 1058.41 C683.01 1061.11 680.31 1063.82 677.6 1066.53 C675.48 1068.65 673.36 1070.77 671.24 1072.89 C670.24 1073.89 669.24 1074.89 668.25 1075.89 C663.18 1080.96 658.09 1085.93 652.64 1090.58 C650.3 1092.61 648.15 1094.79 646 1097 C642.58 1100.46 639.09 1103.73 635.39 1106.89 C632.03 1109.86 628.77 1112.93 625.5 1116 C621.02 1120.2 616.53 1124.37 611.88 1128.37 C609.61 1130.34 607.4 1132.36 605.19 1134.38 C600.82 1138.32 596.3 1142.05 591.72 1145.75 C589.08 1147.94 586.53 1150.19 584 1152.5 C579.75 1156.37 575.37 1160.01 570.91 1163.62 C567.8 1166.17 564.74 1168.77 561.69 1171.38 C556.57 1175.73 551.35 1179.94 546.04 1184.06 C543.33 1186.16 540.66 1188.29 538.04 1190.5 C537.16 1191.25 536.28 1191.99 535.38 1192.75 C534.62 1193.4 533.86 1194.06 533.09 1194.73 C531 1196 531 1196 529.09 1195.75 C526.77 1194.92 525.35 1193.91 523.46 1192.34 C522.8 1191.8 522.15 1191.26 521.47 1190.7 C520.78 1190.12 520.09 1189.54 519.38 1188.94 C517.93 1187.74 516.49 1186.55 515.04 1185.36 C514.35 1184.78 513.65 1184.2 512.93 1183.6 C510.54 1181.62 508.12 1179.68 505.69 1177.75 C496.24 1170.2 486.98 1162.46 477.82 1154.56 C476 1153 474.17 1151.44 472.35 1149.88 C466.24 1144.67 460.18 1139.41 454.23 1134.01 C452.17 1132.15 450.09 1130.32 448 1128.5 C444.15 1125.14 440.35 1121.73 436.55 1118.3 C434.93 1116.84 433.3 1115.37 431.67 1113.92 C425.43 1108.34 419.3 1102.66 413.2 1096.93 C410.6 1094.5 408 1092.07 405.39 1089.65 C393.37 1078.48 381.76 1066.91 370.17 1055.3 C367.4 1052.53 364.63 1049.76 361.86 1046.99 C359.69 1044.83 357.52 1042.66 355.36 1040.49 C354.34 1039.47 353.32 1038.45 352.3 1037.43 C347.15 1032.3 342.1 1027.14 337.39 1021.61 C335.53 1019.46 333.54 1017.48 331.5 1015.5 C328.18 1012.21 325.05 1008.84 322.01 1005.3 C319.4 1002.31 316.7 999.41 314 996.5 C309.58 991.73 305.24 986.92 301 982 C300.04 980.89 299.07 979.78 298.11 978.67 C294.73 974.79 291.37 970.89 288 967 C287.47 966.38 286.93 965.76 286.38 965.13 C279.81 957.51 273.34 949.82 267 942 C266 940.79 265.01 939.57 264.01 938.36 C256.69 929.43 249.6 920.34 242.62 911.14 C241.01 909.01 239.38 906.9 237.75 904.78 C229.95 894.67 222.4 884.4 215 874 C214.45 873.23 213.91 872.47 213.34 871.68 C157.39 793.23 114.86 706.95 6 193 C5.92 191.86 5.84 190.73 5.76 189.56 C3.71 159.12 2.52 128.65 1.41 98.18 C1.32 95.46 1.21 92.73 1.11 90.01 C-0.01 59.97 0 30.09 0 0 Z " fill="#FDFDFD" transform="translate(0,0)"/>
<path d="M0 0 C242.55 0 485.1 0 735 0 C735 8.56 734.86 16.9 734.27 25.41 C734.19 26.56 734.11 27.71 734.03 28.89 C733.78 32.62 733.51 36.34 733.25 40.06 C733.12 41.99 733.12 41.99 732.98 43.95 C729.8 89.18 725.5 134.27 719.31 179.19 C719.16 180.31 719.16 180.31 719 181.46 C718.06 188.26 717.08 195.01 715.48 201.69 C714.87 204.6 714.48 207.51 714.08 210.45 C712.91 218.94 711.31 227.34 709.69 235.75 C709.37 237.41 709.05 239.06 708.74 240.72 C708.26 243.2 707.78 245.68 707.31 248.16 C706.44 252.66 705.6 257.17 704.78 261.68 C699.41 291.07 692.56 320.37 684 349 C683.44 350.9 682.87 352.8 682.31 354.7 C679.9 362.81 677.46 370.91 675 379 C674.68 380.06 674.36 381.12 674.03 382.22 C655.07 444.56 629.17 505.87 596 562 C595.27 563.24 595.27 563.24 594.53 564.51 C583.22 583.88 570.89 602.65 558 621 C557.6 621.57 557.2 622.14 556.79 622.72 C542.41 643.14 527.26 662.86 511.47 682.2 C510.18 683.78 508.89 685.37 507.6 686.96 C502.04 693.81 496.31 700.51 490.55 707.2 C489.02 708.97 487.5 710.76 485.99 712.55 C480.55 718.95 475.02 725.25 469.27 731.39 C466.66 734.17 464.11 737 461.61 739.88 C458.02 744.01 454.31 748.02 450.56 752 C449.91 752.7 449.25 753.4 448.57 754.12 C444.73 758.21 440.83 762.21 436.83 766.14 C435.06 767.94 433.41 769.8 431.77 771.72 C428.07 775.98 424.16 779.99 420.16 783.97 C419.43 784.7 418.71 785.43 417.96 786.17 C416.44 787.7 414.91 789.22 413.39 790.75 C411.07 793.06 408.76 795.37 406.45 797.69 C404.96 799.18 403.46 800.67 401.97 802.16 C401.29 802.84 400.61 803.53 399.91 804.23 C395.99 808.13 391.98 811.84 387.78 815.44 C384.5 818.32 381.51 821.49 378.49 824.64 C374.94 828.27 371.2 831.14 367 834 C351.06 819.15 351.06 819.15 344.86 812.83 C343.06 811.06 341.21 809.42 339.29 807.78 C334.95 804.01 330.87 800.01 326.81 795.94 C325.69 794.82 325.69 794.82 324.54 793.67 C322.97 792.1 321.4 790.53 319.83 788.96 C317.44 786.57 315.06 784.19 312.67 781.8 C311.13 780.27 309.59 778.73 308.06 777.19 C307.35 776.49 306.65 775.79 305.92 775.06 C301.96 771.08 298.18 767.01 294.53 762.75 C292.3 760.2 289.92 757.86 287.5 755.5 C283.84 751.89 280.35 748.2 277.01 744.29 C274.24 741.13 271.37 738.07 268.5 735 C263.91 730.07 259.38 725.12 255 720 C254.11 718.97 253.22 717.93 252.34 716.9 C250.28 714.51 248.23 712.11 246.18 709.71 C244.11 707.29 242.03 704.88 239.95 702.48 C234.53 696.23 229.27 689.91 224.21 683.38 C221.31 679.65 218.36 675.98 215.36 672.34 C202.56 656.76 190.7 640.42 179 624 C178.43 623.2 177.86 622.4 177.27 621.58 C168.75 609.64 160.65 597.51 153 585 C152.42 584.06 151.84 583.11 151.25 582.14 C146.77 574.8 142.36 567.42 138 560 C137.44 559.04 136.87 558.08 136.29 557.09 C120 529.16 105.34 499.89 93 470 C92.54 468.89 92.08 467.77 91.6 466.63 C83.59 447.26 76.39 427.63 69.38 407.89 C68.23 404.64 67.05 401.39 65.87 398.15 C61.56 386.27 58.14 374.19 54.82 361.99 C53.84 358.42 52.82 354.86 51.78 351.3 C40.57 312.62 31.96 273.66 25 234 C24.86 233.23 24.73 232.45 24.59 231.66 C23.65 226.34 22.73 221.01 21.81 215.69 C21.7 215.02 21.58 214.35 21.46 213.67 C20.76 209.58 20.08 205.5 19.4 201.41 C19.12 199.69 18.83 197.98 18.54 196.27 C15.83 179.99 13.56 163.7 11.62 147.31 C11.4 145.46 11.4 145.46 11.18 143.58 C8.61 121.86 6.54 100.1 4.69 78.31 C4.63 77.59 4.56 76.87 4.5 76.12 C3.12 60 1.87 43.88 0.83 27.73 C0.75 26.44 0.66 25.15 0.57 23.82 C0.5 22.6 0.42 21.37 0.34 20.1 C0.28 19.04 0.21 17.98 0.14 16.88 C-0.06 11.26 0 5.63 0 0 Z " fill="#020202" transform="translate(162,156)"/>
<path d="M0 0 C0.28 41.11 0.49 82.23 0.61 123.34 C0.63 128.21 0.64 133.08 0.66 137.95 C0.66 138.92 0.67 139.89 0.67 140.89 C0.72 156.52 0.82 172.15 0.93 187.78 C1.04 203.86 1.1 219.94 1.13 236.02 C1.15 245.91 1.2 255.8 1.29 265.7 C1.36 272.51 1.38 279.33 1.36 286.15 C1.35 290.06 1.36 293.97 1.43 297.88 C1.79 320.63 -2.88 338.23 -12 359 C-13.14 361.68 -14.26 364.36 -15.38 367.04 C-31.75 406.19 -50.99 443.74 -73 480 C-73.69 481.15 -73.69 481.15 -74.4 482.32 C-89.89 507.99 -107.63 532.34 -126 556 C-126.47 556.61 -126.94 557.22 -127.43 557.84 C-138.1 571.58 -149.06 585.07 -160.46 598.22 C-162.07 600.08 -163.68 601.95 -165.29 603.82 C-171.05 610.5 -176.86 617.11 -182.82 623.61 C-184.66 625.63 -186.46 627.68 -188.25 629.75 C-192.23 634.33 -196.38 638.73 -200.53 643.15 C-203.42 646.23 -206.3 649.32 -209.15 652.44 C-214.98 658.81 -220.93 665.01 -227.11 671.05 C-229.25 673.18 -231.24 675.4 -233.2 677.7 C-237.7 682.89 -242.57 687.71 -247.44 692.56 C-248.79 693.92 -248.79 693.92 -250.17 695.31 C-256.81 701.94 -263.61 708.22 -271 714 C-272.16 712.82 -272.16 712.82 -273.34 711.62 C-274.4 710.56 -275.45 709.5 -276.5 708.44 C-277.26 707.67 -277.26 707.67 -278.03 706.88 C-280.81 704.08 -283.65 701.41 -286.65 698.84 C-291.83 694.36 -296.64 689.51 -301.47 684.66 C-303.06 683.07 -304.65 681.48 -306.24 679.89 C-311.19 674.95 -316.03 669.96 -320.58 664.64 C-322.45 662.48 -324.45 660.49 -326.5 658.5 C-329.95 655.1 -333.17 651.58 -336.32 647.9 C-337.98 646.02 -339.71 644.26 -341.5 642.5 C-344.49 639.55 -347.25 636.47 -349.99 633.29 C-351.94 631.06 -353.94 628.89 -355.95 626.72 C-360.76 621.54 -365.31 616.23 -369.75 610.72 C-372.84 606.98 -376.13 603.44 -379.45 599.9 C-380.29 598.94 -381.13 597.99 -382 597 C-382.58 596.4 -383.15 595.8 -383.75 595.19 C-389.38 588.84 -390.02 583.84 -389.95 575.53 C-389.97 574.3 -389.98 573.07 -390 571.8 C-390.04 568.4 -390.05 565 -390.05 561.6 C-390.05 557.92 -390.09 554.25 -390.13 550.57 C-390.2 543.38 -390.22 536.19 -390.23 529 C-390.24 523.15 -390.26 517.3 -390.29 511.45 C-390.36 494.86 -390.4 478.26 -390.41 461.66 C-390.41 460.77 -390.41 459.87 -390.41 458.95 C-390.41 458.06 -390.41 457.16 -390.41 456.24 C-390.41 441.74 -390.5 427.24 -390.61 412.73 C-390.73 397.83 -390.79 382.92 -390.79 368.01 C-390.79 359.65 -390.82 351.29 -390.91 342.92 C-390.98 335.8 -391 328.68 -390.95 321.56 C-390.93 317.93 -390.93 314.31 -391 310.68 C-391.4 289.52 -391.4 289.52 -387.42 283.68 C-383.74 279.88 -379.59 277.29 -374.88 274.96 C-372.35 273.67 -370.18 272.01 -367.95 270.26 C-366.53 269.21 -365.11 268.17 -363.69 267.12 C-362.08 265.94 -360.47 264.76 -358.86 263.57 C-358.05 262.98 -357.25 262.39 -356.42 261.78 C-351.66 258.28 -346.89 254.76 -342.13 251.25 C-338.15 248.32 -334.17 245.39 -330.18 242.46 C-322.57 236.88 -314.99 231.26 -307.5 225.5 C-299.22 219.13 -290.83 212.94 -282.41 206.77 C-278.43 203.85 -274.47 200.92 -270.5 198 C-268.92 196.83 -267.34 195.67 -265.75 194.5 C-262.57 192.16 -259.39 189.81 -256.21 187.46 C-247.77 181.23 -239.29 175.03 -230.77 168.89 C-222.93 163.24 -215.16 157.51 -207.39 151.77 C-204.22 149.42 -201.05 147.09 -197.87 144.75 C-196.29 143.58 -194.71 142.42 -193.13 141.25 C-189.16 138.33 -185.19 135.41 -181.21 132.5 C-173.28 126.69 -165.42 120.82 -157.69 114.75 C-152.01 110.3 -146.28 105.97 -140.39 101.82 C-132.99 96.61 -125.74 91.2 -118.47 85.82 C-116.02 84.02 -113.57 82.21 -111.12 80.41 C-103.68 74.94 -96.25 69.44 -88.88 63.88 C-83.57 59.87 -78.2 55.99 -72.75 52.19 C-64.71 46.57 -56.87 40.7 -49.04 34.79 C-44.2 31.14 -39.32 27.53 -34.44 23.94 C-33.67 23.37 -32.9 22.81 -32.11 22.22 C-30.55 21.08 -28.99 19.93 -27.42 18.78 C-23.13 15.63 -18.85 12.47 -14.56 9.31 C-13.76 8.72 -12.96 8.14 -12.14 7.53 C-11.02 6.7 -11.02 6.7 -9.88 5.86 C-8.9 5.14 -8.9 5.14 -7.9 4.4 C-6.54 3.4 -5.2 2.37 -3.88 1.32 C-2 0 -2 0 0 0 Z " fill="#ED2523" transform="translate(800,244)"/>
<path d="M0 0 C349.47 0 698.94 0 1059 0 C1059 60.11 1059 60.11 1057.95 88.03 C1057.81 91.65 1057.68 95.27 1057.55 98.89 C1054.26 190.27 1047.9 281.6 1007 511 C1006.83 511.72 1006.65 512.44 1006.47 513.18 C997.93 548.28 987.48 582.87 975.69 617.01 C975.03 618.91 974.38 620.81 973.73 622.71 C963.88 651.33 952.55 679.45 940 707 C939.5 708.11 938.99 709.22 938.47 710.36 C923.36 743.54 906.68 775.68 888 807 C887.39 808.02 886.78 809.04 886.16 810.09 C878.19 823.41 869.83 836.41 861.12 849.25 C860.69 849.89 860.26 850.53 859.81 851.18 C853.68 860.22 847.37 869.13 841 878 C839.89 879.56 838.78 881.11 837.67 882.67 C830.56 892.62 823.19 902.33 815.63 911.93 C814.12 913.84 812.62 915.76 811.13 917.68 C801.95 929.45 792.57 941.05 782.89 952.41 C780.02 955.78 777.21 959.19 774.44 962.62 C770.56 967.39 766.49 971.93 762.34 976.45 C760.34 978.63 758.38 980.83 756.44 983.06 C753.1 986.9 749.71 990.67 746.31 994.44 C744.82 996.09 743.33 997.75 741.85 999.4 C736.21 1005.69 730.5 1011.92 724.75 1018.11 C723.63 1019.33 722.5 1020.54 721.37 1021.76 C709.79 1034.27 697.79 1046.36 685.72 1058.41 C683.01 1061.11 680.31 1063.82 677.6 1066.53 C675.48 1068.65 673.36 1070.77 671.24 1072.89 C670.24 1073.89 669.24 1074.89 668.25 1075.89 C663.18 1080.96 658.09 1085.93 652.64 1090.58 C650.3 1092.61 648.15 1094.79 646 1097 C642.58 1100.46 639.09 1103.73 635.39 1106.89 C632.03 1109.86 628.77 1112.93 625.5 1116 C621.02 1120.2 616.53 1124.37 611.88 1128.37 C609.61 1130.34 607.4 1132.36 605.19 1134.38 C600.82 1138.32 596.3 1142.05 591.72 1145.75 C589.08 1147.94 586.53 1150.19 584 1152.5 C579.75 1156.37 575.37 1160.01 570.91 1163.62 C567.8 1166.17 564.74 1168.77 561.69 1171.38 C556.57 1175.73 551.35 1179.94 546.04 1184.06 C543.33 1186.16 540.66 1188.29 538.04 1190.5 C537.16 1191.25 536.28 1191.99 535.38 1192.75 C534.62 1193.4 533.86 1194.06 533.09 1194.73 C531 1196 531 1196 529.09 1195.75 C526.77 1194.92 525.35 1193.91 523.46 1192.34 C522.8 1191.8 522.15 1191.26 521.47 1190.7 C520.78 1190.12 520.09 1189.54 519.38 1188.94 C517.93 1187.74 516.49 1186.55 515.04 1185.36 C514.35 1184.78 513.65 1184.2 512.93 1183.6 C510.54 1181.62 508.12 1179.68 505.69 1177.75 C496.24 1170.2 486.98 1162.46 477.82 1154.56 C476 1153 474.17 1151.44 472.35 1149.88 C466.24 1144.67 460.18 1139.41 454.23 1134.01 C452.17 1132.15 450.09 1130.32 448 1128.5 C444.15 1125.14 440.35 1121.73 436.55 1118.3 C434.93 1116.84 433.3 1115.37 431.67 1113.92 C425.43 1108.34 419.3 1102.66 413.2 1096.93 C410.6 1094.5 408 1092.07 405.39 1089.65 C393.37 1078.48 381.76 1066.91 370.17 1055.3 C367.4 1052.53 364.63 1049.76 361.86 1046.99 C359.69 1044.83 357.52 1042.66 355.36 1040.49 C354.34 1039.47 353.32 1038.45 352.3 1037.43 C347.15 1032.3 342.1 1027.14 337.39 1021.61 C335.53 1019.46 333.54 1017.48 331.5 1015.5 C328.18 1012.21 325.05 1008.84 322.01 1005.3 C319.4 1002.31 316.7 999.41 314 996.5 C309.58 991.73 305.24 986.92 301 982 C300.04 980.89 299.07 979.78 298.11 978.67 C294.73 974.79 291.37 970.89 288 967 C287.47 966.38 286.93 965.76 286.38 965.13 C279.81 957.51 273.34 949.82 267 942 C266 940.79 265.01 939.57 264.01 938.36 C256.69 929.43 249.6 920.34 242.62 911.14 C241.01 909.01 239.38 906.9 237.75 904.78 C229.95 894.67 222.4 884.4 215 874 C214.45 873.23 213.91 872.47 213.34 871.68 C157.39 793.23 114.86 706.95 6 193 C5.92 191.86 5.84 190.73 5.76 189.56 C3.71 159.12 2.52 128.65 1.41 98.18 C1.32 95.46 1.21 92.73 1.11 90.01 C-0.01 59.97 0 30.09 0 0 Z M24 24 C24.81 70.01 24.81 70.01 26.19 116 C26.22 116.81 26.25 117.62 26.28 118.45 C28.32 173.87 31.84 229.44 37.74 284.59 C38.02 287.16 38.29 289.72 38.56 292.28 C40.75 312.96 43.26 333.59 46.12 354.19 C46.25 355.07 46.37 355.95 46.5 356.86 C47.98 367.5 49.65 378.08 51.57 388.64 C52.21 392.19 52.84 395.74 53.46 399.29 C59.7 434.82 66.7 470.01 75.25 505.06 C75.51 506.12 75.76 507.17 76.03 508.26 C78.49 518.34 80.97 528.38 84.13 538.27 C85.51 542.59 86.71 546.95 87.94 551.31 C90.09 558.9 92.33 566.44 94.72 573.95 C95.53 576.49 96.32 579.05 97.11 581.6 C100.31 591.97 103.74 602.25 107.31 612.5 C107.76 613.78 107.76 613.78 108.21 615.08 C118.43 644.26 130.03 672.94 143 701 C143.62 702.35 144.24 703.69 144.86 705.04 C164.03 746.61 185.71 786.79 211 825 C211.8 826.22 212.6 827.45 213.41 828.67 C228.37 851.39 244.32 873.51 261 895 C261.47 895.61 261.94 896.22 262.43 896.84 C269.33 905.73 276.4 914.48 283.52 923.19 C284.83 924.79 286.13 926.4 287.44 928 C292.73 934.5 298.12 940.91 303.55 947.3 C305.02 949.02 306.48 950.75 307.95 952.48 C313.92 959.51 320.04 966.37 326.33 973.12 C328.43 975.38 330.48 977.67 332.5 980 C336.99 985.18 341.67 990.18 346.33 995.2 C348.03 997.04 349.73 998.87 351.43 1000.71 C357.64 1007.43 363.93 1014.05 370.47 1020.44 C373.24 1023.15 375.85 1025.94 378.38 1028.88 C382.06 1033.12 385.96 1037.1 389.94 1041.06 C390.6 1041.73 391.27 1042.4 391.95 1043.09 C395.18 1046.31 398.45 1049.43 401.91 1052.4 C407.56 1057.28 412.7 1062.66 417.93 1067.97 C422.23 1072.31 426.58 1076.5 431.24 1080.46 C433.08 1082.07 434.79 1083.76 436.5 1085.5 C439.4 1088.45 442.44 1091.15 445.57 1093.85 C448.77 1096.68 451.88 1099.59 455 1102.5 C459.93 1107.09 464.88 1111.62 470 1116 C471.02 1116.88 472.04 1117.75 473.07 1118.63 C474.83 1120.14 476.6 1121.66 478.37 1123.17 C482.79 1126.95 487.18 1130.75 491.56 1134.56 C501.38 1143.08 511.23 1151.51 521.51 1159.47 C523.78 1161.24 525.96 1162.96 528 1165 C532.27 1164.86 535.1 1161.62 538.12 1158.94 C539.29 1157.92 540.47 1156.91 541.64 1155.9 C542.21 1155.4 542.78 1154.9 543.38 1154.39 C545.52 1152.56 547.72 1150.81 549.94 1149.06 C555.82 1144.39 561.49 1139.48 567.18 1134.57 C568.97 1133.02 570.78 1131.48 572.59 1129.95 C579.29 1124.25 585.87 1118.43 592.33 1112.46 C595.19 1109.83 598.1 1107.27 601.03 1104.72 C609.5 1097.32 617.76 1089.66 626 1082 C626.65 1081.39 627.31 1080.78 627.98 1080.16 C636.65 1072.1 645.18 1063.94 653.47 1055.49 C657.18 1051.73 661.01 1048.21 665.01 1044.76 C668.33 1041.83 671.44 1038.7 674.56 1035.56 C675.18 1034.95 675.8 1034.33 676.44 1033.69 C679.56 1030.57 682.56 1027.4 685.43 1024.06 C689.91 1018.88 694.8 1014.15 699.68 1009.36 C703.71 1005.37 707.55 1001.31 711.24 997.01 C715.04 992.67 719.06 988.54 723.04 984.36 C726.94 980.24 730.74 976.06 734.45 971.78 C736.39 969.55 738.38 967.37 740.38 965.19 C744.32 960.82 748.05 956.3 751.75 951.72 C753.94 949.08 756.19 946.53 758.5 944 C763.2 938.82 767.61 933.44 772 928 C773 926.78 774 925.56 775 924.34 C781.16 916.83 787.18 909.24 793.05 901.5 C796.42 897.05 799.84 892.65 803.28 888.26 C809.99 879.73 816.35 871.02 822.53 862.1 C824.01 859.99 825.5 857.89 826.99 855.79 C851.57 821.29 873.8 785.06 893.2 747.4 C894.87 744.17 896.56 740.95 898.3 737.75 C905.52 724.49 911.79 710.77 918 697 C918.53 695.82 919.06 694.65 919.61 693.43 C929.25 671.95 937.77 650.06 946 628 C946.3 627.19 946.61 626.37 946.92 625.54 C953.08 609.01 959.17 592.54 963.75 575.5 C964.95 571.05 966.42 566.72 967.94 562.38 C971.72 551.43 974.42 540.18 977.25 528.96 C978.15 525.42 979.1 521.9 980.06 518.38 C982.67 508.65 984.95 498.83 987.27 489.03 C987.91 486.39 988.55 483.76 989.21 481.13 C995.78 454.75 1000.72 427.92 1005.01 401.09 C1005.23 399.7 1005.45 398.32 1005.68 396.93 C1005.84 395.93 1005.84 395.93 1006 394.9 C1006.73 390.46 1007.58 386.06 1008.49 381.66 C1010.3 372.81 1011.58 363.89 1012.81 354.94 C1012.94 354.02 1013.07 353.1 1013.2 352.16 C1021.87 289.07 1027.09 225.49 1030.72 161.92 C1030.94 158.06 1031.17 154.2 1031.42 150.34 C1032.78 128.58 1033.43 106.8 1034.06 85 C1034.12 82.66 1034.19 80.32 1034.26 77.98 C1034.37 74.22 1034.47 70.45 1034.57 66.68 C1034.63 64.65 1034.69 62.61 1034.75 60.57 C1035.06 48.37 1035 36.22 1035 24 C701.37 24 367.74 24 24 24 Z " fill="#020202" transform="translate(0,0)"/>
<path d="M0 0 C217.14 0 434.28 0 658 0 C654.31 3.69 650.91 6.65 646.69 9.56 C641.5 13.21 636.38 16.93 631.31 20.75 C623.06 26.97 614.75 33.1 606.42 39.22 C602.45 42.14 598.47 45.07 594.5 48 C592.92 49.17 591.33 50.33 589.75 51.5 C588.97 52.08 588.18 52.66 587.38 53.25 C542.25 86.5 542.25 86.5 539.87 88.25 C538.29 89.42 536.71 90.58 535.13 91.75 C531.14 94.69 527.14 97.63 523.14 100.57 C515.74 106.02 508.35 111.47 501 117 C492.85 123.13 484.64 129.18 476.42 135.22 C472.45 138.14 468.47 141.07 464.5 144 C462.92 145.17 461.33 146.33 459.75 147.5 C458.97 148.08 458.18 148.65 457.38 149.25 C431.25 168.5 431.25 168.5 428.87 170.25 C427.3 171.41 425.72 172.57 424.15 173.73 C420.05 176.75 415.96 179.77 411.86 182.78 C411.02 183.4 410.17 184.03 409.3 184.67 C407.7 185.85 406.1 187.03 404.49 188.21 C403.76 188.75 403.03 189.29 402.27 189.84 C401.56 190.36 400.84 190.88 400.11 191.42 C398.68 192.49 397.29 193.6 395.92 194.74 C392.64 197.43 390.75 198.9 386.46 199.49 C382.72 198.96 379.2 198.16 375.56 197.12 C370.38 195.67 365.22 194.31 360 193 C360 181.12 360 169.24 360 157 C362.31 157 364.62 157 367 157 C370.08 162.42 370.08 162.42 369.69 165.38 C369.35 166.18 369.35 166.18 369 167 C365.53 167.99 365.53 167.99 362 169 C362 169.66 362 170.32 362 171 C367.88 170.87 367.88 170.87 372.44 167.56 C373.97 165.13 373.97 165.13 375 163 C378.37 163.55 380.08 164.05 383 166 C382.67 167.65 382.34 169.3 382 171 C381.01 171 380.02 171 379 171 C379 171.66 379 172.32 379 173 C382.47 172.01 382.47 172.01 386 171 C386.06 169.72 386.12 168.44 386.19 167.12 C386.24 166.05 386.24 166.05 386.29 164.95 C386.2 164.3 386.1 163.66 386 163 C385.01 162.34 384.02 161.68 383 161 C382.59 158.29 382.87 155.76 383 153 C383.66 153 384.32 153 385 153 C386.59 154.64 386.59 154.64 388.38 156.81 C392.37 161.87 392.37 161.87 398.07 164.33 C402.17 164.26 402.17 164.26 406 163 C406.33 162.01 406.66 161.02 407 160 C406.44 160.08 405.89 160.16 405.31 160.25 C401.6 160.55 399 160.64 395.8 158.58 C393.79 156.78 391.88 154.93 390 153 C381.23 144.91 372.05 145.75 360 145 C360 132.13 360 119.26 360 106 C363.47 105.5 363.47 105.5 367 105 C370.05 110.37 370.05 110.37 369.81 113.25 C369 115 369 115 367 117 C364.88 117.62 364.88 117.62 363 118 C368.05 118.47 368.05 118.47 372.38 116.19 C374.17 114.01 374.17 114.01 375 111 C380.75 112.75 380.75 112.75 383 115 C383 116.32 383 117.64 383 119 C381.51 119.5 381.51 119.5 380 120 C381.98 120 383.96 120 386 120 C386.21 115.99 386.21 115.99 386 112 C385.26 111.26 385.26 111.26 384.5 110.5 C383 109 383 109 382.8 107.05 C382.81 105.03 382.9 103.02 383 101 C386.89 104.17 390.45 107.45 394 111 C396.25 112.12 397.51 112.13 400 112.12 C400.7 112.13 401.4 112.13 402.12 112.13 C404.09 112.11 404.09 112.11 406 111 C406.33 110.01 406.66 109.02 407 108 C406.36 108.07 405.72 108.14 405.06 108.21 C400.16 108.52 396.94 108.56 393.12 105.25 C391.4 103.53 389.77 101.75 388.14 99.93 C380.79 93.3 369.31 93.37 360 93 C360 88.05 360 83.1 360 78 C361.46 77.5 362.93 77.01 364.44 76.5 C373.51 72.82 379.12 67.06 383.12 58.2 C383.81 56.49 384.42 54.75 385 53 C389.95 53 394.9 53 400 53 C400 47.39 400 41.78 400 36 C395.05 36 390.1 36 385 36 C384.5 34.54 384.01 33.07 383.5 31.56 C379.82 22.49 374.06 16.88 365.2 12.88 C363.49 12.19 361.75 11.58 360 11 C359.67 8.69 359.34 6.38 359 4 C354.05 4 349.1 4 344 4 C343.67 6.31 343.34 8.62 343 11 C342.38 11.2 341.77 11.39 341.13 11.59 C331.33 15.06 324.67 20.67 319.88 29.92 C318.82 32.27 318.82 32.27 318 36 C313.05 36 308.1 36 303 36 C303 41.61 303 47.22 303 53 C307.95 53 312.9 53 318 53 C318.5 54.46 318.99 55.93 319.5 57.44 C324.22 68.99 332.28 73.75 343 79 C343 84.28 343 89.56 343 95 C331.95 95.49 331.95 95.49 327.81 93.38 C325.66 90.55 325.24 88.51 325 85 C321.94 86.08 319.58 87.28 316.88 89.12 C314 91 314 91 311 91 C311.5 93.01 311.5 93.01 313 95 C314.11 95.31 315.23 95.62 316.38 95.94 C320.56 97.16 321.86 98.25 324 102 C323.88 104.03 323.88 104.03 323 106 C320.97 107.2 320.97 107.2 318.5 108.12 C315.03 109.24 315.03 109.24 313 112 C313.95 111.5 314.9 111.01 315.88 110.5 C320.53 108.52 325.01 108.27 330 109 C333.12 110.5 333.12 110.5 335 113 C335.4 115.8 335.24 118.14 335 121 C333.51 121.5 333.51 121.5 332 122 C335.29 121.62 335.29 121.62 338 120 C338.37 118.36 338.7 116.71 339 115.06 C339.89 110.21 339.89 110.21 341 108 C341.66 108 342.32 108 343 108 C343 120.54 343 133.08 343 146 C338.71 146 334.42 146 330 146 C326.55 142.55 325.44 141.31 324 137 C321.59 137.42 320.31 137.66 318.62 139.5 C316.31 141.64 314.06 141.66 311 142 C311.16 143.98 311.16 143.98 312 146 C313.99 146.96 313.99 146.96 316.38 147.44 C319.7 148.41 320.78 148.75 323.12 151.44 C324.1 154.3 324.22 155.27 323 158 C320.71 159.05 320.71 159.05 317.94 159.75 C317.02 159.99 316.1 160.23 315.15 160.48 C314.44 160.65 313.73 160.82 313 161 C313 161.66 313 162.32 313 163 C313.74 162.67 314.49 162.34 315.25 162 C320.43 160.62 325.69 160.13 331 161 C333.35 162.79 333.35 162.79 335 165 C335.25 168.75 335.25 168.75 335 172 C333.68 172.33 332.36 172.66 331 173 C331 173.66 331 174.32 331 175 C334 174.92 334 174.92 337 173 C338.08 169.94 338.7 166.95 339.26 163.75 C340 161 340 161 343 159 C343 168.57 343 178.14 343 188 C334 186.88 334 186.88 329.63 185.8 C328.66 185.56 327.68 185.33 326.68 185.08 C325.65 184.83 324.62 184.57 323.56 184.31 C321.32 183.77 319.07 183.22 316.83 182.67 C315.69 182.39 314.55 182.11 313.38 181.83 C305.08 179.8 296.76 177.81 288.45 175.83 C285.3 175.07 282.15 174.31 279.01 173.54 C276.26 172.87 273.52 172.21 270.77 171.55 C269.43 171.23 268.1 170.9 266.77 170.57 C264.9 170.11 263.04 169.67 261.17 169.22 C260.1 168.96 259.03 168.7 257.92 168.43 C252.96 167.7 249.7 168.9 245.61 171.7 C244.78 172.26 243.94 172.83 243.08 173.41 C242.19 174.02 241.3 174.63 240.39 175.27 C238.99 176.21 238.99 176.21 237.57 177.18 C234.61 179.19 231.65 181.22 228.69 183.25 C225.74 185.26 222.79 187.27 219.83 189.28 C218 190.53 216.17 191.78 214.33 193.04 C199.76 203 199.76 203 197 203 C196.67 171.32 196.34 139.64 196 107 C175.54 107 155.08 107 134 107 C133.67 130.43 133.34 153.86 133 178 C95.38 178 57.76 178 19 178 C14.95 157.76 12.09 137.52 9.88 117 C9.5 113.56 9.12 110.11 8.74 106.67 C8.49 104.44 8.25 102.22 8 99.99 C7.39 94.39 6.73 88.8 5.98 83.22 C4.55 72 3.67 60.73 2.71 49.46 C2.38 45.51 2.03 41.55 1.68 37.6 C1.46 35.03 1.24 32.47 1.02 29.91 C0.92 28.75 0.82 27.59 0.71 26.4 C-0.03 17.51 0 9.01 0 0 Z " fill="#FDFDFD" transform="translate(187,180)"/>
<path d="M0 0 C0.56 47.76 1.08 95.53 1.43 143.29 C1.43 144 1.44 144.71 1.44 145.44 C1.56 160.83 1.66 176.23 1.76 191.62 C1.81 199.17 1.86 206.73 1.91 214.28 C1.92 215.4 1.92 215.4 1.93 216.55 C2.09 240.86 2.34 265.16 2.64 289.47 C2.94 314.47 3.16 339.46 3.26 364.47 C3.28 368.01 3.29 371.55 3.31 375.09 C3.31 375.78 3.32 376.48 3.32 377.2 C3.37 388.36 3.52 399.53 3.7 410.69 C3.89 421.94 3.97 433.2 3.95 444.45 C3.95 450.54 3.98 456.62 4.14 462.71 C5.13 502.45 5.13 502.45 -6.68 515.77 C-11.63 520.95 -17.09 525.47 -22.87 529.7 C-26.23 532.17 -29.34 534.83 -32.44 537.61 C-34.56 539.5 -36.77 541.26 -39 543 C-40.16 541.82 -40.16 541.82 -41.34 540.62 C-42.4 539.56 -43.45 538.5 -44.5 537.44 C-45.26 536.67 -45.26 536.67 -46.03 535.88 C-48.81 533.08 -51.65 530.41 -54.65 527.84 C-59.83 523.36 -64.64 518.51 -69.47 513.66 C-71.06 512.07 -72.65 510.48 -74.24 508.89 C-79.19 503.95 -84.03 498.96 -88.58 493.64 C-90.45 491.48 -92.45 489.49 -94.5 487.5 C-97.95 484.1 -101.17 480.58 -104.32 476.9 C-105.98 475.02 -107.71 473.26 -109.5 471.5 C-112.49 468.55 -115.25 465.47 -117.99 462.29 C-119.94 460.06 -121.94 457.89 -123.95 455.72 C-128.76 450.54 -133.31 445.23 -137.75 439.72 C-140.84 435.98 -144.13 432.44 -147.45 428.9 C-148.71 427.46 -148.71 427.46 -150 426 C-150.58 425.4 -151.15 424.8 -151.75 424.19 C-157.38 417.84 -158.02 412.84 -157.95 404.53 C-157.97 403.3 -157.98 402.07 -158 400.8 C-158.04 397.4 -158.05 394 -158.05 390.6 C-158.05 386.92 -158.09 383.25 -158.13 379.57 C-158.2 372.38 -158.22 365.19 -158.23 358 C-158.24 352.15 -158.26 346.3 -158.29 340.45 C-158.36 323.86 -158.4 307.26 -158.41 290.66 C-158.41 289.77 -158.41 288.87 -158.41 287.95 C-158.41 287.06 -158.41 286.16 -158.41 285.24 C-158.41 270.74 -158.5 256.24 -158.61 241.73 C-158.73 226.83 -158.79 211.92 -158.79 197.01 C-158.79 188.65 -158.82 180.29 -158.91 171.92 C-158.98 164.8 -159 157.68 -158.95 150.56 C-158.93 146.93 -158.93 143.31 -159 139.68 C-159.4 118.52 -159.4 118.52 -155.42 112.68 C-151.74 108.88 -147.59 106.29 -142.88 103.96 C-140.35 102.67 -138.18 101.01 -135.95 99.26 C-134.53 98.21 -133.11 97.17 -131.69 96.12 C-130.08 94.94 -128.47 93.76 -126.86 92.57 C-126.05 91.98 -125.25 91.39 -124.42 90.78 C-119.66 87.28 -114.89 83.76 -110.13 80.25 C-106.15 77.32 -102.17 74.39 -98.18 71.46 C-90.57 65.88 -82.99 60.26 -75.5 54.5 C-67.22 48.13 -58.83 41.94 -50.41 35.77 C-46.43 32.85 -42.47 29.92 -38.5 27 C-33.62 23.4 -28.74 19.81 -23.86 16.22 C-23.02 15.6 -22.17 14.97 -21.3 14.33 C-19.7 13.15 -18.1 11.97 -16.49 10.79 C-15.76 10.25 -15.03 9.71 -14.27 9.16 C-13.56 8.64 -12.86 8.12 -12.13 7.58 C-10.66 6.49 -9.2 5.38 -7.74 4.26 C-6.67 3.44 -6.67 3.44 -5.57 2.59 C-4.93 2.1 -4.29 1.6 -3.64 1.08 C-2 0 -2 0 0 0 Z " fill="#ED2523" transform="translate(568,415)"/>
<path d="M0 0 C0.21 45.37 0.4 90.75 0.51 136.12 C0.51 136.79 0.51 137.46 0.51 138.16 C0.55 152.76 0.58 167.36 0.61 181.97 C0.63 189.13 0.64 196.29 0.66 203.45 C0.66 204.52 0.66 204.52 0.66 205.61 C0.72 228.7 0.81 251.79 0.92 274.87 C1.03 298.6 1.1 322.33 1.13 346.07 C1.14 361.35 1.19 376.64 1.29 391.93 C1.36 401.95 1.38 411.98 1.36 422 C1.35 427.78 1.37 433.56 1.43 439.35 C1.49 444.65 1.49 449.94 1.45 455.24 C1.45 457.15 1.46 459.07 1.5 460.98 C1.69 471.01 1.19 478.11 -5.72 485.81 C-7.26 487.39 -8.82 488.93 -10.42 490.44 C-13.11 493.1 -15.48 496.02 -17.88 498.94 C-23.31 505.32 -29.02 511.45 -34.77 517.55 C-37.36 520.31 -39.92 523.11 -42.44 525.94 C-51.01 535.51 -59.81 544.89 -68.88 554 C-69.38 554.51 -69.89 555.02 -70.41 555.55 C-73.88 559 -73.88 559 -75 559 C-75.33 511.05 -75.63 463.11 -75.8 415.16 C-75.81 414.09 -75.81 414.09 -75.81 413.01 C-75.87 397.57 -75.92 382.14 -75.97 366.71 C-75.99 359.15 -76.02 351.58 -76.04 344.01 C-76.05 343.26 -76.05 342.5 -76.05 341.73 C-76.13 317.33 -76.27 292.94 -76.45 268.54 C-76.63 243.47 -76.75 218.39 -76.78 193.31 C-76.79 189.77 -76.8 186.22 -76.8 182.68 C-76.8 181.98 -76.81 181.29 -76.81 180.57 C-76.83 169.35 -76.92 158.14 -77.03 146.92 C-77.14 135.64 -77.18 124.36 -77.16 113.07 C-77.14 106.96 -77.16 100.85 -77.26 94.74 C-77.36 89.14 -77.36 83.55 -77.3 77.95 C-77.29 75.93 -77.31 73.91 -77.37 71.89 C-77.78 57.24 -77.78 57.24 -73.16 51.85 C-68.63 47.76 -63.63 44.55 -58.39 41.46 C-54.73 39.22 -51.38 36.63 -48 34 C-46.7 33.02 -45.39 32.03 -44.08 31.05 C-43.42 30.56 -42.76 30.06 -42.08 29.55 C-36.72 25.55 -31.32 21.59 -25.92 17.62 C-22.48 15.1 -19.06 12.55 -15.64 10 C-14.77 9.35 -13.9 8.7 -13 8.03 C-11.32 6.78 -9.64 5.53 -7.97 4.27 C-6.84 3.43 -6.84 3.43 -5.68 2.57 C-5.02 2.07 -4.35 1.58 -3.67 1.06 C-2 0 -2 0 0 0 Z " fill="#FEFDFD" transform="translate(643,360)"/>
<path d="M0 0 C0.28 41.11 0.49 82.23 0.61 123.34 C0.63 128.21 0.64 133.08 0.66 137.95 C0.66 138.92 0.67 139.89 0.67 140.89 C0.72 156.52 0.82 172.15 0.93 187.78 C1.04 203.86 1.1 219.94 1.13 236.02 C1.15 245.91 1.2 255.8 1.29 265.7 C1.36 272.51 1.38 279.33 1.36 286.15 C1.35 290.06 1.36 293.97 1.43 297.88 C1.79 320.63 -2.88 338.23 -12 359 C-13.14 361.68 -14.26 364.36 -15.38 367.04 C-30.02 402.07 -46.7 436.27 -66.38 468.75 C-66.94 469.69 -66.94 469.69 -67.52 470.64 C-72.13 478.23 -72.13 478.23 -74 481 C-74.33 481 -74.66 481 -75 481 C-75.44 426.84 -75.77 372.68 -75.97 318.52 C-75.99 312.13 -76.02 305.73 -76.04 299.33 C-76.05 298.06 -76.05 296.79 -76.06 295.48 C-76.14 274.87 -76.29 254.26 -76.47 233.65 C-76.64 212.5 -76.75 191.35 -76.79 170.19 C-76.81 157.14 -76.9 144.1 -77.05 131.05 C-77.15 122.1 -77.18 113.15 -77.16 104.19 C-77.14 99.03 -77.16 93.87 -77.26 88.71 C-77.88 56.13 -77.88 56.13 -70.96 48.63 C-67.12 45.42 -63.08 43.22 -58.51 41.22 C-54.1 39.08 -50.36 36 -46.5 33 C-44.92 31.83 -43.34 30.67 -41.76 29.51 C-40.98 28.93 -40.2 28.35 -39.39 27.76 C-36.97 25.98 -34.56 24.21 -32.14 22.43 C-30.53 21.24 -28.92 20.06 -27.31 18.88 C-26.14 18.02 -26.14 18.02 -24.95 17.14 C-21.05 14.27 -17.17 11.38 -13.32 8.45 C-12.58 7.89 -11.84 7.33 -11.08 6.75 C-9.68 5.69 -8.29 4.63 -6.9 3.55 C-2.22 0 -2.22 0 0 0 Z " fill="#FEFDFD" transform="translate(800,244)"/>
<path d="M0 0 C0 144.54 0 289.08 0 438 C-8.05 431.1 -15.46 423.92 -22.36 415.86 C-24 414 -25.72 412.25 -27.5 410.5 C-30.49 407.55 -33.25 404.47 -35.99 401.29 C-37.94 399.06 -39.94 396.89 -41.95 394.72 C-46.76 389.54 -51.31 384.23 -55.75 378.72 C-58.84 374.98 -62.13 371.44 -65.45 367.9 C-66.71 366.46 -66.71 366.46 -68 365 C-68.58 364.4 -69.15 363.8 -69.75 363.19 C-75.38 356.84 -76.02 351.84 -75.95 343.53 C-75.97 342.3 -75.98 341.07 -76 339.8 C-76.04 336.4 -76.05 333 -76.05 329.6 C-76.05 325.92 -76.09 322.25 -76.13 318.57 C-76.2 311.38 -76.22 304.19 -76.23 297 C-76.24 291.15 -76.26 285.3 -76.29 279.45 C-76.36 262.86 -76.4 246.26 -76.41 229.66 C-76.41 228.77 -76.41 227.87 -76.41 226.95 C-76.41 226.06 -76.41 225.16 -76.41 224.24 C-76.41 209.74 -76.5 195.24 -76.61 180.73 C-76.73 165.83 -76.79 150.92 -76.79 136.01 C-76.79 127.65 -76.82 119.29 -76.91 110.92 C-76.98 103.8 -77 96.68 -76.95 89.56 C-76.93 85.93 -76.93 82.31 -77 78.68 C-77.4 57.52 -77.4 57.52 -73.42 51.68 C-69.74 47.88 -65.59 45.29 -60.88 42.96 C-58.35 41.67 -56.18 40.01 -53.95 38.26 C-52.53 37.21 -51.11 36.17 -49.69 35.12 C-48.08 33.94 -46.47 32.76 -44.86 31.57 C-44.05 30.98 -43.25 30.39 -42.42 29.78 C-39.24 27.44 -36.05 25.09 -32.86 22.74 C-31.3 21.59 -29.73 20.43 -28.16 19.28 C-23.98 16.2 -19.81 13.12 -15.65 10.01 C-14.78 9.36 -13.91 8.71 -13.01 8.04 C-11.32 6.79 -9.64 5.53 -7.96 4.27 C-7.21 3.71 -6.46 3.15 -5.68 2.57 C-5.02 2.07 -4.35 1.58 -3.67 1.06 C-2 0 -2 0 0 0 Z " fill="#FEFEFE" transform="translate(486,476)"/>
<path d="M0 0 C0.33 0 0.66 0 1 0 C1 99.33 1 198.66 1 301 C-3.1 297.72 -6.02 294.72 -9.12 290.62 C-10.1 289.36 -11.08 288.09 -12.05 286.83 C-12.79 285.87 -12.79 285.87 -13.55 284.88 C-15.32 282.58 -17.13 280.31 -18.93 278.03 C-25.86 269.3 -32.54 260.4 -39.18 251.45 C-40.32 249.92 -41.46 248.39 -42.6 246.86 C-57.54 226.88 -71.61 205.78 -83.85 184.02 C-85.13 181.77 -86.43 179.54 -87.73 177.3 C-102.9 151.16 -116.32 124.42 -129 97 C-126.18 94.11 -123.44 91.42 -120.14 89.09 C-119.42 88.58 -118.71 88.07 -117.97 87.55 C-117.22 87.02 -116.46 86.49 -115.69 85.94 C-114.07 84.78 -112.45 83.63 -110.83 82.47 C-110.02 81.89 -109.21 81.31 -108.37 80.71 C-104.84 78.16 -101.35 75.56 -97.88 72.94 C-96.89 72.2 -96.89 72.2 -95.89 71.45 C-94.58 70.46 -93.27 69.47 -91.95 68.48 C-82.04 60.99 -72.08 53.57 -62.07 46.21 C-57.02 42.5 -52 38.76 -47 35 C-37.16 27.6 -27.24 20.32 -17.32 13.03 C-14.67 11.08 -12.02 9.14 -9.38 7.19 C-8.14 6.28 -8.14 6.28 -6.88 5.35 C-6.12 4.8 -5.37 4.24 -4.59 3.67 C-3.92 3.18 -3.25 2.68 -2.56 2.18 C-1.04 1.09 -1.04 1.09 0 0 Z " fill="#ED2523" transform="translate(410,530)"/>
<path d="M0 0 C11.46 4.94 17.39 17.44 22.03 28.38 C25.3 37.61 27.05 47.65 28.03 57.38 C28.22 58.52 28.41 59.66 28.6 60.84 C27.95 64.87 27.49 65.25 24.41 67.66 C22.82 68.75 21.21 69.82 19.59 70.88 C17.93 72 16.28 73.13 14.62 74.26 C13.83 74.8 13.03 75.33 12.21 75.88 C8.85 78.18 5.71 80.72 2.56 83.3 C1.03 84.38 1.03 84.38 -0.97 84.38 C-0.97 83.38 -0.97 82.39 -0.97 81.38 C-1.96 81.05 -2.95 80.72 -3.97 80.38 C-4.41 79.69 -4.84 79.01 -5.29 78.31 C-6.88 76.08 -6.88 76.08 -9.91 75.81 C-13.18 76.1 -13.18 76.1 -15.35 78.88 C-15.88 79.7 -16.42 80.52 -16.97 81.38 C-18.79 81.12 -18.79 81.12 -20.97 80.38 C-21.41 79.69 -21.84 79.01 -22.29 78.31 C-23.93 76.01 -23.93 76.01 -27.41 75.81 C-31.13 76.04 -31.13 76.04 -33.41 78.88 C-33.93 79.7 -34.44 80.52 -34.97 81.38 C-36.79 81.12 -36.79 81.12 -38.97 80.38 C-39.43 79.69 -39.88 79.01 -40.35 78.31 C-41.88 76.07 -41.88 76.07 -44.91 75.81 C-48.89 76.54 -49.71 78.14 -51.97 81.38 C-52.63 81.38 -53.29 81.38 -53.97 81.38 C-53.97 82.69 -53.97 84.01 -53.97 85.38 C-50.44 83.46 -48.18 81.75 -45.97 78.38 C-42.97 79.38 -42.97 79.38 -41.22 82 C-39.11 84.79 -39.11 84.79 -35.41 84.5 C-31.33 83.17 -30.86 82.06 -28.97 78.38 C-27.98 78.38 -26.99 78.38 -25.97 78.38 C-25.35 79.58 -25.35 79.58 -24.72 80.81 C-23.12 83.7 -23.12 83.7 -19.6 84.56 C-16.1 84.74 -16.1 84.74 -14.41 83.09 C-12.84 81.26 -12.84 81.26 -10.97 78.38 C-6.69 79.96 -4.77 82.92 -1.97 86.38 C-14.25 95.46 -26.57 104.46 -38.97 113.38 C-39.58 112.89 -40.19 112.41 -40.82 111.91 C-42.88 110.23 -42.88 110.23 -45.41 109.81 C-49.37 110.68 -50.7 113.16 -52.97 116.38 C-53.3 117.37 -53.63 118.36 -53.97 119.38 C-50.39 117.44 -48.35 115.65 -45.97 112.38 C-45.31 112.38 -44.65 112.38 -43.97 112.38 C-43.64 113.69 -43.31 115.01 -42.97 116.38 C-45.01 118.01 -47.05 119.63 -49.1 121.25 C-49.67 121.71 -50.24 122.17 -50.82 122.64 C-54.44 125.48 -57.54 127 -61.97 128.38 C-64.34 130.87 -64.34 130.87 -65.97 133.38 C-67.85 133.19 -67.85 133.19 -69.97 132.38 C-71.22 129.81 -71.22 129.81 -71.97 127.38 C-75.26 126.87 -75.26 126.87 -78.97 127.38 C-82.01 129.8 -83.74 132.69 -84.97 136.38 C-81.71 134.57 -80.08 133.54 -77.97 130.38 C-75.17 130.76 -74.15 131.18 -72.22 133.31 C-70.97 135.38 -70.97 135.38 -70.97 137.38 C-72.94 139 -74.91 140.51 -76.97 142 C-77.55 142.42 -78.12 142.84 -78.71 143.27 C-80.12 144.31 -81.55 145.34 -82.97 146.38 C-83.58 146.06 -84.19 145.74 -84.82 145.41 C-87.57 144.09 -88.96 143.79 -91.97 144.38 C-93.95 146.23 -95.36 148.17 -96.97 150.38 C-98.85 150.19 -98.85 150.19 -100.97 149.38 C-102.22 146.81 -102.22 146.81 -102.97 144.38 C-105.76 143.96 -105.76 143.96 -108.97 144.38 C-112.18 147 -114.4 149.53 -115.97 153.38 C-112.72 153.03 -111.95 152.35 -109.72 149.81 C-108.86 148.61 -108.86 148.61 -107.97 147.38 C-104.81 148.74 -103.98 149.36 -101.97 152.38 C-98.56 153.04 -98.56 153.04 -94.97 152.38 C-92.7 149.96 -92.7 149.96 -90.97 147.38 C-89.98 147.38 -88.99 147.38 -87.97 147.38 C-89.52 151.54 -92.26 153.37 -95.79 155.94 C-96.82 156.7 -97.86 157.47 -98.93 158.25 C-101.56 160.09 -104.21 161.76 -106.97 163.38 C-108.98 164.7 -110.98 166.03 -112.97 167.38 C-114.02 165.86 -114.02 165.86 -115.1 164.31 C-116.42 162.65 -116.42 162.65 -117.97 161.38 C-121.09 160.96 -121.09 160.96 -123.97 162.38 C-126.36 164.81 -126.36 164.81 -127.97 167.38 C-131.23 167.03 -131.99 166.35 -134.22 163.81 C-134.8 163.01 -135.38 162.2 -135.97 161.38 C-139.63 161.68 -140.72 162.08 -143.16 164.94 C-143.76 165.74 -144.36 166.55 -144.97 167.38 C-145.63 167.38 -146.29 167.38 -146.97 167.38 C-146.97 168.69 -146.97 170.01 -146.97 171.38 C-143.44 169.46 -141.18 167.75 -138.97 164.38 C-136.37 165.49 -134.94 166.41 -133.04 168.56 C-131.12 170.64 -131.12 170.64 -128.47 170.44 C-125.26 169.07 -123.93 167.21 -121.97 164.38 C-120.1 164.56 -120.1 164.56 -117.97 165.38 C-116.84 167.93 -116.84 167.93 -115.97 170.38 C-126.37 179.27 -126.37 179.27 -130.38 179.54 C-131.05 179.38 -131.72 179.22 -132.41 179.06 C-133.59 178.84 -134.76 178.61 -135.97 178.38 C-138.25 180.14 -139.37 181.92 -140.97 184.38 C-142.72 184.19 -142.72 184.19 -144.97 183.38 C-145.55 182.51 -146.13 181.64 -146.72 180.75 C-148.66 178.16 -148.66 178.16 -151 178.27 C-153.01 178.53 -155 178.95 -156.97 179.38 C-157.96 176.08 -158.95 172.77 -159.97 169.38 C-158.65 169.71 -157.33 170.03 -155.97 170.38 C-158.32 165.57 -158.32 165.57 -162.04 161.94 C-165.03 159.52 -166.17 156.1 -166.97 152.38 C-166.64 151.38 -166.31 150.39 -165.97 149.38 C-165.31 150.37 -164.65 151.36 -163.97 152.38 C-160.56 153.04 -160.56 153.04 -156.97 152.38 C-154.5 150.02 -154.5 150.02 -152.97 147.38 C-149.67 147.74 -148.87 148.48 -146.54 151 C-144.24 153.64 -144.24 153.64 -141.41 153.5 C-138.31 152.07 -137.03 150.05 -134.97 147.38 C-133.98 147.38 -132.99 147.38 -131.97 147.38 C-130.62 149.03 -129.29 150.69 -127.97 152.38 C-126.98 152.71 -125.99 153.03 -124.97 153.38 C-125.57 152.26 -126.17 151.15 -126.79 150 C-127.12 149.37 -127.46 148.75 -127.8 148.1 C-129.02 146.07 -129.02 146.07 -131.97 144.38 C-134.48 144.31 -134.48 144.31 -136.97 145.38 C-139.29 147.83 -139.29 147.83 -140.97 150.38 C-142.72 150.19 -142.72 150.19 -144.97 149.38 C-145.61 148.53 -146.25 147.68 -146.91 146.81 C-148.73 144.2 -148.73 144.2 -151.41 143.69 C-155.21 144.71 -156.59 147.36 -158.97 150.38 C-159.96 150.38 -160.95 150.38 -161.97 150.38 C-162.43 149.59 -162.88 148.81 -163.35 148 C-165.25 144.93 -166.58 144.38 -169.97 143.38 C-171.54 137.35 -171.54 137.35 -169.93 134.57 C-168.68 133.11 -167.33 131.73 -165.97 130.38 C-163.15 130.76 -162.2 131.08 -160.41 133.38 C-159.7 134.37 -159.7 134.37 -158.97 135.38 C-157.98 135.71 -156.99 136.03 -155.97 136.38 C-156.59 135.26 -157.21 134.15 -157.85 133 C-158.2 132.37 -158.54 131.75 -158.9 131.1 C-159.98 129.21 -159.98 129.21 -161.97 127.38 C-164.34 126.71 -164.34 126.71 -166.97 127.38 C-168.95 129.22 -170.36 131.17 -171.97 133.38 C-173.98 130.36 -174.7 128.16 -175.6 124.69 C-175.86 123.69 -176.12 122.7 -176.39 121.68 C-176.58 120.92 -176.77 120.16 -176.97 119.38 C-176.19 118.78 -175.41 118.18 -174.6 117.56 C-171.83 115.46 -171.83 115.46 -169.97 112.38 C-166.97 113.38 -166.97 113.38 -165.16 115.94 C-163.17 118.62 -163.17 118.62 -160.04 119.06 C-155.65 118.08 -154.63 115.92 -151.97 112.38 C-151.31 112.38 -150.65 112.38 -149.97 112.38 C-149.58 113.18 -149.19 113.98 -148.79 114.81 C-147.13 117.69 -147.13 117.69 -143.6 118.5 C-139.8 118.77 -139.8 118.77 -137.29 115.88 C-136.14 114.64 -136.14 114.64 -134.97 113.38 C-132.85 113.31 -132.85 113.31 -130.97 114.38 C-129.95 115.69 -128.95 117.02 -127.97 118.38 C-126.98 118.71 -125.99 119.03 -124.97 119.38 C-125.59 118.26 -126.21 117.15 -126.85 116 C-127.2 115.37 -127.54 114.75 -127.9 114.1 C-128.98 112.21 -128.98 112.21 -130.97 110.38 C-133.39 109.79 -133.39 109.79 -135.97 110.38 C-136.63 111.2 -137.29 112.02 -137.97 112.88 C-139.97 115.38 -139.97 115.38 -142.72 115.69 C-143.47 115.58 -144.21 115.48 -144.97 115.38 C-145.63 113.73 -146.29 112.08 -146.97 110.38 C-150.26 109.87 -150.26 109.87 -153.97 110.38 C-156.11 112.19 -157.36 114.03 -158.97 116.38 C-161.57 115.3 -162.8 114.65 -164.35 112.25 C-165.89 110.08 -165.89 110.08 -168.91 109.81 C-172.18 110.1 -172.18 110.1 -174.35 112.88 C-174.88 113.7 -175.42 114.52 -175.97 115.38 C-176.96 115.04 -177.95 114.72 -178.97 114.38 C-180.05 111.73 -180.92 109.22 -181.72 106.5 C-181.96 105.77 -182.19 105.03 -182.43 104.28 C-184.1 98.77 -184.1 98.77 -182.97 95.38 C-181.98 95.7 -180.99 96.03 -179.97 96.38 C-178.79 98.94 -178.79 98.94 -177.97 101.38 C-174.68 101.79 -174.68 101.79 -170.97 101.38 C-169.27 99.75 -167.59 98.08 -165.97 96.38 C-163.85 96.31 -163.85 96.31 -161.97 97.38 C-160.95 98.69 -159.95 100.02 -158.97 101.38 C-157.98 101.7 -156.99 102.03 -155.97 102.38 C-155.97 101.06 -155.97 99.74 -155.97 98.38 C-156.63 98.38 -157.29 98.38 -157.97 98.38 C-158.84 97.14 -158.84 97.14 -159.72 95.88 C-161.77 93.1 -161.77 93.1 -165.04 92.75 C-168.18 93.08 -168.18 93.08 -169.85 95.88 C-170.22 96.7 -170.59 97.52 -170.97 98.38 C-173.29 98.12 -173.29 98.12 -175.97 97.38 C-176.45 96.72 -176.92 96.06 -177.41 95.38 C-178.9 93.04 -178.9 93.04 -182.16 92.62 C-183.09 92.54 -184.02 92.46 -184.97 92.38 C-190.97 75.14 -190.97 75.14 -190.97 68.38 C-140.48 68.38 -89.99 68.38 -37.97 68.38 C-37.97 65.4 -37.97 62.44 -37.97 59.38 C-36.81 46.72 -35.06 33.66 -28.97 22.38 C-28.51 21.43 -28.04 20.48 -27.57 19.51 C-22.24 9.05 -13.65 -4.32 0 0 Z " fill="#F8F8F8" transform="translate(421.97265625,408.625)"/>
<path d="M0 0 C-0.63 13.65 -1.58 27.26 -2.75 40.88 C-2.88 42.39 -2.88 42.39 -3.01 43.94 C-7.91 100.62 -15.17 157.13 -26 213 C-26.17 213.88 -26.34 214.76 -26.52 215.66 C-54.96 361.96 -54.96 361.96 -72 379 C-72.56 337.71 -73.02 296.42 -73.35 255.12 C-73.39 250.24 -73.43 245.37 -73.47 240.49 C-73.48 239.52 -73.49 238.54 -73.5 237.54 C-73.63 221.83 -73.82 206.12 -74.05 190.41 C-74.28 174.28 -74.43 158.15 -74.52 142.02 C-74.58 132.07 -74.69 122.13 -74.87 112.18 C-75 105.35 -75.05 98.53 -75.04 91.7 C-75.04 87.76 -75.07 83.83 -75.19 79.89 C-75.82 57.01 -75.82 57.01 -71.19 50.43 C-66.85 46.08 -61.96 43.14 -56.51 40.37 C-52.2 38.02 -48.39 34.99 -44.5 32 C-42.92 30.83 -41.35 29.67 -39.77 28.51 C-35.73 25.54 -31.7 22.57 -27.67 19.59 C-25.3 17.85 -22.93 16.1 -20.55 14.36 C-17.54 12.13 -14.52 9.91 -11.51 7.68 C-10.13 6.66 -8.75 5.64 -7.38 4.62 C-6.74 4.15 -6.11 3.68 -5.45 3.2 C-1.11 0 -1.11 0 0 0 Z " fill="#EC2725" transform="translate(872,190)"/>
<path d="M0 0 C8.34 5.32 11.54 15.03 13.62 24.25 C18.35 50.86 14.53 81.24 -1.1 103.71 C-7.74 112.48 -16.36 120.45 -27.54 122.48 C-32.62 122.81 -36.3 121.66 -40.46 118.76 C-43.67 115.72 -45.43 112.02 -47.25 108.06 C-47.76 107.17 -47.76 107.17 -48.29 106.26 C-57.34 85.74 -54.21 55.03 -46.34 34.71 C-42.81 26.4 -38.31 18.79 -32.25 12.06 C-31.74 11.44 -31.22 10.82 -30.68 10.18 C-23.21 1.83 -11.1 -4.62 0 0 Z " fill="#040404" transform="translate(739.25390625,821.9375)"/>
<path d="M0 0 C1.13 0.96 2.25 1.91 3.38 2.87 C4 3.4 4.63 3.94 5.28 4.49 C7.19 6.17 8.85 7.94 10.48 9.89 C13.95 13.96 17.58 17.86 21.25 21.75 C22.57 23.15 23.89 24.56 25.2 25.96 C27.01 27.89 28.83 29.82 30.65 31.74 C46.41 48.4 59.2 67.98 59.44 91.56 C59.45 92.43 59.46 93.3 59.47 94.2 C59.42 97.74 59.3 100.36 57.79 103.59 C55.43 105.45 53.92 105.32 51 105 C51.69 106.24 51.69 106.24 52.39 107.5 C59.43 120.75 65.78 137.52 61.2 152.64 C59.6 156.07 58.16 157.9 55 160 C51.53 160.4 49.63 160.36 46.58 158.6 C39.11 152.26 32.1 145.59 25.67 138.19 C22.05 134.02 18.29 130 14.5 126 C13.24 124.67 11.98 123.33 10.72 122 C9.9 121.13 9.9 121.13 9.06 120.25 C8.38 119.51 7.7 118.76 7 118 C6.44 117.48 5.88 116.96 5.3 116.42 C0.67 111.8 -0.8 108.55 -0.87 102.02 C-0.83 100.52 -0.83 100.52 -0.79 98.99 C-0.8 97.92 -0.8 96.85 -0.8 95.74 C-0.79 92.21 -0.74 88.68 -0.68 85.16 C-0.67 82.7 -0.66 80.25 -0.65 77.79 C-0.63 71.35 -0.56 64.9 -0.48 58.46 C-0.41 51.88 -0.38 45.29 -0.34 38.71 C-0.27 25.81 -0.15 12.9 0 0 Z " fill="#040404" transform="translate(329,820)"/>
<path d="M0 0 C3.24 2.33 4.3 4.16 5 8 C5.69 20.83 4.28 33.08 -3 44 C-1.93 44 -0.86 44 0.25 44 C4.65 45.17 4.65 45.17 6.44 48.25 C11.76 61.13 6.3 76.77 1.37 88.94 C-2.67 97.97 -8.16 104.91 -15 112 C-15.8 112.84 -16.59 113.67 -17.41 114.54 C-22.33 119.59 -27.48 124.1 -32.99 128.49 C-37.24 132.03 -41.24 135.83 -45.23 139.66 C-45.79 140.19 -46.35 140.73 -46.93 141.28 C-47.43 141.75 -47.92 142.23 -48.44 142.72 C-50.18 144.15 -51.98 145.02 -54 146 C-54.33 132.27 -54.57 118.55 -54.73 104.82 C-54.8 98.44 -54.9 92.07 -55.06 85.7 C-55.21 79.54 -55.29 73.38 -55.33 67.22 C-55.35 64.87 -55.4 62.53 -55.48 60.19 C-56.08 40.92 -56.08 40.92 -50.99 34.75 C-48.15 31.87 -45.08 29.46 -41.74 27.19 C-39.15 25.42 -36.78 23.39 -34.38 21.38 C-33.5 20.68 -32.62 19.98 -31.72 19.25 C-28.66 16.72 -25.77 14.03 -22.88 11.31 C-9.01 -1.53 -9.01 -1.53 0 0 Z " fill="#030303" transform="translate(593,979)"/>
<path d="M0 0 C2.81 1.4 3 3.37 3.97 6.22 C4.22 6.97 4.47 7.72 4.72 8.49 C4.99 9.27 5.25 10.05 5.53 10.86 C6.4 13.46 7.27 16.07 8.14 18.68 C8.74 20.48 9.35 22.29 9.95 24.09 C11.22 27.88 12.48 31.67 13.74 35.46 C15.36 40.33 16.99 45.18 18.62 50.04 C19.88 53.77 21.12 57.5 22.36 61.23 C22.96 63.03 23.56 64.82 24.17 66.61 C25.01 69.11 25.84 71.62 26.67 74.13 C26.92 74.87 27.17 75.61 27.43 76.37 C29.49 82.7 29.49 82.7 28 86 C26.74 87.56 26.74 87.56 25.16 89.02 C24.31 89.81 24.31 89.81 23.44 90.62 C22.84 91.16 22.24 91.69 21.62 92.25 C21.03 92.8 20.44 93.36 19.84 93.93 C15.38 98 15.38 98 12 98 C10.68 92.72 9.36 87.44 8 82 C0.44 87.99 -6.63 94.29 -13.6 100.95 C-14.26 101.57 -14.92 102.2 -15.59 102.84 C-16.18 103.4 -16.76 103.96 -17.37 104.54 C-19 106 -19 106 -22 108 C-22.85 110.76 -22.85 110.76 -23.32 114.04 C-23.55 115.26 -23.77 116.48 -24.01 117.74 C-24.46 120.3 -24.89 122.87 -25.31 125.44 C-26.92 134 -29.14 138.61 -36 144 C-37.22 145.13 -37.22 145.13 -38.46 146.28 C-39.41 147.1 -39.41 147.1 -40.38 147.94 C-41.02 148.5 -41.67 149.07 -42.34 149.65 C-44 151 -44 151 -46 152 C-45.32 146.87 -44.41 141.83 -43.36 136.77 C-43.2 135.99 -43.04 135.21 -42.88 134.41 C-42.36 131.88 -41.84 129.34 -41.31 126.81 C-40.95 125.04 -40.58 123.26 -40.21 121.49 C-36.52 103.59 -32.7 85.72 -28.77 67.87 C-28.57 66.97 -28.38 66.08 -28.17 65.16 C-27.2 60.74 -26.23 56.33 -25.25 51.91 C-25.06 51.09 -24.88 50.26 -24.7 49.41 C-24.33 47.77 -23.97 46.13 -23.6 44.48 C-22.65 40.16 -21.78 35.84 -21.01 31.48 C-20.77 30.12 -20.77 30.12 -20.52 28.73 C-20.21 27 -19.91 25.27 -19.64 23.53 C-18.68 18.21 -17.32 15.56 -13 12 C-12.4 11.39 -11.81 10.78 -11.19 10.16 C-7.62 6.53 -3.96 3.19 0 0 Z " fill="#040404" transform="translate(659,903)"/>
<path d="M0 0 C18.06 -2.35 18.06 -2.35 24.01 1.2 C27.59 4.51 30.06 8.59 32.57 12.74 C35.12 16.78 38.17 20.44 41.12 24.19 C42.22 25.59 43.3 27 44.38 28.42 C44.84 29.01 45.3 29.61 45.77 30.22 C47.05 32.08 48.04 33.96 49 36 C53.07 32.08 56.65 27.9 60.19 23.5 C60.75 22.8 61.31 22.11 61.9 21.39 C66.38 15.82 70.76 10.17 75.07 4.48 C77 2 77 2 79 0 C81.25 -0.23 81.25 -0.23 84.01 -0.2 C84.99 -0.19 85.98 -0.18 87 -0.18 C88.03 -0.16 89.06 -0.14 90.12 -0.12 C91.17 -0.12 92.21 -0.11 93.28 -0.1 C95.85 -0.07 98.43 -0.04 101 0 C97.8 4.97 94.27 9.6 90.62 14.25 C89.38 15.85 88.13 17.44 86.88 19.04 C86.24 19.86 85.6 20.67 84.95 21.51 C81.79 25.55 78.65 29.58 75.5 33.62 C74.66 34.71 74.66 34.71 73.8 35.81 C72.72 37.19 71.65 38.57 70.59 39.96 C69.49 41.37 68.35 42.76 67.19 44.12 C65.62 46.03 64.2 47.84 63 50 C63.51 54.65 67.57 58.46 70.5 62 C71.59 63.34 72.69 64.68 73.78 66.03 C74.32 66.7 74.87 67.37 75.43 68.05 C77.69 70.85 79.88 73.7 82.06 76.56 C84.67 79.98 87.29 83.38 89.96 86.75 C90.46 87.37 90.95 88 91.46 88.64 C92.42 89.85 93.38 91.05 94.33 92.24 C96.82 95.37 99.03 98.52 101 102 C81.68 104.04 81.68 104.04 76.11 100.95 C73.02 98.11 71.08 94.56 69.11 90.9 C67.17 87.57 64.68 84.67 62.25 81.69 C61.33 80.52 60.41 79.36 59.49 78.19 C59.06 77.64 58.63 77.1 58.19 76.54 C56.11 73.85 54.1 71.11 52.12 68.36 C51.02 66.84 51.02 66.84 49 66 C48.72 66.59 48.45 67.17 48.16 67.78 C47.05 69.9 45.84 71.68 44.38 73.58 C43.61 74.6 43.61 74.6 42.81 75.64 C41.67 77.12 40.51 78.59 39.35 80.06 C36.43 83.76 33.68 87.42 31.25 91.45 C25.01 101.28 25.01 101.28 19.33 102.64 C12.84 103.28 6.45 102.84 0 102 C1.76 98.33 3.93 95.34 6.44 92.12 C6.88 91.56 7.32 90.99 7.78 90.4 C9.18 88.6 10.59 86.8 12 85 C12.65 84.17 12.65 84.17 13.32 83.32 C14.19 82.21 15.06 81.11 15.93 80 C16.81 78.87 17.7 77.74 18.58 76.6 C21.3 73.13 24.06 69.7 26.84 66.29 C28.15 64.67 29.45 63.05 30.75 61.44 C31.38 60.68 32.02 59.91 32.67 59.13 C33.25 58.4 33.83 57.68 34.42 56.93 C34.94 56.29 35.47 55.66 36 55 C37.36 52.27 36.92 50.85 36 48 C34.5 45.82 32.99 43.84 31.31 41.81 C30.31 40.57 29.3 39.33 28.3 38.08 C27.77 37.42 27.23 36.76 26.68 36.08 C23.74 32.43 20.87 28.71 18 25 C14.58 20.59 11.15 16.18 7.66 11.81 C7.15 11.17 6.64 10.52 6.11 9.86 C5.14 8.65 4.17 7.44 3.2 6.24 C0 2.22 0 2.22 0 0 Z " fill="#030303" transform="translate(893,314)"/>
<path d="M0 0 C19.28 -1.46 19.28 -1.46 24.89 1.55 C26.94 3.9 28.43 6.3 30 9 C31.18 10.55 32.37 12.1 33.58 13.63 C34.88 15.25 36.14 16.9 37.4 18.56 C37.82 19.12 38.25 19.68 38.68 20.26 C39.58 21.45 40.49 22.64 41.39 23.84 C42.76 25.64 44.13 27.45 45.5 29.25 C46.13 30.09 46.13 30.09 46.78 30.95 C48.98 33.93 48.98 33.93 52 36 C52.27 35.42 52.54 34.84 52.82 34.24 C54 32 55.31 30.15 56.87 28.16 C57.44 27.44 58.01 26.71 58.59 25.96 C59.84 24.38 61.1 22.8 62.37 21.23 C65.35 17.49 68.19 13.84 70.6 9.7 C75.19 2.18 75.19 2.18 79 0 C86.22 -1.61 93.71 -0.88 101 0 C99.28 3.58 97.2 6.49 94.75 9.62 C94.32 10.18 93.88 10.74 93.44 11.31 C92.48 12.54 91.52 13.77 90.56 15 C88.91 17.12 87.26 19.24 85.61 21.36 C85.03 22.11 84.45 22.86 83.85 23.64 C82.66 25.17 81.47 26.71 80.28 28.25 C77.44 31.9 74.58 35.53 71.62 39.09 C70.85 40.03 70.85 40.03 70.05 41 C69.09 42.18 68.11 43.34 67.11 44.5 C65.24 46.79 64.04 48.4 63.85 51.39 C65.59 55.35 68.14 58.51 70.81 61.88 C71.4 62.62 71.98 63.37 72.58 64.14 C74.38 66.44 76.19 68.72 78 71 C78.53 71.67 79.06 72.34 79.61 73.03 C83.59 78.03 87.59 83 91.59 87.98 C93.15 89.92 94.7 91.86 96.25 93.81 C96.73 94.41 97.21 95 97.7 95.61 C101 99.77 101 99.77 101 102 C83 104.52 83 104.52 76.84 100.64 C72.99 97 70.16 92.65 67.38 88.16 C65.28 84.87 62.86 81.87 60.44 78.81 C59.67 77.81 58.91 76.8 58.12 75.77 C56.69 73.9 55.23 72.07 53.72 70.26 C52 68 52 68 52 66 C48.09 69.76 44.67 73.74 41.31 78 C40.8 78.65 40.28 79.3 39.75 79.97 C31.07 90.76 31.07 90.76 23 102 C20.66 102.34 20.66 102.34 17.77 102.29 C16.74 102.28 15.71 102.27 14.65 102.26 C13.03 102.23 13.03 102.23 11.38 102.19 C10.29 102.17 9.2 102.16 8.08 102.15 C5.38 102.11 2.69 102.06 0 102 C2.76 97.75 5.71 93.72 8.88 89.75 C9.85 88.52 10.82 87.29 11.8 86.05 C12.31 85.4 12.83 84.75 13.36 84.08 C17.49 78.84 21.59 73.57 25.66 68.29 C27.73 65.62 29.82 62.98 31.96 60.36 C32.4 59.82 32.83 59.28 33.28 58.72 C34.41 57.3 35.57 55.89 36.72 54.48 C38.26 52.1 38.26 52.1 37.59 49.63 C35.41 46.03 32.84 42.9 30.12 39.69 C25.04 33.55 20.16 27.3 15.41 20.9 C11.47 15.6 7.42 10.4 3.3 5.25 C0 1.1 0 1.1 0 0 Z " fill="#030303" transform="translate(65,314)"/>
<path d="M0 0 C7.59 -0.08 15.18 -0.16 23 -0.25 C25.38 -0.29 27.76 -0.32 30.21 -0.36 C32.12 -0.37 34.03 -0.38 35.94 -0.39 C37.4 -0.42 37.4 -0.42 38.89 -0.45 C46.19 -0.46 51.37 1.08 57.09 5.68 C61.28 10.9 61.72 15.39 61.4 22 C60.93 25.53 60.01 28.06 58 31 C57.34 31.99 56.68 32.98 56 34 C56.58 34.21 57.15 34.41 57.75 34.62 C61.67 37.02 63.58 40.73 65 45 C65.75 51.88 65.03 57.28 61 63 C55.86 68.44 48.02 71.17 40.64 71.45 C38.75 71.45 36.85 71.43 34.96 71.39 C33.62 71.38 33.62 71.38 32.25 71.38 C28.96 71.36 25.67 71.3 22.38 71.25 C14.99 71.17 7.61 71.08 0 71 C0 47.57 0 24.14 0 0 Z " fill="#030303" transform="translate(913,54)"/>
<path d="M0 0 C0 41.58 0 83.16 0 126 C-2.54 123.46 -3.9 121.7 -5.61 118.66 C-6.11 117.78 -6.61 116.89 -7.12 115.99 C-7.66 115.02 -8.2 114.06 -8.75 113.06 C-9.32 112.04 -9.89 111.02 -10.48 109.97 C-12.33 106.65 -14.16 103.33 -16 100 C-16.59 98.93 -17.19 97.86 -17.8 96.76 C-28.78 76.92 -38.49 56.57 -48 36 C-45.18 33.11 -42.44 30.42 -39.14 28.09 C-38.42 27.58 -37.71 27.07 -36.97 26.55 C-36.22 26.02 -35.46 25.48 -34.69 24.94 C-33.08 23.79 -31.47 22.64 -29.86 21.49 C-29.05 20.91 -28.24 20.33 -27.41 19.74 C-23.7 17.06 -20.03 14.32 -16.38 11.56 C-15.75 11.09 -15.12 10.62 -14.48 10.13 C-13.88 9.68 -13.27 9.22 -12.65 8.75 C-12.06 8.31 -11.47 7.87 -10.87 7.41 C-9.51 6.38 -8.15 5.35 -6.8 4.32 C-6.07 3.77 -5.35 3.22 -4.6 2.65 C-3.94 2.15 -3.27 1.64 -2.59 1.12 C-1 0 -1 0 0 0 Z " fill="#FDFDFD" transform="translate(329,591)"/>
<path d="M0 0 C0.44 0.39 0.89 0.78 1.34 1.19 C4.1 3.59 6.76 5.84 9.84 7.83 C13.41 10.31 16.37 12.65 17.54 17.01 C18.41 23.16 18.12 29.35 17.95 35.54 C17.94 37.55 17.93 39.56 17.92 41.57 C17.9 46.85 17.83 52.12 17.74 57.39 C17.6 65.84 17.5 74.29 17.47 82.74 C17.45 85.68 17.38 88.62 17.31 91.56 C17.3 93.37 17.28 95.18 17.27 96.99 C17.24 97.81 17.21 98.62 17.18 99.45 C17.2 104.22 18.02 106.52 21.41 109.94 C22.59 110.98 23.78 112 25 113 C25.71 113.64 26.42 114.28 27.15 114.94 C27.73 115.44 28.32 115.94 28.93 116.46 C33.85 120.71 38.55 125.18 43.26 129.66 C43.93 130.29 44.6 130.92 45.29 131.57 C45.93 132.18 46.56 132.79 47.22 133.42 C49.09 135.18 49.09 135.18 51.97 136.82 C54.84 139.9 54.51 142.36 54.44 146.46 C54.38 147.84 54.38 147.84 54.31 149.25 C54.29 150.19 54.27 151.12 54.24 152.09 C54.19 154.39 54.1 156.7 54 159 C53.34 159 52.68 159 52 159 C52 158.34 52 157.68 52 157 C51.43 156.76 50.86 156.51 50.27 156.26 C47.6 154.77 45.86 153.02 43.75 150.81 C40.36 147.28 36.8 144.05 33.1 140.84 C29.74 137.89 26.5 134.82 23.25 131.75 C17.33 126.17 11.37 120.65 5.36 115.17 C4.58 114.46 3.8 113.74 3 113 C2.46 112.55 1.93 112.11 1.38 111.65 C-0.43 109.48 -0.37 108.26 -0.36 105.46 C-0.36 104.53 -0.37 103.6 -0.37 102.65 C-0.36 101.63 -0.35 100.61 -0.34 99.56 C-0.34 98.49 -0.34 97.42 -0.34 96.31 C-0.34 92.75 -0.32 89.2 -0.29 85.64 C-0.29 83.18 -0.28 80.72 -0.28 78.26 C-0.27 71.77 -0.24 65.29 -0.21 58.8 C-0.18 52.19 -0.16 45.57 -0.15 38.96 C-0.11 25.97 -0.06 12.98 0 0 Z " fill="#060606" transform="translate(460,960)"/>
<path d="M0 0 C4.89 2.83 7.68 6.38 9.49 11.68 C12.89 27.22 13.77 47.37 7 62 C6.69 62.76 6.38 63.51 6.05 64.29 C3.23 70.62 -1.39 77.39 -8 80 C-11.14 80.56 -13.87 80.69 -17 80 C-22.91 74.73 -25.32 67.79 -26 60 C-26.22 55.29 -26.28 50.59 -26.31 45.88 C-26.34 44.63 -26.37 43.39 -26.4 42.11 C-26.49 28.46 -23.09 15.11 -13.44 5.06 C-9.39 1.11 -5.76 -0.9 0 0 Z " fill="#FCFCFC" transform="translate(728,842)"/>
<path d="M0 0 C3.09 0.03 6.18 0.07 9.28 0.1 C14.27 9.77 18.71 19.64 23.09 29.6 C24.5 32.79 25.91 35.99 27.33 39.19 C27.67 39.96 28.01 40.74 28.37 41.54 C30.33 45.97 32.31 50.38 34.32 54.79 C34.96 56.19 34.96 56.19 35.61 57.61 C36.36 59.26 37.12 60.91 37.89 62.55 C40.28 67.77 40.28 67.77 40.28 71.1 C36.32 71.1 32.36 71.1 28.28 71.1 C27.36 69.31 26.44 67.52 25.53 65.72 C25.02 64.72 24.51 63.73 23.98 62.7 C21.88 58.25 20.1 53.66 18.28 49.1 C8.05 48.77 -2.18 48.44 -12.72 48.1 C-13.71 51.07 -14.7 54.04 -15.72 57.1 C-16.91 59.66 -18.11 62.16 -19.41 64.66 C-19.73 65.29 -20.05 65.91 -20.38 66.56 C-21.16 68.08 -21.94 69.59 -22.72 71.1 C-26.68 71.1 -30.64 71.1 -34.72 71.1 C-32.42 63.6 -29.33 56.68 -25.97 49.6 C-24.82 47.13 -23.66 44.67 -22.5 42.2 C-22.2 41.56 -21.9 40.92 -21.59 40.25 C-19.21 35.17 -16.88 30.07 -14.57 24.96 C-14.22 24.2 -13.88 23.45 -13.53 22.67 C-12.17 19.67 -10.82 16.68 -9.47 13.68 C-8.53 11.6 -7.59 9.51 -6.64 7.43 C-6.1 6.23 -5.56 5.03 -5.01 3.8 C-3.26 0.12 -3.26 0.12 0 0 Z " fill="#070707" transform="translate(115.72265625,53.90234375)"/>
<path d="M0 0 C3.3 0.33 4.62 0.62 7 3 C6.76 6.23 6.53 9.01 4.99 11.89 C2.44 17.34 3.23 23.76 5.13 29.29 C6.76 32.84 8.51 36.3 10.34 39.75 C11 41.03 11.65 42.3 12.29 43.58 C13.99 46.91 15.71 50.22 17.44 53.54 C20.22 58.86 22.95 64.21 25.69 69.56 C26.64 71.42 27.61 73.27 28.58 75.12 C29.45 76.81 29.45 76.81 30.34 78.53 C31.11 80.01 31.11 80.01 31.9 81.52 C33 84 33 84 33 87 C12.54 87 -7.92 87 -29 87 C-28.14 82.72 -27.29 80.26 -25.32 76.5 C-24.48 74.88 -24.48 74.88 -23.62 73.23 C-23.01 72.07 -22.4 70.91 -21.78 69.72 C-21.15 68.5 -20.52 67.28 -19.9 66.07 C-17.25 60.91 -14.6 55.76 -11.91 50.63 C-10.26 47.49 -8.63 44.33 -7.02 41.16 C-6.11 39.39 -5.18 37.64 -4.24 35.88 C-0.37 28.2 1.28 21.62 0 13 C-0.64 11.65 -1.3 10.32 -2 9 C-2.25 5.38 -2.25 5.38 -2 2 C-1.34 1.34 -0.68 0.68 0 0 Z " fill="#050505" transform="translate(350,189)"/>
<path d="M0 0 C19.14 0 38.28 0 58 0 C58 3.63 58 7.26 58 11 C42.49 11 26.98 11 11 11 C11 16.61 11 22.22 11 28 C18.92 28 26.84 28 35 28 C35 31.63 35 35.26 35 39 C27.08 39 19.16 39 11 39 C11 45.93 11 52.86 11 60 C27.17 60 43.34 60 60 60 C60 63.63 60 67.26 60 71 C40.2 71 20.4 71 0 71 C0 47.57 0 24.14 0 0 Z " fill="#020202" transform="translate(386,54)"/>
<path d="M0 0 C3.63 0 7.26 0 11 0 C11 9.24 11 18.48 11 28 C23.87 28 36.74 28 50 28 C50 18.76 50 9.52 50 0 C53.96 0 57.92 0 62 0 C62 23.43 62 46.86 62 71 C58.37 71 54.74 71 51 71 C51 60.44 51 49.88 51 39 C37.8 39 24.6 39 11 39 C11 49.56 11 60.12 11 71 C7.37 71 3.74 71 0 71 C0 47.57 0 24.14 0 0 Z " fill="#050505" transform="translate(236,54)"/>
<path d="M0 0 C3.96 0 7.92 0 12 0 C12.01 1.51 12.02 3.03 12.03 4.59 C12.07 10.21 12.13 15.84 12.21 21.46 C12.24 23.89 12.26 26.33 12.27 28.76 C12.29 32.26 12.34 35.76 12.39 39.26 C12.39 40.34 12.39 41.43 12.39 42.54 C12.51 48.64 12.85 52.4 17 57 C23.63 61.23 31.92 61.11 39.48 59.46 C44.25 57.83 47.73 55.55 50 51 C50.12 49.37 50.18 47.73 50.21 46.09 C50.23 45.07 50.25 44.05 50.27 43 C50.28 41.89 50.3 40.79 50.32 39.65 C50.34 38.52 50.36 37.39 50.38 36.23 C50.44 32.61 50.5 28.99 50.56 25.38 C50.61 22.93 50.65 20.48 50.69 18.03 C50.8 12.02 50.9 6.01 51 0 C54.96 0 58.92 0 63 0 C63.07 6.8 63.13 13.59 63.16 20.39 C63.18 22.69 63.2 25 63.23 27.31 C63.26 30.64 63.28 33.97 63.29 37.3 C63.31 38.32 63.32 39.35 63.34 40.4 C63.34 49.97 61.77 58.24 55.03 65.31 C45.63 73.14 32.59 73 21 72 C13.1 70.24 8.66 66.5 3.81 60.12 C-0.31 53.01 -0.27 46.42 -0.2 38.38 C-0.19 37.28 -0.19 36.18 -0.19 35.05 C-0.18 31.55 -0.15 28.06 -0.12 24.56 C-0.11 22.19 -0.11 19.81 -0.1 17.43 C-0.08 11.62 -0.04 5.81 0 0 Z " fill="#0A0A0A" transform="translate(828,54)"/>
<path d="M0 0 C4.01 2.69 6.94 4.7 8.83 9.25 C7.93 10.29 7.01 11.3 6.08 12.31 C5.57 12.88 5.06 13.45 4.53 14.04 C2.83 15.25 2.83 15.25 0.86 15.08 C-1.97 13.92 -4.34 12.31 -6.88 10.6 C-12.55 7.26 -17.53 5.71 -24.11 5.81 C-24.81 5.82 -25.52 5.83 -26.24 5.83 C-33.51 6.06 -37.5 8 -42.92 12.56 C-48.5 19.22 -50.89 25.5 -50.17 34.25 C-47.41 43.38 -43.8 48.68 -35.39 53.23 C-26.61 57.25 -16.68 55.75 -7.89 52.54 C-3.94 50.67 -1.25 48.33 1.83 45.25 C6.11 47.14 7.98 49.61 10.83 53.25 C2.29 62.75 -7.54 66.68 -20.3 67.61 C-32.17 68.15 -41.2 65.86 -50.55 58.12 C-58.45 50.53 -62.25 42.07 -62.55 31.25 C-62.62 21.3 -59.07 11.57 -52.17 4.25 C-36.96 -9.56 -17.49 -9.65 0 0 Z " fill="#060606" transform="translate(735.171875,58.75)"/>
<path d="M0 0 C1.51 1.19 3.02 2.39 4.5 3.62 C2.82 7.37 0.81 9.19 -2.5 11.62 C-6.54 10.24 -9.83 8.21 -13.34 5.84 C-20.87 1.6 -29.14 1.82 -37.5 2.62 C-45.11 5.04 -49.4 10 -53.31 16.75 C-55.59 22.71 -55.53 29.37 -53.62 35.41 C-50.41 42.43 -45.92 47.28 -38.88 50.5 C-29.13 53.64 -18.58 51.99 -9.5 47.62 C-6.86 45.79 -4.79 43.91 -2.5 41.62 C0.82 43.2 3.18 44.7 5.5 47.62 C5.29 50.31 4.68 51.44 2.82 53.41 C-9.12 62.76 -22.66 64.94 -37.5 63.62 C-41.2 62.79 -44.22 61.5 -47.5 59.62 C-48.68 58.97 -48.68 58.97 -49.89 58.3 C-55.43 54.95 -59.12 51.13 -62.5 45.62 C-63.12 44.71 -63.12 44.71 -63.75 43.78 C-68.28 35.83 -68.25 24.21 -65.94 15.52 C-62.36 5.49 -55.7 -1.74 -46.44 -6.75 C-30.12 -14 -14.03 -10.15 0 0 Z " fill="#050505" transform="translate(625.5,62.375)"/>
<path d="M0 0 C0.45 0.39 0.9 0.79 1.36 1.2 C4.04 3.53 6.62 5.76 9.62 7.68 C13.25 10.31 15.56 12.85 16.49 17.35 C17.29 24.86 17.03 32.41 16.88 39.94 C16.86 42.39 16.85 44.85 16.84 47.3 C16.81 53.74 16.72 60.17 16.62 66.61 C16.53 73.19 16.48 79.76 16.44 86.34 C16.34 99.23 16.19 112.11 16 125 C15.33 124.41 15.33 124.41 14.64 123.8 C11.96 121.47 9.38 119.24 6.38 117.32 C2.75 114.69 0.44 112.15 -0.49 107.65 C-1.29 100.14 -1.03 92.59 -0.88 85.06 C-0.86 82.61 -0.85 80.15 -0.84 77.7 C-0.81 71.26 -0.72 64.83 -0.62 58.39 C-0.53 51.81 -0.48 45.24 -0.44 38.66 C-0.34 25.77 -0.19 12.89 0 0 Z " fill="#030303" transform="translate(408,910)"/>
<path d="M0 0 C5.97 3.74 11.51 9.9 15 16 C13.69 19.94 11.23 21.2 7.94 23.44 C6.65 24.34 5.36 25.24 4.07 26.14 C3.4 26.61 2.73 27.08 2.03 27.56 C-1.26 29.89 -4.47 32.32 -7.69 34.75 C-13.88 39.41 -20.09 44.07 -26.31 48.69 C-27.13 49.3 -27.95 49.91 -28.79 50.54 C-29.94 51.39 -29.94 51.39 -31.11 52.26 C-31.79 52.77 -32.47 53.27 -33.17 53.79 C-35 55 -35 55 -38 56 C-38.69 37.73 -31.64 19.89 -20 5.94 C-14.3 -0.09 -8.2 -2.75 0 0 Z " fill="#FBFBFB" transform="translate(497,409)"/>
<path d="M0 0 C3.96 0 7.92 0 12 0 C12 19.47 12 38.94 12 59 C25.86 59 39.72 59 54 59 C54 62.96 54 66.92 54 71 C36.18 71 18.36 71 0 71 C0 47.57 0 24.14 0 0 Z " fill="#0F0F0F" transform="translate(322,54)"/>
<path d="M0 0 C20.13 0 40.26 0 61 0 C61 3.63 61 7.26 61 11 C52.75 11 44.5 11 36 11 C36 30.8 36 50.6 36 71 C32.37 71 28.74 71 25 71 C25 51.2 25 31.4 25 11 C16.75 11 8.5 11 0 11 C0 7.37 0 3.74 0 0 Z " fill="#020202" transform="translate(159,54)"/>
<path d="M0 0 C19.8 0 39.6 0 60 0 C60 3.63 60 7.26 60 11 C51.75 11 43.5 11 35 11 C35 30.8 35 50.6 35 71 C31.37 71 27.74 71 24 71 C24 51.2 24 31.4 24 11 C16.08 11 8.16 11 0 11 C0 7.37 0 3.74 0 0 Z " fill="#010101" transform="translate(456,54)"/>
<path d="M0 0 C3.63 0 7.26 0 11 0 C11 19.47 11 38.94 11 59 C24.86 59 38.72 59 53 59 C53 62.96 53 66.92 53 71 C35.51 71 18.02 71 0 71 C0 47.57 0 24.14 0 0 Z " fill="#060606" transform="translate(763,54)"/>
<path d="M0 0 C4.09 3.4 7.92 6.81 11.44 10.81 C14.74 14.58 14.74 14.58 18.14 18.26 C26.16 26.8 31.11 35.34 31.19 47.19 C31.2 48.23 31.22 49.28 31.23 50.36 C31 53 31 53 29 55 C24.1 54.79 21.86 53.47 18.56 49.94 C17.79 49.12 17.02 48.31 16.23 47.47 C10.89 41.56 10.89 41.56 8.81 39.05 C7.07 36.99 7.07 36.99 5.15 35.39 C1.88 32.36 0.19 30.11 -0.56 25.64 C-0.69 21.74 -0.61 17.9 -0.44 14 C-0.4 12.64 -0.37 11.28 -0.34 9.92 C-0.26 6.61 -0.14 3.31 0 0 Z " fill="#F8F8F8" transform="translate(344,898)"/>
<path d="M0 0 C3.96 0 7.92 0 12 0 C12 23.43 12 46.86 12 71 C8.37 71 4.74 71 1 71 C0 70 0 70 -0.12 67.22 C-0.12 65.98 -0.12 64.74 -0.11 63.46 C-0.11 62.78 -0.11 62.09 -0.11 61.39 C-0.11 59.12 -0.11 56.86 -0.1 54.59 C-0.1 53.02 -0.09 51.45 -0.09 49.89 C-0.09 45.75 -0.08 41.62 -0.07 37.48 C-0.06 33.27 -0.05 29.05 -0.05 24.83 C-0.04 16.56 -0.02 8.28 0 0 Z " fill="#0F0F0F" transform="translate(530,54)"/>
<path d="M0 0 C2.59 2.59 2.36 3.77 2.44 7.38 C2.25 17.09 -1.45 25.22 -8.12 32.21 C-10.64 34.61 -13.21 36.94 -15.88 39.19 C-19.03 41.88 -22.07 44.69 -25.12 47.5 C-27 49 -27 49 -29 49 C-31.42 23.21 -31.42 23.21 -26.23 16.53 C-23.39 13.67 -20.22 11.37 -16.83 9.2 C-14.15 7.44 -11.84 5.3 -9.44 3.19 C-6.19 0.46 -4.29 -0.59 0 0 Z " fill="#FBFBFB" transform="translate(583,1044)"/>
<path d="M0 0 C4.73 -0.07 9.46 -0.13 14.2 -0.16 C15.8 -0.18 17.41 -0.2 19.02 -0.23 C21.34 -0.26 23.66 -0.28 25.98 -0.29 C27.05 -0.32 27.05 -0.32 28.14 -0.34 C32.85 -0.34 35.99 0.54 40 3 C42.39 5.39 42.32 6.09 42.38 9.38 C42.3 12.61 42.19 13.72 40.31 16.44 C35.4 19.75 31.12 20.28 25.29 20.2 C24.57 20.19 23.84 20.19 23.09 20.19 C20.79 20.18 18.49 20.15 16.19 20.12 C14.62 20.11 13.05 20.11 11.49 20.1 C7.66 20.08 3.83 20.04 0 20 C0 13.4 0 6.8 0 0 Z " fill="#F3F3F3" transform="translate(924,94)"/>
<path d="M0 0 C9.36 7.07 9.36 7.07 11 12 C-8.14 12 -27.28 12 -47 12 C-44 4.5 -39.03 1.2 -31.89 -2.24 C-22.1 -6.18 -9.1 -5.2 0 0 Z " fill="#0A0A0A" transform="translate(285,338)"/>
<path d="M0 0 C4.75 -0.09 9.5 -0.17 14.25 -0.22 C15.87 -0.24 17.48 -0.27 19.1 -0.3 C21.42 -0.35 23.75 -0.37 26.07 -0.39 C26.79 -0.41 27.51 -0.43 28.25 -0.45 C31.9 -0.45 33.86 -0.09 36.96 1.9 C39 4 39 4 39.56 6 C39.11 13.39 39.11 13.39 37 16 C32.8 18.17 29.19 18.23 24.51 18.2 C23.81 18.19 23.11 18.19 22.38 18.19 C20.15 18.18 17.92 18.15 15.69 18.12 C14.17 18.11 12.65 18.11 11.13 18.1 C7.42 18.08 3.71 18.04 0 18 C0 12.06 0 6.12 0 0 Z " fill="#F7F7F7" transform="translate(924,65)"/>
<path d="M0 0 C0.72 0.72 1.44 1.44 2.18 2.19 C3.95 3.95 5.74 5.71 7.54 7.44 C28.25 27.5 28.25 27.5 29.29 39.31 C29.26 40.34 29.22 41.37 29.19 42.44 C29.16 43.49 29.13 44.54 29.11 45.62 C29.07 46.41 29.04 47.19 29 48 C26.73 48.67 26.73 48.67 24 49 C16.66 44.99 10.51 36.25 5 30 C3.61 28.71 3.61 28.71 2.19 27.4 C-1.5 22.94 -0.52 17.09 -0.31 11.62 C-0.29 10.51 -0.27 9.39 -0.24 8.24 C-0.19 5.49 -0.1 2.75 0 0 Z " fill="#F8F8F8" transform="translate(344,855)"/>
<path d="M0 0 C0.87 9.19 -0.26 15.64 -6 23 C-10.37 27.66 -15.17 31.84 -20 36 C-20.96 36.85 -20.96 36.85 -21.93 37.72 C-22.55 38.27 -23.18 38.82 -23.82 39.39 C-24.38 39.89 -24.94 40.39 -25.52 40.91 C-27 42 -27 42 -29 42 C-30.9 20.73 -30.9 20.73 -26.94 15.56 C-24.1 13.04 -21.2 11.03 -18 9 C-15.93 7.36 -13.94 5.65 -11.94 3.94 C-5.51 -1.31 -5.51 -1.31 0 0 Z " fill="#FAFAFA" transform="translate(583,1004)"/>
<path d="M0 0 C2.22 2.22 2.57 3.39 3.4 6.37 C3.65 7.25 3.9 8.13 4.16 9.04 C4.42 9.97 4.67 10.91 4.94 11.88 C5.2 12.82 5.47 13.77 5.74 14.74 C7.61 21.47 9.4 28.21 11 35 C4.33 41 -2.33 47 -9 53 C-10.09 49.68 -9.89 47.39 -9.18 43.98 C-8.98 42.99 -8.77 42 -8.56 40.97 C-8.34 39.91 -8.11 38.85 -7.88 37.75 C-7.65 36.66 -7.42 35.56 -7.19 34.43 C-6.47 30.95 -5.73 27.48 -5 24 C-4.52 21.67 -4.03 19.34 -3.55 17.01 C-2.38 11.34 -1.19 5.67 0 0 Z " fill="#F2F2F2" transform="translate(651,935)"/>
<path d="M0 0 C0.66 0.33 1.32 0.66 2 1 C1.03 1.76 1.03 1.76 0.03 2.54 C-2.63 5.76 -2.56 8.37 -2.51 12.36 C-2.51 13.11 -2.52 13.86 -2.53 14.63 C-2.54 17.15 -2.53 19.67 -2.52 22.19 C-2.52 24 -2.53 25.82 -2.54 27.64 C-2.56 32.65 -2.56 37.66 -2.55 42.66 C-2.54 48.06 -2.56 53.46 -2.58 58.85 C-2.6 68.2 -2.61 77.56 -2.61 86.91 C-2.61 100.43 -2.63 113.95 -2.65 127.48 C-2.69 149.41 -2.72 171.35 -2.73 193.29 C-2.74 214.6 -2.76 235.92 -2.79 257.23 C-2.79 258.54 -2.8 259.86 -2.8 261.21 C-2.81 267.8 -2.82 274.39 -2.83 280.97 C-2.91 335.65 -2.96 390.32 -3 445 C-5.42 442.58 -5.24 441.33 -5.27 438.02 C-5.27 437.33 -5.26 436.63 -5.26 435.91 C-5.26 435.17 -5.27 434.42 -5.27 433.66 C-5.28 431.15 -5.28 428.63 -5.27 426.12 C-5.28 424.31 -5.28 422.5 -5.29 420.69 C-5.3 415.7 -5.31 410.71 -5.31 405.71 C-5.31 400.34 -5.32 394.96 -5.33 389.58 C-5.35 377.81 -5.36 366.05 -5.37 354.28 C-5.37 346.94 -5.38 339.6 -5.38 332.26 C-5.4 311.95 -5.42 291.64 -5.42 271.33 C-5.42 270.03 -5.42 268.73 -5.42 267.39 C-5.42 264.75 -5.42 262.11 -5.42 259.47 C-5.43 258.17 -5.43 256.86 -5.43 255.51 C-5.43 254.2 -5.43 252.89 -5.43 251.54 C-5.43 230.29 -5.46 209.04 -5.49 187.79 C-5.53 165.99 -5.55 144.2 -5.55 122.4 C-5.55 110.15 -5.56 97.91 -5.59 85.66 C-5.61 75.24 -5.62 64.81 -5.61 54.39 C-5.6 49.06 -5.6 43.74 -5.62 38.42 C-5.64 33.55 -5.64 28.68 -5.62 23.81 C-5.62 22.05 -5.62 20.28 -5.64 18.52 C-5.65 16.12 -5.64 13.73 -5.62 11.34 C-5.63 10.65 -5.65 9.96 -5.66 9.24 C-5.59 5.46 -5.23 4.23 -2.46 1.54 C-1.65 1.03 -0.84 0.52 0 0 Z " fill="#EE3D3B" transform="translate(490,471)"/>
<path d="M0 0 C3.52 1.42 4.71 3.19 6.94 6.19 C9.89 6.53 9.89 6.53 11.32 4.88 C11.75 4.32 12.18 3.76 12.62 3.19 C13.39 2.2 14.15 1.21 14.94 0.19 C17.19 0.38 17.19 0.38 19.94 1.19 C21.3 2.83 22.63 4.5 23.94 6.19 C26.07 7.06 26.07 7.06 27.94 7.19 C28.21 6.59 28.47 5.99 28.75 5.38 C29.98 3.11 30.83 1.67 32.94 0.19 C35.38 0.19 35.38 0.19 37.94 1.19 C40.12 3.69 40.12 3.69 41.94 6.19 C42.6 6.52 43.26 6.85 43.94 7.19 C43.94 8.51 43.94 9.83 43.94 11.19 C40.68 10.84 39.92 10.17 37.69 7.62 C37.11 6.82 36.53 6.02 35.94 5.19 C33.33 6.3 31.93 7.19 30.06 9.38 C27.94 11.19 27.94 11.19 24.94 11.25 C21.3 9.96 20.05 8.36 17.94 5.19 C14.73 5.92 14.73 5.92 13.19 8.81 C12.07 9.99 12.07 9.99 10.94 11.19 C7.38 11.25 7.38 11.25 3.94 10.19 C2 8.25 2 8.25 0.94 6.19 C0.94 5.53 0.94 4.87 0.94 4.19 C-2.24 4.94 -2.24 4.94 -4.06 7.69 C-6.06 10.19 -6.06 10.19 -9.06 11.19 C-8.58 5.7 -5.98 0.37 0 0 Z " fill="#151515" transform="translate(398.0625,465.8125)"/>
<path d="M0 0 C3.19 0.38 3.19 0.38 5.31 2.88 C5.93 3.7 6.55 4.52 7.19 5.38 C8.51 5.38 9.83 5.38 11.19 5.38 C11.81 4.55 12.43 3.73 13.06 2.88 C15.19 0.38 15.19 0.38 18.19 -0.25 C21.19 0.38 21.19 0.38 23.56 2.88 C24.1 3.7 24.63 4.52 25.19 5.38 C27.09 5.17 27.09 5.17 29.19 4.38 C29.64 3.69 30.1 3.01 30.56 2.31 C32.19 0.38 32.19 0.38 35.12 -0.19 C38.19 0.38 38.19 0.38 40.44 2.81 C41.01 3.66 41.59 4.5 42.19 5.38 C42.85 5.7 43.51 6.04 44.19 6.38 C44.19 7.69 44.19 9.01 44.19 10.38 C40.98 10.03 40.21 9.4 38.06 6.88 C37.13 5.64 37.13 5.64 36.19 4.38 C35.53 4.05 34.87 3.71 34.19 3.38 C33.92 4.16 33.65 4.94 33.38 5.75 C32.19 8.38 32.19 8.38 29.19 10.38 C22.97 10.15 22.97 10.15 20.25 7.44 C19.19 5.38 19.19 5.38 19.19 3.38 C18.4 4.16 17.62 4.94 16.81 5.75 C12.19 10.38 12.19 10.38 9.38 10.88 C4.79 10.16 3.92 8.02 1.19 4.38 C0.53 4.38 -0.13 4.38 -0.81 4.38 C-1.62 5.37 -2.42 6.36 -3.25 7.38 C-4.1 8.37 -4.94 9.36 -5.81 10.38 C-6.8 10.38 -7.79 10.38 -8.81 10.38 C-8.81 6.38 -8.81 6.38 -6.38 3.69 C-5.53 2.92 -4.68 2.16 -3.81 1.38 C-2.81 0.38 -2.81 0.38 0 0 Z " fill="#121212" transform="translate(283.8125,500.625)"/>
<path d="M0 0 C3.19 0.38 3.19 0.38 5.31 2.81 C5.93 3.66 6.55 4.5 7.19 5.38 C9.32 6.24 9.32 6.24 11.19 6.38 C11.5 5.57 11.81 4.77 12.12 3.94 C13.19 1.38 13.19 1.38 14.19 0.38 C17.5 0 17.5 0 21.19 0.38 C23.62 2.88 23.62 2.88 25.19 5.38 C27.09 5.17 27.09 5.17 29.19 4.38 C29.64 3.69 30.1 3.01 30.56 2.31 C32.19 0.38 32.19 0.38 35.12 -0.19 C38.19 0.38 38.19 0.38 40.44 2.81 C41.01 3.66 41.59 4.5 42.19 5.38 C42.85 5.7 43.51 6.04 44.19 6.38 C44.19 7.69 44.19 9.01 44.19 10.38 C40.94 10.03 40.21 9.41 38.06 6.81 C37.13 5.61 37.13 5.61 36.19 4.38 C35.53 4.38 34.87 4.38 34.19 4.38 C33.47 5.39 32.74 6.4 32 7.44 C30.68 9.09 30.68 9.09 29.19 10.38 C25.56 10.5 25.56 10.5 22.19 9.38 C20.25 7.44 20.25 7.44 19.19 5.38 C19.19 4.71 19.19 4.06 19.19 3.38 C18.42 4.16 17.66 4.94 16.88 5.75 C12.4 10.12 12.4 10.12 8.81 10.88 C4.75 10.1 3.58 7.65 1.19 4.38 C-2 5.13 -2 5.13 -3.81 7.94 C-4.47 8.74 -5.13 9.55 -5.81 10.38 C-6.8 10.38 -7.79 10.38 -8.81 10.38 C-8.81 6.38 -8.81 6.38 -6.38 3.69 C-5.53 2.92 -4.68 2.16 -3.81 1.38 C-2.81 0.38 -2.81 0.38 0 0 Z " fill="#111111" transform="translate(314.8125,483.625)"/>
<path d="M0 0 C4.32 1.08 5.46 3.17 8 6.75 C11.19 6.01 11.19 6.01 12.88 3.19 C15 0.75 15 0.75 17.5 0.19 C20.72 0.91 21.97 2.19 24 4.75 C24 5.41 24 6.07 24 6.75 C25.65 6.75 27.3 6.75 29 6.75 C29.66 5.1 30.32 3.45 31 1.75 C34.12 0.81 34.12 0.81 38 0.75 C40.54 2.71 42.41 4.97 44 7.75 C44 8.74 44 9.73 44 10.75 C41.11 10.35 40.18 9.96 38.25 7.69 C37.84 7.05 37.43 6.41 37 5.75 C34.12 6.16 33.13 6.61 31.12 8.81 C29 10.75 29 10.75 26 11.31 C22.07 10.58 21.29 8.91 19 5.75 C18.01 5.75 17.02 5.75 16 5.75 C15.4 6.58 14.8 7.4 14.19 8.25 C12 10.75 12 10.75 9 11.31 C5.4 10.64 4.25 9.58 2 6.75 C1.67 6.09 1.34 5.43 1 4.75 C0.34 4.75 -0.32 4.75 -1 4.75 C-1.8 5.74 -2.61 6.73 -3.44 7.75 C-4.28 8.74 -5.13 9.73 -6 10.75 C-6.99 10.75 -7.98 10.75 -9 10.75 C-8.39 5.5 -5.1 1.28 0 0 Z " fill="#101010" transform="translate(315,517.25)"/>
<path d="M0 0 C3.19 0.38 3.19 0.38 5.31 2.81 C5.93 3.66 6.55 4.5 7.19 5.38 C9.32 6.24 9.32 6.24 11.19 6.38 C11.48 5.76 11.76 5.14 12.06 4.5 C13.19 2.38 13.19 2.38 15.19 0.38 C18.81 0.75 18.81 0.75 22.19 1.38 C22.85 3.02 23.51 4.68 24.19 6.38 C28 5.16 28 5.16 30.62 2.25 C32.19 0.38 32.19 0.38 35.12 -0.19 C38.19 0.38 38.19 0.38 40.44 2.81 C41.01 3.66 41.59 4.5 42.19 5.38 C42.85 5.7 43.51 6.04 44.19 6.38 C44.19 7.69 44.19 9.01 44.19 10.38 C40.94 10.03 40.21 9.41 38.06 6.81 C37.13 5.61 37.13 5.61 36.19 4.38 C35.53 4.38 34.87 4.38 34.19 4.38 C33.8 5.18 33.4 5.98 33 6.81 C31.19 9.38 31.19 9.38 27.81 10.5 C24.19 10.38 24.19 10.38 21.44 7.94 C20.69 7.09 19.95 6.25 19.19 5.38 C18.2 5.38 17.21 5.38 16.19 5.38 C15.4 6.2 14.62 7.02 13.81 7.88 C11.19 10.38 11.19 10.38 8.69 11.06 C4.82 10 3.52 7.57 1.19 4.38 C-2 5.13 -2 5.13 -3.81 7.94 C-4.47 8.74 -5.13 9.55 -5.81 10.38 C-6.8 10.38 -7.79 10.38 -8.81 10.38 C-8.81 6.38 -8.81 6.38 -6.38 3.69 C-5.53 2.92 -4.68 2.16 -3.81 1.38 C-2.81 0.38 -2.81 0.38 0 0 Z " fill="#0F0F0F" transform="translate(345.8125,500.625)"/>
<path d="M0 0 C3.93 1.36 5.22 2.73 7.44 6.19 C10.63 5.45 10.63 5.45 12.31 2.62 C14.44 0.19 14.44 0.19 16.88 -0.5 C20.68 0.52 22.05 3.17 24.44 6.19 C25.43 6.19 26.42 6.19 27.44 6.19 C28.22 5.2 29 4.21 29.81 3.19 C32.44 0.19 32.44 0.19 34.88 -0.62 C38.89 0.65 41.24 3.67 43.44 7.19 C43.44 8.18 43.44 9.17 43.44 10.19 C40.55 9.79 39.62 9.4 37.69 7.12 C37.27 6.49 36.86 5.85 36.44 5.19 C34.53 5.39 34.53 5.39 32.44 6.19 C32 6.87 31.57 7.55 31.12 8.25 C29.44 10.19 29.44 10.19 26 10.75 C22.44 10.19 22.44 10.19 20.19 7.69 C19.61 6.86 19.03 6.04 18.44 5.19 C17.45 5.19 16.46 5.19 15.44 5.19 C14.84 6.01 14.24 6.84 13.62 7.69 C11.44 10.19 11.44 10.19 8.44 10.75 C4.85 10.08 3.63 9.06 1.44 6.19 C1.44 5.53 1.44 4.87 1.44 4.19 C0.12 4.19 -1.2 4.19 -2.56 4.19 C-2.79 4.99 -3.02 5.8 -3.25 6.62 C-3.9 7.89 -3.9 7.89 -4.56 9.19 C-7.19 10 -7.19 10 -9.56 10.19 C-8.92 4.59 -5.68 0.3 0 0 Z " fill="#0F0F0F" transform="translate(284.5625,534.8125)"/>
<path d="M0 0 C3.19 0.38 3.19 0.38 5.31 2.81 C5.93 3.66 6.55 4.5 7.19 5.38 C9.32 6.24 9.32 6.24 11.19 6.38 C11.48 5.76 11.76 5.14 12.06 4.5 C13.19 2.38 13.19 2.38 15.19 0.38 C18.06 -0.06 18.06 -0.06 21.19 0.38 C23.56 2.88 23.56 2.88 25.19 5.38 C27.09 5.17 27.09 5.17 29.19 4.38 C29.64 3.69 30.1 3.01 30.56 2.31 C32.19 0.38 32.19 0.38 35.12 -0.12 C38.79 0.47 39.96 1.46 42.19 4.38 C42.19 5.04 42.19 5.69 42.19 6.38 C42.85 6.38 43.51 6.38 44.19 6.38 C44.19 7.69 44.19 9.01 44.19 10.38 C41.81 9.69 41.81 9.69 39.19 8.38 C37.88 5.75 37.88 5.75 37.19 3.38 C36.2 3.38 35.21 3.38 34.19 3.38 C33.92 3.97 33.65 4.57 33.38 5.19 C32.15 7.45 31.25 8.85 29.19 10.38 C26.81 10.94 26.81 10.94 24.19 10.38 C22.21 8.52 20.8 6.58 19.19 4.38 C16.62 5.47 15.15 6.41 13.25 8.5 C11.19 10.38 11.19 10.38 8.75 11 C4.8 10.04 3.55 7.61 1.19 4.38 C-2 5.13 -2 5.13 -3.81 7.94 C-4.47 8.74 -5.13 9.55 -5.81 10.38 C-6.8 10.38 -7.79 10.38 -8.81 10.38 C-8.81 6.38 -8.81 6.38 -6.38 3.69 C-5.53 2.92 -4.68 2.16 -3.81 1.38 C-2.81 0.38 -2.81 0.38 0 0 Z " fill="#101010" transform="translate(252.8125,483.625)"/>
<path d="M0 0 C2.27 2.08 3.6 3.9 4.82 6.72 C5.13 7.43 5.44 8.13 5.75 8.85 C6.22 9.95 6.22 9.95 6.69 11.06 C7.01 11.8 7.33 12.53 7.66 13.28 C10 18.72 10 18.72 10 21 C3.73 21 -2.54 21 -9 21 C-6.22 13.89 -3.21 6.93 0 0 Z " fill="#F6F6F6" transform="translate(118,69)"/>
<path d="M0 0 C3.72 1.24 4.63 2.96 7 6 C7.99 6.66 8.98 7.32 10 8 C4.38 13 4.38 13 1 13 C0.47 11.76 -0.05 10.5 -0.56 9.25 C-0.85 8.55 -1.14 7.86 -1.44 7.14 C-2.08 4.68 -1.86 3.37 -1 1 C-0.67 0.67 -0.34 0.34 0 0 Z " fill="#F2F2F2" transform="translate(270,590)"/>
<path d="M0 0 C2 0.35 4 0.68 6 1 C6 1.33 6 1.66 6 2 C5.35 2.06 4.7 2.12 4.02 2.18 C-0.69 2.64 -5.34 3.14 -10 4 C-10 3.34 -10 2.68 -10 2 C-3.9 -1.46 -3.9 -1.46 0 0 Z " fill="#242424" transform="translate(510,339)"/>
<path d="M0 0 C0.66 0 1.32 0 2 0 C2.33 1.32 2.66 2.64 3 4 C0.69 5.65 -1.62 7.3 -4 9 C-4 4.32 -3.12 3.3 0 0 Z " fill="#DEDEDE" transform="translate(376,521)"/>
<path d="M0 0 C0.99 0 1.98 0 3 0 C1.5 4.21 -1.29 5.74 -5 8 C-6.32 7.34 -7.64 6.68 -9 6 C-8.07 5.75 -7.14 5.5 -6.19 5.25 C-2.75 3.9 -2.04 2.91 0 0 Z " fill="#C7C7C7" transform="translate(331,556)"/>
<path d="M0 0 C0.99 0.33 1.98 0.66 3 1 C1.19 3 1.19 3 -1 5 C-1.99 5 -2.98 5 -4 5 C-2.25 1.12 -2.25 1.12 0 0 Z " fill="#1F1F1F" transform="translate(504,287)"/>
</svg>
