<?xml version="1.0" standalone="no"?>
<!DOCTYPE svg PUBLIC "-//W3C//DTD SVG 20010904//EN"
 "http://www.w3.org/TR/2001/REC-SVG-20010904/DTD/svg10.dtd">
<svg version="1.0" xmlns="http://www.w3.org/2000/svg"
 width="1059.000000pt" height="1196.000000pt" viewBox="0 0 1059.000000 1196.000000"
 preserveAspectRatio="xMidYMid meet">

<g transform="translate(0.000000,1196.000000) scale(0.100000,-0.100000)"
fill="#000000" stroke="none">
<path d="M4 11688 c27 -1124 65 -1814 141 -2558 239 -2330 823 -4128 1829
-5633 622 -931 1491 -1906 2501 -2807 293 -261 798 -680 820 -680 14 0 322
249 550 444 1327 1137 2440 2420 3107 3581 832 1448 1320 3171 1517 5350 60
657 93 1320 117 2308 l6 267 -5297 0 -5297 0 6 -272z m10341 -180 c-20 -704
-35 -1052 -60 -1458 -159 -2482 -645 -4343 -1541 -5901 -604 -1051 -1571
-2191 -2784 -3280 -290 -260 -656 -563 -673 -556 -16 7 -377 310 -532 446
-1014 895 -1843 1802 -2487 2725 -1010 1446 -1617 3226 -1867 5471 -85 759
-123 1385 -156 2548 l-7 217 5057 0 5056 0 -6 -212z"/>
<path d="M5881 11429 c-108 -21 -203 -95 -253 -197 -31 -63 -33 -73 -33 -172
0 -95 3 -110 28 -158 38 -73 97 -128 175 -165 63 -30 73 -32 182 -31 95 0 125
4 173 23 62 24 157 94 157 114 0 7 -15 28 -34 46 l-35 34 -41 -36 c-92 -78
-250 -98 -358 -43 -128 65 -178 217 -114 342 78 152 297 180 455 60 l37 -28
40 32 c22 17 40 35 40 40 0 11 -85 73 -139 99 -47 25 -159 51 -206 50 -16 -1
-50 -5 -74 -10z"/>
<path d="M7015 11427 c-113 -30 -198 -100 -249 -207 -27 -58 -31 -75 -31 -155
0 -82 3 -97 32 -156 39 -79 102 -141 181 -177 44 -20 77 -27 147 -30 143 -6
256 31 333 111 l32 33 -40 39 -40 39 -32 -31 c-68 -66 -186 -95 -291 -73 -124
25 -211 126 -211 244 1 72 26 136 73 184 58 57 86 67 191 67 87 0 100 -3 156
-32 33 -17 66 -38 73 -47 20 -24 33 -20 71 19 33 34 33 35 15 55 -82 91 -286
149 -410 117z"/>
<path d="M1121 11402 c-18 -34 -302 -667 -304 -677 -1 -6 23 -10 57 -10 l60 0
49 113 50 112 154 -2 154 -3 48 -110 47 -110 63 -3 c56 -3 62 -1 57 15 -3 10
-73 169 -155 353 l-149 335 -60 3 c-52 2 -62 0 -71 -16z m118 -241 c23 -51 40
-95 38 -98 -3 -2 -45 -2 -94 -1 l-90 3 45 103 c25 56 49 99 53 95 3 -5 25 -50
48 -102z"/>
<path d="M1594 11406 c-3 -8 -4 -31 -2 -52 l3 -39 123 -3 122 -3 0 -299 0
-300 55 0 55 0 0 300 0 300 125 0 125 0 0 55 0 55 -300 0 c-248 0 -302 -2
-306 -14z"/>
<path d="M2360 11064 l0 -355 53 3 52 3 3 158 3 157 194 0 194 0 3 -157 3
-158 55 0 55 0 3 353 2 352 -60 0 -60 0 0 -140 0 -140 -195 0 -195 0 0 140 0
140 -55 0 -55 0 0 -356z"/>
<path d="M3222 11068 l3 -353 265 0 265 0 0 55 0 55 -207 3 -208 2 0 295 0
295 -60 0 -60 0 2 -352z"/>
<path d="M3860 11065 l0 -355 300 0 301 0 -3 58 -3 57 -243 3 -243 2 3 98 3
97 118 3 117 3 0 54 0 55 -120 0 -120 0 0 85 0 85 235 0 235 0 0 55 0 55 -290
0 -290 0 0 -355z"/>
<path d="M4560 11365 l0 -55 120 0 120 0 0 -300 0 -300 55 0 55 0 0 300 0 300
125 0 125 0 0 55 0 55 -300 0 -300 0 0 -55z"/>
<path d="M5302 11068 l3 -353 55 0 55 0 3 353 2 352 -60 0 -60 0 2 -352z"/>
<path d="M7630 11065 l0 -355 265 0 265 0 0 60 0 60 -210 0 -210 0 0 295 0
295 -55 0 -55 0 0 -355z"/>
<path d="M8282 11158 c3 -242 5 -267 24 -308 27 -57 67 -97 124 -124 38 -18
64 -21 160 -21 133 0 175 11 233 64 76 68 81 91 85 389 l4 262 -61 0 -61 0 0
-247 c0 -216 -2 -252 -18 -282 -50 -100 -285 -107 -349 -12 -22 33 -23 40 -23
287 l0 254 -61 0 -61 0 4 -262z"/>
<path d="M9130 11065 l0 -357 238 4 c232 3 238 4 293 29 127 60 158 215 62
316 l-32 35 21 28 c43 58 39 165 -8 227 -49 65 -63 68 -331 71 l-243 3 0 -356z
m481 216 c34 -42 19 -119 -28 -140 -14 -7 -88 -11 -183 -11 l-160 0 0 91 0 90
176 -3 c171 -3 176 -4 195 -27z m16 -287 c29 -22 40 -64 29 -110 -12 -46 -50
-54 -241 -54 l-175 0 0 96 0 96 179 -4 c164 -3 182 -5 208 -24z"/>
<path d="M1620 10352 c0 -69 27 -456 50 -732 103 -1204 307 -2269 606 -3175
429 -1297 1010 -2260 2072 -3435 180 -199 749 -774 879 -888 l71 -62 233 222
c667 638 1261 1324 1716 1983 516 745 921 1627 1198 2607 272 962 458 2178
521 3396 l7 132 -3677 0 -3676 0 0 -48z m6824 -201 c-5 -4 -225 -168 -489
-362 -264 -195 -864 -638 -1333 -984 -469 -347 -859 -631 -867 -633 -9 -2 -76
11 -150 29 l-135 32 0 179 0 178 33 0 c30 0 36 -5 52 -40 20 -44 11 -66 -27
-72 -36 -5 -34 -28 2 -28 31 0 81 37 91 69 4 11 11 10 42 -2 42 -18 52 -55 17
-64 -25 -7 -16 -23 14 -23 32 0 46 19 46 62 0 27 -5 40 -20 48 -15 8 -20 21
-20 50 0 22 2 40 5 40 2 0 24 -21 47 -46 64 -69 119 -90 169 -64 35 19 22 37
-32 42 -45 5 -57 11 -102 56 -67 66 -111 84 -224 90 l-93 5 0 193 c0 149 3
194 13 194 6 0 21 3 32 6 17 4 24 -3 38 -35 21 -47 17 -57 -32 -79 l-36 -16
29 -4 c47 -6 73 6 96 43 l22 36 32 -19 c39 -23 46 -57 14 -66 -22 -7 -22 -7
-3 -15 36 -15 60 2 63 46 2 29 -2 44 -18 58 -14 13 -20 30 -20 59 l1 41 47
-51 c26 -29 57 -57 69 -63 29 -15 96 -14 111 1 26 26 13 38 -39 38 -49 0 -54
3 -106 54 -66 67 -125 89 -235 90 l-78 1 0 72 0 72 54 24 c29 14 72 42 96 63
44 40 100 127 100 157 0 15 10 17 75 17 l76 0 -3 83 -3 82 -70 3 -71 3 -18 51
c-25 70 -114 159 -184 184 -47 17 -51 21 -54 54 l-3 35 -80 0 -80 0 -3 -37
c-3 -30 -8 -37 -29 -43 -81 -20 -181 -113 -210 -196 l-17 -48 -71 -3 -70 -3
-3 -82 -3 -83 76 0 c65 0 75 -2 75 -17 0 -30 56 -117 100 -157 24 -21 67 -49
96 -63 l54 -24 0 -81 0 -80 -64 4 c-73 4 -101 22 -111 69 -7 33 -34 39 -56 13
-8 -9 -34 -25 -58 -36 -43 -18 -43 -19 -26 -38 10 -11 31 -20 46 -20 20 0 35
-10 53 -33 37 -48 33 -62 -19 -77 -44 -12 -74 -35 -62 -46 3 -4 24 1 47 10 75
30 143 16 170 -34 15 -27 2 -67 -23 -75 -22 -7 -21 -8 3 -12 29 -6 60 27 60
63 0 26 25 94 34 94 4 0 6 -88 6 -195 l0 -195 -65 0 c-73 0 -101 17 -111 69
-5 23 -10 28 -28 23 -11 -3 -29 -13 -39 -23 -10 -10 -30 -22 -45 -25 -39 -10
-43 -13 -33 -32 5 -10 29 -23 53 -29 31 -8 48 -20 61 -43 20 -33 17 -60 -7
-60 -22 0 -86 -32 -86 -43 0 -5 12 -6 28 -3 107 26 169 17 191 -30 11 -26 0
-74 -19 -74 -5 0 -10 -4 -10 -10 0 -14 23 -12 44 3 11 8 22 35 27 67 5 30 15
61 24 69 13 14 15 0 15 -135 l0 -150 -452 108 -451 109 -271 -181 c-149 -99
-275 -180 -279 -180 -4 0 -8 217 -9 483 l-3 482 -315 0 -315 0 -3 -357 -2
-358 -569 0 c-534 0 -570 1 -575 18 -9 28 -63 422 -90 652 -37 309 -96 975
-96 1078 l0 32 3292 0 c1859 0 3288 -4 3282 -9z m-436 -2726 l-3 -1170 -98
-244 c-122 -303 -259 -602 -384 -836 -90 -169 -245 -439 -264 -460 -5 -5 -9
916 -9 2125 l0 2135 378 278 377 279 3 -469 c1 -257 1 -994 0 -1638z m-1578
-1451 l1 -2389 -129 -150 c-136 -158 -471 -522 -566 -615 l-56 -54 0 2524 0
2525 373 276 c204 152 373 275 374 274 2 -1 3 -1077 3 -2391z m-2179 1877 c75
-47 154 -173 198 -315 18 -58 56 -295 49 -301 -41 -32 -280 -205 -283 -205 -3
0 -5 5 -5 10 0 6 -17 28 -39 50 -44 45 -69 45 -102 -1 -26 -37 -42 -37 -72 2
-17 22 -33 32 -52 32 -19 0 -35 -10 -52 -32 -30 -39 -46 -39 -72 -2 -33 46
-58 46 -102 1 -38 -38 -50 -70 -28 -70 6 0 27 17 45 37 l34 37 31 -37 c37 -45
70 -48 104 -11 14 15 25 31 25 35 0 5 7 9 15 9 8 0 15 -4 15 -9 0 -4 11 -20
25 -35 34 -37 67 -34 104 11 l30 36 39 -40 39 -40 -185 -136 c-177 -130 -186
-136 -199 -117 -24 34 -67 26 -102 -19 -17 -21 -31 -44 -31 -50 0 -22 30 -10
57 23 20 27 30 32 40 24 7 -6 13 -14 13 -18 0 -14 -139 -110 -159 -110 -10 0
-33 -17 -50 -37 l-30 -38 -36 38 c-47 48 -73 48 -113 -2 -18 -22 -32 -45 -32
-50 0 -21 29 -11 53 19 14 17 30 30 36 30 10 0 56 -59 50 -64 -2 -1 -32 -24
-67 -50 -59 -45 -64 -47 -81 -32 -28 26 -58 19 -87 -19 -30 -39 -48 -44 -64
-16 -16 31 -40 51 -61 51 -21 0 -89 -67 -89 -87 0 -24 33 -13 62 20 l28 32 27
-32 c44 -49 68 -51 108 -9 18 20 38 36 44 36 27 0 5 -24 -69 -77 -45 -32 -100
-72 -123 -90 l-41 -32 -32 34 c-17 19 -39 35 -49 35 -9 0 -31 -16 -48 -35 -17
-19 -35 -35 -41 -35 -6 0 -24 16 -39 35 -15 19 -36 35 -46 35 -20 0 -91 -74
-91 -96 0 -24 21 -16 56 23 l34 37 34 -37 c18 -20 41 -37 51 -37 9 0 33 16 52
35 19 19 39 35 43 35 7 0 40 -44 40 -53 0 -2 -29 -25 -65 -51 -55 -40 -67 -45
-85 -36 -28 15 -55 5 -80 -31 -12 -16 -26 -29 -32 -29 -7 0 -26 16 -45 36 -18
20 -38 34 -45 31 -51 -19 -54 -18 -67 20 -8 21 -16 44 -19 52 -4 11 -1 11 16
2 37 -20 27 21 -16 65 -21 23 -47 65 -60 99 l-22 60 23 -26 c37 -45 62 -46
103 -5 20 20 39 36 42 36 3 0 17 -14 32 -31 18 -22 34 -31 55 -31 21 0 37 9
55 31 15 17 29 31 32 31 3 0 23 -17 44 -37 31 -31 39 -35 42 -21 5 24 -45 87
-76 95 -21 5 -31 0 -56 -30 -17 -21 -35 -37 -41 -37 -5 0 -23 16 -38 35 -36
45 -60 44 -103 -2 l-34 -38 -34 38 c-19 20 -41 37 -49 37 -8 0 -18 14 -23 31
-8 28 -5 35 23 65 17 19 36 34 40 34 5 0 19 -13 31 -30 22 -30 52 -40 52 -19
0 6 -14 29 -31 50 -40 50 -68 51 -107 3 l-30 -37 -20 67 -20 66 41 40 40 40
29 -35 c40 -48 77 -48 114 1 l27 35 33 -35 c45 -49 82 -49 119 1 l28 36 30
-36 c28 -36 57 -49 57 -26 0 6 -14 29 -31 50 -39 49 -66 50 -107 4 -20 -21
-38 -32 -47 -29 -8 4 -15 9 -15 13 0 4 -9 17 -20 29 -31 33 -63 28 -99 -15
l-31 -38 -33 38 c-43 49 -75 50 -112 1 -15 -19 -30 -33 -33 -29 -16 15 -61
190 -52 199 7 7 15 3 25 -11 46 -65 82 -70 128 -18 l31 36 33 -36 c34 -37 53
-44 53 -20 0 25 -61 85 -86 85 -22 0 -64 -34 -64 -52 0 -20 -41 -5 -60 21 -14
20 -31 31 -52 33 -31 3 -32 5 -60 108 -15 58 -28 111 -28 118 0 9 159 12 764
12 l763 0 7 83 c17 204 74 379 163 499 46 63 114 108 163 108 23 0 53 -11 81
-29z m717 15 c53 -28 163 -160 146 -175 -5 -5 -45 -35 -89 -67 -44 -32 -158
-116 -253 -186 -95 -70 -175 -128 -178 -128 -4 0 -4 28 0 63 20 199 136 430
245 487 43 23 92 25 129 6z m-108 -2853 l-1 -2198 -116 120 c-155 162 -342
368 -501 554 l-132 153 0 1507 0 1507 373 276 c204 152 373 277 375 277 1 1 2
-988 2 -2196z m-2117 1012 c15 -19 36 -35 45 -35 12 0 7 -9 -18 -30 -19 -16
-40 -30 -46 -30 -10 0 -44 73 -44 96 0 11 20 34 30 34 3 0 18 -16 33 -35z
m147 27 c0 -4 -9 -13 -21 -20 -19 -12 -19 -11 -9 8 10 19 30 28 30 12z m398
-949 l-3 -318 -94 165 c-99 172 -267 500 -338 656 l-41 91 237 175 236 174 3
-313 c1 -172 1 -456 0 -630z"/>
<path d="M3492 10058 c-16 -16 -15 -77 3 -108 8 -14 14 -49 15 -78 0 -48 -13
-78 -150 -353 -83 -165 -148 -304 -145 -309 8 -14 615 -13 615 0 0 5 -68 146
-151 312 -148 298 -150 303 -146 358 2 30 12 75 21 99 15 39 15 46 1 67 -17
26 -44 31 -63 12z"/>
<path d="M2563 8606 c-82 -27 -183 -102 -183 -137 0 -5 117 -9 285 -9 235 0
285 2 285 14 0 21 -86 96 -137 118 -59 26 -191 34 -250 14z"/>
<path d="M3924 7263 c-32 -35 -45 -73 -25 -73 5 0 23 16 40 35 17 19 33 35 36
35 3 0 19 -16 36 -35 39 -44 63 -44 106 1 l34 37 33 -37 c20 -21 43 -36 56
-36 13 0 36 15 56 36 l33 37 34 -37 c36 -38 57 -46 57 -21 0 19 -75 95 -94 95
-15 0 -66 -48 -66 -62 0 -21 -38 -4 -63 27 -15 19 -35 35 -44 35 -8 0 -30 -16
-49 -35 -18 -19 -37 -35 -41 -35 -5 0 -23 16 -40 35 -17 19 -39 35 -48 35 -10
0 -33 -17 -51 -37z"/>
<path d="M2479 7090 c-40 -40 -50 -70 -25 -70 8 0 29 17 46 38 l31 37 31 -37
c40 -50 69 -50 114 -1 l34 37 31 -37 c39 -48 67 -48 109 0 l32 36 34 -36 c37
-41 54 -47 54 -17 0 11 -4 20 -8 20 -5 0 -14 11 -21 24 -27 50 -82 51 -114 2
-22 -34 -41 -33 -66 3 -32 44 -58 46 -99 5 -18 -18 -38 -34 -44 -34 -5 0 -24
16 -42 35 -19 19 -39 35 -45 35 -7 0 -30 -18 -52 -40z"/>
<path d="M3099 7090 c-38 -38 -51 -70 -28 -70 6 0 27 17 45 37 l34 37 31 -37
c40 -49 69 -49 114 0 l35 38 15 -22 c46 -66 80 -70 124 -16 l31 37 34 -37 c18
-20 39 -37 45 -37 22 0 10 32 -28 70 -44 45 -69 45 -102 -1 -11 -16 -26 -29
-34 -29 -8 0 -23 13 -34 29 -34 48 -84 47 -110 -3 -19 -35 -36 -33 -75 9 -19
19 -39 35 -45 35 -7 0 -30 -18 -52 -40z"/>
<path d="M2782 6911 c-18 -22 -32 -45 -32 -50 0 -23 30 -9 59 26 l31 38 31
-38 c41 -50 78 -51 115 -1 l27 35 33 -35 c22 -24 42 -36 59 -36 17 0 37 12 59
36 l33 35 27 -35 c27 -37 56 -48 56 -22 0 8 -14 30 -32 50 -41 46 -78 48 -108
6 -12 -16 -28 -30 -35 -30 -8 0 -24 14 -37 30 -15 21 -30 30 -50 30 -19 0 -34
-9 -50 -30 -12 -16 -30 -30 -39 -30 -10 0 -27 14 -39 30 -31 44 -68 41 -108
-9z"/>
<path d="M3402 6914 c-18 -20 -32 -42 -32 -50 0 -26 28 -14 58 24 l31 37 31
-37 c41 -49 70 -50 113 -3 l33 36 31 -36 c42 -47 72 -46 113 3 l31 37 31 -37
c30 -38 58 -50 58 -24 0 8 -14 30 -32 50 -41 46 -78 48 -108 6 -19 -27 -60
-42 -60 -22 0 5 -9 18 -20 30 -29 31 -63 28 -93 -8 -14 -16 -32 -30 -41 -30
-8 0 -24 14 -36 30 -30 42 -67 40 -108 -6z"/>
<path d="M3092 6741 c-18 -22 -32 -45 -32 -50 0 -23 30 -10 58 25 l30 36 33
-36 c44 -49 77 -48 116 1 l30 36 28 -36 c37 -50 74 -50 119 -1 l33 35 27 -35
c26 -35 56 -48 56 -25 0 25 -62 89 -85 89 -22 0 -65 -34 -65 -51 0 -4 -7 -9
-15 -13 -9 -3 -27 8 -47 29 -41 46 -68 45 -107 -2 l-31 -38 -33 38 c-43 50
-74 50 -115 -2z"/>
<path d="M2785 6573 c-37 -40 -44 -63 -20 -63 15 0 55 38 55 52 0 4 9 8 20 8
11 0 20 -4 20 -8 0 -5 9 -18 20 -30 31 -32 74 -29 102 8 12 17 27 30 34 30 7
0 22 -13 34 -30 16 -23 29 -30 55 -30 26 0 39 7 55 30 12 17 27 30 34 30 7 0
22 -13 34 -30 22 -30 52 -40 52 -19 0 6 -14 29 -31 50 -39 50 -68 51 -106 4
-15 -19 -32 -35 -38 -35 -5 0 -23 16 -38 35 -37 47 -66 46 -106 -2 l-30 -38
-35 38 c-19 20 -44 37 -56 37 -12 0 -37 -17 -55 -37z"/>
<path d="M676 8783 c16 -21 102 -132 192 -247 90 -115 166 -214 168 -220 4
-10 -164 -232 -379 -503 -7 -10 15 -13 104 -13 l114 1 139 179 c107 139 142
178 152 169 7 -5 72 -86 145 -180 l132 -169 109 0 c59 0 108 2 108 5 0 3 -85
115 -190 248 -104 133 -190 248 -190 255 0 8 85 123 190 257 105 134 190 246
190 249 0 3 -49 6 -108 6 l-109 0 -139 -180 c-76 -98 -142 -178 -147 -177 -4
1 -69 81 -145 177 l-138 175 -113 3 -114 3 29 -38z"/>
<path d="M8930 8814 c0 -3 86 -115 190 -249 105 -134 190 -249 190 -255 0 -7
-85 -122 -190 -256 -104 -134 -190 -246 -190 -249 0 -3 49 -5 108 -5 l109 0
132 169 c73 94 138 175 145 180 10 8 46 -32 152 -169 l139 -179 114 -1 c89 0
111 3 104 13 -163 206 -375 481 -379 490 -2 7 83 125 191 262 l195 250 -102 3
c-56 1 -107 1 -114 -2 -6 -2 -74 -84 -149 -180 -76 -97 -141 -176 -144 -176
-3 1 -69 82 -145 180 l-140 180 -108 0 c-59 0 -108 -3 -108 -6z"/>
<path d="M3290 3212 l0 -548 204 -220 c194 -210 277 -284 318 -284 120 0 128
264 14 491 -14 28 -26 52 -26 54 0 2 12 5 27 7 39 4 53 39 53 129 0 139 -64
321 -157 446 -35 46 -423 473 -430 473 -2 0 -3 -247 -3 -548z m302 34 c105
-117 138 -178 138 -257 0 -106 -36 -94 -179 62 l-111 122 0 121 1 121 32 -36
c18 -20 71 -80 119 -133z m50 -481 c28 -33 63 -84 76 -114 31 -67 41 -176 19
-205 -25 -34 -59 -12 -181 120 l-116 125 0 147 1 147 75 -80 c41 -44 98 -107
126 -140z"/>
<path d="M7203 3720 c-133 -67 -247 -233 -299 -436 -46 -179 -43 -428 6 -585
60 -193 203 -230 373 -97 85 68 186 238 221 373 58 229 40 546 -39 681 -36 61
-77 87 -144 92 -47 3 -66 -1 -118 -28z m117 -217 c30 -31 40 -52 54 -110 24
-105 22 -297 -4 -399 -58 -229 -234 -334 -309 -186 -33 65 -44 151 -38 304 7
186 34 270 115 360 69 77 126 86 182 31z"/>
<path d="M6560 2897 c-19 -16 -59 -52 -88 -78 l-53 -48 -144 -678 c-79 -372
-143 -678 -142 -679 1 -1 41 34 90 79 l88 82 27 136 27 136 115 103 c63 57
130 117 147 134 18 16 35 27 38 24 3 -3 15 -39 26 -79 12 -41 24 -77 28 -81 3
-3 41 26 84 65 l77 72 -140 419 c-76 230 -141 420 -142 421 -2 2 -19 -11 -38
-28z m10 -467 c23 -80 43 -150 44 -155 0 -6 -46 -53 -103 -105 -59 -54 -101
-86 -98 -75 3 11 27 130 53 264 26 136 50 237 54 230 4 -8 27 -79 50 -159z"/>
<path d="M4080 2315 l0 -550 80 -80 80 -80 0 550 0 550 -80 80 -80 80 0 -550z"/>
<path d="M4600 1811 l0 -550 268 -247 267 -248 3 85 c2 46 0 93 -3 104 -3 11
-87 94 -186 184 l-179 164 0 452 0 452 -85 77 -85 78 0 -551z"/>
<path d="M5832 2153 c-19 -9 -125 -97 -238 -195 l-204 -179 0 -536 c0 -507 1
-535 17 -522 78 62 353 312 407 370 118 127 189 305 190 474 0 121 -23 165
-86 165 -11 0 -18 3 -16 8 28 55 54 116 64 157 16 58 18 182 5 218 -22 57 -74
72 -139 40z m-8 -239 c15 -38 5 -103 -24 -162 -25 -49 -53 -80 -145 -162
l-115 -101 0 118 0 118 97 85 c139 123 173 142 187 104z m16 -413 c25 -48 0
-171 -51 -245 -21 -32 -231 -226 -244 -226 -3 0 -5 63 -5 139 l0 139 108 94
c143 126 170 140 192 99z"/>
</g>
</svg>
