<?xml version="1.0" standalone="no"?>
<!DOCTYPE svg PUBLIC "-//W3C//DTD SVG 20010904//EN"
 "http://www.w3.org/TR/2001/REC-SVG-20010904/DTD/svg10.dtd">
<svg version="1.0" xmlns="http://www.w3.org/2000/svg"
 width="1200.000000pt" height="1200.000000pt" viewBox="0 0 1200.000000 1200.000000"
 preserveAspectRatio="xMidYMid meet">

<g transform="translate(0.000000,1200.000000) scale(0.100000,-0.100000)"
fill="#000000" stroke="none">
<path d="M5629 11996 c-2 -2 -65 -9 -139 -15 -1132 -98 -2172 -494 -3085
-1174 -427 -318 -897 -789 -1218 -1220 -637 -853 -1028 -1846 -1151 -2922 -56
-488 -43 -1086 35 -1590 159 -1032 592 -2018 1239 -2820 225 -278 435 -501
685 -724 855 -764 1880 -1261 2980 -1445 396 -67 629 -86 1030 -86 343 0 500
11 860 61 970 133 1940 535 2733 1133 397 300 794 686 1098 1067 676 848 1104
1851 1248 2919 47 351 59 544 53 905 -5 338 -20 528 -68 845 -144 954 -541
1892 -1133 2677 -304 403 -695 804 -1084 1111 -837 659 -1828 1082 -2882 1227
-289 40 -529 55 -865 55 -183 0 -334 -2 -336 -4z m941 -200 c855 -93 1640
-348 2347 -762 828 -485 1525 -1163 2026 -1969 683 -1100 976 -2392 836 -3685
-137 -1271 -653 -2400 -1531 -3346 -660 -713 -1482 -1243 -2403 -1549 -498
-166 -950 -253 -1510 -290 -275 -19 -391 -19 -675 0 -1303 84 -2445 545 -3449
1392 -138 117 -472 448 -592 588 -755 880 -1218 1889 -1383 3015 -43 290 -50
418 -50 825 0 428 8 546 60 885 247 1604 1158 3036 2505 3939 810 542 1759
878 2709 961 69 5 143 12 165 14 110 10 809 -3 945 -18z"/>
<path d="M5680 11623 c-607 -42 -1127 -151 -1648 -345 -1923 -716 -3297 -2409
-3602 -4438 -70 -467 -79 -989 -24 -1470 122 -1086 563 -2115 1274 -2970 136
-164 531 -558 695 -694 368 -305 715 -531 1130 -736 970 -478 2033 -664 3115
-544 1041 115 2044 528 2863 1181 371 296 730 666 1009 1040 560 751 923 1621
1057 2533 72 487 79 1021 20 1505 -201 1650 -1100 3101 -2489 4020 -808 535
-1725 844 -2715 915 -126 9 -572 11 -685 3z m766 -293 c357 -91 561 -435 474
-799 -31 -128 -79 -211 -179 -311 -133 -132 -277 -190 -471 -190 -504 0 -818
502 -600 956 83 172 268 317 453 354 82 16 239 11 323 -10z m-1396 -136 c134
-40 229 -151 261 -304 29 -139 -13 -262 -124 -367 l-71 -66 44 -36 c146 -119
395 -334 393 -340 -2 -3 -59 -20 -128 -37 l-125 -32 -201 172 c-110 94 -207
172 -215 174 -11 3 -253 -55 -261 -62 -1 -1 22 -97 51 -214 30 -117 51 -214
47 -216 -11 -7 -213 -57 -217 -54 -1 2 -28 105 -59 228 -31 124 -101 400 -156
614 -55 214 -97 392 -92 396 4 5 143 42 308 84 268 67 310 75 396 76 59 0 116
-6 149 -16z m2525 -72 l90 -37 17 -50 c9 -28 62 -214 118 -415 56 -201 118
-417 139 -480 l37 -114 128 319 c156 387 192 469 204 473 20 6 197 -75 194
-89 -6 -28 -464 -1154 -472 -1163 -6 -5 -44 4 -94 24 -75 29 -87 36 -95 64 -6
17 -49 171 -96 341 -103 371 -194 685 -204 703 -4 7 -76 -156 -171 -393 -90
-224 -167 -408 -171 -411 -4 -2 -52 15 -107 38 l-101 41 19 46 c10 25 97 242
195 481 97 239 197 486 222 548 25 61 48 112 52 112 3 -1 47 -17 96 -38z
m-3748 -657 c88 -170 218 -421 287 -557 l127 -247 -101 -51 c-56 -28 -103 -50
-105 -48 -5 4 -585 1130 -585 1134 0 2 44 26 98 53 73 37 100 46 108 38 6 -7
83 -151 171 -322z m-807 -295 l0 -110 -28 0 c-48 0 -181 -38 -235 -67 -167
-91 -256 -262 -227 -435 35 -204 205 -378 400 -407 196 -31 398 100 485 314
l24 59 -62 70 c-33 39 -68 79 -77 89 -17 18 -21 15 -110 -60 -51 -43 -108 -90
-126 -106 l-33 -27 -58 70 c-32 39 -59 75 -61 79 -1 5 77 77 175 161 98 84
190 164 204 177 l26 24 135 -155 c75 -84 155 -179 178 -209 l42 -56 -21 -80
c-67 -266 -295 -503 -546 -566 -77 -20 -221 -19 -299 1 -228 59 -427 261 -491
499 -22 80 -22 232 0 315 73 281 371 525 648 529 l57 1 0 -110z m6530 -180
l74 -69 -183 -558 c-101 -307 -199 -606 -218 -666 -26 -82 -37 -106 -48 -100
-7 5 -49 39 -93 77 l-81 68 55 160 55 160 -47 41 c-26 23 -126 112 -222 199
l-174 156 -47 -19 c-25 -11 -94 -43 -153 -71 l-107 -51 -86 78 c-47 43 -82 81
-78 85 4 4 231 108 503 233 272 124 554 253 625 286 72 32 135 59 140 60 6 0
44 -31 85 -69z m-3130 -225 c1423 -171 2601 -1097 3111 -2445 87 -230 166
-551 205 -830 21 -154 30 -626 15 -790 -49 -541 -205 -1056 -453 -1505 -540
-977 -1482 -1667 -2573 -1884 -275 -55 -399 -66 -735 -66 -235 0 -337 5 -445
18 -852 110 -1589 462 -2186 1044 -312 305 -545 621 -740 1008 -343 679 -471
1433 -373 2189 62 479 229 973 469 1387 388 668 940 1183 1630 1519 432 210
857 326 1360 370 145 13 557 4 715 -15z m2897 -6801 c45 -34 65 -66 70 -117
l5 -42 62 0 c53 0 68 -4 99 -28 20 -15 43 -40 51 -55 50 -98 23 -157 -159
-341 l-134 -136 -226 225 c-123 124 -225 228 -225 233 0 4 53 61 118 125 172
173 250 204 339 136z m-6258 -196 l124 -117 -43 -48 c-24 -26 -44 -49 -45 -51
-1 -1 -58 51 -126 116 l-124 120 -50 -44 -50 -44 113 -107 113 -107 -47 -47
-47 -48 -112 104 -111 104 -83 -90 -82 -89 -55 47 c-30 26 -53 50 -52 54 2 4
102 111 223 238 l219 230 56 -52 c30 -29 111 -105 179 -169z m5773 -363 c133
-190 140 -204 146 -291 4 -65 2 -77 -24 -124 -70 -128 -243 -203 -358 -155
-61 26 -112 81 -233 253 l-116 165 34 28 c19 15 46 35 60 43 l27 16 98 -143
c119 -172 157 -214 198 -225 69 -19 146 27 167 99 15 48 -1 80 -127 259 -52
74 -99 143 -105 152 -7 13 2 24 48 57 45 32 60 38 69 28 6 -6 59 -79 116 -162z
m-5459 97 l48 -34 -17 -27 c-9 -14 -43 -63 -76 -108 -102 -143 -148 -224 -148
-263 0 -52 33 -98 86 -122 44 -19 48 -19 90 -3 46 17 70 47 223 273 35 50 65
92 67 92 2 0 29 -17 60 -37 35 -23 53 -41 49 -50 -13 -35 -211 -317 -248 -354
-53 -53 -88 -70 -156 -76 -85 -8 -160 25 -236 101 -96 96 -111 185 -50 301 52
101 235 356 248 348 7 -4 34 -22 60 -41z m777 -463 c118 -55 219 -104 223
-109 9 -8 -42 -120 -54 -120 -4 0 -40 16 -80 35 -41 19 -78 35 -84 35 -6 0
-58 -100 -115 -222 -57 -123 -105 -225 -107 -227 -4 -5 -123 50 -129 60 -2 4
44 106 101 228 58 121 105 223 105 226 0 2 -37 23 -82 46 -46 23 -84 42 -86
44 -1 1 10 28 24 59 22 49 29 57 48 52 12 -3 118 -51 236 -107z m3811 -224
l109 -224 54 24 c31 13 96 45 145 70 l91 45 30 -61 31 -60 -205 -100 c-112
-54 -208 -99 -213 -99 -9 0 -263 511 -278 559 -5 18 1 25 47 46 29 14 59 25
66 25 8 0 62 -99 123 -225z m-3288 19 c217 -60 287 -100 308 -176 5 -21 7 -54
3 -73 -8 -43 -55 -111 -83 -120 -20 -6 -20 -7 5 -45 73 -111 14 -252 -112
-266 -63 -8 -138 6 -305 58 l-136 41 89 306 c48 168 88 307 88 308 0 6 16 2
143 -33z m2875 16 c38 -14 39 -21 11 -89 -24 -56 -22 -56 -103 -40 -92 19
-172 -16 -212 -93 -33 -64 -8 -194 47 -245 31 -28 90 -53 127 -53 43 0 128 47
162 91 l31 39 60 -31 60 -30 -18 -30 c-30 -52 -119 -126 -181 -150 -80 -31
-189 -31 -257 -1 -68 31 -138 102 -171 176 -37 80 -40 195 -7 268 42 92 139
172 240 198 46 11 166 6 211 -10z m-1939 -199 c97 -30 166 -90 209 -181 22
-45 26 -69 26 -135 0 -99 -29 -171 -98 -240 -70 -69 -122 -89 -236 -89 -88 -1
-100 2 -162 32 -81 40 -139 102 -169 181 -53 142 9 322 137 397 96 56 190 67
293 35z m591 -18 c0 -5 7 -107 15 -228 8 -121 15 -233 15 -249 l0 -29 159 7
158 7 7 -23 c11 -41 7 -108 -6 -108 -7 -1 -110 -7 -228 -14 -118 -8 -218 -11
-221 -8 -4 4 -14 135 -23 292 -9 157 -18 299 -19 315 -2 29 0 30 48 36 79 9
95 10 95 2z"/>
<path d="M6161 11114 c-165 -44 -270 -165 -308 -353 -31 -146 11 -294 112
-400 92 -97 204 -138 347 -128 223 15 388 205 388 447 -1 296 -263 508 -539
434z"/>
<path d="M4833 10980 c-53 -6 -350 -77 -363 -87 -2 -2 18 -94 45 -203 35 -143
53 -200 63 -200 23 0 330 80 367 96 78 32 144 119 145 189 0 51 -20 104 -52
141 -53 60 -100 75 -205 64z"/>
<path d="M9108 9657 c-131 -61 -238 -113 -237 -116 0 -3 71 -69 157 -145 l156
-139 83 249 c46 137 82 252 81 255 -2 4 -110 -43 -240 -104z"/>
<path d="M5770 9563 c-120 -7 -333 -36 -475 -64 -169 -33 -245 -53 -425 -111
l-125 -40 -1043 -1041 c-703 -703 -1049 -1055 -1062 -1082 -54 -113 -144 -472
-179 -720 -18 -126 -46 -474 -38 -481 1 -2 801 795 1777 1771 l1775 1775 -75
-2 c-41 -1 -100 -3 -130 -5z"/>
<path d="M6697 9262 c-103 -103 -187 -192 -187 -198 0 -6 113 -122 251 -259
l251 -248 304 304 c167 167 304 307 304 310 0 8 -178 91 -313 145 -118 48
-379 134 -406 134 -9 0 -101 -84 -204 -188z"/>
<path d="M6360 8162 l0 -742 360 0 360 0 0 383 0 382 -360 360 -360 360 0
-743z"/>
<path d="M5254 8538 l-350 -353 4 -382 4 -383 359 0 359 0 0 689 c0 642 -3
781 -19 781 -3 0 -164 -159 -357 -352z"/>
<path d="M7881 8406 l-354 -354 51 -59 c28 -32 141 -148 251 -258 l201 -200
362 362 362 362 -60 68 c-144 165 -422 433 -449 433 -5 0 -169 -159 -364 -354z"/>
<path d="M8847 7332 l-307 -307 255 -255 256 -254 194 194 195 195 -41 135
c-47 157 -142 399 -202 517 l-42 83 -308 -308z"/>
<path d="M3803 7088 l-352 -353 -2 -729 -1 -729 356 -356 356 -356 0 1438 c0
790 -1 1437 -3 1437 -1 0 -161 -159 -354 -352z"/>
<path d="M7830 6005 l1 -1430 354 358 355 358 0 717 0 717 -355 355 -355 355
0 -1430z"/>
<path d="M4582 6033 l3 -1258 32 -67 c44 -94 109 -160 202 -206 l75 -37 420
-5 c488 -6 445 3 586 -122 l90 -80 83 72 c45 40 102 84 127 98 l45 27 420 6
c391 5 424 7 471 26 110 43 181 111 232 220 l27 58 3 1263 2 1262 -1410 0
-1410 0 2 -1257z m2696 1082 l3 -50 -52 4 c-64 4 -118 -11 -159 -45 -60 -51
-64 -68 -70 -309 -6 -244 -9 -258 -73 -292 -25 -13 -55 -17 -136 -16 -113 2
-132 9 -175 67 -20 26 -21 42 -22 234 0 187 -2 211 -21 254 -69 153 -320 136
-364 -24 -6 -24 -12 -128 -13 -238 -1 -163 -5 -200 -19 -227 -25 -47 -68 -65
-167 -71 -72 -4 -94 -1 -132 16 -79 35 -82 44 -88 296 -6 242 -10 259 -70 309
-71 61 -189 61 -260 0 -60 -50 -64 -67 -70 -308 -5 -240 -9 -254 -67 -292 -38
-25 -213 -25 -263 0 -68 33 -73 54 -75 292 -2 203 -3 213 -26 256 -34 62 -111
101 -191 98 -32 -1 -58 1 -58 4 0 4 0 25 0 47 l0 40 763 3 c419 1 996 2 1282
2 l520 0 3 -50z m-761 -627 c18 -5 43 -24 55 -41 22 -30 23 -44 28 -252 6
-250 13 -277 82 -323 47 -30 136 -41 191 -23 52 18 103 78 116 140 6 29 11
132 11 229 0 148 3 183 18 212 26 52 70 70 175 70 l87 0 0 -292 0 -293 -67 0
c-112 -1 -180 -50 -202 -146 -6 -24 -11 -128 -11 -230 0 -177 -1 -188 -23
-220 -38 -57 -77 -71 -187 -67 -64 3 -105 10 -127 21 -57 30 -62 53 -66 284
-3 185 -5 213 -24 254 -61 135 -279 139 -351 5 -13 -25 -17 -71 -22 -251 -5
-212 -6 -221 -29 -254 -34 -47 -75 -61 -178 -61 -98 0 -142 16 -177 63 -19 25
-21 47 -26 250 -6 235 -8 246 -58 300 -33 35 -117 61 -169 51 -65 -11 -119
-49 -144 -101 -21 -44 -23 -65 -29 -263 -6 -228 -7 -237 -58 -275 -38 -28
-195 -34 -258 -10 -75 29 -78 38 -84 290 -6 210 -7 222 -30 263 -36 65 -95 96
-182 96 l-68 1 0 293 0 292 85 0 c98 0 145 -15 172 -56 16 -24 19 -57 23 -244
5 -197 7 -219 27 -260 13 -25 39 -56 60 -70 31 -21 48 -25 113 -25 66 0 82 4
117 27 70 46 77 72 83 323 3 145 10 227 18 242 6 11 28 31 47 43 32 20 46 21
151 18 l116 -3 34 -37 c38 -42 37 -35 35 -253 -2 -224 19 -294 104 -342 71
-40 197 -23 247 33 44 50 52 92 53 274 3 260 1 246 38 287 31 33 40 37 103 43
75 7 130 4 181 -12z m-1594 -1161 c58 -38 61 -52 67 -291 6 -234 8 -245 58
-299 33 -35 117 -61 169 -51 65 11 119 49 144 101 22 45 24 63 27 258 5 242 9
256 79 287 60 26 210 23 259 -6 56 -33 58 -42 64 -281 5 -217 5 -221 32 -267
31 -51 108 -98 161 -98 86 0 172 60 195 136 8 27 12 111 12 236 0 186 1 197
23 229 35 52 78 69 177 69 104 0 160 -22 187 -72 16 -29 18 -55 16 -198 -3
-249 15 -323 94 -367 57 -32 103 -37 165 -19 53 15 106 58 123 101 5 11 12
117 15 235 7 247 11 263 80 298 34 17 61 22 121 22 l77 0 7 -76 c4 -42 5 -176
3 -298 -5 -244 -10 -267 -69 -323 -62 -58 -57 -57 -544 -63 l-450 -5 -67 -32
c-37 -17 -87 -45 -112 -62 l-44 -31 -66 45 c-118 79 -114 78 -616 85 -297 4
-454 9 -471 17 -44 19 -91 66 -110 108 -17 36 -19 71 -19 339 l0 298 94 -4
c66 -3 101 -9 119 -21z"/>
<path d="M7775 4219 l-1780 -1781 135 6 c346 17 658 74 977 177 l128 41 266
267 c146 146 618 620 1048 1052 l782 787 39 110 c52 148 105 364 134 554 25
154 61 524 54 553 -2 9 -678 -660 -1783 -1766z"/>
<path d="M2732 5297 l-192 -192 19 -70 c50 -179 162 -469 243 -629 l20 -39
309 309 309 309 -252 252 c-139 139 -255 253 -258 253 -3 0 -92 -87 -198 -193z"/>
<path d="M3586 4111 l-360 -360 60 -68 c141 -163 423 -433 450 -433 13 0 714
703 714 715 0 10 -490 505 -500 505 -3 0 -167 -162 -364 -359z"/>
<path d="M4910 4335 c-1 0 -3 -115 -5 -256 l-3 -257 361 -358 362 -359 3 609
c1 335 1 610 -1 612 -2 2 -556 9 -717 9z"/>
<path d="M6693 4333 l-333 -3 0 -613 0 -612 360 361 360 360 0 257 0 257 -27
-2 c-16 -2 -178 -4 -360 -5z"/>
<path d="M4662 3147 l-304 -304 34 -20 c113 -67 414 -187 602 -240 l97 -27
120 120 c66 65 152 154 191 197 l71 78 -249 250 c-137 137 -251 249 -254 249
-3 0 -142 -137 -308 -303z"/>
<path d="M9153 2801 c-26 -21 -60 -51 -75 -67 l-27 -29 40 -48 41 -47 36 31
c56 48 102 109 102 135 0 20 -41 64 -60 64 -5 0 -30 -17 -57 -39z"/>
<path d="M9364 2651 c-21 -16 -61 -52 -89 -80 l-49 -51 47 -48 48 -47 79 82
c48 49 80 91 80 103 0 24 -42 70 -63 70 -8 0 -32 -13 -53 -29z"/>
<path d="M4616 1639 c-9 -32 -16 -61 -16 -63 0 -15 173 -50 201 -41 26 9 42
50 29 76 -16 29 -47 46 -126 67 l-71 20 -17 -59z"/>
<path d="M4551 1413 c-26 -99 -32 -88 60 -113 128 -34 144 -35 168 -11 49 49
14 97 -93 130 -123 37 -124 37 -135 -6z"/>
<path d="M5418 1500 c-98 -52 -132 -189 -71 -291 21 -37 80 -75 129 -85 71
-13 171 43 200 113 18 42 18 137 0 171 -19 37 -75 89 -109 101 -43 17 -108 12
-149 -9z"/>
</g>
</svg>
