<?xml version="1.0" encoding="UTF-8"?>
<!-- Generator: visioncortex VTracer 0.6.4 -->
<svg version="1.1" xmlns="http://www.w3.org/2000/svg" width="1200" height="1200">
<path d="M0 0 C0.9 -0 1.81 -0.01 2.74 -0.01 C7.55 -0.03 12.36 -0.05 17.17 -0.06 C21.06 -0.07 24.95 -0.09 28.84 -0.12 C117.24 -0.83 203.82 19.24 302.33 66.24 C303.05 66.61 303.78 66.98 304.52 67.36 C348.36 89.73 389.61 118.67 425.84 151.97 C428 153.93 430.18 155.84 432.39 157.74 C437.28 161.99 441.78 166.63 446.33 171.24 C449.45 174.37 452.59 177.49 455.73 180.6 C457.39 182.25 459.04 183.9 460.7 185.55 C461.53 186.37 462.35 187.18 463.2 188.03 C468.13 192.93 472.82 197.95 477.33 203.24 C478.3 204.36 479.28 205.47 480.25 206.59 C486.65 213.98 492.86 221.5 498.81 229.26 C499.86 230.63 500.92 232 501.98 233.37 C554.98 301.88 592.91 382.09 621.88 525.57 C622.16 527.86 622.45 530.15 622.74 532.43 C625.38 552.9 625.83 573.14 625.77 593.75 C625.77 597.31 625.77 600.87 625.79 604.43 C626.33 687.9 608.65 772.03 561.33 873.24 C560.82 874.26 560.31 875.28 559.78 876.34 C549.37 897.11 537.55 917.14 524.33 936.24 C523.81 936.99 523.3 937.74 522.77 938.51 C514.38 950.77 505.6 962.64 496.33 974.24 C495.52 975.25 494.71 976.27 493.87 977.31 C484.65 988.7 475.05 999.73 465.03 1010.42 C463.13 1012.45 461.25 1014.48 459.37 1016.52 C452.97 1023.4 446.6 1030.16 439.49 1036.33 C437.3 1038.26 435.25 1040.28 433.2 1042.36 C429.41 1046.2 425.43 1049.73 421.33 1053.24 C420.29 1054.14 419.24 1055.05 418.2 1055.96 C410.11 1062.98 401.84 1069.72 393.33 1076.24 C392.72 1076.71 392.11 1077.18 391.48 1077.66 C373.76 1091.22 355.48 1103.78 336.33 1115.24 C335.56 1115.7 334.8 1116.16 334.01 1116.63 C266.66 1156.83 192.4 1183.58 114.77 1195.05 C113.53 1195.23 112.3 1195.42 111.03 1195.6 C107.64 1196.08 104.24 1196.52 100.84 1196.93 C99.05 1197.15 97.27 1197.38 95.49 1197.62 C74.02 1200.45 52.72 1200.74 31.09 1200.68 C27.22 1200.68 23.35 1200.68 19.48 1200.7 C-5.87 1200.85 -30.56 1199.73 -55.67 1196.24 C-56.67 1196.1 -57.67 1195.97 -58.7 1195.83 C-63.9 1195.14 -69.07 1194.36 -74.23 1193.49 C-74.98 1193.37 -75.72 1193.24 -76.48 1193.12 C-125.57 1184.95 -173.19 1170.36 -218.67 1150.24 C-219.64 1149.81 -220.62 1149.38 -221.62 1148.95 C-234.6 1143.24 -247.22 1137.02 -259.67 1130.24 C-260.41 1129.84 -261.14 1129.45 -261.9 1129.04 C-294.57 1111.44 -325.37 1090.33 -353.94 1066.67 C-356.43 1064.61 -358.96 1062.58 -361.48 1060.55 C-366.17 1056.72 -370.65 1052.69 -375.11 1048.59 C-377.35 1046.54 -379.62 1044.53 -381.92 1042.55 C-385.06 1039.83 -387.98 1036.95 -390.89 1033.98 C-392.74 1032.17 -394.65 1030.49 -396.61 1028.8 C-402.9 1023.36 -408.55 1017.46 -413.96 1011.16 C-415.59 1009.33 -417.28 1007.63 -419.05 1005.93 C-422.75 1002.28 -425.97 998.3 -429.23 994.25 C-431.34 991.65 -433.49 989.09 -435.66 986.54 C-450.89 968.74 -464.99 949.93 -477.67 930.24 C-478.13 929.53 -478.59 928.82 -479.07 928.08 C-530.19 849.08 -561.79 759.38 -575.19 602.86 C-575.17 600.25 -575.16 597.63 -575.16 595.01 C-575.07 570.66 -574.66 546.5 -570.99 522.37 C-570.66 520.15 -570.35 517.92 -570.04 515.69 C-565.25 481.23 -557.45 447.32 -546.67 414.24 C-546.27 413.01 -545.88 411.79 -545.46 410.53 C-524.71 347.37 -493.23 287.91 -452.67 235.24 C-452.21 234.64 -451.75 234.04 -451.27 233.42 C-442.24 221.66 -432.64 210.42 -422.67 199.45 C-420.88 197.47 -419.15 195.46 -417.42 193.43 C-412.63 187.91 -407.35 182.84 -402.16 177.71 C-398.74 174.33 -395.35 170.91 -391.96 167.5 C-390.6 166.12 -389.23 164.74 -387.86 163.36 C-387.19 162.68 -386.51 162 -385.82 161.3 C-381.27 156.73 -376.57 152.43 -371.67 148.24 C-370.55 147.26 -369.44 146.29 -368.32 145.32 C-360.83 138.83 -353.19 132.59 -345.35 126.54 C-343.76 125.31 -342.18 124.06 -340.61 122.82 C-309.3 98.31 -275.14 78.07 -239.67 60.24 C-238.65 59.72 -237.63 59.2 -236.58 58.67 C-201.47 40.94 -163.84 27.58 -125.72 18.01 C-122.72 17.25 -119.73 16.47 -116.74 15.69 C-87.84 8.3 -58.3 4.32 -28.67 1.24 C-28.01 1.15 -27.34 1.07 -26.66 0.98 C-17.81 -0.08 -8.9 0.03 0 0 Z M46.33 65.24 C46.33 65.57 46.33 65.9 46.33 66.24 C50.29 66.24 54.25 66.24 58.33 66.24 C58.33 65.91 58.33 65.58 58.33 65.24 C54.37 65.24 50.41 65.24 46.33 65.24 Z M-279.67 172.24 C-279.67 172.57 -279.67 172.9 -279.67 173.24 C-277.69 173.24 -275.71 173.24 -273.67 173.24 C-273.67 172.91 -273.67 172.58 -273.67 172.24 C-275.65 172.24 -277.63 172.24 -279.67 172.24 Z M605.33 619.24 C605.33 621.22 605.33 623.2 605.33 625.24 C605.66 625.24 605.99 625.24 606.33 625.24 C606.33 623.26 606.33 621.28 606.33 619.24 C606 619.24 605.67 619.24 605.33 619.24 Z M569.33 801.24 C570.33 803.24 570.33 803.24 570.33 803.24 Z M564.33 814.24 C565.33 816.24 565.33 816.24 565.33 816.24 Z M368.33 919.24 C368.33 919.57 368.33 919.9 368.33 920.24 C369.98 920.24 371.63 920.24 373.33 920.24 C373.33 919.91 373.33 919.58 373.33 919.24 C371.68 919.24 370.03 919.24 368.33 919.24 Z M34.33 1037.24 C38.33 1038.24 38.33 1038.24 38.33 1038.24 Z M74.33 1178.24 C74.33 1178.57 74.33 1178.9 74.33 1179.24 C75.98 1179.24 77.63 1179.24 79.33 1179.24 C79.33 1178.91 79.33 1178.58 79.33 1178.24 C77.68 1178.24 76.03 1178.24 74.33 1178.24 Z M-3.67 1180.24 C-3.67 1180.57 -3.67 1180.9 -3.67 1181.24 C1.28 1181.24 6.23 1181.24 11.33 1181.24 C11.33 1180.91 11.33 1180.58 11.33 1180.24 C6.38 1180.24 1.43 1180.24 -3.67 1180.24 Z M38.33 1180.24 C38.33 1180.57 38.33 1180.9 38.33 1181.24 C43.28 1181.24 48.23 1181.24 53.33 1181.24 C53.33 1180.91 53.33 1180.58 53.33 1180.24 C48.38 1180.24 43.43 1180.24 38.33 1180.24 Z " fill="#CF0C29" transform="translate(574.671875,-0.23828125)"/>
<path d="M0 0 C1.98 1.03 3.96 2.04 5.95 3.05 C22.11 11.32 37.33 21.14 51.87 31.98 C52.41 32.38 52.95 32.78 53.5 33.19 C69.76 45.3 84.82 58.88 99.19 73.17 C99.84 73.82 100.5 74.48 101.18 75.15 C105.61 79.6 109.8 84.2 113.87 88.98 C114.42 89.62 114.97 90.27 115.54 90.93 C124.27 101.21 132.33 111.81 139.87 122.98 C140.55 123.97 140.55 123.97 141.23 124.98 C172.53 171.11 193.07 223.87 201.4 278.93 C201.7 280.86 202.01 282.78 202.34 284.71 C205.02 300.42 205.14 316.02 205.12 331.92 C205.12 332.97 205.12 334.02 205.12 335.11 C205.08 354.59 204.29 373.49 201.12 392.73 C200.92 393.97 200.92 393.97 200.72 395.23 C197.52 414.95 193.37 434.07 186.87 452.98 C186.54 453.95 186.21 454.92 185.87 455.92 C180.93 470.3 175.44 484.26 168.87 497.98 C168.26 499.28 168.26 499.28 167.63 500.61 C146.59 544.94 115.38 587.08 77.87 618.98 C76.99 619.76 76.1 620.53 75.19 621.33 C37.75 653.88 -5.59 677.34 -52.13 693.98 C-53.32 694.41 -53.32 694.41 -54.53 694.86 C-70.64 700.69 -87.29 704.19 -104.14 707.09 C-107.28 707.63 -110.36 708.25 -113.46 708.99 C-150.73 717.4 -193.7 715.38 -231.13 708.98 C-232.25 708.79 -233.38 708.6 -234.54 708.4 C-241.78 707.12 -248.96 705.62 -256.13 703.98 C-257.62 703.65 -257.62 703.65 -259.13 703.3 C-283.03 697.84 -305.71 689.83 -328.13 679.98 C-328.9 679.65 -329.66 679.31 -330.46 678.97 C-361.16 665.49 -389.46 646.42 -415.13 624.98 C-416.11 624.18 -417.1 623.38 -418.12 622.56 C-426.15 615.95 -433.57 608.75 -440.94 601.42 C-441.43 600.94 -441.92 600.45 -442.42 599.96 C-448.38 594.05 -453.95 587.95 -459.19 581.4 C-460.73 579.48 -462.29 577.61 -463.92 575.77 C-506.99 526.79 -535.09 461.08 -545.13 396.98 C-545.32 395.82 -545.52 394.65 -545.72 393.45 C-551.94 355.18 -552.11 314.13 -545.13 275.98 C-544.76 273.78 -544.39 271.58 -544.03 269.37 C-534.19 212.33 -510.4 158.47 -476.13 111.98 C-475.48 111.11 -475.48 111.11 -474.83 110.22 C-459.22 89.19 -441.22 68.82 -421.13 51.98 C-419.79 50.81 -419.79 50.81 -418.42 49.61 C-361.47 0 -290.55 -29.18 -216.13 -39.02 C-214.67 -39.22 -214.67 -39.22 -213.17 -39.42 C-141.25 -48.79 -63.95 -33.68 0 0 Z " fill="#FEFDFD" transform="translate(771.126953125,263.0185546875)"/>
<path d="M0 0 C3.95 1.6 6.61 4.33 9.55 7.31 C10.1 7.86 10.66 8.4 11.22 8.97 C13.08 10.82 14.93 12.68 16.78 14.54 C18.12 15.88 19.46 17.22 20.8 18.56 C24.49 22.24 28.17 25.93 31.86 29.62 C35.83 33.6 39.8 37.57 43.77 41.55 C50.66 48.43 57.55 55.32 64.43 62.21 C74.38 72.18 84.33 82.14 94.29 92.1 C110.44 108.25 126.59 124.42 142.73 140.58 C158.41 156.28 174.1 171.98 189.79 187.68 C190.28 188.17 190.76 188.65 191.26 189.15 C196.11 194.01 200.97 198.87 205.83 203.72 C246.56 244.48 287.28 285.24 328 326 C323.38 331.55 318.45 336.68 313.34 341.78 C312.48 342.64 311.62 343.5 310.74 344.39 C308.37 346.76 306 349.13 303.62 351.49 C301.06 354.05 298.5 356.62 295.94 359.18 C291.5 363.61 287.06 368.05 282.63 372.48 C276.21 378.89 269.79 385.31 263.37 391.72 C252.95 402.14 242.53 412.56 232.1 422.98 C221.99 433.08 211.88 443.18 201.77 453.29 C200.83 454.22 200.83 454.22 199.88 455.17 C196.76 458.3 193.63 461.42 190.51 464.55 C168.97 486.08 147.43 507.6 125.88 529.13 C124.97 530.04 124.07 530.94 123.13 531.88 C121.46 533.55 119.79 535.22 118.11 536.89 C114.41 540.59 110.7 544.3 107 548 C72 583 37 618 2 653 C-1.95 651.4 -4.61 648.67 -7.55 645.69 C-8.1 645.14 -8.66 644.6 -9.22 644.03 C-11.08 642.18 -12.93 640.32 -14.78 638.46 C-16.12 637.12 -17.46 635.78 -18.8 634.44 C-22.49 630.76 -26.17 627.07 -29.86 623.38 C-33.83 619.4 -37.8 615.43 -41.77 611.45 C-48.66 604.57 -55.55 597.68 -62.43 590.79 C-72.38 580.82 -82.33 570.86 -92.29 560.9 C-108.44 544.75 -124.59 528.58 -140.73 512.42 C-156.41 496.72 -172.1 481.02 -187.79 465.32 C-188.28 464.83 -188.76 464.35 -189.26 463.85 C-194.11 458.99 -198.97 454.13 -203.83 449.28 C-244.56 408.52 -285.28 367.76 -326 327 C-324.22 323.18 -321.82 320.54 -318.85 317.61 C-318.33 317.08 -317.8 316.56 -317.26 316.01 C-315.53 314.28 -313.79 312.55 -312.05 310.82 C-310.84 309.61 -309.63 308.4 -308.42 307.19 C-305.88 304.65 -303.34 302.12 -300.79 299.58 C-297.54 296.35 -294.3 293.12 -291.07 289.88 C-288.56 287.38 -286.06 284.88 -283.55 282.38 C-282.36 281.19 -281.16 280 -279.97 278.8 C-278.29 277.13 -276.61 275.45 -274.93 273.78 C-274.44 273.3 -273.96 272.81 -273.46 272.32 C-270.77 269.65 -268 267.11 -265.12 264.63 C-260.94 260.99 -257.01 257.14 -253.1 253.22 C-252.36 252.47 -251.61 251.73 -250.85 250.96 C-248.41 248.53 -245.98 246.09 -243.55 243.65 C-241.85 241.94 -240.15 240.24 -238.44 238.54 C-233.98 234.06 -229.51 229.59 -225.05 225.12 C-220.51 220.57 -215.96 216.02 -211.42 211.47 C-204.08 204.12 -196.75 196.78 -189.42 189.43 C-179.79 179.78 -179.79 179.78 -176.35 176.39 C-175.45 175.5 -174.55 174.61 -173.62 173.69 C-172.73 172.8 -171.84 171.92 -170.91 171.01 C-168.86 168.93 -166.94 166.78 -165.05 164.55 C-159.84 158.55 -154.15 153 -148.52 147.39 C-146.57 145.44 -144.62 143.49 -142.67 141.53 C-141.41 140.27 -140.14 139.01 -138.88 137.75 C-138.31 137.17 -137.74 136.6 -137.15 136.01 C-134.37 133.24 -131.54 130.59 -128.55 128.05 C-122.67 122.92 -117.22 117.35 -111.71 111.82 C-110.49 110.6 -109.26 109.38 -108.04 108.15 C-104.74 104.86 -101.45 101.55 -98.15 98.25 C-94.7 94.79 -91.24 91.34 -87.79 87.88 C-81.26 81.35 -74.73 74.81 -68.2 68.27 C-60.76 60.82 -53.32 53.37 -45.88 45.93 C-30.58 30.62 -15.29 15.31 0 0 Z " fill="#FEB600" transform="translate(598,273)"/>
<path d="M0 0 C101.31 0 202.62 0 307 0 C307.06 63.48 307.06 63.48 307.12 128.25 C307.14 141.61 307.16 154.97 307.18 168.74 C307.19 185.06 307.19 185.06 307.19 192.7 C307.19 198.04 307.2 203.37 307.21 208.7 C307.23 215.51 307.23 222.32 307.23 229.13 C307.23 231.63 307.23 234.13 307.24 236.62 C307.25 240 307.25 243.38 307.24 246.76 C307.25 247.73 307.25 248.7 307.26 249.7 C307.22 259.55 306.16 269.23 301.56 278.06 C301.22 278.74 300.87 279.41 300.51 280.11 C293.78 292.48 282.66 300.81 269.62 305.88 C259.16 308.82 247.67 308.12 236.89 308.05 C233.07 308.03 229.25 308.04 225.42 308.05 C220.6 308.06 215.79 308.07 210.97 308.02 C207.03 307.99 203.09 308 199.15 308.03 C197.67 308.03 196.18 308.02 194.7 308 C184.25 307.84 177.81 309.8 170 317 C168.98 317.91 168.98 317.91 167.93 318.83 C165.73 320.81 163.63 322.88 161.52 324.95 C158.52 327.82 155.99 329.78 152 331 C151.11 330.18 151.11 330.18 150.2 329.35 C143.97 323.68 137.57 318.28 131 313 C130.27 312.31 129.55 311.62 128.8 310.9 C125.2 308.46 122.98 308.5 118.65 308.49 C117.92 308.48 117.2 308.47 116.46 308.46 C114.07 308.44 111.69 308.45 109.31 308.46 C107.64 308.45 105.97 308.44 104.3 308.43 C99.91 308.39 95.52 308.38 91.13 308.38 C84.12 308.37 77.11 308.33 70.11 308.29 C67.68 308.27 65.25 308.27 62.82 308.28 C44.15 308.23 28.33 304.92 14.25 291.75 C-0.53 275.8 -0.58 258.82 -0.45 238.29 C-0.45 235.64 -0.45 233 -0.46 230.36 C-0.46 224.01 -0.44 217.67 -0.41 211.33 C-0.38 203.98 -0.38 196.64 -0.38 189.29 C-0.36 169.92 -0.3 150.56 -0.25 131.19 C-0.17 87.9 -0.08 44.6 0 0 Z " fill="#CF0E2B" transform="translate(446,459)"/>
<path d="M0 0 C0.9 -0 1.81 -0.01 2.74 -0.01 C7.55 -0.03 12.36 -0.05 17.17 -0.06 C21.06 -0.07 24.95 -0.09 28.84 -0.12 C117.24 -0.83 203.82 19.24 302.33 66.24 C303.05 66.61 303.78 66.98 304.52 67.36 C348.36 89.73 389.61 118.67 425.84 151.97 C428 153.93 430.18 155.84 432.39 157.74 C437.28 161.99 441.78 166.63 446.33 171.24 C449.45 174.37 452.59 177.49 455.73 180.6 C457.39 182.25 459.04 183.9 460.7 185.55 C461.53 186.37 462.35 187.18 463.2 188.03 C468.13 192.93 472.82 197.95 477.33 203.24 C478.3 204.36 479.28 205.47 480.25 206.59 C486.65 213.98 492.86 221.5 498.81 229.26 C499.86 230.63 500.92 232 501.98 233.37 C554.98 301.88 592.91 382.09 621.88 525.57 C622.16 527.86 622.45 530.15 622.74 532.43 C625.38 552.9 625.83 573.14 625.77 593.75 C625.77 597.31 625.77 600.87 625.79 604.43 C626.33 687.9 608.65 772.03 561.33 873.24 C560.82 874.26 560.31 875.28 559.78 876.34 C549.37 897.11 537.55 917.14 524.33 936.24 C523.81 936.99 523.3 937.74 522.77 938.51 C514.38 950.77 505.6 962.64 496.33 974.24 C495.52 975.25 494.71 976.27 493.87 977.31 C484.65 988.7 475.05 999.73 465.03 1010.42 C463.13 1012.45 461.25 1014.48 459.37 1016.52 C452.97 1023.4 446.6 1030.16 439.49 1036.33 C437.3 1038.26 435.25 1040.28 433.2 1042.36 C429.41 1046.2 425.43 1049.73 421.33 1053.24 C420.29 1054.14 419.24 1055.05 418.2 1055.96 C410.11 1062.98 401.84 1069.72 393.33 1076.24 C392.72 1076.71 392.11 1077.18 391.48 1077.66 C373.76 1091.22 355.48 1103.78 336.33 1115.24 C335.56 1115.7 334.8 1116.16 334.01 1116.63 C266.66 1156.83 192.4 1183.58 114.77 1195.05 C113.53 1195.23 112.3 1195.42 111.03 1195.6 C107.64 1196.08 104.24 1196.52 100.84 1196.93 C99.05 1197.15 97.27 1197.38 95.49 1197.62 C74.02 1200.45 52.72 1200.74 31.09 1200.68 C27.22 1200.68 23.35 1200.68 19.48 1200.7 C-5.87 1200.85 -30.56 1199.73 -55.67 1196.24 C-56.67 1196.1 -57.67 1195.97 -58.7 1195.83 C-63.9 1195.14 -69.07 1194.36 -74.23 1193.49 C-74.98 1193.37 -75.72 1193.24 -76.48 1193.12 C-125.57 1184.95 -173.19 1170.36 -218.67 1150.24 C-219.64 1149.81 -220.62 1149.38 -221.62 1148.95 C-234.6 1143.24 -247.22 1137.02 -259.67 1130.24 C-260.41 1129.84 -261.14 1129.45 -261.9 1129.04 C-294.57 1111.44 -325.37 1090.33 -353.94 1066.67 C-356.43 1064.61 -358.96 1062.58 -361.48 1060.55 C-366.17 1056.72 -370.65 1052.69 -375.11 1048.59 C-377.35 1046.54 -379.62 1044.53 -381.92 1042.55 C-385.06 1039.83 -387.98 1036.95 -390.89 1033.98 C-392.74 1032.17 -394.65 1030.49 -396.61 1028.8 C-402.9 1023.36 -408.55 1017.46 -413.96 1011.16 C-415.59 1009.33 -417.28 1007.63 -419.05 1005.93 C-422.75 1002.28 -425.97 998.3 -429.23 994.25 C-431.34 991.65 -433.49 989.09 -435.66 986.54 C-450.89 968.74 -464.99 949.93 -477.67 930.24 C-478.13 929.53 -478.59 928.82 -479.07 928.08 C-530.19 849.08 -561.79 759.38 -575.19 602.86 C-575.17 600.25 -575.16 597.63 -575.16 595.01 C-575.07 570.66 -574.66 546.5 -570.99 522.37 C-570.66 520.15 -570.35 517.92 -570.04 515.69 C-565.25 481.23 -557.45 447.32 -546.67 414.24 C-546.27 413.01 -545.88 411.79 -545.46 410.53 C-524.71 347.37 -493.23 287.91 -452.67 235.24 C-452.21 234.64 -451.75 234.04 -451.27 233.42 C-442.24 221.66 -432.64 210.42 -422.67 199.45 C-420.88 197.47 -419.15 195.46 -417.42 193.43 C-412.63 187.91 -407.35 182.84 -402.16 177.71 C-398.74 174.33 -395.35 170.91 -391.96 167.5 C-390.6 166.12 -389.23 164.74 -387.86 163.36 C-387.19 162.68 -386.51 162 -385.82 161.3 C-381.27 156.73 -376.57 152.43 -371.67 148.24 C-370.55 147.26 -369.44 146.29 -368.32 145.32 C-360.83 138.83 -353.19 132.59 -345.35 126.54 C-343.76 125.31 -342.18 124.06 -340.61 122.82 C-309.3 98.31 -275.14 78.07 -239.67 60.24 C-238.65 59.72 -237.63 59.2 -236.58 58.67 C-201.47 40.94 -163.84 27.58 -125.72 18.01 C-122.72 17.25 -119.73 16.47 -116.74 15.69 C-87.84 8.3 -58.3 4.32 -28.67 1.24 C-28.01 1.15 -27.34 1.07 -26.66 0.98 C-17.81 -0.08 -8.9 0.03 0 0 Z M-41.61 20.99 C-42.35 21.07 -43.09 21.16 -43.85 21.25 C-73.33 24.7 -102.7 30.1 -131.18 38.51 C-134.06 39.35 -136.94 40.16 -139.82 40.98 C-183.91 53.55 -227.07 72.05 -266.67 95.24 C-267.56 95.76 -268.46 96.28 -269.38 96.82 C-294.68 111.73 -319.15 128.35 -341.67 147.24 C-343.5 148.72 -345.34 150.2 -347.17 151.68 C-351.88 155.53 -356.4 159.55 -360.87 163.68 C-363.06 165.68 -365.27 167.64 -367.51 169.59 C-371.6 173.16 -375.59 176.83 -379.55 180.55 C-380.24 181.2 -380.94 181.86 -381.65 182.53 C-388.98 189.44 -396.22 196.39 -402.77 204.05 C-404.68 206.25 -406.64 208.38 -408.62 210.51 C-413.35 215.61 -417.88 220.8 -422.24 226.22 C-424.03 228.44 -425.84 230.65 -427.66 232.85 C-477.69 293.32 -514.41 365.84 -535.67 441.24 C-535.96 442.25 -536.24 443.25 -536.53 444.29 C-543.89 470.71 -549.47 497.62 -552.4 524.89 C-552.76 528.02 -553.24 531.13 -553.73 534.24 C-556.48 553.44 -556.97 572.64 -556.88 592.01 C-556.86 596 -556.86 599.98 -556.86 603.97 C-556.83 625.14 -555.98 645.91 -553.42 666.93 C-553.31 667.84 -553.2 668.75 -553.09 669.68 C-551.42 683.51 -549.31 697.11 -546.24 710.7 C-545.71 713.08 -545.22 715.48 -544.75 717.88 C-535.53 764.83 -519.38 810.17 -498.67 853.24 C-498.22 854.19 -497.77 855.14 -497.3 856.12 C-490.19 870.95 -482.16 885.15 -473.67 899.24 C-473.12 900.16 -472.57 901.07 -472.01 902.02 C-461.54 919.43 -450.09 936.16 -437.67 952.24 C-437.04 953.05 -437.04 953.05 -436.4 953.88 C-427.6 965.29 -418.41 976.32 -408.71 986.98 C-406.89 989 -405.12 991.05 -403.36 993.11 C-399.76 997.26 -395.86 1001.1 -391.93 1004.94 C-388.94 1007.89 -386.29 1010.96 -383.67 1014.24 C-382.49 1015.34 -381.29 1016.4 -380.05 1017.43 C-376.76 1020.23 -373.7 1023.17 -370.67 1026.24 C-366.49 1030.45 -362.2 1034.41 -357.67 1038.24 C-356.72 1039.06 -355.76 1039.88 -354.78 1040.73 C-347.49 1046.97 -340.05 1053.01 -332.45 1058.86 C-330.75 1060.17 -329.07 1061.5 -327.39 1062.82 C-297.46 1086.11 -264.5 1105.28 -230.67 1122.24 C-229.75 1122.7 -228.82 1123.17 -227.87 1123.64 C-150.48 1162.22 -62.05 1181.82 24.27 1181.55 C25.51 1181.55 26.75 1181.55 28.04 1181.55 C47.27 1181.5 66.19 1180.88 85.28 1178.49 C87.44 1178.22 89.61 1177.97 91.77 1177.72 C114.22 1175.09 136.31 1171.32 158.33 1166.24 C158.98 1166.09 159.63 1165.94 160.3 1165.79 C201.49 1156.26 241.26 1141.54 279.33 1123.24 C280.28 1122.78 281.23 1122.33 282.21 1121.86 C320.69 1103.43 357.62 1079.66 390.33 1052.24 C392.14 1050.78 393.95 1049.32 395.77 1047.86 C400.87 1043.69 405.72 1039.28 410.55 1034.8 C412.84 1032.69 415.15 1030.64 417.52 1028.61 C421.23 1025.4 424.65 1021.93 428.1 1018.43 C430.15 1016.41 432.26 1014.54 434.45 1012.68 C437.78 1009.82 440.59 1006.75 443.41 1003.41 C445.62 1000.91 447.95 998.58 450.33 996.24 C454.54 992.06 458.48 987.76 462.33 983.24 C463.23 982.2 464.13 981.16 465.04 980.12 C472.07 972.03 478.8 963.75 485.33 955.24 C485.79 954.64 486.24 954.05 486.72 953.44 C500.23 935.85 512.86 917.7 524 898.52 C525.24 896.39 526.51 894.27 527.8 892.16 C570.16 822.25 594.29 742.16 603.33 661.24 C603.44 660.24 603.44 660.24 603.56 659.21 C612.61 577.96 602.55 494.84 553.33 356.24 C552.91 355.32 552.5 354.39 552.07 353.44 C531.52 307.97 503.51 265.29 471.33 227.24 C470.54 226.3 470.54 226.3 469.73 225.34 C460.92 214.89 451.9 204.67 442.15 195.09 C440.32 193.23 438.64 191.29 436.95 189.3 C433.54 185.33 429.74 181.92 425.81 178.46 C423.52 176.41 421.35 174.3 419.2 172.11 C415.41 168.28 411.43 164.75 407.33 161.24 C406.32 160.36 405.31 159.47 404.31 158.59 C395.95 151.29 387.29 144.48 378.42 137.82 C376.45 136.33 374.49 134.82 372.54 133.31 C330.56 101.03 282.78 75.08 233.33 56.24 C232.14 55.78 230.94 55.33 229.71 54.86 C208.93 47.03 187.8 40.9 166.33 35.24 C164.4 34.72 162.48 34.2 160.55 33.68 C137.21 27.49 113.27 24.13 89.33 21.24 C87.91 21.07 87.91 21.07 86.47 20.89 C66.69 18.53 46.98 18.07 27.07 18.11 C23.4 18.11 19.73 18.11 16.06 18.1 C-3.28 18.09 -22.39 18.72 -41.61 20.99 Z " fill="#CE142C" transform="translate(574.671875,-0.23828125)"/>
<path d="M0 0 C1.24 0 2.48 0 3.75 0 C21.43 0.02 38.92 0.26 56.5 2.19 C57.5 2.29 58.49 2.39 59.52 2.5 C85.03 5.13 110.62 8.89 135.5 15.19 C136.71 15.49 137.91 15.78 139.16 16.09 C222.06 36.63 300.83 74.03 366.75 128.74 C369.25 130.81 371.78 132.84 374.31 134.88 C379 138.71 383.48 142.74 387.94 146.85 C390.14 148.86 392.37 150.81 394.62 152.75 C398.36 155.99 401.81 159.48 405.28 163 C407.29 164.98 409.35 166.81 411.5 168.62 C415.44 172 418.8 175.76 422.21 179.65 C424.4 182.07 426.66 184.35 429 186.62 C433.09 190.66 436.67 194.97 440.26 199.45 C442.39 202.05 444.6 204.53 446.88 207 C451.92 212.56 456.53 218.41 461.09 224.36 C462.42 226.08 463.75 227.78 465.09 229.48 C482.08 251.3 497.11 275.03 510.5 299.19 C511.37 300.75 511.37 300.75 512.26 302.34 C520.77 317.63 528.55 333.13 535.5 349.19 C536.17 350.72 536.17 350.72 536.85 352.28 C567.75 423.9 583.69 502.27 583.75 580.25 C583.75 581.48 583.75 581.48 583.75 582.74 C583.64 668.69 564.12 753.58 524.5 837.19 C524.08 838.07 523.66 838.95 523.23 839.86 C516.44 854.1 508.62 867.67 500.5 881.19 C499.67 882.57 499.67 882.57 498.83 883.98 C476.43 921.24 449.38 956.85 418.29 987.36 C416.43 989.25 414.72 991.23 413 993.25 C410.1 996.62 406.99 999.47 403.6 1002.34 C401.3 1004.37 399.15 1006.5 397 1008.69 C392.99 1012.74 388.83 1016.49 384.5 1020.19 C383.49 1021.07 382.49 1021.95 381.48 1022.83 C373.17 1030.1 364.57 1036.9 355.73 1043.52 C353.51 1045.18 351.31 1046.85 349.11 1048.52 C277.33 1102.67 192.2 1138.13 38.5 1162.19 C37.58 1162.24 36.65 1162.3 35.7 1162.36 C-57.58 1167.81 -151.48 1150.36 -251.5 1105.19 C-252.49 1104.72 -253.47 1104.25 -254.49 1103.76 C-269.95 1096.33 -284.82 1088.06 -299.5 1079.19 C-300.26 1078.73 -301.01 1078.28 -301.8 1077.81 C-323.71 1064.54 -344.87 1049.65 -364.5 1033.19 C-366.33 1031.71 -368.17 1030.23 -370 1028.75 C-374.8 1024.83 -379.39 1020.72 -383.95 1016.52 C-386.12 1014.54 -388.32 1012.6 -390.56 1010.69 C-394.62 1007.17 -398.36 1003.36 -402.11 999.52 C-404.46 997.15 -404.46 997.15 -407.11 995.11 C-409.23 993.4 -410.84 991.78 -412.56 989.69 C-415.71 986 -419.05 982.59 -422.5 979.19 C-427.05 974.68 -431.36 970.08 -435.5 965.19 C-436.37 964.2 -437.24 963.2 -438.13 962.18 C-445.44 953.82 -452.26 945.16 -458.92 936.28 C-460.41 934.31 -461.91 932.35 -463.43 930.39 C-483.38 904.44 -500.3 876.14 -515.5 847.19 C-516.19 845.88 -516.19 845.88 -516.89 844.55 C-534.56 810.7 -547.88 774.82 -558.5 738.19 C-558.97 736.56 -558.97 736.56 -559.45 734.91 C-564.68 716.58 -568.14 698 -571.42 679.25 C-572.07 675.53 -572.77 671.82 -573.57 668.12 C-574.89 661.67 -575.57 655.12 -576.3 648.58 C-576.56 646.35 -576.82 644.12 -577.09 641.9 C-579.54 620.81 -579.74 599.71 -579.75 578.5 C-579.75 577.83 -579.75 577.16 -579.75 576.47 C-579.77 555.57 -579.36 534.92 -576.5 514.19 C-576.31 512.79 -576.31 512.79 -576.11 511.37 C-575.55 507.41 -574.93 503.48 -574.24 499.54 C-573.7 496.49 -573.25 493.44 -572.86 490.36 C-560.44 394.43 -517.08 300.68 -441.94 204.87 C-440.42 203.09 -438.9 201.3 -437.39 199.51 C-432.77 194.07 -428.19 188.69 -423.05 183.73 C-421.39 182.08 -419.89 180.35 -418.38 178.56 C-411.45 170.54 -403.79 162.97 -395.71 156.12 C-393.26 153.98 -390.89 151.76 -388.52 149.53 C-382.05 143.46 -375.43 137.73 -368.5 132.19 C-367.3 131.19 -366.09 130.2 -364.89 129.2 C-342.39 110.58 -317.87 93.69 -292.5 79.19 C-291.33 78.51 -290.16 77.83 -289 77.15 C-242.31 50.22 -192.81 30.05 -140.5 17.19 C-138.45 16.67 -136.4 16.16 -134.36 15.64 C-111.33 9.89 -88.31 5.76 -64.75 3 C-64.04 2.92 -63.33 2.83 -62.59 2.74 C-41.76 0.28 -20.96 -0.02 0 0 Z M-66.5 22.19 C-68.22 22.4 -68.22 22.4 -69.98 22.61 C-141 31.39 -211.35 54.8 -273.5 90.19 C-274.3 90.64 -275.1 91.09 -275.92 91.55 C-293.81 101.61 -311.32 112.38 -327.67 124.8 C-329.63 126.29 -331.61 127.76 -333.59 129.22 C-341.4 135.01 -349.05 140.93 -356.5 147.19 C-357.55 148.06 -358.59 148.93 -359.64 149.8 C-366.61 155.63 -373.37 161.65 -380.03 167.83 C-381.47 169.16 -382.93 170.48 -384.39 171.8 C-394.66 181.08 -404.9 190.66 -413.84 201.25 C-415.96 203.72 -418.17 206.1 -420.38 208.5 C-425.3 213.9 -429.94 219.48 -434.5 225.19 C-434.91 225.7 -435.32 226.2 -435.74 226.73 C-447.72 241.68 -459.1 257.08 -469.5 273.19 C-469.95 273.88 -470.4 274.57 -470.86 275.28 C-516.33 344.99 -545.48 424.78 -556.62 507.19 C-556.78 508.33 -556.94 509.47 -557.11 510.65 C-560.22 534.82 -560.88 559.16 -560.81 583.5 C-560.81 584.84 -560.81 586.17 -560.81 587.51 C-560.78 607.58 -560.05 627.27 -557.5 647.19 C-557.28 649.18 -557.06 651.18 -556.84 653.17 C-553.32 684.39 -546.61 716.51 -536.5 746.25 C-535.5 749.18 -534.53 752.12 -533.56 755.05 C-527.34 773.82 -520.58 792.13 -512.5 810.19 C-512.05 811.2 -511.61 812.22 -511.15 813.27 C-504.66 828 -497.44 842.18 -489.5 856.19 C-489.04 857.01 -488.58 857.82 -488.11 858.67 C-472.38 886.69 -454.08 913.81 -433.08 938.18 C-430.68 940.97 -428.37 943.82 -426.06 946.69 C-421.35 952.46 -416.33 957.92 -411.22 963.35 C-409.37 965.32 -407.54 967.31 -405.7 969.3 C-397.52 978.13 -389.1 986.56 -380.19 994.65 C-378.62 996.08 -377.06 997.52 -375.5 998.96 C-370.33 1003.73 -365.04 1008.31 -359.55 1012.72 C-357.32 1014.53 -355.1 1016.35 -352.88 1018.18 C-329.7 1037.36 -304.54 1054.14 -278.5 1069.19 C-277.43 1069.81 -277.43 1069.81 -276.34 1070.44 C-227.95 1098.43 -174.84 1119.19 -120.09 1130.63 C-117.54 1131.18 -115.01 1131.78 -112.47 1132.39 C-98.36 1135.68 -84.1 1137.58 -69.75 1139.44 C-68.25 1139.63 -68.25 1139.63 -66.73 1139.83 C-9.79 1147.24 49.37 1145.2 105.66 1133.95 C109.35 1133.22 113.04 1132.53 116.74 1131.86 C165.74 1122.63 213.07 1104.48 257.5 1082.19 C258.98 1081.44 258.98 1081.44 260.49 1080.69 C308.77 1056.32 354.84 1023.52 392.77 984.88 C394.5 983.19 394.5 983.19 397.56 980.69 C400.54 978.15 402.92 975.46 405.45 972.49 C407.86 969.78 410.42 967.23 413 964.69 C417.38 960.35 421.52 955.9 425.5 951.19 C426.32 950.23 427.14 949.28 427.98 948.3 C481.97 885.32 520.38 811.65 543.5 732.19 C543.73 731.42 543.96 730.64 544.19 729.85 C550.77 707.41 555.31 684.35 558.5 661.19 C558.62 660.29 558.75 659.4 558.88 658.48 C562.45 632.57 563.88 606.84 563.81 580.69 C563.81 579.32 563.81 577.94 563.81 576.57 C563.78 555.96 563.11 535.65 560.5 515.19 C560.36 513.96 560.21 512.72 560.06 511.45 C558.08 494.54 555.03 478 551.23 461.4 C550.55 458.4 549.89 455.4 549.25 452.39 C541.96 418.62 530.63 385.68 516.5 354.19 C515.99 353.04 515.47 351.89 514.94 350.7 C507.81 334.8 500.14 319.33 491.5 304.19 C490.88 303.09 490.88 303.09 490.25 301.97 C472.98 271.45 452.46 242.68 429.5 216.19 C428.87 215.45 428.23 214.72 427.58 213.96 C425.9 212.03 424.2 210.1 422.5 208.19 C421.86 207.47 421.22 206.75 420.57 206.01 C403.48 186.8 403.48 186.8 384.79 169.19 C382.44 167.13 380.15 165.01 377.87 162.88 C372.55 157.92 367.16 153.13 361.48 148.58 C359.27 146.81 357.08 145.01 354.89 143.2 C327.49 120.53 297.37 101.21 266 84.52 C263.77 83.33 261.56 82.12 259.36 80.89 C203.04 49.86 137.88 31.04 74.25 22.94 C73.07 22.79 71.89 22.64 70.67 22.48 C48 19.78 25.36 18.81 2.53 18.87 C0.46 18.88 -1.6 18.88 -3.67 18.88 C-24.75 18.91 -45.58 19.52 -66.5 22.19 Z " fill="#FEFCFC" transform="translate(597.5,17.8125)"/>
<path d="M0 0 C2.06 3.41 2.25 6.03 2.24 9.99 C2.24 11.82 2.24 11.82 2.25 13.7 C2.24 15.05 2.23 16.41 2.23 17.76 C2.23 19.19 2.23 20.62 2.23 22.05 C2.23 25.93 2.22 29.81 2.2 33.69 C2.19 37.74 2.19 41.79 2.19 45.85 C2.18 53.52 2.16 61.19 2.14 68.87 C2.12 79.24 2.11 89.61 2.1 99.98 C2.08 116.32 2.04 132.66 2 149 C-36.61 149 -75.22 149 -115 149 C-114.94 195.6 -114.94 195.6 -114.84 242.21 C-114.82 248.5 -114.81 254.79 -114.79 261.08 C-114.79 262.26 -114.79 262.26 -114.79 263.47 C-114.76 276.18 -114.74 288.88 -114.73 301.59 C-114.71 314.65 -114.69 327.7 -114.65 340.75 C-114.62 348.8 -114.61 356.85 -114.61 364.89 C-114.61 371.08 -114.59 377.26 -114.56 383.44 C-114.55 385.97 -114.55 388.5 -114.55 391.02 C-114.59 409.51 -113.96 425.16 -100.71 439.47 C-85.45 453.98 -69.62 456.08 -49.46 456.32 C-47.5 456.34 -47.5 456.34 -45.5 456.37 C-40.65 456.44 -35.79 456.5 -30.94 456.56 C-20.07 456.71 -9.2 456.85 2 457 C2 497.59 2 538.18 2 580 C-2.3 576.32 -6.33 572.8 -10.3 568.83 C-10.78 568.34 -11.27 567.85 -11.77 567.35 C-13.39 565.74 -15.01 564.12 -16.62 562.5 C-17.8 561.32 -18.98 560.14 -20.16 558.97 C-23.38 555.74 -26.6 552.52 -29.82 549.29 C-33.3 545.81 -36.78 542.33 -40.26 538.85 C-46.29 532.83 -52.31 526.8 -58.34 520.77 C-67.04 512.05 -75.76 503.34 -84.47 494.63 C-98.6 480.49 -112.73 466.35 -126.87 452.21 C-140.59 438.47 -154.32 424.74 -168.05 411.01 C-168.89 410.16 -169.74 409.31 -170.61 408.44 C-174.86 404.19 -179.1 399.95 -183.35 395.7 C-218.57 360.47 -253.79 325.24 -289 290 C-287.22 286.18 -284.82 283.54 -281.85 280.61 C-281.33 280.08 -280.8 279.56 -280.26 279.01 C-278.53 277.28 -276.79 275.55 -275.05 273.82 C-273.84 272.61 -272.63 271.4 -271.42 270.19 C-268.88 267.65 -266.34 265.12 -263.79 262.58 C-260.54 259.35 -257.3 256.12 -254.07 252.88 C-251.56 250.38 -249.06 247.88 -246.55 245.38 C-245.36 244.19 -244.16 243 -242.97 241.8 C-241.29 240.13 -239.61 238.45 -237.93 236.78 C-237.44 236.3 -236.96 235.81 -236.46 235.32 C-233.77 232.65 -231 230.11 -228.12 227.63 C-223.94 223.99 -220.01 220.14 -216.1 216.22 C-215.36 215.47 -214.61 214.73 -213.85 213.96 C-211.41 211.53 -208.98 209.09 -206.55 206.65 C-204.85 204.94 -203.15 203.24 -201.44 201.54 C-196.98 197.06 -192.51 192.59 -188.05 188.12 C-183.51 183.57 -178.96 179.02 -174.42 174.47 C-167.08 167.12 -159.75 159.78 -152.42 152.43 C-142.79 142.78 -142.79 142.78 -139.35 139.39 C-138.45 138.5 -137.55 137.61 -136.62 136.69 C-135.73 135.8 -134.84 134.92 -133.91 134.01 C-131.86 131.93 -129.94 129.78 -128.05 127.55 C-122.84 121.55 -117.15 116 -111.52 110.39 C-109.57 108.44 -107.62 106.49 -105.67 104.53 C-104.41 103.27 -103.14 102.01 -101.88 100.75 C-101.31 100.17 -100.74 99.6 -100.15 99.01 C-97.3 96.17 -94.4 93.45 -91.34 90.84 C-86.73 86.82 -82.42 82.55 -78.11 78.22 C-76.83 76.94 -76.83 76.94 -75.53 75.64 C-73.23 73.34 -70.92 71.03 -68.62 68.72 C-66.21 66.3 -63.79 63.88 -61.37 61.46 C-56.8 56.89 -52.24 52.32 -47.68 47.75 C-42.48 42.54 -37.27 37.33 -32.07 32.12 C-21.38 21.42 -10.69 10.71 0 0 Z " fill="#FEB702" transform="translate(561,310)"/>
<path d="M0 0 C-5.38 6.48 -11.28 12.34 -17.28 18.24 C-18.04 18.99 -18.8 19.75 -19.59 20.53 C-20.27 21.19 -20.95 21.86 -21.65 22.55 C-23.48 24.46 -25.18 26.38 -26.89 28.39 C-32.02 34.27 -37.58 39.73 -43.1 45.24 C-44.33 46.47 -45.56 47.7 -46.79 48.93 C-50.16 52.3 -53.52 55.67 -56.89 59.04 C-60.53 62.67 -64.16 66.31 -67.8 69.95 C-74.91 77.07 -82.03 84.19 -89.14 91.31 C-94.92 97.09 -100.7 102.87 -106.48 108.66 C-122.87 125.05 -139.25 141.44 -155.64 157.82 C-156.52 158.7 -157.4 159.59 -158.31 160.5 C-159.19 161.38 -160.08 162.26 -160.99 163.17 C-175.34 177.52 -189.68 191.87 -204.02 206.23 C-218.74 220.96 -233.47 235.7 -248.19 250.42 C-256.46 258.69 -264.73 266.97 -273 275.24 C-280.03 282.28 -287.06 289.32 -294.1 296.35 C-297.7 299.94 -301.29 303.53 -304.88 307.13 C-308.15 310.41 -311.44 313.7 -314.72 316.97 C-315.92 318.17 -317.11 319.36 -318.3 320.55 C-319.91 322.17 -321.52 323.78 -323.14 325.38 C-324.03 326.28 -324.93 327.18 -325.86 328.1 C-328 330 -328 330 -330 330 C-330 330.66 -330 331.32 -330 332 C-330.66 332 -331.32 332 -332 332 C-332 332.66 -332 333.32 -332 334 C-333.33 335.3 -333.33 335.3 -335.25 336.88 C-339.16 340.19 -342.82 343.69 -346.44 347.31 C-346.97 347.84 -347.5 348.37 -348.05 348.91 C-350.87 351.69 -350.87 351.69 -353 355 C-353.66 355 -354.32 355 -355 355 C-356.01 317.45 -348.92 279.73 -337.31 244.12 C-337.04 243.28 -336.77 242.44 -336.48 241.57 C-336.22 240.79 -335.95 240 -335.68 239.2 C-335.45 238.53 -335.22 237.86 -334.99 237.16 C-331.93 230.44 -326.94 225.64 -321.78 220.49 C-320.94 219.65 -320.11 218.81 -319.25 217.94 C-316.93 215.61 -314.62 213.28 -312.3 210.96 C-309.79 208.45 -307.29 205.94 -304.79 203.42 C-298.76 197.36 -292.72 191.3 -286.68 185.24 C-283.83 182.39 -280.99 179.53 -278.14 176.68 C-268.67 167.18 -259.2 157.68 -249.72 148.19 C-249.11 147.58 -248.5 146.98 -247.88 146.35 C-247.27 145.74 -246.66 145.13 -246.04 144.51 C-244.81 143.27 -243.58 142.04 -242.34 140.81 C-241.73 140.2 -241.12 139.59 -240.49 138.96 C-230.6 129.05 -220.73 119.13 -210.86 109.21 C-200.71 99.01 -190.56 88.82 -180.39 78.65 C-174.68 72.94 -168.98 67.22 -163.3 61.5 C-158.46 56.62 -153.6 51.75 -148.73 46.9 C-146.25 44.43 -143.78 41.95 -141.32 39.45 C-138.64 36.75 -135.94 34.06 -133.24 31.38 C-132.09 30.21 -132.09 30.21 -130.92 29.01 C-125.25 23.45 -119.47 20.6 -112 18 C-110.85 17.6 -109.71 17.19 -108.52 16.78 C-107.6 16.5 -106.68 16.22 -105.73 15.94 C-104.67 15.62 -103.61 15.3 -102.51 14.97 C-101.42 14.65 -100.32 14.33 -99.19 14 C-98.02 13.66 -96.85 13.32 -95.65 12.96 C-64.39 3.97 -32.53 -0.64 0 0 Z " fill="#CF0D2A" transform="translate(597,243)"/>
<path d="M0 0 C0.45 11.72 -0.78 23.36 -2 35 C-2.18 36.7 -2.18 36.7 -2.36 38.43 C-4.6 59.06 -8.64 78.98 -14 99 C-14.32 100.2 -14.64 101.4 -14.97 102.64 C-15.87 105.9 -16.82 109.14 -17.81 112.38 C-18.07 113.29 -18.33 114.2 -18.59 115.14 C-23.64 130.53 -41.11 143.29 -52.23 154.46 C-53.67 155.91 -55.11 157.35 -56.55 158.8 C-63.35 165.64 -70.16 172.48 -76.96 179.31 C-77.5 179.85 -78.04 180.39 -78.6 180.94 C-89.3 191.69 -100.01 202.44 -110.73 213.17 C-113.07 215.52 -115.42 217.88 -117.77 220.23 C-118.35 220.81 -118.93 221.39 -119.53 222 C-128.99 231.47 -138.43 240.96 -147.87 250.46 C-157.58 260.24 -167.31 270 -177.05 279.75 C-182.51 285.21 -187.96 290.68 -193.4 296.17 C-198.02 300.84 -202.66 305.49 -207.31 310.13 C-209.68 312.49 -212.05 314.86 -214.4 317.25 C-216.95 319.83 -219.53 322.4 -222.11 324.96 C-223.21 326.08 -223.21 326.08 -224.32 327.23 C-231.51 334.27 -240.13 337.39 -249.7 340.1 C-250.84 340.42 -251.97 340.75 -253.14 341.08 C-254.31 341.4 -255.48 341.73 -256.69 342.06 C-257.93 342.41 -259.17 342.76 -260.45 343.11 C-263.96 344.09 -267.48 345.04 -271 346 C-272.19 346.33 -272.19 346.33 -273.39 346.67 C-283.83 349.57 -294.5 351.09 -305.19 352.69 C-306.28 352.85 -306.28 352.85 -307.39 353.02 C-320.53 354.97 -333.57 356.2 -346.88 356.06 C-347.77 356.06 -348.66 356.05 -349.57 356.05 C-351.72 356.04 -353.86 356.02 -356 356 C-352.12 351.36 -348.1 346.95 -343.81 342.69 C-343.22 342.09 -342.62 341.49 -342.01 340.88 C-340.02 338.89 -338.03 336.9 -336.04 334.91 C-334.59 333.46 -333.15 332.02 -331.7 330.57 C-327.74 326.61 -323.78 322.64 -319.81 318.68 C-315.53 314.41 -311.26 310.13 -306.98 305.85 C-299.1 297.96 -291.21 290.07 -283.32 282.18 C-276.03 274.9 -268.74 267.61 -261.46 260.32 C-260.97 259.84 -260.49 259.36 -259.99 258.86 C-258.03 256.9 -256.07 254.94 -254.11 252.97 C-235.71 234.58 -217.32 216.18 -198.92 197.79 C-182.56 181.44 -166.21 165.08 -149.85 148.72 C-131.49 130.35 -113.12 111.98 -94.74 93.61 C-92.79 91.65 -90.83 89.7 -88.87 87.74 C-88.39 87.26 -87.91 86.78 -87.41 86.28 C-80.13 78.99 -72.84 71.71 -65.56 64.42 C-57.28 56.14 -49 47.86 -40.72 39.59 C-36.5 35.36 -32.27 31.14 -28.04 26.91 C-24.18 23.05 -20.32 19.18 -16.45 15.33 C-15.05 13.92 -13.65 12.52 -12.24 11.11 C-10.35 9.22 -8.45 7.32 -6.56 5.43 C-6 4.87 -5.45 4.32 -4.87 3.74 C-1.11 0 -1.11 0 0 0 Z " fill="#CF0C29" transform="translate(956,600)"/>
<path d="M0 0 C0 94.71 0 189.42 0 287 C-4.53 283.12 -8.86 279.29 -13.04 275.08 C-13.61 274.51 -14.17 273.95 -14.76 273.37 C-16.63 271.49 -18.5 269.62 -20.37 267.74 C-21.72 266.39 -23.07 265.04 -24.42 263.69 C-28.08 260.04 -31.73 256.38 -35.37 252.73 C-39.19 248.9 -43.02 245.08 -46.84 241.26 C-54.07 234.02 -61.29 226.79 -68.52 219.55 C-76.75 211.31 -84.98 203.07 -93.22 194.83 C-110.15 177.89 -127.08 160.95 -144 144 C-142.22 140.18 -139.82 137.54 -136.85 134.61 C-136.33 134.08 -135.8 133.56 -135.26 133.01 C-133.53 131.28 -131.79 129.55 -130.05 127.82 C-128.84 126.61 -127.63 125.4 -126.42 124.19 C-123.88 121.65 -121.34 119.12 -118.79 116.58 C-115.54 113.35 -112.3 110.12 -109.07 106.88 C-106.56 104.38 -104.06 101.88 -101.55 99.38 C-100.36 98.19 -99.16 97 -97.97 95.8 C-96.29 94.13 -94.61 92.45 -92.93 90.78 C-92.44 90.3 -91.96 89.81 -91.46 89.32 C-88.77 86.65 -86 84.11 -83.13 81.64 C-78.88 77.95 -74.91 74.04 -70.95 70.05 C-70.19 69.28 -69.43 68.52 -68.64 67.74 C-67.01 66.1 -65.37 64.46 -63.74 62.81 C-61.16 60.22 -58.57 57.63 -55.99 55.04 C-50.51 49.55 -45.04 44.06 -39.56 38.56 C-33.2 32.17 -26.83 25.78 -20.45 19.4 C-17.9 16.84 -15.35 14.28 -12.8 11.71 C-11.25 10.16 -9.7 8.6 -8.15 7.05 C-7.43 6.33 -6.72 5.61 -5.99 4.87 C-5.34 4.23 -4.69 3.58 -4.03 2.91 C-3.46 2.35 -2.9 1.78 -2.32 1.2 C-1 0 -1 0 0 0 Z " fill="#CF0C29" transform="translate(416,456)"/>
<path d="M0 0 C4.52 3.87 8.83 7.69 13 11.88 C13.57 12.45 14.13 13.01 14.71 13.58 C16.57 15.44 18.42 17.3 20.28 19.17 C21.62 20.51 22.96 21.85 24.3 23.19 C27.93 26.81 31.55 30.44 35.17 34.07 C38.96 37.87 42.76 41.66 46.55 45.46 C53.73 52.64 60.9 59.82 68.08 67 C76.25 75.19 84.42 83.36 92.59 91.54 C109.4 108.36 126.2 125.18 143 142 C139.21 146.52 135.3 150.84 131.12 155 C130.56 155.57 130 156.13 129.43 156.71 C127.57 158.57 125.71 160.42 123.85 162.28 C122.51 163.62 121.17 164.96 119.83 166.3 C116.21 169.93 112.59 173.55 108.96 177.17 C105.17 180.96 101.38 184.76 97.58 188.55 C91.22 194.91 84.86 201.27 78.5 207.63 C71.13 215 63.77 222.36 56.4 229.73 C50.08 236.05 43.76 242.38 37.44 248.7 C33.66 252.47 29.88 256.25 26.11 260.03 C22.57 263.57 19.02 267.12 15.47 270.66 C14.17 271.96 12.86 273.27 11.56 274.57 C9.79 276.34 8.02 278.11 6.24 279.88 C5.46 280.67 5.46 280.67 4.66 281.47 C1.11 285 1.11 285 0 285 C0 190.95 0 96.9 0 0 Z " fill="#CF0C29" transform="translate(783,457)"/>
<path d="M0 0 C18 0 18 0 24 4 C28.44 8.9 28.15 14.07 28.21 20.42 C28.24 22.1 28.27 23.79 28.3 25.47 C28.34 28.11 28.37 30.74 28.4 33.38 C28.43 35.94 28.48 38.49 28.52 41.05 C28.53 41.82 28.53 42.6 28.53 43.4 C28.68 50.1 30 55.64 34.44 60.88 C39.94 65.43 44.46 65.49 51.5 65.38 C56.36 64.85 59.49 63.36 63 60 C67.5 54.34 67.14 47.51 67.21 40.57 C67.24 38.93 67.27 37.3 67.3 35.66 C67.34 33.11 67.38 30.56 67.4 28.01 C67.43 25.53 67.47 23.05 67.52 20.57 C67.53 19.81 67.53 19.06 67.53 18.28 C67.65 13.16 68.62 9.55 71 5 C76.61 -0.2 80.41 -0.21 87.75 -0.25 C89.09 -0.28 89.09 -0.28 90.46 -0.31 C95.74 -0.34 99.44 0.03 104 3 C108.27 7.72 108.16 12.42 108.21 18.51 C108.24 20.23 108.27 21.96 108.3 23.69 C108.34 26.4 108.37 29.11 108.4 31.82 C108.43 34.45 108.48 37.07 108.52 39.7 C108.53 40.49 108.53 41.29 108.53 42.11 C108.67 48.47 109.68 54.95 113.61 60.12 C119.78 64.9 124.62 66.6 132.46 65.61 C137.45 64.41 141.23 61.71 144.88 58.19 C148.02 52.07 148.28 45.63 148.27 38.9 C148.29 37.17 148.31 35.45 148.34 33.73 C148.36 31.04 148.38 28.36 148.38 25.68 C148.39 23.06 148.42 20.45 148.46 17.84 C148.46 17.04 148.45 16.24 148.45 15.42 C148.54 10.16 149.56 7.2 153 3 C157.46 -0.88 162.32 -0.45 167.94 -0.38 C169.26 -0.39 169.26 -0.39 170.61 -0.41 C175.82 -0.39 179.5 0.09 184 3 C189.41 8.55 189.14 14.1 189.21 21.52 C189.24 23.2 189.27 24.88 189.3 26.56 C189.34 29.18 189.37 31.81 189.4 34.44 C189.43 36.98 189.48 39.53 189.52 42.08 C189.53 43.24 189.53 43.24 189.53 44.43 C189.68 50.82 190.68 56.74 195.44 61.38 C201.96 65.51 207.3 65.72 215 65 C219.08 63.99 221.89 62.58 224.34 59.09 C227.61 52.87 228.15 47.26 228.21 40.29 C228.24 38.55 228.27 36.82 228.3 35.08 C228.34 32.35 228.38 29.62 228.4 26.9 C228.43 24.26 228.47 21.62 228.52 18.98 C228.53 18.17 228.53 17.36 228.53 16.52 C228.64 11.66 229.1 8.08 232 4 C239 0 239 0 257 0 C257 19.47 257 38.94 257 59 C252.71 59 248.42 59 244 59 C237.61 61.36 234.08 63.94 230.92 70.11 C229.67 74.03 229.68 77.68 229.66 81.77 C229.63 83.04 229.63 83.04 229.61 84.32 C229.57 87.01 229.53 89.69 229.5 92.38 C229.46 95.9 229.4 99.43 229.34 102.96 C229.34 103.76 229.33 104.56 229.33 105.39 C229.23 110.7 229.06 116.44 225.6 120.74 C220.37 124.6 216.59 125.18 210.25 125.19 C209.56 125.2 208.87 125.21 208.16 125.22 C202.07 125.24 196.87 124.62 192.12 120.5 C188.45 116.18 188.82 112.54 188.75 107.08 C188.72 105.25 188.69 103.42 188.65 101.59 C188.61 98.71 188.56 95.82 188.52 92.94 C188.48 90.15 188.43 87.37 188.38 84.58 C188.37 83.3 188.37 83.3 188.35 81.99 C188.2 74.66 187.42 68.42 182 63 C176.21 59.62 170.73 58.01 164 59 C158.65 60.72 154.17 62.78 151.44 67.88 C148.74 74.05 148.86 80.94 148.82 87.57 C148.8 89.2 148.78 90.84 148.75 92.47 C148.72 95.02 148.69 97.57 148.67 100.12 C148.66 102.61 148.62 105.09 148.57 107.57 C148.58 108.32 148.58 109.08 148.58 109.86 C148.46 114.98 147.39 117.95 144 122 C138.8 124.99 134.33 125.47 128.5 125.38 C127.78 125.39 127.06 125.4 126.32 125.41 C120.12 125.38 115.2 124.14 110.62 119.69 C107.4 114.35 107.84 108.16 107.79 102.09 C107.76 100.36 107.73 98.63 107.7 96.9 C107.66 94.2 107.62 91.49 107.6 88.79 C107.57 86.16 107.53 83.53 107.48 80.91 C107.47 80.1 107.47 79.3 107.47 78.47 C107.33 72.04 105.91 67.87 101.19 63.25 C95.47 59.21 89.89 58.06 83 59 C77.74 60.71 73.9 63.2 71 68 C69.07 73.51 68.72 78.41 68.73 84.22 C68.71 86 68.69 87.77 68.66 89.54 C68.64 92.31 68.62 95.07 68.62 97.84 C68.61 100.53 68.58 103.22 68.54 105.91 C68.54 106.73 68.55 107.55 68.55 108.4 C68.46 113.73 67.5 116.75 64 121 C59.07 125.33 54.43 125.21 48.19 125.25 C47.39 125.27 46.6 125.29 45.78 125.31 C39.61 125.35 35.52 124.11 30.69 120.06 C28.13 116.93 27.88 113.94 27.84 109.99 C27.83 109.21 27.82 108.43 27.81 107.63 C27.8 106.8 27.8 105.96 27.79 105.11 C27.76 103.33 27.73 101.55 27.7 99.77 C27.66 96.98 27.63 94.19 27.6 91.4 C27.57 88.7 27.53 85.99 27.48 83.29 C27.47 82.47 27.47 81.64 27.47 80.79 C27.33 74.2 26 69.52 21.81 64.25 C14.77 58.62 9.43 59 0 59 C0 39.53 0 20.06 0 0 Z " fill="#FEFCFC" transform="translate(471,550)"/>
<path d="M0 0 C101.31 0 202.62 0 307 0 C307.06 63.48 307.06 63.48 307.12 128.25 C307.14 141.61 307.16 154.97 307.18 168.74 C307.19 185.06 307.19 185.06 307.19 192.7 C307.19 198.04 307.2 203.37 307.21 208.7 C307.23 215.51 307.23 222.32 307.23 229.13 C307.23 231.63 307.23 234.13 307.24 236.62 C307.25 240 307.25 243.38 307.24 246.76 C307.25 247.73 307.25 248.7 307.26 249.7 C307.22 259.55 306.16 269.23 301.56 278.06 C301.22 278.74 300.87 279.41 300.51 280.11 C293.78 292.48 282.66 300.81 269.62 305.88 C259.16 308.82 247.67 308.12 236.89 308.05 C233.07 308.03 229.25 308.04 225.42 308.05 C220.6 308.06 215.79 308.07 210.97 308.02 C207.03 307.99 203.09 308 199.15 308.03 C197.67 308.03 196.18 308.02 194.7 308 C184.25 307.84 177.81 309.8 170 317 C168.98 317.91 168.98 317.91 167.93 318.83 C165.73 320.81 163.63 322.88 161.52 324.95 C158.52 327.82 155.99 329.78 152 331 C151.11 330.18 151.11 330.18 150.2 329.35 C143.97 323.68 137.57 318.28 131 313 C130.27 312.31 129.55 311.62 128.8 310.9 C125.2 308.46 122.98 308.5 118.65 308.49 C117.92 308.48 117.2 308.47 116.46 308.46 C114.07 308.44 111.69 308.45 109.31 308.46 C107.64 308.45 105.97 308.44 104.3 308.43 C99.91 308.39 95.52 308.38 91.13 308.38 C84.12 308.37 77.11 308.33 70.11 308.29 C67.68 308.27 65.25 308.27 62.82 308.28 C44.15 308.23 28.33 304.92 14.25 291.75 C-0.53 275.8 -0.58 258.82 -0.45 238.29 C-0.45 235.64 -0.45 233 -0.46 230.36 C-0.46 224.01 -0.44 217.67 -0.41 211.33 C-0.38 203.98 -0.38 196.64 -0.38 189.29 C-0.36 169.92 -0.3 150.56 -0.25 131.19 C-0.17 87.9 -0.08 44.6 0 0 Z M12 12 C11.94 52.88 11.88 93.76 11.81 135.88 C11.79 148.78 11.76 161.69 11.73 174.99 C11.72 186.56 11.72 186.56 11.71 198.13 C11.71 203.28 11.7 208.44 11.68 213.59 C11.66 220.17 11.66 226.74 11.66 233.32 C11.66 235.73 11.65 238.14 11.64 240.56 C11.63 243.82 11.63 247.08 11.64 250.34 C11.63 251.75 11.63 251.75 11.61 253.19 C11.7 265.77 16.25 275.01 24.62 284.19 C32.47 291.76 41.85 295.15 52.53 295.14 C53.28 295.15 54.04 295.15 54.81 295.15 C56.45 295.16 58.08 295.17 59.72 295.17 C62.31 295.18 64.91 295.19 67.5 295.21 C74.88 295.26 82.26 295.31 89.64 295.33 C94.16 295.34 98.67 295.37 103.19 295.41 C104.9 295.42 106.62 295.42 108.33 295.42 C119.89 295.41 131.13 295.54 139.99 304.07 C140.45 304.54 140.9 305.01 141.38 305.5 C144.79 308.86 148.2 312.07 152 315 C154.76 313.72 156.94 312.35 159.21 310.32 C159.79 309.8 160.38 309.29 160.99 308.75 C162.19 307.68 163.4 306.6 164.6 305.52 C173.45 297.75 180.93 295.9 192.63 295.84 C193.35 295.84 194.07 295.83 194.81 295.83 C196.35 295.82 197.89 295.81 199.43 295.8 C201.88 295.79 204.33 295.77 206.77 295.75 C213.73 295.69 220.69 295.63 227.64 295.6 C231.91 295.58 236.18 295.54 240.45 295.5 C242.07 295.48 243.68 295.48 245.3 295.47 C259.32 295.44 271.46 293.81 282.23 283.96 C292.23 273.35 295.33 261.84 295.24 247.58 C295.24 246.57 295.24 245.56 295.25 244.52 C295.25 241.14 295.24 237.77 295.23 234.4 C295.23 231.93 295.23 229.47 295.23 227 C295.23 221.08 295.22 215.16 295.21 209.24 C295.19 202.39 295.19 195.54 295.19 188.68 C295.18 170.6 295.15 152.52 295.12 134.44 C295.08 94.03 295.04 53.63 295 12 C201.61 12 108.22 12 12 12 Z " fill="#FEFCFC" transform="translate(446,459)"/>
<path d="M0 0 C14.29 11.62 22.71 26.47 25.39 44.77 C26.84 62.16 22.94 79.55 12.21 93.62 C10.03 96.11 7.76 98.45 5.39 100.77 C4.77 101.4 4.16 102.04 3.53 102.69 C-10.03 115.78 -28.75 119.35 -46.88 119.04 C-64.02 118.34 -78.63 110.9 -90.61 98.77 C-91.25 98.15 -91.89 97.54 -92.54 96.91 C-103.71 85.32 -109.32 67.65 -109.09 51.82 C-108.25 33.6 -100.57 16.26 -87.38 3.62 C-63.6 -16.73 -25.3 -19.31 0 0 Z " fill="#FEFDFD" transform="translate(668.61474609375,78.232421875)"/>
<path d="M0 0 C15.49 7.55 30.89 20.05 38 36 C44.63 57.45 41.43 83.17 40.45 105.26 C39.99 115.74 39.81 126.22 39.62 136.71 C39.3 153.15 38.62 169.56 38 186 C13.91 186 -10.18 186 -35 186 C-36.7 149.83 -36.7 149.83 -37.11 134.44 C-37.4 123.89 -37.72 113.34 -38.29 102.8 C-41.7 38.89 -41.7 38.89 -25.46 20.41 C-17.84 12.5 -9.26 5.87 0 0 Z " fill="#FEB700" transform="translate(598,273)"/>
<path d="M0 0 C2.4 -0.03 4.8 -0.06 7.2 -0.08 C7.88 -0.09 8.55 -0.1 9.25 -0.11 C14.64 -0.14 18.27 0.46 23 3 C30.63 11.66 28.37 26.89 28.46 37.72 C28.48 40.11 28.52 42.5 28.56 44.89 C28.56 45.62 28.56 46.34 28.56 47.09 C28.65 51.79 29.52 55.01 32 59 C37.03 63.81 40.9 66.05 47.81 66.38 C54.26 66.23 58.78 64.16 63.38 59.69 C67.04 53.62 67.29 47.64 67.31 40.74 C67.33 38.96 67.36 37.19 67.38 35.41 C67.41 32.63 67.44 29.86 67.46 27.08 C67.48 24.39 67.52 21.69 67.56 18.99 C67.56 18.17 67.56 17.34 67.56 16.49 C67.64 11.83 68.02 8.8 71 5 C77.03 -0.43 82.36 -0.35 90.18 -0.21 C96.35 0.13 100.97 1.07 105.5 5.38 C108.41 10.47 108.16 15.81 108.21 21.55 C108.24 23.24 108.27 24.92 108.3 26.61 C108.34 29.24 108.38 31.88 108.4 34.51 C108.43 37.07 108.47 39.62 108.52 42.18 C108.53 42.96 108.53 43.74 108.53 44.54 C108.68 51 110.06 55.69 114.31 60.75 C119.27 64.9 123.28 66.54 129.7 66.28 C134.97 65.64 139.27 64.21 142.88 60.19 C146.88 54.19 147.29 48.87 147.31 41.88 C147.33 40.1 147.36 38.32 147.38 36.55 C147.41 33.77 147.44 30.99 147.46 28.21 C147.48 25.52 147.52 22.82 147.56 20.12 C147.56 19.3 147.56 18.47 147.56 17.62 C147.64 12.69 148.29 9.29 151 5 C156.18 0.21 160.42 -0.2 167.25 -0.25 C167.99 -0.27 168.73 -0.29 169.49 -0.31 C175.76 -0.36 180.46 0.86 185.38 5 C188.63 9 188.17 13.35 188.21 18.25 C188.24 19.93 188.27 21.61 188.3 23.28 C188.34 25.91 188.37 28.54 188.4 31.18 C188.08 46.95 188.08 46.95 194.31 60.94 C199.58 64.98 203.7 66.63 210.33 66.42 C216 65.53 221.12 63.06 225 58.81 C228.92 47.79 228.35 36.25 228.38 24.71 C228.39 22.25 228.42 19.79 228.46 17.33 C228.46 16.58 228.45 15.83 228.45 15.06 C228.54 9.9 229.53 6.85 233 3 C238.22 -0.02 242.59 -0.4 248.44 -0.19 C249.17 -0.17 249.9 -0.16 250.65 -0.15 C252.44 -0.11 254.22 -0.06 256 0 C256.09 7.68 256.16 15.37 256.21 23.05 C256.23 26.62 256.26 30.19 256.3 33.76 C256.35 37.21 256.37 40.66 256.38 44.11 C256.39 46.06 256.42 48 256.45 49.95 C256.46 57.62 256.06 63.65 250.59 69.51 C245.25 74.28 240.63 75.25 233.62 75.29 C232.89 75.29 232.17 75.3 231.42 75.31 C229.85 75.32 228.27 75.33 226.7 75.34 C224.2 75.34 221.69 75.36 219.19 75.39 C213.85 75.44 208.52 75.47 203.19 75.5 C197.04 75.54 190.89 75.58 184.74 75.64 C182.3 75.66 179.86 75.66 177.42 75.67 C158.22 75.53 158.22 75.53 140.31 81.38 C138.67 82.25 138.67 82.25 136.99 83.15 C134.13 84.92 131.57 86.84 129 89 C126.01 87.57 123.28 85.92 120.5 84.12 C111.02 78.38 100.94 75.85 89.94 75.86 C89.14 75.85 88.35 75.85 87.52 75.85 C85.8 75.84 84.07 75.83 82.34 75.83 C79.61 75.82 76.87 75.81 74.13 75.79 C66.35 75.74 58.57 75.69 50.79 75.67 C46.03 75.66 41.26 75.63 36.5 75.59 C34.69 75.58 32.87 75.58 31.06 75.58 C28.53 75.58 25.99 75.56 23.45 75.53 C22.71 75.54 21.97 75.54 21.21 75.55 C15.2 75.44 10 73.69 5.47 69.62 C0.99 64.63 -0.26 59.47 -0.23 52.9 C-0.23 51.72 -0.23 50.54 -0.23 49.32 C-0.22 48.07 -0.21 46.81 -0.2 45.51 C-0.19 44.21 -0.19 42.91 -0.19 41.57 C-0.18 38.12 -0.16 34.68 -0.14 31.24 C-0.12 27.72 -0.11 24.2 -0.1 20.68 C-0.08 13.79 -0.04 6.89 0 0 Z " fill="#FEFDFD" transform="translate(471,665)"/>
<path d="M0 0 C84.48 0 168.96 0 256 0 C256 2.97 256 5.94 256 9 C255.13 9.04 254.26 9.07 253.37 9.11 C245.53 9.56 240.33 10.12 234.25 15.38 C229.95 20.4 229.7 25.09 229.66 31.52 C229.63 32.75 229.63 32.75 229.61 34 C229.57 36.6 229.53 39.21 229.5 41.81 C229.46 45.24 229.4 48.66 229.34 52.08 C229.34 52.86 229.33 53.63 229.33 54.43 C229.21 60.83 228.77 66.81 224.62 71.94 C219.65 75.85 214.15 75.22 208.06 75.25 C207.17 75.27 206.27 75.29 205.35 75.31 C199.29 75.35 195.93 74.51 191.25 70.5 C188.2 66.84 188.81 62.21 188.75 57.71 C188.72 56.03 188.69 54.35 188.65 52.67 C188.61 50.03 188.56 47.39 188.52 44.75 C188.48 42.19 188.43 39.64 188.38 37.09 C188.37 35.92 188.37 35.92 188.35 34.74 C188.21 28.17 187.89 21 183.75 15.62 C178.89 10.99 175.28 9.79 168.62 9.5 C162.56 9.66 158.38 10.7 154 15 C149.07 21.33 148.86 27.9 148.75 35.62 C148.72 37.32 148.69 39.01 148.65 40.7 C148.61 43.36 148.56 46.01 148.52 48.66 C148.48 51.23 148.43 53.8 148.38 56.38 C148.37 57.16 148.36 57.95 148.35 58.77 C148.23 64.22 147.64 68.03 144.12 72.25 C139.48 76.07 133.36 75.25 127.62 75.31 C126.69 75.34 125.76 75.37 124.8 75.4 C119.01 75.45 115.52 74.99 111 71 C107.42 65.63 107.85 59.6 107.79 53.35 C107.76 51.67 107.73 49.99 107.7 48.31 C107.66 45.68 107.62 43.06 107.6 40.43 C107.57 37.88 107.53 35.33 107.48 32.79 C107.47 32.01 107.47 31.23 107.47 30.43 C107.32 23.95 105.89 19.3 101.69 14.19 C96.5 9.97 91.27 9.5 84.76 9.61 C80.4 10.23 77.33 12.21 74 15 C73.47 15.43 72.95 15.85 72.41 16.29 C68.53 21 68.7 26.88 68.66 32.65 C68.64 33.47 68.63 34.29 68.61 35.13 C68.57 37.73 68.53 40.34 68.5 42.94 C68.46 46.36 68.4 49.79 68.34 53.21 C68.34 53.99 68.33 54.77 68.33 55.57 C68.22 61.74 67.69 67.06 63.5 71.88 C58.72 75.94 54.31 75.25 48.25 75.31 C46.76 75.36 46.76 75.36 45.25 75.4 C38.26 75.46 34.5 74.41 29.37 69.41 C27.29 65.75 27.56 62.28 27.56 58.14 C27.55 57.28 27.53 56.41 27.52 55.52 C27.48 52.77 27.46 50.01 27.44 47.25 C27.41 44.51 27.39 41.76 27.35 39.02 C27.32 37.31 27.31 35.61 27.3 33.9 C27.22 27.62 26.64 21.77 23.38 16.25 C16.51 9.74 9.2 9.28 0 9 C0 6.03 0 3.06 0 0 Z " fill="#FEFDFD" transform="translate(471,484)"/>
<path d="M0 0 C9.28 8.51 13.77 19.56 14.79 31.9 C14.35 44.67 9.04 53.97 0.09 62.68 C-1.53 64.09 -1.53 64.09 -4.53 66.09 C-4.53 67.08 -4.53 68.07 -4.53 69.09 C-2.52 71.09 -2.52 71.09 0.16 73.09 C1.17 73.89 2.18 74.69 3.21 75.51 C3.75 75.93 4.29 76.35 4.84 76.79 C7.53 78.94 10.16 81.17 12.79 83.4 C13.32 83.85 13.85 84.31 14.4 84.77 C17.37 87.29 20.32 89.82 23.27 92.35 C24.21 93.16 24.21 93.16 25.17 93.99 C26.39 95.03 27.6 96.07 28.8 97.12 C31.11 99.1 33.4 101.04 35.88 102.81 C36.4 103.23 36.93 103.65 37.47 104.09 C37.47 104.75 37.47 105.41 37.47 106.09 C34.12 106.97 30.77 107.81 27.41 108.65 C26 109.02 26 109.02 24.55 109.4 C19.25 110.71 14.84 111.72 9.47 110.09 C6.55 107.9 6.55 107.9 3.72 105.09 C2.67 104.07 1.62 103.06 0.57 102.05 C0.05 101.55 -0.47 101.04 -1.01 100.52 C-4.03 97.68 -7.3 95.14 -10.57 92.59 C-12.89 90.63 -14.91 88.69 -16.99 86.5 C-22.84 80.05 -22.84 80.05 -30.58 76.87 C-34.78 77.3 -38.47 78.73 -42.36 80.34 C-46.61 81.81 -51.09 82.4 -55.53 83.09 C-55.22 84.25 -54.92 85.4 -54.61 86.59 C-53.49 90.88 -52.37 95.18 -51.25 99.48 C-50.77 101.34 -50.29 103.19 -49.8 105.05 C-49.1 107.72 -48.41 110.4 -47.71 113.07 C-47.5 113.9 -47.28 114.72 -47.05 115.58 C-46.05 119.5 -45.24 123 -45.53 127.09 C-48.63 127.93 -51.73 128.76 -54.84 129.59 C-55.72 129.83 -56.6 130.07 -57.51 130.31 C-58.78 130.65 -58.78 130.65 -60.08 131 C-60.86 131.21 -61.64 131.42 -62.44 131.63 C-64.53 132.09 -64.53 132.09 -67.53 132.09 C-67.7 131.38 -67.88 130.68 -68.06 129.95 C-70.32 120.89 -72.58 111.83 -74.84 102.78 C-75.02 102.05 -75.2 101.33 -75.39 100.58 C-80.76 79.08 -86.17 57.59 -91.69 36.13 C-91.89 35.37 -92.09 34.6 -92.29 33.81 C-92.48 33.07 -92.67 32.34 -92.87 31.58 C-94.79 24.09 -96.66 16.59 -98.53 9.09 C-92.02 6.48 -85.45 4.68 -78.65 2.99 C-77.53 2.71 -76.4 2.42 -75.25 2.13 C-72.88 1.54 -70.51 0.95 -68.15 0.36 C-64.54 -0.53 -60.93 -1.44 -57.32 -2.35 C-55.02 -2.92 -52.71 -3.5 -50.4 -4.07 C-49.33 -4.34 -48.26 -4.61 -47.16 -4.89 C-31.25 -8.82 -13.81 -10.44 0 0 Z " fill="#FEFDFD" transform="translate(517.52734375,86.91015625)"/>
<path d="M0 0 C1.44 -0.04 2.88 -0.08 4.32 -0.1 C5.52 -0.13 5.52 -0.13 6.75 -0.16 C10.19 0.08 11.87 1.59 14.38 3.88 C15.29 4.69 16.21 5.5 17.15 6.34 C18.09 7.22 19.03 8.1 20 9 C21 9.91 22 10.81 23 11.72 C24.88 13.41 26.74 15.12 28.59 16.84 C29.39 17.55 30.18 18.26 31 19 C31.66 19.63 32.32 20.26 33 20.91 C34.97 22.26 34.97 22.26 37.33 21.57 C40.94 19.44 43.7 16.74 46.69 13.81 C50.77 9.94 54.83 6.1 59.31 2.69 C60.01 2.16 60.71 1.62 61.43 1.07 C64.15 -0.06 65.75 -0.11 68.66 -0.07 C69.47 -0.06 70.29 -0.05 71.12 -0.04 C71.74 -0.03 72.36 -0.01 73 0 C73.85 15.41 74.48 30.82 74.87 46.25 C75.05 53.42 75.3 60.57 75.72 67.73 C78.62 118.53 78.62 118.53 64.83 135.02 C56.58 144.19 47.07 151.93 37 159 C22.31 151.92 7.15 138.73 0 124 C-5.58 106 -3.36 85.03 -2.38 66.4 C-2 59.14 -1.82 51.88 -1.66 44.62 C-1.32 29.74 -0.74 14.87 0 0 Z " fill="#FEB600" transform="translate(563,767)"/>
<path d="M0 0 C2.06 3.41 2.25 6.03 2.24 9.99 C2.24 11.21 2.25 12.44 2.25 13.7 C2.24 15.05 2.23 16.41 2.23 17.76 C2.23 19.19 2.23 20.62 2.23 22.05 C2.23 25.93 2.22 29.81 2.2 33.69 C2.19 37.74 2.19 41.79 2.19 45.85 C2.18 53.52 2.16 61.19 2.14 68.87 C2.12 79.24 2.11 89.61 2.1 99.98 C2.08 116.32 2.04 132.66 2 149 C-22.09 149 -46.18 149 -71 149 C-79.71 81.16 -79.71 81.16 -64.03 60.34 C-55.45 49.55 -45.62 39.95 -35.5 30.62 C-34.23 29.45 -34.23 29.45 -32.93 28.25 C-22.25 18.47 -11.28 9.08 0 0 Z " fill="#CF0D29" transform="translate(561,310)"/>
<path d="M0 0 C2.31 1.98 4.62 3.96 7 6 C8.66 7.34 10.33 8.68 12 10 C21.61 17.66 30.87 25.7 39.94 34 C40.7 34.7 41.46 35.39 42.25 36.11 C61.98 54.34 75.05 70.09 76.61 97.56 C76.91 114.85 74 131.84 72 149 C48.24 149 24.48 149 0 149 C0 99.83 0 50.66 0 0 Z " fill="#CF0C29" transform="translate(636,310)"/>
<path d="M0 0 C1.46 0.38 2.92 0.78 4.38 1.19 C5.59 1.52 5.59 1.52 6.84 1.86 C7.88 2.23 8.92 2.61 10 3 C10.81 3.29 11.62 3.58 12.45 3.87 C16.16 5.41 19.15 6.66 21.34 10.13 C22.32 12.78 23.02 15.39 23.66 18.14 C23.93 19.15 24.2 20.15 24.48 21.19 C25.05 23.35 25.61 25.51 26.16 27.67 C27.27 32.08 28.51 36.44 29.75 40.82 C31.66 47.61 33.51 54.42 35.37 61.23 C39.94 77.92 44.81 94.49 50 111 C52.78 108.22 53.8 104.86 55.2 101.25 C55.52 100.46 55.83 99.66 56.16 98.84 C56.84 97.13 57.51 95.41 58.19 93.69 C59.61 90.08 61.05 86.47 62.49 82.86 C65.02 76.5 67.55 70.15 70.06 63.79 C71.64 59.79 73.24 55.79 74.85 51.8 C75.45 50.31 76.04 48.82 76.63 47.33 C77.44 45.25 78.27 43.19 79.11 41.13 C79.57 39.96 80.04 38.8 80.51 37.6 C82 35 82 35 83.92 34.03 C86.36 34 87.87 34.47 90.11 35.43 C90.86 35.75 91.62 36.07 92.39 36.4 C93.17 36.74 93.95 37.08 94.75 37.44 C95.54 37.78 96.34 38.11 97.15 38.46 C99.11 39.3 101.05 40.15 103 41 C102.42 45.34 101.35 48.99 99.65 53.02 C99.4 53.61 99.16 54.2 98.9 54.81 C98.35 56.12 97.81 57.42 97.26 58.73 C95.68 62.46 94.13 66.2 92.58 69.93 C92.06 71.19 92.06 71.19 91.52 72.47 C86.55 84.44 81.73 96.47 76.88 108.49 C75.65 111.56 74.41 114.63 73.17 117.69 C72.7 118.87 72.22 120.05 71.73 121.27 C70.8 123.58 69.87 125.89 68.93 128.21 C66.79 133.5 64.68 138.8 62.67 144.14 C62.13 145.55 62.13 145.55 61.58 146.98 C60.92 148.72 60.26 150.46 59.63 152.21 C58.75 154.5 58.75 154.5 57 158 C52.37 159.86 48.04 158.08 43.62 156.37 C39.67 154.51 38.25 153.53 36.33 149.44 C35.96 148.05 35.62 146.65 35.31 145.25 C35.12 144.5 34.92 143.74 34.72 142.97 C34.33 141.41 33.94 139.85 33.56 138.28 C32.72 134.84 31.73 131.44 30.75 128.03 C30.38 126.7 30.01 125.37 29.64 124.04 C28.85 121.2 28.06 118.36 27.27 115.51 C25.56 109.38 23.85 103.24 22.14 97.1 C21.09 93.31 20.03 89.51 18.98 85.72 C18.39 83.62 17.81 81.51 17.22 79.4 C15.21 72.19 13.12 65.01 10.89 57.86 C9.56 53.59 8.28 49.29 7 45 C3.17 52.33 -0.05 59.8 -3.09 67.48 C-3.79 69.24 -3.79 69.24 -4.51 71.03 C-5.74 74.12 -6.97 77.21 -8.19 80.31 C-9.42 83.41 -10.66 86.52 -11.9 89.62 C-12.38 90.82 -12.86 92.03 -13.35 93.27 C-14.29 95.64 -15.24 98.01 -16.18 100.38 C-18.13 105.25 -20.06 110.13 -21.92 115.05 C-22.33 116.12 -22.33 116.12 -22.75 117.21 C-23.44 119 -24.11 120.8 -24.78 122.6 C-26 125 -26 125 -29 126 C-31.99 125.26 -34.79 123.99 -37.62 122.81 C-38.41 122.51 -39.2 122.2 -40.02 121.89 C-40.77 121.58 -41.52 121.27 -42.29 120.96 C-42.98 120.68 -43.66 120.4 -44.37 120.11 C-46 119 -46 119 -46.68 117.16 C-47.24 113.38 -45.29 110.06 -43.83 106.64 C-43.48 105.79 -43.13 104.95 -42.77 104.08 C-41.61 101.28 -40.43 98.48 -39.25 95.69 C-38.01 92.71 -36.78 89.74 -35.54 86.76 C-34.68 84.69 -33.82 82.62 -32.96 80.55 C-28.63 70.15 -24.42 59.71 -20.22 49.27 C-13.59 32.8 -6.91 16.36 0 0 Z " fill="#FEFDFD" transform="translate(747,85)"/>
<path d="M0 0 C1.99 0.97 3.38 2.05 4.98 3.58 C5.56 4.12 6.13 4.65 6.72 5.21 C7.31 5.77 7.9 6.34 8.5 6.92 C9.1 7.49 9.7 8.05 10.32 8.64 C11.81 10.04 13.28 11.45 14.75 12.86 C12.13 23.32 8.64 33.51 5.25 43.75 C4.6 45.7 3.96 47.65 3.31 49.6 C1.62 54.73 -0.08 59.86 -1.78 64.99 C-4.8 74.09 -7.81 83.2 -10.82 92.31 C-11.14 93.28 -11.46 94.26 -11.79 95.26 C-17.36 112.1 -22.85 128.96 -28.25 145.86 C-32.29 143.51 -35.52 140.93 -38.94 137.73 C-42.33 134.41 -42.33 134.41 -46.25 131.86 C-45.58 124.17 -42.66 117.3 -39.96 110.13 C-39.6 109.14 -39.24 108.15 -38.87 107.13 C-38.53 106.24 -38.2 105.34 -37.85 104.42 C-37.17 101.5 -37.38 99.71 -38.25 96.86 C-39.72 95.08 -39.72 95.08 -41.69 93.61 C-42.41 93.01 -43.13 92.41 -43.88 91.8 C-44.66 91.16 -45.44 90.52 -46.25 89.86 C-47.88 88.41 -49.51 86.95 -51.12 85.48 C-52.39 84.34 -52.39 84.34 -53.67 83.18 C-55.39 81.63 -57.11 80.08 -58.83 78.53 C-65.87 72.18 -72.94 65.89 -80.25 59.86 C-88.49 62.79 -96.2 66.17 -103.87 70.35 C-108.76 72.93 -108.76 72.93 -111.36 72.54 C-113.74 71.68 -114.85 70.52 -116.56 68.67 C-119.52 65.56 -122.62 62.8 -125.96 60.12 C-126.6 59.49 -126.6 59.49 -127.25 58.86 C-127.25 58.2 -127.25 57.54 -127.25 56.86 C-104.79 46.47 -82.31 36.12 -59.8 25.85 C-54.48 23.42 -49.16 20.98 -43.85 18.55 C-41.51 17.47 -39.16 16.4 -36.82 15.33 C-35.35 14.65 -33.88 13.98 -32.41 13.31 C-28.37 11.45 -24.34 9.61 -20.29 7.78 C-18.13 6.8 -15.97 5.8 -13.82 4.8 C-12.37 4.14 -10.93 3.49 -9.48 2.83 C-8.81 2.52 -8.15 2.2 -7.46 1.88 C-4.89 0.72 -2.85 -0.18 0 0 Z " fill="#FEFDFD" transform="translate(947.249755859375,195.14404296875)"/>
<path d="M0 0 C1.27 0.95 2.55 1.89 3.82 2.84 C4.88 3.63 4.88 3.63 5.96 4.44 C21.21 16.11 40.04 32.53 50 49 C50 53 50 53 48.91 54.59 C48.13 55.35 48.13 55.35 47.34 56.14 C46.75 56.73 46.16 57.33 45.56 57.94 C44.9 58.58 44.25 59.22 43.57 59.88 C42.55 60.9 42.55 60.9 41.51 61.95 C39.24 64.21 36.96 66.46 34.69 68.7 C33.12 70.27 31.55 71.83 29.98 73.39 C25.85 77.51 21.7 81.62 17.55 85.72 C13.32 89.91 9.1 94.11 4.88 98.31 C-3.4 106.55 -11.7 114.78 -20 123 C-23.64 121.29 -26 119.25 -28.86 116.4 C-29.33 115.93 -29.8 115.47 -30.28 114.99 C-31.82 113.46 -33.36 111.92 -34.89 110.38 C-35.96 109.31 -37.03 108.24 -38.1 107.17 C-40.34 104.93 -42.58 102.69 -44.81 100.45 C-47.68 97.57 -50.55 94.7 -53.43 91.84 C-55.64 89.63 -57.85 87.43 -60.05 85.22 C-61.11 84.16 -62.17 83.1 -63.23 82.04 C-64.71 80.57 -66.19 79.08 -67.66 77.6 C-68.92 76.34 -68.92 76.34 -70.2 75.05 C-72 73 -72 73 -72 71 C-70.77 69.79 -70.77 69.79 -68.92 68.29 C-61.97 62.37 -55.66 55.78 -49.22 49.32 C-47.8 47.89 -46.37 46.47 -44.95 45.04 C-41.22 41.31 -37.5 37.58 -33.78 33.85 C-29.98 30.04 -26.17 26.22 -22.36 22.41 C-14.9 14.94 -7.45 7.47 0 0 Z " fill="#CF0C29" transform="translate(824,323)"/>
<path d="M0 0 C3.65 1.71 6 3.76 8.86 6.63 C9.33 7.1 9.8 7.57 10.28 8.05 C11.82 9.6 13.36 11.15 14.89 12.7 C15.96 13.77 17.03 14.84 18.1 15.92 C20.91 18.74 23.72 21.56 26.53 24.39 C29.39 27.27 32.26 30.15 35.13 33.04 C40.76 38.68 46.38 44.34 52 50 C47.96 54.85 43.73 59.41 39.26 63.85 C38.62 64.5 37.97 65.14 37.31 65.81 C35.2 67.91 33.09 70.02 30.98 72.12 C29.51 73.59 28.03 75.06 26.56 76.53 C22.71 80.38 18.85 84.23 14.99 88.08 C11.05 92.01 7.11 95.95 3.17 99.88 C-4.55 107.59 -12.27 115.3 -20 123 C-21.26 122.06 -22.52 121.13 -23.79 120.19 C-24.49 119.67 -25.19 119.14 -25.92 118.61 C-29.08 116.17 -31.98 113.49 -34.88 110.75 C-35.5 110.16 -36.13 109.57 -36.78 108.96 C-64.84 82.36 -64.84 82.36 -70 74 C-70 70 -70 70 -68.91 68.41 C-68.39 67.9 -67.87 67.39 -67.34 66.86 C-66.75 66.27 -66.16 65.67 -65.56 65.06 C-64.9 64.42 -64.25 63.78 -63.57 63.12 C-62.89 62.44 -62.21 61.75 -61.51 61.05 C-59.24 58.79 -56.96 56.54 -54.69 54.3 C-53.12 52.73 -51.55 51.17 -49.98 49.61 C-45.85 45.49 -41.7 41.38 -37.55 37.28 C-33.32 33.09 -29.1 28.89 -24.88 24.69 C-16.6 16.45 -8.3 8.22 0 0 Z " fill="#CF0C29" transform="translate(394,753)"/>
<path d="M0 0 C0.75 7.03 1.14 13.93 1 21 C-0.04 21.12 -1.08 21.25 -2.16 21.38 C-16.09 23.28 -29.44 27.74 -39.16 38.43 C-46.43 48.6 -48.95 58.71 -48 71 C-45.26 84.58 -38.14 97.13 -26.75 105.25 C-16.28 111.77 -4.98 114.43 7.14 111.85 C20.11 108 29.62 100.35 36.48 88.82 C39.89 82.66 39.89 82.66 42 76 C40.8 73.11 39.23 70.9 37.18 68.55 C36.64 67.93 36.11 67.31 35.56 66.67 C34.73 65.72 34.73 65.72 33.88 64.75 C33.03 63.78 33.03 63.78 32.17 62.78 C30.78 61.18 29.39 59.59 28 58 C25.27 59.27 23.08 60.62 20.83 62.61 C20.25 63.11 19.67 63.62 19.07 64.14 C18.47 64.67 17.87 65.2 17.25 65.75 C12.31 70.06 7.32 74.17 2 78 C-0.01 75.71 -2 73.42 -4 71.12 C-4.57 70.47 -5.14 69.82 -5.73 69.15 C-6.28 68.53 -6.82 67.9 -7.38 67.26 C-7.88 66.68 -8.38 66.11 -8.9 65.51 C-10 64 -10 64 -10 62 C-8.43 60.59 -6.79 59.24 -5.12 57.94 C-1.31 54.89 2.4 51.79 6 48.5 C10.33 44.55 14.82 40.83 19.38 37.15 C22.49 34.6 25.48 31.93 28.44 29.21 C30 28 30 28 32 28 C33.37 29.53 34.67 31.13 35.94 32.75 C39.28 36.93 42.71 40.9 46.38 44.81 C65.46 65.24 65.46 65.24 65.23 73.84 C64.86 77.37 63.75 80.47 62.44 83.75 C62.17 84.44 61.89 85.14 61.61 85.85 C53.45 106.05 38.13 122.54 18.03 131.29 C4.33 136.5 -13.18 137.32 -27 132 C-43.2 124.68 -59.06 112.18 -65.72 95.16 C-71.81 78.41 -74.25 60.9 -67 44 C-66.63 43.11 -66.25 42.22 -65.87 41.31 C-57.47 23.1 -41.41 10.15 -23 3 C-15.24 0.22 -8.21 -0.39 0 0 Z " fill="#FEFDFD" transform="translate(301,173)"/>
<path d="M0 0 C24.09 0.33 48.18 0.66 73 1 C73 41.59 73 82.18 73 124 C59.26 112.22 45.71 100.31 32.56 87.88 C31.79 87.14 31.01 86.41 30.22 85.66 C-4.15 53 -4.15 53 -4.77 29.34 C-3.92 19.47 -1.84 9.74 0 0 Z " fill="#CF0C28" transform="translate(490,766)"/>
<path d="M0 0 C0.18 7.12 0.3 14.23 0.38 21.35 C0.42 23.77 0.47 26.19 0.53 28.61 C0.61 32.09 0.65 35.58 0.68 39.06 C0.72 40.14 0.76 41.21 0.79 42.32 C0.8 47.27 0.64 50.95 -2.63 54.82 C-4.06 56.24 -5.53 57.63 -7 59 C-8.04 60.05 -9.07 61.1 -10.1 62.15 C-13.92 66.06 -17.78 69.92 -21.65 73.78 C-23.07 75.2 -24.49 76.63 -25.92 78.05 C-28.88 81.02 -31.85 83.98 -34.82 86.95 C-38.63 90.75 -42.44 94.57 -46.25 98.38 C-49.18 101.31 -52.11 104.24 -55.04 107.17 C-56.44 108.58 -57.85 109.98 -59.26 111.39 C-61.21 113.35 -63.17 115.3 -65.12 117.25 C-65.71 117.84 -66.29 118.42 -66.89 119.03 C-70.89 123 -70.89 123 -72 123 C-72 82.74 -72 42.48 -72 1 C-62.16 0.84 -52.32 0.67 -42.19 0.5 C-37.56 0.42 -37.56 0.42 -32.84 0.34 C-30.37 0.3 -27.89 0.26 -25.42 0.22 C-24.16 0.2 -22.9 0.18 -21.6 0.15 C-14.4 0.04 -7.2 -0.03 0 0 Z " fill="#CF0C29" transform="translate(708,766)"/>
<path d="M0 0 C7.1 6.38 13.21 16.79 14.02 26.42 C14.44 41.91 13.28 54.06 2.84 66.32 C-1.85 71.22 -6.86 74.8 -13.16 77.32 C-14.04 77.68 -14.92 78.04 -15.83 78.41 C-26.31 81.29 -39.64 80.64 -49.16 75.32 C-61.5 67.8 -67.33 59.07 -71.78 45.43 C-74.25 31.81 -71.36 18.18 -63.85 6.61 C-57.41 -2.09 -49.25 -8.13 -38.48 -10.39 C-23.49 -12.21 -11.89 -9.22 0 0 Z " fill="#CF0D29" transform="translate(656.16015625,97.67578125)"/>
<path d="M0 0 C0 47.85 0 95.7 0 145 C-7.87 138.25 -7.87 138.25 -10.35 135.77 C-10.91 135.21 -11.48 134.65 -12.06 134.07 C-12.95 133.17 -12.95 133.17 -13.85 132.26 C-14.5 131.62 -15.14 130.97 -15.81 130.31 C-17.91 128.2 -20.02 126.09 -22.12 123.98 C-23.59 122.51 -25.06 121.03 -26.53 119.56 C-30.38 115.71 -34.23 111.85 -38.08 107.99 C-42.01 104.05 -45.95 100.11 -49.88 96.17 C-57.59 88.45 -65.3 80.73 -73 73 C-71.42 69.12 -68.78 66.5 -65.85 63.61 C-65.07 62.82 -65.07 62.82 -64.26 62.01 C-62.53 60.28 -60.79 58.55 -59.05 56.82 C-57.84 55.61 -56.63 54.4 -55.42 53.19 C-52.88 50.65 -50.34 48.12 -47.79 45.58 C-44.54 42.35 -41.3 39.12 -38.07 35.88 C-35.56 33.38 -33.06 30.88 -30.55 28.38 C-29.36 27.19 -28.16 26 -26.97 24.8 C-21.3 19.14 -15.64 13.5 -9.52 8.31 C-7.6 6.66 -5.82 4.89 -4.06 3.06 C-1.11 0 -1.11 0 0 0 Z " fill="#FEB501" transform="translate(345,527)"/>
<path d="M0 0 C3.64 3.53 5.41 7.44 7.56 12 C8.21 13.38 8.21 13.38 8.88 14.78 C16.01 30.17 21.68 46.24 26.69 62.44 C26.94 63.25 27.2 64.07 27.46 64.91 C29.39 71.41 29.39 71.41 28 75 C26.48 76.89 26.48 76.89 24.49 78.85 C23.75 79.59 23.01 80.33 22.25 81.09 C21.44 81.88 20.64 82.67 19.81 83.48 C18.58 84.71 18.58 84.71 17.32 85.96 C14.7 88.56 12.07 91.16 9.44 93.75 C7.66 95.51 5.88 97.28 4.1 99.04 C-0.26 103.37 -4.63 107.69 -9 112 C-12.69 110.45 -15.04 108.21 -17.86 105.4 C-18.33 104.93 -18.8 104.47 -19.28 103.99 C-20.82 102.46 -22.36 100.92 -23.89 99.38 C-24.96 98.31 -26.03 97.24 -27.1 96.17 C-29.34 93.93 -31.58 91.69 -33.81 89.45 C-36.68 86.57 -39.55 83.7 -42.43 80.84 C-44.64 78.63 -46.85 76.43 -49.05 74.22 C-50.11 73.16 -51.17 72.1 -52.23 71.04 C-53.71 69.57 -55.19 68.08 -56.66 66.6 C-57.92 65.34 -57.92 65.34 -59.2 64.05 C-61 62 -61 62 -61 60 C-60.34 60 -59.68 60 -59 60 C-59 59.34 -59 58.68 -59 58 C-57.67 56.69 -57.67 56.69 -55.75 55.11 C-49.87 50.11 -44.5 44.62 -39.06 39.16 C-37.93 38.03 -36.8 36.89 -35.67 35.76 C-32.71 32.8 -29.76 29.84 -26.81 26.88 C-23.79 23.85 -20.76 20.82 -17.74 17.79 C-11.82 11.86 -5.91 5.93 0 0 Z " fill="#CF0C29" transform="translate(915,436)"/>
<path d="M0 0 C3.7 1.55 6.05 3.8 8.86 6.63 C9.33 7.1 9.8 7.57 10.28 8.05 C11.82 9.6 13.36 11.15 14.89 12.7 C15.96 13.77 17.03 14.84 18.1 15.92 C20.91 18.74 23.72 21.56 26.53 24.39 C29.39 27.27 32.26 30.15 35.13 33.04 C40.76 38.68 46.38 44.34 52 50 C46.26 57.02 39.8 63.32 33.38 69.71 C32.16 70.94 30.93 72.16 29.71 73.38 C26.51 76.58 23.3 79.78 20.09 82.98 C16.81 86.25 13.54 89.52 10.26 92.79 C3.84 99.2 -2.58 105.6 -9 112 C-12.64 108.47 -14.41 104.56 -16.56 100 C-17 99.08 -17.43 98.16 -17.88 97.22 C-25.01 81.83 -30.68 65.76 -35.69 49.56 C-36.07 48.34 -36.07 48.34 -36.46 47.09 C-38.39 40.59 -38.39 40.59 -37 37 C-35.48 35.11 -35.48 35.11 -33.49 33.15 C-32.75 32.41 -32.01 31.67 -31.25 30.91 C-30.44 30.12 -29.64 29.33 -28.81 28.52 C-27.99 27.7 -27.17 26.88 -26.32 26.04 C-23.7 23.44 -21.07 20.84 -18.44 18.25 C-16.66 16.49 -14.88 14.72 -13.1 12.96 C-8.74 8.63 -4.37 4.31 0 0 Z " fill="#CF0C29" transform="translate(292,651)"/>
<path d="M0 0 C11.54 3.21 23.02 6.42 34.25 10.62 C35.91 11.24 35.91 11.24 37.61 11.87 C49.76 16.5 61.4 22.14 73 28 C71.38 32.06 68.5 34.77 65.45 37.78 C64.88 38.34 64.32 38.91 63.73 39.49 C61.87 41.36 59.99 43.22 58.12 45.08 C56.82 46.37 55.52 47.67 54.22 48.96 C50.81 52.37 47.4 55.76 43.98 59.16 C40.49 62.63 37 66.1 33.52 69.58 C26.69 76.39 19.84 83.2 13 90 C9.3 88.45 6.95 86.2 4.14 83.37 C3.67 82.9 3.2 82.43 2.72 81.95 C1.18 80.4 -0.36 78.85 -1.89 77.3 C-2.96 76.23 -4.03 75.16 -5.1 74.08 C-7.91 71.26 -10.72 68.44 -13.53 65.61 C-16.39 62.73 -19.26 59.85 -22.13 56.96 C-27.76 51.32 -33.38 45.66 -39 40 C-34.63 34.77 -30.03 29.9 -25.2 25.1 C-24.47 24.38 -23.75 23.65 -23 22.91 C-20.71 20.62 -18.42 18.34 -16.12 16.06 C-14.56 14.5 -13 12.95 -11.44 11.39 C-7.63 7.59 -3.81 3.79 0 0 Z " fill="#CF0C29" transform="translate(689,254)"/>
<path d="M0 0 C3.63 1.54 5.99 3.72 8.78 6.48 C9.48 7.16 9.48 7.16 10.18 7.85 C11.69 9.34 13.2 10.84 14.71 12.34 C15.76 13.38 16.81 14.42 17.86 15.46 C20.06 17.64 22.25 19.82 24.44 22.01 C27.25 24.82 30.07 27.61 32.91 30.39 C35.08 32.53 37.24 34.69 39.4 36.85 C40.44 37.88 41.48 38.91 42.52 39.93 C43.98 41.37 45.42 42.81 46.86 44.26 C47.69 45.08 48.51 45.9 49.36 46.75 C51 49 51 49 50.96 51.06 C49.82 53.36 48.51 54.92 46.72 56.77 C46.03 57.5 45.34 58.22 44.63 58.97 C43.5 60.12 43.5 60.12 42.34 61.3 C41.57 62.1 40.79 62.89 39.99 63.71 C38.34 65.39 36.69 67.07 35.04 68.74 C32.51 71.3 30.03 73.89 27.54 76.49 C25.93 78.11 24.33 79.74 22.72 81.36 C21.98 82.14 21.24 82.92 20.48 83.73 C15.33 88.82 15.33 88.82 11.69 89.31 C9.35 89.1 7.26 88.65 5 88 C3.87 87.71 2.75 87.42 1.59 87.13 C0.53 86.78 -0.54 86.43 -1.63 86.07 C-2.84 85.67 -4.05 85.27 -5.29 84.86 C-6.57 84.43 -7.85 84 -9.12 83.56 C-9.78 83.34 -10.43 83.12 -11.11 82.9 C-27.94 77.22 -44.29 70.31 -60 62 C-58.38 57.94 -55.5 55.23 -52.45 52.22 C-51.88 51.66 -51.32 51.09 -50.73 50.51 C-48.87 48.64 -46.99 46.78 -45.12 44.92 C-43.82 43.63 -42.52 42.33 -41.22 41.04 C-37.81 37.63 -34.4 34.24 -30.98 30.84 C-27.49 27.37 -24 23.9 -20.52 20.42 C-13.69 13.61 -6.84 6.8 0 0 Z " fill="#CF0C29" transform="translate(496,855)"/>
<path d="M0 0 C4.79 4.1 9.33 8.19 13.76 12.65 C14.4 13.28 15.03 13.92 15.69 14.57 C17.76 16.65 19.83 18.73 21.9 20.8 C23.35 22.25 24.8 23.7 26.24 25.15 C30.04 28.95 33.82 32.74 37.61 36.54 C41.49 40.43 45.36 44.31 49.24 48.19 C56.83 55.79 64.41 63.39 72 71 C67.99 75.81 63.8 80.34 59.37 84.76 C58.73 85.4 58.1 86.03 57.45 86.69 C55.38 88.76 53.3 90.83 51.23 92.9 C49.78 94.35 48.34 95.8 46.89 97.24 C43.87 100.26 40.85 103.28 37.83 106.3 C33.95 110.18 30.07 114.06 26.2 117.94 C23.22 120.92 20.24 123.9 17.25 126.88 C15.82 128.31 14.39 129.74 12.96 131.18 C10.97 133.17 8.98 135.16 6.99 137.14 C6.09 138.04 6.09 138.04 5.18 138.95 C1.11 143 1.11 143 0 143 C0 95.81 0 48.62 0 0 Z " fill="#FEB600" transform="translate(854,528)"/>
<path d="M0 0 C6.63 4.67 10.97 10.84 13.53 18.53 C14.25 30.84 13.78 40.58 5.62 50.45 C-1.61 57.64 -10.14 60.54 -20.16 60.96 C-30.77 60.77 -39.01 56.96 -46.63 49.64 C-49.34 46.52 -51 43.37 -52.47 39.53 C-52.88 38.62 -53.29 37.71 -53.72 36.78 C-56.02 26.82 -54.44 18.4 -49.47 9.53 C-44.78 2.66 -38.95 -1.59 -31.34 -4.79 C-20 -6.8 -9.96 -5.94 0 0 Z " fill="#FEFCFC" transform="translate(570.46875,1039.47265625)"/>
<path d="M0 0 C6.5 0.7 12.61 2.43 18.88 4.25 C19.91 4.54 20.95 4.82 22.02 5.12 C30.8 7.66 40.24 10.71 45 19 C45.89 24.28 45.8 29.21 43.25 34 C41.28 36.62 39.83 38.4 37 40 C36.34 40 35.68 40 35 40 C35.36 40.44 35.72 40.88 36.09 41.33 C40.49 47.34 41.06 52.69 40 60 C38.75 64.33 36.35 67.12 32.5 69.44 C20.22 74.56 6.9 68.8 -5 65 C-5.7 64.78 -6.4 64.55 -7.12 64.32 C-10.43 63.26 -13.72 62.14 -17 61 C-15.68 53.73 -13.87 46.71 -11.78 39.63 C-11.47 38.58 -11.17 37.54 -10.85 36.46 C-9.88 33.16 -8.91 29.86 -7.94 26.56 C-7.28 24.32 -6.62 22.08 -5.97 19.84 C-4.77 15.75 -3.57 11.67 -2.37 7.59 C-2.13 6.77 -1.89 5.96 -1.64 5.12 C-1.12 3.4 -0.57 1.7 0 0 Z " fill="#FEFBFC" transform="translate(453,1014)"/>
<path d="M0 0 C5.47 3.61 8.86 7.39 10.31 13.88 C10.54 15.23 10.76 16.58 10.94 17.94 C11.66 17.89 12.39 17.84 13.13 17.8 C19.3 17.57 23.14 17.61 27.94 21.94 C32.11 26.67 33.53 29.71 33.37 35.99 C31.81 46.6 21.36 55.01 14 62.12 C12.92 63.18 11.85 64.24 10.77 65.3 C8.17 67.86 5.56 70.4 2.94 72.94 C-0.4 71.49 -2.59 69.66 -5.14 67.09 C-5.91 66.32 -6.68 65.55 -7.47 64.75 C-8.66 63.55 -8.66 63.55 -9.88 62.31 C-10.66 61.53 -11.44 60.75 -12.24 59.94 C-16.45 55.7 -20.48 51.37 -24.37 46.85 C-27.21 43.64 -30.26 40.64 -33.31 37.62 C-33.92 37.02 -34.53 36.41 -35.16 35.79 C-36.29 34.67 -37.42 33.55 -38.55 32.44 C-40.06 30.94 -41.56 29.44 -43.06 27.94 C-15.17 -5.26 -15.17 -5.26 0 0 Z " fill="#FEFBFC" transform="translate(929.0625,902.0625)"/>
<path d="M0 0 C2.37 1.5 3.08 2.66 4.33 5.15 C4.74 5.95 5.15 6.75 5.57 7.57 C6 8.45 6.43 9.32 6.87 10.21 C7.33 11.12 7.79 12.03 8.26 12.96 C9.73 15.87 11.19 18.79 12.64 21.72 C14.07 24.56 15.51 27.41 16.94 30.25 C17.9 32.16 18.86 34.06 19.81 35.96 C23.19 42.67 26.64 49.32 30.15 55.96 C35.19 65.48 40.15 75.05 45.08 84.63 C46.18 86.76 47.28 88.89 48.39 91.02 C50.01 94.13 51.61 97.25 53.22 100.37 C53.72 101.33 54.22 102.28 54.73 103.26 C55.18 104.14 55.63 105.02 56.09 105.93 C56.69 107.08 56.69 107.08 57.3 108.26 C58.02 110.28 58.02 110.28 57.02 113.28 C55.38 114.45 55.38 114.45 53.27 115.54 C52.52 115.94 51.76 116.33 50.99 116.74 C50.19 117.15 49.4 117.55 48.58 117.97 C47.4 118.59 47.4 118.59 46.19 119.23 C40.31 122.28 40.31 122.28 38.02 122.28 C37.74 121.71 37.46 121.15 37.17 120.56 C35.83 117.86 34.49 115.16 33.14 112.47 C32.48 111.13 32.48 111.13 31.81 109.77 C28.29 102.71 24.63 95.72 20.94 88.74 C16.33 80 11.83 71.21 7.33 62.4 C2.39 52.75 -2.54 43.09 -7.57 33.48 C-8.28 32.14 -8.98 30.79 -9.68 29.45 C-10.97 26.98 -12.27 24.51 -13.58 22.05 C-14.15 20.96 -14.72 19.87 -15.31 18.74 C-15.8 17.8 -16.3 16.86 -16.81 15.89 C-17.96 13.33 -18.56 11.04 -18.98 8.28 C-16.25 6.71 -13.49 5.18 -10.73 3.65 C-9.95 3.21 -9.18 2.76 -8.38 2.3 C-7.24 1.68 -7.24 1.68 -6.09 1.05 C-5.4 0.67 -4.71 0.28 -4 -0.12 C-1.98 -0.72 -1.98 -0.72 0 0 Z " fill="#FEFCFD" transform="translate(364.9812316894531,121.72050476074219)"/>
<path d="M0 0 C4.63 4.63 6.55 9.26 6.81 15.81 C6.54 22.01 5.01 26.38 0.79 30.96 C-9.49 39.78 -33.39 46.31 -46.69 46.31 C-47.98 41.14 -49.26 35.96 -50.53 30.78 C-50.97 29.02 -51.4 27.26 -51.84 25.5 C-52.47 22.96 -53.1 20.43 -53.72 17.89 C-53.92 17.11 -54.11 16.33 -54.32 15.52 C-55.24 11.7 -55.94 8.28 -55.69 4.31 C-12.82 -8.05 -12.82 -8.05 0 0 Z " fill="#CF0E2A" transform="translate(502.6875,105.6875)"/>
<path d="M0 0 C9.38 4.82 9.38 4.82 11 9 C9.92 10.62 8.83 12.25 7.75 13.88 C7.03 14.96 6.31 16.04 5.57 17.15 C3.68 19.99 1.77 22.83 -0.13 25.66 C-0.67 26.46 -1.2 27.26 -1.76 28.09 C-2.82 29.68 -3.89 31.27 -4.96 32.85 C-5.46 33.59 -5.95 34.33 -6.46 35.09 C-6.9 35.75 -7.34 36.41 -7.8 37.08 C-10.99 42.18 -11.68 46.03 -11 52 C-9.7 55.15 -8.45 56.62 -5.88 58.81 C-1.71 60.53 1.58 60.9 6 60 C13.35 55.53 17.74 47.95 22.25 40.88 C23.63 38.75 25.01 36.62 26.39 34.49 C26.99 33.56 27.59 32.62 28.2 31.66 C30.01 28.99 31.95 26.49 34 24 C38.67 25.56 42.09 28.08 46 31 C42.47 37.68 38.48 43.89 34.12 50.06 C33.54 50.91 32.95 51.76 32.35 52.63 C18.68 72.11 18.68 72.11 8 75 C-0.56 76.2 -7.7 74.08 -14.68 69.08 C-21.19 63.63 -25.63 58.01 -27.54 49.64 C-29.08 32.24 -9.75 12.88 0 0 Z " fill="#FEFBFC" transform="translate(330,946)"/>
<path d="M0 0 C4.21 3.94 7.47 8.21 10.75 12.94 C11.53 14.05 11.53 14.05 12.32 15.19 C29.76 40.32 29.76 40.32 28 54 C25.9 59.27 22.18 63.24 18 67 C17.3 67.68 16.6 68.36 15.88 69.06 C8.85 73.79 0.46 76.53 -8 75 C-20.37 70.84 -27.43 58.22 -34.34 47.94 C-37.75 42.86 -41.36 37.92 -45 33 C-41.83 29.74 -38.6 26.78 -35 24 C-31.29 25.47 -29.78 27.35 -27.61 30.66 C-26.98 31.6 -26.35 32.54 -25.71 33.51 C-25.06 34.5 -24.42 35.48 -23.75 36.5 C-15.85 50.38 -15.85 50.38 -4 60 C0.78 60.46 3.02 60.5 7.31 58.31 C11.12 55.03 12.82 52.84 13.31 47.77 C12.95 43.4 11.51 40.6 9.19 37 C8.79 36.36 8.39 35.73 7.99 35.07 C2.9 27.04 -2.66 19.02 -8.88 11.82 C-10 10 -10 10 -9.97 7.95 C-8.64 5.28 -6.96 4.32 -4.44 2.75 C-3.61 2.23 -2.78 1.71 -1.93 1.17 C-0.98 0.59 -0.98 0.59 0 0 Z " fill="#FEFBFC" transform="translate(870,943)"/>
<path d="M0 0 C-0.48 1.63 -0.96 3.25 -1.44 4.88 C-1.7 5.78 -1.97 6.68 -2.25 7.62 C-3 10 -3 10 -4 12 C-5.3 11.84 -6.6 11.67 -7.94 11.5 C-18.44 10.2 -18.44 10.2 -28 14 C-32.3 18.49 -34.72 22.05 -35.31 28.25 C-34.75 34.98 -32.95 41.19 -28 46 C-23.19 48.99 -18.5 50.58 -12.8 49.63 C-6.74 47.97 -2.92 44.85 1 40 C1.5 39.01 1.5 39.01 2 38 C6.23 39.31 10.07 40.94 14 43 C12.73 49.35 8.89 53.06 4 57 C-5.89 63.01 -15.59 64.24 -27 63 C-34.94 60.76 -41.31 55.52 -45.5 48.47 C-50.31 39.15 -51.76 29.35 -49.28 19 C-45.93 10.12 -40.26 4.49 -32 0 C-21.9 -4.55 -9.99 -4.8 0 0 Z " fill="#FEFCFC" transform="translate(758,1017)"/>
<path d="M0 0 C6.11 4.28 11.31 9.09 16.5 14.44 C21.3 19.35 26.13 24.11 31.35 28.57 C32.61 29.67 33.82 30.82 35 32 C34.67 35.4 33.18 37.27 30.94 39.75 C30.39 40.36 29.84 40.98 29.28 41.61 C28.65 42.3 28.65 42.3 28 43 C19.34 35.66 10.93 28.13 3 20 C-0.76 21.72 -3.15 23.99 -6 27 C-4.51 30.47 -2.54 32.69 0.13 35.33 C1.34 36.53 1.34 36.53 2.57 37.75 C3.42 38.58 4.26 39.4 5.12 40.25 C5.97 41.09 6.82 41.93 7.7 42.8 C9.8 44.87 11.9 46.94 14 49 C12.5 52.17 11.11 54.02 8.38 56.25 C7.74 56.77 7.11 57.29 6.46 57.83 C5.74 58.41 5.74 58.41 5 59 C4.3 58.29 3.6 57.57 2.88 56.84 C-6.47 47.23 -6.47 47.23 -17 39 C-22.58 44.47 -27.95 50.04 -33 56 C-33.47 55.59 -33.94 55.18 -34.43 54.76 C-35.05 54.22 -35.67 53.68 -36.31 53.12 C-36.93 52.59 -37.54 52.06 -38.18 51.51 C-40.13 49.84 -40.13 49.84 -43 48 C-42.42 44.6 -41.39 43.07 -38.88 40.75 C-36.42 38.4 -34.13 36.04 -31.94 33.44 C-27.92 28.76 -23.51 24.49 -19.13 20.15 C-15.43 16.48 -11.9 12.73 -8.53 8.75 C-5.85 5.68 -2.92 2.85 0 0 Z " fill="#FEFCFC" transform="translate(282,902)"/>
<path d="M0 0 C4.97 1.52 9.54 3.57 14.21 5.81 C14.99 6.18 15.76 6.54 16.56 6.92 C19.02 8.09 21.48 9.26 23.94 10.44 C26.39 11.61 28.85 12.78 31.3 13.94 C32.83 14.67 34.35 15.39 35.87 16.12 C40.21 18.18 44.57 20.14 49 22 C47.69 26.23 46.06 30.07 44 34 C39.63 32.6 35.31 31.2 31.12 29.31 C28.1 27.81 28.1 27.81 25 28 C18.22 42.62 11.48 57.25 5 72 C1.24 71.42 -1.53 70.35 -4.81 68.44 C-5.6 67.98 -6.39 67.53 -7.21 67.06 C-8.09 66.53 -8.09 66.53 -9 66 C-3.71 54.07 1.73 42.24 7.46 30.52 C7.9 29.59 8.35 28.67 8.81 27.72 C9.41 26.5 9.41 26.5 10.02 25.25 C10.93 23.17 11.53 21.21 12 19 C11.43 18.83 10.86 18.66 10.28 18.48 C5.07 16.85 0.65 14.87 -4 12 C-3.34 7.61 -1.81 4.02 0 0 Z " fill="#FEFBFB" transform="translate(389,985)"/>
<path d="M0 0 C1.85 2.66 1.85 2.66 3.56 6.2 C3.87 6.84 4.18 7.47 4.5 8.12 C5.5 10.16 6.47 12.2 7.44 14.25 C8.08 15.58 8.73 16.91 9.38 18.24 C13.38 26.44 17.21 34.71 21 43 C24 41.58 27 40.17 30 38.75 C30.84 38.35 31.68 37.96 32.54 37.55 C33.79 36.96 33.79 36.96 35.06 36.36 C35.89 35.97 36.72 35.58 37.57 35.18 C39.89 34.05 42.16 32.85 44.44 31.64 C48 30 48 30 51 31 C52.17 32.74 52.17 32.74 53.19 34.88 C53.7 35.92 53.7 35.92 54.23 36.99 C55 39 55 39 55 42 C49.5 44.71 44.01 47.42 38.5 50.12 C36.63 51.04 34.76 51.96 32.89 52.88 C30.2 54.21 27.51 55.53 24.82 56.84 C23.99 57.26 23.15 57.67 22.29 58.1 C21.51 58.48 20.72 58.86 19.92 59.26 C19.23 59.59 18.55 59.93 17.84 60.28 C16 61 16 61 13 61 C12.69 60.36 12.39 59.72 12.07 59.05 C6.05 46.43 -0.02 33.83 -6.34 21.35 C-14 6.19 -14 6.19 -14 3 C-12.61 2.3 -11.21 1.61 -9.81 0.94 C-9.04 0.55 -8.26 0.17 -7.46 -0.22 C-4.38 -1.2 -3.03 -1.11 0 0 Z " fill="#FEFCFC" transform="translate(786,998)"/>
<path d="M0 0 C0.43 5.82 0.86 11.63 1.28 17.45 C1.43 19.43 1.57 21.4 1.72 23.38 C1.93 26.23 2.14 29.08 2.34 31.93 C2.41 32.81 2.47 33.68 2.54 34.58 C2.63 35.84 2.63 35.84 2.72 37.12 C2.8 38.21 2.8 38.21 2.89 39.32 C3.05 43.21 3 47.11 3 51 C13.56 50.34 24.12 49.68 35 49 C35.93 53.67 36.08 57.3 36 62 C31.54 62.34 27.08 62.67 22.62 63 C21.39 63.1 20.16 63.19 18.89 63.29 C8.91 64.01 -1 64.1 -11 64 C-11.43 56.64 -11.86 49.27 -12.28 41.91 C-12.43 39.4 -12.57 36.9 -12.72 34.4 C-12.93 30.79 -13.14 27.18 -13.34 23.57 C-13.41 22.46 -13.47 21.35 -13.54 20.21 C-13.91 13.8 -14.08 7.42 -14 1 C-9.27 0.23 -4.79 -0.05 0 0 Z " fill="#FEFCFC" transform="translate(620,1037)"/>
<path d="M0 0 C5.95 2.53 9.98 6.34 13 12 C14.92 17.77 14.2 23.16 12.18 28.79 C9.59 33.65 5.19 36.74 0.5 39.44 C-5.85 40.87 -10.53 40.41 -16.18 37.27 C-20.5 34.26 -23.71 30.15 -25 25 C-25.77 18.17 -25.15 12.62 -21 7 C-14.51 0.36 -9.33 -1.2 0 0 Z " fill="#CF0E2B" transform="translate(556,1048)"/>
<path d="M0 0 C1 2 1 2 0.52 4.05 C0.24 4.89 -0.05 5.73 -0.34 6.6 C-0.66 7.56 -0.97 8.51 -1.3 9.49 C-1.65 10.53 -2 11.56 -2.37 12.62 C-2.9 14.21 -2.9 14.21 -3.44 15.83 C-4.58 19.22 -5.73 22.61 -6.88 26 C-7.64 28.29 -8.41 30.57 -9.18 32.86 C-10.58 37.04 -11.99 41.22 -13.4 45.4 C-13.69 46.24 -13.97 47.08 -14.27 47.95 C-15 50 -15 50 -16 52 C-20.15 50.34 -23.07 47.34 -26.25 44.31 C-27.41 43.22 -28.58 42.13 -29.74 41.04 C-30.3 40.52 -30.86 39.99 -31.44 39.45 C-34.56 36.55 -37.77 33.77 -41 31 C-41.67 30.42 -42.35 29.84 -43.04 29.25 C-44.69 27.83 -46.34 26.41 -48 25 C-47 22 -47 22 -44.4 20.5 C-43.26 19.98 -42.12 19.46 -40.94 18.93 C-40.32 18.64 -39.7 18.36 -39.06 18.06 C-37.04 17.14 -35.02 16.22 -33 15.31 C-31.63 14.68 -30.25 14.05 -28.88 13.42 C-26.16 12.18 -23.45 10.94 -20.73 9.7 C-16.01 7.55 -11.32 5.35 -6.62 3.12 C-5.3 2.5 -3.98 1.88 -2.66 1.26 C-1.78 0.84 -0.91 0.43 0 0 Z " fill="#CF0F2B" transform="translate(935,222)"/>
<path d="M0 0 C7.48 0.7 16.45 2.17 22.4 6.91 C24 9 24 9 23.88 12.62 C23 16 23 16 21 18 C14.95 18.47 10.19 17.45 4.5 15.5 C3.77 15.26 3.05 15.02 2.3 14.78 C0.53 14.2 -1.24 13.6 -3 13 C-2.01 4.29 -2.01 4.29 0 0 Z " fill="#D0112D" transform="translate(456,1055)"/>
<path d="M0 0 C3.28 0.94 3.28 0.94 5.28 3.94 C5.38 8.72 4.31 11.29 1.12 14.68 C-0.17 15.93 -1.47 17.16 -2.79 18.38 C-3.45 19.01 -4.11 19.65 -4.79 20.3 C-6.42 21.86 -8.07 23.41 -9.72 24.94 C-12.9 23.43 -15.02 21.86 -17.47 19.31 C-18.09 18.68 -18.7 18.05 -19.33 17.4 C-19.79 16.92 -20.25 16.43 -20.72 15.94 C-17.24 11.52 -13.51 7.66 -9.29 3.94 C-8.4 3.15 -7.51 2.37 -6.6 1.56 C-3.72 -0.06 -3.72 -0.06 0 0 Z " fill="#CF102C" transform="translate(942.72265625,932.0625)"/>
<path d="M0 0 C14.92 2.96 14.92 2.96 20 7 C21.26 10.37 21.36 12.01 20.12 15.38 C16.64 18.04 13.23 17.55 9 17 C5.28 16.16 1.64 15.14 -2 14 C-3.03 10.17 -2.95 7.89 -1.56 4.19 C-1.13 3 -1.13 3 -0.69 1.79 C-0.46 1.2 -0.24 0.61 0 0 Z " fill="#D0122E" transform="translate(463,1030)"/>
<path d="M0 0 C2.94 0.81 2.94 0.81 4.94 3.81 C5.28 9.43 3.3 11.94 -0.38 16.12 C-3.29 19.27 -5.17 20.87 -9.06 22.81 C-11.7 20.17 -14.34 17.53 -17.06 14.81 C-15.17 11.04 -13.58 9.09 -10.62 6.19 C-9.84 5.41 -9.06 4.64 -8.25 3.84 C-3.84 -0.24 -3.84 -0.24 0 0 Z " fill="#D0112D" transform="translate(922.0625,916.1875)"/>
</svg>
