<?xml version="1.0" standalone="no"?>
<!DOCTYPE svg PUBLIC "-//W3C//DTD SVG 20010904//EN"
 "http://www.w3.org/TR/2001/REC-SVG-20010904/DTD/svg10.dtd">
<svg version="1.0" xmlns="http://www.w3.org/2000/svg"
 width="1200.000000pt" height="1063.000000pt" viewBox="0 0 1200.000000 1063.000000"
 preserveAspectRatio="xMidYMid meet">

<g transform="translate(0.000000,1063.000000) scale(0.100000,-0.100000)"
fill="#000000" stroke="none">
<path d="M6978 7883 c-438 -758 -795 -1379 -794 -1381 2 -1 208 56 457 127
250 71 455 128 457 127 4 -4 -947 -1647 -963 -1665 -11 -11 -34 73 -126 447
-62 253 -116 459 -120 456 -4 -2 -362 -616 -795 -1364 -434 -748 -792 -1360
-797 -1360 -4 0 -66 34 -137 74 -99 57 -130 71 -129 58 2 -82 126 -1047 134
-1047 18 0 975 408 975 416 0 3 -58 40 -130 80 -71 41 -129 77 -127 81 9 30
813 1405 818 1400 4 -4 57 -213 119 -466 l112 -459 29 49 c768 1319 2485 4290
2480 4291 -3 2 -208 -55 -456 -127 -247 -71 -451 -127 -453 -125 -2 2 221 393
497 868 275 476 501 867 501 870 0 2 -145 7 -322 11 -178 3 -348 9 -378 12
l-55 5 -797 -1378z"/>
<path d="M9505 8824 c-121 -11 -215 -13 -385 -7 -456 16 -506 11 -606 -58 -61
-41 -84 -81 -84 -144 0 -65 20 -94 105 -153 38 -26 83 -67 100 -90 l30 -44 0
-781 0 -782 -24 -53 c-17 -37 -45 -72 -94 -116 l-70 -63 189 -6 c338 -9 498
-67 533 -192 10 -38 1 -86 -21 -112 -12 -14 -3 -15 82 -9 91 7 204 27 243 42
14 5 18 14 13 34 -8 43 12 97 49 135 l34 34 -64 51 c-108 86 -109 92 -113 430
-2 157 0 300 3 319 10 53 45 81 102 81 72 0 115 -16 155 -57 60 -61 94 -152
168 -442 38 -149 71 -279 74 -289 6 -16 17 -18 130 -14 164 6 372 -13 443 -39
67 -26 120 -71 144 -124 23 -50 24 -77 3 -121 -20 -43 -69 -72 -164 -101 l-75
-22 105 0 c179 -1 306 38 396 121 55 50 83 106 84 163 0 62 -30 102 -103 135
-114 52 -139 99 -158 298 -13 147 -39 247 -90 351 -54 109 -124 179 -252 249
-123 68 -126 81 -35 162 203 180 261 300 261 540 1 202 -53 342 -182 470 -88
88 -213 157 -346 191 -106 28 -359 33 -580 13z m155 -372 c49 -24 96 -92 121
-173 19 -63 21 -87 16 -242 -6 -221 -16 -254 -109 -334 -70 -60 -206 -67 -260
-12 l-28 27 0 286 c0 333 6 374 60 429 36 35 41 37 101 37 41 0 77 -6 99 -18z"/>
<path d="M1490 8673 c0 -5 9 -71 21 -148 24 -162 21 -231 -16 -350 -14 -44
-30 -117 -37 -162 -11 -73 -10 -91 10 -185 24 -113 28 -168 11 -168 -21 0
-150 145 -176 199 -22 44 -27 71 -31 157 -5 123 -10 126 -82 55 -59 -60 -74
-105 -68 -216 6 -104 26 -141 136 -258 106 -112 160 -177 201 -241 27 -43 31
-59 31 -116 0 -37 -3 -69 -6 -73 -10 -10 -76 36 -130 90 -56 58 -117 169 -137
252 -6 28 -17 51 -23 51 -22 0 -67 -44 -85 -84 -24 -53 -24 -103 2 -178 30
-90 62 -130 229 -289 l150 -143 0 -143 c0 -79 -4 -143 -9 -143 -19 0 -158 160
-187 216 -17 32 -39 98 -49 147 -10 48 -21 87 -24 87 -12 0 -58 -53 -74 -85
-23 -46 -40 -154 -32 -209 10 -79 40 -123 175 -261 70 -71 144 -152 164 -178
32 -43 36 -55 36 -108 0 -32 -2 -59 -5 -59 -13 0 -247 185 -271 213 -15 18
-51 84 -81 147 l-55 115 -23 -45 c-53 -105 -51 -221 6 -300 30 -41 50 -57 234
-193 118 -87 170 -141 184 -194 12 -41 15 -183 5 -183 -4 0 -69 43 -146 97
-147 102 -198 151 -230 221 -23 51 -37 46 -64 -24 -35 -93 12 -255 95 -326 56
-48 138 -95 233 -134 169 -71 162 -65 214 -155 62 -106 218 -266 329 -338 252
-163 449 -213 893 -227 l210 -7 -92 -70 c-229 -177 -263 -229 -220 -336 26
-67 122 -94 178 -50 14 11 58 67 96 124 79 115 209 246 273 276 94 42 181 12
299 -104 41 -40 106 -120 145 -178 83 -123 90 -129 140 -136 88 -12 143 43
143 141 0 63 -40 111 -194 231 l-128 100 79 2 c191 6 449 25 535 39 314 53
641 257 788 494 72 115 91 133 172 165 279 107 394 216 406 384 5 74 -8 129
-37 155 -17 15 -19 13 -41 -34 -31 -67 -98 -128 -247 -228 l-123 -82 0 91 c0
63 5 101 16 125 21 45 90 105 228 203 170 120 226 192 226 294 0 41 -33 154
-53 181 -13 18 -17 15 -47 -50 -17 -38 -42 -91 -55 -119 -29 -61 -69 -101
-205 -204 l-105 -79 -3 60 c-4 78 6 94 191 285 123 127 147 158 162 203 22 67
16 187 -13 251 -23 52 -70 105 -82 93 -4 -5 -15 -44 -24 -88 -9 -43 -24 -97
-34 -120 -22 -49 -99 -145 -159 -200 l-43 -39 0 150 0 150 133 122 c144 131
195 191 228 266 26 60 35 150 20 198 -13 37 -75 101 -93 95 -6 -2 -17 -28 -25
-57 -31 -122 -138 -272 -231 -324 l-32 -18 0 81 c0 78 2 83 39 139 41 60 92
120 217 252 86 92 106 140 105 259 -1 94 -19 137 -80 193 -39 35 -61 46 -61
30 -14 -230 -27 -265 -142 -387 l-77 -81 -1 62 c0 34 7 92 16 130 22 91 13
199 -26 333 -24 82 -31 124 -31 192 0 76 22 251 37 301 8 26 -52 22 -114 -9
-62 -31 -105 -78 -143 -158 -39 -83 -52 -156 -46 -256 6 -104 35 -193 129
-397 66 -143 93 -233 71 -233 -23 0 -132 81 -180 134 -64 70 -108 157 -128
256 -9 41 -19 78 -24 83 -12 12 -60 -31 -82 -76 -18 -34 -21 -54 -17 -127 3
-73 9 -98 40 -161 37 -80 76 -126 280 -335 l118 -121 0 -87 c0 -86 0 -87 -22
-81 -49 15 -133 73 -184 128 -51 55 -85 116 -164 295 -13 29 -28 51 -34 49 -6
-1 -22 -25 -35 -51 -19 -39 -25 -65 -25 -125 -1 -126 21 -161 237 -380 101
-102 193 -199 205 -215 19 -25 22 -41 22 -132 0 -57 -3 -104 -6 -104 -19 0
-80 49 -128 102 -63 69 -126 184 -151 276 -10 34 -23 62 -30 62 -21 0 -63 -50
-81 -95 -11 -31 -15 -65 -13 -117 6 -115 32 -157 234 -372 l175 -187 0 -55 c0
-30 -3 -54 -7 -54 -3 0 -70 52 -149 115 -155 125 -216 194 -266 297 -18 37
-36 68 -40 68 -18 0 -43 -100 -43 -175 0 -145 54 -223 229 -330 123 -75 203
-147 241 -216 29 -51 30 -59 29 -164 -1 -60 -6 -123 -11 -139 l-9 -28 -41 63
c-23 35 -111 137 -195 226 -93 98 -168 186 -189 223 -58 103 -54 100 -79 49
-31 -59 -38 -166 -16 -241 30 -105 65 -143 239 -258 87 -58 166 -118 177 -135
43 -66 13 -133 -111 -250 -154 -146 -349 -248 -549 -288 -159 -32 -303 -38
-966 -38 -678 0 -812 6 -975 41 -213 46 -433 170 -576 323 -71 77 -93 114 -93
154 0 48 38 85 197 190 157 104 203 149 233 230 34 90 22 247 -22 300 -9 11
-17 4 -39 -38 -41 -75 -70 -110 -194 -239 -139 -146 -197 -214 -228 -269 -14
-23 -28 -38 -31 -33 -4 6 -11 47 -16 91 -15 114 -1 190 47 259 44 65 83 97
236 196 163 106 216 185 217 327 0 62 -22 153 -40 164 -5 3 -27 -30 -49 -72
-23 -43 -59 -100 -82 -126 -41 -47 -296 -263 -324 -274 -12 -4 -15 5 -15 45 0
60 1 62 183 252 160 168 201 225 223 311 25 98 -4 218 -63 256 -30 20 -35 14
-63 -72 -12 -38 -36 -97 -53 -130 -47 -88 -182 -225 -222 -225 -3 0 -5 44 -5
98 0 81 4 103 21 132 11 19 97 111 190 203 181 181 217 225 243 300 28 82 14
205 -29 255 l-22 26 -17 -32 c-9 -17 -34 -72 -55 -121 -49 -114 -109 -200
-175 -250 -55 -43 -135 -83 -148 -75 -12 8 -9 143 4 167 6 12 86 99 177 193
184 189 222 245 247 364 18 88 10 156 -23 208 -40 61 -83 78 -83 33 0 -44 -43
-180 -72 -229 -18 -29 -55 -75 -83 -104 -49 -50 -144 -118 -165 -118 -22 0 5
87 70 229 102 222 133 327 132 446 -3 179 -99 347 -220 383 -45 14 -82 16 -82
5z"/>
<path d="M3095 8249 c-135 -11 -342 -46 -443 -75 -105 -31 -211 -84 -257 -129
-69 -70 -140 -65 939 -65 626 0 977 4 981 10 11 18 -82 98 -157 134 -210 101
-680 156 -1063 125z"/>
<path d="M2292 6623 c3 -1414 -4 -1295 79 -1350 57 -38 160 -41 406 -14 272
31 390 13 509 -78 l51 -38 24 19 c137 109 248 130 531 99 292 -33 367 -28 432
29 18 16 38 47 44 68 9 29 12 360 12 1281 l0 1241 -1045 0 -1045 0 2 -1257z"/>
<path d="M8215 6440 c-44 -5 -113 -16 -154 -25 -168 -35 -284 -122 -249 -188
17 -33 36 -45 112 -68 128 -39 114 -16 511 -839 192 -399 372 -765 400 -815
87 -156 144 -195 282 -195 90 1 150 34 216 121 15 20 219 403 453 850 234 448
438 830 453 849 38 48 91 76 181 96 41 9 92 25 113 35 32 17 37 24 37 53 0 45
-45 88 -118 112 -50 17 -91 19 -342 19 -303 0 -355 -7 -452 -56 -80 -41 -76
-103 9 -153 61 -36 79 -58 88 -107 11 -58 -10 -111 -148 -378 -150 -289 -196
-351 -260 -351 -70 0 -97 36 -246 340 -114 234 -135 284 -139 333 -5 63 -5 62
121 175 44 40 47 69 9 105 -33 31 -91 54 -192 73 -91 18 -566 27 -685 14z"/>
<path d="M7190 4983 c-14 -2 -59 -13 -100 -24 -150 -40 -200 -93 -200 -211 0
-80 21 -116 96 -164 37 -24 61 -47 70 -70 11 -27 14 -136 14 -614 0 -640 2
-617 -62 -661 -92 -62 -130 -117 -130 -184 0 -72 42 -129 115 -160 53 -22 271
-32 361 -16 140 25 197 72 204 170 4 70 -14 104 -86 161 -29 23 -57 52 -62 66
-11 28 -12 535 -1 573 23 83 88 27 146 -125 90 -235 215 -544 246 -609 19 -38
42 -74 52 -80 30 -16 71 44 124 180 142 369 177 454 222 547 53 107 103 178
126 178 31 0 39 -44 43 -260 5 -248 -7 -399 -36 -457 -11 -21 -39 -61 -61 -88
-50 -61 -53 -93 -11 -128 55 -47 88 -52 330 -51 232 0 299 9 372 45 20 10 44
29 52 41 30 43 20 69 -48 133 -99 93 -106 137 -106 722 l0 412 -58 90 c-32 50
-110 196 -173 326 -62 129 -117 235 -121 235 -22 0 -164 -275 -323 -625 -100
-220 -127 -269 -161 -291 -66 -44 -109 27 -311 511 -139 332 -177 391 -275
420 -48 14 -185 19 -248 8z"/>
</g>
</svg>
