<?xml version="1.0" encoding="UTF-8"?>
<!-- Generator: visioncortex VTracer 0.6.4 -->
<svg version="1.1" xmlns="http://www.w3.org/2000/svg" width="1200" height="1063">
<path d="M0 0 C3.13 1.06 4.78 2.48 7.23 4.7 C55.36 45.35 126.07 64.02 187.61 68.88 C188.64 68.97 189.68 69.06 190.74 69.15 C284.32 76.06 379.32 61.17 457.61 6.88 C462.36 10.77 466.61 14.84 470.61 19.51 C471.16 20.15 471.71 20.79 472.27 21.45 C515.5 72.45 548.1 133.15 570.61 195.88 C570.98 196.91 571.34 197.94 571.73 199 C582.79 230.16 590.47 262.51 595.36 295.2 C595.46 295.86 595.56 296.53 595.66 297.22 C599.11 320.25 600.01 343.19 599.98 366.45 C599.98 367.16 599.98 367.87 599.98 368.6 C599.98 391.9 599.12 414.82 595.61 437.88 C595.32 439.8 595.32 439.8 595.04 441.76 C581.51 532.58 543.03 616.85 486.61 688.88 C485.88 689.81 485.15 690.74 484.4 691.7 C476.66 701.49 468.55 710.98 460.09 720.15 C458.17 722.26 456.3 724.39 454.44 726.56 C450.71 730.82 446.78 734.85 442.77 738.86 C442.04 739.58 441.31 740.31 440.57 741.06 C439.04 742.58 437.52 744.11 435.99 745.63 C433.67 747.94 431.36 750.26 429.05 752.57 C427.56 754.06 426.07 755.55 424.58 757.04 C423.9 757.73 423.22 758.41 422.52 759.11 C418.58 763.03 414.54 766.77 410.33 770.4 C408.11 772.31 405.95 774.28 403.79 776.26 C399.53 780.1 395.16 783.78 390.69 787.39 C388.46 789.19 386.23 791.01 384.02 792.85 C363.03 810.17 340.7 825.96 317.72 840.54 C315.59 841.89 313.47 843.26 311.34 844.63 C290.02 858.34 268 871.01 245.61 882.88 C244.6 883.42 243.59 883.96 242.56 884.51 C210 901.83 176.57 916.29 142.27 929.77 C119.88 938.57 100.25 948.18 82.61 964.88 C81.36 965.95 80.11 967.01 78.86 968.07 C70.38 975.45 62.36 983.6 55.1 992.17 C53.55 993.94 51.92 995.56 50.23 997.2 C46.11 1001.26 42.55 1005.72 38.94 1010.23 C37.5 1012.02 36.03 1013.79 34.56 1015.55 C25.44 1026.56 17.11 1038.01 9.26 1049.96 C8.44 1051.21 8.44 1051.21 7.6 1052.48 C6.54 1054.1 5.48 1055.72 4.44 1057.35 C3.96 1058.07 3.49 1058.8 3 1059.54 C2.59 1060.19 2.17 1060.83 1.74 1061.5 C1.37 1061.96 0.99 1062.41 0.61 1062.88 C-0.05 1062.88 -0.71 1062.88 -1.39 1062.88 C-2.68 1061.26 -2.68 1061.26 -4.16 1058.96 C-4.71 1058.11 -5.27 1057.26 -5.84 1056.38 C-6.43 1055.45 -7.03 1054.53 -7.64 1053.57 C-21.15 1032.98 -35.99 1013.43 -52.88 995.49 C-54.59 993.67 -56.29 991.84 -57.99 990.01 C-84.63 961.35 -110.78 941.92 -147.39 927.88 C-209.04 904.13 -267.69 874.16 -322.77 837.62 C-325.24 835.99 -327.72 834.36 -330.2 832.73 C-359.22 813.64 -387 792.25 -412.45 768.59 C-414.62 766.57 -416.84 764.63 -419.08 762.7 C-423.34 758.98 -427.37 755.05 -431.37 751.04 C-432.46 749.95 -432.46 749.95 -433.57 748.84 C-435.09 747.32 -436.62 745.79 -438.14 744.27 C-440.45 741.95 -442.77 739.64 -445.08 737.33 C-446.57 735.84 -448.06 734.35 -449.55 732.86 C-450.24 732.18 -450.92 731.49 -451.62 730.79 C-456.08 726.32 -460.29 721.68 -464.39 716.88 C-465.34 715.79 -466.29 714.69 -467.25 713.6 C-524.35 647.48 -566.9 570.11 -587.39 484.88 C-587.65 483.81 -587.91 482.73 -588.18 481.63 C-591.53 467.52 -594.08 453.35 -596.14 439.01 C-596.3 437.96 -596.3 437.96 -596.45 436.9 C-597.17 431.9 -597.8 426.9 -598.39 421.88 C-598.49 421.1 -598.58 420.31 -598.68 419.51 C-600.52 403.74 -600.74 388 -600.71 372.16 C-600.71 369.36 -600.71 366.57 -600.73 363.78 C-600.9 337.55 -599.19 311.7 -594.64 285.82 C-594.52 285.09 -594.39 284.35 -594.26 283.59 C-590.21 259.97 -584.54 236.76 -577.39 213.88 C-577.11 212.94 -576.82 212.01 -576.52 211.04 C-555.69 143.98 -520.75 78.54 -475.39 24.88 C-474.47 23.76 -473.54 22.63 -472.61 21.51 C-471.64 20.34 -470.68 19.17 -469.71 18.01 C-469.27 17.47 -468.83 16.94 -468.37 16.38 C-465.32 12.74 -462.1 9.82 -458.39 6.88 C-457.94 7.19 -457.49 7.51 -457.03 7.83 C-445.81 15.52 -434.42 22.54 -422.39 28.88 C-421.75 29.23 -421.1 29.57 -420.44 29.93 C-384.63 48.94 -345.55 59.89 -305.58 65.7 C-304.57 65.84 -304.57 65.84 -303.54 66 C-281.48 69.2 -259.35 70.22 -237.08 70.14 C-233.4 70.13 -229.71 70.14 -226.03 70.16 C-205.35 70.17 -184.73 69.16 -164.27 66.07 C-163.12 65.9 -161.96 65.73 -160.77 65.55 C-107.49 57.41 -45.81 39.67 -5.33 2.2 C-2.39 -0.12 -2.39 -0.12 0 0 Z " fill="#FEFEFD" transform="translate(600.39453125,0.1171875)"/>
<path d="M0 0 C3.13 1.06 4.78 2.48 7.23 4.7 C55.36 45.35 126.07 64.02 187.61 68.88 C188.64 68.97 189.68 69.06 190.74 69.15 C284.32 76.06 379.32 61.17 457.61 6.88 C462.36 10.77 466.61 14.84 470.61 19.51 C471.16 20.15 471.71 20.79 472.27 21.45 C515.5 72.45 548.1 133.15 570.61 195.88 C570.98 196.91 571.34 197.94 571.73 199 C582.79 230.16 590.47 262.51 595.36 295.2 C595.46 295.86 595.56 296.53 595.66 297.22 C599.11 320.25 600.01 343.19 599.98 366.45 C599.98 367.16 599.98 367.87 599.98 368.6 C599.98 391.9 599.12 414.82 595.61 437.88 C595.32 439.8 595.32 439.8 595.04 441.76 C581.51 532.58 543.03 616.85 486.61 688.88 C485.88 689.81 485.15 690.74 484.4 691.7 C476.66 701.49 468.55 710.98 460.09 720.15 C458.17 722.26 456.3 724.39 454.44 726.56 C450.71 730.82 446.78 734.85 442.77 738.86 C442.04 739.58 441.31 740.31 440.57 741.06 C439.04 742.58 437.52 744.11 435.99 745.63 C433.67 747.94 431.36 750.26 429.05 752.57 C427.56 754.06 426.07 755.55 424.58 757.04 C423.9 757.73 423.22 758.41 422.52 759.11 C418.58 763.03 414.54 766.77 410.33 770.4 C408.11 772.31 405.95 774.28 403.79 776.26 C399.53 780.1 395.16 783.78 390.69 787.39 C388.46 789.19 386.23 791.01 384.02 792.85 C363.03 810.17 340.7 825.96 317.72 840.54 C315.59 841.89 313.47 843.26 311.34 844.63 C290.02 858.34 268 871.01 245.61 882.88 C244.6 883.42 243.59 883.96 242.56 884.51 C210 901.83 176.57 916.29 142.27 929.77 C119.88 938.57 100.25 948.18 82.61 964.88 C81.36 965.95 80.11 967.01 78.86 968.07 C70.38 975.45 62.36 983.6 55.1 992.17 C53.55 993.94 51.92 995.56 50.23 997.2 C46.11 1001.26 42.55 1005.72 38.94 1010.23 C37.5 1012.02 36.03 1013.79 34.56 1015.55 C25.44 1026.56 17.11 1038.01 9.26 1049.96 C8.44 1051.21 8.44 1051.21 7.6 1052.48 C6.54 1054.1 5.48 1055.72 4.44 1057.35 C3.96 1058.07 3.49 1058.8 3 1059.54 C2.59 1060.19 2.17 1060.83 1.74 1061.5 C1.37 1061.96 0.99 1062.41 0.61 1062.88 C-0.05 1062.88 -0.71 1062.88 -1.39 1062.88 C-2.68 1061.26 -2.68 1061.26 -4.16 1058.96 C-4.71 1058.11 -5.27 1057.26 -5.84 1056.38 C-6.43 1055.45 -7.03 1054.53 -7.64 1053.57 C-21.15 1032.98 -35.99 1013.43 -52.88 995.49 C-54.59 993.67 -56.29 991.84 -57.99 990.01 C-84.63 961.35 -110.78 941.92 -147.39 927.88 C-209.04 904.13 -267.69 874.16 -322.77 837.62 C-325.24 835.99 -327.72 834.36 -330.2 832.73 C-359.22 813.64 -387 792.25 -412.45 768.59 C-414.62 766.57 -416.84 764.63 -419.08 762.7 C-423.34 758.98 -427.37 755.05 -431.37 751.04 C-432.46 749.95 -432.46 749.95 -433.57 748.84 C-435.09 747.32 -436.62 745.79 -438.14 744.27 C-440.45 741.95 -442.77 739.64 -445.08 737.33 C-446.57 735.84 -448.06 734.35 -449.55 732.86 C-450.24 732.18 -450.92 731.49 -451.62 730.79 C-456.08 726.32 -460.29 721.68 -464.39 716.88 C-465.34 715.79 -466.29 714.69 -467.25 713.6 C-524.35 647.48 -566.9 570.11 -587.39 484.88 C-587.65 483.81 -587.91 482.73 -588.18 481.63 C-591.53 467.52 -594.08 453.35 -596.14 439.01 C-596.3 437.96 -596.3 437.96 -596.45 436.9 C-597.17 431.9 -597.8 426.9 -598.39 421.88 C-598.49 421.1 -598.58 420.31 -598.68 419.51 C-600.52 403.74 -600.74 388 -600.71 372.16 C-600.71 369.36 -600.71 366.57 -600.73 363.78 C-600.9 337.55 -599.19 311.7 -594.64 285.82 C-594.52 285.09 -594.39 284.35 -594.26 283.59 C-590.21 259.97 -584.54 236.76 -577.39 213.88 C-577.11 212.94 -576.82 212.01 -576.52 211.04 C-555.69 143.98 -520.75 78.54 -475.39 24.88 C-474.47 23.76 -473.54 22.63 -472.61 21.51 C-471.64 20.34 -470.68 19.17 -469.71 18.01 C-469.27 17.47 -468.83 16.94 -468.37 16.38 C-465.32 12.74 -462.1 9.82 -458.39 6.88 C-457.94 7.19 -457.49 7.51 -457.03 7.83 C-445.81 15.52 -434.42 22.54 -422.39 28.88 C-421.75 29.23 -421.1 29.57 -420.44 29.93 C-384.63 48.94 -345.55 59.89 -305.58 65.7 C-304.57 65.84 -304.57 65.84 -303.54 66 C-281.48 69.2 -259.35 70.22 -237.08 70.14 C-233.4 70.13 -229.71 70.14 -226.03 70.16 C-205.35 70.17 -184.73 69.16 -164.27 66.07 C-163.12 65.9 -161.96 65.73 -160.77 65.55 C-107.49 57.41 -45.81 39.67 -5.33 2.2 C-2.39 -0.12 -2.39 -0.12 0 0 Z M-6.79 84.63 C-7.9 85.21 -9.01 85.8 -10.15 86.4 C-10.74 86.72 -11.33 87.03 -11.94 87.35 C-30.9 97.39 -49.99 105.76 -70.28 112.79 C-72.43 113.54 -74.56 114.32 -76.69 115.11 C-84.93 118.18 -93.18 120.51 -101.73 122.51 C-103.83 123.01 -105.93 123.51 -108.03 124.02 C-117.11 126.2 -126.22 128.12 -135.39 129.88 C-136.34 130.07 -137.28 130.25 -138.26 130.44 C-228.9 147.9 -329.8 139.96 -431.18 99.86 C-435.2 98.08 -439.3 96.49 -443.39 94.88 C-475.32 141.55 -502.21 192.48 -516.72 247.38 C-517.42 249.97 -518.16 252.54 -518.91 255.11 C-524.68 275.07 -528.11 295.35 -530.64 315.95 C-530.73 316.61 -530.81 317.28 -530.9 317.97 C-533.02 335.19 -533.63 352.41 -533.64 369.76 C-533.65 370.65 -533.65 371.53 -533.65 372.45 C-533.64 388.11 -532.55 403.35 -530.39 418.88 C-530.17 420.66 -529.95 422.43 -529.74 424.2 C-519.71 503.44 -486.81 579.27 -437.75 642.15 C-436.38 643.9 -435.03 645.67 -433.68 647.43 C-421.33 663.45 -407.83 678.72 -393.39 692.88 C-390.26 696 -387.15 699.14 -384.03 702.28 C-382.38 703.94 -380.73 705.6 -379.08 707.26 C-378.27 708.08 -377.45 708.91 -376.61 709.76 C-371.7 714.68 -366.68 719.38 -361.39 723.88 C-360.28 724.86 -359.16 725.83 -358.04 726.8 C-350.61 733.24 -343.04 739.44 -335.26 745.44 C-333.31 746.94 -331.38 748.46 -329.44 749.97 C-312.39 763.2 -294.61 775.32 -276.39 786.88 C-275.57 787.41 -274.74 787.93 -273.89 788.47 C-226.92 818.18 -177.7 843.37 -125.92 863.51 C-124.75 863.96 -123.59 864.42 -122.39 864.88 C-121.24 865.33 -120.09 865.78 -118.9 866.24 C-92.5 876.56 -68.18 888.58 -46.39 906.88 C-45.39 907.71 -44.38 908.53 -43.34 909.38 C-36.02 915.43 -29.18 921.91 -22.46 928.63 C-21.66 929.42 -20.87 930.22 -20.05 931.03 C-15.84 935.28 -11.78 939.62 -7.89 944.17 C-5.83 946.52 -3.64 948.7 -1.39 950.88 C1.83 949.47 3.96 947.77 6.42 945.26 C7.04 944.63 7.67 943.99 8.31 943.34 C10.22 941.3 12.05 939.23 13.87 937.11 C17.59 932.84 21.53 928.81 25.54 924.82 C26.21 924.15 26.87 923.48 27.56 922.79 C57.99 892.42 94.35 874.84 134.23 859.88 C154.89 852.12 174.8 842.57 194.61 832.88 C195.49 832.46 196.37 832.03 197.27 831.59 C211.05 824.91 224.36 817.54 237.61 809.88 C238.76 809.22 239.92 808.55 241.08 807.88 C257.6 798.39 273.79 788.52 289.61 777.88 C290.44 777.33 291.27 776.77 292.13 776.2 C309.31 764.68 325.93 752.51 341.87 739.32 C344.37 737.25 346.9 735.23 349.42 733.2 C354.11 729.36 358.6 725.32 363.05 721.21 C365.21 719.25 367.39 717.34 369.61 715.45 C373.46 712.11 377.02 708.5 380.6 704.87 C383.09 702.35 385.62 699.95 388.36 697.7 C391.49 695.1 394.04 692.17 396.66 689.07 C398.84 686.62 401.14 684.36 403.48 682.07 C407.79 677.81 411.62 673.33 415.39 668.59 C417.53 665.98 419.75 663.49 422.04 661.01 C426.73 655.84 430.99 650.39 435.16 644.81 C436.17 643.46 437.19 642.11 438.2 640.77 C447.23 628.82 455.65 616.57 463.61 603.88 C464.02 603.23 464.43 602.58 464.85 601.9 C481.83 574.67 495.39 545.92 506.61 515.88 C507.17 514.37 507.17 514.37 507.75 512.84 C524.72 467.25 533.07 416.91 532.98 368.32 C532.98 366.81 532.98 366.81 532.98 365.26 C532.96 347.15 531.65 329.41 529.11 311.48 C528.68 308.39 528.27 305.3 527.88 302.21 C519.59 238.96 494.43 178.15 461.61 123.88 C461.13 123.09 460.65 122.3 460.16 121.49 C454.63 112.39 448.76 103.57 442.61 94.88 C441.7 95.27 441.7 95.27 440.78 95.66 C394.83 115.15 348.34 129.25 298.6 134.8 C296.98 134.98 295.36 135.17 293.74 135.36 C285.89 136.28 278.33 137.12 270.42 136.44 C261.8 135.63 261.8 135.63 253.61 137.88 C247.34 144.03 243.94 152.35 240.34 160.23 C237.66 166 234.35 171.42 231.11 176.88 C229.85 179.05 228.61 181.21 227.36 183.38 C226.74 184.45 226.12 185.52 225.48 186.62 C223.6 189.9 221.71 193.18 219.82 196.45 C213.2 207.94 206.56 219.4 199.87 230.84 C194.96 239.26 190.08 247.71 185.22 256.16 C180.98 263.52 176.71 270.86 172.42 278.2 C167.84 286.04 163.27 293.89 158.73 301.76 C158.21 302.65 157.69 303.54 157.16 304.46 C156.69 305.28 156.22 306.1 155.74 306.94 C155.32 307.65 154.91 308.37 154.48 309.11 C153.46 310.85 153.46 310.85 153.61 312.88 C160.76 311.59 167.65 309.8 174.61 307.7 C183.2 305.14 191.81 302.73 200.48 300.45 C210.86 297.71 221.11 294.65 231.33 291.37 C232.36 291.05 233.38 290.72 234.44 290.39 C235.34 290.1 236.25 289.81 237.18 289.51 C239.61 288.88 239.61 288.88 243.61 288.88 C236.5 301.54 229.32 314.16 221.98 326.69 C217.66 334.07 213.37 341.47 209.11 348.88 C204.3 357.23 199.47 365.57 194.61 373.88 C187.22 386.52 179.91 399.2 172.61 411.88 C164.73 425.56 156.84 439.22 148.87 452.84 C144.59 460.18 140.34 467.53 136.11 474.88 C130.73 484.22 125.31 493.54 119.88 502.84 C115.59 510.18 111.34 517.53 107.11 524.88 C102.3 533.23 97.47 541.57 92.61 549.88 C85.22 562.52 77.91 575.2 70.61 587.88 C62.73 601.56 54.84 615.22 46.87 628.84 C42.59 636.18 38.34 643.53 34.11 650.88 C29.3 659.23 24.47 667.57 19.61 675.88 C14.54 684.56 9.5 693.24 4.48 701.95 C3.85 703.03 3.22 704.12 2.58 705.24 C-0.42 710.45 -3.42 715.66 -6.39 720.88 C-8.48 715.59 -10.12 710.42 -11.38 704.88 C-11.55 704.13 -11.72 703.38 -11.9 702.61 C-12.27 701.01 -12.64 699.41 -13.01 697.81 C-13.99 693.56 -14.98 689.31 -15.98 685.07 C-16.18 684.21 -16.38 683.36 -16.59 682.47 C-18.82 672.98 -21.26 663.55 -23.74 654.12 C-25.77 646.4 -27.65 638.67 -29.39 630.88 C-30.38 630.88 -31.37 630.88 -32.39 630.88 C-32.95 631.9 -33.51 632.92 -34.09 633.98 C-39.54 643.88 -45.15 653.68 -50.87 663.43 C-55.24 670.9 -59.58 678.38 -63.89 685.88 C-68.7 694.23 -73.53 702.57 -78.39 710.88 C-83.95 720.39 -89.48 729.92 -94.97 739.47 C-97.88 744.54 -100.81 749.6 -103.79 754.64 C-104.3 755.52 -104.82 756.4 -105.35 757.31 C-106.31 758.94 -107.28 760.56 -108.25 762.19 C-108.67 762.9 -109.08 763.61 -109.52 764.35 C-110.06 765.27 -110.06 765.27 -110.62 766.21 C-111.6 768.03 -111.6 768.03 -111.39 770.88 C-109.15 772.63 -109.15 772.63 -106.21 774.24 C-104.6 775.17 -104.6 775.17 -102.96 776.12 C-101.83 776.77 -100.69 777.41 -99.52 778.07 C-97.83 779.05 -97.83 779.05 -96.1 780.05 C-91.05 783.42 -91.05 783.42 -85.39 784.88 C-85.39 785.54 -85.39 786.2 -85.39 786.88 C-86.12 787.01 -86.84 787.13 -87.59 787.26 C-90.36 787.87 -92.71 788.73 -95.32 789.85 C-96.28 790.26 -97.23 790.67 -98.22 791.09 C-99.26 791.54 -100.29 791.99 -101.36 792.45 C-102.99 793.15 -102.99 793.15 -104.66 793.86 C-107 794.87 -109.35 795.87 -111.69 796.88 C-115.96 798.71 -120.23 800.54 -124.5 802.37 C-125.11 802.63 -125.72 802.89 -126.35 803.16 C-126.95 803.42 -127.56 803.68 -128.19 803.95 C-130.04 804.74 -131.89 805.53 -133.74 806.32 C-143.86 810.66 -153.99 814.96 -164.14 819.23 C-166.54 820.24 -168.95 821.26 -171.36 822.27 C-172.8 822.88 -174.24 823.49 -175.69 824.09 C-176.33 824.37 -176.98 824.64 -177.64 824.92 C-180.21 825.99 -182.75 827 -185.39 827.88 C-185.35 826.27 -185.35 826.27 -185.31 824.62 C-185.31 819.06 -186.06 813.62 -186.79 808.12 C-186.93 806.98 -187.07 805.85 -187.22 804.68 C-187.53 802.25 -187.85 799.82 -188.16 797.4 C-188.97 791.08 -189.77 784.76 -190.57 778.44 C-190.73 777.19 -190.89 775.94 -191.05 774.65 C-192.39 764.03 -193.65 753.4 -194.83 742.76 C-194.92 742.02 -195 741.28 -195.08 740.52 C-195.32 738.48 -195.54 736.43 -195.77 734.38 C-195.89 733.25 -196.01 732.13 -196.14 730.98 C-196.39 727.93 -196.44 724.94 -196.39 721.88 C-195.72 722.27 -195.04 722.66 -194.35 723.06 C-191.28 724.82 -188.21 726.57 -185.14 728.32 C-184.08 728.93 -183.02 729.54 -181.92 730.17 C-180.9 730.76 -179.87 731.34 -178.82 731.94 C-177.4 732.75 -177.4 732.75 -175.96 733.58 C-173.72 734.71 -171.84 735.42 -169.39 735.88 C-168.84 734.86 -168.28 733.84 -167.7 732.79 C-162.25 722.89 -156.63 713.09 -150.92 703.33 C-146.55 695.87 -142.21 688.38 -137.89 680.88 C-132.52 671.54 -127.1 662.23 -121.66 652.92 C-117.38 645.59 -113.13 638.24 -108.89 630.88 C-103.52 621.54 -98.1 612.23 -92.66 602.92 C-88.38 595.59 -84.13 588.24 -79.89 580.88 C-75.09 572.53 -70.26 564.2 -65.39 555.88 C-58.01 543.25 -50.7 530.57 -43.39 517.88 C-35.84 504.76 -28.27 491.65 -20.64 478.57 C-20.06 477.57 -19.48 476.57 -18.87 475.53 C-16.4 471.3 -13.92 467.08 -11.39 462.88 C-11.18 463.75 -10.97 464.61 -10.75 465.5 C-8.64 473.95 -6.5 482.39 -4.34 490.83 C-3.78 493 -3.22 495.17 -2.67 497.34 C-1.81 500.67 -0.96 503.99 -0.11 507.31 C0.74 510.59 1.58 513.86 2.41 517.14 C2.69 518.2 2.96 519.27 3.24 520.36 C5.32 528.58 7.22 536.82 8.99 545.11 C9.17 545.96 9.36 546.81 9.55 547.69 C9.7 548.43 9.86 549.17 10.02 549.93 C10.59 552.18 10.59 552.18 12.61 554.88 C20.14 542.21 27.59 529.48 34.95 516.7 C39.14 509.41 43.36 502.14 47.61 494.88 C52.47 486.57 57.3 478.23 62.11 469.88 C67.48 460.55 72.89 451.24 78.33 441.94 C83.34 433.36 88.3 424.76 93.25 416.15 C96.06 411.27 98.89 406.38 101.77 401.54 C102.25 400.74 102.72 399.94 103.21 399.12 C104.07 397.67 104.94 396.23 105.81 394.78 C107.91 391.56 107.91 391.56 108.61 387.88 C102.89 388.68 97.41 390.19 91.86 391.7 C90.76 391.99 89.66 392.29 88.53 392.6 C77.34 395.64 66.19 398.82 55.04 402.01 C54.16 402.26 53.27 402.51 52.36 402.78 C40.76 406.09 29.17 409.46 17.61 412.88 C23.88 402.02 30.14 391.15 36.41 380.28 C37.33 378.69 37.33 378.69 38.26 377.08 C39.5 374.93 40.74 372.79 41.97 370.64 C45.12 365.2 48.25 359.76 51.39 354.31 C58.01 342.83 64.65 331.36 71.34 319.92 C75.62 312.59 79.87 305.24 84.11 297.88 C89.48 288.54 94.9 279.23 100.34 269.92 C104.62 262.59 108.87 255.24 113.11 247.88 C117.91 239.53 122.74 231.2 127.61 222.88 C132.44 214.61 137.25 206.31 142.04 198.01 C142.97 196.39 142.97 196.39 143.92 194.75 C147.11 189.22 150.29 183.69 153.46 178.16 C154.74 175.95 156.02 173.73 157.29 171.51 C157.91 170.44 158.52 169.37 159.16 168.26 C163.7 160.39 168.34 152.59 173.1 144.85 C173.8 143.7 173.8 143.7 174.51 142.54 C174.92 141.88 175.32 141.22 175.74 140.53 C176.76 138.9 176.76 138.9 176.61 136.88 C169.15 135.08 161.71 134.04 154.11 133.07 C140.47 131.25 127.03 128.91 113.61 125.88 C112.7 125.68 111.8 125.48 110.87 125.27 C83.78 119.02 56.69 109.87 31.61 97.88 C30.49 97.35 30.49 97.35 29.35 96.81 C23.27 93.88 17.3 90.8 11.36 87.61 C10.67 87.24 9.98 86.86 9.26 86.48 C7.94 85.77 6.62 85.05 5.3 84.32 C-0.12 81.37 -1.42 81.77 -6.79 84.63 Z " fill="#C6B22F" transform="translate(600.39453125,0.1171875)"/>
<path d="M0 0 C3.27 0.52 4.45 1.88 6.81 4.08 C9.36 5.86 11.9 6.55 14.88 7.44 C18.46 8.56 20.57 9.29 23.5 11.69 C25.19 15.4 25.56 18.43 24.75 22.44 C22.94 25.48 21.85 27.04 18.5 28.25 C17.92 28.31 17.35 28.37 16.75 28.44 C16.16 27.2 16.16 27.2 15.56 25.94 C14.96 25.11 14.37 24.29 13.75 23.44 C11.16 22.94 11.16 22.94 8.75 23.44 C7.5 24.46 7.5 24.46 7.73 26.59 C8.32 34.55 9.52 42.86 15.62 48.56 C19.11 50.66 20.78 50.6 24.75 50.44 C24.78 49.48 24.8 48.53 24.83 47.55 C24.88 46.3 24.94 45.04 25 43.75 C25.05 42.51 25.09 41.27 25.14 39.99 C25.83 35.96 26.8 34.23 29.75 31.44 C34.71 30.65 36.57 30.61 40.69 33.5 C43.95 38.14 43.93 41.84 43.31 47.38 C43.13 48.39 42.94 49.4 42.75 50.44 C50.01 51.01 50.01 51.01 56.75 48.81 C60.03 44.91 61.58 41.85 62.19 36.75 C62.03 33.49 62.03 33.49 60.31 31.5 C57.01 30.13 54.3 30.34 50.77 30.62 C50.11 30.56 49.44 30.5 48.75 30.44 C46.42 26.95 46.25 25.55 46.75 21.44 C50.44 16.88 53.34 16.32 59 15.62 C64.5 14.88 64.5 14.88 69.25 12.25 C71.75 10.44 71.75 10.44 74.2 10.56 C77.38 11.65 78.2 12.86 80.06 15.62 C83.01 19.69 86.01 22.44 90.15 25.25 C91.75 26.44 91.75 26.44 92.75 28.44 C93.28 32.95 93.62 36.33 90.75 40 C90.09 40.47 89.43 40.95 88.75 41.44 C86.48 40.42 84.96 39.7 83.38 37.75 C81.7 36.1 81.7 36.1 78.69 36.56 C75.46 37.18 75.46 37.18 73.75 40.44 C73.06 46.34 74.42 50.63 77.75 55.44 C81.21 58.26 84.36 58.93 88.75 59.44 C88.66 58.55 88.66 58.55 88.57 57.64 C88.33 53.32 88.33 51.09 90.75 47.38 C94.93 44.67 96.83 44.66 101.75 45.44 C105.02 48.14 105.66 49.74 106.19 53.94 C105.73 57.63 104.64 59.32 102.75 62.44 C102.98 65.77 102.98 65.77 104.75 68.44 C110.71 69.05 114.96 67.9 119.75 64.44 C122.2 61.99 124.2 59.54 125.75 56.44 C125.81 53.53 125.81 53.53 124.75 51.44 C121.89 50.75 121.89 50.75 118.75 50.44 C117.76 51.1 116.77 51.76 115.75 52.44 C113.75 50.44 113.75 50.44 113.48 48.38 C113.49 47.59 113.49 46.81 113.5 46 C113.49 44.83 113.49 44.83 113.48 43.63 C113.75 41.44 113.75 41.44 115.75 38.44 C117.77 38.04 117.77 38.04 120.21 38 C121.54 37.96 121.54 37.96 122.89 37.92 C123.81 37.9 124.74 37.89 125.69 37.88 C127.51 37.84 129.33 37.8 131.15 37.75 C132.37 37.73 132.37 37.73 133.61 37.71 C136.05 37.56 136.05 37.56 138.75 35.44 C140.07 35.44 141.39 35.44 142.75 35.44 C142.19 39.02 141.28 41.6 139.38 44.69 C118.59 79.31 113.12 107.92 114.1 148.04 C114.27 155.31 114.28 162.58 114.29 169.86 C114.32 182.82 114.45 195.79 114.66 208.76 C114.86 221.28 115.01 233.81 115.11 246.33 C115.11 247.11 115.12 247.89 115.12 248.69 C115.18 256.44 115.23 264.18 115.28 271.93 C115.3 274.94 115.32 277.96 115.34 280.97 C115.35 282.46 115.36 283.94 115.36 285.43 C115.42 294.83 115.52 304.23 115.66 313.63 C115.73 318.99 115.79 324.35 115.85 329.72 C115.88 332.2 115.92 334.67 115.97 337.15 C116.03 340.54 116.07 343.93 116.1 347.32 C116.14 348.78 116.14 348.78 116.18 350.27 C116.21 358.28 114.41 366.26 109.56 372.81 C101.17 380.64 91.7 382.8 80.5 382.69 C79.04 382.68 79.04 382.68 77.56 382.68 C71.46 382.6 65.49 382.19 59.44 381.44 C51.85 380.52 44.33 380.15 36.69 380.06 C35.65 380.04 34.62 380.01 33.55 379.98 C24.2 379.96 16.57 382.04 9.8 388.7 C9.33 389.19 8.86 389.68 8.38 390.19 C6.55 392.06 4.75 393.74 2.75 395.44 C-2.13 395.44 -2.54 394.58 -5.88 391.25 C-15.74 381.98 -24.48 380.24 -37.56 380.25 C-38.75 380.25 -39.93 380.25 -41.15 380.25 C-47.12 380.28 -52.86 380.47 -58.75 381.44 C-65.7 382.55 -72.59 382.73 -79.62 382.81 C-80.73 382.84 -81.84 382.86 -82.98 382.89 C-90 382.91 -95.14 381.91 -101.25 378.44 C-102.06 377.99 -102.87 377.55 -103.7 377.09 C-109.92 372.68 -113.42 366.96 -114.8 359.44 C-115.46 354.57 -115.35 349.71 -115.29 344.81 C-115.28 343.22 -115.28 343.22 -115.27 341.6 C-115.26 339.28 -115.24 336.96 -115.22 334.65 C-115.17 328.88 -115.13 323.11 -115.09 317.34 C-115.08 315.27 -115.07 313.19 -115.05 311.12 C-114.98 301 -114.94 290.88 -114.91 280.76 C-114.91 280.02 -114.91 279.29 -114.9 278.53 C-114.88 271.71 -114.87 264.89 -114.85 258.07 C-114.84 253.39 -114.83 248.71 -114.82 244.04 C-114.82 242.87 -114.82 242.87 -114.81 241.69 C-114.78 229.18 -114.69 216.67 -114.57 204.16 C-114.46 191.26 -114.41 178.37 -114.42 165.47 C-114.43 158.25 -114.4 151.03 -114.3 143.82 C-113.7 100.89 -113.7 100.89 -129.92 61.87 C-132.91 57.17 -135.38 52.31 -137.74 47.27 C-138.08 46.54 -138.42 45.82 -138.77 45.08 C-140.24 41.9 -141.47 38.85 -142.25 35.44 C-136.38 36.31 -136.38 36.31 -135.25 37.44 C-131.51 37.36 -127.78 37.26 -124.04 37.05 C-119.64 36.93 -117.84 37 -114.21 39.73 C-112.25 42.44 -112.25 42.44 -111.69 46.06 C-112.25 49.44 -112.25 49.44 -114.25 51.38 C-114.91 51.73 -115.57 52.08 -116.25 52.44 C-116.91 51.78 -117.57 51.12 -118.25 50.44 C-121.35 50.76 -121.35 50.76 -124.25 51.44 C-124.82 54.69 -124.72 56.74 -122.87 59.51 C-118.27 64.94 -118.27 64.94 -112.25 68.44 C-108.9 68.66 -105.6 68.61 -102.25 68.44 C-101.9 63.43 -101.9 63.43 -103.81 58.94 C-105.25 56.44 -105.25 56.44 -105.19 52.88 C-104.14 49.04 -103.59 47.58 -100.25 45.44 C-95.3 44.65 -95.3 44.65 -92.25 45.44 C-89.1 48.07 -87.51 49.55 -86.95 53.62 C-86.94 55.81 -86.94 55.81 -87.25 59.44 C-81.46 57.91 -77.54 56.79 -74.25 51.44 C-73.02 48.98 -73.05 47.24 -73 44.5 C-72.97 43.62 -72.95 42.75 -72.92 41.85 C-73.05 39.39 -73.05 39.39 -74.61 37.65 C-76.25 36.26 -76.25 36.26 -78.69 35.94 C-82.28 36.64 -83.26 38.49 -85.25 41.44 C-87.83 41.08 -89.07 40.6 -91 38.81 C-92.85 35.3 -92.91 33.37 -92.25 29.44 C-89.03 24.45 -85.8 21.5 -80.25 19.44 C-79.07 17.06 -79.07 17.06 -78.25 14.44 C-77.29 13.07 -76.3 11.73 -75.25 10.44 C-70.77 10.87 -68.03 12.18 -64.24 14.53 C-61.11 15.96 -57.96 15.95 -54.56 16.16 C-51.54 16.52 -49.6 17.54 -47.25 19.44 C-45.77 22.39 -46.19 25.18 -46.25 28.44 C-49 30.2 -50.4 30.43 -53.75 30.38 C-57.15 30.24 -57.15 30.24 -59.75 31.38 C-61.56 33.86 -61.45 34.74 -61.25 37.75 C-60.56 42.09 -59.09 45.02 -56.25 48.44 C-52.83 50.72 -51.57 50.66 -47.56 50.56 C-46.57 50.54 -45.57 50.53 -44.55 50.51 C-43.79 50.48 -43.03 50.46 -42.25 50.44 C-42.31 49.48 -42.37 48.53 -42.43 47.55 C-42.79 37.35 -42.79 37.35 -40.25 33.06 C-36.38 30.97 -33.54 30.28 -29.25 31.44 C-26.31 33.58 -25.48 34.19 -24.25 37.44 C-23.85 41.8 -23.96 46.07 -24.25 50.44 C-19.54 50.55 -16.99 50.49 -13.25 47.44 C-8.07 39.74 -6.92 32.6 -7.25 23.44 C-9.23 23.44 -11.21 23.44 -13.25 23.44 C-13.91 25.09 -14.57 26.74 -15.25 28.44 C-18.91 27.94 -20.96 27.42 -23.25 24.44 C-24.46 20.8 -24.65 18.26 -24.25 14.44 C-21.05 9.89 -17.57 8.68 -12.47 7.19 C-7.8 5.61 -4.5 0.88 0 0 Z " fill="#DE361F" transform="translate(333.25,167.5625)"/>
<path d="M0 0 C0.83 0.04 0.83 0.04 1.67 0.08 C18.09 0.88 34.5 1.29 50.94 1.56 C53.39 1.61 55.83 1.65 58.28 1.69 C64.19 1.8 70.09 1.9 76 2 C74.74 6.11 73.22 9.65 71.05 13.36 C70.46 14.38 69.86 15.4 69.25 16.45 C68.61 17.54 67.97 18.63 67.31 19.75 C66.64 20.91 65.96 22.06 65.29 23.22 C63.89 25.62 62.49 28.02 61.09 30.42 C57.85 35.97 54.64 41.55 51.44 47.12 C46.08 56.42 40.68 65.7 35.27 74.96 C30.99 82.29 26.74 89.64 22.5 97 C17.69 105.35 12.86 113.68 8 122 C-2.47 139.92 -12.89 157.87 -23 176 C-10.81 172.64 1.36 169.24 13.44 165.5 C22.85 162.58 32.33 159.97 41.87 157.48 C48.13 155.84 54.23 153.96 60.32 151.76 C63.02 150.99 65.21 150.85 68 151 C64.16 158.91 60.04 166.57 55.56 174.12 C54.32 176.23 53.09 178.34 51.85 180.45 C51.21 181.52 50.58 182.6 49.93 183.71 C46.76 189.12 43.63 194.56 40.5 200 C35.12 209.34 29.71 218.66 24.27 227.96 C19.99 235.29 15.74 242.64 11.5 250 C6.12 259.34 0.71 268.66 -4.73 277.96 C-9.01 285.29 -13.26 292.64 -17.5 300 C-22.31 308.35 -27.14 316.68 -32 325 C-39.38 337.64 -46.69 350.32 -54 363 C-61.88 376.67 -69.77 390.34 -77.73 403.96 C-82.01 411.29 -86.26 418.64 -90.5 426 C-95.88 435.34 -101.29 444.66 -106.73 453.96 C-111.01 461.29 -115.26 468.64 -119.5 476 C-124.88 485.34 -130.29 494.66 -135.73 503.96 C-140.01 511.29 -144.26 518.64 -148.5 526 C-159.87 545.74 -171.38 565.4 -183 585 C-188.89 576.17 -190.11 563.27 -192.43 553.03 C-195.01 541.72 -197.91 530.49 -200.84 519.27 C-203.03 510.87 -205.11 502.47 -207 494 C-209.29 496.93 -211.2 499.94 -213.05 503.16 C-213.64 504.19 -214.23 505.22 -214.83 506.27 C-215.47 507.38 -216.1 508.49 -216.75 509.62 C-217.42 510.79 -218.09 511.96 -218.76 513.12 C-220.15 515.54 -221.54 517.96 -222.93 520.39 C-226.13 525.97 -229.35 531.55 -232.56 537.12 C-233.18 538.2 -233.8 539.28 -234.44 540.39 C-239.18 548.59 -243.95 556.78 -248.73 564.96 C-253.64 573.37 -258.51 581.81 -263.37 590.25 C-266.52 595.72 -269.69 601.18 -272.88 606.62 C-273.51 607.7 -274.14 608.77 -274.79 609.87 C-275.97 611.89 -277.16 613.9 -278.35 615.91 C-281.82 621.83 -285.02 627.82 -288 634 C-287.28 634.27 -286.56 634.54 -285.82 634.82 C-283.04 635.98 -280.52 637.32 -277.92 638.82 C-276.99 639.36 -276.06 639.89 -275.1 640.44 C-274.14 641 -273.18 641.55 -272.19 642.12 C-271.21 642.69 -270.23 643.25 -269.22 643.83 C-266.81 645.22 -264.41 646.61 -262 648 C-262 648.66 -262 649.32 -262 650 C-263.09 650.46 -264.18 650.92 -265.31 651.4 C-268.66 652.81 -272.01 654.23 -275.37 655.64 C-279.33 657.31 -283.29 658.99 -287.26 660.66 C-297.45 664.96 -307.65 669.27 -317.83 673.61 C-322.59 675.64 -327.37 677.67 -332.14 679.7 C-334.46 680.69 -336.79 681.69 -339.11 682.68 C-342.38 684.08 -345.65 685.47 -348.91 686.86 C-350.38 687.49 -350.38 687.49 -351.88 688.13 C-352.78 688.51 -353.68 688.89 -354.6 689.28 C-355.38 689.62 -356.16 689.95 -356.97 690.29 C-359 691 -359 691 -362 691 C-364.66 670.59 -367.25 650.18 -369.69 629.75 C-369.79 628.9 -369.89 628.04 -370 627.16 C-371.09 618.01 -372.15 608.86 -373.14 599.7 C-373.27 598.55 -373.27 598.55 -373.41 597.37 C-373.89 592.88 -374.08 588.51 -374 584 C-366.25 587.69 -358.94 591.76 -351.71 596.36 C-349.05 598.11 -349.05 598.11 -346 599 C-345.73 598.12 -345.47 597.25 -345.2 596.34 C-344.03 593.09 -342.65 590.44 -340.87 587.49 C-340.23 586.44 -339.6 585.38 -338.95 584.3 C-338.44 583.46 -338.44 583.46 -337.93 582.61 C-336.1 579.6 -334.3 576.58 -332.5 573.56 C-332.12 572.93 -331.75 572.31 -331.36 571.66 C-327.47 565.14 -323.69 558.54 -319.94 551.94 C-319.27 550.77 -318.6 549.6 -317.94 548.42 C-316.94 546.67 -315.95 544.92 -314.95 543.17 C-306.16 527.74 -297.23 512.38 -288.27 497.04 C-283.99 489.71 -279.74 482.36 -275.5 475 C-270.12 465.66 -264.71 456.34 -259.27 447.04 C-254.99 439.71 -250.74 432.36 -246.5 425 C-241.69 416.65 -236.86 408.32 -232 400 C-227.16 391.72 -222.35 383.43 -217.56 375.12 C-216.95 374.06 -216.33 372.99 -215.69 371.88 C-212.78 366.84 -209.88 361.79 -206.98 356.73 C-205.97 354.98 -204.96 353.22 -203.95 351.46 C-202.7 349.27 -201.44 347.08 -200.19 344.89 C-196.3 338.14 -192.24 331.53 -188 325 C-185.94 328.08 -185.38 330.05 -184.59 333.62 C-184.2 335.37 -184.2 335.37 -183.79 337.15 C-183.51 338.42 -183.23 339.69 -182.94 341 C-182.32 343.73 -181.69 346.46 -181.07 349.19 C-180.9 349.9 -180.74 350.61 -180.57 351.35 C-178.65 359.6 -176.51 367.8 -174.38 376 C-171.54 386.89 -168.8 397.78 -166.41 408.78 C-165.55 413.01 -165.55 413.01 -164 417 C-163.38 415.92 -163.38 415.92 -162.75 414.81 C-154.97 401.15 -147.16 387.51 -139.22 373.94 C-134.95 366.64 -130.72 359.33 -126.5 352 C-121.69 343.65 -116.86 335.32 -112 327 C-105.26 315.47 -98.59 303.91 -91.93 292.34 C-89.27 287.73 -86.61 283.12 -83.95 278.51 C-82.7 276.33 -81.44 274.16 -80.19 271.98 C-76.15 264.97 -72.08 257.98 -68 251 C-80.35 254.43 -92.7 257.89 -105 261.5 C-114.41 264.26 -123.85 266.94 -133.3 269.57 C-140.06 271.45 -146.8 273.38 -153.52 275.37 C-156 276 -156 276 -159 276 C-157.58 272.21 -155.85 268.8 -153.83 265.3 C-153.19 264.19 -152.56 263.07 -151.9 261.93 C-151.2 260.72 -150.51 259.52 -149.81 258.31 C-149.09 257.06 -148.37 255.8 -147.65 254.55 C-145.79 251.32 -143.94 248.09 -142.08 244.87 C-141.05 243.09 -140.03 241.31 -139 239.53 C-131.8 227.01 -124.56 214.51 -117.27 202.04 C-112.99 194.71 -108.74 187.36 -104.5 180 C-99.69 171.65 -94.86 163.32 -90 155 C-82.62 142.36 -75.31 129.68 -68 117 C-60.12 103.33 -52.23 89.66 -44.27 76.04 C-39.99 68.71 -35.74 61.36 -31.5 54 C-21.1 35.94 -10.58 17.95 0 0 Z " fill="#E6391F" transform="translate(777,137)"/>
<path d="M0 0 C1.03 0.27 2.06 0.53 3.12 0.81 C21.41 6.16 36.23 18.08 45.5 34.69 C54.22 52.55 54.07 72.36 48 91 C43.34 103.5 35.78 112.25 25.2 120.18 C22.99 122.01 21.44 123.51 20 126 C19.75 128.67 19.75 128.67 20 131 C20.5 131.26 21 131.52 21.51 131.79 C39.3 141.19 52.5 151.01 59 171 C61.83 180.66 62.9 190.2 63.73 200.2 C64.52 208.47 65.74 215.59 71.62 221.75 C74.27 223.73 77.13 225.04 80.12 226.44 C84.57 228.61 87.04 230.27 89 235 C89.89 240.14 89.66 244.54 87.06 249.12 C81.67 256.63 74.78 262.12 66 265 C65.13 265.3 64.25 265.6 63.35 265.9 C52.46 269 41.21 268.28 30 268 C30 267.67 30 267.34 30 267 C31 266.76 32 266.52 33.04 266.27 C44.97 263.76 44.97 263.76 53.94 256.19 C55.55 251.36 55.61 247.76 53.94 242.94 C49.32 235.93 43.04 232.14 35 230 C17.72 226.7 -0.46 227.36 -18 227 C-18.16 226.33 -18.32 225.67 -18.48 224.98 C-19.99 218.62 -21.51 212.27 -23.06 205.92 C-23.86 202.66 -24.64 199.4 -25.42 196.13 C-30.84 169 -30.84 169 -48 148.71 C-50.72 147.75 -53.12 147.66 -56 147.62 C-57.03 147.6 -58.06 147.57 -59.12 147.54 C-62.68 148.11 -63.78 149.24 -66 152 C-67.31 154.62 -67.16 156.61 -67.21 159.54 C-67.23 160.71 -67.25 161.87 -67.27 163.07 C-67.33 168.42 -67.37 173.77 -67.41 179.13 C-67.42 181.94 -67.46 184.76 -67.51 187.57 C-67.58 191.64 -67.6 195.7 -67.62 199.77 C-67.66 201.64 -67.66 201.64 -67.71 203.54 C-67.68 212.76 -65.6 220.62 -59.49 227.77 C-57.84 229.35 -57.84 229.35 -55.12 231.25 C-54.16 231.98 -53.19 232.7 -52.2 233.45 C-51.11 234.22 -51.11 234.22 -50 235 C-50.63 235.72 -50.63 235.72 -51.28 236.46 C-51.83 237.09 -52.37 237.72 -52.94 238.38 C-53.48 239 -54.03 239.63 -54.59 240.27 C-57.09 243.34 -57.25 245.74 -57.56 249.62 C-57.65 250.63 -57.73 251.63 -57.82 252.66 C-57.88 253.43 -57.94 254.21 -58 255 C-60.5 255.65 -63 256.3 -65.5 256.94 C-66.2 257.12 -66.89 257.3 -67.61 257.49 C-74.39 259.22 -80.98 260.15 -88 260.06 C-88.95 260.05 -89.9 260.04 -90.88 260.04 C-91.93 260.02 -91.93 260.02 -93 260 C-92.68 259.45 -92.36 258.9 -92.03 258.33 C-90.12 254 -90.3 249.62 -91 245 C-93.22 239.61 -97.97 237.22 -103 234.75 C-121.11 227.23 -142.75 228.37 -162 228 C-162 227.34 -162 226.68 -162 226 C-160.21 224.48 -160.21 224.48 -157.81 222.75 C-150.64 217.28 -146.43 211.7 -144 203 C-143.44 197.98 -143.45 192.99 -143.48 187.95 C-143.48 186.45 -143.47 184.96 -143.46 183.46 C-143.44 179.42 -143.45 175.39 -143.46 171.35 C-143.47 167.12 -143.46 162.88 -143.46 158.65 C-143.45 151.54 -143.46 144.43 -143.48 137.32 C-143.5 129.11 -143.49 120.9 -143.47 112.7 C-143.45 105.64 -143.45 98.57 -143.46 91.51 C-143.47 87.3 -143.47 83.09 -143.45 78.88 C-143.44 74.92 -143.45 70.96 -143.47 67 C-143.48 65.55 -143.48 64.11 -143.47 62.66 C-143.38 50.46 -143.38 50.46 -149.62 40.32 C-152.73 37.45 -156.17 35.25 -159.75 33 C-163.62 30.44 -165.67 28.61 -167 24 C-167.62 19.17 -167.57 15.31 -165.62 10.81 C-158.66 3.36 -150.47 -1.33 -140.22 -2.25 C-137.33 -2.33 -134.45 -2.31 -131.56 -2.25 C-130.6 -2.24 -129.64 -2.24 -128.65 -2.23 C-124.05 -2.18 -119.52 -1.98 -114.95 -1.5 C-106.76 -0.69 -98.53 -0.81 -90.31 -0.81 C-89.01 -0.81 -89.01 -0.81 -87.68 -0.81 C-77.55 -0.81 -67.53 -0.98 -57.44 -2 C-38.55 -3.9 -18.46 -5.13 0 0 Z " fill="#020202" transform="translate(1010,182)"/>
<path d="M0 0 C7.07 -0.93 13.03 2.86 18.59 6.87 C27.28 14.55 31.06 25.98 32.38 37.22 C33.01 53.55 26.19 69.1 19.39 83.59 C18.94 84.56 18.48 85.54 18.01 86.55 C17.1 88.48 16.18 90.41 15.25 92.32 C12.81 97.5 11.42 101.26 12 107 C24.79 99.47 35.36 90.5 39.25 75.55 C39.97 72.58 40.58 69.59 41.18 66.59 C42 63 42 63 44 60 C48.63 61.19 50.4 63.47 52.98 67.25 C56.68 73.63 55.68 81.89 54.16 88.8 C49.67 103.54 40.11 113.31 29.31 123.81 C27.63 125.46 25.95 127.11 24.28 128.76 C23.25 129.77 22.21 130.78 21.17 131.79 C14.24 137.99 14.24 137.99 11.29 146.3 C11.26 147.05 11.23 147.8 11.21 148.57 C11.2 149.33 11.19 150.09 11.19 150.88 C11.16 151.66 11.14 152.44 11.11 153.25 C11.05 155.17 11.02 157.08 11 159 C32.68 149.26 40.01 133.08 49 112 C52.84 112.81 52.84 112.81 54.27 114.5 C58.25 122.84 58.68 132.55 55.96 141.35 C52.58 148.66 47.64 154.32 42 160 C41.32 160.71 40.63 161.42 39.93 162.15 C36.82 165.33 33.65 168.33 30.25 171.19 C26.43 174.46 23.03 178.06 19.62 181.75 C19.1 182.32 18.58 182.88 18.04 183.47 C12.99 188.89 12.99 188.89 11.8 195.89 C11.81 197.29 11.81 197.29 11.82 198.73 C11.84 199.7 11.86 200.68 11.88 201.69 C11.88 202.68 11.89 203.66 11.9 204.68 C11.93 207.12 11.96 209.56 12 212 C27.25 200.8 34.8 187.07 40 169 C43.83 169.55 44.83 169.83 47.69 172.69 C52.54 179.18 52.78 186.14 52 194 C48.33 209.7 35.16 220.97 24.07 231.9 C21.42 234.59 18.95 237.4 16.51 240.27 C15 242 15 242 13.32 243.37 C11.38 245.77 11.71 247.66 11.81 250.69 C11.84 251.68 11.87 252.68 11.89 253.7 C11.93 254.46 11.96 255.22 12 256 C12.82 255.3 13.64 254.6 14.49 253.88 C19.76 249.4 25.03 244.93 30.44 240.62 C31.24 239.98 32.04 239.34 32.86 238.68 C34.59 237.32 36.35 236 38.12 234.69 C45.81 227.51 50.64 218.46 55 209 C58 210 58 210 59.65 212.49 C62.72 220.47 62.34 230.54 59.9 238.66 C55.18 248.64 47.99 254.36 38.69 259.88 C22.31 269.89 22.31 269.89 12.44 285.85 C11.65 289.7 11.82 293.58 11.81 297.5 C11.8 298.35 11.79 299.21 11.78 300.09 C11.77 300.92 11.77 301.74 11.77 302.59 C11.77 303.34 11.76 304.09 11.76 304.87 C12.03 307.28 12.8 308.9 14 311 C14.44 310.36 14.88 309.71 15.33 309.05 C22.44 298.92 30.77 290.12 39.62 281.5 C47.8 273.4 54.91 264.37 60 254 C64.81 257.19 65.87 260.48 67 266 C68.09 275.57 66.69 284.75 61.08 292.73 C55.49 299.27 49.05 303.76 41.86 308.37 C40.26 309.4 38.67 310.43 37.07 311.47 C35.47 312.51 33.86 313.54 32.24 314.56 C27.63 317.56 24.55 320.07 22 325 C21.76 331.57 24.99 335.23 29 340 C29.42 340.56 29.84 341.13 30.27 341.71 C38.79 352.71 51.88 359.72 64 366 C64.97 366.51 65.94 367.01 66.93 367.53 C92.1 379.8 121.7 378.16 148.95 378.17 C151 378.17 153.06 378.17 155.11 378.17 C162.32 378.18 169.53 378.19 176.75 378.19 C183.39 378.18 190.03 378.2 196.67 378.21 C202.44 378.22 208.21 378.23 213.98 378.23 C217.4 378.23 220.82 378.23 224.23 378.24 C237.42 378.28 250.54 378.14 263.7 377.13 C264.69 377.05 265.67 376.98 266.69 376.9 C296.73 374.28 323.93 360.84 344.12 338.46 C346.84 334.9 348.72 331.47 349.56 327.06 C348.58 321.73 344.92 318.39 340.61 315.27 C337.85 313.5 335.06 311.81 332.25 310.12 C319.53 302.24 309.91 295.74 305 281 C304.82 278.09 304.72 275.22 304.69 272.31 C304.66 271.53 304.63 270.76 304.6 269.96 C304.54 264.33 305.52 259.57 309 255 C309.99 254.67 310.98 254.34 312 254 C312.27 254.61 312.54 255.21 312.81 255.84 C317.77 266.44 325.12 274.29 333.4 282.41 C336.16 285.16 338.73 288.01 341.25 290.97 C343.32 293.37 345.47 295.68 347.62 298 C357 308.38 357 308.38 357 313 C357.66 313 358.32 313 359 313 C359.12 308.67 359.19 304.33 359.25 300 C359.28 298.78 359.32 297.56 359.35 296.3 C359.46 286.66 357.63 280.16 351.07 272.91 C344.19 266.57 336.1 261.6 328.06 256.88 C319.22 251.51 314.69 245.56 311 236 C310.67 235.34 310.34 234.68 310 234 C308.86 216.56 308.86 216.56 314 209 C314.66 209 315.32 209 316 209 C316.67 210.42 316.67 210.42 317.36 211.86 C326.9 231.18 342.91 243.53 360 256 C360.56 250.59 360.12 246.07 356.65 241.76 C353.6 238.34 350.31 235.17 347 232 C346 231.01 345 230.01 344 229.01 C342.16 227.17 340.32 225.32 338.47 223.49 C328.74 213.68 319.18 202.38 318.5 187.94 C318.79 181.41 321.05 175.56 325 170.38 C327 169 327 169 331 169 C331.42 170.24 331.85 171.49 332.29 172.77 C335.58 182.22 338.88 190.96 345 199 C345.57 199.75 346.13 200.49 346.71 201.26 C350.58 206.01 354.77 208.89 360 212 C360.85 197.85 360.85 197.85 355.56 185.31 C354.29 184.04 353.02 182.77 351.68 181.56 C349.61 179.64 347.65 177.62 345.68 175.59 C339.85 169.62 334.02 163.69 327.68 158.26 C319.88 151.52 314.72 143.18 313.69 132.86 C313.43 126.06 313.82 119.64 318 114 C320.14 112.76 320.14 112.76 322 112 C322.83 113.67 323.67 115.33 324.5 117 C325.32 118.63 325.32 118.63 326.16 120.3 C327.45 122.88 328.72 125.48 329.97 128.08 C337.03 142.66 344.25 153.01 360 159 C360.08 156.37 360.09 153.76 360.06 151.12 C360.1 150.03 360.1 150.03 360.15 148.92 C359.98 141.16 355.32 137.18 350 132 C349.18 131.18 348.36 130.36 347.52 129.51 C344.16 126.17 340.78 122.87 337.37 119.59 C329.97 112.31 322.84 104.45 319.06 94.62 C318.68 93.67 318.3 92.71 317.91 91.73 C315.2 83.62 314.5 75.35 318.25 67.5 C320.03 64.12 321.71 61.99 325 60 C325.99 60 326.98 60 328 60 C328.17 60.82 328.34 61.64 328.52 62.49 C331.94 78.25 337.59 92.17 351 102 C353.93 103.82 356.92 105.45 360 107 C358.88 99.16 356.28 92.76 352.81 85.69 C343.47 65.77 334.32 44.72 342.12 22.62 C345.99 14.3 351.67 5.84 360.3 1.96 C364.12 0.62 366.9 0 371 0 C370.69 2.94 370.38 5.88 370.06 8.81 C369.98 9.65 369.89 10.48 369.8 11.34 C369.71 12.14 369.62 12.94 369.54 13.77 C369.46 14.51 369.38 15.25 369.3 16.01 C369 18 369 18 368 21 C367.77 24.23 367.81 27.46 367.81 30.69 C367.8 31.56 367.79 32.43 367.78 33.33 C367.76 40.13 368.87 45.69 371.07 52.14 C373.53 59.38 374.37 65.82 374.38 73.44 C374.38 74.7 374.38 74.7 374.38 75.98 C374.29 81 373.44 85.17 372 90 C371.76 93.28 371.76 93.28 371.88 96.44 C371.89 97.49 371.91 98.54 371.93 99.62 C371.96 100.8 371.96 100.8 372 102 C383.84 90.85 390.76 82.33 391.56 65.69 C391.61 64.85 391.65 64.02 391.69 63.15 C391.8 61.1 391.9 59.05 392 57 C397.49 57.87 400.93 60.24 404.23 64.64 C406.77 68.72 407.68 72.26 408 77 C408.09 78.13 408.09 78.13 408.19 79.28 C408.7 89.67 404.97 97.66 398.33 105.48 C395.84 108.18 393.25 110.75 390.62 113.31 C384.74 119.07 379.77 125.29 375 132 C374.43 132.79 373.85 133.58 373.26 134.39 C371.6 137.82 371.44 141.07 371.31 144.81 C371.28 145.51 371.24 146.2 371.21 146.91 C371.13 148.61 371.06 150.3 371 152 C385.18 143.01 391.82 132.88 397 117 C397.65 115.33 398.31 113.66 399 112 C403.72 114.36 407.61 117.24 410 122 C411.61 131.86 409.83 141.19 404.34 149.52 C397.64 158.26 389.49 166.12 381.05 173.17 C380.37 173.78 379.7 174.38 379 175 C378.41 175.41 377.83 175.83 377.22 176.25 C373.86 178.95 372.2 180.86 371.44 185.19 C371.31 188.96 371.39 192.67 371.56 196.44 C371.59 197.74 371.63 199.05 371.66 200.39 C371.74 203.59 371.86 206.8 372 210 C381.98 200.67 389.79 191.64 393 178 C393.28 176.91 393.55 175.83 393.84 174.71 C394.58 171.81 395.3 168.91 396 166 C398.56 166.38 399.78 166.78 401.63 168.64 C402.37 169.65 402.37 169.65 403.12 170.69 C403.62 171.35 404.12 172.02 404.63 172.7 C408.02 178.41 408.39 183.84 408.44 190.31 C408.47 191.12 408.5 191.92 408.54 192.75 C408.61 201.31 405.09 207.03 399.26 213.1 C397.89 214.43 396.51 215.75 395.12 217.06 C390.39 221.62 385.83 226.21 381.55 231.2 C380.27 232.69 378.92 234.13 377.57 235.55 C373.34 240.19 371.49 243.24 371.5 249.62 C371.63 251.42 371.78 253.21 372 255 C372.65 254.45 373.31 253.91 373.98 253.35 C379.9 248.46 385.88 243.84 392.18 239.43 C398.72 233.79 402.36 226.78 405.88 219 C406.28 218.13 406.68 217.26 407.09 216.36 C408.07 214.25 409.04 212.13 410 210 C410.99 210 411.98 210 413 210 C413.65 211.27 414.29 212.54 414.94 213.81 C415.3 214.52 415.66 215.23 416.03 215.96 C419.18 222.58 419.2 231.35 416.94 238.31 C412.48 247.93 403.88 253.1 395.45 258.91 C381.22 267.83 381.22 267.83 372 281 C371.63 283.22 371.63 283.22 371.5 285.5 C371.44 286.31 371.38 287.13 371.32 287.98 C371.13 291.65 371.04 295.32 371 299 C374.28 296.86 377.55 294.71 380.81 292.55 C382.46 291.46 384.11 290.38 385.77 289.3 C396.66 282.1 404.21 275.76 410 264 C414.88 267.75 414.88 267.75 416 270 C417.19 288 417.19 288 412 296 C411.63 296.66 411.27 297.32 410.89 298 C404.96 307.38 393.63 312.5 383.75 316.75 C383.07 317.04 382.4 317.33 381.7 317.63 C378.85 318.84 376 320 373.08 321.05 C365.26 324.19 362.15 330.34 358.07 337.27 C344.28 359.67 316.85 377.56 291.52 383.66 C272.42 388 253.08 389 233.56 389.56 C232.14 389.61 230.71 389.65 229.29 389.69 C225.86 389.8 222.43 389.9 219 390 C220.04 390.76 221.08 391.52 222.15 392.31 C245.93 409.87 245.93 409.87 250 418 C250.41 422.86 250.62 427.43 248.81 432 C245.22 435.97 242.31 437.21 237 437.5 C233.44 437.63 232.3 437.25 229.51 434.94 C226.66 431.6 224.27 428.11 221.88 424.44 C214.67 413.69 204.75 399.25 192 395 C183.46 393.75 177.54 394.81 170.54 399.91 C162.08 406.87 156.04 414.83 149.89 423.82 C147.9 426.72 145.89 429.61 143.82 432.46 C143.35 433.12 142.88 433.77 142.4 434.45 C140.44 436.62 138.54 436.94 135.7 437.24 C128.75 437.44 128.75 437.44 125 435.25 C120.95 430.7 120.43 426.79 120.57 420.8 C122.19 410.25 135.08 402.35 143.05 396.45 C146.02 394.28 149.01 392.14 152 390 C151.21 389.98 150.42 389.96 149.61 389.94 C105.87 388.79 65.88 386.32 31 357 C29.87 356.1 29.87 356.1 28.73 355.17 C19.77 347.69 12.9 338.18 7.25 328.02 C5.02 324.42 2.83 322.71 -1.14 321.27 C-1.96 320.97 -2.77 320.66 -3.61 320.35 C-4.48 320.03 -5.35 319.71 -6.25 319.38 C-20.75 313.78 -36.45 306.74 -43.31 291.86 C-44.96 287.42 -45.22 283.37 -45.31 278.62 C-45.35 277.34 -45.39 276.05 -45.43 274.73 C-44.93 270.42 -43.81 268.27 -41 265 C-40.01 265 -39.02 265 -38 265 C-37.53 265.89 -37.53 265.89 -37.05 266.79 C-36.62 267.58 -36.19 268.37 -35.75 269.19 C-35.33 269.96 -34.91 270.74 -34.48 271.54 C-31.33 276.76 -27.68 280.25 -22.69 283.69 C-22.09 284.11 -21.49 284.53 -20.87 284.96 C-13.99 289.76 -7 294.39 0 299 C-0.01 294.23 -0.1 289.48 -0.43 284.72 C-0.52 283.53 -0.52 283.53 -0.6 282.31 C-1.41 277.65 -3.43 274.96 -7 272 C-8 271.16 -8.99 270.31 -10.02 269.45 C-15.35 265.07 -20.92 261.03 -26.57 257.07 C-44.22 244.71 -44.22 244.71 -47 234 C-48.12 226.14 -46.57 219.06 -43 212 C-41.36 210.19 -41.36 210.19 -40 209 C-37.01 213.49 -34.49 218.01 -32.2 222.88 C-25.17 237.65 -13.41 246.06 0 255 C-0.03 246.32 -1.05 241.31 -7 235 C-7.86 234.04 -8.72 233.07 -9.61 232.08 C-13.79 227.44 -18.04 222.9 -22.53 218.55 C-23.4 217.71 -23.4 217.71 -24.28 216.84 C-25.39 215.77 -26.51 214.71 -27.64 213.67 C-32.63 208.85 -36.63 202.57 -37.2 195.5 C-37.37 184.98 -36.1 175.79 -29.5 167.33 C-28 166 -28 166 -25 166 C-24.76 167.05 -24.52 168.1 -24.27 169.18 C-20.39 185.59 -14.46 198.09 -1 209 C1.42 191.86 1.42 191.86 -3.99 176.34 C-7.07 173.28 -10.49 170.73 -14.09 168.31 C-16.74 166.5 -19.07 164.41 -21.44 162.25 C-22.21 161.55 -22.99 160.85 -23.79 160.13 C-32.74 151.51 -39.11 141.82 -39.56 129.12 C-39.29 123.04 -37.91 119.77 -33.47 115.54 C-29.48 112 -29.48 112 -27 112 C-26.86 112.63 -26.73 113.26 -26.59 113.91 C-23.13 128.29 -16.24 142 -3.44 150.12 C-1.74 151.05 -1.74 151.05 0 152 C0.38 139.88 -1.5 133.18 -10 124 C-10.78 123.12 -11.55 122.23 -12.35 121.32 C-14.54 118.85 -16.76 116.42 -19 114 C-20.78 111.99 -22.55 109.97 -24.3 107.93 C-25.48 106.6 -26.67 105.28 -27.88 103.97 C-28.81 102.97 -28.81 102.97 -29.75 101.94 C-30.3 101.35 -30.85 100.76 -31.42 100.15 C-35.98 93.94 -36.48 88.43 -36.38 80.94 C-36.39 80.07 -36.4 79.19 -36.41 78.29 C-36.38 71.19 -34.74 66.32 -29.62 61.19 C-28.78 60.31 -28.78 60.31 -27.91 59.42 C-25.63 57.73 -23.79 57.37 -21 57 C-20.96 57.96 -20.93 58.91 -20.89 59.89 C-19.93 78.63 -14.73 89 -1 102 C-0.82 95.48 -0.71 89.63 -2.54 83.33 C-4.83 71.74 -2.38 61.05 1 50 C2.84 43.73 3.35 38.09 3.31 31.56 C3.31 30.13 3.31 30.13 3.31 28.67 C3.21 21 2.23 13.73 0.66 6.24 C0 3 0 3 0 0 Z " fill="#1D7F37" transform="translate(148,194)"/>
<path d="M0 0 C0.9 -0.03 1.8 -0.06 2.72 -0.09 C10.4 -0.16 16.38 1.62 22.38 6.5 C28.63 14.11 32.62 22.17 36.38 31.25 C36.89 32.48 37.41 33.71 37.93 34.94 C39.53 38.73 41.11 42.52 42.69 46.31 C50.01 64.11 50.01 64.11 58.12 81.56 C58.43 82.18 58.74 82.79 59.05 83.42 C61.01 87.24 63.1 90.88 65.69 94.31 C68.82 95.28 68.82 95.28 71.69 95.31 C77.5 88.32 81.08 80.64 84.81 72.44 C85.47 71.01 86.13 69.58 86.79 68.15 C89.34 62.64 91.87 57.11 94.39 51.59 C104.66 29.08 104.66 29.08 110.12 18.62 C110.51 17.88 110.9 17.13 111.3 16.36 C113.77 11.73 116.44 7.44 119.69 3.31 C120.35 3.31 121.01 3.31 121.69 3.31 C121.97 3.89 122.24 4.47 122.53 5.07 C125.47 11.2 128.43 17.31 131.39 23.42 C132.49 25.7 133.59 27.97 134.68 30.25 C136.26 33.55 137.86 36.84 139.46 40.13 C139.93 41.12 140.41 42.12 140.9 43.14 C143.07 47.59 145.21 51.8 148.26 55.71 C156.26 66.11 157.08 74.35 156.81 87.25 C156.81 89.14 156.81 91.03 156.82 92.92 C156.83 97.86 156.78 102.8 156.72 107.74 C156.64 114.68 156.65 121.63 156.64 128.57 C156.63 132.25 156.61 135.94 156.56 139.62 C155.61 160.06 155.61 160.06 162.69 178.31 C165.27 180.66 167.88 182.9 170.64 185.04 C172.69 187.31 172.69 187.31 173.07 190.42 C172.55 194.35 171.64 195.64 168.69 198.31 C156.71 205.07 141.8 204.69 128.43 204.68 C125.99 204.69 123.56 204.72 121.12 204.76 C111.65 204.83 101.99 204.9 94.43 198.36 C92.69 196.31 92.69 196.31 92.2 193.36 C92.79 189.67 93.91 188.34 96.44 185.62 C104.95 175.63 105.84 164.42 105.86 151.78 C105.86 150.67 105.86 149.56 105.87 148.42 C105.87 146.08 105.87 143.74 105.87 141.4 C105.87 137.83 105.89 134.25 105.91 130.68 C105.92 128.4 105.92 126.12 105.92 123.84 C105.93 122.25 105.93 122.25 105.94 120.61 C105.92 115.45 105.77 111.14 103.69 106.31 C101.08 106.67 99.9 107.09 98.05 109 C85.68 126.77 78.94 148.33 71.38 168.43 C71.03 169.37 70.68 170.3 70.31 171.27 C69.67 172.97 69.04 174.68 68.41 176.39 C62.42 192.42 62.42 192.42 57.69 196.31 C55.69 196.25 55.69 196.25 53.69 195.31 C51.1 192.3 49.61 189.16 48.08 185.51 C47.33 183.73 47.33 183.73 46.56 181.92 C46.02 180.61 45.48 179.31 44.94 178 C44.66 177.34 44.38 176.67 44.1 175.99 C40.48 167.34 37.01 158.63 33.67 149.87 C33.34 148.99 33.01 148.12 32.66 147.22 C31.03 142.92 29.41 138.62 27.8 134.31 C27.2 132.72 26.6 131.13 26 129.54 C25.74 128.82 25.48 128.11 25.21 127.37 C22.98 121.5 20.17 115.79 15.69 111.31 C13.6 111.48 13.6 111.48 11.69 112.31 C10.4 114.89 10.53 116.79 10.49 119.68 C10.48 120.8 10.46 121.92 10.45 123.08 C10.4 128.21 10.36 133.35 10.34 138.49 C10.32 141.2 10.3 143.91 10.26 146.62 C10.2 150.52 10.18 154.42 10.16 158.33 C10.14 159.54 10.12 160.75 10.1 161.99 C9.98 169 9.98 169 13.1 175.03 C15.13 176.82 17.02 178.46 19.31 179.88 C22.46 182.06 24.32 183.61 25.69 187.31 C26.33 192.48 26.5 197.51 24.12 202.25 C19.16 208.49 12.25 210.61 4.69 212.31 C1.05 212.66 -2.54 212.65 -6.19 212.56 C-7.15 212.55 -8.11 212.53 -9.11 212.52 C-11.84 212.47 -14.58 212.39 -17.31 212.31 C-18.57 212.29 -19.83 212.27 -21.12 212.25 C-29.19 211.91 -34.26 209.6 -39.75 203.69 C-43.06 198.66 -43.26 193.14 -42.31 187.31 C-39.12 181.55 -33.51 177.7 -28.23 173.95 C-25.52 171.63 -24.45 169.54 -24.06 165.98 C-24.05 165.11 -24.05 164.25 -24.05 163.35 C-24.04 162.36 -24.03 161.36 -24.02 160.33 C-24.02 159.24 -24.02 158.15 -24.02 157.03 C-24.02 155.88 -24.01 154.73 -24 153.54 C-23.98 149.73 -23.98 145.91 -23.98 142.1 C-23.97 139.45 -23.96 136.81 -23.96 134.16 C-23.94 128.6 -23.94 123.05 -23.94 117.5 C-23.94 111.09 -23.92 104.67 -23.89 98.26 C-23.86 92.75 -23.85 87.24 -23.85 81.73 C-23.86 78.44 -23.85 75.15 -23.83 71.86 C-23.81 68.19 -23.81 64.52 -23.83 60.85 C-23.81 59.23 -23.81 59.23 -23.79 57.57 C-23.84 51.5 -24.24 47.92 -28.31 43.31 C-30.25 41.78 -30.25 41.78 -32.31 40.75 C-36.85 38.12 -39.62 35.38 -41.31 30.31 C-41.94 22.68 -42.35 16.36 -37.31 10.31 C-27.37 1.64 -12.64 0.13 0 0 Z " fill="#020202" transform="translate(730.3125,563.6875)"/>
<path d="M0 0 C3.27 0.52 4.45 1.88 6.81 4.08 C9.36 5.86 11.9 6.55 14.88 7.44 C18.46 8.56 20.57 9.29 23.5 11.69 C25.19 15.4 25.56 18.43 24.75 22.44 C22.94 25.48 21.85 27.04 18.5 28.25 C17.92 28.31 17.35 28.37 16.75 28.44 C16.16 27.2 16.16 27.2 15.56 25.94 C14.96 25.11 14.37 24.29 13.75 23.44 C11.16 22.94 11.16 22.94 8.75 23.44 C7.5 24.46 7.5 24.46 7.73 26.59 C8.32 34.55 9.52 42.86 15.62 48.56 C19.11 50.66 20.78 50.6 24.75 50.44 C24.78 49.48 24.8 48.53 24.83 47.55 C24.88 46.3 24.94 45.04 25 43.75 C25.05 42.51 25.09 41.27 25.14 39.99 C25.83 35.96 26.8 34.23 29.75 31.44 C34.71 30.65 36.57 30.61 40.69 33.5 C43.95 38.14 43.93 41.84 43.31 47.38 C43.13 48.39 42.94 49.4 42.75 50.44 C50.01 51.01 50.01 51.01 56.75 48.81 C60.03 44.91 61.58 41.85 62.19 36.75 C62.03 33.49 62.03 33.49 60.31 31.5 C57.01 30.13 54.3 30.34 50.77 30.62 C50.11 30.56 49.44 30.5 48.75 30.44 C46.42 26.95 46.25 25.55 46.75 21.44 C50.44 16.88 53.34 16.32 59 15.62 C64.5 14.88 64.5 14.88 69.25 12.25 C71.75 10.44 71.75 10.44 74.2 10.56 C77.38 11.65 78.2 12.86 80.06 15.62 C83.01 19.69 86.01 22.44 90.15 25.25 C91.75 26.44 91.75 26.44 92.75 28.44 C93.28 32.95 93.62 36.33 90.75 40 C90.09 40.47 89.43 40.95 88.75 41.44 C86.48 40.42 84.96 39.7 83.38 37.75 C81.7 36.1 81.7 36.1 78.69 36.56 C75.46 37.18 75.46 37.18 73.75 40.44 C73.06 46.34 74.42 50.63 77.75 55.44 C81.21 58.26 84.36 58.93 88.75 59.44 C88.66 58.55 88.66 58.55 88.57 57.64 C88.33 53.32 88.33 51.09 90.75 47.38 C94.93 44.67 96.83 44.66 101.75 45.44 C105.02 48.14 105.66 49.74 106.19 53.94 C105.73 57.63 104.64 59.32 102.75 62.44 C102.98 65.77 102.98 65.77 104.75 68.44 C110.71 69.05 114.96 67.9 119.75 64.44 C122.2 61.99 124.2 59.54 125.75 56.44 C125.81 53.53 125.81 53.53 124.75 51.44 C121.89 50.75 121.89 50.75 118.75 50.44 C117.76 51.1 116.77 51.76 115.75 52.44 C113.75 50.44 113.75 50.44 113.48 48.38 C113.49 47.59 113.49 46.81 113.5 46 C113.49 44.83 113.49 44.83 113.48 43.63 C113.75 41.44 113.75 41.44 115.75 38.44 C117.77 38.04 117.77 38.04 120.21 38 C121.54 37.96 121.54 37.96 122.89 37.92 C123.81 37.9 124.74 37.89 125.69 37.88 C127.51 37.84 129.33 37.8 131.15 37.75 C132.37 37.73 132.37 37.73 133.61 37.71 C136.05 37.56 136.05 37.56 138.75 35.44 C140.07 35.44 141.39 35.44 142.75 35.44 C142.19 39.02 141.28 41.6 139.38 44.69 C118.59 79.31 113.12 107.92 114.1 148.04 C114.27 155.31 114.28 162.58 114.29 169.86 C114.32 182.82 114.45 195.79 114.66 208.76 C114.86 221.28 115.01 233.81 115.11 246.33 C115.11 247.11 115.12 247.89 115.12 248.69 C115.18 256.44 115.23 264.18 115.28 271.93 C115.3 274.94 115.32 277.96 115.34 280.97 C115.35 282.46 115.36 283.94 115.36 285.43 C115.42 294.83 115.52 304.23 115.66 313.63 C115.73 318.99 115.79 324.35 115.85 329.72 C115.88 332.2 115.92 334.67 115.97 337.15 C116.03 340.54 116.07 343.93 116.1 347.32 C116.14 348.78 116.14 348.78 116.18 350.27 C116.21 358.28 114.41 366.26 109.56 372.81 C101.17 380.64 91.7 382.8 80.5 382.69 C79.04 382.68 79.04 382.68 77.56 382.68 C71.46 382.6 65.49 382.19 59.44 381.44 C51.85 380.52 44.33 380.15 36.69 380.06 C35.65 380.04 34.62 380.01 33.55 379.98 C24.2 379.96 16.57 382.04 9.8 388.7 C9.33 389.19 8.86 389.68 8.38 390.19 C6.55 392.06 4.75 393.74 2.75 395.44 C-2.13 395.44 -2.54 394.58 -5.88 391.25 C-15.74 381.98 -24.48 380.24 -37.56 380.25 C-38.75 380.25 -39.93 380.25 -41.15 380.25 C-47.12 380.28 -52.86 380.47 -58.75 381.44 C-65.7 382.55 -72.59 382.73 -79.62 382.81 C-80.73 382.84 -81.84 382.86 -82.98 382.89 C-90 382.91 -95.14 381.91 -101.25 378.44 C-102.06 377.99 -102.87 377.55 -103.7 377.09 C-109.92 372.68 -113.42 366.96 -114.8 359.44 C-115.46 354.57 -115.35 349.71 -115.29 344.81 C-115.28 343.22 -115.28 343.22 -115.27 341.6 C-115.26 339.28 -115.24 336.96 -115.22 334.65 C-115.17 328.88 -115.13 323.11 -115.09 317.34 C-115.08 315.27 -115.07 313.19 -115.05 311.12 C-114.98 301 -114.94 290.88 -114.91 280.76 C-114.91 280.02 -114.91 279.29 -114.9 278.53 C-114.88 271.71 -114.87 264.89 -114.85 258.07 C-114.84 253.39 -114.83 248.71 -114.82 244.04 C-114.82 242.87 -114.82 242.87 -114.81 241.69 C-114.78 229.18 -114.69 216.67 -114.57 204.16 C-114.46 191.26 -114.41 178.37 -114.42 165.47 C-114.43 158.25 -114.4 151.03 -114.3 143.82 C-113.7 100.89 -113.7 100.89 -129.92 61.87 C-132.91 57.17 -135.38 52.31 -137.74 47.27 C-138.08 46.54 -138.42 45.82 -138.77 45.08 C-140.24 41.9 -141.47 38.85 -142.25 35.44 C-136.38 36.31 -136.38 36.31 -135.25 37.44 C-131.51 37.36 -127.78 37.26 -124.04 37.05 C-119.64 36.93 -117.84 37 -114.21 39.73 C-112.25 42.44 -112.25 42.44 -111.69 46.06 C-112.25 49.44 -112.25 49.44 -114.25 51.38 C-114.91 51.73 -115.57 52.08 -116.25 52.44 C-116.91 51.78 -117.57 51.12 -118.25 50.44 C-121.35 50.76 -121.35 50.76 -124.25 51.44 C-124.82 54.69 -124.72 56.74 -122.87 59.51 C-118.27 64.94 -118.27 64.94 -112.25 68.44 C-108.9 68.66 -105.6 68.61 -102.25 68.44 C-101.9 63.43 -101.9 63.43 -103.81 58.94 C-105.25 56.44 -105.25 56.44 -105.19 52.88 C-104.14 49.04 -103.59 47.58 -100.25 45.44 C-95.3 44.65 -95.3 44.65 -92.25 45.44 C-89.1 48.07 -87.51 49.55 -86.95 53.62 C-86.94 55.81 -86.94 55.81 -87.25 59.44 C-81.46 57.91 -77.54 56.79 -74.25 51.44 C-73.02 48.98 -73.05 47.24 -73 44.5 C-72.97 43.62 -72.95 42.75 -72.92 41.85 C-73.05 39.39 -73.05 39.39 -74.61 37.65 C-76.25 36.26 -76.25 36.26 -78.69 35.94 C-82.28 36.64 -83.26 38.49 -85.25 41.44 C-87.83 41.08 -89.07 40.6 -91 38.81 C-92.85 35.3 -92.91 33.37 -92.25 29.44 C-89.03 24.45 -85.8 21.5 -80.25 19.44 C-79.07 17.06 -79.07 17.06 -78.25 14.44 C-77.29 13.07 -76.3 11.73 -75.25 10.44 C-70.77 10.87 -68.03 12.18 -64.24 14.53 C-61.11 15.96 -57.96 15.95 -54.56 16.16 C-51.54 16.52 -49.6 17.54 -47.25 19.44 C-45.77 22.39 -46.19 25.18 -46.25 28.44 C-49 30.2 -50.4 30.43 -53.75 30.38 C-57.15 30.24 -57.15 30.24 -59.75 31.38 C-61.56 33.86 -61.45 34.74 -61.25 37.75 C-60.56 42.09 -59.09 45.02 -56.25 48.44 C-52.83 50.72 -51.57 50.66 -47.56 50.56 C-46.57 50.54 -45.57 50.53 -44.55 50.51 C-43.79 50.48 -43.03 50.46 -42.25 50.44 C-42.31 49.48 -42.37 48.53 -42.43 47.55 C-42.79 37.35 -42.79 37.35 -40.25 33.06 C-36.38 30.97 -33.54 30.28 -29.25 31.44 C-26.31 33.58 -25.48 34.19 -24.25 37.44 C-23.85 41.8 -23.96 46.07 -24.25 50.44 C-19.54 50.55 -16.99 50.49 -13.25 47.44 C-8.07 39.74 -6.92 32.6 -7.25 23.44 C-9.23 23.44 -11.21 23.44 -13.25 23.44 C-13.91 25.09 -14.57 26.74 -15.25 28.44 C-18.91 27.94 -20.96 27.42 -23.25 24.44 C-24.46 20.8 -24.65 18.26 -24.25 14.44 C-21.05 9.89 -17.57 8.68 -12.47 7.19 C-7.8 5.61 -4.5 0.88 0 0 Z M-104.25 107.44 C-104.34 151.3 -104.34 151.3 -104.4 195.15 C-104.4 201.07 -104.41 206.98 -104.41 212.9 C-104.42 213.64 -104.42 214.38 -104.42 215.15 C-104.43 227.11 -104.45 239.07 -104.48 251.03 C-104.51 263.31 -104.53 275.59 -104.53 287.87 C-104.54 295.45 -104.55 303.02 -104.57 310.59 C-104.59 316.41 -104.59 322.22 -104.59 328.03 C-104.59 330.41 -104.6 332.79 -104.61 335.18 C-104.62 338.43 -104.62 341.69 -104.61 344.94 C-104.62 345.88 -104.63 346.82 -104.64 347.78 C-104.59 354.47 -103.94 361.44 -99.31 366.59 C-98.63 367.04 -97.95 367.48 -97.25 367.94 C-96.23 368.63 -96.23 368.63 -95.19 369.34 C-90.19 372.17 -85.08 371.63 -79.5 371.62 C-78.45 371.63 -77.4 371.63 -76.32 371.63 C-70.81 371.59 -65.52 371.34 -60.06 370.44 C-42.56 367.75 -21.76 366.26 -6.36 376.33 C-4.21 377.95 -2.21 379.6 -0.25 381.44 C2.15 380.05 4.49 378.63 6.73 377.01 C7.46 376.49 8.19 375.97 8.94 375.44 C9.61 374.94 10.29 374.45 10.98 373.94 C19.61 369.26 28.16 368.99 37.81 369.12 C39.1 369.13 40.39 369.14 41.71 369.15 C49.85 369.25 57.71 369.86 65.76 370.98 C70.42 371.58 75.06 371.7 79.75 371.75 C80.9 371.78 80.9 371.78 82.07 371.8 C88.94 371.8 95.13 370.39 100.69 366.25 C105.29 359.98 105.04 352.54 104.99 345.06 C104.99 344.04 104.99 343.02 105 341.97 C105 338.57 104.99 335.17 104.98 331.76 C104.98 329.32 104.98 326.87 104.98 324.43 C104.98 319.17 104.97 313.92 104.96 308.66 C104.95 301.06 104.94 293.47 104.94 285.87 C104.93 273.54 104.92 261.21 104.9 248.88 C104.88 236.9 104.87 224.93 104.86 212.96 C104.86 211.84 104.86 211.84 104.86 210.69 C104.85 204.2 104.85 197.71 104.85 191.22 C104.83 163.29 104.79 135.36 104.75 107.44 C35.78 107.44 -33.19 107.44 -104.25 107.44 Z " fill="#C5B130" transform="translate(333.25,167.5625)"/>
<path d="M0 0 C0.96 -0.01 1.92 -0.01 2.91 -0.02 C13.21 -0.06 23.15 0 33.25 2.25 C34.01 2.4 34.76 2.54 35.54 2.69 C50.9 5.7 50.9 5.7 56.25 12.25 C57 14.81 57 14.81 56.25 17.25 C54.64 19.18 53.14 20.63 51.25 22.25 C49.66 23.64 48.08 25.04 46.5 26.44 C45.72 27.11 44.94 27.79 44.14 28.48 C41.38 31.07 41.02 32.89 40.84 36.57 C40.92 43.52 43.84 48.99 46.88 55.12 C47.46 56.34 48.05 57.55 48.63 58.77 C49.85 61.31 51.09 63.84 52.34 66.36 C53.94 69.61 55.52 72.88 57.08 76.15 C58.31 78.7 59.55 81.24 60.79 83.79 C61.67 85.58 62.54 87.39 63.4 89.19 C66.37 95.16 68.99 100.05 74.25 104.25 C78.02 104.84 80.28 104.63 83.81 103.25 C92.15 96.41 96.37 85.67 101.12 76.25 C101.9 74.74 102.67 73.22 103.44 71.71 C108.43 61.92 113.35 52.09 118.25 42.25 C118.58 41.59 118.91 40.93 119.25 40.25 C119.49 37.98 119.49 37.98 119.5 35.44 C119.53 34.59 119.55 33.73 119.58 32.86 C119.17 29.59 118.24 27.86 116.25 25.25 C113.86 23.5 113.86 23.5 111.19 22.12 C107.82 20.3 106.42 19.5 104.25 16.25 C104.12 12.87 104.18 10.43 106.54 7.82 C118.92 -1 135.88 -0.33 150.31 -0.16 C153.51 -0.12 156.71 -0.12 159.91 -0.12 C186.08 -0.03 186.08 -0.03 194.88 4.69 C195.67 5.1 196.47 5.51 197.29 5.93 C199.25 7.25 199.25 7.25 201.25 10.25 C201.33 12.58 201.34 14.92 201.25 17.25 C195.82 20.35 190.78 22.51 184.62 23.75 C175.46 25.72 170.3 29.07 165.15 36.95 C161.77 42.82 158.82 48.9 155.84 54.98 C153.46 59.85 150.98 64.65 148.44 69.44 C144.51 76.86 140.62 84.3 136.75 91.75 C132.54 99.85 128.32 107.94 124.06 116.01 C120.6 122.58 117.17 129.16 113.75 135.75 C109.55 143.84 105.33 151.93 101.07 159.99 C98.68 164.51 96.32 169.05 93.99 173.59 C93.42 174.7 92.85 175.8 92.27 176.94 C91.17 179.08 90.07 181.22 88.98 183.36 C77.18 206.26 77.18 206.26 69.19 211 C68.18 211.61 68.18 211.61 67.15 212.23 C60.69 215.68 50.63 215.33 43.63 213.6 C22.63 204.03 10.47 161.96 1.08 142.2 C-2.1 135.49 -5.33 128.81 -8.56 122.12 C-9.16 120.9 -9.75 119.67 -10.34 118.44 C-11.84 115.33 -13.35 112.23 -14.85 109.12 C-17.23 104.19 -19.61 99.26 -21.99 94.32 C-22.87 92.51 -23.75 90.69 -24.63 88.88 C-27.44 83.06 -30.24 77.23 -33.02 71.4 C-35.9 65.34 -38.81 59.29 -41.75 53.25 C-42.33 52.05 -42.33 52.05 -42.93 50.82 C-48.91 38.3 -48.91 38.3 -60.12 30.97 C-62.55 30.14 -64.99 29.35 -67.45 28.62 C-71.19 27.07 -73.18 25.36 -75.75 22.25 C-76.06 19.38 -76.06 19.38 -74.75 16.25 C-66.43 6.11 -52.28 2.63 -39.75 1.36 C-26.5 0.22 -13.29 0.03 0 0 Z " fill="#020202" transform="translate(855.75,417.75)"/>
<path d="M0 0 C8.23 -0.95 13.51 0.88 20 6 C27.73 13.57 27.73 13.57 28.22 17.98 C27.66 25.76 23.59 29.88 17.86 34.86 C15.67 36.62 13.44 38.32 11.19 40 C10.43 40.58 9.66 41.17 8.88 41.77 C3.27 46 3.27 46 1 46 C3.79 51.11 6.89 55.7 10.44 60.31 C14.88 66.15 19.23 72.04 23.5 78 C29.55 86.42 35.75 94.73 42 103 C45.56 99.72 48.2 96 50.88 92 C51.84 90.58 52.81 89.16 53.77 87.73 C54.29 86.98 54.8 86.22 55.33 85.44 C58.36 81.02 61.43 76.63 64.5 72.25 C65.1 71.39 65.7 70.54 66.32 69.65 C66.88 68.84 67.45 68.04 68.03 67.2 C68.53 66.49 69.03 65.77 69.55 65.04 C71 63 71 63 72.7 60.97 C74.43 58.35 74 56.41 73.52 53.39 C73.07 51.34 72.53 49.31 71.98 47.29 C69.81 38.69 69.21 27.63 72.94 19.44 C78.45 10.47 86.31 4.05 96 0 C96.99 0 97.98 0 99 0 C97.98 2.62 96.91 5.18 95.71 7.73 C92.48 14.74 91.32 20.3 92 28 C101.86 23.45 109.47 13.63 117 6 C117.33 6.66 117.66 7.32 118 8 C117.33 9.86 117.33 9.86 116.23 12.11 C115.84 12.92 115.44 13.74 115.04 14.59 C114.61 15.45 114.19 16.3 113.75 17.19 C108.27 27.17 108.27 27.17 106 38 C112.1 37.69 115.47 34.72 120 31 C121.33 29.98 121.33 29.98 122.69 28.94 C125.28 26.76 127.64 24.43 130 22 C130.92 33.38 128.59 43.15 121.19 52.06 C117.53 55.83 113.86 58.11 109 60 C108.15 60.39 107.31 60.78 106.44 61.19 C99.15 63.62 91.59 63.1 84 63 C83.58 63.87 83.58 63.87 83.16 64.76 C82.05 66.91 80.82 68.85 79.45 70.84 C78.94 71.59 78.44 72.33 77.91 73.09 C77.09 74.28 77.09 74.28 76.25 75.5 C75.4 76.74 75.4 76.74 74.53 78.01 C69.65 85.09 64.72 92.13 59.76 99.15 C56.34 104 53.09 108.93 50 114 C50.36 114.48 50.71 114.96 51.08 115.46 C57.6 124.27 64.1 133.1 70.5 142 C76.68 150.58 82.95 159.1 89.23 167.61 C92.16 171.57 95.08 175.54 98 179.5 C99.16 181.07 100.32 182.65 101.48 184.22 C103.88 187.48 106.28 190.74 108.68 194 C115.08 202.69 121.5 211.38 128 220 C126.46 223.3 125.25 225.19 122 227 C119.52 226.72 118.31 226.3 116.51 224.55 C116.05 223.93 115.59 223.31 115.12 222.68 C114.6 221.98 114.07 221.29 113.54 220.58 C112.99 219.83 112.44 219.08 111.88 218.31 C111.3 217.54 110.72 216.77 110.13 215.97 C106.31 210.84 102.56 205.66 98.87 200.44 C95.39 195.52 91.83 190.66 88.25 185.81 C87.66 185.01 87.07 184.21 86.46 183.38 C84.64 180.92 82.82 178.46 81 176 C73.52 165.88 66.07 155.74 58.71 145.53 C53.52 138.32 48.27 131.16 43 124 C39.67 128.06 36.63 132.27 33.62 136.56 C33.11 137.3 32.59 138.04 32.05 138.8 C30.36 141.2 28.68 143.6 27 146 C26.44 146.8 25.88 147.6 25.3 148.42 C21.79 153.43 18.29 158.44 14.78 163.45 C11.86 167.64 8.93 171.82 6 176 C4.83 177.67 3.67 179.33 2.5 181 C0.17 184.33 -2.17 187.67 -4.5 191 C-5.37 192.24 -5.37 192.24 -6.25 193.5 C-7.41 195.16 -8.57 196.81 -9.73 198.46 C-12.8 202.84 -15.85 207.24 -18.85 211.67 C-19.48 212.59 -20.11 213.52 -20.77 214.47 C-21.98 216.24 -23.19 218.03 -24.38 219.82 C-24.93 220.61 -25.48 221.41 -26.04 222.23 C-26.52 222.94 -26.99 223.64 -27.48 224.37 C-29.31 226.33 -30.33 226.81 -33 227 C-36.25 225.06 -36.25 225.06 -39 223 C-38.1 218.66 -35.84 215.57 -33.31 212 C-32.83 211.3 -32.34 210.61 -31.84 209.89 C-30.78 208.38 -29.73 206.87 -28.67 205.37 C-26.99 202.98 -25.32 200.59 -23.65 198.2 C-20.7 193.99 -17.75 189.77 -14.8 185.56 C-11.86 181.38 -8.93 177.19 -6 173 C-4.83 171.33 -3.67 169.67 -2.5 168 C-1.92 167.18 -1.35 166.35 -0.75 165.5 C1 163 2.75 160.5 4.5 158 C5.08 157.17 5.66 156.35 6.25 155.5 C7.41 153.84 8.57 152.18 9.73 150.53 C12.75 146.21 15.77 141.9 18.78 137.58 C19.4 136.69 20.03 135.79 20.67 134.88 C21.85 133.18 23.03 131.49 24.21 129.8 C25.02 128.64 25.02 128.64 25.84 127.45 C26.36 126.71 26.88 125.96 27.41 125.19 C28.49 123.7 29.63 122.24 30.81 120.82 C32.37 118.93 33.8 117.14 35 115 C34.42 110.7 31.35 107.65 28.69 104.31 C24.53 99.03 20.54 93.65 16.62 88.19 C10.99 80.34 5.24 72.58 -0.59 64.87 C-3.07 61.59 -5.53 58.29 -8 55 C-13.16 57.69 -17.94 60.6 -22.62 64.06 C-34.54 72.83 -34.54 72.83 -43 72 C-46.56 70.68 -48.08 68.9 -50.12 65.75 C-50.62 65 -51.12 64.25 -51.63 63.48 C-54.42 58.42 -55.26 54.06 -55.19 48.31 C-55.18 47.19 -55.17 46.08 -55.17 44.93 C-55 42 -55 42 -54 39 C-50.6 40.06 -47.99 41.01 -45 43 C-43.68 43 -42.36 43 -41 43 C-40.67 38.38 -40.34 33.76 -40 29 C-35.05 30.65 -30.1 32.3 -25 34 C-25.33 32.64 -25.66 31.28 -26 29.88 C-26.83 26.18 -27.2 22.81 -27 19 C-22.01 20.77 -17.59 23.4 -13 26 C-13.33 20.39 -13.66 14.78 -14 9 C-12.66 9.47 -11.32 9.95 -9.94 10.44 C-5.93 11.78 -2.19 12.55 2 13 C1.86 12.4 1.71 11.79 1.56 11.17 C1.38 10.37 1.19 9.57 1 8.75 C0.81 7.96 0.63 7.17 0.44 6.36 C0 4 0 4 0 0 Z " fill="#040101" transform="translate(291,296)"/>
<path d="M0 0 C1.59 -0 1.59 -0 3.21 -0.01 C21.2 -0 39.05 0.81 56.69 4.62 C57.69 4.84 58.7 5.05 59.73 5.28 C72.48 8.13 86.76 12.45 96 22.12 C97.38 24.38 97.38 24.38 97.38 26.38 C33.02 26.38 -31.33 26.38 -97.62 26.38 C-92.67 16.47 -82.71 12.18 -72.66 8.7 C-49.07 1.04 -24.57 0 0 0 Z " fill="#020101" transform="translate(333.625,237.625)"/>
<path d="M0 0 C7.71 4.25 12.08 10.86 15 19 C16.47 24.94 16.19 30.99 16.19 37.07 C16.19 39.16 16.21 41.25 16.22 43.35 C16.27 54.2 16.27 65.17 8.62 73.62 C7.33 74.8 7.33 74.8 6 76 C5.22 76.72 4.43 77.44 3.62 78.19 C-1.97 82.05 -8.37 82.79 -15 82 C-19.25 80.43 -21.67 78.88 -24 75 C-24.38 72.26 -24.38 72.26 -24.39 69.07 C-24.4 67.88 -24.41 66.68 -24.42 65.45 C-24.41 64.16 -24.4 62.87 -24.4 61.55 C-24.4 60.2 -24.4 58.86 -24.41 57.52 C-24.41 54.7 -24.41 51.89 -24.39 49.08 C-24.37 45.49 -24.38 41.9 -24.4 38.31 C-24.41 35.54 -24.41 32.76 -24.4 29.99 C-24.4 28.03 -24.41 26.06 -24.42 24.1 C-24.35 15.78 -23.55 9.49 -18.75 2.5 C-13.91 -1.97 -6.05 -1 0 0 Z " fill="#FDFDFD" transform="translate(964,216)"/>
</svg>
