<?xml version="1.0" encoding="UTF-8"?>
<!-- Generator: visioncortex VTracer 0.6.4 -->
<svg version="1.1" xmlns="http://www.w3.org/2000/svg" width="1044" height="1200">
<path d="M0 0 C6.93 0 13.86 0 21 0 C21 9.9 21 19.8 21 30 C28.59 30 36.18 30 44 30 C44 37.26 44 44.52 44 52 C36.41 52 28.82 52 21 52 C21 56.62 21 61.24 21 66 C22.98 66.66 24.96 67.32 27 68 C29.27 69.59 29.27 69.59 31.25 71.38 C32.25 72.25 32.25 72.25 33.27 73.15 C35.01 75.01 36 76.67 37 79 C37.9 78.58 37.9 78.58 38.83 78.16 C40.03 77.62 40.03 77.62 41.25 77.06 C42.04 76.7 42.83 76.34 43.64 75.97 C49.91 73.39 56.58 72.95 63.06 75.12 C70.84 78.49 75.6 82.75 79.1 90.52 C80.27 93.74 80.78 96.59 81 100 C81.83 99.53 81.83 99.53 82.68 99.05 C89.43 95.99 96.9 96.61 103.76 98.96 C107.08 100.5 109.38 102.45 112 105 C112.27 104.36 112.54 103.72 112.81 103.06 C116.13 95.73 119.95 90.22 127.49 86.91 C136.76 83.86 144.28 84.67 153 89 C159.03 93.19 162.28 98.93 164 106 C164.28 109.37 164.26 112.63 164 116 C165.07 115.36 166.14 114.72 167.25 114.06 C173.43 110.38 179.94 110.25 187 111 C194.46 113.26 199.58 117.67 204 124 C205.86 127.48 206.22 130.07 206 134 C206.95 133.79 207.9 133.59 208.88 133.38 C214.98 132.52 220.74 133.85 226.19 136.62 C231.76 141.33 236.19 145.78 238 153 C238.2 156.65 238.2 156.65 238.12 160.38 C238.11 161.62 238.09 162.87 238.07 164.15 C238.04 165.56 238.04 165.56 238 167 C238.94 167.29 239.87 167.57 240.84 167.87 C247.39 170.21 250.8 176.12 254 182 C256.2 188.59 255.82 196.66 253 203 C253.6 203.25 254.21 203.5 254.83 203.75 C257.34 205.2 258.23 206.46 259.69 208.94 C260.1 209.63 260.52 210.32 260.95 211.03 C264.07 216.89 263.54 223.54 263 230 C262.01 233.24 260.72 236.09 259 239 C259.42 239.53 259.84 240.06 260.28 240.61 C260.83 241.32 261.37 242.02 261.94 242.75 C262.76 243.79 262.76 243.79 263.59 244.86 C267.25 250.41 266.64 257.62 266 264 C264.3 269.59 261.95 273.53 257.19 276.94 C255.32 278.24 255.32 278.24 254 280 C253.62 282.82 253.75 285.42 253.93 288.26 C254.1 294.81 250.94 299.56 246.89 304.46 C242.09 308.38 236.11 309.66 230.12 310.69 C229.04 310.88 229.04 310.88 227.93 311.07 C219.96 312.35 212.05 312.27 204 312 C204.12 313.92 204.12 313.92 204.25 315.88 C204.21 324.46 200.61 331.17 194.79 337.31 C190 341.83 186.47 343.21 180 344 C180.4 344.66 180.8 345.31 181.21 345.99 C183 348.95 184.78 351.91 186.56 354.88 C187.51 356.42 187.51 356.42 188.47 358 C189.06 358.99 189.65 359.98 190.25 360.99 C191.08 362.36 191.08 362.36 191.92 363.75 C192.28 364.49 192.63 365.24 193 366 C192 368 192 368 189.96 368.69 C189.08 368.89 188.21 369.08 187.31 369.29 C186.36 369.51 185.42 369.73 184.45 369.95 C183.45 370.17 182.46 370.4 181.44 370.62 C180.44 370.85 179.44 371.08 178.42 371.32 C175.95 371.89 173.47 372.45 171 373 C171.37 373.72 171.75 374.44 172.13 375.18 C176.55 383.66 178.37 390.57 175.75 400.06 C174.08 405.26 171.89 409.11 168 413 C168.78 413.46 168.78 413.46 169.58 413.93 C181.37 420.86 192.9 428 204 436 C205.02 436.74 205.02 436.74 206.06 437.48 C213.87 443.14 221.36 448.94 228.38 455.55 C230.47 457.5 232.59 459.38 234.75 461.25 C246.13 471.17 256.76 482.07 266 494 C266.88 495.06 267.75 496.11 268.64 497.16 C281.9 513.06 293.42 530.64 303 549 C303.32 549.61 303.65 550.22 303.98 550.85 C306.43 555.51 308.75 560.23 311 565 C311.39 565.82 311.78 566.65 312.18 567.49 C340.93 629.26 347.86 698.13 337 765 C338.02 765.69 339.03 766.38 340.08 767.09 C362.47 782.35 383.41 799.02 402.49 818.28 C404.45 820.27 406.43 822.24 408.4 824.22 C414.48 830.31 420.42 836.44 426 843 C427.88 845.08 429.78 847.14 431.69 849.19 C432.74 850.32 433.78 851.45 434.83 852.58 C435.36 853.15 435.89 853.71 436.43 854.3 C437.94 855.94 439.45 857.58 440.95 859.23 C446.81 865.66 452.8 871.9 459.02 877.98 C461.93 880.85 464.72 883.78 467.39 886.88 C471.21 891.31 475.29 895.44 479.44 899.56 C480.15 900.28 480.86 900.99 481.6 901.73 C485.64 905.77 489.79 909.6 494.11 913.33 C497.04 915.92 499.77 918.7 502.5 921.5 C506.59 925.65 510.7 929.65 515.22 933.34 C517.74 935.69 519.81 938.34 522 941 C520.57 941.42 520.57 941.42 519.11 941.85 C499.06 947.77 479.32 953.96 460 962 C459.01 962.41 458.01 962.82 456.99 963.25 C427.46 975.59 397.44 989.89 371 1008 C371.9 1008.9 372.8 1009.79 373.73 1010.72 C377.11 1014.08 380.49 1017.44 383.86 1020.81 C385.31 1022.25 386.77 1023.7 388.23 1025.15 C390.33 1027.24 392.43 1029.34 394.54 1031.44 C395.18 1032.07 395.82 1032.71 396.48 1033.37 C399.46 1036.35 402.34 1039.35 405.06 1042.57 C410.19 1048.49 415.82 1053.93 421.38 1059.45 C423.48 1061.54 425.57 1063.62 427.66 1065.71 C432.11 1070.14 436.55 1074.57 441 1079 C446.16 1084.14 451.32 1089.27 456.47 1094.41 C458.52 1096.46 460.57 1098.5 462.63 1100.54 C468.14 1106.03 473.62 1111.5 478.66 1117.43 C480.54 1119.64 482.57 1121.68 484.62 1123.72 C485.41 1124.51 486.2 1125.29 487.01 1126.1 C487.81 1126.89 488.61 1127.68 489.44 1128.5 C490.26 1129.32 491.09 1130.14 491.94 1130.99 C493.96 1133 495.98 1135 498 1137 C496.51 1140.86 494.48 1142.28 491 1144.43 C489.47 1145.4 489.47 1145.4 487.9 1146.38 C486.25 1147.4 486.25 1147.4 484.56 1148.44 C482.29 1149.86 480.01 1151.28 477.74 1152.71 C477.17 1153.07 476.6 1153.43 476.02 1153.79 C469.79 1157.72 463.78 1161.94 457.84 1166.28 C457.12 1166.79 456.41 1167.29 455.67 1167.82 C454.74 1168.49 454.74 1168.49 453.8 1169.17 C452 1170 452 1170 450.2 1169.84 C447.07 1168.64 445.34 1166.7 442.98 1164.33 C442.49 1163.85 442 1163.36 441.5 1162.86 C439.89 1161.26 438.3 1159.64 436.7 1158.03 C435.58 1156.9 434.46 1155.78 433.34 1154.66 C430.98 1152.3 428.64 1149.94 426.29 1147.57 C423.31 1144.56 420.31 1141.56 417.32 1138.55 C414.44 1135.67 411.57 1132.79 408.7 1129.9 C408.16 1129.36 407.62 1128.82 407.06 1128.26 C397.42 1118.58 397.42 1118.58 393.59 1114.08 C388.94 1108.66 383.8 1103.69 378.73 1098.66 C376.84 1096.78 374.95 1094.89 373.05 1093 C369.04 1089 365.02 1085 361 1081 C356.34 1076.36 351.68 1071.72 347.02 1067.07 C345.17 1065.23 343.31 1063.39 341.46 1061.54 C336.26 1056.37 331.18 1051.18 326.43 1045.58 C324.49 1043.44 322.33 1041.7 320 1040 C316.39 1042.39 312.79 1044.79 309.19 1047.19 C308.32 1047.76 308.32 1047.76 307.44 1048.35 C299.04 1053.94 290.66 1059.57 282.3 1065.23 C281.37 1065.86 280.44 1066.49 279.48 1067.14 C274.85 1070.27 270.22 1073.4 265.59 1076.54 C254.84 1083.83 243.98 1090.91 232.95 1097.78 C230.45 1099.34 227.96 1100.92 225.46 1102.49 C147.46 1151.31 51.41 1198.32 -49.23 1179.17 C-84.8 1170.96 -84.8 1170.96 -94.22 1159.17 C-96.79 1156.04 -99.69 1153.29 -102.59 1150.47 C-104.49 1148.52 -106.24 1146.56 -108 1144.5 C-112.67 1139.12 -117.73 1134.12 -122.77 1129.1 C-124.43 1127.44 -126.09 1125.78 -127.75 1124.11 C-133.33 1118.53 -138.99 1113.12 -145 1108 C-146.78 1106.38 -148.55 1104.76 -150.31 1103.12 C-155.72 1098.21 -161.28 1093.55 -167 1089 C-167.96 1088.23 -167.96 1088.23 -168.95 1087.44 C-179.28 1079.17 -189.83 1071.44 -200.97 1064.3 C-202.33 1063.43 -203.69 1062.54 -205.03 1061.63 C-209.5 1058.69 -213.45 1057.03 -218.62 1055.62 C-238.37 1049.86 -253.48 1038.08 -268 1024 C-268.75 1023.29 -269.5 1022.58 -270.27 1021.85 C-285.24 1007.39 -296.93 989.54 -306.98 971.44 C-324.83 939.36 -351.79 908.39 -380 885 C-380.8 884.33 -380.8 884.33 -381.62 883.64 C-393.69 873.54 -406.29 864.39 -419.44 855.75 C-439.64 842.35 -451.77 827.16 -460.19 804.69 C-461.31 801.75 -462.44 798.81 -463.57 795.88 C-463.85 795.13 -464.14 794.39 -464.43 793.63 C-466.31 788.72 -468.28 783.85 -470.3 779 C-496.86 715.47 -503.05 661.43 -489.96 593.36 C-489.79 592.43 -489.61 591.51 -489.43 590.56 C-488.55 586.01 -487.67 581.45 -486.77 576.9 C-480.65 545.74 -480.91 518.43 -489.37 487.8 C-492.17 477.6 -494.36 467.45 -496 457 C-496.15 456.12 -496.3 455.24 -496.45 454.34 C-502.82 415.78 -500.35 374.55 -495 336 C-494.9 335.24 -494.79 334.49 -494.68 333.71 C-489.22 294.37 -480.44 255.55 -471 217 C-471.74 217.01 -472.48 217.02 -473.25 217.03 C-474.72 217.05 -474.72 217.05 -476.21 217.06 C-477.18 217.07 -478.15 217.08 -479.15 217.09 C-487.44 216.83 -492.83 213.24 -498.76 207.62 C-506.61 198.44 -507.68 187.67 -507.17 176.1 C-506.22 164.62 -498.67 156.4 -490.75 148.75 C-488.9 146.9 -487.2 144.98 -485.5 143 C-484.33 141.67 -483.17 140.33 -482 139 C-481.22 138.08 -481.22 138.08 -480.43 137.15 C-474.4 130.52 -465.58 125.55 -456.55 124.8 C-444.64 124.59 -435.83 127.78 -427 136 C-419.62 145.56 -417.92 155.1 -419 167 C-419.9 169.83 -420.93 172.33 -422.32 174.95 C-423.22 176.99 -423.22 176.99 -422.35 179 C-420.82 181.27 -419.16 183.23 -417.31 185.25 C-416.51 186.13 -415.7 187.01 -414.88 187.91 C-409.59 193.61 -404.26 199.27 -398.94 204.94 C-391.12 213.26 -383.34 221.62 -375.61 230.02 C-370.96 235.06 -366.26 240.06 -361.57 245.06 C-357.21 249.7 -352.87 254.38 -348.56 259.07 C-344.56 263.4 -340.54 267.7 -336.5 272 C-331.49 277.33 -326.51 282.68 -321.56 288.07 C-317.56 292.4 -313.54 296.7 -309.5 301 C-304.49 306.33 -299.51 311.68 -294.56 317.07 C-290.56 321.4 -286.54 325.7 -282.5 330 C-277.49 335.33 -272.51 340.68 -267.56 346.07 C-263.56 350.4 -259.54 354.7 -255.5 359 C-250.49 364.33 -245.51 369.68 -240.56 375.07 C-236.56 379.4 -232.54 383.7 -228.5 388 C-223.49 393.33 -218.51 398.68 -213.56 404.06 C-209.53 408.44 -205.45 412.79 -201.38 417.12 C-195.52 423.36 -189.72 429.64 -184 436 C-183.17 435.47 -183.17 435.47 -182.33 434.93 C-175.63 430.64 -168.89 426.44 -162.12 422.25 C-161.21 421.68 -160.29 421.12 -159.35 420.53 C-155.25 418 -151.14 415.48 -147 413 C-147.76 412.15 -148.53 411.31 -149.31 410.44 C-154.78 403.87 -156.55 396.38 -156 388 C-154.74 382.46 -153.05 377.81 -150 373 C-150.95 372.79 -150.95 372.79 -151.91 372.57 C-154.76 371.93 -157.6 371.28 -160.44 370.62 C-161.43 370.4 -162.42 370.18 -163.45 369.95 C-164.39 369.73 -165.34 369.51 -166.31 369.29 C-167.18 369.09 -168.06 368.89 -168.96 368.69 C-171 368 -171 368 -172 366 C-170.92 363.75 -170.92 363.75 -169.25 360.99 C-168.66 360.01 -168.07 359.02 -167.47 358 C-166.84 356.97 -166.21 355.94 -165.56 354.88 C-164.94 353.83 -164.31 352.79 -163.67 351.72 C-162.12 349.14 -160.56 346.57 -159 344 C-159.59 343.9 -160.18 343.81 -160.78 343.71 C-168.53 342.25 -172.77 338.9 -178 333 C-181.51 327.73 -183.15 322.53 -183.06 316.25 C-183.05 315.45 -183.04 314.65 -183.04 313.83 C-183.02 312.92 -183.02 312.92 -183 312 C-184 312.05 -184.99 312.09 -186.02 312.14 C-194.44 312.41 -202.4 311.87 -210.69 310.25 C-211.52 310.09 -212.36 309.94 -213.22 309.77 C-221.11 308.11 -226.29 304.67 -231 298 C-232.83 293.57 -232.96 290.18 -232.62 285.5 C-232.51 281.4 -232.51 281.4 -234.63 278.05 C-236.06 276.92 -237.5 275.81 -238.95 274.71 C-243.47 270.93 -244.75 266.3 -245.38 260.59 C-245.62 253.45 -245.15 247.92 -241 242 C-240.13 240.76 -240.13 240.76 -239.25 239.5 C-238.84 239 -238.43 238.51 -238 238 C-238.66 236.97 -239.32 235.94 -240 234.88 C-243.35 228.11 -243.37 220.12 -241.01 213.02 C-239.25 209.34 -237.55 206.54 -234.62 203.69 C-234.09 203.13 -233.55 202.57 -233 202 C-233.28 200.32 -233.63 198.66 -234 197 C-234.67 189.18 -234.25 182.74 -230 176 C-226.8 172.22 -223.24 169.55 -219 167 C-218.34 167 -217.68 167 -217 167 C-217.05 166.09 -217.09 165.19 -217.14 164.25 C-217.44 154.29 -216.55 147.56 -209.69 140.12 C-204.17 135.05 -198.3 133.46 -191 133 C-187.5 133.44 -187.5 133.44 -185 134 C-184.92 132.8 -184.83 131.61 -184.75 130.38 C-183.87 123.64 -179.97 119.45 -174.84 115.32 C-168.28 110.59 -161.83 110.21 -154 111 C-149.9 112.02 -146.53 113.65 -143 116 C-143.05 115.39 -143.09 114.79 -143.14 114.16 C-143.51 105.68 -141.66 98.58 -135.94 92.12 C-130.75 87.41 -124.3 85.41 -117.44 84.56 C-108.65 85.68 -101.8 88.03 -96 95 C-94.06 98.23 -92.45 101.53 -91 105 C-90.22 104.24 -89.43 103.47 -88.62 102.69 C-82.89 97.98 -76.42 96.65 -69.12 97.19 C-65.64 97.57 -63.05 98.27 -60 100 C-59.93 99.38 -59.85 98.77 -59.77 98.13 C-58.49 89.84 -55.31 83.26 -48.56 78.06 C-42.52 74.23 -36.03 73.21 -29 74 C-24.4 75.14 -20.2 76.83 -16 79 C-15.66 78.16 -15.66 78.16 -15.31 77.31 C-12.17 71.77 -7.52 68.81 -2 66 C-1.34 66 -0.68 66 0 66 C0 61.38 0 56.76 0 52 C-7.59 52 -15.18 52 -23 52 C-23 44.74 -23 37.48 -23 30 C-15.41 30 -7.82 30 0 30 C0 20.1 0 10.2 0 0 Z M-456 229 C-451.32 273.91 -425.47 322.89 -404 362 C-403.49 362.93 -402.99 363.86 -402.46 364.82 C-378.04 409.52 -349.32 451.86 -318 492 C-317.58 492.54 -317.15 493.09 -316.72 493.65 C-306.56 506.7 -296.16 519.55 -285.44 532.13 C-282.94 535.07 -280.47 538.03 -278 541 C-274.73 538.18 -272.76 534.52 -270.56 530.88 C-262.6 517.93 -253.89 505.56 -244 494 C-243.51 493.43 -243.03 492.86 -242.53 492.28 C-239.96 489.27 -237.38 486.26 -234.8 483.26 C-232.16 480.2 -229.58 477.11 -227 474 C-228.27 472.64 -228.27 472.64 -229.57 471.25 C-234.57 465.89 -239.56 460.54 -244.55 455.19 C-245.12 454.58 -245.69 453.97 -246.28 453.34 C-247.43 452.11 -248.59 450.87 -249.74 449.63 C-252.68 446.48 -255.63 443.33 -258.57 440.18 C-264.04 434.32 -269.51 428.46 -274.94 422.56 C-280.66 416.35 -286.43 410.2 -292.21 404.04 C-297.57 398.33 -302.92 392.59 -308.27 386.86 C-311.18 383.74 -314.09 380.62 -317 377.5 C-318.17 376.25 -319.33 375 -320.5 373.75 C-321.08 373.13 -321.65 372.51 -322.25 371.88 C-324 370 -325.75 368.12 -327.5 366.25 C-328.08 365.63 -328.66 365.01 -329.25 364.37 C-330.42 363.13 -331.58 361.88 -332.75 360.63 C-335.69 357.48 -338.63 354.33 -341.57 351.18 C-347.04 345.32 -352.51 339.46 -357.94 333.56 C-363.66 327.35 -369.43 321.2 -375.21 315.04 C-380.57 309.33 -385.92 303.59 -391.27 297.86 C-394.18 294.74 -397.09 291.62 -400 288.5 C-401.17 287.25 -402.33 286 -403.5 284.75 C-404.08 284.13 -404.65 283.51 -405.25 282.88 C-407 281 -408.75 279.12 -410.5 277.25 C-411.08 276.63 -411.66 276.01 -412.25 275.37 C-413.42 274.13 -414.58 272.88 -415.75 271.63 C-418.69 268.48 -421.63 265.33 -424.57 262.18 C-445.99 239.26 -445.99 239.26 -453.57 230.51 C-454.28 229.76 -454.28 229.76 -455 229 C-455.33 229 -455.66 229 -456 229 Z " fill="#020201" transform="translate(515,11)"/>
<path d="M0 0 C6.93 0 13.86 0 21 0 C21 9.9 21 19.8 21 30 C28.59 30 36.18 30 44 30 C44 37.26 44 44.52 44 52 C36.41 52 28.82 52 21 52 C21 56.62 21 61.24 21 66 C22.98 66.66 24.96 67.32 27 68 C29.27 69.59 29.27 69.59 31.25 71.38 C32.25 72.25 32.25 72.25 33.27 73.15 C35.01 75.01 36 76.67 37 79 C37.9 78.58 37.9 78.58 38.83 78.16 C39.63 77.8 40.43 77.44 41.25 77.06 C42.04 76.7 42.83 76.34 43.64 75.97 C49.91 73.39 56.58 72.95 63.06 75.12 C70.84 78.49 75.6 82.75 79.1 90.52 C80.27 93.74 80.78 96.59 81 100 C81.55 99.69 82.11 99.37 82.68 99.05 C89.43 95.99 96.9 96.61 103.76 98.96 C107.08 100.5 109.38 102.45 112 105 C112.27 104.36 112.54 103.72 112.81 103.06 C116.13 95.73 119.95 90.22 127.49 86.91 C136.76 83.86 144.28 84.67 153 89 C159.03 93.19 162.28 98.93 164 106 C164.28 109.37 164.26 112.63 164 116 C165.07 115.36 166.14 114.72 167.25 114.06 C173.43 110.38 179.94 110.25 187 111 C194.46 113.26 199.58 117.67 204 124 C205.86 127.48 206.22 130.07 206 134 C206.95 133.79 207.9 133.59 208.88 133.38 C214.98 132.52 220.74 133.85 226.19 136.62 C231.76 141.33 236.19 145.78 238 153 C238.2 156.65 238.2 156.65 238.12 160.38 C238.11 161.62 238.09 162.87 238.07 164.15 C238.04 165.56 238.04 165.56 238 167 C238.94 167.29 239.87 167.57 240.84 167.87 C247.39 170.21 250.8 176.12 254 182 C256.2 188.59 255.82 196.66 253 203 C253.6 203.25 254.21 203.5 254.83 203.75 C257.34 205.2 258.23 206.46 259.69 208.94 C260.1 209.63 260.52 210.32 260.95 211.03 C264.07 216.89 263.54 223.54 263 230 C262.01 233.24 260.72 236.09 259 239 C259.42 239.53 259.84 240.06 260.28 240.61 C260.83 241.32 261.37 242.02 261.94 242.75 C262.76 243.79 262.76 243.79 263.59 244.86 C267.25 250.41 266.64 257.62 266 264 C264.3 269.59 261.95 273.53 257.19 276.94 C255.32 278.24 255.32 278.24 254 280 C253.62 282.82 253.75 285.42 253.93 288.26 C254.1 294.81 250.94 299.56 246.89 304.46 C242.09 308.38 236.11 309.66 230.12 310.69 C229.04 310.88 229.04 310.88 227.93 311.07 C219.96 312.35 212.05 312.27 204 312 C204.08 313.28 204.16 314.56 204.25 315.88 C204.21 324.46 200.61 331.17 194.79 337.31 C190.1 341.74 186.45 343.48 180 344 C180.43 345.08 180.43 345.08 180.88 346.19 C181.56 347.9 182.23 349.62 182.88 351.35 C184.46 355.08 186.61 358.37 188.76 361.79 C190 364 190 364 190 366 C184.32 368.13 178.61 369.68 172.69 370.94 C171.99 371.1 171.3 371.27 170.59 371.44 C168.57 371.84 168.57 371.84 165 372 C163.08 370.25 163.08 370.25 161 368 C158.9 367.1 156.77 366.46 154.58 365.8 C151.82 364.94 149.14 363.95 146.43 362.91 C145.46 362.54 144.49 362.17 143.49 361.79 C142.48 361.41 141.48 361.02 140.44 360.62 C131.04 357.08 121.66 353.76 112 351 C110.97 350.7 110.97 350.7 109.92 350.39 C87.09 343.79 63.62 340.22 40 338 C38.89 337.89 38.89 337.89 37.75 337.78 C32.83 337.33 27.93 337.13 23 337 C21.9 336.97 20.8 336.93 19.67 336.9 C-29.31 335.64 -78.46 343.66 -124 362 C-125.59 362.63 -127.19 363.26 -128.78 363.88 C-130.33 364.5 -131.89 365.13 -133.44 365.75 C-134.14 366.03 -134.85 366.31 -135.57 366.6 C-139.47 368.21 -139.47 368.21 -142.86 370.65 C-145 372 -145 372 -147.66 371.88 C-148.64 371.66 -149.63 371.43 -150.64 371.2 C-151.71 370.96 -152.78 370.73 -153.88 370.49 C-155.55 370.09 -155.55 370.09 -157.25 369.69 C-158.94 369.31 -158.94 369.31 -160.66 368.92 C-163.45 368.3 -166.22 367.66 -169 367 C-167.97 362.2 -165.4 358.37 -162.88 354.22 C-160.88 350.83 -159.48 347.93 -159 344 C-160.28 343.86 -161.56 343.71 -162.88 343.56 C-170.03 341.97 -175.49 336.77 -179.48 330.77 C-182 325.91 -183.14 321.67 -183.06 316.25 C-183.05 315.45 -183.04 314.65 -183.04 313.83 C-183.02 313.22 -183.01 312.62 -183 312 C-184 312.05 -184.99 312.09 -186.02 312.14 C-194.44 312.41 -202.4 311.87 -210.69 310.25 C-211.52 310.09 -212.36 309.94 -213.22 309.77 C-221.11 308.11 -226.29 304.67 -231 298 C-232.83 293.57 -232.96 290.18 -232.62 285.5 C-232.51 281.4 -232.51 281.4 -234.63 278.05 C-236.06 276.92 -237.5 275.81 -238.95 274.71 C-243.47 270.93 -244.75 266.3 -245.38 260.59 C-245.62 253.45 -245.15 247.92 -241 242 C-240.42 241.18 -239.85 240.35 -239.25 239.5 C-238.84 239 -238.43 238.51 -238 238 C-238.66 236.97 -239.32 235.94 -240 234.88 C-243.35 228.11 -243.37 220.12 -241.01 213.02 C-239.25 209.34 -237.55 206.54 -234.62 203.69 C-234.09 203.13 -233.55 202.57 -233 202 C-233.28 200.32 -233.63 198.66 -234 197 C-234.67 189.18 -234.25 182.74 -230 176 C-226.8 172.22 -223.24 169.55 -219 167 C-218.34 167 -217.68 167 -217 167 C-217.05 166.09 -217.09 165.19 -217.14 164.25 C-217.44 154.29 -216.55 147.56 -209.69 140.12 C-204.17 135.05 -198.3 133.46 -191 133 C-187.5 133.44 -187.5 133.44 -185 134 C-184.92 132.8 -184.83 131.61 -184.75 130.38 C-183.87 123.64 -179.97 119.45 -174.84 115.32 C-168.28 110.59 -161.83 110.21 -154 111 C-149.9 112.02 -146.53 113.65 -143 116 C-143.05 115.39 -143.09 114.79 -143.14 114.16 C-143.51 105.68 -141.66 98.58 -135.94 92.12 C-130.75 87.41 -124.3 85.41 -117.44 84.56 C-108.65 85.68 -101.8 88.03 -96 95 C-94.06 98.23 -92.45 101.53 -91 105 C-90.22 104.24 -89.43 103.47 -88.62 102.69 C-82.89 97.98 -76.42 96.65 -69.12 97.19 C-65.64 97.57 -63.05 98.27 -60 100 C-59.93 99.38 -59.85 98.77 -59.77 98.13 C-58.49 89.84 -55.31 83.26 -48.56 78.06 C-42.52 74.23 -36.03 73.21 -29 74 C-24.4 75.14 -20.2 76.83 -16 79 C-15.66 78.16 -15.66 78.16 -15.31 77.31 C-12.17 71.77 -7.52 68.81 -2 66 C-1.34 66 -0.68 66 0 66 C0 61.38 0 56.76 0 52 C-7.59 52 -15.18 52 -23 52 C-23 44.74 -23 37.48 -23 30 C-15.41 30 -7.82 30 0 30 C0 20.1 0 10.2 0 0 Z " fill="#040201" transform="translate(515,11)"/>
<path d="M0 0 C1.59 -0.04 3.18 -0.1 4.77 -0.18 C17.97 -0.84 17.97 -0.84 23.63 2.7 C26.38 5.21 28.85 7.84 31.32 10.62 C32.6 11.73 33.9 12.8 35.24 13.83 C35.81 14.27 36.38 14.71 36.97 15.17 C37.52 15.59 38.07 16.01 38.63 16.44 C42.93 19.75 47.21 23.07 51.32 26.62 C51.32 26.95 51.32 27.28 51.32 27.62 C49.39 27.66 49.39 27.66 47.42 27.7 C42.62 27.8 37.82 27.9 33.01 28 C30.94 28.04 28.87 28.08 26.8 28.12 C23.8 28.18 20.81 28.24 17.82 28.31 C16.45 28.33 16.45 28.33 15.05 28.36 C9.41 28.49 3.91 28.93 -1.68 29.62 C-0.99 29.6 -0.3 29.58 0.41 29.55 C7 29.33 13.59 29.16 20.18 29.05 C23.56 29 26.95 28.92 30.33 28.79 C46.51 28.24 58.47 28.02 70.79 39.28 C72.95 41.18 75.31 42.64 77.77 44.12 C78.56 44.61 79.36 45.1 80.17 45.6 C80.96 46.08 81.75 46.57 82.57 47.06 C83.44 47.6 84.32 48.14 85.22 48.69 C89.63 51.4 94.05 54.07 98.51 56.7 C109.5 63.18 120.04 70.05 130.32 77.62 C131.83 78.73 131.83 78.73 133.37 79.86 C137.87 83.25 137.87 83.25 139.32 84.62 C139.32 85.28 139.32 85.94 139.32 86.62 C140.04 86.87 140.77 87.11 141.52 87.36 C144.66 88.78 146.62 90.46 149.13 92.81 C150 93.62 150.87 94.42 151.76 95.25 C153.03 96.43 153.03 96.43 154.32 97.62 C155.71 98.84 157.1 100.05 158.51 101.25 C162.27 104.53 165.97 107.92 169.32 111.62 C169.32 111.95 169.32 112.28 169.32 112.62 C168.51 112.68 167.71 112.73 166.88 112.79 C87.43 118.41 13.79 147.41 -54.81 186.99 C-57.76 188.67 -60.72 190.31 -63.68 191.95 C-74.82 198.11 -85.82 204.44 -96.68 211.06 C-97.27 211.42 -97.86 211.78 -98.47 212.15 C-104.55 215.85 -110.6 219.57 -116.64 223.34 C-229.7 293.23 -229.7 293.23 -272.68 290.62 C-273.18 289.49 -273.67 288.35 -274.19 287.18 C-278.43 277.52 -282.85 268.01 -287.68 258.62 C-282.57 256.49 -277.43 254.52 -272.17 252.76 C-243.45 243.02 -216.34 228.68 -190.68 212.62 C-189.41 211.83 -189.41 211.83 -188.1 211.01 C-171 200.28 -154.13 189.17 -137.26 178.06 C-73.1 135.79 -4.39 94.94 73.32 85.62 C37.7 86.81 1.58 100.83 -30.22 115.98 C-32.67 117.14 -35.12 118.3 -37.57 119.46 C-54.8 127.56 -71.61 136 -87.89 145.92 C-90.69 147.63 -93.5 149.3 -96.32 150.98 C-107.94 157.91 -119.25 165.25 -130.47 172.8 C-141.2 180.01 -152.08 186.96 -162.98 193.9 C-166.01 195.84 -169.03 197.81 -172.04 199.78 C-207.29 222.86 -246.87 248.22 -288.68 256.62 C-289.27 255.79 -289.27 255.79 -289.86 254.93 C-291.07 253.19 -292.29 251.46 -293.51 249.73 C-295 247.6 -296.48 245.47 -297.95 243.34 C-306.16 231.53 -315.32 220.84 -325.43 210.62 C-326.03 210.01 -326.64 209.4 -327.25 208.77 C-330.99 205.07 -334.86 201.89 -339.19 198.89 C-339.68 198.47 -340.17 198.05 -340.68 197.62 C-340.68 196.96 -340.68 196.3 -340.68 195.62 C-339.55 195.2 -338.42 194.77 -337.26 194.33 C-322.33 188.59 -307.94 181.86 -293.68 174.62 C-292.78 174.17 -291.87 173.71 -290.94 173.24 C-269.31 162.06 -249.31 147.74 -229.1 134.24 C-226.33 132.39 -223.57 130.55 -220.81 128.71 C-217.26 126.35 -213.72 123.99 -210.18 121.62 C-159.8 87.98 -103.81 51.11 -43.68 38.62 C-50.85 39.2 -57.26 41.2 -64.06 43.5 C-65.24 43.9 -66.42 44.3 -67.64 44.71 C-95.64 54.33 -122.32 67.19 -147.9 82.02 C-150.58 83.57 -153.28 85.08 -155.99 86.59 C-167.14 92.82 -177.89 99.53 -188.53 106.59 C-192.7 109.35 -196.92 112.03 -201.15 114.69 C-212.72 121.93 -224.02 129.52 -235.31 137.19 C-271.88 162.01 -271.88 162.01 -287.31 170.12 C-287.9 170.44 -288.48 170.75 -289.09 171.07 C-334.01 194.87 -334.01 194.87 -343.24 194.53 C-346.5 193.32 -348.81 191.5 -351.56 189.37 C-361.28 182.08 -372.04 176.45 -382.68 170.62 C-380.19 168 -377.87 165.95 -374.72 164.17 C-373.93 163.73 -373.15 163.28 -372.34 162.82 C-371.48 162.34 -370.63 161.87 -369.74 161.37 C-368.38 160.61 -368.38 160.61 -367 159.82 C-361.51 156.73 -356 153.69 -350.48 150.67 C-337.77 143.7 -325.13 136.7 -312.85 128.98 C-310.55 127.54 -308.23 126.13 -305.91 124.73 C-285.66 112.44 -266.21 98.92 -246.91 85.2 C-209.13 58.41 -171.24 35.23 -126.68 21.62 C-125.52 21.26 -124.35 20.9 -123.15 20.53 C-83.4 8.3 -41.64 0.85 0 0 Z " fill="#133B8A" transform="translate(737.681884765625,722.375244140625)"/>
<path d="M0 0 C3.1 0.25 3.9 0.99 6.03 3.2 C6.97 4.16 6.97 4.16 7.93 5.13 C8.57 5.81 9.22 6.5 9.88 7.2 C10.89 8.24 10.89 8.24 11.92 9.3 C15.66 13.17 19.29 17.11 22.75 21.22 C25.66 24.5 28.82 27.55 31.96 30.61 C33.16 31.79 34.34 32.99 35.51 34.2 C35.51 34.53 35.51 34.86 35.51 35.2 C33.86 35.53 32.21 35.86 30.51 36.2 C31.71 36.26 32.9 36.31 34.14 36.37 C38.81 36.96 41.35 39.13 44.47 42.51 C44.99 43.04 45.5 43.57 46.04 44.12 C47.67 45.8 49.28 47.5 50.88 49.2 C52.52 50.9 54.16 52.59 55.8 54.29 C56.81 55.34 57.82 56.39 58.83 57.45 C61.39 60.19 61.39 60.19 64.51 62.2 C64.51 62.86 64.51 63.52 64.51 64.2 C63.56 64.51 62.6 64.81 61.62 65.13 C-10.78 88.42 -73.37 126.74 -136.04 169.16 C-145.5 175.56 -154.99 181.9 -164.5 188.21 C-167.95 190.51 -171.39 192.81 -174.82 195.11 C-205.89 215.92 -237.34 235.85 -270.49 253.2 C-271.91 253.95 -271.91 253.95 -273.36 254.72 C-308.61 273.17 -346.47 288.11 -385.49 296.2 C-386.93 296.52 -388.37 296.83 -389.8 297.15 C-417.57 302.89 -449.72 304.44 -477.49 298.2 C-478.83 297.91 -480.17 297.62 -481.51 297.33 C-484.52 296.66 -487.51 295.96 -490.49 295.2 C-490.09 294.01 -489.69 292.81 -489.28 291.58 C-487.11 285.1 -485.02 278.59 -482.93 272.08 C-482.53 270.84 -482.13 269.6 -481.72 268.33 C-481.33 267.13 -480.95 265.93 -480.55 264.69 C-480.2 263.61 -479.85 262.54 -479.5 261.42 C-478.44 258.03 -477.47 254.62 -476.49 251.2 C-467.91 250.87 -459.33 250.54 -450.49 250.2 C-458.74 250.2 -466.99 250.2 -475.49 250.2 C-475.49 241.22 -475.49 241.22 -474.87 236.95 C-474.74 236.01 -474.61 235.07 -474.47 234.1 C-474.2 232.2 -473.92 230.3 -473.64 228.39 C-472.48 220.01 -471.94 211.64 -471.49 203.2 C-469.98 202.83 -469.98 202.83 -468.43 202.46 C-416.04 189.65 -366.93 170.96 -318.49 147.2 C-317.35 146.65 -316.21 146.09 -315.04 145.52 C-299.86 138.09 -285 130.28 -270.36 121.84 C-267.42 120.16 -264.46 118.51 -261.49 116.87 C-246.15 108.4 -231.15 99.45 -216.22 90.27 C-213.39 88.53 -210.55 86.79 -207.71 85.06 C-197.39 78.74 -187.12 72.35 -176.93 65.83 C-162.27 56.46 -147.47 47.99 -131.83 40.36 C-129.71 39.31 -127.61 38.24 -125.51 37.15 C-106.93 27.52 -87.28 19.95 -67.49 13.2 C-66.44 12.84 -66.44 12.84 -65.37 12.47 C-44.43 5.42 -21.97 1.78 0 0 Z " fill="#143B89" transform="translate(950.490478515625,882.79833984375)"/>
<path d="M0 0 C9.89 9.15 18.76 18.71 26.71 29.59 C27.48 30.63 28.25 31.68 29.04 32.76 C59.94 76.19 74.61 129.37 66.07 182.46 C65.9 183.51 65.9 183.51 65.71 184.59 C65.52 185.76 65.52 185.76 65.32 186.96 C62.28 204.91 56.78 221.83 49.71 238.59 C35.26 236.89 27.59 228.19 18.53 217.62 C16.5 215.35 14.38 213.22 12.21 211.09 C9.47 208.38 6.84 205.64 4.34 202.71 C-1.88 195.48 -8.75 188.77 -16 182.59 C-18.48 180.42 -20.87 178.18 -23.27 175.93 C-29.73 169.86 -36.32 164.08 -43.29 158.59 C-44.53 157.58 -45.77 156.57 -47.02 155.55 C-71.84 135.15 -71.84 135.15 -100.29 121.34 C-136.74 109.68 -165.14 75.66 -183.13 43.27 C-196.6 19.02 -214.72 -2.7 -233.92 -22.62 C-238.29 -27.2 -238.29 -27.2 -238.29 -29.41 C-158.32 -64.01 -67.19 -61.14 0 0 Z " fill="#FCFCFD" transform="translate(401.28515625,935.4140625)"/>
<path d="M0 0 C1.22 0 2.43 0 3.69 0 C7.94 1.28 9.4 3.28 12.12 6.69 C14.11 9.13 16.24 11.3 18.5 13.5 C21.82 16.78 24.94 20.15 27.98 23.7 C31.13 27.29 34.39 30.77 37.65 34.26 C40.89 37.74 43.98 41.32 47 45 C46.29 46.95 46.29 46.95 45 49 C42.95 49.65 42.95 49.65 40.4 49.87 C39.45 49.97 38.49 50.06 37.51 50.16 C36.48 50.25 35.44 50.34 34.38 50.44 C-13.22 55.56 -58.26 74.19 -100 97 C-100.66 97.36 -101.33 97.71 -102.01 98.08 C-112.36 103.67 -122.26 109.9 -132.15 116.25 C-147.76 126.27 -163.53 136.04 -179.48 145.51 C-182.1 147.06 -184.71 148.62 -187.32 150.18 C-243.77 183.77 -301.77 213.68 -364 235 C-364.97 235.34 -364.97 235.34 -365.96 235.68 C-374.56 238.63 -383.2 241.26 -392 243.56 C-394.25 244.16 -396.51 244.75 -398.76 245.35 C-399.83 245.63 -400.9 245.91 -402 246.2 C-404.63 246.9 -407.25 247.63 -409.87 248.37 C-410.56 248.57 -411.25 248.76 -411.96 248.96 C-413.73 249.46 -415.48 249.96 -417.24 250.47 C-420.04 251.01 -421.34 250.78 -424 250 C-424.04 249.33 -424.09 248.65 -424.14 247.96 C-425.41 229.28 -428.14 211.81 -432.82 193.69 C-433.98 189.15 -435 184.58 -436 180 C-432.54 179.01 -432.54 179.01 -429 178 C-429.33 177.34 -429.66 176.68 -430 176 C-428.79 175.65 -427.58 175.3 -426.33 174.93 C-376.21 160.24 -325.64 137.69 -281.55 109.5 C-274.53 105.02 -267.35 100.8 -260.19 96.56 C-259.5 96.15 -258.8 95.74 -258.09 95.32 C-254.66 93.29 -251.23 91.27 -247.8 89.24 C-244.44 87.26 -241.09 85.27 -237.74 83.27 C-221.46 73.61 -204.8 64.72 -188 56 C-186.85 55.4 -185.7 54.81 -184.52 54.19 C-142.25 32.31 -97.83 15.07 -51 6 C-49.61 5.72 -49.61 5.72 -48.19 5.44 C-32.46 2.33 -16.12 -0.85 0 0 Z " fill="#143B8A" transform="translate(903,835)"/>
<path d="M0 0 C4.18 4.68 6.8 10.05 9.69 15.56 C14.65 24.87 19.85 33.98 25.31 43 C25.66 43.58 26.02 44.17 26.38 44.77 C30.29 51.24 34.33 57.56 38.71 63.72 C39.84 65.33 39.84 65.33 40.99 66.96 C42.41 68.97 43.87 70.96 45.35 72.92 C49.98 79.44 49.98 79.44 50.04 83.67 C49.53 86.51 48.8 89.22 48 92 C45.34 104.18 45.77 116.42 45.88 128.81 C45.89 130.97 45.89 133.13 45.9 135.28 C45.92 140.52 45.96 145.76 46 151 C46.01 150.45 46.01 149.89 46.02 149.32 C46.08 143.48 46.17 137.64 46.26 131.8 C46.3 129.63 46.32 127.46 46.35 125.29 C46.7 92.95 46.7 92.95 52 85 C55.77 90.1 59.48 95.23 63.09 100.45 C71.17 112.13 79.6 123.5 88.28 134.75 C90.48 137.63 92.65 140.53 94.81 143.44 C102.04 153.1 109.56 162.51 117.25 171.81 C118.14 172.9 118.14 172.9 119.06 174.01 C121.51 176.99 123.97 179.97 126.48 182.9 C127.13 183.68 127.77 184.45 128.44 185.25 C128.97 185.87 129.51 186.5 130.06 187.14 C131.44 189.88 130.95 191.09 130 194 C128.76 196.82 127.38 199.56 126 202.31 C112.55 230.06 104.37 259.72 99 290 C98.82 291.02 98.64 292.03 98.45 293.08 C90.86 338.31 95.11 388.2 108 432 C108.19 432.66 108.38 433.33 108.58 434.01 C111.34 443.59 114.77 452.89 118.41 462.17 C118.74 463.03 119.08 463.89 119.43 464.77 C119.73 465.54 120.03 466.31 120.34 467.1 C121 469 121 469 121 471 C115.5 470.55 110.04 469.97 104.57 469.28 C102.24 469.03 99.94 468.89 97.6 468.79 C92.18 468.3 87.93 467.28 84.31 463 C79.94 456.45 76.95 449.27 74 442 C73.55 440.93 73.11 439.85 72.65 438.75 C64.59 419.05 59.09 398.63 54 378 C55.32 386.28 57.3 394.26 59.62 402.31 C59.98 403.54 60.33 404.76 60.69 406.02 C65.99 424.08 72.57 441.17 81 458 C81.58 459.17 82.16 460.33 82.76 461.53 C83.17 462.35 83.58 463.16 84 464 C77.47 462.69 71.4 460.89 65.19 458.5 C64.29 458.15 63.39 457.81 62.46 457.45 C55.91 454.87 49.51 452.03 43.19 448.94 C41.98 448.36 41.98 448.36 40.75 447.77 C22.61 438.62 13.07 419.65 6.75 401.12 C2.36 387.65 0.36 374.17 0 360 C-0.03 358.96 -0.07 357.92 -0.1 356.85 C-1.06 322.33 4.45 288.58 9.51 254.53 C9.65 253.61 9.78 252.69 9.92 251.74 C10.05 250.89 10.18 250.05 10.31 249.18 C10.42 248.44 10.53 247.7 10.64 246.94 C11 245 11 245 12 242 C12.24 239.1 12.42 236.22 12.55 233.32 C12.6 232.44 12.64 231.55 12.68 230.65 C13.11 220.77 13.15 210.91 13.13 201.03 C13.12 197.94 13.13 194.85 13.14 191.76 C13.14 174.99 12.81 158.31 10.38 141.69 C10.12 139.95 10.12 139.95 9.87 138.17 C7.58 123.18 4.01 108.43 0.15 93.78 C-0.11 92.76 -0.38 91.74 -0.65 90.69 C-0.89 89.8 -1.12 88.92 -1.37 88.01 C-3.06 79.96 -3.16 71.93 -3.17 63.72 C-3.17 62.56 -3.17 61.39 -3.18 60.19 C-3.18 57.73 -3.19 55.27 -3.19 52.81 C-3.19 49.11 -3.21 45.4 -3.22 41.69 C-3.3 9.9 -3.3 9.9 0 0 Z " fill="#143B88" transform="translate(100,375)"/>
<path d="M0 0 C0.06 1.6 0.06 1.6 0.11 3.23 C2.32 55.82 36.91 101.98 71.44 139.22 C73.72 141.7 75.96 144.22 78.19 146.75 C82.45 151.51 86.93 156.04 91.44 160.56 C92.15 161.28 92.86 161.99 93.59 162.73 C94.26 163.4 94.93 164.07 95.62 164.75 C96.52 165.66 96.52 165.66 97.45 166.58 C98.96 168.09 98.96 168.09 101 169 C101 169.66 101 170.32 101 171 C100.01 171.48 100.01 171.48 98.99 171.97 C57.3 192.25 19.53 217.58 -16.49 246.65 C-23.16 251.99 -30.07 257.01 -37 262 C-40.86 260.39 -43.47 257.9 -46.5 255.06 C-47.57 254.06 -48.65 253.06 -49.72 252.06 C-50.27 251.55 -50.81 251.04 -51.38 250.51 C-52.9 249.09 -54.45 247.68 -56 246.29 C-66.2 237.06 -76.13 227.54 -85 217 C-85.81 216.08 -86.61 215.17 -87.44 214.22 C-116.05 181.48 -140.92 136.54 -139 92 C-137.5 71.67 -128.39 54.92 -113.17 41.5 C-84.78 18.62 -36.53 -0.94 0 0 Z " fill="#E5A413" transform="translate(456,517)"/>
<path d="M0 0 C0.85 0.12 1.71 0.25 2.59 0.37 C18.62 2.76 36.09 5.39 51 12 C47.39 15.06 43.72 17.37 39.56 19.62 C27.93 26.12 17.74 33.91 8 43 C6.75 44.07 5.5 45.13 4.25 46.19 C-4.82 54.12 -13.32 62.76 -20.78 72.21 C-22.88 74.84 -25.04 77.39 -27.23 79.94 C-31.92 85.38 -36.24 90.86 -40 97 C-39.27 97.27 -38.55 97.54 -37.8 97.82 C-35.06 98.97 -32.73 100.3 -30.23 101.91 C-29.33 102.48 -28.43 103.05 -27.5 103.64 C-26.55 104.26 -25.6 104.87 -24.62 105.5 C-23.64 106.13 -22.65 106.77 -21.64 107.42 C-2.65 119.63 16.09 132.25 34 146 C35.03 146.79 36.06 147.57 37.12 148.38 C51.74 159.56 66.13 171 80.16 182.91 C84.47 186.57 88.83 190.15 93.21 193.72 C98.17 197.78 103.08 201.89 108 206 C116.34 202.3 122.17 193.66 127.68 186.67 C128.61 185.49 129.55 184.32 130.49 183.15 C152.9 155.32 167.58 122.62 172 87 C180.65 90.66 187 99.99 192.71 107.14 C194.73 109.67 196.8 112.16 198.89 114.64 C200.94 117.08 202.97 119.54 205 122 C205.66 122.78 206.32 123.56 207 124.36 C207.56 125.05 208.11 125.73 208.69 126.44 C209.17 127.01 209.64 127.59 210.14 128.18 C211.36 130.76 210.69 132.27 210 135 C208.76 138.23 207.24 141.32 205.75 144.44 C205.09 145.82 205.09 145.82 204.42 147.22 C192.31 172.03 176.74 195.47 158.02 215.79 C156.26 217.72 154.56 219.69 152.88 221.69 C143.81 232.06 133.86 241.54 123 250 C122.67 250.33 122.34 250.66 122 251 C119.86 251.19 117.72 251.32 115.57 251.43 C114.21 251.5 112.86 251.57 111.5 251.65 C110.78 251.68 110.07 251.72 109.33 251.76 C97.17 252.4 85.17 253.27 73.19 255.58 C70.88 256.02 68.57 256.43 66.25 256.84 C43.13 261.03 20.94 268.72 -1 277 C-1.56 276.43 -2.11 275.86 -2.69 275.28 C-6.32 271.6 -9.94 267.98 -13.88 264.62 C-21.16 258.36 -27.91 251.45 -34.14 244.14 C-36 242.01 -37.91 239.94 -39.84 237.88 C-45.85 231.45 -51.33 224.7 -56.68 217.71 C-57.93 216.09 -59.21 214.49 -60.49 212.89 C-81.54 186.39 -105.06 149.24 -102 114 C-99.12 91.69 -86.36 72.63 -72.35 55.64 C-71.08 54.1 -69.84 52.54 -68.6 50.98 C-55.59 34.99 -40.73 20.18 -23.85 8.32 C-22.08 7.06 -20.35 5.74 -18.63 4.4 C-17.62 3.65 -16.61 2.9 -15.56 2.12 C-14.72 1.49 -13.87 0.85 -13 0.2 C-8.5 -1.6 -4.7 -0.76 0 0 Z " fill="#E5A413" transform="translate(573,404)"/>
<path d="M0 0 C1.37 -0.05 2.74 -0.12 4.1 -0.2 C14.88 -0.84 14.88 -0.84 19.57 3.11 C21.86 5.91 23.86 8.77 25.83 11.8 C26.74 12.89 27.67 13.97 28.65 15 C32.2 18.83 35.72 22.67 39.14 26.63 C42.85 30.88 46.77 34.89 50.77 38.86 C51.43 39.53 52.1 40.2 52.78 40.89 C56.76 44.87 60.86 48.63 65.17 52.26 C66.83 53.8 66.83 53.8 68.83 56.8 C43.09 58.29 43.09 58.29 16.83 59.8 C16.5 60.46 16.17 61.12 15.83 61.8 C13.43 62.32 13.43 62.32 10.23 62.7 C9.05 62.84 7.86 62.99 6.65 63.15 C5.37 63.3 4.09 63.45 2.77 63.61 C-9.07 65.13 -20.7 67.18 -32.35 69.75 C-41.03 71.66 -41.03 71.66 -45.25 71.94 C-53.01 72.49 -60.14 74.62 -67.55 76.93 C-68.89 77.34 -70.23 77.75 -71.57 78.16 C-105.03 88.46 -134.88 102.59 -164.17 121.8 C-165.24 122.5 -166.32 123.19 -167.42 123.91 C-179.93 132.13 -192.13 140.84 -204.37 149.46 C-225.15 164.09 -246.36 177.76 -268.17 190.8 C-269.74 191.75 -271.32 192.7 -272.89 193.65 C-281.8 198.98 -290.9 203.92 -300.06 208.82 C-307.8 212.99 -315.36 217.4 -322.84 222.02 C-324.94 223.31 -327.05 224.56 -329.17 225.8 C-330.01 226.3 -330.85 226.8 -331.72 227.32 C-335.62 228.09 -338.67 226.36 -342.17 224.8 C-359.83 217.51 -377.56 213.67 -396.47 211.16 C-398.64 210.87 -400.81 210.55 -402.98 210.21 C-409.43 209.42 -415.99 209.6 -422.48 209.61 C-423.2 209.62 -423.92 209.62 -424.65 209.62 C-457.94 209.73 -490.36 217.02 -520.55 231.28 C-527.71 234.65 -527.71 234.65 -531.17 234.8 C-533.06 233.68 -533.06 233.68 -534.86 231.93 C-535.55 231.27 -536.25 230.62 -536.97 229.94 C-537.7 229.24 -538.42 228.53 -539.17 227.8 C-553.66 214.16 -570.07 202.36 -586.71 191.47 C-606.36 178.45 -614.79 163.25 -622.82 141.46 C-626.12 132.5 -629.66 123.67 -633.36 114.86 C-637.07 106.01 -640.67 97.13 -643.98 88.11 C-644.33 87.19 -644.67 86.27 -645.03 85.32 C-645.33 84.49 -645.63 83.65 -645.94 82.79 C-646.2 82.06 -646.47 81.34 -646.74 80.59 C-647.17 78.8 -647.17 78.8 -646.17 76.8 C-645.31 78.15 -645.31 78.15 -644.44 79.52 C-609.89 133.03 -555.21 173.4 -492.66 187.05 C-487.52 188.1 -482.36 188.98 -477.17 189.8 C-476.47 189.92 -475.77 190.04 -475.04 190.16 C-437.3 196.32 -395.87 189.65 -360.17 176.8 C-359.36 176.52 -358.56 176.23 -357.72 175.94 C-331.02 166.41 -305.4 154.13 -282.17 137.8 C-280.87 136.9 -279.57 136 -278.27 135.1 C-268 127.97 -258.03 120.48 -248.17 112.8 C-247.56 112.32 -246.94 111.84 -246.31 111.35 C-241.04 107.25 -235.79 103.12 -230.6 98.91 C-216.38 87.37 -201.54 76.75 -186.17 66.8 C-185.44 66.33 -184.72 65.86 -183.97 65.37 C-172.62 58.02 -161.08 51.19 -149.17 44.8 C-148.29 44.33 -147.42 43.85 -146.52 43.36 C-111.16 24.27 -74.67 11.02 -35.17 3.8 C-34.29 3.63 -33.41 3.47 -32.5 3.29 C-21.76 1.27 -10.92 0.33 0 0 Z " fill="#133B89" transform="translate(685.1713256835938,664.1986389160156)"/>
<path d="M0 0 C2 1 2 1 2.73 3.13 C2.95 4.05 3.18 4.96 3.41 5.9 C9.92 31.16 21.09 55.03 32.12 78.56 C32.64 79.67 32.64 79.67 33.17 80.79 C36.66 88.24 40.21 95.57 44.32 102.7 C49.73 112.11 49.82 119.41 48.5 130.04 C47.08 141.75 46.69 153.31 46.74 165.1 C46.75 168.06 46.74 171.03 46.73 173.99 C46.71 188.98 46.95 203.85 51.85 218.14 C54.74 227.16 56.16 236.72 58 246 C58.66 245.67 59.32 245.34 60 245 C64.03 267.64 65.18 289.89 65.13 312.84 C65.13 315.93 65.13 319.02 65.14 322.11 C65.14 331.68 65.04 341.25 64.62 350.82 C64.59 351.59 64.56 352.35 64.53 353.15 C64.26 358.23 63.5 363.11 62.54 368.11 C61.59 373.17 60.87 378.27 60.12 383.37 C59.96 384.52 59.79 385.68 59.61 386.87 C59.25 389.3 58.9 391.74 58.54 394.17 C58.01 397.83 57.46 401.49 56.92 405.14 C53.74 426.79 51.63 447.92 51.63 469.81 C51.62 473.19 51.59 476.58 51.55 479.96 C51.46 497.17 53.42 512.43 60.25 528.38 C60.64 529.3 61.02 530.22 61.42 531.17 C65.03 539.55 69.28 547.67 76 554 C75.67 554.66 75.34 555.32 75 556 C62.56 547.39 50.73 538.53 39.54 528.32 C37.77 526.7 35.98 525.09 34.18 523.49 C28.69 518.6 23.7 513.64 19 508 C18.17 507.06 17.34 506.11 16.48 505.14 C5.23 492.32 -3.56 478.33 -11 463 C-11.57 461.83 -12.13 460.67 -12.72 459.47 C-27.04 427.02 -22.43 392.35 -15.4 358.76 C-13.91 351.64 -12.55 344.5 -11.21 337.35 C-10.82 335.32 -10.44 333.28 -10.06 331.25 C-9.35 327.5 -8.67 323.75 -8 320 C-7.8 318.93 -7.6 317.86 -7.39 316.76 C-5.82 307.76 -5.64 298.92 -5.69 289.81 C-5.69 289.04 -5.69 288.26 -5.69 287.47 C-5.77 271.07 -8.02 256.9 -12.73 241.25 C-15.83 230.68 -17.42 219.88 -19 209 C-19.11 208.24 -19.23 207.49 -19.34 206.71 C-21.68 191.07 -22.24 175.54 -22.25 159.75 C-22.25 158.82 -22.25 157.88 -22.25 156.92 C-22.25 133.91 -20.72 111.06 -16.74 88.38 C-16.05 84.41 -15.53 80.44 -15.03 76.45 C-11.77 50.67 -5.88 25.29 0 0 Z " fill="#133B88" transform="translate(49,257)"/>
<path d="M0 0 C-0.22 0.95 -0.43 1.89 -0.66 2.87 C-10.09 46.52 9.87 91.8 33 128 C43.4 143.78 55.62 159.07 69.21 172.21 C71.05 174.05 72.71 175.96 74.38 177.94 C77.8 181.93 81.62 185.35 85.57 188.82 C87.75 190.78 89.83 192.79 91.88 194.88 C94.11 197.16 96.34 199.19 99 201 C97.6 204.39 96.13 205.91 93.06 207.88 C92.26 208.41 91.46 208.93 90.63 209.47 C89.76 210.01 88.89 210.56 88 211.12 C87.1 211.7 86.2 212.27 85.27 212.87 C58.9 229.53 30.95 242.22 1 251 C-0.06 251.33 -1.11 251.65 -2.2 251.99 C-11.04 254.55 -20 256.16 -29.06 257.69 C-30.94 258.01 -30.94 258.01 -32.86 258.34 C-44.54 260.25 -56.17 261.25 -68 261 C-77.05 242.09 -84.25 222.29 -88.44 201.73 C-88.83 199.81 -89.24 197.89 -89.65 195.98 C-94.58 173.12 -96.16 150.83 -96.25 127.5 C-96.26 126.66 -96.26 125.82 -96.27 124.95 C-96.32 113.47 -95.56 102.37 -94 91 C-93.75 88.94 -93.5 86.87 -93.25 84.81 C-93.02 83.02 -92.79 81.23 -92.56 79.44 C-92.45 78.53 -92.34 77.63 -92.23 76.69 C-91.14 68.32 -89.63 61.88 -83.31 55.94 C-82.42 55.09 -81.52 54.24 -80.6 53.37 C-79.31 52.2 -79.31 52.2 -78 51 C-77.35 50.4 -76.7 49.81 -76.02 49.2 C-74.04 47.43 -72.02 45.72 -70 44 C-69.09 43.2 -68.18 42.4 -67.25 41.58 C-19.57 0 -19.57 0 0 0 Z " fill="#E5A413" transform="translate(306,586)"/>
<path d="M0 0 C3.1 0.25 3.9 0.99 6.03 3.2 C6.97 4.16 6.97 4.16 7.93 5.13 C8.57 5.81 9.22 6.5 9.88 7.2 C10.89 8.24 10.89 8.24 11.92 9.3 C15.66 13.17 19.29 17.11 22.75 21.22 C25.66 24.5 28.82 27.55 31.96 30.61 C33.16 31.79 34.34 32.99 35.51 34.2 C35.51 34.53 35.51 34.86 35.51 35.2 C32.12 35.95 28.89 36.36 25.42 36.53 C-54.61 40.99 -124.62 81.25 -189.49 125.2 C-190.48 125.87 -191.47 126.54 -192.49 127.23 C-206.34 136.61 -220.03 146.23 -233.71 155.88 C-250.86 167.98 -268.44 178.84 -286.7 189.19 C-287.89 189.86 -289.08 190.54 -290.27 191.21 C-323.93 210.33 -358.39 226.75 -395.49 238.2 C-396.61 238.55 -396.61 238.55 -397.76 238.91 C-422.28 246.49 -449.79 251.31 -475.49 250.2 C-475.69 242.78 -474.71 235.72 -473.64 228.39 C-472.48 220.01 -471.94 211.64 -471.49 203.2 C-469.98 202.83 -469.98 202.83 -468.43 202.46 C-416.04 189.65 -366.93 170.96 -318.49 147.2 C-317.35 146.65 -316.21 146.09 -315.04 145.52 C-299.86 138.09 -285 130.28 -270.36 121.84 C-267.42 120.16 -264.46 118.51 -261.49 116.87 C-246.15 108.4 -231.15 99.45 -216.22 90.27 C-213.39 88.53 -210.55 86.79 -207.71 85.06 C-197.39 78.74 -187.12 72.35 -176.93 65.83 C-162.27 56.46 -147.47 47.99 -131.83 40.36 C-129.71 39.31 -127.61 38.24 -125.51 37.15 C-106.93 27.52 -87.28 19.95 -67.49 13.2 C-66.44 12.84 -66.44 12.84 -65.37 12.47 C-44.43 5.42 -21.97 1.78 0 0 Z " fill="#FDFDFD" transform="translate(950.490478515625,882.79833984375)"/>
<path d="M0 0 C0.8 0.75 1.6 1.5 2.42 2.27 C3.72 3.48 3.72 3.48 5.05 4.71 C5.89 5.49 6.74 6.28 7.61 7.08 C9 8.3 10.39 9.5 11.79 10.71 C15.56 13.99 19.25 17.37 22.61 21.08 C22.61 21.41 22.61 21.74 22.61 22.08 C21.8 22.14 20.99 22.19 20.16 22.25 C-59.29 27.87 -132.93 56.87 -201.53 96.44 C-204.47 98.12 -207.43 99.77 -210.39 101.41 C-221.53 107.56 -232.53 113.9 -243.39 120.52 C-243.99 120.88 -244.58 121.24 -245.18 121.61 C-251.26 125.31 -257.32 129.03 -263.35 132.79 C-376.41 202.69 -376.41 202.69 -419.39 200.08 C-419.89 198.95 -420.39 197.81 -420.9 196.64 C-425.14 186.98 -429.57 177.47 -434.39 168.08 C-429.28 165.95 -424.14 163.98 -418.88 162.22 C-390.16 152.47 -363.05 138.13 -337.39 122.08 C-336.12 121.28 -336.12 121.28 -334.82 120.47 C-317.71 109.74 -300.84 98.62 -283.98 87.51 C-201.82 33.4 -115.89 -13.29 0 0 Z " fill="#FDFDFD" transform="translate(884.39453125,812.91796875)"/>
<path d="M0 0 C1.54 0.01 3.07 0.01 4.61 0.01 C8.32 0.02 12.04 0.04 15.75 0.06 C12.26 3.59 8.7 6.84 4.88 10 C-7.59 20.45 -19.03 31.4 -29.25 44.06 C-29.81 44.75 -30.37 45.43 -30.95 46.14 C-43.18 61.15 -56.75 78.65 -61.96 97.66 C-63.25 100.06 -63.25 100.06 -65.85 101.05 C-66.94 101.23 -68.04 101.4 -69.17 101.58 C-70.41 101.8 -71.65 102.01 -72.92 102.23 C-73.92 102.38 -73.92 102.38 -74.93 102.55 C-78.47 103.11 -82 103.76 -85.52 104.41 C-86.25 104.54 -86.97 104.67 -87.72 104.81 C-114.17 109.71 -140.68 117.93 -164.25 131.06 C-164.9 131.42 -165.55 131.78 -166.21 132.16 C-179.67 139.75 -192.19 149.18 -202.67 160.61 C-204.42 162.22 -205.81 162.85 -208.04 163.65 C-208.8 163.93 -209.57 164.22 -210.35 164.51 C-211.6 164.97 -211.6 164.97 -212.88 165.44 C-244.59 177.7 -271.8 196.85 -297.25 219.06 C-298.25 217.06 -298.25 217.06 -297.8 215.2 C-297.53 214.44 -297.26 213.68 -296.98 212.9 C-296.68 212.04 -296.37 211.17 -296.05 210.28 C-295.71 209.35 -295.36 208.41 -295 207.44 C-294.64 206.46 -294.28 205.48 -293.91 204.47 C-282.25 173.52 -265.92 144.88 -245.25 119.06 C-244.52 118.14 -243.8 117.22 -243.05 116.28 C-231.19 101.48 -217.91 86.98 -202.98 75.26 C-200.74 73.45 -198.59 71.6 -196.44 69.69 C-151.1 29.83 -88.77 6.42 -29.25 1.06 C-28.34 0.97 -27.42 0.87 -26.48 0.77 C-17.65 -0.08 -8.86 -0.05 0 0 Z " fill="#E4A413" transform="translate(523.25,400.9375)"/>
<path d="M0 0 C1.59 -0.04 3.18 -0.1 4.77 -0.18 C17.97 -0.84 17.97 -0.84 23.63 2.7 C26.38 5.21 28.85 7.84 31.32 10.62 C32.6 11.73 33.9 12.8 35.24 13.83 C35.81 14.27 36.38 14.71 36.97 15.17 C37.52 15.59 38.07 16.01 38.63 16.44 C42.93 19.75 47.21 23.07 51.32 26.62 C51.32 26.95 51.32 27.28 51.32 27.62 C50.11 27.64 48.89 27.65 47.64 27.67 C15.84 27.87 15.84 27.87 -15.68 31.62 C-17.1 31.86 -17.1 31.86 -18.55 32.11 C-64.55 39.91 -107.79 58.72 -147.93 82.04 C-150.6 83.58 -153.29 85.09 -155.98 86.59 C-167.14 92.82 -177.89 99.53 -188.53 106.59 C-192.7 109.35 -196.92 112.03 -201.15 114.69 C-212.72 121.93 -224.02 129.52 -235.31 137.19 C-271.88 162.01 -271.88 162.01 -287.31 170.12 C-287.9 170.44 -288.48 170.75 -289.09 171.07 C-334.01 194.87 -334.01 194.87 -343.24 194.53 C-346.5 193.32 -348.81 191.5 -351.56 189.37 C-361.28 182.08 -372.04 176.45 -382.68 170.62 C-380.19 168 -377.87 165.95 -374.72 164.17 C-373.93 163.73 -373.15 163.28 -372.34 162.82 C-371.48 162.34 -370.63 161.87 -369.74 161.37 C-368.38 160.61 -368.38 160.61 -367 159.82 C-361.51 156.73 -356 153.69 -350.48 150.67 C-337.77 143.7 -325.13 136.7 -312.85 128.98 C-310.55 127.54 -308.23 126.13 -305.91 124.73 C-285.66 112.44 -266.21 98.92 -246.91 85.2 C-209.13 58.41 -171.24 35.23 -126.68 21.62 C-125.52 21.26 -124.35 20.9 -123.15 20.53 C-83.4 8.3 -41.64 0.85 0 0 Z " fill="#FDFDFD" transform="translate(737.681884765625,722.375244140625)"/>
<path d="M0 0 C4.18 4.68 6.8 10.05 9.69 15.56 C14.65 24.87 19.85 33.98 25.31 43 C25.66 43.58 26.02 44.17 26.38 44.77 C30.29 51.24 34.33 57.56 38.71 63.72 C39.84 65.33 39.84 65.33 40.99 66.96 C42.41 68.97 43.87 70.96 45.35 72.92 C49.98 79.44 49.98 79.44 50.04 83.67 C49.53 86.51 48.8 89.22 48 92 C45.55 103.59 45.65 115.16 45.69 126.94 C45.69 127.96 45.69 128.97 45.69 130.02 C45.74 149.77 47.22 168.93 50.09 188.47 C54.44 218.24 52.73 246.47 49.97 276.27 C44.27 338.3 51.29 397.57 79 454 C79.55 455.13 80.1 456.27 80.67 457.44 C81.76 459.64 82.87 461.82 84 464 C77.47 462.69 71.4 460.89 65.19 458.5 C64.29 458.15 63.39 457.81 62.46 457.45 C55.91 454.87 49.51 452.03 43.19 448.94 C41.98 448.36 41.98 448.36 40.75 447.77 C22.61 438.62 13.07 419.65 6.75 401.12 C2.36 387.65 0.36 374.17 0 360 C-0.03 358.96 -0.07 357.92 -0.1 356.85 C-1.06 322.33 4.45 288.58 9.51 254.53 C9.65 253.61 9.78 252.69 9.92 251.74 C10.05 250.89 10.18 250.05 10.31 249.18 C10.42 248.44 10.53 247.7 10.64 246.94 C11 245 11 245 12 242 C12.24 239.1 12.42 236.22 12.55 233.32 C12.6 232.44 12.64 231.55 12.68 230.65 C13.11 220.77 13.15 210.91 13.13 201.03 C13.12 197.94 13.13 194.85 13.14 191.76 C13.14 174.99 12.81 158.31 10.38 141.69 C10.12 139.95 10.12 139.95 9.87 138.17 C7.58 123.18 4.01 108.43 0.15 93.78 C-0.11 92.76 -0.38 91.74 -0.65 90.69 C-0.89 89.8 -1.12 88.92 -1.37 88.01 C-3.06 79.96 -3.16 71.93 -3.17 63.72 C-3.17 62.56 -3.17 61.39 -3.18 60.19 C-3.18 57.73 -3.19 55.27 -3.19 52.81 C-3.19 49.11 -3.21 45.4 -3.22 41.69 C-3.3 9.9 -3.3 9.9 0 0 Z " fill="#FDFDFD" transform="translate(100,375)"/>
<path d="M0 0 C0.66 0 1.32 0 2 0 C15.1 22.39 26.12 45.23 34 70 C34.26 70.79 34.51 71.57 34.78 72.38 C46.47 108.74 62.15 180.69 44 217 C40.52 215.7 37.47 214.18 34.33 212.2 C33.45 211.64 32.56 211.08 31.65 210.51 C30.72 209.91 29.78 209.31 28.81 208.69 C27.35 207.75 27.35 207.75 25.86 206.8 C4.02 192.72 -16.42 176.64 -35.62 159.16 C-37.18 157.75 -38.74 156.35 -40.31 154.97 C-50.84 145.69 -60.99 135.77 -70 125 C-71.58 123.15 -73.17 121.31 -74.75 119.46 C-77.17 116.65 -79.59 113.82 -82 111 C-80.54 107.53 -78.73 105.67 -75.88 103.25 C-65.54 94.16 -55.58 84.47 -47.07 73.63 C-44.79 70.73 -42.4 67.93 -40 65.12 C-34.91 59.01 -30.37 52.63 -26 46 C-25.56 45.34 -25.12 44.68 -24.67 44.01 C-15.28 29.94 -7.59 15.09 0 0 Z " fill="#E4A413" transform="translate(793,551)"/>
<path d="M0 0 C3.84 2.45 6.3 5.21 8.16 9.38 C9.61 16.41 8.04 22.04 4.6 28.21 C2.72 31.04 0.74 33.17 -1.84 35.38 C-0.36 38.87 1.62 41.02 4.34 43.63 C7.87 47.02 11.1 50.57 14.3 54.26 C17.35 57.74 20.54 61.09 23.72 64.44 C25.13 65.94 26.54 67.43 27.96 68.93 C28.66 69.67 29.36 70.42 30.09 71.19 C37.96 79.54 45.77 87.95 53.55 96.4 C58.2 101.44 62.89 106.44 67.59 111.44 C71.95 116.08 76.28 120.76 80.6 125.45 C84.59 129.78 88.62 134.08 92.66 138.38 C97.66 143.71 102.65 149.06 107.6 154.45 C111.59 158.78 115.62 163.08 119.66 167.38 C124.66 172.71 129.65 178.06 134.6 183.45 C138.59 187.78 142.62 192.08 146.66 196.38 C151.18 201.19 155.68 206.02 160.16 210.88 C165.85 217.07 171.6 223.2 177.36 229.33 C185.79 238.32 194.2 247.33 202.55 256.4 C206.56 260.75 210.6 265.07 214.66 269.38 C220.21 275.29 225.73 281.22 231.21 287.19 C233.32 289.48 235.44 291.74 237.57 294 C238.12 294.6 238.68 295.2 239.26 295.81 C240.34 296.96 241.42 298.1 242.5 299.24 C246.16 303.15 246.16 303.15 246.16 305.38 C244.54 306.84 242.86 308.22 241.16 309.57 C236.38 313.39 231.72 317.31 227.16 321.38 C226.12 320.34 226.12 320.34 225.05 319.27 C223.07 317.28 221.07 315.3 219.07 313.33 C213.76 308.07 208.53 302.83 203.7 297.14 C201.55 294.69 199.23 292.44 196.91 290.16 C194.45 287.66 192.19 285 189.91 282.35 C187.71 279.87 185.36 277.57 183 275.25 C181.22 273.45 179.56 271.59 177.91 269.66 C174.24 265.45 170.44 261.37 166.59 257.32 C165.18 255.82 163.76 254.32 162.35 252.82 C161.64 252.08 160.94 251.33 160.22 250.56 C157.14 247.3 154.09 244.03 151.03 240.75 C150.46 240.14 149.89 239.53 149.31 238.9 C148.16 237.68 147.02 236.45 145.87 235.22 C142.97 232.11 140.06 228.99 137.16 225.88 C135.99 224.63 134.82 223.38 133.66 222.13 C133.08 221.51 132.5 220.89 131.91 220.25 C125.49 213.38 119.07 206.5 112.66 199.63 C112.08 199.01 111.5 198.39 110.91 197.75 C109.74 196.51 108.58 195.26 107.41 194.01 C104.47 190.86 101.53 187.71 98.59 184.56 C93.11 178.7 87.65 172.84 82.22 166.94 C76.5 160.73 70.73 154.58 64.95 148.42 C59.58 142.71 54.24 136.97 48.89 131.24 C45.98 128.12 43.07 125 40.16 121.88 C38.99 120.63 37.82 119.38 36.66 118.13 C36.08 117.51 35.5 116.89 34.91 116.25 C33.16 114.38 31.41 112.5 29.66 110.63 C29.08 110.01 28.5 109.39 27.91 108.75 C26.74 107.51 25.58 106.26 24.41 105.01 C21.47 101.86 18.53 98.71 15.59 95.56 C9.61 89.16 3.65 82.76 -2.28 76.32 C-8.43 69.64 -14.64 63.01 -20.84 56.38 C-21.88 56.7 -22.92 57.02 -24 57.36 C-30.28 59.03 -36.19 59.56 -42.22 56.88 C-47.86 51.5 -50.16 47.4 -50.53 39.44 C-50.1 28.9 -44.35 23.57 -37.07 16.57 C-35 14.53 -33.1 12.42 -31.22 10.19 C-22.69 0.33 -13 -6.39 0 0 Z " fill="#FCDF49" transform="translate(72.84375,153.62109375)"/>
<path d="M0 0 C4.01 1.12 6.39 2.76 9 6 C9.23 6.99 9.45 7.98 9.69 9 C11.49 13.12 13.77 13.43 17.8 15.02 C20.99 16.44 22.39 17.91 24 21 C24.69 24.95 24.39 28.04 22.88 31.75 C18.45 37.06 13.51 38.65 7 40 C19.85 53.42 37.84 59.94 56.15 60.47 C72.32 60.63 86.19 57.54 101 51 C101.33 50.67 101.66 50.34 102 50 C101.22 49.44 100.43 48.89 99.62 48.31 C95.85 44.99 95.22 42.52 94.5 37.62 C95.17 32.76 97.44 30.26 101 27 C103.31 25.84 104.81 25.9 107.38 25.81 C109.79 25.65 109.79 25.65 112 25 C114.44 22.17 114.44 22.17 116 19 C120.49 16.01 124.75 16.3 130 17 C133.15 18.22 133.78 19.16 136 22 C136.59 24.53 136.95 27.05 137.31 29.63 C138.32 33.11 140.27 34.25 143.34 35.96 C145 37 145 37 147 40 C147.58 44.42 147.45 48.63 146.06 52.88 C142.94 56.09 139.15 57.44 135 59 C145.51 72.11 157.26 84.57 174.62 87.77 C179.41 88.24 184.2 88.15 189 88 C189.35 86.87 189.7 85.73 190.06 84.56 C191.46 81.37 191.74 81.11 195.19 79.69 C199.32 80.03 199.65 80.33 202.5 82.94 C207.43 87.18 212.6 86.34 218.71 85.92 C222 86 222 86 223.92 87.27 C225.75 90.21 225.42 92.65 225 96 C218.34 102.69 204.8 102.17 195.96 102.31 C176.19 102.34 158.78 99.77 143 87 C142.27 86.43 141.53 85.86 140.78 85.27 C131.39 77.51 124.26 67.35 118 57 C117.16 57.39 117.16 57.39 116.31 57.78 C113.73 58.96 111.15 60.14 108.56 61.31 C107.68 61.72 106.81 62.12 105.9 62.54 C81.25 73.72 51.68 76.41 25.93 66.95 C15.46 62.82 6.67 57.08 -2 50 C-2.55 50.36 -3.09 50.73 -3.65 51.1 C-5.25 52.17 -6.86 53.23 -8.46 54.29 C-10 55.33 -11.52 56.39 -13 57.49 C-33.06 72.05 -60.13 75.07 -84.11 71.31 C-98.18 68.63 -111.73 63.33 -124 56 C-124.37 57.31 -124.37 57.31 -124.75 58.64 C-130.73 74.69 -147.24 88.69 -162.29 95.87 C-181.14 103.73 -206.42 105.66 -226 99 C-228.36 97.61 -228.36 97.61 -230 96 C-230.73 90.17 -230.73 90.17 -228.92 87.27 C-225.93 85.3 -223.33 85.94 -219.81 86.19 C-213.57 86.46 -210.33 85.52 -205.71 81.3 C-204 80 -204 80 -200.19 79.69 C-196.74 81.11 -196.46 81.37 -195.06 84.56 C-194.71 85.7 -194.36 86.83 -194 88 C-177.65 89.24 -164.31 83.82 -151.95 73.25 C-147.45 68.94 -143.72 63.98 -140 59 C-141.07 58.59 -142.14 58.18 -143.25 57.75 C-147.23 56.05 -150.03 53.94 -152 50 C-152.63 44.92 -152.93 41.22 -149.75 37.06 C-147 35 -147 35 -144.88 33.68 C-142.47 31.53 -142.44 30.29 -142.12 27.12 C-141.53 23.68 -141.05 21.35 -138.5 18.88 C-133.85 16.38 -130.17 16.21 -125 17 C-121.54 18.4 -120.38 19.14 -118.88 22.56 C-117.25 25.22 -117.25 25.22 -114.58 25.52 C-113.15 25.7 -113.15 25.7 -111.69 25.88 C-107.54 26.46 -105.19 27.08 -102.31 30.19 C-99.7 33.82 -99.27 36.52 -100 41 C-101.65 45.3 -103.28 47.39 -107 50 C-89.19 60.22 -66.05 62.84 -45.96 58.82 C-33.5 55.38 -20.68 49.87 -12 40 C-13.2 39.75 -14.39 39.5 -15.62 39.25 C-20.74 37.96 -24.46 35.85 -27.88 31.75 C-29.37 28.09 -29.79 24.85 -29 21 C-26.41 16.71 -24.63 15.02 -19.88 13.56 C-17.79 12.97 -17.79 12.97 -16 12 C-14.32 8.63 -14.32 8.63 -13 5 C-9.35 0.45 -5.76 -0.73 0 0 Z " fill="#FADD48" transform="translate(528,206)"/>
<path d="M0 0 C1.21 -0 2.41 -0 3.65 -0 C20.8 0.01 37.75 0.3 54.81 2.19 C56.23 2.32 57.66 2.46 59.08 2.59 C70.35 3.79 81.44 6.14 92.52 8.49 C94.67 8.95 96.83 9.4 98.99 9.84 C121.84 14.58 143.75 21.73 165.38 30.44 C166.36 30.83 167.35 31.21 168.37 31.61 C173.98 33.96 177.55 35.96 180.81 41.19 C182.03 46.14 181.32 50.2 179 54.69 C176.81 57.19 176.81 57.19 173.81 59.19 C167.23 58.98 161.61 56.22 155.62 53.69 C91.21 27.26 17.69 17.71 -51.4 27.78 C-54.03 28.16 -56.66 28.49 -59.3 28.81 C-92.48 32.98 -127.47 42.47 -157.56 57.25 C-160.87 58.8 -162.35 59.19 -166.12 59.31 C-170.45 57.72 -172.17 55.22 -174.19 51.19 C-174.46 49.02 -174.46 49.02 -174.56 46.44 C-174.61 45.6 -174.66 44.76 -174.71 43.89 C-173.96 40.04 -172.1 37.69 -169.19 35.19 C-166.33 33.44 -163.35 32.19 -160.25 30.94 C-159.35 30.56 -158.44 30.19 -157.51 29.8 C-136.97 21.5 -115.79 15.05 -94.19 10.19 C-93.24 9.97 -92.29 9.75 -91.31 9.52 C-61.08 2.56 -30.95 -0.02 0 0 Z " fill="#FCDF49" transform="translate(522.1875,280.8125)"/>
<path d="M0 0 C1.15 -0 2.29 -0.01 3.47 -0.01 C22.67 -0.01 41.12 1.18 60.06 4.31 C62.23 4.65 64.4 4.99 66.57 5.33 C84.16 8.18 101.07 12.35 117.94 18.06 C118.72 18.32 119.5 18.58 120.3 18.85 C132.12 22.82 143.72 27.1 155.06 32.31 C155.06 32.64 155.06 32.97 155.06 33.31 C152.02 33.82 148.98 34.32 145.94 34.81 C145.08 34.96 144.23 35.1 143.34 35.25 C138.87 35.97 134.62 36.49 130.06 36.31 C131.79 38.52 133.52 40.73 135.25 42.94 C135.73 43.55 136.22 44.17 136.71 44.81 C139.06 47.81 141.44 50.76 143.93 53.65 C146.06 56.31 146.06 56.31 146.06 58.31 C139.48 56.18 133 53.82 126.52 51.39 C114.18 46.78 101.91 42.3 89.06 39.31 C88.2 39.11 87.34 38.91 86.45 38.7 C8.65 20.68 -73.26 25.39 -146.79 57.46 C-148.94 58.31 -148.94 58.31 -150.94 58.31 C-149.36 54.71 -147.15 52 -144.62 49 C-141.2 44.88 -137.98 40.72 -134.94 36.31 C-135.56 36.26 -136.18 36.21 -136.82 36.16 C-144.9 35.48 -152.91 34.43 -160.94 33.31 C-157.24 30.85 -153.4 29.27 -149.31 27.56 C-148.47 27.21 -147.62 26.85 -146.74 26.49 C-138.58 23.11 -130.33 20.07 -121.94 17.31 C-120.1 16.7 -120.1 16.7 -118.22 16.08 C-79.98 3.88 -39.95 0.09 0 0 Z " fill="#F9DC48" transform="translate(527.9375,319.6875)"/>
<path d="M0 0 C0.95 0.3 1.89 0.59 2.87 0.9 C14.05 4.4 25.03 8.24 35.81 12.81 C36.7 13.19 37.58 13.56 38.49 13.94 C39.3 14.3 40.12 14.65 40.96 15.02 C41.67 15.33 42.38 15.64 43.11 15.96 C45.15 17.08 46.5 18.22 48 20 C48.93 24.86 48.52 28.96 46.31 33.38 C45.17 34.67 45.17 34.67 44 36 C42.92 37.27 42.92 37.27 41.81 38.56 C39 40 39 40 37.07 39.61 C36.35 39.35 35.63 39.09 34.89 38.82 C34.09 38.53 33.28 38.24 32.46 37.95 C29.41 36.77 26.38 35.55 23.37 34.3 C-31.59 11.43 -94.08 3.18 -153 13 C-153.74 13.12 -154.48 13.23 -155.25 13.36 C-159.17 13.99 -163.06 14.72 -166.94 15.56 C-169.22 16.05 -171.51 16.5 -173.8 16.95 C-194.98 21.29 -216.13 28.08 -235.62 37.48 C-241.32 40.14 -241.32 40.14 -244.89 39.42 C-248.49 37 -251.04 33.91 -253 30 C-253.27 27.76 -253.27 27.76 -253.38 25.12 C-253.42 24.26 -253.47 23.4 -253.52 22.51 C-253 20 -253 20 -251.11 17.96 C-246.89 15.3 -242.48 13.41 -237.88 11.5 C-236.93 11.1 -235.98 10.7 -235 10.29 C-218.38 3.36 -201.46 -1.61 -183.9 -5.56 C-182.24 -5.95 -180.58 -6.36 -178.92 -6.77 C-121.3 -21.1 -56.51 -18.14 0 0 Z " fill="#FBDE48" transform="translate(628,377)"/>
<path d="M0 0 C7.13 3.78 13.35 8.06 19.65 13.07 C22.84 15.59 25.88 17.93 29.39 19.99 C32.39 21.81 34.16 23 36 26 C36.41 32.23 35.28 37.92 34 44 C33.78 45.29 33.56 46.58 33.34 47.91 C26.95 83.94 9.3 112.49 -14 140 C-16.79 138.71 -18.99 137.31 -21.29 135.28 C-21.89 134.74 -22.5 134.21 -23.12 133.66 C-24.08 132.81 -24.08 132.81 -25.06 131.94 C-26.42 130.75 -27.78 129.56 -29.13 128.37 C-29.8 127.79 -30.46 127.21 -31.14 126.61 C-35.34 122.97 -39.68 119.49 -44 116 C-45.32 114.92 -46.64 113.85 -47.95 112.77 C-49.36 111.62 -50.78 110.46 -52.19 109.31 C-52.84 108.78 -53.49 108.24 -54.17 107.69 C-58.69 104.01 -63.31 100.47 -68 97 C-66.61 93.11 -64.78 90.03 -62.38 86.69 C-61.43 85.36 -61.43 85.36 -60.46 84.01 C-59.98 83.35 -59.5 82.68 -59 82 C-54.42 83.44 -51.45 86.05 -48.06 89.31 C-41.29 96.52 -41.29 96.52 -32.81 100.5 C-29.65 99.94 -28.93 99.48 -27 97 C-26.45 94.9 -26.45 94.9 -26.5 92.62 C-26.47 91.87 -26.44 91.12 -26.41 90.35 C-27.98 84.1 -36.03 79.77 -41 76.02 C-41.6 75.56 -42.2 75.1 -42.82 74.62 C-43.63 74.01 -43.63 74.01 -44.45 73.38 C-46.26 71.76 -47.6 69.98 -49 68 C-46.94 64.98 -44.85 61.99 -42.75 59 C-42.16 58.14 -41.58 57.28 -40.97 56.4 C-40.4 55.59 -39.83 54.77 -39.23 53.94 C-38.71 53.18 -38.19 52.43 -37.65 51.65 C-37.1 51.11 -36.56 50.56 -36 50 C-32 50 -32 50 -29.67 52.19 C-28.02 54.06 -26.37 55.93 -24.73 57.81 C-22.1 60.33 -22.1 60.33 -18.3 60.38 C-15.13 60.21 -15.13 60.21 -13.06 59 C-11.33 55.73 -11.82 52.66 -12 49 C-12.56 48.74 -13.13 48.48 -13.71 48.21 C-16.23 46.88 -18.41 45.35 -20.69 43.62 C-21.48 43.04 -22.26 42.45 -23.07 41.85 C-25 40 -25 40 -26.05 38.2 C-25.97 34.55 -23.66 32.07 -21.56 29.25 C-21.13 28.65 -20.69 28.05 -20.25 27.43 C-19.18 25.94 -18.09 24.47 -17 23 C-13.77 24.37 -12.18 25.81 -10.12 28.62 C-7.91 31.3 -7.4 31.91 -3.88 32.69 C-0.36 31.85 0.93 30.95 3 28 C3.92 25.59 3.92 25.59 3 23 C1.45 21.36 -0.19 20 -1.98 18.62 C-4.49 16.61 -6.72 14.28 -9 12 C-6.03 8.04 -3.06 4.08 0 0 Z " fill="#E3A313" transform="translate(696,451)"/>
<path d="M0 0 C1.46 2.65 2 3.89 2 7 C0.43 8.18 0.43 8.18 -1.69 9.31 C-8.07 13.09 -11.72 17.81 -14 25 C-14.66 31.34 -13.8 36.93 -12 43 C-12.6 43.35 -13.21 43.7 -13.83 44.07 C-19.33 47.47 -22.28 50.12 -25 56 C-25.5 56.99 -25.5 56.99 -26 58 C-26.51 64.34 -25.8 69.93 -24 76 C-24.68 76.36 -25.35 76.73 -26.05 77.1 C-31.33 80.08 -35.29 82.36 -38 88 C-38.31 89.35 -38.6 90.7 -38.88 92.06 C-39.83 96.61 -42.37 98.18 -46 101 C-49.95 106.4 -49.78 112.57 -49 119 C-47.99 121.92 -46.63 124.39 -45 127 C-44.32 128.33 -43.65 129.66 -43 131 C-51.62 140.07 -64.48 146.8 -77 148 C-77.72 147.05 -78.44 146.1 -79.19 145.12 C-81.56 142.3 -83.32 140.88 -87 140 C-90.86 139.8 -94.3 139.82 -98 141 C-97.84 140.28 -97.68 139.57 -97.52 138.83 C-96.1 131.13 -96.4 124.83 -100.32 117.97 C-101 116 -101 116 -100.25 114 C-99.63 113.01 -99.63 113.01 -99 112 C-98.31 110.65 -97.62 109.29 -96.94 107.94 C-96.6 107.27 -96.25 106.59 -95.9 105.9 C-94.22 102.36 -93.86 99.56 -93.88 95.69 C-93.88 94.71 -93.88 93.73 -93.88 92.71 C-93.91 89.88 -93.91 89.88 -94.88 86.75 C-95.03 83.4 -94.42 82.99 -92.25 80.56 C-91.42 79.67 -91.42 79.67 -90.57 78.76 C-84.64 72.12 -85.69 64.41 -86 56 C-84.8 55.48 -83.61 54.97 -82.38 54.44 C-74.07 50.22 -70.92 43.55 -68 35 C-67.25 34.99 -66.5 34.97 -65.73 34.96 C-57.38 34.57 -50.39 33.07 -44.12 27.25 C-42.6 25.56 -41.26 23.9 -40 22 C-39.43 21.16 -39.43 21.16 -38.85 20.3 C-37.57 16.84 -37.79 13.39 -37.88 9.75 C-37.88 9 -37.89 8.26 -37.9 7.49 C-37.93 5.66 -37.96 3.83 -38 2 C-35.45 3.21 -33.42 4.43 -31.12 6.12 C-25.08 9.61 -17.11 8.83 -10.49 7.49 C-5.87 5.96 -3.1 3.59 0 0 Z " fill="#EA1C23" transform="translate(417,138)"/>
<path d="M0 0 C0.78 0.61 0.78 0.61 1.57 1.24 C2.27 1.78 2.97 2.32 3.69 2.88 C4.37 3.41 5.06 3.94 5.76 4.49 C12.56 9.07 20.11 8.86 28 8 C30.55 6.94 32.43 5.8 34.58 4.09 C36 3 36 3 38 3 C37.95 3.59 37.91 4.19 37.86 4.8 C37.52 12.58 38.62 20.05 43.84 26.14 C45.81 27.94 47.81 29.49 50 31 C50.89 31.62 51.77 32.24 52.69 32.88 C57.99 34.67 63.44 34.76 69 35 C69.4 36.18 69.4 36.18 69.81 37.38 C72.53 44.66 75.33 49.78 82 54 C83.65 54.71 85.31 55.39 87 56 C86.94 56.89 86.88 57.79 86.82 58.71 C86.51 67.04 87.16 73.08 92 80 C92.78 80.74 93.57 81.49 94.38 82.25 C94.91 82.83 95.45 83.41 96 84 C95.75 86.56 95.75 86.56 95 90 C94.33 97.58 95.1 103.4 99 110 C99.62 110.72 100.24 111.44 100.88 112.19 C101.25 112.79 101.62 113.38 102 114 C101.3 116.99 100.2 119.56 98.93 122.35 C97.91 125.24 97.77 127.44 97.81 130.5 C97.82 131.42 97.83 132.34 97.83 133.28 C98 135.94 98.41 138.41 99 141 C98.28 140.89 97.55 140.79 96.8 140.68 C88.98 139.67 88.98 139.67 82 143 C81.04 144.36 81.04 144.36 80.06 145.75 C79.04 146.86 79.04 146.86 78 148 C75.2 148.06 73.62 147.79 71 147 C70.16 146.76 69.32 146.52 68.45 146.27 C58.91 143.18 51.49 137.51 44 131 C44.95 129.04 45.92 127.13 47.07 125.28 C50.54 119.41 51.05 113.7 50 107 C48.4 103.05 46.47 100 42.92 97.59 C40.49 95.58 40.23 94.17 39.56 91.12 C38.32 86.49 36.82 84.07 33 81 C32.32 80.44 31.64 79.89 30.94 79.31 C29.02 78.01 27.1 76.97 25 76 C25.33 74.89 25.66 73.77 26 72.62 C27.77 65.38 28.17 58.48 24.41 51.82 C21.42 47.96 17.34 45.17 13 43 C13.33 41.89 13.66 40.77 14 39.62 C16 31.34 15.74 24.82 11.56 17.27 C8.27 12.49 4.2 9.46 -1 7 C-0.67 4.69 -0.34 2.38 0 0 Z " fill="#EA1C23" transform="translate(633,138)"/>
<path d="M0 0 C1.02 0.47 2.03 0.93 3.08 1.41 C4.14 1.9 5.19 2.39 6.27 2.89 C7.3 3.36 8.33 3.83 9.39 4.32 C16.31 7.51 23.01 10.98 29.65 14.71 C28.89 18.14 27.76 20.18 25.59 22.96 C25.04 23.66 24.49 24.37 23.93 25.1 C23.5 25.63 23.08 26.16 22.65 26.71 C19.62 25.33 17.31 23.66 14.77 21.52 C11.85 19.29 11.07 18.71 7.27 18.64 C4.35 19.54 4.35 19.54 2.65 22.71 C2.09 26.1 2.09 26.1 3.65 29.71 C7.09 32.45 10.78 34.61 14.65 36.71 C11.74 42.08 8.4 46.89 4.65 51.71 C1.07 51.1 -0.99 49.66 -3.79 47.39 C-4.58 46.77 -5.37 46.14 -6.18 45.5 C-7.84 44.13 -9.42 42.69 -10.98 41.21 C-13.4 39.37 -13.4 39.37 -17.04 39.77 C-20.61 40.39 -20.61 40.39 -22.35 43.71 C-22.62 47.17 -22.62 47.17 -21.35 50.71 C-19.13 52.89 -16.6 54.35 -13.91 55.89 C-12.54 56.71 -11.16 57.54 -9.79 58.38 C-9.18 58.73 -8.57 59.08 -7.94 59.45 C-6.35 60.71 -6.35 60.71 -4.35 64.71 C-8.64 70.65 -12.93 76.59 -17.35 82.71 C-21.58 81.02 -23.78 79.81 -27.16 77.02 C-28.03 76.31 -28.9 75.61 -29.8 74.88 C-31.41 73.51 -32.98 72.1 -34.5 70.62 C-38.86 66.36 -38.86 66.36 -44.66 65.21 C-48.29 65.58 -48.29 65.58 -51.35 66.71 C-51.49 68.1 -51.58 69.5 -51.66 70.89 C-51.75 72.06 -51.75 72.06 -51.84 73.25 C-50.51 79.95 -41.33 84.53 -36.06 88.33 C-35.37 88.84 -34.68 89.35 -33.97 89.87 C-33.35 90.32 -32.72 90.77 -32.08 91.23 C-30.35 92.71 -30.35 92.71 -27.35 96.71 C-30.65 101.33 -33.95 105.95 -37.35 110.71 C-42.09 108 -45.68 105.79 -49.79 102.46 C-65.07 90.38 -81.97 80.21 -98.35 69.71 C-85.57 41.19 -50.11 16.66 -23.35 2.71 C-22.73 2.38 -22.1 2.06 -21.46 1.72 C-12.84 -2.71 -8.95 -4.11 0 0 Z " fill="#E3A313" transform="translate(653.3515625,427.29296875)"/>
<path d="M0 0 C2.31 1.65 4.62 3.3 7 5 C6.37 8.53 5.61 11.78 4 15 C0.25 16.31 0.25 16.31 -1.88 16.61 C-6.35 17.44 -9.63 20.18 -12.32 23.75 C-15.32 28.95 -16.06 34.11 -15 40 C-12.83 45.68 -9.97 49.45 -5 53 C-5 53.66 -5 54.32 -5 55 C-6.43 56.26 -6.43 56.26 -8.31 57.69 C-13.12 61.71 -14.73 65.64 -15.44 71.88 C-15.18 78.02 -12.57 83.71 -8.25 88.06 C-7.51 88.7 -6.76 89.34 -6 90 C-7.88 95.75 -7.88 95.75 -9 98 C-9.7 105.46 -9.48 111.79 -5 118 C-4.46 118.52 -3.92 119.05 -3.36 119.59 C-2 121 -2 121 -2 123 C-21.18 132.56 -40.54 135.35 -61.3 128.97 C-64 128 -64 128 -66 127 C-65.83 126.38 -65.67 125.76 -65.5 125.12 C-64.25 117.29 -64.21 110.62 -69 104 C-72.14 100.62 -75.6 98.43 -80 97 C-78.12 95.01 -76.3 93.49 -74.06 91.88 C-70.17 88.59 -68.21 84.93 -67 80 C-66.69 75.31 -66.76 70.69 -67 66 C-65.56 65.18 -64.13 64.37 -62.69 63.56 C-61.89 63.11 -61.09 62.66 -60.26 62.19 C-58 61 -58 61 -55 60 C-53.87 58.2 -53.87 58.2 -53 56 C-52.65 55.27 -52.29 54.53 -51.93 53.77 C-48.58 46.16 -47.84 39.11 -50 31 C-49.48 30.71 -48.96 30.42 -48.43 30.12 C-41.53 26.06 -37.04 21.6 -34 14 C-33.5 11.32 -33.23 8.72 -33 6 C-31.91 6.33 -30.81 6.66 -29.69 7 C-21.67 8.97 -13.35 9.1 -6 5 C-3.84 3.45 -1.96 1.81 0 0 Z " fill="#EA1C23" transform="translate(501,127)"/>
<path d="M0 0 C0.77 0.49 1.54 0.99 2.34 1.5 C3.34 2.14 4.34 2.78 5.38 3.44 C6.37 4.08 7.37 4.71 8.4 5.37 C14.63 9.27 22.33 8.85 29.48 7.55 C31.52 6.99 31.52 6.99 34 6 C34.15 6.96 34.15 6.96 34.3 7.94 C35.92 17.31 39.11 23.41 47 29 C48.32 29.69 49.65 30.37 51 31 C50.84 31.62 50.67 32.24 50.5 32.88 C49.11 41.59 50.18 48.05 54 56 C54.29 56.71 54.58 57.43 54.88 58.16 C56.29 60.48 57.51 60.97 60 62 C62.67 63.33 65.33 64.67 68 66 C67.97 66.93 67.93 67.86 67.89 68.82 C67.66 79.31 68.67 85.32 76 93 C78.65 94.84 78.65 94.84 81 96 C79.37 97.09 77.74 98.17 76.1 99.23 C71.04 102.7 67.67 105.98 66 112 C65.45 117.18 65.89 121.93 67 127 C64.94 127.65 62.88 128.29 60.81 128.94 C59.66 129.3 58.52 129.66 57.33 130.03 C51.48 131.73 46.31 132.16 40.25 132.12 C39.04 132.12 39.04 132.12 37.8 132.11 C24.65 131.98 14 129.69 3 122 C3.42 121.39 3.84 120.77 4.28 120.14 C4.83 119.33 5.37 118.52 5.94 117.69 C6.76 116.49 6.76 116.49 7.59 115.26 C10.9 109.95 10.5 104.06 10 98 C9.06 95.97 8.08 93.96 7 92 C7.75 89 9.46 87.47 11.5 85.12 C15.31 80.63 16.5 75.99 16.31 70.08 C15.22 62.74 10.74 58.26 5 54 C5.72 53.5 6.44 53.01 7.19 52.5 C11.21 48.93 15.48 43.45 16.31 37.97 C16.69 30.67 14.8 25.55 10 20 C5.86 16.94 2.04 16.01 -3 15 C-3.99 11.7 -4.98 8.4 -6 5 C-4.02 3.35 -2.04 1.7 0 0 Z " fill="#EA1C23" transform="translate(549,127)"/>
<path d="M0 0 C5.09 4.3 10.02 8.74 14.88 13.31 C15.58 13.97 16.28 14.63 17 15.31 C21.44 19.49 25.78 23.74 30.05 28.08 C32.05 30.04 34.12 31.87 36.25 33.69 C39.58 36.54 42.3 39.54 45 43 C41.31 42.41 39.37 40.85 36.56 38.44 C26.18 29.92 11.89 19.53 -2.12 19.79 C-4.11 19.89 -4.11 19.89 -6 21.12 C-7.58 24.08 -7.49 25.64 -7 29 C-3.06 40.69 7.16 51.34 18 57 C22.96 59.33 27.62 60.7 33.03 61.61 C34.58 61.89 36.13 62.18 37.68 62.46 C40.08 62.89 42.47 63.31 44.87 63.72 C65.12 67.24 82.25 74.44 98 88 C98.76 88.65 99.53 89.31 100.32 89.98 C102.93 92.27 105.47 94.62 108 97 C108.56 97.52 109.12 98.05 109.69 98.59 C127.29 115.25 150.6 140.26 151.5 166 C151.27 170.28 150.57 173.46 148 177 C144.18 180.35 140.18 180.48 135.3 180.79 C132.84 180.93 132.84 180.93 130 182 C132.16 187.89 134.51 193.21 138.05 198.41 C139 200 139 200 139 202 C135.4 201.44 134.04 200.28 131.78 197.47 C127.94 192.87 123.77 188.7 119.5 184.5 C114.73 179.82 110.15 175.08 105.79 170.01 C102.53 166.35 99 162.94 95.5 159.5 C90.67 154.76 86.02 149.96 81.6 144.82 C78.58 141.38 75.24 138.28 71.94 135.1 C70 133 70 133 70 131 C73.97 131.55 75.76 133.43 78.56 136.19 C92.88 149.53 112.82 166.2 132.94 168.44 C136.33 167.95 137.54 167.32 140 165 C141.92 159 139.58 153.42 137 148 C133.72 141.71 129.64 136.33 125 131 C123.82 129.45 123.82 129.45 122.62 127.88 C112.67 116.97 98.87 108.97 84.31 106.44 C83.61 106.31 82.91 106.19 82.19 106.06 C78.1 105.33 73.99 104.69 69.88 104.06 C38.89 98.81 13.7 78.69 -4.39 53.53 C-8.63 47.37 -11.97 40.83 -15 34 C-15.57 32.75 -15.57 32.75 -16.16 31.48 C-17.76 26.77 -17.57 21.89 -17 17 C-15.19 13.93 -14.14 12.57 -11 11 C-4.96 10.57 1.01 11.24 7 12 C6.37 11.08 6.37 11.08 5.72 10.14 C5.17 9.33 4.63 8.52 4.06 7.69 C3.52 6.89 2.97 6.09 2.41 5.26 C1 3 1 3 0 0 Z " fill="#183F8D" transform="translate(299,901)"/>
<path d="M0 0 C5.11 4.08 9.5 8.62 13.87 13.46 C16.59 16.48 19.35 19.4 22.25 22.25 C24.75 24.71 27.1 27.22 29.38 29.88 C32.12 33.07 35.01 36.04 38 39 C41.56 42.52 44.9 46.13 48.16 49.94 C50.35 52.39 52.66 54.69 55 57 C66.45 68.34 66.45 68.34 68 73 C63.71 72.49 61.8 71.26 58.75 68.25 C44.96 55.37 29.04 43.67 12.06 35.38 C11.03 34.86 11.03 34.86 9.98 34.33 C5.11 32.07 1.37 31.59 -4 32 C-4.5 32.5 -4.5 32.5 -5 33 C-4.76 48.06 7.45 59.74 17.7 69.73 C33.02 84.16 50.44 90.48 69.96 97.51 C94.42 106.35 113.68 117.64 133 135 C134.01 135.9 134.01 135.9 135.05 136.82 C143.78 145.08 151.33 155.45 157 166 C157.37 166.64 157.75 167.27 158.13 167.93 C159.23 170.56 159.3 172.71 159.31 175.56 C159.33 176.51 159.35 177.46 159.36 178.44 C159 181 159 181 157.67 182.78 C153.13 186.1 147.33 185.48 142 185 C136.92 183.98 131.96 182.5 127 181 C127.5 181.62 127.99 182.24 128.5 182.88 C130 185 130 185 130 187 C126.05 185.38 123.24 182.65 120.19 179.75 C119.62 179.22 119.06 178.69 118.48 178.15 C117.27 177.02 116.06 175.89 114.86 174.75 C112.39 172.43 109.92 170.12 107.44 167.81 C105.56 166.06 103.69 164.31 101.81 162.56 C95.89 157.03 89.94 151.51 84 146 C84.99 145.67 85.98 145.34 87 145 C89.29 146.63 89.29 146.63 92.06 149.12 C115.73 170.05 115.73 170.05 145 178.2 C147 178.21 147 178.21 148 177 C148 168.91 142.88 164.11 137.62 158.44 C136.76 157.63 135.89 156.83 135 156 C134.14 155.11 134.14 155.11 133.25 154.2 C122.36 143.57 107.6 139 93.69 133.62 C67.29 123.41 44.34 110.13 24.57 89.57 C22.79 87.79 20.92 86.19 19 84.56 C15.71 81.71 12.83 78.72 10.03 75.39 C8.48 73.56 6.9 71.78 5.28 70.01 C-0.49 63.61 -5.54 57.03 -10.06 49.69 C-10.52 48.96 -10.97 48.23 -11.43 47.48 C-15.52 40.64 -19.1 33.14 -18 25 C-16.2 22.25 -14.95 20.47 -12 19 C-10.55 18.92 -9.1 18.89 -7.65 18.9 C-6.8 18.91 -5.95 18.91 -5.07 18.91 C-4.18 18.92 -3.29 18.93 -2.38 18.94 C-1.48 18.94 -0.58 18.95 0.34 18.95 C2.56 18.96 4.78 18.98 7 19 C5.25 14.7 3.47 10.89 0.81 7.06 C0.28 6.29 -0.25 5.52 -0.79 4.72 C-1.19 4.15 -1.59 3.59 -2 3 C-1.34 2.01 -0.68 1.02 0 0 Z " fill="#18408D" transform="translate(238,904)"/>
<path d="M0 0 C5.7 4.74 10.96 9.81 16.19 15.05 C17.48 16.35 17.48 16.35 18.8 17.66 C20.61 19.47 22.42 21.29 24.23 23.1 C26.99 25.86 29.75 28.62 32.51 31.37 C34.28 33.14 36.04 34.91 37.81 36.68 C38.63 37.49 39.45 38.31 40.29 39.15 C43.76 42.64 47.17 46.14 50.38 49.88 C54.54 54.72 59.07 59.18 63.6 63.68 C65.19 65.26 66.78 66.84 68.37 68.42 C71.74 71.78 75.12 75.14 78.5 78.5 C82.42 82.4 86.34 86.29 90.25 90.2 C91.8 91.74 93.36 93.28 94.92 94.83 C99.65 99.54 104.27 104.29 108.6 109.38 C110.6 111.7 112.75 113.85 114.94 116 C116.1 117.14 116.1 117.14 117.28 118.31 C117.85 118.87 118.41 119.43 119 120 C115.17 124.09 111.09 127.26 106.44 130.38 C105.78 130.84 105.12 131.3 104.44 131.78 C99.58 135.05 99.58 135.05 97 134.82 C94.6 133.84 93.28 132.64 91.44 130.8 C90.77 130.13 90.09 129.45 89.39 128.76 C88.31 127.65 88.31 127.65 87.2 126.53 C86.44 125.77 85.69 125.01 84.91 124.24 C83.31 122.63 81.72 121.02 80.13 119.41 C77.71 116.96 75.29 114.53 72.86 112.1 C71.31 110.53 69.75 108.97 68.2 107.4 C67.48 106.68 66.77 105.96 66.03 105.22 C62.85 101.99 59.75 98.75 56.81 95.3 C52.07 89.81 46.88 84.76 41.73 79.66 C39.84 77.78 37.95 75.89 36.05 74 C32.04 70 28.02 66 24 62 C19.34 57.36 14.68 52.72 10.02 48.07 C8.17 46.23 6.31 44.39 4.46 42.54 C-0.76 37.35 -5.92 32.17 -10.67 26.55 C-13.33 23.45 -16.34 20.7 -19.28 17.88 C-21 16 -21 16 -21 14 C-19.07 12.49 -19.07 12.49 -16.41 10.74 C-15.46 10.12 -14.51 9.49 -13.54 8.85 C-12.53 8.2 -11.53 7.55 -10.5 6.88 C-9.5 6.22 -8.5 5.56 -7.46 4.88 C-4.98 3.25 -2.49 1.62 0 0 Z " fill="#FCDF49" transform="translate(870,1026)"/>
<path d="M0 0 C1.19 0.29 1.19 0.29 2.41 0.58 C4.08 0.98 5.75 1.39 7.42 1.8 C9.96 2.42 12.5 3.02 15.05 3.62 C16.68 4.02 18.31 4.41 19.94 4.81 C20.69 4.99 21.45 5.16 22.23 5.35 C26.73 6.49 29.78 7.86 33.2 11.17 C34.65 14.06 34.58 15.97 34.2 19.17 C32.52 22.05 32.52 22.05 29.2 24.17 C20.05 25.31 11.17 23.46 2.31 21.35 C0.25 20.85 -1.82 20.39 -3.88 19.92 C-18.16 16.63 -18.16 16.63 -22.67 12.42 C-24.31 9.14 -24.25 6.78 -23.8 3.17 C-17.69 -4.56 -8.52 -2.1 0 0 Z " fill="#D41E21" transform="translate(598.796875,329.828125)"/>
<path d="M0 0 C1.55 3.1 1.29 5.58 1 9 C-0.5 12.01 -1.8 13.54 -4.97 14.76 C-12.06 16.8 -19.19 18.56 -26.38 20.19 C-27.52 20.46 -28.66 20.73 -29.84 21.01 C-37.17 22.68 -44.47 23.94 -52 23 C-55.25 20.88 -55.25 20.88 -57 18 C-57.7 14.27 -57.34 12.62 -55.5 9.31 C-49.29 3.57 -39.62 2.58 -31.59 0.78 C-29.5 0.31 -27.42 -0.17 -25.33 -0.66 C-7.48 -4.74 -7.48 -4.74 0 0 Z " fill="#CF1E20" transform="translate(475,331)"/>
<path d="M0 0 C6.56 0.68 13.06 1.94 19.54 3.19 C18.27 5.88 16.91 8.16 15.04 10.47 C14.57 11.07 14.09 11.66 13.6 12.28 C12.86 13.19 12.86 13.19 12.1 14.13 C8.24 18.91 8.24 18.91 4.85 24.02 C2.84 27.34 -0.09 28.51 -3.46 30.19 C-5.29 29.93 -7.1 29.59 -8.91 29.2 C-9.98 28.97 -11.06 28.74 -12.17 28.5 C-13.3 28.26 -14.42 28.01 -15.59 27.75 C-16.72 27.51 -17.86 27.27 -19.03 27.02 C-21.84 26.42 -24.65 25.81 -27.46 25.19 C-23.94 9.45 -16.74 -1.05 0 0 Z " fill="#143981" transform="translate(373.46142578125,352.8076171875)"/>
<path d="M0 0 C0.6 1.09 1.21 2.17 1.83 3.29 C2.64 4.73 3.44 6.18 4.25 7.62 C4.65 8.34 5.04 9.05 5.45 9.79 C7.29 13.08 9.16 16.29 11.3 19.4 C13 22 13 22 13 24 C7.32 26.13 1.61 27.68 -4.31 28.94 C-5.01 29.1 -5.7 29.27 -6.41 29.44 C-8.43 29.84 -8.43 29.84 -12 30 C-14.36 28.07 -14.36 28.07 -16 26 C-16.66 26 -17.32 26 -18 26 C-19.03 24.35 -20.02 22.68 -21 21 C-23.09 18.18 -25.3 15.46 -27.5 12.73 C-29.78 9.84 -31.28 7.6 -32 4 C-27.98 3.32 -23.96 2.66 -19.94 2 C-18.8 1.81 -17.67 1.62 -16.5 1.42 C-10.94 0.51 -5.64 -0.26 0 0 Z " fill="#143A84" transform="translate(692,353)"/>
<path d="M0 0 C-2.89 1.59 -5.43 2.41 -8.68 2.96 C-9.58 3.12 -10.48 3.28 -11.41 3.44 C-12.37 3.61 -13.33 3.77 -14.31 3.94 C-16.32 4.3 -18.34 4.65 -20.35 5.01 C-23.52 5.57 -26.69 6.12 -29.87 6.64 C-67.7 13.42 -104.48 30.68 -138 49 C-138.66 49.36 -139.33 49.71 -140.01 50.08 C-150.36 55.67 -160.26 61.9 -170.15 68.25 C-185.76 78.27 -201.53 88.04 -217.48 97.51 C-220.1 99.06 -222.71 100.62 -225.32 102.18 C-281.77 135.77 -339.77 165.68 -402 187 C-402.65 187.22 -403.29 187.45 -403.96 187.68 C-412.64 190.66 -421.37 193.3 -430.25 195.62 C-432.42 196.2 -434.59 196.78 -436.77 197.35 C-437.8 197.62 -438.84 197.9 -439.91 198.18 C-443.85 199.23 -447.77 200.33 -451.68 201.44 C-454.5 202.12 -457.11 202.23 -460 202 C-456.71 199.81 -453.65 198.98 -449.88 198.04 C-448.39 197.65 -446.9 197.27 -445.41 196.88 C-444.62 196.68 -443.83 196.47 -443.02 196.26 C-372.95 178.09 -306.92 147.41 -244.77 110.62 C-240.35 108.03 -235.89 105.52 -231.44 103 C-210.07 90.85 -189.1 77.86 -168.51 64.43 C-122.34 34.39 -57.06 -1.93 0 0 Z " fill="#14181F" transform="translate(941,883)"/>
<path d="M0 0 C-0.33 0.66 -0.66 1.32 -1 2 C-3.29 2.72 -5.56 3.34 -7.88 3.94 C-39.78 12.82 -70.57 29.3 -99 46 C-100.26 46.74 -100.26 46.74 -101.54 47.49 C-128.17 63.29 -153.7 81.18 -179 99 C-180.76 100.23 -182.52 101.47 -184.28 102.7 C-185.14 103.3 -185.99 103.9 -186.88 104.52 C-189.38 106.27 -191.89 108.03 -194.4 109.78 C-197.23 111.75 -200.05 113.74 -202.85 115.75 C-222.86 129.96 -244.69 141.7 -266.19 153.46 C-268.5 154.73 -270.81 156.01 -273.11 157.29 C-291.35 167.31 -310.57 175.62 -330 183 C-330.88 183.34 -331.76 183.68 -332.67 184.03 C-365.67 196.73 -365.67 196.73 -377 196 C-374.35 194.23 -372.83 193.54 -369.85 192.74 C-369.02 192.51 -368.19 192.28 -367.34 192.05 C-366.44 191.81 -365.55 191.56 -364.62 191.31 C-324.87 180.18 -287.24 163.38 -251.64 142.54 C-248.96 140.98 -246.26 139.44 -243.56 137.91 C-228.11 129.19 -212.89 120.39 -198.69 109.74 C-194.31 106.46 -189.81 103.39 -185.29 100.31 C-181.78 97.91 -178.28 95.5 -174.81 93.04 C-143.89 71.13 -112.25 50.23 -79 32 C-77.61 31.24 -77.61 31.24 -76.2 30.46 C-56.56 19.72 -36.17 10.69 -15.06 3.25 C-14.12 2.91 -13.17 2.58 -12.19 2.23 C-10.88 1.79 -10.88 1.79 -9.54 1.33 C-8.78 1.07 -8.02 0.81 -7.23 0.54 C-4.75 -0.06 -2.54 -0.1 0 0 Z " fill="#161A22" transform="translate(911,931)"/>
<path d="M0 0 C4.06 2.35 7.24 4.51 8.89 9.05 C9.69 14.44 9.25 18.94 6.21 23.54 C2.88 27.33 -0.67 28.84 -5.61 29.55 C-10.55 28.84 -14.1 27.33 -17.44 23.54 C-20.45 18.98 -21.06 14.4 -20.11 9.05 C-16.47 1.32 -8.46 -3.82 0 0 Z " fill="#F8DC48" transform="translate(758.11328125,219.953125)"/>
<path d="M0 0 C4.06 2.35 7.24 4.51 8.89 9.05 C9.62 14.67 9.3 19.35 5.89 24.05 C2.29 27.11 -0.95 28.84 -5.61 29.67 C-11.23 28.67 -15.28 26.05 -19.11 21.86 C-21.1 16.27 -21.04 11.05 -18.55 5.67 C-13.51 0.24 -7.45 -3.36 0 0 Z " fill="#F8DC48" transform="translate(487.11328125,96.953125)"/>
<path d="M0 0 C4.06 2.35 7.24 4.51 8.89 9.05 C9.69 14.44 9.25 18.94 6.21 23.54 C2.9 27.3 -0.67 28.81 -5.55 29.61 C-10.28 28.86 -13.48 27.14 -17.11 24.05 C-20.09 19.95 -20.66 16.18 -20.46 11.22 C-19.8 7.04 -17.81 4.39 -14.54 1.79 C-9.83 -1.25 -5.35 -2.41 0 0 Z " fill="#F9DC48" transform="translate(304.11328125,219.953125)"/>
<path d="M0 0 C4.06 2.35 7.2 4.52 8.89 9.05 C9.59 15.2 8.78 20.08 4.89 25.05 C1.03 28.22 -2.77 29.38 -7.74 29.11 C-12.47 28.3 -14.86 26.54 -18.11 23.05 C-20.72 18.79 -20.79 13.9 -20.11 9.05 C-16.47 1.32 -8.46 -3.82 0 0 Z " fill="#F9DD48" transform="translate(575.11328125,96.953125)"/>
<path d="M0 0 C3.15 2.6 5.36 4.91 6.93 8.73 C7.42 13.98 6.82 17.31 3.93 21.73 C-0.04 25.99 -3.05 27.53 -8.89 27.86 C-13.62 27.57 -16.29 25.59 -19.38 22.17 C-22.79 17.24 -22.93 12.62 -22.07 6.73 C-20.06 2.91 -17.34 0.55 -13.75 -1.77 C-8.88 -2.68 -4.32 -2.65 0 0 Z " fill="#FADD48" transform="translate(752.06640625,189.26953125)"/>
<path d="M0 0 C4.69 1.8 8.62 4.53 11 9 C11.78 14.26 11.65 18.57 9.44 23.44 C5.49 27.58 2.14 29.7 -3.56 30.5 C-8.87 29.73 -11.78 27.36 -15.31 23.44 C-18.17 19.31 -18.42 15.94 -18 11 C-13.91 3.27 -8.75 -0.72 0 0 Z " fill="#FADD48" transform="translate(310,187)"/>
<path d="M0 0 C2.99 2.55 5.36 5.28 7.12 8.81 C7.5 14.42 7.31 17.98 4.12 22.81 C-0.3 26.91 -3.74 28.18 -9.82 28.09 C-14.24 27.49 -17.01 24.57 -20.25 21.75 C-22.76 17.21 -22.61 12.89 -21.88 7.81 C-17.55 -1.17 -9.12 -3.77 0 0 Z " fill="#FADE48" transform="translate(734.875,157.1875)"/>
<path d="M0 0 C4.73 1.91 7.73 5.45 10 10 C10.61 15.91 9.91 19.41 6.48 24.3 C3.78 27.4 1.08 28.67 -2.95 29.31 C-8.98 29.69 -12.3 27.33 -16.81 23.44 C-19.79 19.84 -19.38 15.16 -19.36 10.73 C-18.8 6.44 -17.17 4.87 -14 2 C-9.54 -0.98 -5.24 -0.49 0 0 Z " fill="#FADD48" transform="translate(613,120)"/>
<path d="M0 0 C4.8 1.69 8.71 4.35 11 9 C11.93 13.91 11.63 18.44 9.38 22.94 C6.2 27.04 3.77 28.55 -1.36 29.38 C-6.13 29.72 -9.23 29.37 -13 26.31 C-16.85 22.43 -17.85 19.53 -18.38 14.06 C-18.24 9.74 -16.85 7.3 -14 4 C-9.44 0.06 -5.82 -0.95 0 0 Z " fill="#FADE48" transform="translate(699,133)"/>
<path d="M0 0 C4.09 2.35 6.44 4.62 8.38 8.94 C9.44 14.21 8.23 18.45 5.38 22.94 C2.53 26.23 0.54 27.67 -3.86 28.21 C-9.4 28.43 -12.98 27.99 -17.29 24.34 C-21.03 20.41 -21.17 15.66 -21.08 10.45 C-20.32 6.22 -17.9 3.58 -14.62 0.94 C-9.68 -1.95 -5.43 -1.59 0 0 Z " fill="#FADE48" transform="translate(361.625,134.0625)"/>
<path d="M0 0 C4.04 2.02 6.63 4.18 9 8 C9.73 12.79 9.63 17.43 7.81 21.94 C3.94 26.34 0.66 28.74 -5.25 29.31 C-10.38 28.89 -13.93 27.4 -17.33 23.46 C-20.26 18.94 -20.67 15.3 -20 10 C-15.34 1.02 -9.8 -1.44 0 0 Z " fill="#FADE48" transform="translate(448,120)"/>
<path d="M0 0 C5.35 1.95 8.46 4.91 11 10 C11.74 14.51 11.96 18.41 9.54 22.4 C6.23 26.25 3.97 28.59 -1.23 29.31 C-6.11 29.56 -9.18 29.43 -13 26.19 C-16.49 22.79 -18.3 20.13 -18.38 15.19 C-18.26 10.35 -17.32 7.67 -14 4 C-9.45 0.07 -5.82 -0.95 0 0 Z " fill="#FBDE48" transform="translate(529,92)"/>
<path d="M0 0 C3.71 1.29 6.32 3.23 8.94 6.19 C10.9 11.39 10.68 16.11 8.81 21.31 C6.16 25.24 3.5 27.5 -1 29 C-7.12 29.5 -10.12 29.09 -15 25 C-18.52 21 -19.36 17.4 -19.28 12.06 C-18.67 7.62 -15.75 4.84 -12.88 1.62 C-8.6 -0.79 -4.8 -0.74 0 0 Z " fill="#FBDE48" transform="translate(328,156)"/>
<path d="M0 0 C4.73 1.91 7.73 5.45 10 10 C10.59 15.86 9.6 20.35 6 25 C2.36 27.82 -1.1 28.88 -5.62 29.5 C-10.74 28.74 -13.51 26.25 -17.38 23 C-19.99 18.17 -19.86 13.36 -19 8 C-14.92 -0.14 -8.2 -0.77 0 0 Z " fill="#FADE48" transform="translate(658,108)"/>
<path d="M0 0 C4.04 2.02 6.63 4.18 9 8 C9.73 12.79 9.63 17.43 7.81 21.94 C3.94 26.34 0.66 28.74 -5.25 29.31 C-9.63 28.95 -12.73 27.89 -16 25 C-19.43 20.35 -20.86 15.79 -20 10 C-15.26 1.04 -9.85 -1.45 0 0 Z " fill="#FADE48" transform="translate(403,108)"/>
<path d="M0 0 C4.31 1.73 7.82 4.86 10 9 C11.07 14.59 10.2 19.26 7 24 C2.57 28.09 -0.86 29.36 -6.94 29.29 C-11.23 28.69 -14.04 26.09 -16.81 22.94 C-19.47 18.6 -19.89 13.94 -19 9 C-14.34 1.17 -8.8 -0.89 0 0 Z " fill="#FBDF49" transform="translate(300,254)"/>
<path d="M0 0 C5.35 1.95 8.46 4.91 11 10 C11.74 14.51 11.96 18.41 9.54 22.4 C6.23 26.25 3.97 28.59 -1.23 29.31 C-6.04 29.55 -9.19 29.43 -13 26.31 C-16.85 22.43 -17.85 19.53 -18.38 14.06 C-18.24 9.74 -16.85 7.3 -14 4 C-9.45 0.07 -5.82 -0.95 0 0 Z " fill="#FBDF49" transform="translate(431,154)"/>
<path d="M0 0 C4.18 1.73 6.42 4.32 9 8 C10.57 12.71 10.55 16.53 8.81 21.19 C6.21 25.23 3.56 27.48 -1 29 C-7.12 29.5 -10.12 29.09 -15 25 C-18.68 20.81 -19.46 16.8 -19.42 11.36 C-18.68 7.24 -16.07 4.69 -13 2 C-8.74 -0.84 -5 -0.51 0 0 Z " fill="#FCDF49" transform="translate(760,254)"/>
<path d="M0 0 C5.35 1.95 8.46 4.91 11 10 C11.37 15.61 11.18 19.17 8 24 C3.16 28.36 0.03 29.46 -6.39 29.42 C-10.69 28.73 -13.31 26.33 -16 23 C-18.32 19.1 -18.55 15.45 -18 11 C-14.86 2.4 -8.86 -0.91 0 0 Z " fill="#FCDF49" transform="translate(627,154)"/>
<path d="M0 0 C-2.76 1.84 -4.69 2.64 -7.81 3.59 C-8.79 3.9 -9.77 4.2 -10.78 4.51 C-11.84 4.84 -12.9 5.16 -14 5.5 C-38.08 13.09 -61.12 22.39 -84 33 C-84.93 33.43 -85.86 33.85 -86.81 34.29 C-120.85 49.96 -153.31 69.03 -185.3 88.46 C-186.52 89.19 -187.73 89.93 -188.95 90.67 C-194.73 94.17 -200.5 97.68 -206.24 101.26 C-219.07 109.19 -232.41 115.88 -245.94 122.5 C-249.05 124.02 -252.14 125.58 -255.22 127.16 C-275.1 137.27 -295.31 146.21 -316.22 153.95 C-318.93 154.97 -321.63 156.05 -324.32 157.14 C-328.11 158.66 -331.91 160.04 -335.81 161.25 C-336.87 161.59 -337.93 161.92 -339.02 162.27 C-341.82 162.96 -344.13 163.15 -347 163 C-346 161 -346 161 -342.99 159.85 C-341.65 159.41 -340.29 158.99 -338.94 158.57 C-337.44 158.08 -335.94 157.6 -334.44 157.12 C-333.64 156.87 -332.85 156.61 -332.03 156.35 C-315.61 151.1 -299.7 145.17 -284 138 C-283.37 137.72 -282.75 137.43 -282.1 137.14 C-254.63 124.63 -227.01 111.78 -201.55 95.5 C-194.53 91.02 -187.35 86.8 -180.19 82.56 C-179.5 82.15 -178.8 81.74 -178.09 81.32 C-174.66 79.29 -171.23 77.27 -167.8 75.24 C-164.44 73.26 -161.09 71.27 -157.74 69.27 C-141.46 59.61 -124.8 50.72 -108 42 C-106.85 41.4 -105.7 40.81 -104.52 40.19 C-75.37 25.1 -45.05 11.97 -13.62 2.38 C-12.82 2.13 -12.01 1.88 -11.18 1.62 C-7.35 0.5 -4.03 -0.31 0 0 Z " fill="#181B23" transform="translate(823,849)"/>
<path d="M0 0 C1.02 0.42 2.04 0.85 3.08 1.29 C5.58 2.33 8.07 3.38 10.56 4.44 C8.54 8.48 2.52 9.53 -1.5 11.12 C-2.53 11.55 -3.55 11.98 -4.61 12.42 C-15.38 16.7 -21.43 14.81 -31.88 10.5 C-32.78 10.14 -33.69 9.78 -34.63 9.41 C-41.31 6.7 -41.31 6.7 -42.44 4.44 C-38.6 2.72 -34.74 1.05 -30.88 -0.62 C-29.79 -1.11 -28.7 -1.6 -27.58 -2.1 C-16.63 -6.79 -10.6 -4.5 0 0 Z " fill="#163571" transform="translate(541.4375,328.5625)"/>
<path d="M0 0 C2.82 1.82 4.5 3.01 6 6 C6.52 10.83 6.73 14.74 4.25 19 C0.9 21.98 -0.87 22.87 -5.38 23.38 C-9.67 22.93 -11.68 21.7 -15 19 C-17.83 14.76 -17.65 10.98 -17 6 C-12.86 -1.1 -7.52 -1.89 0 0 Z " fill="#FADD48" transform="translate(418,191)"/>
<path d="M0 0 C4.06 1.56 7.1 2.99 9 7 C9.73 11.74 9.44 15.1 7.31 19.44 C3.91 23.21 1.53 23.81 -3.44 24.44 C-8.2 23.85 -9.65 22.35 -13 19 C-14.85 15.3 -14.47 11.04 -14 7 C-10.41 1.06 -6.85 -0.58 0 0 Z " fill="#FADE48" transform="translate(641,190)"/>
<path d="M0 0 C3.54 1.65 4.81 2.72 7 6 C7.51 9.84 7.1 11.79 5.44 15.31 C3 18 3 18 -0.31 19.38 C-4.62 18.94 -5.13 18.26 -7.88 15.12 C-8.93 13.76 -9.98 12.39 -11 11 C-11.33 10.67 -11.66 10.34 -12 10 C-12.38 7.75 -12.38 7.75 -12 5 C-8.46 0.17 -5.9 -0.84 0 0 Z " fill="#F6DA47" transform="translate(548,190)"/>
<path d="M0 0 C2.65 1.39 3.92 2.71 6 5 C6.69 7.56 6.69 7.56 6 10 C3.69 12 3.69 12 1 14 C-0.79 16.62 -0.79 16.62 -2 19 C-5.25 18.88 -5.25 18.88 -9 18 C-11.72 15 -12.85 12.94 -13.5 8.94 C-12.88 5.29 -11.55 3.63 -9 1 C-5.85 -0.57 -3.48 -0.35 0 0 Z " fill="#F7DB47" transform="translate(509,190)"/>
<path d="M0 0 C1.69 2.92 2.22 4.67 1.77 8 C1.67 8.79 1.58 9.59 1.48 10.4 C1.37 11.26 1.25 12.12 1.14 13.01 C-0.21 25.1 -0.3 37.11 -0.26 49.26 C-0.25 52.89 -0.26 56.52 -0.27 60.16 C-0.28 75.39 0.2 89.89 4.44 104.62 C4.88 106.24 5.32 107.85 5.76 109.46 C5.97 110.23 6.18 111 6.4 111.79 C10.5 126.86 10.5 126.86 10 134 C7.41 131.41 7.32 129.57 6.6 126 C6.35 124.78 6.1 123.56 5.84 122.31 C5.58 121.03 5.33 119.75 5.06 118.44 C3.28 108.93 3.28 108.93 0.43 99.72 C-4.44 85.8 -3.36 69.34 -3.31 54.81 C-3.31 53.82 -3.31 52.82 -3.31 51.8 C-3.29 34.38 -2.25 17.28 0 0 Z " fill="#20252D" transform="translate(98,371)"/>
<path d="M0 0 C4.21 1.25 5.62 3.2 7.94 6.88 C8.59 10.03 8.56 11.76 6.98 14.59 C5.75 16.25 5.75 16.25 2.94 18.88 C0.12 19.25 0.12 19.25 -2.06 18.88 C-6.06 12.12 -6.06 12.12 -6.06 9.88 C-7.05 9.54 -8.04 9.22 -9.06 8.88 C-4.24 1.21 -4.24 1.21 0 0 Z " fill="#F6DA47" transform="translate(547.0625,152.125)"/>
<path d="M0 0 C4.71 1.35 6.53 4.85 9.06 8.88 C8.07 9.21 7.08 9.53 6.06 9.88 C4.94 12.22 4.94 12.22 4.06 14.88 C3.41 16.22 2.75 17.55 2.06 18.88 C-0.12 19.25 -0.12 19.25 -2.94 18.88 C-6.17 15.86 -7.66 14.19 -8.56 9.88 C-7.5 4.77 -5.06 1.51 0 0 Z " fill="#F6DA47" transform="translate(503.9375,152.125)"/>
<path d="M0 0 C3.38 0.94 3.38 0.94 5.38 3.94 C6.03 10.09 6.03 10.09 3.81 12.94 C0.35 14.36 -2.04 13.8 -5.62 12.94 C-7.62 10.94 -7.62 10.94 -8 7.56 C-7.62 3.94 -7.62 3.94 -6.06 1.44 C-3.62 -0.06 -3.62 -0.06 0 0 Z " fill="#F5D947" transform="translate(526.625,137.0625)"/>
<path d="M0 0 C1.94 1.06 1.94 1.06 3 3 C3.37 6.41 3.61 8.88 1.94 11.94 C-1.12 13.61 -3.59 13.37 -7 13 C-8.94 11.94 -8.94 11.94 -10 10 C-10.37 6.59 -10.61 4.12 -8.94 1.06 C-5.88 -0.61 -3.41 -0.37 0 0 Z " fill="#FBDE48" transform="translate(529,170)"/>
<path d="M0 0 C2.38 1.56 2.38 1.56 4 4 C3.79 10.21 3.79 10.21 1 13 C-5 13.55 -5 13.55 -7.94 11.94 C-9.63 8.85 -9.43 6.44 -9 3 C-6.36 -0.03 -3.93 -0.69 0 0 Z " fill="#0B0A03" transform="translate(528,223)"/>
<path d="M0 0 C3.38 0.94 3.38 0.94 5.38 3.94 C5.7 7.03 5.86 9.08 4.31 11.81 C1.23 13.6 -1.15 13.37 -4.62 12.94 C-7.01 10.86 -7.52 9.53 -8.06 6.44 C-7.62 3.94 -7.62 3.94 -6.06 1.56 C-3.62 -0.06 -3.62 -0.06 0 0 Z " fill="#0A0903" transform="translate(650.625,239.0625)"/>
<path d="M0 0 C1.94 1.12 1.94 1.12 3 3 C2.67 9.33 2.67 9.33 0 12 C-6 12.55 -6 12.55 -8.94 10.94 C-10.63 7.85 -10.43 5.44 -10 2 C-7.01 -1.68 -4.33 -1.29 0 0 Z " fill="#0A0903" transform="translate(405,240)"/>
<path d="M0 0 C1.77 2.6 2.04 3.76 1.56 6.92 C1.27 8.11 0.97 9.3 0.67 10.53 C-1.98 22.68 -1.57 35.12 -1.69 47.5 C-1.72 49.98 -1.76 52.46 -1.79 54.94 C-1.88 60.96 -1.94 66.98 -2 73 C-2.33 73 -2.66 73 -3 73 C-4.11 67.62 -4.18 62.38 -4.2 56.91 C-4.21 55.94 -4.21 54.96 -4.22 53.96 C-4.23 51.9 -4.24 49.84 -4.24 47.77 C-4.25 44.67 -4.28 41.57 -4.31 38.46 C-4.37 26.91 -3.66 16.27 -1 5 C-0.66 3.33 -0.32 1.67 0 0 Z " fill="#151E30" transform="translate(149,459)"/>
<path d="M0 0 C0.33 0 0.66 0 1 0 C1.19 1.02 1.19 1.02 1.38 2.06 C5.57 24.51 10.37 47.42 26 65 C23 65 23 65 21.42 63.52 C8.11 46.41 -1.2 21.75 0 0 Z " fill="#191D25" transform="translate(100,745)"/>
<path d="M0 0 C1.45 0.5 1.45 0.5 2.94 1 C2.94 1.33 2.94 1.66 2.94 2 C-2.67 1.67 -8.28 1.34 -14.06 1 C-14.72 2.32 -15.38 3.64 -16.06 5 C-16.72 5 -17.38 5 -18.06 5 C-18.06 6.98 -18.06 8.96 -18.06 11 C-18.39 11 -18.72 11 -19.06 11 C-19.55 4.62 -19.55 4.62 -17.19 1.62 C-12.11 -2.26 -5.97 -1.72 0 0 Z " fill="#622613" transform="translate(594.0625,329)"/>
<path d="M0 0 C0.33 0 0.66 0 1 0 C2.52 8.42 3.28 16.45 3 25 C-1.29 20.71 -0.06 12.17 -0.06 6.44 C-0.05 4.29 -0.03 2.15 0 0 Z " fill="#1E222A" transform="translate(147,533)"/>
<path d="M0 0 C-3.3 1.88 -6.39 2.61 -10.12 3.25 C-11.18 3.44 -12.23 3.63 -13.32 3.83 C-14.65 3.91 -14.65 3.91 -16 4 C-16.66 3.34 -17.32 2.68 -18 2 C-15.94 1.47 -13.88 0.95 -11.81 0.44 C-10.09 0 -10.09 0 -8.33 -0.44 C-5.12 -0.98 -3.1 -0.88 0 0 Z " fill="#272C37" transform="translate(919,887)"/>
<path d="M0 0 C1.15 0.95 2.29 1.91 3.44 2.88 C4.39 3.68 4.39 3.68 5.37 4.49 C7 6 7 6 8 8 C7.34 8.66 6.68 9.32 6 10 C4.99 8.71 4 7.42 3 6.12 C2.44 5.41 1.89 4.69 1.31 3.95 C0 2 0 2 0 0 Z " fill="#2E5197" transform="translate(299,901)"/>
</svg>
