<?xml version="1.0" standalone="no"?>
<!DOCTYPE svg PUBLIC "-//W3C//DTD SVG 20010904//EN"
 "http://www.w3.org/TR/2001/REC-SVG-20010904/DTD/svg10.dtd">
<svg version="1.0" xmlns="http://www.w3.org/2000/svg"
 width="1200.000000pt" height="986.000000pt" viewBox="0 0 1200.000000 986.000000"
 preserveAspectRatio="xMidYMid meet">

<g transform="translate(0.000000,986.000000) scale(0.100000,-0.100000)"
fill="#000000" stroke="none">
<path d="M5720 8489 c-214 -20 -466 -74 -670 -144 -58 -19 -178 -72 -268 -116
-185 -92 -174 -73 -117 -197 36 -77 98 -163 162 -225 37 -35 41 -37 72 -26 19
7 60 9 97 6 193 -15 300 -217 207 -389 -16 -30 -46 -64 -70 -81 -48 -34 -47
-44 11 -95 102 -90 269 -51 322 75 13 30 12 34 -11 57 -54 54 -16 150 59 150
73 0 119 -91 72 -143 -17 -19 -16 -21 22 -59 48 -48 97 -66 168 -60 87 7 152
64 178 154 6 18 0 23 -41 35 -68 19 -146 98 -167 169 -20 67 -20 93 0 159 11
37 30 67 65 104 l49 51 0 293 0 293 -22 -1 c-13 -1 -66 -6 -118 -10z"/>
<path d="M6140 8207 l0 -293 49 -51 c35 -37 54 -67 65 -104 20 -66 20 -92 0
-159 -21 -71 -99 -150 -167 -169 -41 -12 -47 -17 -41 -35 26 -90 91 -147 178
-154 71 -6 120 12 168 60 38 38 39 40 22 59 -47 52 -1 143 72 143 75 0 113
-96 59 -150 -23 -23 -24 -27 -11 -57 53 -126 220 -165 322 -75 58 51 59 61 11
95 -24 17 -54 51 -70 81 -93 172 14 374 207 389 37 3 78 1 97 -6 31 -11 35 -9
72 26 64 62 126 148 162 225 54 118 56 110 -27 154 -225 119 -465 206 -705
253 -134 27 -204 37 -400 56 l-63 6 0 -294z"/>
<path d="M4287 7880 c-95 -100 -157 -181 -212 -282 -36 -67 -88 -206 -100
-269 l-6 -34 51 4 c137 9 246 -73 280 -210 15 -59 -1 -142 -36 -195 -20 -29
-23 -39 -12 -46 47 -32 79 -42 129 -42 103 -1 188 75 205 182 4 27 3 42 -4 42
-6 0 -24 12 -41 26 -82 69 6 194 101 143 29 -16 50 -72 38 -103 -8 -22 -5 -27
28 -48 30 -18 51 -23 108 -23 62 0 76 4 112 29 49 34 92 112 92 168 0 37 -1
38 -38 38 -61 0 -134 27 -179 65 -49 42 -93 125 -93 175 0 31 -10 45 -86 120
-87 86 -188 225 -221 306 -10 24 -21 44 -24 44 -4 0 -45 -40 -92 -90z"/>
<path d="M7596 7926 c-29 -77 -131 -218 -220 -306 -76 -75 -86 -89 -86 -121 0
-49 -44 -133 -93 -174 -45 -38 -118 -65 -179 -65 -37 0 -38 -1 -38 -38 0 -56
43 -134 92 -168 36 -25 50 -29 112 -29 57 0 78 5 108 23 33 21 36 26 28 48
-12 31 9 87 38 103 94 50 183 -74 102 -142 -16 -14 -34 -27 -41 -29 -19 -6 -1
-81 31 -132 64 -100 191 -120 299 -47 12 7 10 14 -8 37 -12 15 -28 51 -37 81
-51 174 91 344 275 332 30 -3 51 0 51 6 0 6 -8 39 -19 75 -52 182 -144 337
-291 493 -51 53 -95 97 -100 97 -4 0 -15 -20 -24 -44z"/>
<path d="M5430 5961 l0 -138 47 -6 c70 -8 83 -29 83 -138 l0 -89 -465 0 -465
0 0 -135 0 -135 105 0 106 0 -3 -157 -3 -158 -102 -3 -103 -3 0 -119 0 -120
105 0 106 0 -3 -142 -3 -143 -102 -3 -103 -3 0 -144 0 -145 105 0 105 0 0
-140 0 -140 -105 0 -105 0 0 -125 0 -125 105 0 105 0 0 -145 0 -145 -105 0
-105 0 0 -125 0 -125 455 0 456 0 -3 -57 -3 -58 -62 -3 -63 -3 0 -144 0 -145
98 0 c129 0 181 18 247 84 62 63 75 102 75 230 l0 96 305 0 305 0 0 -36 c0
-51 -35 -107 -84 -135 -37 -22 -53 -24 -166 -24 -123 0 -126 1 -182 33 l-58
32 0 -125 c0 -118 1 -125 23 -139 65 -43 282 -69 389 -47 82 17 169 64 218
117 49 54 97 150 105 213 3 25 8 61 11 79 l5 32 205 0 206 0 54 36 c123 82
221 236 252 397 l17 87 98 0 97 0 0 110 0 110 -90 0 -89 0 -5 33 c-21 147 -31
200 -50 253 -31 85 -70 148 -114 185 l-38 32 48 45 c67 63 116 165 131 277
l11 85 98 0 98 0 0 115 0 115 -89 0 -88 0 -7 51 c-9 65 -51 200 -83 264 -58
116 -137 204 -234 263 -34 21 -48 22 -226 22 l-190 0 -7 71 c-16 175 -108 302
-254 353 -131 46 -314 40 -429 -14 l-63 -29 0 -120 0 -120 35 23 c75 52 278
61 368 17 58 -28 87 -73 87 -135 l0 -46 -304 0 -304 0 -5 148 c-6 174 -20 226
-82 287 -56 56 -114 75 -232 75 l-93 0 0 -139z m130 -1066 l0 -425 -250 0
-250 0 0 145 0 145 85 0 85 0 0 120 0 119 -82 3 -83 3 -3 158 -3 157 251 0
250 0 0 -425z m880 57 c0 -362 0 -369 -22 -412 -32 -63 -53 -71 -183 -68
l-110 3 -3 53 -3 52 -80 0 -79 0 0 -55 0 -55 -60 0 -60 0 0 425 0 425 300 0
300 0 0 -368z m572 347 c91 -46 156 -144 173 -262 l7 -47 -96 0 -96 0 0 -115
0 -114 94 -3 95 -3 -39 -83 c-47 -100 -96 -169 -132 -188 -31 -16 -358 -21
-358 -5 0 5 7 25 15 44 12 30 15 100 15 410 0 206 3 377 7 380 3 4 67 7 140 7
116 0 139 -3 175 -21z m-1452 -1529 l0 -410 -250 0 -250 0 0 145 0 145 85 0
85 0 0 125 0 125 -85 0 -85 0 0 140 0 140 250 0 250 0 0 -410z m400 365 l0
-45 80 0 80 0 0 45 0 46 136 -3 137 -3 21 -28 c20 -28 21 -40 24 -408 l3 -379
-301 0 -300 0 0 410 0 410 60 0 60 0 0 -45z m1085 5 c82 -59 132 -148 138
-247 l2 -38 -92 -3 -93 -3 0 -109 0 -110 85 0 c55 0 85 -4 85 -11 0 -18 -77
-177 -100 -207 -38 -47 -54 -51 -222 -52 l-157 0 -4 388 c-1 213 -7 397 -11
410 l-9 23 165 -3 164 -3 49 -35z"/>
<path d="M1360 5337 l0 -422 415 -415 415 -415 0 838 0 837 -415 0 -415 0 0
-423z"/>
<path d="M3050 4497 l0 -1262 415 -415 415 -415 -2 630 -3 630 -37 135 c-53
196 -71 340 -71 560 0 219 18 361 71 559 l36 136 3 353 3 352 -415 0 -415 0 0
-1263z"/>
<path d="M8122 5408 l3 -353 37 -135 c53 -196 71 -340 71 -560 0 -220 -18
-364 -71 -560 l-37 -135 -3 -630 -2 -630 415 415 415 415 0 1262 0 1263 -415
0 -415 0 2 -352z"/>
<path d="M9810 4923 l0 -838 415 415 415 415 0 422 0 423 -415 0 -415 0 0
-837z"/>
<path d="M4740 2034 l0 -479 348 -345 c191 -190 377 -374 415 -410 l67 -64 0
714 0 715 -81 18 c-231 52 -498 168 -726 315 l-23 14 0 -478z"/>
<path d="M7150 2444 c-185 -112 -440 -216 -639 -261 l-81 -18 0 -714 0 -713
98 90 c53 50 240 234 415 409 l317 318 -2 476 -3 476 -105 -63z"/>
</g>
</svg>
