<svg height="2500" viewBox="197.6 112.5 455.3 619.5" width="1271" xmlns="http://www.w3.org/2000/svg"><path clip-rule="evenodd" d="m542.9 309.3c65.9 40 110 112.5 110 195 0 125.4-102.2 227.7-227.6 227.7s-227.7-102.3-227.7-227.7c0-82.5 44.1-155 110-195l-2.3-5.4.2-.8-.2-.2c-1-.3-2.1-.5-3.1-.9-1.3.2-2.6.3-3.9.3-7.2 0-13.9-2.7-19.5-7.1-7.2-5.7-12-14.7-12.1-24 0-2 .2-3.9.6-5.7-.3-1.8-.5-3.6-.5-5.4 0-4.2.9-8.2 2.6-11.9.1-4.9 1.4-9.6 3.7-13.7 0-.6-.1-1.1-.1-1.7 0-7 2.6-13.6 7-18.6 1.4-7.9 6-14.7 12.5-18.9 3.1-7 9.1-12.6 16.4-15.2 4.6-5.9 11.5-10 19.3-10.8 4.8-3.5 10.6-5.6 16.9-5.6.7 0 1.4 0 2.1.1 3.5-4.5 8.4-7.8 14-9.6 4.7-5.6 11.5-9.4 19.2-10.1 4.3-3.1 9.5-5 15.1-5.3v-8.5l11.8-11.8h.7l6.2-6h22.3l6.2 6h.8l11.7 11.9v8.3c5.5.3 10.7 2.2 15.1 5.3 7.7.7 14.6 4.5 19.3 10.1 5.6 1.7 10.4 5.1 14 9.6.7-.1 1.4-.1 2.1-.1 6.2 0 12.1 2 16.9 5.6 7.8.9 14.7 4.9 19.4 10.8 7.3 2.6 13.2 8.2 16.3 15.2 6.5 4.2 11.1 11 12.5 19 4.4 5 7 11.6 7 18.6 0 .6 0 1.1-.1 1.7 2.3 4.1 3.7 8.8 3.7 13.7 1.7 3.7 2.6 7.7 2.6 11.8 0 1.8-.2 3.6-.5 5.4.4 1.9.6 3.8.6 5.7-.1 9.3-4.8 18.4-12.1 24-5.6 4.4-12.3 7-19.5 7-1.3 0-2.6-.1-3.9-.3-1 .3-2.1.6-3.1.9l-.1.1.2.9z" fill="#fff" fill-rule="evenodd"/><path d="m541.1 240s-4.7-7.6-15-11.6c-9.8-3.9-24.8-6.2-26.2-6.4 0-.1-1.1-1.1-10.8-7.6-18.7-12.6-46.1-13.4-64-9-17.9-4.4-45.3-3.6-64 9-9.7 6.6-10.8 7.5-10.8 7.6-1.4.2-16.3 2.5-26.2 6.4-10.3 4-15 11.6-15 11.6l-4 16.8 2.7 22.3 18 4.3 53.5-14 45.6-5.3 45.7 5.3 53.5 14 18-4.3 2.7-22.3z" fill="#e5213f"/><path d="m350.4 222.6c0 .1.3-.2.5-.5zm120.6 46 53.2 14.1 17.5-3.7 2.8-22.1-3.9-16.7c-.4-.7-5-7.5-14.6-11.3-9.7-3.8-24.7-6.1-26.6-7l-.1.1c-.2-.2-.7-.5-1.4-1.1-1.5-1.1-4.2-2.9-9-6.2-12.1-8.1-28-11.4-42.4-11.4-7.6 0-14.9.9-21.3 2.4-6.1-1.5-13.4-2.4-21-2.4-14.5 0-30.4 3.2-42.4 11.4-7.2 4.9-9.7 6.7-10.4 7.3l-.1-.1v.1c0 .3-.3.5-.5.5-1.3.2-16.3 2.5-26 6.4-10 3.9-14.5 11.2-14.6 11.2l-3.9 16.6 2.2 21.7 17.7 4.3 53.6-14.1 45.8-5.3zm-.2 1.3-45.5-5.3-45.5 5.3-53.9 14.1-18.5-4.8-2.7-22.5 4.1-17s4.8-7.7 15.3-11.8c9.6-3.8 23.8-6.1 26.1-6.4.7-.9 2.8-2 10.7-7.6 12.4-8.4 28.5-11.6 43.2-11.6 7.7 0 15.1.9 21 2.4 6.2-1.5 13.6-2.4 21.3-2.4 14.7 0 30.8 3.2 43.2 11.6 7.9 5.5 10 6.7 10.7 7.6 2.1.3 16.5 2.6 26.2 6.4 10.5 4.1 15.2 11.8 15.3 11.8l-.5.4.6-.2 4 17-3.2 22.8-18.3 4.3z" fill="#004696"/><path d="m525.1 291.6c-30.3-14.3-64.1-22.2-99.9-22.2s-69.5 8-99.8 22.2c-1.1.5-1.4 1.8-.9 2.9s1.8 1.6 2.9 1.1l4.9 10.5c-1.3.6-1.8 2.1-1.2 3.4s2 1.9 3.2 1.3c27.6-13 58.4-20.2 90.9-20.2 32.6 0 63.3 7.2 90.9 20.2 1.3.6 2.6 0 3.2-1.3s0-2.8-1.2-3.4l4.9-10.5c1.1.5 2.4 0 2.9-1.1.6-1.1.3-2.4-.8-2.9" fill="#f8bb00"/><path d="m515.7 311.6c-27.5-13-58.1-20.1-90.5-20.1s-63 7.1-90.6 20.1c-.4.2-.9.3-1.4.3-1.4 0-2.5-.8-3.1-2-.3-.5-.4-1-.4-1.5 0-1 .4-2 1.2-2.6l-4.2-9h-.4c-1.2 0-2.3-.7-2.8-1.8-.3-.5-.4-1-.4-1.5 0-1.1.6-2.2 1.7-2.7 30.5-14.4 64.4-22.4 100.3-22.4s69.8 8 100.2 22.4l-.4.9-.4.9c-30.2-14.2-63.8-22.1-99.4-22.1s-69.2 7.9-99.4 22.1c-.4.2-.6.5-.6 1 0 .2.1.4.2.7.2.5.6.7 1.1.7.2 0 .4 0 .6-.1l1.2.5 4.9 10.5-.5 1.3c-.6.3-.9.9-.9 1.4 0 .2 0 .4.1.7.3.6.9 1 1.4 1 .2 0 .4 0 .6-.1 27.7-13.1 58.6-20.3 91.3-20.3s63.6 7.2 91.3 20.3c.2.1.4.1.6.1.5 0 1-.3 1.4-.9.1-.2.1-.5.1-.7 0-.6-.4-1.2-.9-1.4l-.4-1.3 4.9-10.5 1.3-.5c.1.1.3.1.5.1.4 0 .9-.3 1.1-.7.1-.2.1-.5.1-.7 0-.4-.2-.8-.6-1l.4-.9.4-.9c1.1.5 1.7 1.6 1.7 2.7 0 .5-.1 1-.3 1.5-.6 1.1-1.7 1.8-2.9 1.8h-.4l-4.2 9c.7.7 1.2 1.6 1.2 2.6 0 .5-.1 1-.3 1.5-.6 1.2-1.8 2-3.1 2-.3-.1-.8-.2-1.3-.4" fill="#004696"/><path d="m539.9 276.6c-2.3.8-4.9.7-7.2-.5-3.2-1.7-4.8-5.1-4.5-8.5.9-1 1.6-2.3 2-3.7 1.2-4.8-1.7-9.7-6.5-10.9s-9.7 1.7-10.9 6.4c-.2.6-.2 1.2-.3 1.9-2.1 2.7-5.6 4.1-9.2 3.2-4.2-1.1-6.9-5.1-6.5-9.2 8.5 2.1 11.8-1.8 13.2-7.2 1.2-4.6.6-8.9-4.7-11.5.1-2.1-.2-3.7-.9-5.1 3.7-1.1 6.4-4.5 6.4-8.5 0-4.3-3-7.9-7.1-8.7 2.1-1.6 3.4-4.2 3.4-7 0-.4 0-.7-.1-1.1v.1c24.2 12.3 31.9 24.9 33.9 50.9-2.9.9-4.8 3.7-5.9 6.8-1.8 4.7-1.5 9.4 4.9 12.6m-33-4.6c3.3-.2 6.5-1.4 9.2-3.3.9.7 2 1.2 3.1 1.5.4.1.8.2 1.2.2.6 3.2 2.1 6.3 4.4 8.7-5.8-2.5-11.8-4.9-17.9-7.1zm-90.7-13.7c4.8-2.3 8.2-6.8 9-12.3.8 5.4 4.2 10 9 12.3-3-.1-6-.2-9-.2-3 .1-6 .1-9 .2zm-72.7 13.7c-6.1 2.1-12 4.5-17.9 7.1 2.3-2.4 3.8-5.5 4.4-8.7.4 0 .8-.1 1.2-.2 1.2-.3 2.2-.8 3.1-1.5 2.6 2 5.9 3.1 9.2 3.3zm-32.9 4.6c6.4-3.2 6.6-7.9 4.8-12.7-1.2-3.1-3-5.9-5.9-6.8 2-26 9.6-38.6 33.9-50.9v-.1c0 .3-.1.7-.1 1.1 0 2.9 1.4 5.4 3.4 7-4.1.8-7.1 4.4-7.1 8.7 0 4 2.7 7.4 6.4 8.5-.7 1.4-1 3-.9 5.1-5.4 2.6-5.9 6.9-4.7 11.5 1.4 5.5 4.7 9.3 13.2 7.2.4 4.2-2.3 8.2-6.5 9.2-3.5.9-7.1-.5-9.2-3.2 0-.6-.1-1.2-.3-1.9-1.2-4.8-6.1-7.7-10.9-6.4-4.8 1.2-7.7 6.1-6.4 10.9.4 1.4 1.1 2.7 2 3.7.3 3.4-1.3 6.8-4.5 8.5-2.3 1.3-4.9 1.4-7.2.6zm50.3-22.4c2.1 5 6.5 8.5 11.7 9.6-5.8 1.3-11.5 2.7-17.2 4.4 4-3.4 6.1-8.6 5.5-14zm43.1 4.9c-6.5.6-12.9 1.4-19.2 2.4 3.3-2.1 5.8-5.2 7.1-8.8h.5c.9 0 1.8-.1 2.6-.4 2 3.1 5.3 5.6 9 6.8zm13.5-81.6c0 .3-.1.6-.1.9 0 1.6.5 3.1 1.4 4.4v7.2c-.9 1.3-1.4 2.8-1.4 4.4s.5 3.1 1.4 4.4v7.2c-.9 1.3-1.4 2.8-1.4 4.4 0 3.2 1.9 5.9 4.6 7.1-3.9.6-6.9 2.7-7.8 7.6-5.8 1.2-7.4 5.2-7.4 9.9 0 5.6 2.2 10.2 11 10.3-.7 4.2-4.3 7.3-8.6 7.3-4 0-7.3-2.6-8.4-6.2.2-.8.4-1.7.4-2.6 0-4.9-4-9-8.9-9s-9 4-9 9c0 1.6.5 3.1 1.2 4.5-.1 3.8-2.7 7.3-6.6 8.3-4.2 1.1-8.5-1.1-10.2-4.9 8.5-2.3 9.5-7.2 8.1-12.7-1.2-4.6-3.7-8.1-9.7-7.8-1.2-2.6-2.9-4.1-4.8-4.8 3-28 24.6-51.2 56.2-48.9zm48.2 84c-6.3-1-12.7-1.9-19.2-2.4 3.7-1.2 7-3.6 9.1-6.8.8.3 1.7.4 2.6.4h.5c1.2 3.5 3.7 6.7 7 8.8zm-32.7-51.2c0-1.6-.5-3.1-1.4-4.4v-7.2c.9-1.2 1.4-2.8 1.4-4.4s-.5-3.1-1.4-4.4v-7.2c.9-1.2 1.4-2.8 1.4-4.4 0-.3 0-.6-.1-.9 31.6-2.3 53.2 20.9 56 48.7-1.9.8-3.6 2.3-4.8 4.8-5.9-.3-8.5 3.2-9.7 7.8-1.4 5.5-.4 10.4 8.1 12.7-1.7 3.9-6 6-10.2 4.9-3.9-1-6.5-4.5-6.6-8.3.8-1.3 1.2-2.8 1.2-4.5 0-4.9-4-9-8.9-9-5 0-9 4-9 9 0 .9.1 1.7.4 2.6-1.1 3.6-4.4 6.2-8.4 6.2-4.3 0-7.9-3.2-8.6-7.3 8.8-.1 11-4.6 11-10.3 0-4.8-1.6-8.8-7.4-9.9-.9-4.9-3.9-6.9-7.8-7.6 2.9-1 4.8-3.7 4.8-6.9zm56.5 43.9c-.6 5.4 1.6 10.6 5.5 14-5.6-1.7-11.4-3.1-17.2-4.4 5.2-1.1 9.6-4.6 11.7-9.6zm-164.7 36.3c30.5-14.4 64.4-22.4 100.4-22.4s70 8 100.6 22.4l-.3-.1c2.5 1.2 5.5.1 6.7-2.4.7-1.4.6-3 0-4.3 5 1.6 10.5.5 14.6-2.6 4.6 3.1 9.3 1.6 12.9-1.2 3.8-2.9 7-9.9 2.4-13.7 3.5-4.6 2.6-10.5-1.7-13.2.8-1.3 1.2-2.8 1.2-4.5 0-4.3-3-7.9-7.1-8.7 2.1-1.6 3.4-4.2 3.4-7 0-4.6-3.5-8.4-8-8.9.9-1.4 1.5-3.1 1.5-4.9 0-4.9-4-8.9-8.9-8.9-.8 0-1.6.1-2.3.3.5-1.1.8-2.4.8-3.7 0-4.9-4-8.9-8.9-8.9-1.5 0-2.8.4-4 1 .1-.5.1-.9.1-1.4 0-4.9-4-8.9-8.9-8.9-1.9 0-3.7.6-5.1 1.6-.9-4-4.4-7-8.7-7-3.2 0-5.9 1.6-7.5 4.1-1.6-1.8-4-2.9-6.6-2.9-.7 0-1.4.1-2 .2.4-1 .6-2.1.6-3.2 0-4.9-4-8.9-8.9-8.9-1.7 0-3.4.5-4.7 1.4.1-.5.1-.9.1-1.4 0-4.9-4-8.9-8.9-8.9-2 0-3.8.7-5.3 1.8-.9-4-4.4-7-8.7-7-2.5 0-4.7 1-6.3 2.6-1.4-3-4.5-5.1-8.1-5.1-1 0-2 .2-2.9.5-1.6-1.8-3.6-3.2-5.9-4.1-.5-.2-1.1-.4-1.6-.5v-6.8h6.7v-6.8h-6.7v-6.1h-7.2v6.1h-6.7v6.8h6.7v6.8c-.5.1-1.1.3-1.6.5-2.3.9-4.3 2.3-5.8 4.1-.9-.3-1.9-.5-2.9-.5-3.6 0-6.6 2.1-8.1 5.1-1.6-1.6-3.8-2.6-6.3-2.6-4.3 0-7.8 3-8.7 7-1.5-1.1-3.3-1.8-5.3-1.8-4.9 0-8.9 4-8.9 8.9 0 .5 0 1 .1 1.4-1.4-.9-3-1.4-4.7-1.4-4.9 0-8.9 4-8.9 8.9 0 1.1.2 2.2.6 3.2-.7-.2-1.3-.2-2-.2-2.6 0-5 1.1-6.6 2.9-1.6-2.5-4.3-4.1-7.5-4.1-4.3 0-7.8 3-8.7 7-1.4-1-3.2-1.6-5.1-1.6-4.9 0-8.9 4-8.9 8.9 0 .5 0 .9.1 1.4-1.2-.6-2.6-1-4-1-4.9 0-8.9 4-8.9 8.9 0 1.3.3 2.6.8 3.7-.7-.2-1.5-.3-2.3-.3-4.9 0-8.9 4-8.9 8.9 0 1.8.6 3.5 1.5 4.9-4.5.4-8.1 4.2-8.1 8.9 0 2.8 1.3 5.4 3.4 7-4 .9-7.1 4.4-7.1 8.7 0 1.6.4 3.2 1.2 4.5-4.3 2.7-5.2 8.6-1.6 13.2-4.6 3.8-1.4 10.8 2.4 13.7 3.6 2.8 8.3 4.3 12.9 1.2 4.1 3.1 9.5 4.2 14.6 2.6-.6 1.3-.7 2.9 0 4.3 1.2 2.6 4 3.7 6.5 2.5z" fill="#f8bb00"/><g fill="#004696"><path d="m319 283.2c.2.3.3.7.1 1-.3.5-.4 1.1-.4 1.7s.1 1.2.4 1.7c.7 1.5 2.1 2.4 3.6 2.4.5 0 1.1-.1 1.7-.4 30.7-14.5 64.7-22.5 100.8-22.5 36 0 70.2 8 100.8 22.4s.1 0 .1.1c0 0 .1 0 .1.1.4.1.8.2 1.3.2 1.5 0 3-.9 3.7-2.3.3-.6.4-1.2.4-1.8s-.1-1.2-.4-1.7c-.2-.4-.1-.8.1-1 .2-.3.6-.4 1-.3 1.4.5 2.9.7 4.4.7 3.3 0 6.6-1.1 9.3-3.2h1.1c1.7 1.1 3.3 1.6 4.9 1.6 2.4 0 4.8-1.1 6.9-2.7 2.2-1.7 4.3-5.2 4.3-8.1 0-1.6-.6-3-1.9-4.1l-.2-1.3c1.4-1.8 2-3.7 2-5.5 0-2.5-1.2-4.9-3.4-6.2l-.3-1.3c.7-1.2 1.1-2.5 1.1-4 0-3.8-2.7-7-6.3-7.8-.4-.1-.6-.4-.7-.7-.1-.4 0-.8.4-1 1.9-1.4 3-3.7 3-6.2 0-4.1-3.1-7.5-7.2-7.9-.3 0-.6-.2-.8-.5-.1-.3-.1-.7.1-1 .8-1.3 1.3-2.8 1.3-4.4 0-4.4-3.6-7.9-7.9-7.9-.7 0-1.4.1-2.1.3-.4.1-.8 0-1-.3-.3-.3-.3-.7-.1-1 .4-1 .7-2.1.7-3.3 0-4.4-3.6-7.9-7.9-7.9-1.3 0-2.6.3-3.6.9-.3.2-.7.1-1 0-.3-.2-.5-.6-.4-.9.1-.5.1-.9.1-1.3 0-4.4-3.6-7.9-8-7.9-1.7 0-3.3.5-4.5 1.4-.3.2-.6.2-.9.1s-.5-.4-.6-.7c-.8-3.6-4-6.2-7.8-6.2-2.8 0-5.2 1.5-6.7 3.7-.2.2-.4.4-.7.4s-.6-.1-.8-.3c-1.5-1.6-3.5-2.6-5.8-2.6-.6 0-1.2.1-1.8.2-.3.1-.7 0-.9-.3s-.3-.7-.2-1c.3-.9.5-1.9.5-2.8 0-4.4-3.6-8-7.9-8-1.6 0-3 .5-4.2 1.2-.3.2-.7.2-1 0s-.5-.6-.4-1 .1-.9.1-1.3c0-4.4-3.6-7.9-7.9-7.9-1.8 0-3.4.6-4.8 1.6-.3.2-.6.2-.9.1s-.6-.4-.6-.7c-.8-3.6-4-6.2-7.7-6.2-2.2 0-4.2.9-5.7 2.3-.2.2-.5.3-.8.3-.3-.1-.6-.3-.7-.5-1.3-2.7-4-4.6-7.2-4.6-.9 0-1.8.1-2.6.4l-1-.3c-1.5-1.7-3.3-3-5.5-3.8-.5-.2-1-.4-1.5-.5l-.7-.9v-6.8l1-1h5.8v-4.9h-5.8l-1-1v-5.3h-5.3v5.1l-.9 1h-5.8v4.9h5.8l.9 1v6.8l-.7.9c-.5.1-1 .3-1.5.5-2.1.8-4 2.1-5.5 3.8l-1 .3c-.8-.3-1.7-.4-2.6-.4-3.2 0-5.9 1.9-7.2 4.6-.1.3-.4.5-.7.5s-.6-.1-.9-.3c-1.4-1.4-3.4-2.3-5.6-2.3-3.8 0-6.9 2.7-7.7 6.2-.1.3-.3.6-.6.7s-.6.1-.9-.1c-1.3-1-2.9-1.6-4.7-1.6-4.4 0-7.9 3.6-8 7.9 0 .4 0 .8.1 1.3.1.4-.1.8-.4 1s-.7.2-1 0c-1.2-.8-2.7-1.2-4.2-1.2-4.4 0-7.9 3.5-7.9 8 0 1 .2 1.9.5 2.8.1.3.1.7-.2 1-.2.3-.6.4-.9.3-.6-.1-1.2-.2-1.8-.2-2.3 0-4.4 1-5.9 2.6-.2.2-.5.3-.8.3s-.6-.2-.7-.5c-1.4-2.2-3.9-3.7-6.7-3.7-3.8 0-7 2.7-7.7 6.2-.1.3-.3.6-.6.7s-.6.1-.9-.1c-1.3-.9-2.9-1.4-4.5-1.4-4.4 0-8 3.5-8 7.9 0 .4 0 .8.1 1.2s-.1.7-.4.9-.7.2-1 .1c-1.1-.5-2.3-.9-3.6-.9-4.4 0-7.9 3.5-7.9 7.9 0 1.2.3 2.3.7 3.3.1.3.1.7-.2 1-.2.3-.6.4-1 .3-.7-.2-1.4-.3-2.1-.3-4.4 0-8 3.5-8 7.9 0 1.6.5 3.1 1.3 4.4.2.3.2.6.1 1-.1.3-.4.5-.8.5-4 .4-7.2 3.8-7.2 7.9 0 2.5 1.2 4.8 3 6.2.3.2.4.6.3 1s-.4.6-.7.7c-3.6.8-6.3 4-6.3 7.8 0 1.5.4 2.8 1.1 4l-.3 1.3c-2.2 1.4-3.4 3.7-3.4 6.2 0 1.8.6 3.8 2 5.5l-.1 1.6c-1.4 1.2-1.9 2.6-1.9 4.1 0 2.9 2 6.4 4.3 8.1 2 1.6 4.4 2.7 6.9 2.7 1.6 0 3.2-.5 4.9-1.6l1.1.1c2.7 2 5.9 3.1 9.3 3.1 1.5 0 3-.2 4.5-.7h.3c.2 0 .5.1.6.4m-1.6 5.3c-.4-.8-.6-1.7-.6-2.6 0-.3 0-.5.1-.8-1.1.2-2.2.3-3.3.3-3.5 0-7-1.1-9.9-3.1-1.8 1.1-3.6 1.5-5.4 1.5-3 0-5.8-1.3-8.1-3.1-2.7-2.1-5-5.9-5.1-9.6 0-1.8.6-3.6 2-5-1.3-1.9-1.9-4-1.9-6 0-2.8 1.3-5.6 3.6-7.4-.6-1.3-.9-2.7-.9-4.2 0-4.1 2.6-7.7 6.2-9.1-1.6-1.7-2.5-4-2.5-6.6 0-4.6 3.2-8.5 7.5-9.6-.6-1.3-.9-2.7-.9-4.2 0-5.5 4.4-9.9 9.9-9.9h.9c-.2-.8-.3-1.6-.3-2.4 0-5.4 4.4-9.9 9.9-9.9 1 0 2 .2 3 .5 0-5.4 4.4-9.8 9.9-9.8 1.6 0 3.2.4 4.5 1.1 1.4-3.8 5-6.5 9.3-6.5 3.1 0 5.8 1.4 7.6 3.6 1.7-1.5 4-2.4 6.5-2.4h.6c-.1-.7-.2-1.3-.2-2 0-5.5 4.4-9.9 9.9-9.9 1.3 0 2.5.3 3.6.7.1-5.3 4.5-9.7 9.9-9.7 1.7 0 3.3.4 4.7 1.2 1.4-3.8 5-6.4 9.2-6.4 2.3 0 4.4.8 6 2.1 1.7-2.8 4.8-4.6 8.3-4.6.9 0 1.8.1 2.6.4 1.6-1.7 3.6-3 5.8-3.9.3-.1.7-.2 1-.3v-5.1h-5.7l-1-1v-6.8l1-1h5.7v-5l1-1h7.2l1 1v5.1h5.7l.9 1v6.8l-.9 1h-5.7v5.1c.3.1.7.2 1 .3 2.2.9 4.2 2.2 5.8 3.9.8-.2 1.7-.4 2.6-.4 3.5 0 6.5 1.8 8.3 4.6 1.7-1.3 3.8-2.1 6.1-2.1 4.2 0 7.8 2.7 9.2 6.4 1.4-.8 3-1.2 4.8-1.2 5.4 0 9.7 4.3 9.8 9.7 1.1-.4 2.4-.7 3.6-.7 5.4 0 9.9 4.4 9.9 9.9 0 .7-.1 1.4-.2 2h.7c2.5 0 4.7.9 6.5 2.4 1.8-2.2 4.5-3.6 7.6-3.6 4.3 0 7.9 2.7 9.3 6.5 1.4-.7 2.9-1.1 4.5-1.1 5.4 0 9.8 4.4 9.9 9.8.9-.3 1.9-.5 3-.5 5.4 0 9.8 4.4 9.9 9.9 0 .8-.1 1.7-.3 2.4.3 0 .6-.1.9-.1 5.4 0 9.9 4.4 9.9 9.9 0 1.5-.3 2.9-.9 4.2 4.3 1.1 7.5 5 7.5 9.6 0 2.5-.9 4.8-2.5 6.6 3.6 1.5 6.2 5 6.2 9.1 0 1.5-.3 2.9-.9 4.2 2.3 1.8 3.5 4.5 3.5 7.4 0 2-.6 4.1-1.9 6 1.4 1.4 2 3.2 1.9 5 0 3.8-2.3 7.5-5 9.6-2.3 1.8-5.1 3.1-8.1 3.1-1.8 0-3.6-.5-5.4-1.5-2.9 2-6.4 3.1-9.9 3.1-1.1 0-2.2-.1-3.3-.3 0 .3.1.5.1.8 0 .9-.2 1.7-.6 2.6-1.1 2.1-3.2 3.4-5.4 3.4-.8 0-1.6-.1-2.3-.5s-.1 0-.1-.1c-.1 0-.2-.1-.2-.2-30.3-14.2-64-22.1-99.6-22.1-35.8 0-69.6 8-100 22.3l-.4-.9.4.9c-.8.4-1.6.5-2.5.5-2.9.1-5-1.2-6-3.3z"/><path d="m491.9 266.3c-1.8-2.4-3-5.3-3.4-8.4-1.8 2.5-4.2 4.5-7 5.7 3.5.8 7 1.7 10.4 2.7m2.9 2.8c-5.6-1.7-11.3-3.1-17.1-4.4-.5-.1-.8-.5-.8-1s.3-.8.8-.9c4.8-1 9-4.3 10.9-9 .2-.4.7-.7 1.1-.6.5.1.8.6.7 1 0 .5-.1 1.1-.1 1.6 0 4.5 2 8.7 5.3 11.6.3.3.4.8.2 1.2-.2.3-.5.5-.8.5-.1.1-.2.1-.2 0zm-26.8-25.4c0 1.8-.5 3.5-1.2 4.4.1 3.4 2.4 6.5 5.8 7.4.6.2 1.3.3 2 .2 2.7 0 5.2-1.4 6.6-3.6-6-1.8-8.3-5.5-8.2-9.6 0-1.3.2-2.6.6-3.9 1.1-4.6 3.9-8.6 9.8-8.6h.2c1.1-2.2 2.6-3.6 4.3-4.4-3-25.8-22.3-47.3-50.7-47.3-1.1 0-2.1 0-3.3.1 0 1.8-.6 3.5-1.4 4.4l-.2 6.6c1 1.4 1.6 3.1 1.6 5 0 1.8-.6 3.5-1.4 4.4l-.2 6.6c1 1.4 1.6 3.1 1.6 4.9 0 2.7-1.2 5.1-3.2 6.7 2.9 1 5.3 3.3 6.2 7.1 5.8 1.4 7.7 6 7.6 10.7 0 5.6-2.5 10.7-10.8 11.2 1 3.2 3.9 5.4 7.4 5.4s6.5-2.3 7.5-5c-.3-.9-.4-1.9-.4-2.8 0-5.5 4.4-9.9 9.9-9.9 5.5.1 9.9 4.6 9.9 10m4.2 13.7c-4.3-1.1-7.2-4.9-7.2-9.7.7-1.2 1.1-2.5 1.1-4 0-4.4-3.6-8-8-8s-8 3.6-8 8c0 .8.1 1.5.3 2.8-1.2 4-4.9 6.9-9.3 6.9-4.8 0-8.8-3.5-9.6-8.1 0-.3.1-.6.2-.8.2-.2.4-.4.7-.4 8.4-.2 9.9-3.9 10.1-9.3-.1-4.6-1.3-7.9-6.7-9l-.8-.8c-.9-4.5-3.4-6.1-7-6.8-.4-.1-.7-.4-.8-.8s.2-.8.6-1c2.4-1.1 4.1-3.5 4.1-6.2 0-1.4-.4-2.7-1.4-4.4l.2-7.7c.8-1.1 1.2-2.4 1.2-3.8s-.4-2.7-1.4-4.4l.2-7.7c.8-1.1 1.2-2.4 1.2-3.8 0-.3 0-.5-.1-.8 0-.3 0-.5.2-.7s.4-.4.7-.4c1.5-.1 2.9-.2 4.4-.2 29.8 0 49.9 22.8 52.7 49.8l-.6 1c-1.7.7-3.1 1.9-4.3 4.3l-.9.6h-.7c-4.9.1-6.8 2.8-8 7.1-.3 1.2-.5 2.4-.5 3.5.1 3.5 1.6 6.3 7.9 8.1.3.1.5.3.6.5s.1.5 0 .8c-1.5 3.6-5 5.8-8.9 5.8-.6-.1-1.4-.2-2.2-.4z"/><path d="m462.2 259.9c-1.8-1.8-3.3-3.9-4.3-6.3-.7 0-1.3-.1-2-.2-1.5 2.1-3.5 3.8-5.7 5 4 .4 8 .9 12 1.5m3.3 2.5c-6.3-1-12.7-1.9-19.2-2.4-.4-.1-.8-.4-.8-.9-.1-.5.2-.9.6-1 3.5-1.1 6.6-3.4 8.6-6.4l1.1-.4c.7.2 1.5.3 2.3.3h.4l.9.6c1.2 3.3 3.6 6.3 6.7 8.3l-.5.8.1-1-.1 1 .5-.8c.4.2.5.7.3 1.1-.1.4-.5.6-.9.6.1.2 0 .2 0 .2zm-89.7-6.6c.6 0 1.3-.1 1.9-.2 3.5-.9 5.8-4 6-6.9-.9-1.4-1.4-3.1-1.4-5 0-5.5 4.4-9.9 9.9-9.9s9.9 4.4 9.9 9.9c0 1-.2 1.9-.4 2.3 1 3.2 3.9 5.5 7.4 5.5s6.4-2.3 7.4-5.4c-8.2-.5-10.8-5.6-10.8-11.2-.1-4.8 1.8-9.4 7.6-10.8.9-3.9 3.2-6.1 6.2-7.1-1.9-1.6-3.2-4-3.2-6.7 0-1.8.6-3.5 1.4-4.4l.2-6.6c-1-1.4-1.5-3.1-1.5-4.9 0-1.9.6-3.5 1.4-4.4l.2-6.6c-1-1.4-1.5-3.1-1.5-4.9-1.1-.1-2.2-.1-3.3-.1-28.4 0-47.7 21.5-50.7 47.3 1.7.9 3.2 2.3 4.3 4.5h.2c5.9-.1 8.8 3.9 9.9 8.5.3 1.3.5 2.6.5 3.9.1 4.1-2.3 7.7-8.2 9.6 1.4 2.2 3.9 3.6 6.6 3.6m-8.9-3.9c-.1-.3-.1-.6 0-.8.1-.3.4-.5.6-.5 6.3-1.8 7.8-4.5 7.9-8.1 0-1.1-.2-2.3-.5-3.5-1.2-4.3-3.1-7-8-7.1h-.7l-1-.5c-1.1-2.4-2.6-3.7-4.2-4.4l-.6-1c2.7-26.9 22.9-49.8 52.7-49.8 1.4 0 2.9.1 4.4.2l-.1 1 .1-1c.3 0 .5.1.7.3.1.2.2.5.2.7v.8c0 1.4.5 2.8 1.4 4.4l-.2 7.7c-.8 1.1-1.2 2.4-1.2 3.8s.5 2.7 1.4 4.4l-.2 7.7c-.8 1.1-1.2 2.4-1.2 3.8 0 2.8 1.7 5.2 4.1 6.2.4.2.6.6.6 1s-.4.8-.8.8c-3.6.6-6.1 2.3-7 6.8l-.8.8c-5.4 1.1-6.6 4.4-6.7 9 .2 5.4 1.7 9.1 10.1 9.3.3 0 .6.1.7.4.2.2.3.5.2.8-.8 4.6-4.7 8.1-9.6 8.1-4.4 0-8.1-2.9-9.3-7.5.2-.8.3-1.5.3-2.3 0-4.4-3.6-8-8-8s-8 3.6-8 8c0 1.5.4 2.8 1.2 4.5-.1 4.2-3 8.1-7.3 9.2-.8.2-1.6.3-2.4.3-3.7.3-7.2-2-8.8-5.5z"/><path d="m388.2 260c4-.6 8-1.1 12-1.5-2.2-1.3-4.2-3-5.7-5.1-.6.1-1.3.2-2 .2-1 2.4-2.4 4.6-4.3 6.4m-4.4 1.8c-.2-.4 0-.9.4-1.2 3.1-2 5.5-5 6.7-8.3l1-.6h.4c.8 0 1.6-.1 2.3-.3l1.1.4c2 3 5.1 5.2 8.6 6.4l-.3.9.3-.9c.5.1.7.6.7 1-.1.5-.4.8-.9.9-6.4.5-12.8 1.4-19.1 2.4h-.2c-.4-.1-.8-.3-1-.7zm-25.3 4.5c3.5-1 6.9-1.9 10.4-2.7-2.8-1.2-5.2-3.2-7-5.8-.4 3.2-1.6 6.1-3.4 8.5m-4 2.4c-.2-.4-.1-.9.2-1.2 3.3-2.8 5.3-7.1 5.3-11.5 0-.5 0-1.1-.1-1.7l.9-.1-.9.1c-.1-.5.3-.9.7-1 .5-.1.9.1 1.1.5 1.9 4.7 6.1 8 11 9 .5.1.8.5.8 1s-.3.8-.8.9c-5.8 1.2-11.5 2.7-17.1 4.4h-.3c-.3.1-.6-.1-.8-.4zm-40.9 7.4c1.3 0 2.6-.3 3.7-.9 2.6-1.4 4-4.1 4-6.9 0-.2 0-.4.1-.3-1-1.1-1.7-2.5-2.1-3.9-.2-.9-.3-1.7-.3-2.5 0-4.4 3-8.5 7.4-9.6.8-.3 1.7-.3 2.5-.4 4.4 0 8.5 3 9.6 7.5.2.7.3 1.4.1 1.5 1.4 1.9 3.8 3.1 6.2 3.1.7 0 1.3-.1 2-.2 3.4-.9 5.7-3.8 5.8-7.1-1.2.2-2.3.4-3.4.4-5.9.1-8.7-3.9-9.8-8.5-.4-1.4-.6-2.7-.6-4 0-3.2 1.5-6.4 5.2-8.3v-.3c0-1.4.2-2.6.6-3.7-3.5-1.5-6-5-6-9.1s2.6-7.7 6.2-9.2c-1.4-1.6-2.4-3.7-2.5-6-22.7 11.9-29.8 23.8-31.9 48.7 2.9 1.3 4.7 4.2 5.8 7.1.6 1.7 1 3.4 1 5.1 0 2.8-1.2 5.4-4.1 7.5zm-3.4 1.4.3-.9.4.9-.4-.9-.3.9c-.4-.1-.6-.5-.6-.9s.2-.7.5-.9c4-2.1 5.2-4.4 5.2-7.1 0-1.4-.3-2.9-.9-4.4-1.1-3-2.9-5.5-5.3-6.2l-.7-1c2-26.1 10-39.4 34-51.2v-.1c.2-.5.6-.7 1.1-.6s.8.5.7 1v1c0 2.5 1.2 4.8 3.1 6.3.3.2.4.6.4 1-.1.4-.4.7-.8.7-3.6.8-6.3 3.9-6.3 7.8 0 3.6 2.4 6.6 5.7 7.6.3.1.5.3.6.5.1.3.1.5 0 .8-.5 1-.8 2.3-.8 3.8v.8l-.5 1c-3.6 1.8-4.7 4-4.7 6.9 0 1.1.2 2.3.5 3.5 1.2 4.3 3.1 7 7.9 7.1 1.2 0 2.5-.2 4.1-.5.3-.1.5 0 .8.2.2.2.4.4.4.7v.9c0 4.3-2.9 8.2-7.3 9.4-.8.2-1.6.3-2.4.3-3.1 0-5.9-1.5-7.9-4.4 0-.5-.1-1.1-.2-1.6-.9-3.6-4.2-6-7.7-6-.7 0-1.3.1-2 .3-3.6.9-6 4.2-6 7.7 0 .7.1 1.3.3 2 .3 1.3.9 2.4 2 3.9v.9c0 3.4-1.8 6.8-5 8.6-1.5.8-3.1 1.2-4.7 1.2-1.3-.4-2.4-.6-3.5-1z"/><path d="m328.6 276.8c3.6-1.6 7.4-3 11.1-4.4-1.9-.5-3.8-1.4-5.4-2.5-.9.6-1.8 1-2.9 1.3-.2.1-.4.1-.6.1-.4 1.9-1.2 3.8-2.2 5.5m-3.8 2.9c-.3-.4-.2-.9.1-1.2 2.2-2.3 3.6-5.2 4.2-8.2l.8-.8c.4-.1.7-.1 1-.2 1.1-.3 2-.7 2.8-1.4h1.1c2.5 1.8 5.5 2.9 8.7 3.1l-.1 1 .1-1c.4 0 .8.4.9.8.1.5-.2.9-.6 1-6.1 2.1-12 4.5-17.8 7.1-.1.1-.3.1-.4.1-.3.1-.6 0-.8-.3zm94.9-22.4c1.8 0 3.6-.1 5.5-.1 1.8 0 3.7 0 5.5.1a17.8 17.8 0 0 1 -5.5-7.4c-1.1 2.9-3 5.5-5.5 7.4m-3.1 1.9-.4-.9zm8.6-.1c-3 0-6 .1-9 .2-.5 0-.9-.3-1-.7-.1-.5.1-.9.5-1.1 4.5-2.2 7.7-6.4 8.5-11.5.1-.5.5-.8.9-.8.5 0 .9.4.9.8.7 5.1 4 9.4 8.5 11.5.4.2.6.6.5 1.1-.1.4-.5.7-1 .7-2.8-.1-5.8-.2-8.8-.2zm96.6 17.7c-1-1.7-1.8-3.6-2.2-5.5-.2 0-.4-.1-.6-.1-1-.3-2-.7-2.9-1.3-1.7 1.1-3.5 1.9-5.4 2.5 3.7 1.4 7.4 2.8 11.1 4.4m2.6 3.2c-5.8-2.6-11.8-4.9-17.8-7.1l.3-.9v1-1l-.3.9c-.4-.2-.7-.6-.6-1 .1-.5.4-.8.9-.8 3.2-.2 6.2-1.3 8.7-3.1h1.2c.8.6 1.7 1.1 2.7 1.4.4.1.7.1 1.1.2l.8.8c.6 3 2 5.9 4.2 8.2.3.3.3.8.1 1.2-.2.3-.5.4-.8.4-.2-.1-.4-.1-.5-.2z"/><path d="m523.9 252c4.5 1.1 7.5 5.1 7.5 9.6 0 .8-.1 1.7-.3 2.5-.4 1.6-1.2 3-2 3.7v.6c0 2.8 1.5 5.4 4.1 6.9 1.1.6 2.4 1 3.7 1h.4c-2.9-2.1-4.2-4.8-4.1-7.5 0-1.7.4-3.4 1.1-5.1 1.1-2.9 2.9-5.9 5.8-7.1-2.1-24.7-9.1-36.6-31.9-48.8-.1 2.4-1 4.5-2.5 6.1 3.6 1.5 6.2 5 6.2 9.1s-2.5 7.6-6 9.1c.4 1.1.6 2.3.6 3.7v.3c3.7 2 5.3 5.1 5.2 8.4 0 1.3-.2 2.6-.5 4-1.1 4.6-4 8.5-9.8 8.5-1 0-2.2-.1-3.4-.4.2 3.3 2.5 6.3 5.8 7.1.6.1 1.3.2 1.9.2 2.4 0 4.8-1.2 6-2.6 0-.7.1-1.4.3-2.1 1.1-4.5 5.1-7.5 9.6-7.5.6 0 1.5.1 2.3.3m8.3 24.9c-3.2-1.8-5.1-5.1-5.1-8.5 0-.3 0-.6.3-1.5.8-.9 1.5-2 1.8-3.3.2-.7.2-1.3.2-2 0-3.6-2.4-6.8-6-7.7-.7-.2-1.4-.3-2-.3-3.6 0-6.8 2.4-7.7 6-.1.5-.2 1.1-.4 2.2-1.8 2.4-4.7 3.9-7.8 3.9-.8 0-1.7-.1-2.4-.3-4.4-1.1-7.3-5.1-7.3-9.4v-1c.1-.3.2-.5.4-.6s.5-.2.8-.1c1.6.4 2.9.6 4.1.6 4.9 0 6.8-2.8 8-7.1.3-1.2.5-2.4.5-3.5-.1-2.9-1.1-5.2-4.7-6.9l-.6-.9v-.8c0-1.5-.3-2.8-.8-3.8-.1-.3-.1-.5 0-.8s.3-.5.6-.5c3.3-1 5.7-4 5.7-7.6 0-3.8-2.7-7-6.3-7.8-.4-.1-.6-.4-.7-.7-.1-.4 0-.8.3-1 1.9-1.5 3.1-3.7 3.1-6.3 0-.3 0-.6-.1-.9-.1-.5.2-.9.7-1 .4-.1.7 0 1 .3 24.2 12.1 32.2 25.3 34.2 51.4l-.7 1c-2.4.7-4.2 3.2-5.3 6.2-.6 1.5-.9 3-.9 4.4 0 2.7 1.2 5 5.3 7.1l-.4.9.4-.9c.4.2.5.5.5.9s-.3.7-.6.8c-1.1.4-2.2.6-3.4.6-1.7.1-3.3-.3-4.7-1.1z"/></g><path d="m416.3 164.7c0 2.8-2.3 5-5 5-2.8 0-5-2.2-5-5s2.2-5 5-5c2.7 0 5 2.2 5 5" fill="#fff"/><path d="m406.9 164.7c0 2.4 2 4.4 4.4 4.4s4.4-2 4.4-4.4-2-4.4-4.4-4.4c-2.5 0-4.4 2-4.4 4.4m-1.3 0c0-3.1 2.5-5.7 5.7-5.7 3.1 0 5.7 2.5 5.7 5.7 0 3.1-2.6 5.7-5.7 5.7-3.2 0-5.7-2.6-5.7-5.7z" fill="#004696"/><path d="m430.2 178.4c0 2.8-2.3 5-5 5-2.8 0-5-2.2-5-5s2.2-5 5-5 5 2.2 5 5" fill="#fff"/><path d="m420.8 178.4c0 2.4 1.9 4.4 4.4 4.4 2.4 0 4.4-2 4.4-4.4s-2-4.4-4.4-4.4-4.4 2-4.4 4.4m-1.3 0c0-3.1 2.5-5.7 5.7-5.7s5.7 2.5 5.7 5.7c0 3.1-2.5 5.7-5.7 5.7-3.1 0-5.7-2.6-5.7-5.7z" fill="#004696"/><path d="m430.2 194.3c0 2.8-2.3 5-5 5-2.8 0-5-2.3-5-5 0-2.8 2.2-5 5-5s5 2.3 5 5" fill="#fff"/><path d="m420.8 194.3c0 2.4 1.9 4.4 4.4 4.4 2.4 0 4.4-2 4.4-4.4s-2-4.4-4.4-4.4c-2.4.1-4.4 2-4.4 4.4m-1.3 0c0-3.2 2.5-5.7 5.7-5.7s5.7 2.5 5.7 5.7c0 3.1-2.5 5.7-5.7 5.7-3.1 0-5.7-2.5-5.7-5.7z" fill="#004696"/><path d="m430.2 210.3c0 2.8-2.3 5-5 5-2.8 0-5-2.2-5-5s2.2-5 5-5 5 2.2 5 5" fill="#fff"/><path d="m420.8 210.3c0 2.4 1.9 4.4 4.4 4.4 2.4 0 4.4-2 4.4-4.4s-2-4.4-4.4-4.4-4.4 2-4.4 4.4m-1.3 0c0-3.1 2.5-5.7 5.7-5.7s5.7 2.5 5.7 5.7-2.5 5.7-5.7 5.7c-3.1 0-5.7-2.6-5.7-5.7z" fill="#004696"/><path d="m401.9 167.2c0 2.8-2.3 5-5 5-2.8 0-5-2.3-5-5 0-2.8 2.3-5 5-5 2.8 0 5 2.2 5 5" fill="#fff"/><path d="m392.5 167.2c0 2.4 2 4.4 4.4 4.4s4.4-2 4.4-4.4-2-4.4-4.4-4.4-4.4 2-4.4 4.4m-1.3 0c0-3.2 2.5-5.7 5.7-5.7 3.1 0 5.7 2.5 5.7 5.7 0 3.1-2.6 5.7-5.7 5.7s-5.7-2.5-5.7-5.7z" fill="#004696"/><path d="m387.9 172.4c0 2.8-2.3 5-5 5-2.8 0-5-2.2-5-5s2.2-5 5-5 5 2.2 5 5" fill="#fff"/><path d="m378.5 172.4c0 2.4 2 4.4 4.4 4.4s4.4-2 4.4-4.4-2-4.4-4.4-4.4-4.4 2-4.4 4.4m-1.3 0c0-3.2 2.5-5.7 5.7-5.7 3.1 0 5.7 2.5 5.7 5.7 0 3.1-2.6 5.7-5.7 5.7s-5.7-2.5-5.7-5.7z" fill="#004696"/><path d="m374.4 181.4c0 2.8-2.2 5-5 5s-5-2.3-5-5c0-2.8 2.3-5 5-5 2.8 0 5 2.2 5 5" fill="#fff"/><path d="m365 181.4c0 2.4 2 4.4 4.4 4.4s4.4-2 4.4-4.4-1.9-4.4-4.4-4.4c-2.4 0-4.4 2-4.4 4.4m-1.3 0c0-3.1 2.5-5.7 5.7-5.7s5.7 2.5 5.7 5.7c0 3.1-2.5 5.7-5.7 5.7-3.1 0-5.7-2.6-5.7-5.7z" fill="#004696"/><path d="m364.1 193.3c0 2.8-2.3 5-5 5-2.8 0-5-2.2-5-5s2.3-5 5-5c2.8-.1 5 2.2 5 5" fill="#fff"/><path d="m354.7 193.3c0 2.4 2 4.4 4.4 4.4s4.4-1.9 4.4-4.4c0-2.4-2-4.4-4.4-4.4s-4.4 1.9-4.4 4.4m-1.3 0c0-3.1 2.6-5.7 5.7-5.7s5.7 2.5 5.7 5.7-2.5 5.7-5.7 5.7c-3.1-.1-5.7-2.6-5.7-5.7z" fill="#004696"/><path d="m350.1 192.1c0 2.8-2.3 5-5 5-2.8 0-5-2.2-5-5s2.3-5 5-5 5 2.2 5 5" fill="#fff"/><path d="m340.6 192.1c0 2.4 2 4.4 4.4 4.4s4.4-2 4.4-4.4-2-4.4-4.4-4.4-4.4 2-4.4 4.4m-1.3 0c0-3.1 2.5-5.7 5.7-5.7 3.1 0 5.7 2.5 5.7 5.7 0 3.1-2.5 5.7-5.7 5.7-3.1 0-5.7-2.6-5.7-5.7z" fill="#004696"/><path d="m336.3 197.5c0 2.8-2.3 5-5 5-2.8 0-5-2.3-5-5 0-2.8 2.3-5 5-5s5 2.2 5 5" fill="#fff"/><path d="m326.8 197.5c0 2.4 2 4.4 4.4 4.4s4.4-2 4.4-4.4-2-4.4-4.4-4.4-4.4 2-4.4 4.4m-1.2 0c0-3.1 2.5-5.7 5.7-5.7 3.1 0 5.7 2.5 5.7 5.7 0 3.1-2.6 5.7-5.7 5.7-3.2 0-5.7-2.6-5.7-5.7z" fill="#004696"/><path d="m323.4 206.8c0 2.8-2.2 5-5 5s-5-2.2-5-5 2.3-5 5-5c2.8 0 5 2.2 5 5" fill="#fff"/><path d="m314 206.8c0 2.4 2 4.4 4.4 4.4s4.4-2 4.4-4.4-2-4.4-4.4-4.4-4.4 2-4.4 4.4m-1.3 0c0-3.1 2.5-5.7 5.7-5.7 3.1 0 5.7 2.5 5.7 5.7 0 3.1-2.5 5.7-5.7 5.7s-5.7-2.6-5.7-5.7z" fill="#004696"/><path d="m313 219.1c0 2.8-2.3 5-5 5-2.8 0-5-2.3-5-5 0-2.8 2.2-5 5-5s5 2.2 5 5" fill="#fff"/><path d="m303.6 219.1c0 2.4 1.9 4.4 4.4 4.4 2.4 0 4.4-2 4.4-4.4s-2-4.4-4.4-4.4c-2.5 0-4.4 1.9-4.4 4.4m-1.3 0c0-3.1 2.5-5.7 5.7-5.7 3.1 0 5.7 2.5 5.7 5.7 0 3.1-2.6 5.7-5.7 5.7-3.2-.1-5.7-2.6-5.7-5.7z" fill="#004696"/><path d="m306.4 232.9c0 2.8-2.3 5-5 5-2.8 0-5-2.2-5-5s2.3-5 5-5c2.8-.1 5 2.2 5 5" fill="#fff"/><path d="m297 232.9c0 2.4 2 4.4 4.4 4.4s4.4-2 4.4-4.4-2-4.4-4.4-4.4-4.4 1.9-4.4 4.4m-1.3 0c0-3.1 2.5-5.7 5.7-5.7 3.1 0 5.7 2.5 5.7 5.7 0 3.1-2.5 5.7-5.7 5.7-3.1-.1-5.7-2.6-5.7-5.7z" fill="#004696"/><path d="m302.8 248.6c0 2.8-2.2 5-5 5s-5-2.2-5-5 2.2-5 5-5 5 2.2 5 5" fill="#fff"/><path d="m293.4 248.6c0 2.4 2 4.4 4.4 4.4s4.4-1.9 4.4-4.4c0-2.4-2-4.4-4.4-4.4-2.5 0-4.4 2-4.4 4.4m-1.3 0c0-3.1 2.5-5.7 5.7-5.7 3.1 0 5.7 2.5 5.7 5.7 0 3.1-2.5 5.7-5.7 5.7s-5.7-2.6-5.7-5.7z" fill="#004696"/><path d="m402 280.9c0 2.8-2.3 5-5 5-2.8 0-5-2.3-5-5 0-2.8 2.3-5 5-5 2.8 0 5 2.2 5 5" fill="#fff"/><path d="m392.6 280.9c0 2.4 2 4.4 4.4 4.4s4.4-2 4.4-4.4-2-4.4-4.4-4.4-4.4 2-4.4 4.4m-1.3 0c0-3.1 2.5-5.7 5.7-5.7 3.1 0 5.7 2.5 5.7 5.7 0 3.1-2.6 5.7-5.7 5.7s-5.7-2.6-5.7-5.7z" fill="#004696"/><path d="m347.6 295.6c0 2.8-2.3 5-5 5-2.8 0-5-2.3-5-5 0-2.8 2.2-5 5-5s5 2.2 5 5" fill="#fff"/><path d="m338.2 295.6c0 2.4 1.9 4.4 4.4 4.4 2.4 0 4.4-2 4.4-4.4s-2-4.4-4.4-4.4-4.4 2-4.4 4.4m-1.3 0c0-3.1 2.5-5.7 5.7-5.7 3.1 0 5.7 2.5 5.7 5.7s-2.6 5.7-5.7 5.7c-3.2 0-5.7-2.6-5.7-5.7z" fill="#004696"/><path d="m357.2 207.1c0 2.8-2.3 5-5 5-2.8 0-5-2.3-5-5 0-2.8 2.3-5 5-5 2.8 0 5 2.2 5 5" fill="#fff"/><path d="m347.8 207.1c0 2.4 2 4.4 4.4 4.4s4.4-2 4.4-4.4-2-4.4-4.4-4.4-4.4 2-4.4 4.4m-1.3 0c0-3.2 2.5-5.7 5.7-5.7 3.1 0 5.7 2.5 5.7 5.7 0 3.1-2.5 5.7-5.7 5.7-3.1 0-5.7-2.6-5.7-5.7z" fill="#004696"/><path d="m353.6 222.9c0 2.8-2.3 5-5 5-2.8 0-5-2.2-5-5s2.3-5 5-5c2.7-.1 5 2.2 5 5" fill="#fff"/><path d="m344.2 222.8c0 2.4 2 4.4 4.4 4.4s4.4-1.9 4.4-4.4c0-2.4-2-4.4-4.4-4.4-2.5.1-4.4 2-4.4 4.4m-1.3 0c0-3.1 2.5-5.7 5.7-5.7 3.1 0 5.7 2.5 5.7 5.7 0 3.1-2.6 5.7-5.7 5.7-3.2 0-5.7-2.5-5.7-5.7z" fill="#004696"/><path d="m433.7 233.1c0 4.7-3.8 8.5-8.5 8.5s-8.5-3.8-8.5-8.5 3.8-8.5 8.5-8.5 8.5 3.8 8.5 8.5" fill="#fff"/><path d="m417.3 233.1c0 4.4 3.5 7.9 7.9 7.9 4.3 0 7.9-3.5 7.9-7.9 0-4.3-3.5-7.9-7.9-7.9-4.3 0-7.9 3.5-7.9 7.9m-1.3 0c0-5.1 4.1-9.2 9.2-9.2s9.2 4.1 9.2 9.2-4.1 9.2-9.2 9.2-9.2-4.1-9.2-9.2z" fill="#004696"/><path d="m366 239.5c1.2 4.6-1.6 9.2-6.1 10.4-4.6 1.2-9.2-1.6-10.4-6.1-1.2-4.6 1.6-9.2 6.1-10.4s9.2 1.5 10.4 6.1" fill="#fff"/><path d="m348.8 243.9c-.2-.8-.3-1.5-.3-2.3 0-4.1 2.7-7.8 6.9-8.9.8-.2 1.5-.3 2.3-.3 4.1 0 7.8 2.8 8.9 6.9l-.6.2-.6.2c-1-3.6-4.2-5.9-7.7-5.9-.6 0-1.3.1-2 .3-3.6.9-5.9 4.1-5.9 7.6 0 .6.1 1.3.3 2 .9 3.6 4.1 5.9 7.6 5.9.6 0 1.3-.1 2-.2 3.6-.9 5.9-4.1 5.9-7.6 0-.7-.1-1.3-.2-2l.6-.2.6-.2c.2.8.3 1.5.3 2.3 0 4.1-2.8 7.8-6.9 8.9-.8.2-1.5.3-2.3.3-4.1-.1-7.8-2.9-8.9-7" fill="#004696"/><path d="m306.9 265c2.3 4.1.8 9.3-3.4 11.6-4.1 2.3-9.3.8-11.6-3.4-2.3-4.1-.8-9.3 3.4-11.6 4.2-2.2 9.4-.7 11.6 3.4" fill="#fff"/><path d="m291.4 273.5c-.8-1.4-1.1-2.9-1.1-4.4 0-3.2 1.7-6.4 4.8-8.1 1.4-.8 2.9-1.2 4.4-1.2 3.2 0 6.3 1.7 8 4.8l-.5.3-.6.3c-1.5-2.6-4.1-4.1-6.9-4.1-1.3 0-2.6.3-3.8 1-2.6 1.4-4.1 4.1-4.1 6.9 0 1.3.3 2.6 1 3.8 1.4 2.6 4.1 4.1 6.9 4.1 1.3 0 2.6-.3 3.8-1 2.6-1.4 4.1-4.1 4.1-6.9 0-1.3-.3-2.6-1-3.8l.6-.3.5-.3c.8 1.4 1.1 2.9 1.1 4.4 0 3.2-1.7 6.4-4.7 8.1-1.4.8-2.9 1.1-4.4 1.1-3.3.1-6.4-1.6-8.1-4.7" fill="#004696"/><path d="m434.1 164.7c0 2.8 2.3 5 5 5 2.8 0 5-2.2 5-5s-2.3-5-5-5-5 2.2-5 5" fill="#fff"/><path d="m439.1 169.1c2.4 0 4.4-2 4.4-4.4s-1.9-4.4-4.4-4.4c-2.4 0-4.4 1.9-4.4 4.4.1 2.4 2 4.4 4.4 4.4m-5.6-4.4c0-3.1 2.5-5.7 5.7-5.7 3.1 0 5.7 2.5 5.7 5.7s-2.6 5.7-5.7 5.7c-3.2 0-5.7-2.5-5.7-5.7z" fill="#004696"/><path d="m448.5 167.2c0 2.8 2.2 5 5 5s5-2.3 5-5c0-2.8-2.3-5-5-5-2.8 0-5 2.2-5 5" fill="#fff"/><path d="m453.5 171.6c2.4 0 4.4-2 4.4-4.4s-2-4.4-4.4-4.4-4.4 2-4.4 4.4 2 4.4 4.4 4.4m-5.7-4.4c0-3.1 2.5-5.7 5.7-5.7 3.1 0 5.7 2.5 5.7 5.7 0 3.1-2.5 5.7-5.7 5.7-3.1 0-5.7-2.5-5.7-5.7z" fill="#004696"/><path d="m462.5 172.4c0 2.8 2.2 5 5 5s5-2.2 5-5-2.3-5-5-5c-2.8 0-5 2.2-5 5" fill="#fff"/><path d="m467.5 176.8c2.4 0 4.4-2 4.4-4.4s-2-4.4-4.4-4.4-4.4 1.9-4.4 4.4c0 2.4 2 4.4 4.4 4.4m-5.7-4.4c0-3.1 2.5-5.7 5.7-5.7 3.1 0 5.7 2.5 5.7 5.7 0 3.1-2.6 5.7-5.7 5.7s-5.7-2.5-5.7-5.7z" fill="#004696"/><path d="m476 181.4c0 2.8 2.2 5 5 5s5-2.3 5-5c0-2.8-2.3-5-5-5-2.8 0-5 2.2-5 5" fill="#fff"/><path d="m481 185.8c2.4 0 4.4-1.9 4.4-4.4 0-2.4-2-4.4-4.4-4.4s-4.4 1.9-4.4 4.4c0 2.4 2 4.4 4.4 4.4m-5.7-4.4c0-3.2 2.5-5.7 5.7-5.7 3.1 0 5.7 2.5 5.7 5.7 0 3.1-2.6 5.7-5.7 5.7s-5.7-2.6-5.7-5.7z" fill="#004696"/><path d="m486.3 193.3c0 2.8 2.3 5 5 5 2.8 0 5-2.2 5-5s-2.3-5-5-5c-2.8-.1-5 2.2-5 5" fill="#fff"/><path d="m491.3 197.7c2.4 0 4.4-2 4.4-4.4s-2-4.4-4.4-4.4-4.4 2-4.4 4.4 2 4.4 4.4 4.4m-5.7-4.4c0-3.1 2.6-5.7 5.7-5.7s5.7 2.5 5.7 5.7c0 3.1-2.5 5.7-5.7 5.7-3.1-.1-5.7-2.6-5.7-5.7z" fill="#004696"/><path d="m500.4 192.1c0 2.8 2.3 5 5 5s5-2.2 5-5-2.3-5-5-5-5 2.2-5 5" fill="#fff"/><path d="m505.4 196.5c2.4 0 4.4-2 4.4-4.4s-2-4.4-4.4-4.4-4.4 1.9-4.4 4.4c0 2.4 2 4.4 4.4 4.4m-5.7-4.4c0-3.1 2.5-5.7 5.7-5.7 3.1 0 5.7 2.5 5.7 5.7s-2.6 5.7-5.7 5.7c-3.2 0-5.7-2.6-5.7-5.7z" fill="#004696"/><path d="m514.2 197.5c0 2.8 2.2 5 5 5s5-2.3 5-5c0-2.8-2.3-5-5-5-2.8 0-5 2.2-5 5" fill="#fff"/><path d="m519.2 201.9c2.4 0 4.4-2 4.4-4.4s-2-4.4-4.4-4.4-4.4 1.9-4.4 4.4c0 2.4 1.9 4.4 4.4 4.4m-5.7-4.4c0-3.1 2.5-5.7 5.7-5.7 3.1 0 5.7 2.5 5.7 5.7 0 3.1-2.6 5.7-5.7 5.7-3.2 0-5.7-2.6-5.7-5.7z" fill="#004696"/><path d="m527 206.8c0 2.8 2.3 5 5 5 2.8 0 5-2.2 5-5s-2.2-5-5-5-5 2.2-5 5" fill="#fff"/><path d="m532 211.2c2.4 0 4.4-2 4.4-4.4s-1.9-4.4-4.4-4.4c-2.4 0-4.4 1.9-4.4 4.4 0 2.4 2 4.4 4.4 4.4m-5.7-4.4c0-3.2 2.6-5.7 5.7-5.7s5.7 2.5 5.7 5.7c0 3.1-2.5 5.6-5.7 5.6-3.1.1-5.7-2.5-5.7-5.6z" fill="#004696"/><path d="m537.4 219.1c0 2.8 2.3 5 5 5 2.8 0 5-2.3 5-5 0-2.8-2.3-5-5-5s-5 2.2-5 5" fill="#fff"/><path d="m542.5 223.5c2.4 0 4.4-2 4.4-4.4s-2-4.4-4.4-4.4-4.4 2-4.4 4.4 1.9 4.3 4.4 4.4m-5.7-4.4c0-3.1 2.6-5.7 5.7-5.7s5.7 2.5 5.7 5.7c0 3.1-2.6 5.7-5.7 5.7-3.2-.1-5.7-2.6-5.7-5.7z" fill="#004696"/><path d="m544 232.9c0 2.8 2.2 5 5 5s5-2.2 5-5-2.3-5-5-5c-2.8-.1-5 2.2-5 5" fill="#fff"/><path d="m549 237.2c2.4 0 4.4-1.9 4.4-4.4 0-2.4-2-4.4-4.4-4.4-2.5 0-4.4 2-4.4 4.4 0 2.5 2 4.4 4.4 4.4m-5.7-4.3c0-3.1 2.5-5.7 5.7-5.7 3.1 0 5.7 2.5 5.7 5.7 0 3.1-2.6 5.7-5.7 5.7-3.1-.1-5.7-2.6-5.7-5.7z" fill="#004696"/><path d="m547.6 248.6c0 2.8 2.2 5 5 5s5-2.2 5-5-2.3-5-5-5-5 2.2-5 5" fill="#fff"/><path d="m552.7 253c2.4 0 4.4-2 4.4-4.4s-2-4.4-4.4-4.4c-2.5 0-4.4 1.9-4.4 4.4 0 2.4 1.9 4.4 4.4 4.4m-5.7-4.4c0-3.1 2.5-5.7 5.7-5.7 3.1 0 5.7 2.5 5.7 5.7 0 3.1-2.6 5.7-5.7 5.7-3.2 0-5.7-2.6-5.7-5.7z" fill="#004696"/><path d="m493.2 207.1c0 2.8 2.3 5 5 5 2.8 0 5-2.3 5-5 0-2.8-2.3-5-5-5s-5 2.2-5 5" fill="#fff"/><path d="m498.2 211.5c2.4 0 4.4-2 4.4-4.4s-2-4.4-4.4-4.4-4.4 2-4.4 4.4 2 4.4 4.4 4.4m-5.7-4.4c0-3.1 2.6-5.7 5.7-5.7s5.7 2.5 5.7 5.7c0 3.1-2.6 5.7-5.7 5.7s-5.7-2.6-5.7-5.7z" fill="#004696"/><path d="m496.8 222.9c0 2.8 2.3 5 5 5 2.8 0 5-2.2 5-5s-2.3-5-5-5c-2.7-.1-5 2.2-5 5" fill="#fff"/><path d="m501.9 227.2c2.4 0 4.4-1.9 4.4-4.4 0-2.4-2-4.4-4.4-4.4s-4.4 2-4.4 4.4c0 2.5 1.9 4.4 4.4 4.4m-5.7-4.3c0-3.1 2.5-5.7 5.7-5.7 3.1 0 5.7 2.5 5.7 5.7 0 3.1-2.6 5.7-5.7 5.7-3.2-.1-5.7-2.6-5.7-5.7z" fill="#004696"/><path d="m484.5 239.5c-1.2 4.6 1.6 9.2 6.1 10.4 4.6 1.2 9.2-1.6 10.4-6.1 1.2-4.6-1.6-9.2-6.1-10.4-4.6-1.2-9.3 1.5-10.4 6.1" fill="#fff"/><path d="m484.8 241.6c0 3.5 2.3 6.7 5.9 7.6.7.2 1.3.3 2 .3 3.5 0 6.7-2.4 7.6-5.9.2-.6.2-1.3.2-2 0-3.5-2.4-6.7-5.9-7.6-.6-.2-1.3-.2-1.9-.2-3.5 0-6.8 2.3-7.6 5.9-.2.6-.3 1.3-.3 1.9m5.6 8.9c-4.2-1.1-6.9-4.8-6.9-8.9 0-.8.1-1.5.3-2.3 1-4.2 4.8-6.9 8.9-6.9.7 0 1.5.1 2.3.3 4.1 1 6.9 4.8 6.9 8.9 0 .7-.1 1.5-.3 2.3-1.1 4.1-4.8 6.9-8.9 6.9-.7 0-1.5-.1-2.3-.3z" fill="#004696"/><path d="m543.5 265c-2.3 4.1-.8 9.3 3.4 11.6 4.1 2.3 9.3.8 11.6-3.4 2.3-4.1.8-9.3-3.4-11.6-4.1-2.2-9.3-.7-11.6 3.4" fill="#fff"/><path d="m544.1 265.3c-.7 1.2-1 2.5-1 3.8 0 2.8 1.5 5.5 4.1 6.9 1.2.7 2.5 1 3.8 1 2.8 0 5.5-1.5 6.9-4.1.7-1.2 1-2.5 1-3.8 0-2.8-1.5-5.5-4.1-6.9-1.2-.7-2.5-1-3.8-1-2.9 0-5.6 1.5-6.9 4.1l-.6-.3zm2.4 11.9c-3.1-1.7-4.8-4.8-4.8-8.1 0-1.5.4-3 1.2-4.4 1.6-3.1 4.8-4.8 8-4.8 1.5 0 3 .4 4.4 1.1 3 1.7 4.7 4.8 4.7 8.1 0 1.5-.4 3-1.1 4.4-1.7 3-4.8 4.7-8.1 4.7-1.4.1-2.9-.3-4.3-1z" fill="#004696"/><path d="m425.2 285.4 15.9-5.9-15.9-5.9-15.9 5.9z" fill="#e5213f"/><path d="m411.2 279.5 14 5.2 14-5.2-13.8-5.3zm14 5.9-.2.6-15.9-5.9c-.3-.1-.4-.3-.4-.6s.2-.5.4-.6l16.3-5.9 15.9 5.9c.3.1.4.3.4.6s-.2.5-.4.6l-15.9 5.9zm-54.3 6.8 13.9-9.7-16.8-1.7-13.9 9.7z" fill="#004696"/><path d="m355.9 290 14.9 1.6 12.2-8.6-14.7-1.7zm-1.9 1.1c-.3 0-.5-.2-.6-.5s0-.5.3-.7l14.3-9.8 16.9 1.8c.3 0 .5.2.5.5.1.3 0 .5-.3.7l-13.9 9.7-.4-.5-.1.6z" fill="#004696"/><path d="m332 306.2 2.1-8.1-7.1-2.6-1.7 7z" fill="#e5213f"/><path d="m326 302.1 5.6 3.1 1.7-6.7-5.9-2.2zm6 4.1.3-.6zm-7.1-3.2-.3-.7 1.7-7 .9-.5 7.1 2.6.4.8-2.1 8.1-.9.4z" fill="#004696"/><path d="m448.4 280.9c0 2.8 2.3 5 5 5 2.8 0 5-2.3 5-5 0-2.8-2.3-5-5-5-2.8 0-5 2.2-5 5" fill="#fff"/><path d="m453.4 285.3c2.4 0 4.4-2 4.4-4.4s-2-4.4-4.4-4.4-4.4 2-4.4 4.4 2 4.4 4.4 4.4m-5.7-4.4c0-3.1 2.6-5.7 5.7-5.7s5.7 2.5 5.7 5.7c0 3.1-2.5 5.7-5.7 5.7-3.1 0-5.7-2.6-5.7-5.7z" fill="#004696"/><path d="m502.8 295.6c0 2.8 2.3 5 5 5 2.8 0 5-2.3 5-5 0-2.8-2.2-5-5-5-2.7 0-5 2.2-5 5" fill="#fff"/><path d="m507.8 300c2.4 0 4.4-2 4.4-4.4s-1.9-4.4-4.4-4.4c-2.4 0-4.4 1.9-4.4 4.4 0 2.4 2 4.4 4.4 4.4m-5.6-4.4c0-3.1 2.5-5.7 5.7-5.7 3.1 0 5.7 2.5 5.7 5.7 0 3.1-2.5 5.7-5.7 5.7-3.2-.1-5.7-2.6-5.7-5.7zm-22.7-3.4-13.9-9.7 16.8-1.7 13.9 9.7z" fill="#004696"/><path d="m467.4 283 12.3 8.6 14.9-1.6-12.1-8.6zm12.1 9.2-.4.5-13.9-9.7c-.2-.2-.3-.4-.3-.7.1-.3.3-.5.6-.5l17.3-1.7 13.9 9.7c.2.1.3.4.3.7-.1.3-.3.5-.6.5l-16.8 1.8z" fill="#004696"/><path d="m518.4 306.2-2.1-8.1 7.2-2.6 1.7 7z" fill="#e5213f"/><path d="m517.1 298.5 1.7 6.7 5.6-3.1-1.4-5.8zm1.3 7.7.6-.2zm-.6.2-2.1-8.1.4-.8 7.1-2.6.9.4 1.7 7-.3.7-6.8 3.8z" fill="#004696"/><path d="m425.2 298c113.6 0 206.1 92.7 206.1 206.3 0 113.4-92.5 206.1-206.1 206.1s-206.1-92.7-206.1-206.1c0-113.6 92.5-206.3 206.1-206.3" fill="#f8bb00"/><path d="m216 504.3c0-115.3 93.9-209.4 209.2-209.4v6c-111.9.2-202.9 91.4-203.1 203.3.2 111.8 91.2 202.9 203.1 203.1 112-.2 202.9-91.3 203.1-203.1-.2-111.9-91.2-203.1-203.1-203.3v-6c115.3 0 209.2 94.1 209.2 209.4 0 115.1-93.8 209.2-209.2 209.2-115.3 0-209.2-94-209.2-209.2" fill="#004696"/><path d="m425.2 324.2c99.1 0 180.2 80.8 180.2 180.1 0 99.1-81 180.2-180.2 180.2-99.1 0-180.2-81-180.2-180.2.1-99.3 81.1-180.1 180.2-180.1" fill="#fff"/><path d="m242 504.3c0-101 82.4-183.2 183.2-183.2v6c-97.4.2-176.9 79.5-177.1 177.1.2 97.4 79.7 176.9 177.1 177.1 97.4-.2 176.9-79.7 177.1-177.1-.2-97.6-79.7-176.9-177.1-177.1v-6c100.8 0 183.2 82.2 183.2 183.2 0 100.8-82.4 183.2-183.2 183.2s-183.2-82.4-183.2-183.2" fill="#004696"/><path d="m268.9 431.5c76.5 78 149.6 152.4 226 230.5 32.3-14.4 59.5-38.3 77.7-68.3l-232.4-239.6c-31 17.7-56.1 44.8-71.3 77.4" fill="#004696"/><path d="m425 440.7-.7-.4-19.8-20.5c6.8-1.6 14.3-2.4 19.2-2.2h.7c6.8.2 13.4 1.3 19.8 2.9zm81.7-85.7-39.4 41h-.2l-.9.9c-12.1-4.6-25.8-7.5-41-7.7h-.9c-13.9 0-29.1 2.6-41.8 7.7l-39.6-41.4c-52 29.1-87.4 84.8-87.4 148.2 0 42.5 15.6 79.5 42.1 109.2l20.3-20.7c-13-12.3-36.8-46.7-35.5-90.1 1.5-44.3 19.6-81.5 54.8-110.3l19.4 20.1c-26.9 20.3-45.8 52-46.2 87.4-.7 51.8 35 99.3 86.3 112.1v28.9h28.2v-25.6c35.7-.2 68.3-17.8 87.7-41.6l-21.3-21.6c-19.6 23.3-49.3 34.4-66.3 33.5v-22h34.6v-25.5h-34.6v-16.1h35v-23.1h-63.2v81.7c-37.7-12.6-57.9-44.7-57.3-78.2.7-30.4 15.9-54.8 37-69.6l48 49.5.7.7 46.9-49.6c11.7 7.9 20.7 18.3 26.7 30l22.7-19.6c-6.8-11.5-16.5-22.5-28.9-31.7l19.2-19.6c26.4 18.3 54.2 62.1 54.2 110.3 0 39.9-13.7 64.3-34.8 89.6l22.5 22.5c25.8-29.7 41.2-68.3 41.2-110.6-.3-63.9-35.8-119.6-88.2-148.7z" fill="#f8bb00"/><g fill="#004696"><path d="m505.2 357.7 1.5-2.7zm-144.1 54.5-2.8 2.1c-26.2 19.8-44.6 50.7-45 85.1v1.3c0 49.8 34.6 95.4 84.1 107.8l2.3.6v28.2h22.1v-25.5h3c33.6-.2 64.6-16.4 83.6-38.4l-17.1-17.3c-19.5 21.5-46.8 32-64.5 32.1h-5v-28.1h34.6v-19.5h-34.6v-22.1h35v-17h-57.1v82.9l-4-1.3c-38.3-12.7-59.4-45.3-59.4-79.5v-1.6c.7-31.4 16.4-56.8 38.3-72l2.1-1.5 48.2 49.8 46.5-49.1 2.1 1.4c10.9 7.4 19.7 16.9 25.8 27.7l17.9-15.4c-6.5-10.3-15.5-20.2-26.7-28.7l-2.8-2.1 23.4-23.9 2.1 1.5c27.3 19 55.4 63.4 55.5 112.8.1 39.5-13.4 64.6-33.7 89.4l18.2 18.2c24-28.9 38.3-65.7 38.3-106.1 0-61.9-33.9-116-84.3-144.8l-38.6 39.8h-.2l-1.4 1.4-1.8-.7c-11.8-4.5-25.1-7.3-39.9-7.5-13.7 0-28.8 2.6-41.6 7.5l-1.9.7-39.4-41.1c-49.9 28.9-83.8 83-83.8 144.4 0 40.6 14.5 76 39.2 104.8l15.9-16.2c-13.4-14-34.2-46-34.3-86.6 0-1.2 0-2.4.1-3.6 1.5-45 20.1-83.3 56-112.6l2.1-1.8zm32.5 231v-29.5c-51-13.9-86.4-61.2-86.4-113v-1.4c.4-35.3 18.6-66.9 44.7-87.7l-15.1-15.6c-33.2 28.1-50.1 63.7-51.6 106.3v3.3c-.1 40.6 22.5 72.9 34.6 84.4l2.2 2.1-24.7 25.3-2.2-2.4c-26.9-30.2-42.8-68-42.8-111.2 0-64.6 36.1-121.3 89-150.9l2-1.2 39.9 41.7c13.2-4.8 28.1-7.2 41.9-7.2 14.8.2 28.2 2.9 40.1 7.2l.4-.4h.2l38.5-40.1 1.6-1.7 2.1 1.1c53.3 29.6 89.4 86.3 89.4 151.3 0 43.1-15.7 82.3-41.9 112.6l-2.1 2.5-26.7-26.8 1.8-2.1c20.9-25.1 34-48.5 34.1-87.6.1-45.8-25.9-88-50.8-106.4l-15 15.3c11.4 9 20.4 19.5 26.9 30.4l1.3 2.2-27.6 23.8-1.8-3.4c-5.3-10.5-13.3-19.9-23.5-27.3l-47.3 50-49-50.6c-19.3 14.4-33 37.3-33.6 65.8v1.4c0 30.5 17.9 59.4 51.2 72.3v-80.4h69.3v29.2h-35v10h34.6v31.6h-34.6v16c16.2-.4 43.2-11.2 60.9-32.4l2.1-2.5 25.6 25.9-1.7 2.1c-19.4 23.8-51.5 41.5-87 42.7v25.6h-34z"/><path d="m424.9 436.3 13.4-14.1c-4.8-.9-9.7-1.4-14.8-1.6h-1.4c-3.1 0-7.3.4-11.5 1.1zm.1 4.4 2.2-2.1zm-26.4-22.7 5.3-1.2c6.3-1.4 13.1-2.3 18.3-2.3.6 0 1.2 0 1.7.1 7.3.2 14.3 1.1 21.2 3l4.9 1.3-22.7 24-2.2 2.3z"/></g></svg>