<?xml version="1.0" encoding="UTF-8"?>
<!-- Generator: visioncortex VTracer 0.6.4 -->
<svg version="1.1" xmlns="http://www.w3.org/2000/svg" width="1200" height="986">
<path d="M0 0 C3.81 3.37 7.55 6.82 11.15 10.41 C13.52 10.52 15.86 10.55 18.22 10.55 C18.98 10.55 19.73 10.56 20.5 10.56 C23.06 10.57 25.61 10.57 28.17 10.57 C30 10.57 31.84 10.58 33.67 10.59 C38.75 10.6 43.82 10.61 48.89 10.61 C54.35 10.62 59.81 10.63 65.27 10.65 C74.73 10.67 84.2 10.69 93.67 10.7 C107.36 10.73 121.05 10.75 134.73 10.78 C156.94 10.83 179.15 10.87 201.35 10.91 C222.93 10.95 244.5 11 266.08 11.04 C266.75 11.04 267.41 11.04 268.1 11.04 C275.43 11.06 282.77 11.07 290.11 11.09 C345.46 11.2 400.8 11.31 456.15 11.41 C454.38 15.21 452.17 17.64 449.19 20.62 C448.43 21.38 448.43 21.38 447.66 22.15 C445.99 23.82 444.32 25.49 442.64 27.15 C441.48 28.32 440.31 29.48 439.14 30.65 C436.7 33.09 434.25 35.53 431.8 37.97 C428.67 41.08 425.55 44.2 422.44 47.31 C420.02 49.72 417.61 52.13 415.2 54.54 C414.05 55.68 412.9 56.83 411.75 57.98 C410.13 59.59 408.51 61.21 406.89 62.82 C405.52 64.19 405.52 64.19 404.11 65.59 C402.01 67.64 399.82 69.56 397.59 71.47 C391.58 76.69 386.04 82.4 380.44 88.03 C379.17 89.3 377.9 90.57 376.63 91.84 C373.91 94.56 371.19 97.29 368.47 100.01 C364.17 104.33 359.87 108.64 355.56 112.95 C346.42 122.1 337.29 131.26 328.15 140.41 C318.29 150.3 308.42 160.18 298.55 170.06 C294.28 174.34 290 178.63 285.73 182.91 C283.07 185.58 280.41 188.25 277.74 190.92 C276.51 192.15 275.28 193.38 274.06 194.61 C268.6 200.09 263.15 205.5 257.27 210.52 C252.11 215.13 247.31 220.13 242.44 225.03 C241.17 226.3 239.9 227.57 238.63 228.84 C235.91 231.56 233.19 234.29 230.47 237.01 C226.17 241.33 221.87 245.64 217.56 249.95 C208.42 259.1 199.29 268.26 190.15 277.41 C180.29 287.3 170.42 297.18 160.55 307.06 C156.28 311.34 152 315.63 147.73 319.91 C145.07 322.58 142.41 325.25 139.74 327.92 C138.51 329.15 137.28 330.38 136.06 331.61 C125.63 342.09 125.63 342.09 121.16 345.91 C115.23 350.97 109.84 356.6 104.34 362.12 C103.07 363.4 101.79 364.68 100.51 365.96 C97.77 368.71 95.03 371.45 92.29 374.2 C87.95 378.55 83.61 382.89 79.28 387.24 C70.06 396.46 60.86 405.69 51.65 414.91 C41.71 424.88 31.77 434.84 21.82 444.79 C17.51 449.11 13.21 453.42 8.9 457.74 C6.22 460.43 3.53 463.12 0.85 465.81 C-0.39 467.05 -1.63 468.29 -2.87 469.54 C-8.36 475.06 -13.85 480.51 -19.78 485.57 C-24.68 489.93 -29.24 494.67 -33.86 499.31 C-35.06 500.51 -36.25 501.7 -37.44 502.89 C-40.66 506.11 -43.88 509.33 -47.09 512.56 C-50.46 515.93 -53.83 519.3 -57.2 522.67 C-63.58 529.05 -69.95 535.43 -76.32 541.81 C-83.57 549.07 -90.83 556.34 -98.09 563.6 C-113.01 578.54 -127.93 593.47 -142.85 608.41 C-146.7 606.83 -149.14 604.37 -152.06 601.44 C-152.57 600.92 -153.08 600.41 -153.61 599.89 C-155.33 598.17 -157.03 596.45 -158.74 594.73 C-159.97 593.5 -161.2 592.27 -162.43 591.04 C-165.08 588.39 -167.72 585.74 -170.36 583.08 C-174.54 578.88 -178.73 574.68 -182.92 570.48 C-189.55 563.84 -196.18 557.19 -202.8 550.55 C-214.65 538.65 -226.5 526.77 -238.36 514.89 C-242.52 510.72 -246.68 506.55 -250.83 502.38 C-253.42 499.78 -256.02 497.17 -258.61 494.57 C-259.81 493.37 -261 492.17 -262.2 490.97 C-269.33 483.75 -269.33 483.75 -276.83 476.93 C-282.72 471.89 -288.1 466.29 -293.56 460.79 C-294.83 459.52 -296.1 458.25 -297.37 456.98 C-300.09 454.26 -302.81 451.54 -305.53 448.81 C-309.83 444.5 -314.13 440.18 -318.44 435.87 C-328.35 425.95 -338.27 416.01 -348.18 406.08 C-357.27 396.97 -366.35 387.86 -375.45 378.76 C-379.72 374.48 -384 370.2 -388.27 365.91 C-390.93 363.24 -393.59 360.58 -396.26 357.91 C-397.49 356.68 -398.72 355.44 -399.94 354.21 C-407.2 346.86 -407.2 346.86 -414.84 339.92 C-420.77 334.86 -426.16 329.22 -431.66 323.7 C-432.93 322.42 -434.21 321.14 -435.49 319.86 C-438.23 317.12 -440.97 314.37 -443.71 311.63 C-448.05 307.28 -452.39 302.93 -456.72 298.59 C-466.72 288.58 -476.71 278.57 -486.7 268.56 C-495.85 259.38 -505.01 250.2 -514.18 241.03 C-518.49 236.72 -522.79 232.4 -527.1 228.08 C-529.78 225.39 -532.47 222.7 -535.15 220.01 C-536.39 218.77 -537.63 217.53 -538.87 216.29 C-544.35 210.78 -549.83 205.35 -555.74 200.3 C-560.89 195.7 -565.69 190.69 -570.56 185.79 C-571.83 184.52 -573.1 183.25 -574.37 181.98 C-577.09 179.26 -579.81 176.54 -582.53 173.81 C-586.83 169.5 -591.13 165.18 -595.44 160.87 C-605.35 150.95 -615.27 141.01 -625.18 131.08 C-634.27 121.97 -643.35 112.86 -652.45 103.76 C-656.72 99.48 -661 95.2 -665.27 90.91 C-667.93 88.24 -670.59 85.58 -673.26 82.91 C-674.49 81.68 -675.72 80.44 -676.94 79.21 C-682.55 73.58 -688.14 68.01 -694.19 62.85 C-696.62 60.75 -698.89 58.51 -701.16 56.24 C-701.63 55.78 -702.1 55.31 -702.59 54.83 C-704.1 53.32 -705.62 51.81 -707.13 50.3 C-708.2 49.24 -709.26 48.18 -710.32 47.11 C-712.54 44.91 -714.75 42.7 -716.96 40.49 C-719.8 37.65 -722.64 34.82 -725.49 31.99 C-727.68 29.81 -729.87 27.62 -732.06 25.43 C-733.1 24.39 -734.15 23.34 -735.2 22.3 C-736.66 20.85 -738.12 19.39 -739.57 17.93 C-740.4 17.11 -741.23 16.28 -742.08 15.43 C-743.85 13.41 -743.85 13.41 -743.85 11.41 C-742.91 11.41 -741.97 11.41 -741.01 11.42 C-685.42 11.49 -629.83 11.52 -574.24 11.49 C-567.56 11.49 -560.89 11.48 -554.22 11.48 C-553.22 11.48 -553.22 11.48 -552.21 11.48 C-530.69 11.47 -509.17 11.49 -487.65 11.52 C-464.9 11.56 -442.16 11.56 -419.42 11.53 C-405.79 11.51 -392.17 11.52 -378.54 11.56 C-369.2 11.59 -359.86 11.58 -350.53 11.55 C-345.13 11.53 -339.74 11.53 -334.35 11.56 C-329.42 11.59 -324.48 11.59 -319.55 11.54 C-317.76 11.54 -315.98 11.54 -314.19 11.57 C-304.59 11.89 -304.59 11.89 -295.88 8.45 C-293.64 6.22 -291.77 3.92 -289.85 1.41 C-287.33 -0.84 -284.67 -2.87 -281.97 -4.9 C-281.25 -5.45 -280.52 -6 -279.77 -6.56 C-247.62 -30.43 -210.62 -45.72 -170.85 -50.59 C-170.12 -50.68 -169.4 -50.78 -168.65 -50.87 C-108.74 -57.87 -45.83 -39.36 0 0 Z " fill="#DD9501" transform="translate(743.84912109375,377.587890625)"/>
<path d="M0 0 C3.96 0 7.92 0 12 0 C12 2.64 12 5.28 12 8 C15.63 8 19.26 8 23 8 C23 12.29 23 16.58 23 21 C19.37 21 15.74 21 12 21 C12 21.99 12 22.98 12 24 C12.89 24.25 13.77 24.5 14.69 24.75 C20.27 26.86 23.24 29.91 26.2 34.93 C27.34 37.88 27.63 40.87 28 44 C29.44 44.13 29.44 44.13 30.91 44.26 C77.03 48.82 123.66 66.82 153.88 103.26 C155 105 155 105 155 107 C155.55 107.04 156.09 107.08 156.66 107.12 C185.47 109.3 210.09 116.52 233 135 C233.78 135.61 234.56 136.23 235.36 136.86 C252.37 150.99 264.86 172.75 267.75 194.73 C269.83 221.89 263.09 244.18 245.41 265.29 C235.62 276.33 235.62 276.33 230.76 279.43 C228.28 281.64 228.4 283.36 228.12 286.62 C227.03 294.47 223.83 300.11 217.5 304.94 C212.44 308.39 207.29 309.26 201.25 309.19 C200.12 309.18 198.99 309.17 197.83 309.17 C195 309 195 309 193 308 C192.81 308.7 192.63 309.4 192.44 310.12 C188.7 317.61 181.56 320.42 174 323 C173.01 323.33 172.02 323.66 171 324 C171.66 324.64 172.32 325.28 173 325.94 C175.67 330.02 175.99 333.24 175 338 C173.27 341.07 171.2 343.4 168 345 C165.33 345.13 162.68 345.04 160 345 C159.78 345.51 159.55 346.02 159.32 346.55 C157.46 350 155.17 353.08 152.88 356.25 C152.41 356.9 151.94 357.55 151.46 358.22 C150.31 359.81 149.15 361.41 148 363 C143.7 361.51 140.25 359.22 136.56 356.62 C107.66 336.93 74.58 324.14 40 319 C39.25 318.88 38.51 318.77 37.74 318.65 C-20.42 309.98 -82.64 325.81 -130.06 360.31 C-130.78 360.87 -131.49 361.42 -132.22 361.99 C-133.1 362.49 -133.1 362.49 -134 363 C-137.28 361.91 -137.75 361.36 -139.7 358.69 C-140.19 358.03 -140.67 357.36 -141.17 356.68 C-141.67 355.98 -142.17 355.28 -142.69 354.56 C-143.2 353.87 -143.71 353.17 -144.24 352.46 C-148 347.27 -148 347.27 -148 345 C-149.2 345.1 -150.39 345.21 -151.62 345.31 C-155.04 345.33 -156.8 344.81 -159.44 342.62 C-163.19 338.78 -163.33 336.45 -163.3 331.27 C-162.87 328 -161.32 326.25 -159 324 C-159.76 323.8 -160.52 323.61 -161.31 323.41 C-168.97 321.19 -174.85 318.26 -180 312 C-180.74 309.75 -180.74 309.75 -181 308 C-181.66 308.33 -182.32 308.66 -183 309 C-193.16 309.89 -199.83 308.38 -208.25 302.88 C-212.94 297.97 -216.21 292.47 -216.06 285.56 C-216.3 281.51 -217.95 279.68 -220.9 276.96 C-223.06 275.07 -225.25 273.21 -227.44 271.36 C-243.13 257.66 -254.71 235.81 -256.14 214.95 C-257.36 186.56 -248.24 163.59 -229.27 142.39 C-209.25 120.98 -178.91 108.76 -149.94 107.62 C-148.67 107.6 -147.4 107.57 -146.09 107.54 C-145.07 107.36 -144.05 107.18 -143 107 C-141.65 105.22 -141.65 105.22 -141 103 C-138.84 100.18 -136.41 97.61 -134 95 C-133.29 94.22 -132.58 93.45 -131.84 92.64 C-102.83 62.22 -57.09 46.93 -16 44 C-15.9 43.38 -15.8 42.76 -15.69 42.12 C-14.58 35.71 -12.58 30.61 -7.19 26.68 C-2.69 24 -2.69 24 0 24 C0 23.01 0 22.02 0 21 C-3.63 21 -7.26 21 -11 21 C-11 16.71 -11 12.42 -11 8 C-7.37 8 -3.74 8 0 8 C0 5.36 0 2.72 0 0 Z M20 72 C20 93.12 20 114.24 20 136 C35.35 137.49 35.35 137.49 51 139 C82.67 144.2 112.32 153.54 140.35 169.21 C142 170.14 142 170.14 144 170 C147.32 155.22 143.67 140.8 136 128 C133.84 124.84 131.49 121.91 129 119 C128.42 118.27 127.83 117.55 127.23 116.8 C105.08 90.17 66.28 77.25 33 73 C28.71 72.67 24.42 72.34 20 72 Z M-113 114 C-124.82 126.67 -133.17 141.36 -133.12 159.06 C-133.13 160.06 -133.13 161.07 -133.13 162.1 C-133.01 164.84 -132.62 167.33 -132 170 C-128.62 168.7 -125.41 167.24 -122.2 165.57 C-86.01 147.16 -48.36 139.1 -8 136 C-8 114.88 -8 93.76 -8 72 C-45.11 72 -86.35 88.33 -113 114 Z M171 137 C171.16 138.24 171.32 139.47 171.48 140.75 C172.11 146.5 172.27 152.22 172.31 158 C172.33 159.1 172.35 160.2 172.36 161.34 C172.36 168.24 171.37 173.67 169.06 180.12 C168.1 183.09 167.94 184.74 168 188 C171.11 193.42 176.3 197.27 181.02 201.24 C196.95 215.41 204.74 236.93 210 257 C217.47 255.75 222.87 248.47 227.19 242.75 C235.45 230.8 241.86 216.87 240 202 C237.29 187.28 232.05 175.29 222 164 C221.41 163.31 220.81 162.63 220.2 161.92 C207.32 147.96 189.13 140.96 171 137 Z M-205 159 C-205.68 159.59 -206.36 160.18 -207.06 160.79 C-219.83 172.53 -227.51 189.35 -228.38 206.62 C-227.88 224.98 -218.74 240.28 -205.98 253.02 C-202.52 256.25 -202.52 256.25 -198 257 C-197.66 255.74 -197.32 254.48 -196.97 253.19 C-191.3 232.89 -182.56 216.15 -168.31 200.56 C-167.63 199.81 -167.63 199.81 -166.93 199.03 C-164.94 196.89 -163 195 -160.61 193.3 C-158.3 191.62 -157.11 190.65 -156 188 C-156.47 184.68 -157.25 181.67 -158.21 178.46 C-160.15 171.6 -160.38 165.11 -160.31 158 C-160.3 156.95 -160.3 155.9 -160.29 154.82 C-160.19 148.82 -159.76 142.95 -159 137 C-175.05 137 -193.65 148.63 -205 159 Z " fill="#DE9400" transform="translate(594,0)"/>
<path d="M0 0 C3.47 -0.08 6.93 -0.17 10.5 -0.25 C11.58 -0.29 12.65 -0.32 13.76 -0.36 C21.47 -0.45 26.52 1.07 32.43 6.04 C33.36 7.1 33.36 7.1 34.31 8.19 C34.95 8.88 35.58 9.58 36.24 10.29 C44.26 22.62 41 35.22 41 50 C61.13 50 81.26 50 102 50 C100.82 41.01 100.82 41.01 96 35 C93.4 33.73 90.78 32.8 88 32 C87.36 31.81 86.72 31.63 86.06 31.43 C77.89 29.72 66.52 30.3 58.98 33.99 C57.2 35.14 57.2 35.14 55 37 C54.01 37.5 54.01 37.5 53 38 C52.77 33.94 52.63 29.88 52.5 25.81 C52.43 24.66 52.37 23.51 52.3 22.33 C52.1 13.98 52.1 13.98 54.71 11.13 C56.77 9.82 58.72 8.86 61 8 C61.99 7.59 62.98 7.18 64 6.75 C80.05 2.74 97.02 3.89 111.42 12.2 C120.23 18.34 125.91 27.54 128 38 C128.05 40.08 128.06 42.16 128.05 44.23 C128.04 45.31 128.03 46.39 128.03 47.51 C128.01 48.74 128.01 48.74 128 50 C129.64 49.95 129.64 49.95 131.31 49.89 C135.42 49.76 139.52 49.68 143.63 49.62 C145.4 49.58 147.17 49.53 148.93 49.47 C160.11 49.1 168.19 49.22 177 57 C177.82 57.71 178.64 58.42 179.49 59.15 C191.15 69.63 199.34 86.55 202 102 C202 104.97 202 107.94 202 111 C207.94 111 213.88 111 220 111 C220 118.59 220 126.18 220 134 C213.4 134 206.8 134 200 134 C200.1 135.51 200.21 137.01 200.31 138.56 C200.28 151.81 194.22 163.78 185.06 173.12 C184.38 173.74 183.7 174.36 183 175 C183.7 175.47 184.4 175.95 185.12 176.44 C196.3 186.4 200.22 201.67 202 216 C202 218.64 202 221.28 202 224 C207.94 224 213.88 224 220 224 C220 231.59 220 239.18 220 247 C213.4 247 206.8 247 200 247 C200 249.31 200 251.62 200 254 C197.41 271.76 187.13 286.35 173 297 C170.1 298.68 168.04 299.25 164.69 299.23 C163.85 299.23 163.01 299.23 162.14 299.23 C161.25 299.22 160.35 299.21 159.42 299.2 C158.5 299.19 157.57 299.19 156.61 299.19 C153.66 299.18 150.7 299.15 147.75 299.12 C145.74 299.11 143.74 299.11 141.73 299.1 C136.82 299.08 131.91 299.04 127 299 C126.96 299.93 126.92 300.85 126.87 301.8 C126.2 313.81 123.68 324.42 114.96 333.33 C103.92 342.74 90.43 346.32 76.09 345.24 C67.57 344.26 59.67 341.84 52 338 C52 329.09 52 320.18 52 311 C54.64 312.65 57.28 314.3 60 316 C69.43 319.43 81.55 319.26 91 316 C95.17 313.99 97.14 312.3 98.81 308.06 C99.8 305.04 100.37 302.15 101 299 C81.2 299 61.4 299 41 299 C41 305.6 41 312.2 41 319 C37.89 327.7 34.17 333.45 26 338 C20.22 340.67 14.35 340.22 8.12 340.12 C4.45 340.08 0.78 340.04 -3 340 C-3 330.43 -3 320.86 -3 311 C0.96 310.67 4.92 310.34 9 310 C11.64 307.36 10.63 302.71 11 299 C-19.03 299 -49.06 299 -80 299 C-80 290.75 -80 282.5 -80 274 C-73.4 274 -66.8 274 -60 274 C-60 264.43 -60 254.86 -60 245 C-66.6 245 -73.2 245 -80 245 C-80 236.42 -80 227.84 -80 219 C-73.4 219 -66.8 219 -60 219 C-60 210.09 -60 201.18 -60 192 C-66.6 192 -73.2 192 -80 192 C-80 182.1 -80 172.2 -80 162 C-73.4 162 -66.8 162 -60 162 C-60 153.09 -60 144.18 -60 135 C-66.6 135 -73.2 135 -80 135 C-80 126.42 -80 117.84 -80 109 C-73.4 109 -66.8 109 -60 109 C-60 99.1 -60 89.2 -60 79 C-66.6 79 -73.2 79 -80 79 C-80 69.43 -80 59.86 -80 50 C-49.64 50 -19.28 50 12 50 C13.19 39.02 13.19 39.02 10 30 C6.7 29.67 3.4 29.34 0 29 C0 19.43 0 9.86 0 0 Z " fill="#02954D" transform="translate(543,376)"/>
<path d="M0 0 C0.83 0.26 1.66 0.53 2.52 0.8 C34.22 10.86 61.01 27.11 85 50 C85.85 50.8 86.7 51.6 87.58 52.42 C94.47 59.06 100.31 66.34 106 74 C106.4 74.54 106.8 75.08 107.22 75.64 C125.33 100.32 137.58 128.89 143 159 C143.22 160.21 143.22 160.21 143.45 161.45 C147.2 182.44 148.01 204.99 144 226 C143.85 226.79 143.7 227.59 143.54 228.4 C132.72 283.77 102.81 331.86 55.93 363.73 C30.88 380.29 3.04 391.31 -26.73 395.66 C-28.38 395.91 -30.02 396.2 -31.65 396.53 C-36.12 397.16 -40.51 397.18 -45.02 397.2 C-45.99 397.21 -46.96 397.21 -47.95 397.22 C-50.01 397.23 -52.06 397.24 -54.12 397.24 C-57.2 397.25 -60.28 397.28 -63.36 397.31 C-80.97 397.41 -97.11 395.04 -114 390 C-115.18 389.65 -116.35 389.31 -117.56 388.95 C-149.6 378.9 -176.72 360.86 -201 338 C-201.66 337.38 -202.32 336.77 -203 336.13 C-229.34 310.7 -248.86 273.38 -255.53 237.52 C-255.86 235.76 -256.2 234 -256.55 232.24 C-266.84 180.38 -255.43 126.9 -226.56 82.74 C-219.34 72.02 -210.91 62.33 -202 53 C-201.13 52.07 -200.25 51.15 -199.36 50.2 C-169.72 19.56 -129.62 1.09 -88 -6 C-86.74 -6.23 -85.47 -6.45 -84.17 -6.69 C-56.79 -10.89 -26.32 -8.67 0 0 Z M-114 21 C-114 30.57 -114 40.14 -114 50 C-110.7 50.33 -107.4 50.66 -104 51 C-99.26 55.74 -102.35 64.31 -102 71 C-132.36 71 -162.72 71 -194 71 C-194 80.57 -194 90.14 -194 100 C-187.4 100 -180.8 100 -174 100 C-174 109.9 -174 119.8 -174 130 C-180.6 130 -187.2 130 -194 130 C-194 138.58 -194 147.16 -194 156 C-187.4 156 -180.8 156 -174 156 C-174 164.91 -174 173.82 -174 183 C-180.6 183 -187.2 183 -194 183 C-194 192.9 -194 202.8 -194 213 C-187.4 213 -180.8 213 -174 213 C-174 221.91 -174 230.82 -174 240 C-180.6 240 -187.2 240 -194 240 C-194 248.58 -194 257.16 -194 266 C-187.4 266 -180.8 266 -174 266 C-174 275.57 -174 285.14 -174 295 C-180.6 295 -187.2 295 -194 295 C-194 303.25 -194 311.5 -194 320 C-163.97 320 -133.94 320 -103 320 C-104 330 -104 330 -105 331 C-108.96 331.33 -112.92 331.66 -117 332 C-117 341.57 -117 351.14 -117 361 C-113.39 361.08 -109.78 361.16 -106.06 361.25 C-104.94 361.29 -103.82 361.32 -102.67 361.36 C-94.35 361.45 -86.68 359.57 -80.42 353.69 C-71.51 343.07 -73 334.65 -73 320 C-53.2 320 -33.4 320 -13 320 C-16.45 332.64 -16.45 332.64 -21 336 C-30.12 340.68 -41.65 339.65 -51.45 337.93 C-55.24 336.55 -58.58 334.14 -62 332 C-62 340.91 -62 349.82 -62 359 C-47.73 366.14 -31.49 368.92 -16.06 363.88 C-3.56 359.17 4.19 352.51 9.88 340.31 C11.66 335.67 12.36 331.56 12.63 326.61 C12.74 324.74 12.74 324.74 12.86 322.84 C12.9 321.9 12.95 320.97 13 320 C14.23 320.03 15.45 320.06 16.71 320.1 C21.29 320.2 25.87 320.27 30.45 320.33 C32.43 320.36 34.4 320.4 36.38 320.45 C50.31 321.35 50.31 321.35 62.43 315.61 C63.21 314.81 63.21 314.81 64 314 C64.93 313.22 65.86 312.45 66.82 311.65 C72.86 305.69 77.15 299.55 81 292 C81.34 291.35 81.68 290.7 82.02 290.04 C85.39 282.96 86 275.73 86 268 C92.6 268 99.2 268 106 268 C106 260.41 106 252.82 106 245 C100.06 245 94.12 245 88 245 C87.91 241.53 87.91 241.53 87.81 238 C87 221.59 80.91 206.48 69 195 C70.55 193.82 70.55 193.82 72.12 192.62 C80.62 185.26 85.42 173.85 86.24 162.73 C86.25 160.15 86.14 157.57 86 155 C92.6 155 99.2 155 106 155 C106 147.41 106 139.82 106 132 C100.06 132 94.12 132 88 132 C88 129.03 88 126.06 88 123 C83.65 102.55 73.64 84.81 56 73.21 C51.81 70.68 48.28 70.87 43.49 70.9 C42.23 70.9 42.23 70.9 40.94 70.91 C38.25 70.91 35.56 70.92 32.88 70.94 C31.05 70.94 29.23 70.95 27.41 70.95 C22.94 70.96 18.47 70.98 14 71 C14.02 70.21 14.04 69.41 14.05 68.59 C14.2 57.44 12.29 48.65 4.92 39.96 C-4.29 30.53 -15.01 26.05 -28.09 25.77 C-39.68 25.69 -50.15 26.28 -60 33 C-61.27 34.05 -61.27 34.05 -61.11 36.41 C-61.11 37.45 -61.1 38.49 -61.1 39.57 C-61.09 40.69 -61.09 41.82 -61.09 42.97 C-61.08 44.16 -61.07 45.34 -61.06 46.56 C-61.06 48.34 -61.06 48.34 -61.05 50.16 C-61.04 53.11 -61.02 56.05 -61 59 C-60.49 58.65 -59.98 58.31 -59.45 57.95 C-50.05 51.79 -38.32 50.37 -27.27 52.54 C-21.66 54.05 -17.23 55.88 -13.75 60.75 C-12.65 64.04 -12.43 67.56 -12 71 C-32.13 71 -52.26 71 -73 71 C-73 61.76 -73 52.52 -73 43 C-75.85 34.97 -75.85 34.97 -80.25 28.62 C-81.03 27.72 -81.03 27.72 -81.83 26.79 C-88.69 21.14 -94.79 20.46 -103.5 20.75 C-106.97 20.83 -110.43 20.92 -114 21 Z " fill="#FDFEFD" transform="translate(657,355)"/>
<path d="M0 0 C28.05 0 56.1 0 85 0 C86.88 30.68 88.42 61.3 89.29 92.02 C89.39 95.7 89.5 99.37 89.61 103.05 C89.64 103.78 89.66 104.51 89.68 105.27 C90 115.48 90.51 125.66 91.19 135.86 C92.37 153.46 93.14 171.03 93.2 188.67 C93.21 189.36 93.21 190.05 93.21 190.76 C93.34 231.32 84.6 260.47 56.08 289.55 C39.27 306.41 20.83 322.8 1 336 C0.67 336 0.34 336 0 336 C-0.16 320.25 -0.29 304.49 -0.36 288.74 C-0.4 281.42 -0.45 274.11 -0.53 266.79 C-0.6 260.4 -0.64 254.01 -0.66 247.62 C-0.67 244.25 -0.69 240.87 -0.74 237.5 C-0.97 220.74 0.7 206.56 6.16 190.69 C11.25 174.46 11.38 157.59 11.44 140.75 C11.44 139.83 11.45 138.91 11.46 137.96 C11.53 119.84 9.46 102.33 5 84.75 C4.75 83.73 4.5 82.71 4.25 81.65 C3.01 76.33 3.01 76.33 1.24 71.17 C-1.64 63.91 -1.29 56.82 -1.07 49.12 C-1.05 47.87 -1.03 46.62 -1.01 45.34 C-0.92 40.7 -0.8 36.07 -0.69 31.44 C-0.46 21.06 -0.23 10.69 0 0 Z " fill="#02954C" transform="translate(811,410)"/>
<path d="M0 0 C28.05 0 56.1 0 85 0 C85.25 10.68 85.5 21.37 85.75 32.38 C85.84 35.73 85.93 39.08 86.02 42.54 C86.07 45.22 86.12 47.9 86.17 50.59 C86.2 51.61 86.2 51.61 86.24 52.66 C86.5 61.34 85.81 68.11 82 76 C80.78 79.96 79.83 83.97 78.88 88 C78.62 89 78.37 89.99 78.11 91.02 C74.48 106.13 73.68 121.25 73.79 136.73 C73.81 139.33 73.81 141.92 73.81 144.52 C73.84 156.8 74.07 168.95 76.69 181 C76.85 181.75 77.01 182.51 77.17 183.28 C78.1 187.45 79.12 191.51 80.52 195.54 C85.71 210.75 85.78 225.23 85.59 241.18 C85.57 243.93 85.57 246.68 85.56 249.43 C85.54 255.86 85.49 262.3 85.43 268.74 C85.36 276.08 85.33 283.43 85.3 290.77 C85.24 305.85 85.13 320.93 85 336 C84.59 335.63 84.17 335.27 83.75 334.89 C80.03 331.65 76.23 328.64 72.23 325.76 C40.75 303.04 2.5 273.84 -4.92 233.64 C-7.19 218.91 -7.67 204.14 -7.62 189.26 C-7.62 188.57 -7.61 187.88 -7.61 187.17 C-7.54 169.47 -6.71 151.82 -5.62 134.15 C-4.99 123.89 -4.57 113.65 -4.28 103.38 C-4.25 102.28 -4.25 102.28 -4.22 101.16 C-4.12 97.49 -4.02 93.81 -3.93 90.13 C-3.13 60.05 -1.7 30.05 0 0 Z " fill="#02954C" transform="translate(304,410)"/>
<path d="M0 0 C27.72 0 55.44 0 84 0 C86.87 41.51 86.87 41.51 87.46 56.66 C87.51 58.06 87.51 58.06 87.56 59.49 C87.83 66.41 88.05 73.33 88.25 80.25 C88.28 81.23 88.31 82.2 88.34 83.21 C90.87 171.2 90.87 171.2 64.68 200.2 C60.23 204.84 55.47 209.05 50.5 213.12 C49.3 214.11 49.3 214.11 48.09 215.11 C39.53 222.02 30.66 228.2 21.2 233.8 C16.29 236.72 12.05 239.99 8 244 C6.87 245.1 6.87 245.1 5.72 246.21 C4.9 247.07 4.9 247.07 4.06 247.94 C3.06 248.98 2.04 250 1 251 C0.67 251 0.34 251 0 251 C0 168.17 0 85.34 0 0 Z " fill="#FEFEFE" transform="translate(896,410)"/>
<path d="M0 0 C27.72 0 55.44 0 84 0 C84 82.83 84 165.66 84 251 C79.22 246.9 74.85 242.92 70.5 238.44 C69.68 237.64 68.85 236.83 68 236 C67.25 235.26 67.25 235.26 66.49 234.51 C62.49 230.76 58.41 228 53.58 225.38 C45 220.69 37.15 215.22 29.5 209.12 C28.8 208.57 28.1 208.01 27.37 207.43 C9.42 192.73 -0.25 175.18 -2.57 152.23 C-4.7 128.48 -4.37 104.57 -3.75 80.75 C-3.72 79.77 -3.7 78.78 -3.67 77.77 C-3.49 70.87 -3.28 63.97 -3.05 57.07 C-3.02 56.2 -2.99 55.33 -2.96 54.43 C-2.32 36.26 -1.1 18.15 0 0 Z " fill="#FEFEFE" transform="translate(220,410)"/>
<path d="M0 0 C2.25 0.14 4.5 0.29 6.75 0.44 C8.63 0.56 8.63 0.56 10.55 0.68 C13.2 0.93 15.46 1.28 18 2 C19.37 2.09 20.75 2.14 22.13 2.15 C22.94 2.15 23.74 2.16 24.57 2.16 C25.87 2.17 25.87 2.17 27.2 2.17 C28.11 2.17 29.02 2.17 29.95 2.18 C31.88 2.18 33.81 2.19 35.74 2.19 C38.63 2.19 41.52 2.21 44.42 2.22 C54.57 2.25 64.42 1.85 74.48 0.43 C77.7 0.04 80.76 -0.03 84 0 C84.19 18.77 84.33 37.53 84.41 56.3 C84.46 65.02 84.51 73.73 84.6 82.45 C84.68 90.04 84.73 97.64 84.75 105.24 C84.76 109.26 84.79 113.28 84.85 117.3 C84.9 121.09 84.92 124.88 84.9 128.67 C84.91 130.05 84.92 131.44 84.95 132.83 C85.17 143.26 85.17 143.26 82.29 147.54 C80.29 149.57 78.27 151.29 76 153 C74.77 154.06 73.54 155.12 72.31 156.19 C71.65 156.76 71 157.33 70.32 157.91 C65.01 162.7 60.04 167.86 55 172.94 C53.83 174.11 52.66 175.28 51.5 176.46 C48.66 179.3 45.83 182.15 43 185 C40.05 183.67 37.99 182.23 35.72 179.93 C35.1 179.31 34.48 178.69 33.85 178.05 C32.86 177.04 32.86 177.04 31.86 176.02 C31.17 175.32 30.48 174.63 29.77 173.91 C27.57 171.7 25.38 169.47 23.19 167.25 C21.01 165.04 18.82 162.83 16.64 160.63 C15.28 159.26 13.92 157.88 12.57 156.51 C11.94 155.87 11.31 155.24 10.67 154.59 C9.86 153.76 9.86 153.76 9.03 152.92 C7.15 151.01 7.15 151.01 5.24 149.93 C1.92 147.72 0.25 146.12 -0.63 142.14 C-0.86 138.42 -0.87 134.73 -0.79 131.01 C-0.79 129.58 -0.79 128.15 -0.8 126.72 C-0.8 122.85 -0.76 118.98 -0.71 115.11 C-0.67 111.06 -0.66 107.02 -0.65 102.97 C-0.63 95.31 -0.57 87.65 -0.5 79.99 C-0.43 71.26 -0.39 62.54 -0.35 53.82 C-0.28 35.88 -0.16 17.94 0 0 Z " fill="#FEFEFE" transform="translate(558,770)"/>
<path d="M0 0 C28.05 0 56.1 0 85 0 C85.31 13.72 85.62 27.43 85.94 41.56 C86.07 45.86 86.21 50.16 86.35 54.6 C86.42 59.92 86.42 59.92 86.43 62.43 C86.45 64.15 86.51 65.87 86.58 67.59 C86.93 75.67 87.18 82.82 81.84 89.33 C78.18 93.24 74.17 96.65 70 100 C68.64 101.18 67.29 102.37 65.94 103.56 C65.34 104.07 64.74 104.58 64.12 105.1 C59.17 109.53 54.57 114.33 49.89 119.04 C47.88 121.06 45.86 123.08 43.85 125.1 C39.58 129.38 35.32 133.66 31.06 137.94 C26.1 142.92 21.14 147.91 16.17 152.89 C14.18 154.88 12.19 156.88 10.21 158.88 C9 160.09 7.79 161.3 6.59 162.51 C6.03 163.07 5.48 163.63 4.91 164.21 C3.62 165.49 2.31 166.75 1 168 C0.67 168 0.34 168 0 168 C0 112.56 0 57.12 0 0 Z " fill="#03954C" transform="translate(980,410)"/>
<path d="M0 0 C28.05 0 56.1 0 85 0 C85 55.44 85 110.88 85 168 C80.32 163.99 75.87 160.01 71.55 155.65 C70.95 155.04 70.34 154.44 69.72 153.82 C68.43 152.52 67.13 151.21 65.84 149.91 C63.78 147.84 61.72 145.78 59.67 143.72 C54.56 138.59 49.45 133.46 44.35 128.34 C40.02 123.99 35.7 119.65 31.37 115.32 C29.36 113.3 27.34 111.27 25.33 109.24 C18.11 101.96 18.11 101.96 10.54 95.05 C9.95 94.52 9.35 93.99 8.74 93.45 C7.01 91.95 7.01 91.95 4.99 90.71 C1.19 87.9 0.13 85.83 -0.59 81.1 C-0.91 75.97 -0.79 70.85 -0.68 65.72 C-0.67 64.04 -0.67 62.36 -0.66 60.68 C-0.63 54.47 -0.53 48.27 -0.44 42.06 C-0.29 28.18 -0.15 14.3 0 0 Z " fill="#03954C" transform="translate(135,410)"/>
<path d="M0 0 C2.05 -0.01 4.1 -0.02 6.15 -0.03 C7.29 -0.04 8.43 -0.04 9.6 -0.05 C48.33 0.49 90.98 13.87 124 34 C123.43 39.18 121.77 43.17 119.44 47.75 C119.08 48.45 118.73 49.16 118.36 49.88 C115.24 55.87 111.54 61 107 66 C106.4 66.72 105.8 67.45 105.19 68.2 C103.54 70.07 102.07 71.61 100 73 C96.75 72.94 96.75 72.94 93 72 C84.87 71.14 78.77 72.29 72 77 C66.99 81.45 63.45 86.82 62.72 93.61 C62.42 102.74 64.79 110.19 71 117 C72.94 118.55 74.85 119.75 77 121 C74.34 126.17 70.73 129.45 65.69 132.31 C58.94 134.04 53.25 133.34 47.01 130.27 C42.81 127.61 39.77 123.66 38 119 C38 118.01 38 117.02 38 116 C38.66 115.42 39.32 114.84 40 114.25 C42.32 112.06 42.32 112.06 42.5 108.5 C42.24 105.03 42.24 105.03 40.5 102.56 C37.47 100.67 35.44 100.36 31.91 100.55 C29.72 100.92 29.72 100.92 27.44 103.06 C25.57 106.87 26.04 108.93 27 113 C27.27 113.7 27.54 114.4 27.81 115.12 C28 117 28 117 26.56 119.5 C21.58 124.36 16.99 126.24 10 126.56 C2.73 126.31 -1.47 123.67 -6.38 118.5 C-8.68 114.96 -10 112.25 -10 108 C-9.36 107.78 -8.72 107.56 -8.06 107.34 C-0.26 104.48 5.63 101.37 9.38 93.69 C12.25 86.24 12.67 80.04 10.09 72.43 C7.78 67.27 4.7 63.14 0 60 C-0.36 57.48 -0.36 57.48 -0.34 54.27 C-0.34 53.06 -0.34 51.86 -0.34 50.63 C-0.32 49.32 -0.31 48.02 -0.29 46.68 C-0.29 45.34 -0.28 43.99 -0.28 42.65 C-0.27 39.12 -0.24 35.58 -0.21 32.05 C-0.18 28.44 -0.16 24.84 -0.15 21.23 C-0.11 14.15 -0.06 7.08 0 0 Z " fill="#D7013D" transform="translate(614,136)"/>
<path d="M0 0 C1.16 0 2.31 0.01 3.5 0.01 C4.37 0.02 5.25 0.02 6.15 0.03 C6.28 7.77 6.39 15.5 6.46 23.24 C6.49 26.83 6.53 30.43 6.6 34.02 C6.66 37.49 6.7 40.96 6.71 44.42 C6.73 46.39 6.78 48.35 6.83 50.32 C6.83 59.06 6.83 59.06 4.83 61.9 C3.21 63.24 3.21 63.24 0.15 65.03 C-4.05 70.96 -6.42 77.74 -5.85 85.03 C-4.32 91.63 -1.92 97.4 3.15 102.03 C7.32 104.48 11.55 106.5 16.15 108.03 C15.55 114.23 13.26 118.08 8.71 122.28 C2.76 126.34 -2.82 126.83 -9.85 126.03 C-15.07 124.43 -19.08 121.85 -21.85 117.03 C-21.67 115.16 -21.67 115.16 -20.85 113.03 C-19.89 108.96 -19.43 106.9 -21.29 103.09 C-24.38 100.61 -26.08 100.34 -29.95 100.62 C-32.06 100.96 -32.06 100.96 -34.35 102.59 C-36.44 105.98 -36.41 108.12 -35.85 112.03 C-34.54 113.38 -33.21 114.72 -31.85 116.03 C-31.61 120.51 -34.52 123.85 -37.17 127.23 C-41.42 131.78 -46.67 132.85 -52.6 133.34 C-58.25 133.24 -62.69 131.18 -66.69 127.21 C-68.15 125.52 -69.53 123.82 -70.85 122.03 C-68.72 119.89 -66.58 117.77 -64.35 115.72 C-58.31 109.22 -56.41 102.72 -56.51 93.98 C-57.27 87.43 -60.4 82.02 -65.23 77.59 C-72.91 71.8 -79.38 71.41 -88.85 72.03 C-89.71 72.28 -90.57 72.54 -91.46 72.8 C-93.85 73.03 -93.85 73.03 -96.21 71.43 C-105.14 62.23 -117.85 47.52 -117.85 34.03 C-103.54 26.18 -89.3 19.34 -73.85 14.03 C-73.07 13.75 -72.29 13.48 -71.48 13.2 C-54.18 7.15 -36.32 3.57 -18.17 1.22 C-17.22 1.09 -16.28 0.97 -15.31 0.84 C-10.19 0.23 -5.16 -0.03 0 0 Z " fill="#D7013D" transform="translate(579.854736328125,135.969970703125)"/>
<path d="M0 0 C2.6 14.18 4.29 28.37 5.25 42.75 C5.32 43.82 5.39 44.89 5.47 45.99 C7.14 74.27 3.21 96.41 -15.93 118.06 C-24.15 127.18 -32.89 135.7 -41.94 144 C-42.44 144.46 -42.94 144.92 -43.46 145.4 C-81.09 180 -81.09 180 -85 180 C-85 132.48 -85 84.96 -85 36 C-85.66 35.67 -86.32 35.34 -87 35 C-85.79 34.79 -84.58 34.58 -83.33 34.37 C-70.7 32.1 -58.94 28.68 -47 24 C-46.14 23.66 -45.27 23.33 -44.39 22.98 C-29.99 17.28 -16.37 10.36 -3.53 1.68 C-1 0 -1 0 0 0 Z " fill="#03954C" transform="translate(727,734)"/>
<path d="M0 0 C1.43 0.79 2.86 1.58 4.29 2.38 C5.48 3.04 5.48 3.04 6.7 3.72 C9.68 5.38 12.62 7.1 15.56 8.81 C37.53 21.39 61.59 32.27 87 35 C86.01 35.5 86.01 35.5 85 36 C85 83.52 85 131.04 85 180 C82.69 178.02 80.38 176.04 78 174 C76.74 172.98 75.47 171.96 74.2 170.96 C61.93 161.28 50.1 151.16 38.56 140.62 C37.65 139.79 36.73 138.95 35.78 138.09 C12.97 117.06 -3.64 98.1 -5.33 66.13 C-6.08 44.05 -3.66 21.75 0 0 Z " fill="#03954C" transform="translate(473,734)"/>
<path d="M0 0 C0.33 0 0.66 0 1 0 C1.9 15.24 2.56 30.49 2.97 45.75 C3.16 52.85 3.43 59.92 3.87 67.01 C6.93 117.16 6.93 117.16 -7.35 134.19 C-15.57 143.33 -24.98 151.06 -34.84 158.35 C-39.97 162.27 -44.75 166.61 -49.29 171.19 C-50.03 171.93 -50.76 172.67 -51.52 173.43 C-52.29 174.21 -53.05 174.98 -53.84 175.78 C-54.65 176.59 -55.45 177.4 -56.29 178.24 C-58.84 180.8 -61.39 183.37 -63.94 185.94 C-67.32 189.35 -70.7 192.75 -74.09 196.15 C-74.87 196.94 -75.65 197.73 -76.45 198.54 C-77.17 199.26 -77.88 199.97 -78.62 200.71 C-79.25 201.35 -79.88 201.99 -80.53 202.64 C-82 204 -82 204 -83 204 C-83.26 191.62 -83.45 179.24 -83.57 166.86 C-83.63 161.11 -83.71 155.37 -83.83 149.62 C-83.95 144.07 -84.02 138.52 -84.04 132.97 C-84.06 130.85 -84.1 128.74 -84.16 126.62 C-84.61 110.03 -84.61 110.03 -80.59 104.97 C-77.8 102.92 -75.14 101.44 -72 100 C-70.19 98.73 -70.19 98.73 -68.68 97.41 C-67.75 96.64 -66.83 95.86 -65.88 95.06 C-35.49 69.2 -14.27 37.08 0 0 Z " fill="#FEFEFD" transform="translate(810,625)"/>
<path d="M0 0 C1.8 2.7 2.95 5.08 4.18 8.06 C18.9 43 45.58 87.95 81.15 105.56 C84.21 108.18 84.42 108.4 84.72 112.13 C84.74 113.84 84.72 115.55 84.68 117.27 C84.68 118.67 84.68 118.67 84.68 120.11 C84.68 123.2 84.63 126.3 84.59 129.39 C84.57 131.54 84.57 133.68 84.56 135.83 C84.54 141.48 84.48 147.13 84.41 152.78 C84.35 158.54 84.32 164.31 84.29 170.07 C84.23 181.38 84.13 192.69 84 204 C80.13 200.73 76.32 197.45 72.75 193.85 C72 193.09 71.24 192.33 70.47 191.55 C69.67 190.75 68.88 189.95 68.07 189.13 C66.81 187.87 66.81 187.87 65.53 186.58 C61.98 183.01 58.43 179.44 54.88 175.86 C52.28 173.24 49.67 170.62 47.07 168 C45.88 166.81 45.88 166.81 44.67 165.59 C38.97 159.85 33.3 154.21 26.59 149.66 C14.15 141.12 1.45 130.9 -1.6 115.39 C-3.89 98.94 -2.96 82.05 -2.16 65.5 C-1.82 58.35 -1.66 51.19 -1.51 44.03 C-1.2 29.34 -0.67 14.67 0 0 Z " fill="#FEFEFD" transform="translate(389,625)"/>
<path d="M0 0 C3.21 2.69 4.73 6.2 6.56 9.88 C11.73 19.84 17.94 28.25 26.18 35.87 C32.37 41.62 35.11 45.44 36.44 54.05 C37.35 58.82 39.36 61.85 43 65 C49.98 69.59 56.64 71.96 65 72 C65.37 79.06 64.14 83.59 60.31 89.69 C55.5 94.5 50.8 96.25 44 96.56 C38.18 96.39 34.45 94.66 30 91 C30.27 89.78 30.54 88.57 30.81 87.31 C31.25 83.72 31.13 83.2 29 80 C25.33 77.55 23.33 77.52 19 78 C18.01 78.33 17.02 78.66 16 79 C14.79 82.64 14.6 85.18 15 89 C17.17 91.63 18.95 93.47 22 95 C21.97 101.62 21.06 106.17 16.75 111.31 C12.14 115.77 7.13 117.62 0.88 118.38 C-4.44 117.86 -8.39 115.59 -13 113 C-12.57 112.17 -12.57 112.17 -12.13 111.32 C-8.73 104.35 -5.33 96.85 -7 89 C-9.82 81.05 -13.43 75 -21 71 C-27.4 68.24 -34.15 68.81 -41 69 C-36.01 40.6 -20.36 19.86 0 0 Z " fill="#D7013D" transform="translate(437,188)"/>
<path d="M0 0 C21.91 18.18 37.04 40.76 42 69 C41.03 68.94 40.07 68.88 39.07 68.82 C30.66 68.53 24.02 68.86 17 74 C11.4 79.36 7.85 86.15 7.5 93.94 C7.78 100.93 10.89 106.87 14 113 C7.8 116.55 3.2 119.03 -4 118 C-10.67 116.06 -15.23 112.86 -19 107 C-20.8 102.98 -21.76 99.38 -21 95 C-18.06 92.75 -18.06 92.75 -15 91 C-13.51 88.01 -13.88 85.3 -14 82 C-14.33 81.01 -14.66 80.02 -15 79 C-21.86 77.59 -21.86 77.59 -28.19 79.94 C-30.7 84.18 -30.04 86.26 -29 91 C-35.87 95.73 -40.75 96.78 -49 96 C-54.99 94.39 -58.33 90.94 -61.87 86 C-64.44 81.45 -64.08 77.09 -64 72 C-62.77 71.89 -62.77 71.89 -61.51 71.77 C-52.24 70.68 -44.26 68.33 -38.06 60.94 C-35.96 57.71 -35.65 54.78 -35.12 51 C-33.62 43.4 -29.34 39.75 -23.9 34.66 C-13.29 24.72 -6.47 12.91 0 0 Z " fill="#D7013D" transform="translate(762,188)"/>
<path d="M0 0 C19.8 0 39.6 0 60 0 C60.16 18.15 60.16 18.15 60.2 25.91 C60.22 31.2 60.25 36.49 60.3 41.78 C60.35 46.05 60.37 50.31 60.38 54.58 C60.39 56.2 60.4 57.83 60.42 59.45 C60.63 75.44 60.63 75.44 56 82 C52.6 84.27 51.44 84.24 47.46 84.2 C46.38 84.19 45.31 84.18 44.21 84.18 C42.53 84.15 42.53 84.15 40.81 84.12 C39.68 84.12 38.55 84.11 37.38 84.1 C34.59 84.07 31.79 84.04 29 84 C29 80.37 29 76.74 29 73 C23.39 73 17.78 73 12 73 C12 76.63 12 80.26 12 84 C8.04 84 4.08 84 0 84 C0 56.28 0 28.56 0 0 Z " fill="#FAFDFC" transform="translate(584,454)"/>
<path d="M0 0 C3.96 0 7.92 0 12 0 C12 2.97 12 5.94 12 9 C17.61 9 23.22 9 29 9 C29 6.03 29 3.06 29 0 C33.08 -0.12 37.17 -0.19 41.25 -0.25 C42.41 -0.28 43.57 -0.32 44.76 -0.35 C45.88 -0.36 46.99 -0.38 48.14 -0.39 C49.17 -0.41 50.19 -0.43 51.25 -0.45 C54.81 0.13 55.86 1.13 58 4 C59.85 8.56 60.24 12.39 60.23 17.29 C60.23 17.99 60.23 18.7 60.23 19.42 C60.23 21.73 60.21 24.03 60.2 26.34 C60.19 27.94 60.19 29.55 60.19 31.15 C60.18 35.36 60.16 39.58 60.14 43.79 C60.11 48.85 60.1 53.91 60.09 58.97 C60.07 66.65 60.03 74.32 60 82 C40.2 82 20.4 82 0 82 C0 54.94 0 27.88 0 0 Z " fill="#FBFDFC" transform="translate(584,568)"/>
<path d="M0 0 C16.5 0 33 0 50 0 C50 27.06 50 54.12 50 82 C33.5 82 17 82 0 82 C0 72.43 0 62.86 0 53 C5.61 53 11.22 53 17 53 C17 44.75 17 36.5 17 28 C11.39 28 5.78 28 0 28 C0 18.76 0 9.52 0 0 Z " fill="#F8FCFA" transform="translate(506,568)"/>
<path d="M0 0 C16.17 0 32.34 0 49 0 C49 27.72 49 55.44 49 84 C33.16 84 17.32 84 1 84 C1 75.09 1 66.18 1 57 C6.28 57 11.56 57 17 57 C17 48.42 17 39.84 17 31 C11.39 31 5.78 31 0 31 C0 20.77 0 10.54 0 0 Z " fill="#FCFDFD" transform="translate(506,454)"/>
<path d="M0 0 C27.72 0 55.44 0 84 0 C77.25 7.88 77.25 7.88 74.36 10.76 C73.71 11.42 73.05 12.08 72.38 12.76 C71.68 13.45 70.98 14.15 70.27 14.86 C69.52 15.62 68.77 16.37 67.99 17.14 C65.53 19.61 63.07 22.07 60.61 24.53 C58.89 26.24 57.17 27.96 55.46 29.68 C51.88 33.26 48.29 36.84 44.7 40.43 C40.1 45.03 35.49 49.64 30.89 54.24 C27.35 57.78 23.82 61.32 20.28 64.85 C18.58 66.55 16.88 68.25 15.18 69.95 C12.82 72.32 10.45 74.68 8.09 77.04 C7.38 77.75 6.67 78.46 5.94 79.19 C5.3 79.83 4.66 80.47 4 81.12 C3.44 81.68 2.88 82.24 2.31 82.82 C1 84 1 84 0 84 C0 56.28 0 28.56 0 0 Z " fill="#FEFDFB" transform="translate(1065,410)"/>
<path d="M0 0 C27.72 0 55.44 0 84 0 C84 27.72 84 55.44 84 84 C76.12 77.25 76.12 77.25 73.24 74.36 C72.58 73.71 71.92 73.05 71.24 72.38 C70.2 71.33 70.2 71.33 69.14 70.27 C68.38 69.52 67.63 68.77 66.86 67.99 C64.39 65.53 61.93 63.07 59.47 60.61 C57.76 58.89 56.04 57.17 54.32 55.46 C50.74 51.88 47.16 48.29 43.57 44.7 C38.97 40.1 34.36 35.49 29.76 30.89 C26.22 27.35 22.68 23.82 19.15 20.28 C17.45 18.58 15.75 16.88 14.05 15.18 C11.68 12.82 9.32 10.45 6.96 8.09 C6.25 7.38 5.54 6.67 4.81 5.94 C4.17 5.3 3.53 4.66 2.88 4 C2.32 3.44 1.76 2.88 1.18 2.31 C0 1 0 1 0 0 Z " fill="#FEFDFB" transform="translate(51,410)"/>
<path d="M0 0 C4.13 -0.15 8.25 -0.26 12.38 -0.33 C13.78 -0.36 15.18 -0.4 16.58 -0.45 C30.62 -0.96 30.62 -0.96 36.48 4.38 C36.98 4.91 37.48 5.45 38 6 C38.57 6.58 39.15 7.15 39.74 7.74 C45.17 13.38 48.23 19.7 48.25 27.56 C48.17 29.03 48.09 30.49 48 32 C41.73 32 35.46 32 29 32 C29 39.59 29 47.18 29 55 C35.27 55 41.54 55 48 55 C46.01 60.97 44.26 65.93 41.19 71.25 C40.87 71.84 40.55 72.42 40.22 73.02 C37.86 77.16 35.14 80.58 31 83 C28.04 83.43 25.69 83.59 22.76 83.49 C21.61 83.48 21.61 83.48 20.43 83.47 C17.99 83.44 15.56 83.38 13.12 83.31 C11.47 83.29 9.81 83.26 8.15 83.24 C4.1 83.19 0.05 83.1 -4 83 C-3.79 82.47 -3.58 81.95 -3.36 81.41 C-0.41 73.05 -0.52 64.79 -0.49 56.05 C-0.47 54.43 -0.45 52.81 -0.43 51.19 C-0.39 46.95 -0.36 42.71 -0.33 38.47 C-0.3 34.14 -0.25 29.8 -0.21 25.46 C-0.12 16.97 -0.06 8.49 0 0 Z " fill="#FDFEFE" transform="translate(670,455)"/>
<path d="M0 0 C4.25 -0.15 8.5 -0.26 12.75 -0.33 C14.19 -0.36 15.63 -0.4 17.08 -0.45 C25.08 -0.74 31.63 -0.87 38.22 4.33 C43.88 9.65 49.1 15.25 51 23 C51 25.97 51 28.94 51 32 C44.73 32 38.46 32 32 32 C32 39.59 32 47.18 32 55 C37.94 55 43.88 55 50 55 C47.18 64.79 43.13 76.48 34 82 C30.47 82.57 30.47 82.57 26.63 82.49 C25.95 82.48 25.27 82.47 24.57 82.47 C22.42 82.44 20.27 82.38 18.12 82.31 C16.66 82.29 15.19 82.26 13.73 82.24 C10.15 82.19 6.58 82.1 3 82 C2.99 81.11 2.98 80.21 2.98 79.29 C2.9 70.83 2.81 62.37 2.71 53.91 C2.66 49.56 2.62 45.22 2.58 40.87 C2.54 36.67 2.49 32.46 2.44 28.26 C2.42 26.67 2.41 25.07 2.4 23.47 C2.34 15.43 2.21 7.8 0 0 Z " fill="#FCFEFD" transform="translate(667,568)"/>
<path d="M0 0 C11.88 0 23.76 0 36 0 C36 21.12 36 42.24 36 64 C33.92 61.92 33.3 60.6 32.22 57.91 C31.88 57.08 31.54 56.24 31.18 55.37 C30.81 54.47 30.44 53.56 30.06 52.62 C22.76 35.22 13.81 18.82 1.71 4.25 C0 2 0 2 0 0 Z " fill="#FEFCFA" transform="translate(775,410)"/>
<path d="M0 0 C11.88 0 23.76 0 36 0 C34.59 2.82 33.44 4.89 31.6 7.34 C18.64 24.88 9.13 43.81 1 64 C0.67 64 0.34 64 0 64 C0 42.88 0 21.76 0 0 Z " fill="#FEFDFA" transform="translate(389,410)"/>
</svg>
