<?xml version="1.0" standalone="no"?>
<!DOCTYPE svg PUBLIC "-//W3C//DTD SVG 20010904//EN"
 "http://www.w3.org/TR/2001/REC-SVG-20010904/DTD/svg10.dtd">
<svg version="1.0" xmlns="http://www.w3.org/2000/svg"
 width="1044.000000pt" height="1200.000000pt" viewBox="0 0 1044.000000 1200.000000"
 preserveAspectRatio="xMidYMid meet">

<g transform="translate(0.000000,1200.000000) scale(0.100000,-0.100000)"
fill="#000000" stroke="none">
<path d="M5150 11740 l0 -149 -112 -3 -113 -3 -3 -102 -3 -103 116 0 115 0 0
-75 0 -75 -37 -19 c-41 -21 -89 -63 -114 -99 l-16 -22 -54 25 c-153 71 -325
-12 -360 -172 -7 -32 -13 -59 -14 -60 0 -1 -19 4 -40 12 -84 30 -179 14 -244
-41 l-39 -33 -17 45 c-48 127 -184 192 -317 152 -55 -16 -133 -89 -153 -142
-11 -29 -16 -65 -13 -109 3 -58 1 -64 -12 -52 -38 33 -107 58 -160 59 -72 0
-124 -18 -173 -63 -38 -34 -87 -119 -87 -151 0 -12 -11 -14 -51 -11 -64 4
-129 -20 -181 -67 -60 -55 -82 -104 -82 -189 0 -40 -3 -73 -7 -73 -3 0 -25
-13 -49 -29 -89 -59 -132 -169 -107 -268 l14 -53 -38 -40 c-71 -75 -86 -188
-38 -288 l21 -43 -20 -22 c-88 -97 -77 -257 25 -347 46 -40 46 -41 44 -99 -4
-93 34 -162 110 -201 44 -23 168 -47 287 -56 l90 -7 7 -51 c9 -68 35 -124 81
-175 40 -45 100 -81 133 -81 11 0 22 -4 25 -8 3 -5 -20 -51 -50 -103 -31 -52
-60 -102 -65 -111 -8 -14 6 -20 105 -43 l114 -27 -31 -50 c-30 -48 -32 -57
-32 -142 0 -80 3 -96 26 -136 15 -25 36 -54 48 -64 l21 -19 -114 -67 c-63 -37
-150 -92 -194 -122 l-80 -55 -1168 1254 c-643 690 -1186 1275 -1207 1299 -36
41 -37 45 -23 66 8 13 23 52 32 87 40 156 -36 309 -189 382 -52 24 -74 29
-137 28 -83 0 -133 -16 -202 -65 -63 -44 -271 -274 -297 -327 -35 -73 -47
-155 -32 -233 31 -169 146 -276 298 -278 35 -1 63 -4 63 -8 0 -3 -16 -73 -36
-155 -183 -763 -248 -1211 -248 -1708 0 -380 28 -596 118 -911 45 -160 57
-240 57 -399 0 -151 -14 -260 -76 -575 -77 -394 -95 -533 -95 -742 0 -329 71
-605 291 -1134 34 -82 79 -194 99 -249 82 -222 171 -343 334 -456 28 -19 105
-73 171 -119 432 -300 808 -710 1063 -1155 219 -383 550 -687 849 -778 93 -28
185 -85 388 -237 232 -174 467 -388 733 -670 106 -111 192 -194 217 -207 66
-35 271 -100 386 -122 479 -95 1004 -25 1614 214 472 185 867 407 1595 894
234 157 432 285 440 285 8 1 302 -290 654 -646 351 -357 643 -648 650 -648 15
1 459 295 463 307 3 8 -436 459 -1104 1133 l-174 176 123 71 c418 244 804 418
1208 544 68 21 128 39 132 39 3 0 18 4 32 10 25 9 23 12 -96 122 -166 154
-493 481 -667 668 -535 575 -655 687 -949 888 l-114 77 7 40 c41 256 56 598
36 830 -38 435 -142 806 -336 1200 -258 522 -638 954 -1130 1284 -71 48 -162
104 -202 126 l-72 39 29 33 c55 63 65 91 65 189 0 85 -2 94 -32 142 l-31 50
114 27 c99 23 113 29 105 43 -5 9 -34 59 -65 111 -30 52 -53 98 -50 103 3 4
14 8 25 8 33 0 93 36 133 81 46 51 72 107 81 175 l7 51 90 7 c119 9 243 33
287 56 76 38 114 108 110 200 -2 56 -2 57 48 106 41 39 55 61 68 108 26 88 9
172 -48 234 l-21 22 22 44 c49 98 34 211 -38 287 -35 37 -38 44 -28 67 17 46
13 133 -9 183 -23 51 -80 111 -121 128 -26 11 -28 15 -28 84 0 85 -22 135 -82
189 -52 47 -117 71 -181 67 -40 -3 -51 -1 -51 11 0 32 -49 117 -87 151 -49 45
-101 63 -173 63 -53 -1 -122 -26 -160 -59 -13 -12 -15 -5 -12 56 4 85 -19 140
-83 197 -132 116 -337 63 -400 -102 l-18 -47 -26 25 c-63 60 -171 81 -256 51
-22 -8 -41 -15 -41 -15 -1 0 -5 20 -8 44 -10 66 -63 145 -120 180 -70 44 -162
48 -241 12 l-57 -26 -22 28 c-33 43 -68 72 -108 93 l-38 19 0 75 0 75 115 0
116 0 -3 103 -3 102 -112 3 -113 3 0 149 0 150 -105 0 -105 0 0 -150z m169
-678 c47 -23 72 -61 78 -114 10 -84 -45 -149 -129 -155 -62 -5 -106 17 -139
69 -25 41 -21 116 8 156 24 34 79 62 118 62 17 0 45 -8 64 -18z m-439 -44
c135 -69 87 -271 -64 -271 -54 0 -98 26 -125 73 -42 74 -17 157 59 197 54 29
74 29 130 1z m877 1 c76 -37 104 -124 62 -199 -74 -131 -269 -77 -269 75 0 55
31 102 83 125 54 25 71 25 124 -1z m-1700 -119 c119 -72 63 -265 -77 -265
-106 0 -180 114 -133 205 39 75 139 104 210 60z m2554 -3 c120 -80 63 -262
-81 -262 -141 0 -197 192 -77 265 45 28 115 26 158 -3z m-2104 -117 c111 -67
70 -245 -60 -267 -86 -14 -178 78 -164 164 17 102 136 157 224 103z m1650 0
c68 -41 88 -112 54 -184 -39 -79 -136 -107 -208 -61 -84 55 -84 194 0 245 42
26 112 26 154 0z m-2537 -130 c74 -38 100 -137 55 -206 -40 -61 -140 -84 -199
-45 -94 62 -87 203 14 253 46 23 82 23 130 -2z m3400 2 c101 -50 108 -191 14
-253 -41 -27 -112 -25 -155 4 -150 100 -20 330 141 249z m-1735 -34 c73 -33
24 -149 -53 -122 -49 17 -56 99 -10 122 30 14 33 14 63 0z m-4566 -156 c19 -9
46 -35 62 -61 50 -78 34 -172 -46 -260 l-37 -41 170 -182 c93 -101 654 -703
1246 -1338 l1076 -1155 -42 -39 c-24 -21 -68 -60 -98 -86 l-55 -47 -1225 1314
c-674 723 -1232 1321 -1241 1329 -14 12 -20 12 -52 -1 -52 -22 -123 -19 -163
6 -80 49 -110 168 -65 257 25 49 221 264 267 293 64 39 134 43 203 11z m4374
-27 l28 -35 -29 -43 c-16 -23 -31 -50 -35 -59 -8 -22 -38 -14 -68 19 -35 36
-32 97 4 129 39 34 67 30 100 -11z m424 11 c36 -32 39 -93 4 -129 -30 -33 -60
-41 -68 -19 -4 9 -19 36 -35 59 l-29 43 28 35 c33 41 61 45 100 11z m-1177 -4
c74 -37 102 -131 60 -200 -79 -130 -280 -69 -267 81 2 27 13 61 24 75 24 34
79 62 118 62 17 0 46 -8 65 -18z m1979 -9 c58 -43 77 -131 41 -191 -77 -125
-270 -73 -270 74 0 112 139 183 229 117z m-2982 -36 c31 -30 37 -44 41 -89 3
-44 0 -59 -20 -88 -27 -40 -79 -70 -123 -70 -16 0 -45 8 -64 18 -100 51 -106
186 -11 250 29 20 44 23 88 20 45 -4 59 -10 89 -41z m4003 28 c92 -48 106
-179 25 -241 -70 -53 -164 -37 -213 36 -34 50 -27 128 14 171 16 17 38 35 49
39 32 14 94 11 125 -5z m-2038 -142 c22 -20 23 -70 1 -95 -20 -22 -70 -23 -95
-1 -22 20 -23 70 -1 95 20 22 70 23 95 1z m-2175 -173 c113 -51 112 -211 -2
-261 -56 -25 -104 -18 -151 23 -63 56 -69 139 -12 203 47 54 100 65 165 35z
m4355 10 c45 -13 95 -68 103 -114 9 -48 -10 -99 -49 -134 -47 -41 -95 -48
-151 -23 -114 50 -115 210 -2 261 49 23 51 23 99 10z m-3291 -43 c122 -82 10
-269 -121 -202 -80 41 -78 175 3 210 46 20 79 18 118 -8z m930 -6 c37 -37 37
-65 0 -92 -16 -11 -35 -32 -42 -45 -16 -31 -53 -31 -84 0 -65 65 -24 164 68
166 19 0 39 -10 58 -29z m378 14 c57 -29 64 -104 14 -151 -33 -31 -66 -31 -82
0 -7 13 -26 34 -42 45 -37 27 -37 55 0 92 33 32 67 37 110 14z m936 1 c83 -35
86 -169 5 -211 -94 -49 -201 41 -167 142 13 42 65 83 104 83 13 0 39 -6 58
-14z m-1117 -166 c20 -13 41 -38 53 -65 14 -33 27 -47 47 -51 89 -22 127 -108
82 -182 -22 -36 -87 -71 -135 -72 l-30 -1 55 -50 c61 -56 184 -120 275 -145
33 -9 114 -18 180 -21 142 -6 263 15 388 67 l78 32 -35 32 c-36 34 -54 86 -41
125 13 41 55 80 93 86 72 12 78 15 92 41 40 74 175 71 215 -6 8 -16 15 -41 15
-56 0 -19 14 -40 50 -73 45 -42 50 -51 50 -90 0 -24 -8 -56 -17 -72 -17 -29
-67 -59 -98 -59 -24 0 11 -48 104 -140 112 -111 244 -170 382 -170 39 0 51 4
55 18 10 33 21 47 46 61 24 14 29 13 82 -24 54 -37 57 -38 121 -32 57 5 68 4
85 -13 23 -23 26 -58 8 -83 -30 -40 -324 -70 -465 -48 -233 36 -408 160 -557
393 l-36 57 -77 -39 c-174 -86 -297 -114 -508 -113 -130 0 -174 4 -237 21
-119 32 -216 77 -304 141 l-82 58 -43 -34 c-285 -226 -716 -255 -1082 -73
l-77 39 -36 -57 c-187 -293 -413 -414 -744 -399 -135 6 -260 30 -277 54 -19
25 -16 60 7 83 17 17 28 18 85 13 64 -6 67 -5 121 32 53 37 58 38 82 24 25
-14 36 -28 46 -61 4 -14 16 -18 55 -18 138 0 270 59 382 170 93 92 128 140
104 140 -31 0 -81 30 -98 59 -9 16 -17 48 -17 72 0 39 5 48 50 90 36 33 50 54
50 73 0 65 53 116 119 116 38 0 91 -17 91 -29 1 -3 10 -17 21 -30 13 -17 36
-27 71 -32 116 -19 156 -137 72 -215 l-35 -32 78 -32 c125 -52 246 -73 388
-67 66 3 147 12 180 21 91 25 214 89 275 145 l55 50 -30 1 c-48 1 -113 36
-135 72 -45 74 -7 160 82 182 20 4 33 18 47 51 22 50 70 85 116 85 17 0 45 -9
63 -20z m-2268 -132 c135 -70 87 -271 -65 -271 -110 0 -178 115 -127 213 19
36 88 80 127 80 11 0 41 -10 65 -22z m4540 0 c76 -40 101 -123 59 -198 -72
-129 -269 -77 -269 72 0 52 31 100 80 126 24 12 54 22 65 22 11 0 41 -10 65
-22z m-5857 -1402 l1156 -1239 -80 -87 c-136 -149 -286 -349 -393 -527 -21
-35 -39 -63 -41 -63 -2 0 -46 51 -98 113 -539 648 -972 1288 -1261 1866 -169
337 -341 781 -421 1090 -8 33 -18 68 -22 78 -3 10 -4 16 -1 13 3 -3 526 -563
1161 -1244z m1295 1054 c67 -41 90 -120 54 -189 -48 -96 -181 -106 -245 -19
-29 40 -33 115 -8 156 28 43 77 72 126 72 22 0 54 -9 73 -20z m4600 0 c67 -41
90 -120 54 -189 -50 -100 -186 -106 -249 -12 -62 92 10 221 122 221 22 0 54
-9 73 -20z m-1878 -274 c311 -37 587 -98 865 -190 231 -77 361 -133 390 -168
49 -58 26 -166 -41 -194 -33 -14 -38 -12 -154 36 -330 138 -663 224 -1065 277
-113 14 -208 18 -495 18 -311 -1 -375 -3 -520 -23 -385 -52 -735 -146 -1054
-281 -92 -40 -97 -41 -130 -27 -43 18 -66 60 -66 120 0 70 28 95 172 154 345
140 792 249 1158 281 69 6 141 13 160 15 89 10 653 -3 780 -18z m-173 -377
c319 -26 626 -87 903 -179 168 -55 355 -129 348 -136 -2 -2 -57 -10 -123 -19
-65 -8 -121 -17 -123 -20 -3 -2 32 -50 78 -105 45 -56 80 -103 78 -105 -2 -3
-49 14 -104 36 -659 269 -1438 338 -2144 188 -206 -44 -509 -140 -684 -217
-55 -25 -55 -25 47 101 44 54 78 100 75 102 -3 3 -58 12 -124 21 -65 8 -120
17 -122 19 -5 5 145 65 293 117 256 90 582 162 855 187 63 6 131 13 150 14 85
9 481 6 597 -4z m-117 -419 c392 -25 747 -103 1099 -242 86 -34 166 -72 179
-85 46 -46 20 -150 -49 -192 l-31 -19 -74 34 c-257 117 -609 213 -939 256
-135 18 -647 17 -780 0 -339 -45 -681 -139 -947 -260 l-66 -30 -36 24 c-43 30
-66 71 -66 119 0 71 14 81 250 172 308 118 689 201 1024 222 181 12 255 12
436 1z m-4363 -285 c107 -191 241 -412 334 -551 l68 -102 -20 -93 c-16 -71
-22 -146 -26 -305 -6 -227 -1 -301 48 -699 36 -287 35 -381 -3 -810 -29 -320
-31 -743 -5 -890 58 -326 192 -741 308 -952 l40 -74 -28 7 c-73 17 -261 93
-376 151 -115 59 -134 72 -180 128 -76 92 -136 202 -178 329 -60 178 -73 275
-73 546 0 268 10 371 81 819 l46 296 1 365 c1 298 -2 391 -17 505 -24 185 -61
372 -97 493 -41 138 -52 245 -53 492 0 227 22 525 38 508 2 -2 43 -75 92 -163z
m4292 -99 c-2 -2 -38 -30 -79 -63 -285 -226 -580 -595 -686 -859 l-29 -71 -75
-12 c-137 -21 -390 -81 -530 -127 -314 -101 -537 -224 -716 -396 -69 -67 -93
-83 -168 -113 -263 -106 -522 -263 -753 -457 -51 -43 -93 -74 -93 -68 0 5 15
51 34 102 269 736 810 1350 1509 1713 450 234 922 350 1431 354 88 0 157 -1
155 -3z m421 -46 c112 -19 243 -50 364 -85 68 -20 72 -14 -57 -88 -140 -81
-254 -173 -422 -341 -148 -148 -365 -401 -365 -425 0 -5 28 -26 63 -47 128
-77 467 -305 607 -409 234 -174 559 -436 746 -602 39 -35 74 -63 76 -63 10 0
195 215 268 310 176 231 284 472 344 771 14 67 27 123 29 126 7 7 222 -236
303 -342 l73 -96 -16 -37 c-34 -82 -156 -313 -217 -410 -142 -225 -336 -456
-537 -639 l-112 -101 -106 -7 c-373 -23 -701 -96 -1084 -241 l-47 -18 -161
159 c-334 332 -539 598 -687 892 -118 234 -152 347 -152 504 0 208 78 378 301
661 153 192 334 362 534 502 64 44 86 54 110 51 17 -3 82 -14 145 -25z m837
-275 c200 -98 190 -88 144 -153 l-38 -53 -34 28 c-19 15 -43 36 -53 45 -43 39
-116 3 -116 -57 0 -35 11 -47 89 -94 l40 -24 -51 -74 c-29 -40 -55 -73 -58
-73 -10 0 -89 58 -133 97 -43 38 -73 42 -111 12 -18 -15 -26 -30 -26 -53 0
-37 12 -50 118 -120 39 -26 72 -50 72 -52 0 -13 -134 -188 -142 -186 -21 6
-99 64 -155 116 -69 63 -86 70 -130 55 -39 -12 -53 -34 -53 -81 0 -42 11 -56
75 -98 28 -18 78 -55 112 -83 l63 -49 -52 -74 -51 -74 -35 27 c-94 71 -302
217 -430 300 l-143 94 78 92 c249 295 510 497 793 614 32 13 44 9 227 -82z
m552 -346 c52 -41 100 -79 108 -85 12 -10 11 -27 -2 -120 -45 -300 -129 -524
-283 -755 -71 -105 -196 -259 -211 -259 -4 0 -82 62 -173 138 -91 75 -208 171
-261 212 -53 41 -96 77 -96 80 0 3 22 36 50 73 l50 68 27 -20 c15 -10 60 -51
100 -90 39 -39 84 -74 98 -77 62 -16 112 35 100 101 -5 27 -26 48 -116 120
-61 48 -110 92 -110 97 0 8 105 162 130 191 4 5 38 -20 74 -54 51 -47 74 -62
96 -62 40 0 70 29 70 68 0 38 -9 49 -87 110 -35 26 -63 52 -63 56 0 11 92 139
100 139 3 0 26 -20 50 -45 51 -52 89 -59 127 -23 46 43 24 95 -64 149 -18 11
-33 25 -33 30 0 6 19 36 41 69 l42 59 71 -48 c39 -27 113 -82 165 -122z
m-2636 -606 c6 -127 20 -188 82 -344 135 -342 379 -689 754 -1072 90 -92 162
-169 160 -170 -2 -2 -71 -39 -154 -82 -293 -152 -603 -353 -880 -569 -88 -69
-202 -158 -252 -197 l-93 -72 -97 89 c-449 410 -703 761 -832 1151 -52 154
-71 266 -71 408 0 369 207 606 697 798 159 63 572 173 659 176 20 1 22 -5 27
-116z m3430 -310 c212 -369 341 -767 399 -1228 24 -196 13 -667 -20 -823 l-7
-32 -135 86 c-412 262 -761 563 -1056 910 l-62 72 168 169 c176 177 287 309
399 477 76 113 172 276 222 379 18 37 36 67 40 67 4 0 27 -35 52 -77z m-4949
-315 c-8 -29 -17 -102 -21 -163 -11 -216 60 -490 202 -780 157 -322 358 -585
681 -892 l146 -139 -73 -51 c-442 -303 -996 -500 -1461 -520 l-138 -6 -24 54
c-233 530 -310 1173 -211 1769 l24 145 119 115 c190 186 383 324 625 450 72
38 135 70 139 70 3 0 0 -24 -8 -52z m4566 -1352 c35 -33 220 -183 273 -221
l27 -20 -177 4 c-668 13 -1276 -189 -2109 -700 -89 -55 -344 -220 -566 -367
-474 -315 -665 -424 -938 -540 -180 -75 -150 -77 -286 14 -66 43 -156 97 -201
119 -45 22 -82 43 -82 47 -1 10 107 76 319 193 383 212 590 342 1062 671 404
281 656 429 893 523 218 86 632 198 905 245 258 44 441 61 690 64 l154 2 36
-34z m1127 -828 c68 -12 76 -17 155 -85 46 -39 105 -94 131 -120 l48 -49 -148
-13 c-378 -32 -779 -129 -1178 -286 -414 -163 -837 -383 -1465 -765 -344 -209
-816 -445 -1147 -574 -147 -58 -379 -132 -442 -142 l-37 -6 -23 59 c-13 32
-46 102 -73 155 -27 54 -48 101 -46 104 2 4 54 25 117 47 352 120 647 281
1325 725 484 316 623 399 938 557 510 254 853 363 1293 409 78 8 481 -4 552
-16z m-5792 -762 c373 -59 723 -216 1000 -448 376 -315 634 -762 721 -1248 28
-154 26 -509 -4 -670 -34 -185 -138 -520 -162 -520 -5 0 -40 12 -79 26 -69 25
-74 30 -253 221 -174 186 -386 389 -548 523 -231 193 -491 367 -603 404 -93
31 -159 64 -249 123 -201 132 -439 399 -574 643 -101 183 -264 400 -458 613
-60 65 -107 120 -105 122 2 1 53 24 112 49 197 84 440 149 657 176 106 13 426
4 545 -14z m6750 -151 c92 -96 161 -175 153 -175 -45 0 -259 -22 -348 -36
-447 -67 -905 -248 -1429 -561 -188 -113 -429 -273 -797 -530 -800 -559 -1489
-884 -2084 -982 -123 -20 -326 -41 -405 -41 l-41 0 18 102 c10 57 21 162 24
234 l7 131 169 42 c442 110 875 276 1388 532 415 208 802 430 1370 788 577
364 1136 586 1645 655 172 24 140 39 330 -159z m-4 -2257 l200 -207 -105 -70
c-58 -39 -109 -71 -114 -71 -9 0 -1175 1184 -1179 1197 -1 4 46 40 105 80
l107 72 393 -397 c216 -218 482 -490 593 -604z"/>
<path d="M5217 9759 c-67 -39 -15 -147 57 -119 49 18 59 68 21 105 -26 27 -49
31 -78 14z"/>
<path d="M3972 9594 c-15 -10 -22 -25 -22 -48 0 -40 17 -63 52 -71 21 -5 33
-1 52 19 33 32 33 60 1 91 -28 29 -51 31 -83 9z"/>
<path d="M6456 9589 c-33 -26 -34 -62 -1 -94 27 -28 37 -30 68 -14 30 16 37
28 37 66 0 22 -7 37 -22 47 -30 21 -50 20 -82 -5z"/>
<path d="M5112 8718 c-68 -28 -120 -53 -117 -57 3 -3 63 -28 133 -56 l127 -51
125 49 c69 28 129 53 133 57 9 8 -239 111 -263 109 -8 0 -70 -23 -138 -51z"/>
<path d="M4436 8675 c-195 -45 -234 -61 -250 -107 -22 -61 23 -112 97 -110 60
0 403 79 433 99 66 43 59 126 -13 154 -37 14 -63 10 -267 -36z"/>
<path d="M5793 8704 c-59 -30 -59 -108 0 -147 30 -20 373 -98 434 -99 100 -2
140 97 62 154 -25 19 -394 108 -443 108 -12 0 -35 -8 -53 -16z"/>
<path d="M2990 2985 c0 -3 16 -26 35 -49 55 -67 49 -75 -48 -65 -114 11 -157
-17 -157 -103 0 -193 296 -562 571 -712 100 -55 197 -85 363 -112 166 -28 231
-50 321 -109 164 -108 325 -330 325 -447 0 -39 -4 -50 -27 -68 -81 -64 -298
50 -635 332 -21 17 -41 29 -44 25 -6 -6 159 -181 543 -576 72 -75 134 -133
138 -130 3 4 -12 34 -34 68 -43 66 -59 117 -43 133 5 5 41 13 78 18 55 7 73
14 91 34 53 62 40 170 -42 331 -73 145 -162 262 -315 416 -248 250 -379 322
-680 375 -165 29 -231 50 -301 94 -103 67 -219 221 -219 292 0 15 10 38 21 49
51 51 211 -9 394 -146 55 -41 105 -75 110 -74 6 0 -20 28 -56 62 -37 34 -139
131 -228 216 -89 84 -161 150 -161 146z"/>
<path d="M2373 2939 c-9 -9 -4 -22 21 -53 39 -48 56 -79 56 -100 0 -13 -15
-16 -87 -16 -70 0 -95 -4 -120 -20 -116 -70 26 -330 358 -656 266 -259 417
-354 781 -490 221 -82 337 -158 431 -284 77 -101 75 -143 -5 -148 -28 -2 -66
5 -101 18 -67 25 -259 151 -380 250 -49 39 -91 69 -95 66 -7 -7 -14 0 198
-196 85 -79 174 -162 197 -184 42 -39 73 -45 38 -6 -10 11 -15 23 -12 26 3 4
43 -4 89 -16 96 -26 176 -24 208 5 26 24 26 95 0 152 -68 151 -274 369 -474
504 -122 83 -177 109 -383 183 -356 129 -401 154 -568 321 -161 160 -236 291
-195 340 29 35 126 8 264 -73 93 -56 274 -190 368 -273 58 -52 106 -76 96 -50
-4 11 -657 705 -667 709 -4 1 -12 -3 -18 -9z"/>
</g>
</svg>
