<?xml version="1.0" standalone="no"?>
<!DOCTYPE svg PUBLIC "-//W3C//DTD SVG 20010904//EN"
 "http://www.w3.org/TR/2001/REC-SVG-20010904/DTD/svg10.dtd">
<svg version="1.0" xmlns="http://www.w3.org/2000/svg"
 width="986.000000pt" height="1201.000000pt" viewBox="0 0 986.000000 1201.000000"
 preserveAspectRatio="xMidYMid meet">

<g transform="translate(0.000000,1201.000000) scale(0.100000,-0.100000)"
fill="#000000" stroke="none">
<path d="M4835 11914 c-574 -484 -1307 -778 -2102 -845 -187 -15 -662 -7 -843
16 -699 86 -1287 324 -1767 717 -40 33 -73 56 -73 51 0 -4 -7 -120 -15 -258
-34 -569 -30 -1305 11 -1880 202 -2867 1267 -5539 3163 -7935 564 -713 1103
-1274 1616 -1684 l119 -95 65 51 c398 311 808 708 1151 1115 1526 1810 2488
3450 3075 5243 323 989 513 1985 602 3160 32 421 23 2025 -13 2248 l-5 33 -68
-63 c-207 -192 -611 -426 -934 -543 -397 -142 -809 -206 -1332 -206 -355 0
-610 30 -925 108 -282 70 -523 160 -795 298 -270 136 -534 311 -737 488 -42
37 -80 67 -85 66 -4 0 -53 -38 -108 -85z m177 -67 c345 -293 809 -549 1260
-698 363 -120 701 -176 1110 -186 937 -22 1675 193 2299 668 l76 58 7 -122
c39 -707 35 -1413 -9 -2047 -157 -2224 -824 -4217 -2063 -6165 -463 -728
-1044 -1505 -1673 -2235 -282 -328 -753 -777 -1040 -993 l-37 -28 -76 61
c-592 470 -1224 1157 -1899 2062 -1680 2252 -2641 4771 -2842 7448 -26 360
-35 614 -35 1055 0 396 11 793 26 923 5 49 7 52 24 40 360 -262 726 -444 1118
-557 512 -147 1149 -190 1702 -115 686 92 1356 377 1865 792 61 50 113 91 117
91 4 1 35 -23 70 -52z"/>
<path d="M4831 11519 c-485 -358 -1104 -617 -1726 -723 -395 -68 -864 -73
-1275 -16 -479 67 -973 228 -1384 452 -60 32 -111 56 -115 53 -27 -28 10
-1545 39 -1578 3 -4 44 24 91 63 534 446 1185 718 1939 812 165 20 700 17 875
-6 574 -74 1068 -239 1540 -515 l120 -70 35 21 c547 323 1024 489 1628 565
104 14 213 18 457 18 324 0 381 -4 635 -46 627 -103 1227 -374 1707 -770 93
-77 98 -80 104 -57 22 71 54 1043 46 1352 -3 114 -8 210 -10 212 -2 2 -82 -36
-178 -85 -96 -49 -230 -113 -299 -142 -1158 -485 -2509 -414 -3595 189 -155
86 -368 222 -467 298 -31 24 -60 44 -65 43 -4 0 -50 -32 -102 -70z"/>
<path d="M6995 10105 c-254 -55 -441 -272 -421 -488 15 -164 60 -290 136 -381
22 -26 40 -50 40 -51 0 -2 -37 -21 -82 -43 -284 -138 -477 -415 -495 -711 -19
-317 171 -625 477 -770 113 -54 184 -72 308 -78 l102 -6 0 -118 0 -119 -26 -6
c-68 -17 -382 27 -540 75 -36 12 -68 21 -70 21 -2 0 -4 -24 -4 -54 l0 -55 57
-21 c317 -119 653 -142 908 -63 279 87 477 288 557 568 19 68 23 104 23 235 0
135 -3 165 -23 230 -33 103 -71 175 -140 261 -81 103 -155 168 -394 347 l-208
155 0 44 0 44 73 -6 c59 -6 208 -33 252 -46 13 -4 55 19 55 31 0 20 -201 94
-310 114 l-65 12 -3 122 -3 122 171 0 170 0 0 40 0 40 -240 0 -240 0 0 -160 0
-160 -64 0 -63 0 -51 54 c-112 119 -158 232 -150 371 12 190 129 315 323 347
134 22 318 -25 432 -111 l51 -39 27 28 c15 16 24 33 21 38 -3 6 -34 32 -69 57
-164 124 -345 169 -522 130z m-20 -1112 l84 -68 1 -604 0 -604 -60 6 c-34 4
-104 21 -157 39 -228 75 -394 249 -454 475 -27 103 -30 281 -6 372 38 143 133
269 269 357 74 49 206 106 226 99 8 -3 51 -35 97 -72z m385 -307 c235 -195
392 -398 435 -562 32 -124 12 -288 -52 -424 -73 -153 -241 -277 -450 -329 -45
-12 -84 -21 -87 -21 -3 0 -6 54 -6 120 l0 119 43 11 c76 19 201 61 247 83 41
20 46 26 54 70 4 26 6 50 3 53 -3 3 -24 -4 -47 -16 -51 -26 -219 -70 -266 -70
l-34 0 0 320 0 320 111 0 110 0 -3 38 -3 37 -107 3 -108 3 0 186 0 185 38 -28
c20 -15 75 -60 122 -98z"/>
<path d="M1988 10084 c-42 -22 -58 -63 -58 -144 0 -52 3 -70 13 -70 24 0 48
-37 54 -79 5 -40 7 -41 44 -41 l39 0 0 -476 c0 -468 0 -476 -21 -506 -14 -19
-28 -28 -43 -26 -20 3 -23 19 -57 243 -21 132 -37 231 -38 221 -2 -42 60 -472
71 -491 10 -18 10 -19 -5 -6 -10 7 -17 10 -17 5 0 -5 -5 -2 -10 6 -8 13 -10
12 -10 -3 0 -11 9 -21 19 -24 27 -7 35 -32 13 -40 -14 -6 -13 -8 7 -13 33 -7
39 -30 9 -30 -22 -1 -22 -1 -4 -15 17 -13 17 -15 -15 -29 l-34 -16 33 3 c36 4
44 -8 11 -16 -12 -3 -18 -10 -15 -15 3 -6 16 -8 29 -4 20 5 21 4 8 -12 -8 -9
-19 -15 -25 -13 -19 7 -56 -29 -57 -55 0 -12 3 -53 7 -90 5 -49 3 -72 -6 -83
-10 -12 -10 -19 -2 -27 15 -15 16 -115 2 -123 -7 -4 -8 -11 -1 -18 13 -16 12
-259 -1 -275 -8 -9 -8 -16 0 -24 7 -7 12 -32 13 -57 0 -26 3 -39 6 -31 11 36
29 62 47 72 15 8 12 -2 -16 -54 l-35 -64 23 -29 c13 -17 29 -45 35 -63 l11
-32 26 52 c30 57 52 73 52 36 0 -28 -34 -86 -56 -95 -25 -9 -64 15 -78 48
l-13 31 -6 -37 c-3 -20 -3 -50 0 -66 5 -29 3 -33 -64 -105 -12 -13 -23 -31
-25 -41 -3 -16 -15 -18 -91 -18 -48 0 -87 3 -87 6 0 3 18 14 40 24 22 10 40
24 40 31 0 8 -13 55 -29 106 -17 51 -37 126 -46 166 -10 40 -19 72 -21 69 -5
-5 23 -155 47 -251 20 -76 20 -81 3 -93 -10 -7 -22 -13 -26 -13 -14 0 -106
-99 -136 -147 -27 -43 -42 -54 -43 -30 0 10 -59 65 -59 55 0 -2 11 -34 25 -73
13 -38 25 -88 25 -111 0 -42 -14 -61 -72 -97 -16 -10 -28 -22 -28 -27 0 -16
28 -12 57 8 15 9 24 12 20 5 -10 -16 51 -29 66 -14 8 8 8 11 -2 11 -7 0 -9 5
-6 10 4 6 14 1 24 -11 25 -31 44 -17 25 19 -7 15 -14 40 -14 57 0 36 31 116
44 112 5 -2 16 -30 23 -63 22 -95 24 -101 44 -123 16 -17 32 -21 77 -21 55 0
60 2 102 45 39 39 50 45 87 45 40 0 42 -2 49 -35 8 -44 29 -63 42 -38 20 36
33 106 36 186 3 73 20 165 46 237 4 14 11 37 14 51 5 25 8 26 53 21 27 -2 49
-6 50 -7 2 -1 -9 -51 -22 -111 -16 -65 -27 -151 -30 -212 -2 -57 -7 -121 -10
-143 -6 -32 -4 -39 9 -39 9 0 16 5 16 11 0 6 14 29 31 50 27 35 36 39 74 39
40 0 47 -4 69 -36 13 -20 22 -43 19 -50 -3 -8 1 -14 10 -14 20 0 27 43 27 159
0 82 24 338 32 346 4 4 31 8 44 6 7 -1 10 -27 7 -80 l-3 -79 31 -7 c22 -5 28
-10 20 -18 -7 -7 -11 -68 -11 -169 0 -130 3 -158 14 -158 8 0 17 13 21 30 8
38 49 70 87 70 33 0 98 -56 98 -84 0 -9 5 -16 11 -16 7 0 10 52 7 168 -3 148
-1 169 15 185 18 18 24 87 7 87 -5 0 -10 -11 -10 -25 0 -30 -26 -85 -40 -85
-5 0 -12 5 -16 12 -5 8 -10 6 -15 -8 -7 -18 -8 -18 -8 2 -1 12 -8 27 -16 34
-13 11 -15 8 -11 -21 3 -28 8 -35 30 -37 26 -3 27 -4 9 -17 -10 -8 -29 -14
-43 -15 -14 0 -20 4 -15 8 6 4 11 39 11 77 2 79 10 150 17 162 3 5 2 15 -3 23
-11 18 6 50 26 50 11 0 13 6 9 20 -5 17 -2 20 24 20 16 0 33 -5 37 -11 5 -8
-1 -10 -20 -7 -22 4 -26 2 -21 -13 4 -10 -1 -21 -10 -27 -14 -7 -15 -16 -8
-53 l9 -44 27 29 26 28 -9 -33 c-12 -43 -13 -59 -1 -59 6 0 11 15 13 33 3 30
5 32 38 29 19 -2 37 -5 39 -7 8 -9 30 -238 31 -321 0 -99 9 -184 19 -184 3 1
16 23 29 50 23 50 24 50 72 50 44 0 51 -3 79 -39 17 -21 31 -44 31 -50 0 -6 9
-11 20 -11 24 0 26 24 5 60 -9 17 -14 56 -15 118 0 88 -9 132 -66 315 -5 15 2
17 49 17 l55 0 40 -123 c30 -95 39 -142 41 -203 2 -85 27 -184 47 -184 6 0 17
20 24 45 12 44 13 45 54 45 36 0 48 -6 86 -46 l45 -45 90 5 c50 2 136 6 192 7
56 2 97 7 90 11 -9 6 -9 8 1 8 6 0 12 8 12 18 0 12 -17 22 -63 35 -34 10 -95
34 -135 52 -40 19 -70 30 -67 24 10 -16 79 -47 172 -79 49 -16 80 -30 71 -30
-23 0 -151 47 -211 77 -27 13 -51 22 -54 19 -3 -2 21 -18 53 -35 33 -16 55
-30 51 -31 -5 0 -17 5 -29 11 -11 6 -22 8 -25 5 -6 -6 8 -12 112 -52 33 -13
53 -23 45 -23 -8 -1 -53 15 -100 34 -123 50 -114 35 13 -20 17 -8 25 -14 17
-14 -26 0 -125 53 -122 67 1 6 -3 12 -9 12 -6 0 -8 7 -5 15 3 9 -1 18 -9 21
-8 4 -15 11 -15 17 0 5 -20 32 -45 58 -54 58 -59 97 -20 155 14 20 25 44 25
53 0 26 47 118 65 128 11 7 26 48 45 126 15 64 25 119 22 122 -3 3 -1 5 5 5 6
0 13 12 16 28 3 15 8 36 12 47 3 11 -1 8 -10 -7 -8 -16 -19 -28 -23 -28 -4 0
-8 -8 -9 -17 -7 -79 -96 -333 -117 -333 -2 0 -19 7 -39 15 -47 20 -53 54 -19
119 23 44 26 62 27 160 1 61 0 78 -2 37 -3 -64 -8 -78 -29 -98 -14 -13 -30
-37 -36 -54 -9 -27 -14 -30 -40 -25 -18 3 -27 2 -23 -4 3 -6 14 -10 24 -10 19
0 41 -18 41 -34 0 -7 -3 -7 -8 0 -4 6 -20 17 -37 25 l-30 14 -3 435 c-3 443 1
504 35 532 23 19 53 85 53 116 0 16 -5 44 -12 62 -10 30 -12 32 -19 14 -7 -17
-8 -17 -8 4 -1 34 -18 60 -50 76 l-28 15 24 -46 c28 -57 31 -105 6 -97 -14 5
-15 4 -4 -4 31 -22 -13 -108 -71 -138 -25 -13 -32 -14 -40 -2 -8 10 -9 9 -4
-4 3 -12 0 -18 -9 -18 -7 0 -15 -10 -17 -22 -4 -30 -32 -30 -36 0 -3 21 -7 19
-48 -23 -28 -29 -44 -55 -44 -71 0 -21 3 -23 19 -15 10 6 26 26 35 46 17 36
23 39 50 29 13 -5 12 -9 -9 -26 -14 -11 -25 -25 -25 -32 0 -20 -47 -58 -66
-54 -10 2 -23 12 -29 23 -5 11 -22 33 -37 49 -20 21 -25 33 -19 44 6 10 5 24
0 35 -7 12 -6 27 5 48 l15 29 -29 -17 c-16 -9 -31 -15 -33 -12 -2 2 -7 23 -11
47 -6 42 -6 42 19 36 15 -4 25 -2 25 5 0 6 -3 10 -7 9 -15 -4 -53 14 -48 22 3
5 1 11 -5 15 -18 11 -11 26 8 17 31 -17 72 -23 72 -12 0 6 -4 8 -10 5 -5 -3
-10 -1 -10 6 0 7 -3 9 -6 6 -4 -4 -15 3 -25 15 -13 14 -19 17 -20 7 0 -8 -4
-5 -8 6 -7 17 -10 14 -21 -19 -12 -37 -11 -41 8 -57 17 -13 19 -19 9 -31 -17
-22 -51 -32 -44 -14 9 22 -25 30 -40 10 -20 -27 -16 -46 9 -42 18 2 28 -8 55
-62 18 -36 50 -84 72 -105 23 -22 41 -44 41 -50 0 -5 21 -26 47 -45 25 -19 57
-51 71 -72 27 -42 37 -48 29 -18 -8 30 9 24 37 -12 31 -42 44 -88 24 -88 -8 0
-19 5 -26 12 -9 9 -12 0 -12 -41 0 -32 4 -50 10 -46 6 3 10 13 10 21 0 10 12
14 45 14 l44 0 16 -52 c10 -34 12 -54 5 -56 -14 -5 -13 -29 1 -34 8 -3 7 -18
-3 -53 l-14 -50 -46 -3 c-42 -3 -48 0 -62 25 -14 27 -14 24 -13 -54 l2 -81 18
29 c18 27 47 40 47 20 0 -15 -71 -114 -114 -159 -69 -72 -124 -102 -187 -102
l-54 1 25 20 c19 17 34 20 68 16 l43 -5 -3 46 c-3 41 -1 46 29 63 32 18 33 18
43 -1 6 -11 17 -20 25 -20 17 0 20 16 5 25 -15 9 -1 27 16 21 8 -3 14 -1 14 4
0 6 -12 10 -26 10 -14 0 -34 5 -45 11 -16 8 -30 6 -63 -10 -23 -12 -50 -21
-60 -21 -10 0 -61 -13 -114 -29 -54 -17 -116 -35 -139 -41 -38 -9 -44 -15 -53
-51 -8 -29 -16 -39 -28 -37 -18 3 -30 48 -13 48 19 0 12 17 -9 23 -17 4 -20 2
-15 -16 l6 -22 -18 22 c-10 11 -32 24 -50 28 -17 3 -34 14 -36 23 -4 16 -5 16
-6 0 -1 -15 -6 -15 -63 -2 -35 8 -100 26 -146 40 -91 27 -138 26 -184 -7 l-28
-20 0 111 c0 102 -10 138 -25 90 -5 -16 -15 -20 -55 -20 -48 0 -49 1 -59 38
-12 46 -7 162 9 191 9 18 19 22 53 19 40 -3 42 -4 57 -53 l15 -50 5 110 c6
130 3 125 128 267 23 27 42 53 42 58 0 6 16 32 35 59 19 26 35 53 35 60 0 6 3
10 8 10 25 -4 44 4 59 27 14 22 15 27 2 34 -33 20 -48 37 -54 62 -6 23 -4 26
14 21 12 -3 21 -9 21 -15 0 -5 9 -4 21 3 24 12 50 -3 28 -16 -8 -6 -10 -4 -4
5 6 10 4 12 -9 7 -10 -4 -20 -7 -22 -7 -11 0 -2 -29 13 -41 15 -12 16 -12 10
3 -3 10 -3 17 1 16 4 -1 18 4 32 11 l25 12 -22 -18 c-12 -10 -19 -23 -15 -29
8 -13 42 -14 42 -2 0 5 5 6 10 3 6 -3 10 -2 10 4 0 15 27 2 34 -16 5 -13 4
-14 -9 -3 -17 14 -21 0 -4 -17 9 -9 15 -8 26 3 8 8 19 12 24 9 5 -4 9 -1 9 6
0 8 5 7 18 -2 15 -13 16 -12 3 3 -7 10 -11 25 -7 33 8 22 -20 30 -64 19 -33
-9 -37 -8 -47 13 -10 21 -8 25 25 40 21 9 39 20 42 23 3 3 14 6 25 5 14 0 21
8 23 25 2 14 0 20 -5 14 -5 -7 -16 -8 -29 -4 -19 8 -21 13 -14 50 4 24 19 54
36 71 15 16 24 29 20 29 -17 0 -95 -46 -147 -85 -30 -24 -91 -62 -135 -86 -43
-23 -86 -48 -95 -55 -8 -8 -31 -14 -50 -14 -62 0 -61 -11 7 -80 61 -62 64 -64
64 -37 0 20 -10 34 -40 55 -21 15 -39 30 -40 35 -1 17 48 5 70 -18 26 -27 46
-32 53 -12 4 9 6 9 6 0 1 -6 -3 -15 -9 -18 -5 -3 -10 -14 -9 -23 0 -11 3 -12
6 -4 5 14 23 16 23 3 0 -5 -6 -16 -12 -23 -35 -36 -39 -47 -29 -66 9 -16 7
-21 -9 -25 -11 -3 -20 -12 -20 -21 0 -15 -4 -18 -32 -20 -7 -1 -19 -9 -26 -18
-21 -29 -50 -22 -69 17 -13 27 -24 36 -52 41 -34 7 -34 7 -11 16 14 5 32 7 42
5 9 -3 19 0 21 7 2 6 3 3 2 -6 -4 -24 42 -65 57 -50 8 8 7 17 -6 34 -9 13 -27
39 -40 59 -14 20 -36 45 -49 56 -13 10 -27 29 -31 41 -4 12 -11 20 -15 18 -4
-3 -12 12 -17 34 -8 30 -8 37 2 33 22 -8 54 15 47 35 -3 9 -3 14 1 11 4 -4 20
7 36 23 l30 30 0 469 0 469 30 0 30 0 0 -442 c0 -385 2 -440 14 -428 8 8 24
36 35 62 15 36 17 48 7 51 -21 8 -35 86 -26 142 13 80 17 85 64 85 l42 0 17
-53 c9 -30 17 -62 17 -71 0 -10 6 -16 13 -14 9 4 13 82 15 337 l2 332 23 -3
c21 -3 22 -8 25 -112 3 -105 11 -138 36 -135 28 3 31 -6 32 -94 1 -69 0 -79
-5 -41 -6 50 -38 124 -53 124 -5 0 -8 -86 -8 -191 0 -170 2 -190 16 -185 9 3
22 6 30 6 8 0 14 8 14 18 0 15 6 17 35 14 44 -5 51 10 30 67 -8 24 -15 63 -15
87 0 43 1 44 33 43 17 0 25 -3 17 -6 -45 -15 -45 -15 -22 -24 35 -13 58 1 53
34 0 4 5 7 12 7 12 0 20 -42 19 -102 -1 -10 3 -18 8 -18 13 0 18 23 9 46 -10
29 0 38 18 16 7 -9 13 -12 12 -7 -4 28 3 27 21 -3 14 -22 18 -38 12 -45 -6 -7
-13 -26 -16 -43 -11 -48 -38 -68 -86 -61 -39 5 -39 5 -25 -16 8 -12 15 -30 15
-40 0 -10 4 -16 9 -13 5 3 7 15 4 25 -6 25 10 34 32 17 16 -11 16 -17 6 -47
l-11 -33 30 29 c22 21 30 38 30 62 0 26 4 33 20 33 11 0 20 7 20 15 0 9 6 12
15 9 9 -4 15 -19 15 -35 0 -22 7 -32 30 -44 l30 -16 0 331 0 330 25 0 25 0 0
-339 0 -338 29 -6 c17 -4 32 -14 35 -25 4 -11 26 -45 50 -76 25 -31 53 -80 63
-109 18 -52 18 -52 23 418 l5 470 22 3 23 3 2 -475 3 -475 24 18 24 18 5 457
5 456 38 0 c33 0 39 3 39 20 0 31 27 78 49 85 26 8 38 104 19 160 -10 32 -22
45 -57 62 l-44 22 -631 0 c-541 0 -635 -2 -658 -15z m22 -100 c0 -76 -2 -85
-17 -82 -13 2 -21 18 -27 55 -7 45 -6 55 13 82 12 17 24 31 27 31 2 0 4 -39 4
-86z m368 6 c3 -81 -5 -98 -37 -81 -18 10 -21 21 -21 81 0 57 3 69 18 73 32 9
37 0 40 -73z m229 72 c13 -9 30 -152 17 -152 -5 0 -19 -3 -31 -6 -22 -6 -23
-4 -23 73 0 91 6 105 37 85z m133 -71 c0 -47 -5 -83 -11 -87 -20 -12 -37 21
-44 88 -6 59 -5 67 11 71 43 11 44 10 44 -72z m245 -5 c8 -73 4 -86 -31 -86
-23 0 -24 2 -24 78 0 43 3 82 6 85 4 3 15 2 25 -3 13 -7 19 -27 24 -74z m115
-1 c0 -66 -3 -85 -14 -85 -24 0 -34 23 -41 92 -6 59 -5 67 11 71 43 11 44 10
44 -78z m-842 -7 l3 -78 -28 0 c-26 0 -28 3 -31 48 -2 26 0 62 3 80 5 27 10
33 28 30 20 -3 22 -9 25 -80z m1092 -14 c0 -43 -4 -55 -20 -64 -19 -10 -20 -8
-20 77 l1 88 19 -24 c15 -17 20 -38 20 -77z m-1190 56 c21 -38 29 -109 14
-121 -8 -6 -19 -29 -26 -50 -9 -33 -15 -39 -40 -39 -20 0 -28 5 -28 18 0 9 -9
32 -20 50 -31 50 -23 129 14 154 23 16 75 8 86 -12z m729 -4 c15 -18 24 -66
13 -66 -14 0 -62 58 -62 75 0 15 34 9 49 -9z m-429 7 c0 -3 -12 -26 -26 -50
-26 -45 -26 -45 -6 -66 26 -30 42 -61 42 -86 0 -34 -17 -24 -24 15 -4 19 -16
43 -27 52 -27 23 -26 95 1 122 20 20 40 26 40 13z m70 -13 c11 -11 20 -32 20
-47 l-1 -28 -34 37 c-19 21 -35 42 -35 48 0 17 29 11 50 -10z m285 -2 c-4 -13
-14 -34 -22 -47 -12 -19 -17 -21 -24 -10 -13 21 -11 40 8 61 23 26 46 24 38
-4z m443 -10 c23 -74 23 -88 3 -114 -11 -14 -23 -38 -26 -54 -5 -22 -12 -30
-28 -30 -17 0 -29 14 -50 58 -31 65 -34 100 -12 142 14 26 21 30 59 30 41 0
45 -2 54 -32z m-722 -107 c-9 -10 -20 -35 -23 -55 -3 -21 -11 -36 -19 -36 -17
0 -17 -2 1 51 17 48 47 87 53 69 2 -6 -3 -19 -12 -29z m294 -61 c0 -34 -19
-22 -30 19 -5 21 -17 42 -25 45 -8 3 -15 11 -15 18 1 21 70 -60 70 -82z m80
84 c0 -3 -9 -17 -20 -31 -11 -14 -20 -36 -20 -49 0 -12 -4 -26 -10 -29 -17
-11 -11 34 10 75 17 34 40 53 40 34z m75 -94 c1 -32 -3 -40 -17 -40 -23 0 -24
37 -1 62 9 10 17 18 17 18 1 0 1 -18 1 -40z m101 4 c7 -27 -1 -44 -21 -44 -12
0 -12 5 -3 25 8 19 8 28 -2 40 -11 13 -10 14 4 9 9 -3 19 -17 22 -30z m-825 8
c-6 -11 -6 -24 0 -35 8 -14 6 -17 -11 -17 -23 0 -28 38 -8 58 18 18 30 14 19
-6z m93 2 c11 -28 6 -54 -9 -54 -12 0 -14 4 -6 17 6 11 6 24 0 35 -6 11 -6 18
0 18 5 0 12 -7 15 -16z m262 -19 c0 -27 -3 -35 -18 -35 -21 0 -22 8 -8 44 13
36 25 32 26 -9z m104 -11 c0 -18 -6 -24 -21 -24 -18 0 -19 2 -9 15 7 8 10 24
7 36 -4 16 -3 18 9 8 8 -6 14 -22 14 -35z m-367 -101 c25 -80 26 -92 10 -139
-15 -44 -15 -44 -63 -44 -45 0 -49 2 -59 31 -15 45 -14 123 3 164 14 32 19 35
55 35 38 0 40 -1 54 -47z m215 -62 c-2 -60 0 -107 4 -105 13 8 20 -17 9 -30
-12 -14 -5 -46 10 -46 5 0 9 7 9 15 0 18 16 20 23 3 3 -7 6 -3 6 9 1 12 -2 23
-6 25 -5 2 -16 24 -25 50 -20 56 -6 75 26 37 45 -52 54 -54 70 -15 8 20 20 36
25 36 16 0 13 -42 -4 -66 -8 -12 -12 -24 -9 -26 2 -3 -2 -11 -11 -18 -8 -7
-15 -22 -14 -34 0 -20 1 -20 10 3 7 18 12 21 23 12 12 -10 14 -6 13 21 -1 22
2 32 11 31 8 -2 12 12 13 45 2 158 2 157 32 160 l27 3 0 -120 c0 -72 4 -121
10 -121 11 0 1 -32 -14 -42 -5 -3 -17 -26 -26 -50 -13 -34 -20 -42 -36 -38
-10 3 -58 5 -105 5 -86 0 -86 0 -100 30 -7 17 -12 49 -11 73 1 25 -3 40 -8 37
-6 -4 -10 37 -10 109 l0 116 31 0 30 0 -3 -109z m507 59 c20 -61 22 -95 6
-143 -12 -36 -14 -37 -61 -37 -45 0 -49 2 -59 31 -15 45 -14 123 3 164 14 32
19 35 55 35 38 0 40 -1 56 -50z m-425 33 c0 -16 -52 -93 -60 -88 -11 7 5 53
27 77 16 18 33 24 33 11z m53 -10 c18 -21 33 -73 21 -72 -11 0 -51 50 -60 73
-8 22 19 21 39 -1z m-434 -270 c-29 -50 -49 -72 -49 -55 0 31 44 89 68 92 2 0
-6 -17 -19 -37z m79 5 c5 -7 13 -27 17 -43 l6 -30 -35 39 c-40 43 -49 74 -18
57 10 -5 24 -16 30 -23z m648 5 c-8 -16 -21 -37 -30 -48 -13 -17 -15 -18 -16
-3 0 15 45 78 56 78 3 0 -2 -12 -10 -27z m56 16 c21 -11 53 -77 43 -88 -9 -8
-75 68 -75 86 0 16 5 16 32 2z m-245 -116 c-2 -16 -4 -3 -4 27 0 30 2 43 4 28
2 -16 2 -40 0 -55z m276 -50 c-22 -45 -42 -58 -76 -49 -27 6 -57 50 -57 82 0
25 30 -3 48 -46 l14 -34 14 32 c7 18 26 44 41 58 23 21 29 23 31 10 2 -9 -5
-33 -15 -53z m-806 -12 l14 -33 21 41 c11 23 30 46 41 52 19 11 20 9 13 -22
-8 -41 -42 -79 -71 -79 -29 0 -63 38 -71 80 l-7 35 23 -20 c12 -11 29 -35 37
-54z m533 -2 c0 -6 -4 -7 -10 -4 -5 3 -10 11 -10 16 0 6 5 7 10 4 6 -3 10 -11
10 -16z m266 -124 c16 -51 17 -61 3 -113 -11 -46 -18 -58 -36 -60 -28 -4 -30
13 -7 66 12 31 13 44 3 79 -16 60 -33 71 -49 33 -7 -16 -12 -48 -12 -70 0 -22
-1 -40 -3 -40 -2 0 -10 3 -19 6 -20 8 -20 34 1 101 l17 53 42 0 43 0 17 -55z
m-569 -417 c-3 -8 -6 -5 -6 6 -1 11 2 17 5 13 3 -3 4 -12 1 -19z m40 -20 c-3
-8 -6 -5 -6 6 -1 11 2 17 5 13 3 -3 4 -12 1 -19z m870 0 c-3 -8 -6 -5 -6 6 -1
11 2 17 5 13 3 -3 4 -12 1 -19z m-920 -20 c-3 -8 -6 -5 -6 6 -1 11 2 17 5 13
3 -3 4 -12 1 -19z m914 -125 c-15 -25 -33 -46 -56 -63 -11 -8 -2 6 20 32 43
51 52 58 36 31z m-21 4 c0 -2 -12 -14 -27 -28 l-28 -24 24 28 c23 25 31 32 31
24z m-1013 -39 c-3 -7 -5 -2 -5 12 0 14 2 19 5 13 2 -7 2 -19 0 -25z m1002
-54 c-6 -7 -15 -11 -21 -8 -5 3 -4 12 3 20 6 7 15 11 21 8 5 -3 4 -12 -3 -20z
m-80 -12 c12 -22 11 -23 -8 -12 -22 11 -26 22 -14 33 7 8 7 9 22 -21z m31 13
c0 -8 -4 -15 -10 -15 -5 0 -10 7 -10 15 0 8 5 15 10 15 6 0 10 -7 10 -15z
m-1300 -25 c0 -5 -9 -10 -21 -10 -11 0 -17 5 -14 10 3 6 13 10 21 10 8 0 14
-4 14 -10z m1240 -98 c0 -10 -59 -100 -70 -107 -13 -8 6 63 24 90 16 24 46 35
46 17z m51 -23 c9 -13 20 -37 23 -54 6 -29 6 -29 -10 -10 -28 35 -57 98 -43
93 7 -2 20 -15 30 -29z m-1301 4 c0 -13 -51 -93 -60 -93 -13 0 6 59 26 81 17
19 34 25 34 12z m63 -31 c10 -17 17 -40 15 -49 -3 -14 -10 -9 -31 22 -15 22
-27 46 -27 53 0 22 23 8 43 -26z m1258 -119 c-11 -40 -45 -82 -57 -70 -9 8 14
61 39 93 25 33 31 25 18 -23z m-1353 0 c10 -16 24 -41 29 -58 l11 -30 11 29
c14 36 50 86 61 86 12 0 -5 -66 -25 -96 -34 -52 -104 -15 -120 64 -8 40 7 42
33 5z m1358 -460 c28 -65 10 -68 -25 -4 -30 57 -31 62 -11 51 12 -6 28 -27 36
-47z m-1270 -14 c8 -17 14 -38 12 -47 -3 -12 -12 -5 -36 27 -18 24 -32 50 -32
58 0 23 37 -3 56 -38z m100 -84 c-4 -14 -2 -25 4 -25 5 0 10 5 10 10 0 6 5 10
10 10 6 0 10 -9 10 -20 0 -11 4 -20 9 -20 5 0 7 14 5 30 -3 18 -1 30 6 30 11
0 14 -7 24 -52 5 -21 12 -28 31 -28 22 0 25 4 25 35 0 28 4 35 19 35 10 0 24
-7 31 -15 7 -8 23 -15 36 -15 12 0 29 -9 37 -21 11 -15 24 -20 49 -18 36 3
108 -24 108 -40 0 -6 -7 -14 -15 -19 -14 -7 -13 -11 5 -27 11 -10 20 -31 20
-47 0 -15 5 -28 10 -28 6 0 10 -5 10 -11 0 -6 -9 -8 -20 -4 -18 6 -20 2 -20
-45 0 -28 5 -60 11 -72 15 -28 4 -33 -20 -9 -12 12 -28 21 -36 21 -19 0 -20
40 -1 85 8 19 11 35 5 35 -5 0 -9 13 -9 28 0 15 -6 34 -12 41 -11 10 -9 16 10
31 31 26 28 34 -14 27 -25 -4 -37 -2 -41 9 -8 20 -26 17 -21 -3 4 -16 -4 -18
-91 -15 -97 4 -149 21 -135 44 4 6 3 8 -3 5 -16 -10 -83 21 -83 37 0 14 26 46
37 46 3 0 2 -11 -1 -25z m1086 -43 l27 -53 19 43 c10 24 26 49 35 57 15 12 17
11 17 -11 0 -14 -10 -40 -23 -59 -42 -62 -107 -36 -123 50 -10 51 15 36 48
-27z m-312 16 c0 -4 -22 -19 -50 -33 l-49 -25 42 44 c38 41 56 45 57 14z m557
0 c-3 -8 -6 -5 -6 6 -1 11 2 17 5 13 3 -3 4 -12 1 -19z m-547 -30 c0 -6 -3 -8
-6 -5 -4 3 -16 2 -28 -4 -20 -10 -20 -10 -2 5 24 19 36 20 36 4z m-74 -33
c-11 -8 -25 -15 -30 -15 -6 1 0 7 14 15 32 19 40 18 16 0z m604 11 c0 -11 -19
-15 -25 -6 -3 5 1 10 9 10 9 0 16 -2 16 -4z m-65 -26 c3 -6 -1 -7 -9 -4 -18 7
-21 14 -7 14 6 0 13 -4 16 -10z m-588 -16 c-3 -3 -12 -4 -19 -1 -8 3 -5 6 6 6
11 1 17 -2 13 -5z m583 -4 c24 -15 7 -18 -20 -3 -14 7 -18 13 -10 13 8 0 22
-4 30 -10z m-67 -7 c-13 -2 -35 -2 -50 0 -16 2 -5 4 22 4 28 0 40 -2 28 -4z
m65 -31 c9 -14 10 -22 3 -22 -6 0 -11 7 -11 15 0 7 -8 19 -17 25 -10 6 -12 10
-4 8 8 -2 21 -14 29 -26z m-1020 -54 c27 -22 10 -29 -23 -9 -32 19 -38 19 -76
6 -36 -13 -40 -13 -29 -1 21 26 97 28 128 4z m652 -4 c12 -12 10 -12 -18 -5
-17 5 -36 12 -41 15 -5 4 -26 -4 -46 -15 l-37 -22 30 -13 c25 -10 52 -34 39
-34 -17 0 -66 24 -70 35 -8 18 19 53 46 58 32 6 80 -3 97 -19z m390 6 c0 -5
-9 -6 -20 -3 -11 3 -20 9 -20 13 0 5 9 6 20 3 11 -3 20 -9 20 -13z m-1362 -12
c35 -29 -10 -68 -80 -68 -50 0 -70 16 -61 50 9 35 105 47 141 18z m1268 10
c38 -14 48 -31 34 -59 -8 -15 -21 -19 -58 -19 -59 1 -103 29 -86 57 9 15 38
29 68 32 5 1 24 -4 42 -11z m154 -13 c0 -8 -7 -15 -15 -15 -16 0 -20 12 -8 23
11 12 23 8 23 -8z m-10 -65 c0 -17 -27 1 -39 26 -17 37 -14 40 14 10 14 -15
25 -31 25 -36z m50 45 c-7 -9 -15 -13 -17 -11 -7 7 7 26 19 26 6 0 6 -6 -2
-15z m-1220 -35 c0 -10 -27 -3 -47 13 -25 19 -13 27 17 12 17 -9 30 -20 30
-25z m731 16 c-13 -15 -51 -28 -51 -17 0 8 53 41 59 36 2 -3 -1 -11 -8 -19z
m-641 5 c0 -8 -53 -32 -69 -31 -3 1 5 10 18 20 24 21 51 26 51 11z m-425 -61
c-3 -5 -24 -15 -45 -21 -46 -14 -48 -19 -19 -58 l20 -27 50 24 c55 28 68 25
42 -7 -27 -33 -90 -39 -125 -11 -55 43 -20 106 60 109 13 1 20 -3 17 -9z m407
-16 c18 -39 -7 -78 -52 -82 l-35 -4 23 25 c19 20 21 28 13 50 -12 31 -23 34
-45 11 -19 -18 -21 -55 -4 -72 9 -9 6 -12 -13 -12 -50 0 -65 47 -27 87 17 18
32 23 75 23 48 0 55 -3 65 -26z m675 4 c40 -37 25 -88 -26 -88 -19 0 -22 3
-13 12 17 17 15 54 -4 72 -21 22 -29 20 -43 -10 -10 -24 -9 -30 11 -51 l23
-25 -35 4 c-45 4 -70 43 -52 82 10 23 17 26 64 26 39 0 57 -5 75 -22z m333 7
c37 -19 46 -49 26 -80 -16 -25 -36 -33 -36 -16 0 4 9 20 20 34 l21 26 -37 16
c-20 8 -40 15 -45 15 -4 0 -11 5 -14 10 -9 15 32 12 65 -5z m-1360 -25 c0 -15
-5 -12 -26 11 -19 22 -19 22 4 10 12 -6 22 -16 22 -21z m1274 15 c-4 -9 -15
-20 -26 -26 -16 -9 -19 -8 -13 3 22 37 51 55 39 23z m-1567 -30 c15 -32 15
-36 0 -53 -20 -22 -14 -50 15 -70 10 -7 18 -25 18 -40 0 -27 -29 -118 -30 -94
0 7 -8 22 -18 33 -21 21 -36 50 -51 91 -7 19 -21 30 -48 38 -35 11 -38 14 -37
48 1 21 6 37 13 36 6 -1 17 -2 25 -2 8 -1 16 -12 19 -24 4 -13 13 -32 22 -43
15 -19 15 -17 10 27 -3 26 -8 54 -11 62 -5 13 1 16 49 25 4 0 15 -15 24 -34z
m1595 -41 c15 -8 30 -19 34 -25 11 -19 -65 -3 -87 17 -41 37 -12 41 53 8z
m-702 1 c10 -13 9 -15 -11 -15 -13 0 -33 7 -43 15 -19 14 -18 15 11 15 17 0
36 -7 43 -15z m105 -105 c0 -32 -3 -35 -30 -37 -16 -1 -23 0 -15 4 61 24 40
53 -40 53 -37 0 -62 -5 -69 -14 -8 -10 -9 -16 -1 -21 16 -10 12 -25 -5 -19 -9
4 -15 19 -15 40 l0 35 88 -3 87 -3 0 -35z m-715 11 c0 -32 -11 -51 -29 -50
-10 0 -11 2 -3 6 19 7 14 31 -9 44 -26 13 -106 7 -122 -11 -9 -9 -7 -15 7 -26
19 -14 19 -14 -2 -14 -18 0 -22 6 -22 35 l0 35 90 0 c82 0 90 -2 90 -19z m250
10 c-25 -14 -70 -22 -70 -13 0 16 13 22 49 22 25 -1 31 -3 21 -9z m110 -31 l0
-40 -90 0 c-84 0 -90 1 -90 20 0 17 4 19 28 14 15 -4 35 -11 44 -15 15 -8 30
-5 88 17 10 4 2 12 -25 24 l-40 19 43 0 42 1 0 -40z m585 20 l-40 -19 30 -11
c17 -6 35 -12 41 -15 7 -2 31 3 54 11 46 16 56 14 47 -11 -5 -12 -24 -15 -92
-15 l-85 0 0 40 0 40 43 -1 42 -1 -40 -18z m135 4 c0 -12 -7 -14 -32 -9 -59
13 -66 24 -15 25 36 0 47 -4 47 -16z m360 -19 c0 -29 -4 -35 -22 -35 -21 0
-21 0 -2 14 14 11 16 17 7 26 -16 18 -96 24 -122 11 -23 -13 -28 -37 -8 -44 6
-3 2 -6 -10 -6 -20 -1 -23 4 -23 34 l0 35 90 0 90 0 0 -35z m290 -115 c8 -5
11 -10 5 -10 -5 0 -17 5 -25 10 -8 5 -10 10 -5 10 6 0 17 -5 25 -10z m-2238
-22 c-7 -7 -12 -8 -12 -2 0 14 12 26 19 19 2 -3 -1 -11 -7 -17z m2333 -8 c13
-5 14 -9 5 -9 -8 0 -24 4 -35 9 -13 5 -14 9 -5 9 8 0 24 -4 35 -9z m-170 -18
c-3 -3 -11 0 -18 7 -9 10 -8 11 6 5 10 -3 15 -9 12 -12z"/>
<path d="M2090 9966 c-10 -35 -10 -52 0 -83 18 -55 26 -59 44 -25 19 36 20 77
5 121 -15 44 -34 39 -49 -13z"/>
<path d="M3175 9975 c-17 -40 -16 -76 4 -128 14 -35 27 -28 42 22 13 43 6 97
-15 127 -14 18 -16 17 -31 -21z"/>
<path d="M2271 9689 c-6 -18 -11 -46 -11 -62 0 -34 20 -97 31 -97 4 0 15 20
25 45 14 38 15 52 5 84 -6 21 -17 44 -25 50 -11 9 -16 5 -25 -20z"/>
<path d="M2650 9470 c0 -5 5 -10 10 -10 6 0 10 5 10 10 0 6 -4 10 -10 10 -5 0
-10 -4 -10 -10z"/>
<path d="M2740 9459 c0 -5 5 -7 10 -4 6 3 10 8 10 11 0 2 -4 4 -10 4 -5 0 -10
-5 -10 -11z"/>
<path d="M2560 9420 c0 -11 6 -20 13 -20 19 0 27 10 20 26 -8 21 -33 17 -33
-6z"/>
<path d="M2650 9424 c0 -8 5 -12 10 -9 6 3 10 10 10 16 0 5 -4 9 -10 9 -5 0
-10 -7 -10 -16z"/>
<path d="M2730 9414 c0 -8 5 -12 10 -9 6 3 10 10 10 16 0 5 -4 9 -10 9 -5 0
-10 -7 -10 -16z"/>
<path d="M2991 9689 c-6 -18 -11 -43 -11 -57 0 -29 21 -92 30 -92 17 0 42 79
35 111 -16 73 -37 88 -54 38z"/>
<path d="M1992 7431 c-18 -11 -11 -55 8 -59 9 -1 24 4 35 12 16 12 18 18 9 33
-13 21 -33 27 -52 14z"/>
<path d="M3282 7428 c-18 -18 -15 -36 9 -48 28 -16 49 -5 49 24 0 32 -35 47
-58 24z"/>
<path d="M3585 10020 c-24 -9 -36 -24 -53 -62 -10 -24 -9 -30 10 -48 13 -12
34 -20 52 -19 l31 1 -29 7 c-38 8 -50 29 -37 64 19 48 99 60 143 20 23 -21 23
-29 -2 -36 -11 -3 -20 -11 -20 -19 0 -10 2 -10 9 1 12 18 41 7 41 -16 0 -15 2
-16 10 -3 5 9 5 19 -1 27 -6 7 -8 16 -5 21 7 12 -32 48 -67 61 -33 13 -54 13
-82 1z"/>
<path d="M3740 10001 c0 -6 4 -13 10 -16 6 -3 7 1 4 9 -7 18 -14 21 -14 7z"/>
<path d="M3762 9950 c0 -14 2 -19 5 -12 2 6 2 18 0 25 -3 6 -5 1 -5 -13z"/>
<path d="M1573 9933 c9 -2 25 -2 35 0 9 3 1 5 -18 5 -19 0 -27 -2 -17 -5z"/>
<path d="M3761 9910 c0 -8 4 -24 9 -35 l9 -20 0 20 c0 11 -4 27 -9 35 -9 13
-10 13 -9 0z"/>
<path d="M3522 9880 c7 -10 14 -18 15 -16 6 6 -9 36 -18 36 -5 0 -4 -9 3 -20z"/>
<path d="M1711 9848 c-1 -21 4 -38 9 -38 12 0 12 27 0 55 -7 16 -9 13 -9 -17z"/>
<path d="M1470 9851 c-6 -11 -6 -22 -1 -25 5 -3 11 5 13 19 6 30 2 32 -12 6z"/>
<path d="M1519 9853 c-13 -16 -12 -17 4 -4 16 13 21 21 13 21 -2 0 -10 -8 -17
-17z"/>
<path d="M1604 9854 c9 -8 16 -20 16 -26 0 -6 3 -9 6 -6 8 9 -14 48 -27 48 -6
0 -3 -7 5 -16z"/>
<path d="M3535 9835 c4 -11 9 -27 12 -37 5 -18 40 -31 49 -17 3 5 -2 9 -11 9
-8 0 -25 15 -36 33 -12 17 -18 23 -14 12z"/>
<path d="M1558 9813 c6 -2 12 -11 12 -19 0 -16 19 -18 40 -3 12 8 9 9 -9 4
-19 -6 -23 -4 -18 9 5 12 1 16 -16 15 -12 0 -16 -3 -9 -6z"/>
<path d="M3648 9805 c-4 -11 -9 -35 -13 -52 -8 -41 -34 -45 -29 -5 2 15 1 20
-2 12 -7 -16 -24 -30 -36 -30 -4 0 -14 12 -22 28 -8 15 -15 20 -15 12 -1 -25
12 -38 53 -55 34 -14 38 -19 34 -46 -3 -19 -1 -26 5 -20 5 5 9 22 9 38 0 15 7
41 15 56 8 16 13 40 11 55 -3 24 -4 24 -10 7z"/>
<path d="M3764 9793 c-4 -16 -9 -32 -13 -38 -3 -5 -4 -20 -2 -33 2 -15 -4 -25
-21 -31 -13 -6 -18 -10 -13 -11 6 -1 20 -3 33 -6 15 -2 21 0 17 6 -4 6 -2 17
4 24 8 10 7 17 -4 26 -13 11 -13 14 -1 24 19 14 32 66 17 66 -6 0 -14 -12 -17
-27z"/>
<path d="M1610 9739 c0 -13 -4 -18 -12 -13 -7 4 -8 3 -4 -5 11 -17 37 6 29 25
-7 20 -13 17 -13 -7z"/>
<path d="M1485 9726 c8 -38 28 -56 62 -56 l28 1 -32 14 c-17 7 -39 26 -48 42
l-16 28 6 -29z"/>
<path d="M4224 9718 c-18 -18 -36 -42 -42 -53 -9 -18 -7 -21 10 -21 24 0 72
66 66 91 -2 13 -10 9 -34 -17z"/>
<path d="M1675 9710 c-10 -11 -28 -20 -39 -20 -20 -1 -20 -1 -2 -11 15 -9 23
-6 44 15 14 14 24 28 21 31 -3 3 -14 -4 -24 -15z"/>
<path d="M4346 9685 c-15 -23 -15 -30 4 -104 24 -95 24 -91 6 -91 -15 0 -19
-10 -31 -67 -5 -26 -3 -33 9 -33 19 0 20 -11 5 -64 -8 -30 -8 -41 2 -47 8 -4
15 -6 18 -4 2 3 8 53 13 112 5 60 11 136 14 170 7 68 -2 153 -15 153 -5 0 -16
-11 -25 -25z"/>
<path d="M1585 9651 c3 -5 -5 -17 -17 -25 l-22 -16 26 0 c15 0 29 4 32 9 8 12
-4 41 -16 41 -5 0 -7 -4 -3 -9z"/>
<path d="M1620 9612 c0 -20 38 -34 60 -22 27 14 25 18 -5 12 -14 -2 -32 1 -40
8 -10 8 -15 9 -15 2z"/>
<path d="M1209 9599 c-11 -7 -11 -9 4 -9 9 0 16 -4 15 -9 -2 -5 9 -20 25 -34
35 -34 35 -11 -1 30 -21 23 -32 29 -43 22z"/>
<path d="M1270 9483 c0 -22 15 -26 15 -5 0 4 4 13 8 20 5 8 3 12 -7 12 -11 0
-16 -9 -16 -27z"/>
<path d="M1882 9470 c0 -14 2 -19 5 -12 2 6 2 18 0 25 -3 6 -5 1 -5 -13z"/>
<path d="M1620 9463 c0 -6 -10 -13 -22 -17 -19 -5 -20 -8 -8 -15 10 -7 18 -4
28 10 8 11 11 23 8 26 -3 4 -6 2 -6 -4z"/>
<path d="M3710 9436 c0 -8 5 -18 10 -21 6 -3 10 3 10 14 0 12 -4 21 -10 21 -5
0 -10 -6 -10 -14z"/>
<path d="M1892 9400 c0 -14 2 -19 5 -12 2 6 2 18 0 25 -3 6 -5 1 -5 -13z"/>
<path d="M1620 9402 c0 -7 -9 -12 -20 -12 -11 0 -20 -4 -20 -9 0 -12 49 -11
56 1 4 5 1 15 -5 21 -8 8 -11 8 -11 -1z"/>
<path d="M1902 9325 c0 -16 2 -22 5 -12 2 9 2 23 0 30 -3 6 -5 -1 -5 -18z"/>
<path d="M4190 9309 c-7 -15 -9 -38 -4 -51 4 -12 7 -35 6 -50 0 -14 6 -29 14
-32 21 -8 17 -63 -8 -98 -17 -22 -19 -32 -10 -35 6 -3 12 -9 12 -14 0 -6 -4
-7 -10 -4 -5 3 -10 4 -10 1 0 -3 17 -14 38 -25 65 -33 45 -81 -42 -101 -40 -9
-46 0 -44 58 1 30 4 33 24 28 21 -6 23 -4 15 16 -9 24 -11 32 -11 47 0 5 -18
17 -40 27 -21 10 -37 20 -35 23 2 4 -8 11 -21 18 -28 13 -31 6 -6 -14 9 -8 12
-12 6 -9 -15 7 -34 -37 -24 -54 5 -8 6 -18 4 -22 -3 -4 -1 -8 5 -8 5 0 15 8
21 18 9 14 10 13 4 -8 -4 -14 -9 -31 -11 -37 -3 -7 0 -13 6 -13 6 0 11 4 11 9
0 5 7 17 16 26 13 12 14 19 4 30 -10 12 -10 15 2 15 8 0 15 -12 16 -30 1 -19
-2 -29 -10 -28 -6 2 -13 -6 -15 -17 -3 -15 -2 -16 5 -7 7 11 10 10 16 -3 11
-29 7 -41 -34 -114 -22 -39 -40 -73 -40 -76 0 -12 28 -4 33 9 3 8 17 32 31 54
24 38 27 40 61 32 20 -4 35 -4 35 1 0 5 6 9 13 9 17 0 93 98 127 161 14 29 29
45 37 42 22 -8 16 50 -7 70 -11 9 -20 14 -20 10 0 -4 -5 -2 -10 3 -7 7 -6 23
4 51 14 39 13 41 -5 46 -12 3 -19 0 -19 -8 0 -27 -23 -63 -36 -58 -11 4 -10
11 6 33 25 36 26 66 1 80 -23 12 -42 13 -23 2 10 -7 10 -18 0 -55 -7 -26 -17
-46 -23 -44 -10 4 -10 13 1 78 5 33 4 37 -19 41 -21 4 -28 0 -37 -23z m17 -41
c-3 -7 -5 -2 -5 12 0 14 2 19 5 13 2 -7 2 -19 0 -25z m91 -124 c-3 -14 -5 -12
-10 9 -3 19 -2 25 4 19 6 -6 8 -18 6 -28z m14 -31 c-6 -10 -26 -33 -46 -51
-20 -18 -36 -37 -36 -42 0 -6 -4 -10 -10 -10 -5 0 -7 7 -3 16 3 9 0 20 -8 26
-10 7 -8 8 9 3 13 -4 22 -2 22 4 0 6 -4 11 -10 11 -5 0 -7 7 -4 15 5 11 10 13
19 5 9 -7 20 -3 41 18 33 31 40 33 26 5z m3 -71 c-3 -3 -11 0 -18 7 -9 10 -8
11 6 5 10 -3 15 -9 12 -12z m-160 -40 c-3 -3 -11 0 -18 7 -9 10 -8 11 6 5 10
-3 15 -9 12 -12z"/>
<path d="M976 9300 c10 -60 37 -139 46 -134 4 3 4 14 -2 24 -5 10 -10 29 -11
42 0 13 -9 41 -20 63 l-19 40 6 -35z"/>
<path d="M1912 9255 c0 -16 2 -22 5 -12 2 9 2 23 0 30 -3 6 -5 -1 -5 -18z"/>
<path d="M4065 9239 c3 -4 -2 -13 -11 -20 -14 -12 -13 -14 7 -21 25 -10 40 -1
20 11 -10 7 -8 10 8 16 13 4 20 10 17 13 -9 8 -46 10 -41 1z"/>
<path d="M2626 9222 c-2 -4 13 -7 35 -7 21 0 39 3 39 7 0 5 -15 8 -34 8 -19 0
-37 -3 -40 -8z"/>
<path d="M4106 9212 c-2 -4 10 -8 29 -8 19 0 31 4 29 8 -3 4 -16 8 -29 8 -13
0 -26 -4 -29 -8z"/>
<path d="M1262 9178 c3 -33 1 -34 -39 -29 -13 2 -11 5 7 11 22 6 23 8 8 15
-33 14 -48 -1 -47 -47 2 -30 3 -35 6 -15 4 28 17 35 28 17 4 -6 15 -8 26 -5
10 4 19 2 19 -3 0 -6 6 -12 14 -15 11 -5 13 2 10 31 -6 51 -14 72 -25 72 -6 0
-9 -15 -7 -32z"/>
<path d="M2271 9169 c-14 -41 -14 -78 0 -118 14 -41 30 -35 48 16 13 37 13 45
-3 87 -10 25 -21 46 -26 46 -4 0 -13 -14 -19 -31z"/>
<path d="M4050 9180 c0 -5 5 -10 10 -10 6 0 10 5 10 10 0 6 -4 10 -10 10 -5 0
-10 -4 -10 -10z"/>
<path d="M4110 9173 c0 -10 4 -14 8 -8 4 6 11 13 16 18 5 4 2 7 -7 7 -10 0
-17 -8 -17 -17z"/>
<path d="M1103 9173 c-7 -2 -13 -8 -13 -12 0 -10 59 -1 66 10 5 9 -32 11 -53
2z"/>
<path d="M1640 9163 c-24 -12 -24 -13 -3 -13 12 0 25 5 28 11 11 16 2 17 -25
2z"/>
<path d="M2670 9160 c0 -5 5 -10 11 -10 5 0 7 5 4 10 -3 6 -8 10 -11 10 -2 0
-4 -4 -4 -10z"/>
<path d="M1021 9151 c-17 -11 -16 -22 4 -34 12 -6 15 -16 10 -34 -3 -14 -2
-22 3 -19 6 3 12 -6 15 -20 l4 -25 -19 21 c-25 27 -31 25 -24 -7 3 -16 8 -44
11 -63 4 -19 15 -80 26 -135 10 -55 19 -101 19 -102 0 -1 7 0 15 3 10 4 12 11
6 22 -14 27 -20 112 -8 112 5 0 3 8 -6 18 -10 10 -17 24 -17 30 0 7 -5 12 -10
12 -7 0 -6 8 2 23 7 12 11 30 9 40 -2 12 13 3 44 -27 25 -25 55 -46 66 -46 26
0 24 -28 -3 -40 -19 -8 -15 -10 20 -7 32 2 41 -1 37 -11 -3 -8 -5 -16 -5 -18
0 -2 -19 -5 -42 -5 -39 -1 -40 -2 -13 -8 23 -4 32 -14 40 -38 5 -18 15 -33 22
-33 16 0 16 -1 2 39 -10 28 -9 35 12 57 l23 25 13 -45 c7 -24 20 -46 28 -50
18 -6 19 3 4 41 -6 15 -15 57 -20 93 -10 72 -26 151 -28 135 -1 -5 -5 -17 -11
-25 -7 -12 -12 -12 -29 4 -11 10 -17 25 -14 34 4 14 3 15 -5 2 -6 -8 -8 -19
-4 -25 3 -5 -1 -5 -9 2 -12 10 -20 9 -37 -3 -12 -8 -20 -19 -17 -24 3 -4 -2
-10 -9 -13 -23 -9 -76 58 -76 96 0 40 -11 59 -29 48z m186 -181 l1 -35 -14 30
-14 30 5 -30 5 -30 -15 25 -16 25 6 -30 c4 -24 3 -27 -5 -12 -6 9 -16 14 -22
11 -7 -5 -8 -2 -2 7 5 8 7 22 6 31 -2 13 4 16 31 15 31 -2 33 -5 34 -37z"/>
<path d="M1103 9143 c-20 -7 -15 -19 7 -19 11 0 20 6 20 13 0 14 -6 15 -27 6z"/>
<path d="M2770 9144 c0 -5 7 -19 15 -30 15 -20 20 -38 8 -31 -5 3 -13 -1 -20
-8 -10 -10 -9 -16 2 -25 8 -7 15 -17 15 -23 0 -6 -6 -3 -13 8 -8 10 -19 15
-25 11 -14 -8 -12 -68 2 -63 6 2 10 11 10 19 -1 9 6 15 15 14 11 -1 15 6 14
22 -2 13 1 21 7 17 6 -4 7 1 3 12 -6 16 -5 16 10 4 10 -8 17 -9 17 -3 0 6 -5
14 -11 18 -6 3 -19 20 -30 38 -10 17 -19 26 -19 20z"/>
<path d="M2580 9112 c0 -12 8 -34 17 -49 10 -14 18 -32 19 -40 2 -8 11 -21 21
-29 15 -11 16 -15 4 -23 -24 -15 -5 -44 24 -37 18 5 25 2 25 -9 0 -8 -5 -15
-11 -15 -6 0 -1 -17 11 -37 25 -42 21 -107 -5 -97 -20 8 -32 -25 -14 -37 8 -5
9 -9 3 -9 -7 0 -14 -13 -16 -30 -5 -35 2 -38 20 -10 7 12 18 17 29 14 16 -5
15 -3 -1 10 -11 9 -15 16 -9 16 13 0 35 -25 28 -32 -3 -3 -1 -18 5 -33 9 -24
8 -27 -8 -23 -10 3 -26 0 -35 -7 -15 -11 -16 -14 -2 -25 13 -11 14 -10 9 4
-12 31 5 16 65 -58 58 -71 73 -95 51 -81 -5 3 -21 0 -35 -8 -25 -12 -25 -14
-9 -28 16 -13 17 -12 11 5 -7 17 -6 17 10 5 15 -12 16 -12 10 5 -6 16 -5 17 8
6 11 -9 15 -9 15 -1 0 7 5 9 10 6 6 -3 10 -1 10 5 0 6 4 9 9 5 5 -3 16 4 24
15 7 11 17 17 22 12 4 -4 1 4 -6 18 -8 14 -18 28 -24 32 -6 5 -4 8 5 8 11 0 9
4 -5 12 -34 20 -49 19 -30 -3 10 -10 20 -35 22 -56 l4 -37 -51 65 c-29 35 -54
66 -58 69 -14 13 15 -30 50 -71 38 -47 50 -72 24 -50 -7 6 -34 38 -60 70 -42
54 -44 60 -24 59 13 -1 28 -5 33 -9 6 -4 11 5 12 24 0 18 -1 26 -4 19 -7 -19
-43 63 -43 99 0 42 18 45 57 8 54 -53 57 -63 28 -105 -14 -20 -22 -41 -18 -46
3 -6 10 -3 16 8 5 11 21 31 35 46 l25 27 -41 40 c-22 22 -46 49 -52 60 -6 12
-18 21 -28 22 -10 0 -12 3 -5 6 8 3 9 9 3 16 -60 74 -61 76 -50 96 16 31 -14
90 -63 126 -23 17 -47 42 -54 55 -13 25 -13 25 -13 2z m115 -139 c4 -14 2 -23
-4 -23 -6 0 -11 4 -11 9 0 5 -7 17 -16 25 -8 9 -12 21 -8 27 8 14 29 -7 39
-38z"/>
<path d="M4401 9083 c-1 -12 4 -25 9 -28 12 -7 12 2 0 30 -8 19 -9 19 -9 -2z"/>
<path d="M4425 9068 c4 -13 11 -27 16 -33 5 -5 4 5 -2 23 -12 36 -24 44 -14
10z"/>
<path d="M946 9015 c-3 -8 -2 -15 3 -15 5 0 14 7 21 15 10 12 10 15 -3 15 -8
0 -17 -7 -21 -15z"/>
<path d="M1294 9008 c-9 -14 13 -42 36 -43 19 -2 20 0 9 9 -8 6 -13 18 -11 27
3 16 -25 22 -34 7z"/>
<path d="M2540 8996 c0 -16 57 -39 73 -29 5 3 -5 14 -24 24 -42 22 -49 23 -49
5z"/>
<path d="M4356 8985 c-9 -26 -7 -32 5 -12 6 10 9 21 6 23 -2 3 -7 -2 -11 -11z"/>
<path d="M4220 8980 c8 -5 20 -10 25 -10 6 0 3 5 -5 10 -8 5 -19 10 -25 10 -5
0 -3 -5 5 -10z"/>
<path d="M4416 8982 c-3 -5 3 -31 13 -58 24 -65 35 -189 20 -234 -6 -19 -31
-61 -55 -93 -24 -31 -44 -59 -44 -62 0 -3 7 -17 16 -30 l16 -25 20 22 c10 12
16 28 13 35 -2 8 -1 12 3 9 13 -8 41 61 29 73 -7 7 -2 13 14 20 21 8 27 20 41
93 9 46 14 97 10 113 -7 40 -64 123 -80 118 -7 -3 -10 1 -6 11 6 17 -1 22 -10
8z"/>
<path d="M4363 8920 c-12 -27 -18 -52 -13 -55 7 -4 16 13 47 93 3 6 1 12 -3
12 -5 0 -19 -23 -31 -50z"/>
<path d="M2910 8952 c0 -5 7 -15 15 -22 18 -15 20 -34 3 -23 -7 4 -5 -5 5 -20
10 -15 15 -31 13 -36 -7 -10 18 -33 27 -25 3 3 10 -4 17 -15 6 -12 16 -21 22
-21 6 0 -6 20 -27 46 -20 25 -35 48 -32 51 7 7 -18 59 -33 68 -5 3 -10 2 -10
-3z"/>
<path d="M1325 8920 c-3 -5 1 -10 10 -10 9 0 13 5 10 10 -3 6 -8 10 -10 10 -2
0 -7 -4 -10 -10z"/>
<path d="M4020 8879 c-22 -29 -59 -84 -82 -123 -48 -82 -108 -164 -108 -147 0
6 -4 11 -9 11 -9 0 -16 -10 -52 -77 -15 -29 -5 -53 22 -53 22 0 22 0 3 -21
l-18 -21 -9 26 c-5 14 -13 26 -19 26 -6 0 -7 -7 -4 -16 3 -8 2 -12 -3 -9 -5 3
-13 -4 -16 -16 -4 -12 -20 -42 -35 -66 -16 -25 -26 -52 -23 -61 4 -8 2 -13 -3
-9 -6 3 -15 -7 -21 -23 -9 -23 -8 -32 3 -41 8 -6 14 -19 13 -28 0 -11 -4 -9
-11 7 -7 13 -24 26 -40 29 -15 3 -28 12 -28 19 0 18 -14 18 -30 -1 -9 -11 -9
-15 -1 -15 7 0 10 -4 6 -10 -4 -6 -15 -6 -30 0 -14 5 -25 6 -25 1 0 -5 9 -11
20 -14 11 -3 20 -10 20 -17 0 -7 -8 -9 -20 -5 -11 4 -20 2 -20 -4 0 -6 15 -11
33 -12 l32 -1 -30 -13 c-23 -11 -26 -14 -10 -15 11 0 16 -4 10 -8 -6 -4 -8
-47 -4 -112 l5 -105 3 100 c2 68 6 92 11 75 l8 -25 1 25 c1 16 4 20 9 13 5 -8
13 -9 22 -3 13 9 13 10 0 10 -8 1 7 12 33 26 27 14 51 23 53 21 3 -2 -4 -26
-14 -53 -11 -27 -22 -85 -26 -129 -6 -69 -4 -85 14 -120 11 -21 20 -46 21 -55
1 -8 7 4 14 28 8 24 11 50 8 59 -4 11 -2 14 5 9 7 -4 12 -1 12 8 0 8 -5 18
-10 21 -7 4 -6 14 1 28 10 21 9 21 -10 -2 -12 -13 -21 -18 -21 -12 0 6 9 20
20 31 12 12 18 26 14 32 -4 7 -3 8 4 4 7 -4 12 -3 12 2 0 19 61 36 90 25 21
-8 27 -8 24 1 -4 11 88 56 115 56 10 0 7 8 -9 25 -26 28 -17 34 12 8 10 -9 18
-14 18 -11 0 2 -16 18 -36 36 -32 28 -35 29 -29 9 6 -21 6 -21 -9 -3 -9 11
-16 15 -16 9 0 -7 7 -19 16 -27 8 -9 11 -16 5 -16 -5 0 -17 10 -25 22 -9 12
-16 17 -16 11 0 -7 -7 -10 -15 -7 -21 9 -19 -6 7 -33 12 -13 19 -23 15 -23 -3
0 -17 11 -30 25 -22 24 -25 25 -55 12 -18 -7 -30 -15 -28 -18 2 -2 -13 -5 -35
-6 -38 -2 -38 -2 -27 23 9 18 14 21 20 12 6 -9 7 -6 3 8 -8 30 7 43 156 131
l129 76 0 38 c0 46 -10 49 -33 10 -33 -56 -117 -114 -117 -81 0 6 -7 10 -16
10 -10 0 -14 -6 -10 -15 7 -19 1 -19 -29 1 l-24 16 15 -32 c9 -17 14 -32 13
-33 -51 -33 -89 -62 -89 -68 0 -5 -4 -9 -9 -9 -5 0 -8 11 -7 24 2 14 -3 27
-11 30 -11 5 -9 14 9 46 13 22 30 40 39 40 9 0 39 27 68 60 29 33 59 60 67 60
8 0 13 4 10 9 -10 16 21 32 48 25 16 -4 33 -1 44 7 9 7 4 -1 -11 -17 -23 -26
-25 -33 -14 -42 18 -15 69 7 62 26 -3 8 -5 41 -5 74 0 56 -1 59 -17 47 -10 -7
-8 -2 5 12 12 14 22 28 22 32 0 12 -23 7 -41 -9 -13 -11 -27 -14 -49 -9 l-31
7 24 31 c13 18 36 56 51 85 18 36 32 52 46 52 15 0 19 6 18 23 -1 13 8 38 21
55 36 51 15 37 -29 -19z m-113 -267 c8 -5 -3 -23 -35 -58 -26 -28 -46 -48 -45
-46 1 3 -4 14 -12 26 -15 20 -21 45 -9 33 3 -3 17 7 31 24 25 29 47 36 70 21z
m68 -32 c-3 -5 -16 -15 -28 -21 -19 -9 -19 -8 3 10 28 23 34 26 25 11z m-181
-36 c3 -8 2 -12 -4 -9 -6 3 -10 10 -10 16 0 14 7 11 14 -7z m-115 -280 c3 -16
1 -17 -13 -5 -19 16 -21 34 -3 29 6 -3 14 -13 16 -24z m142 -111 c13 -16 12
-17 -3 -4 -10 7 -18 15 -18 17 0 8 8 3 21 -13z m60 0 c13 -16 12 -17 -3 -4
-10 7 -18 15 -18 17 0 8 8 3 21 -13z m35 -18 c-11 -8 -25 -15 -30 -15 -6 1 0
7 14 15 32 19 40 18 16 0z m-179 -31 c-3 -3 -12 -4 -19 -1 -8 3 -5 6 6 6 11 1
17 -2 13 -5z m60 -10 c-3 -3 -12 -4 -19 -1 -8 3 -5 6 6 6 11 1 17 -2 13 -5z
m-150 -146 c-3 -8 -6 -5 -6 6 -1 11 2 17 5 13 3 -3 4 -12 1 -19z m36 -28 c3
-11 1 -18 -4 -14 -5 3 -9 12 -9 20 0 20 7 17 13 -6z"/>
<path d="M4325 8919 c-4 -6 -5 -12 -2 -15 2 -3 7 2 10 11 7 17 1 20 -8 4z"/>
<path d="M1323 8893 c9 -2 23 -2 30 0 6 3 -1 5 -18 5 -16 0 -22 -2 -12 -5z"/>
<path d="M1325 8860 c4 -6 11 -8 16 -5 14 9 11 15 -7 15 -8 0 -12 -5 -9 -10z"/>
<path d="M3320 8850 c0 -5 5 -10 11 -10 5 0 7 5 4 10 -3 6 -8 10 -11 10 -2 0
-4 -4 -4 -10z"/>
<path d="M4214 8851 c4 -6 3 -11 -1 -11 -5 0 -9 -9 -10 -20 -1 -11 2 -20 7
-20 5 0 7 -8 4 -17 -5 -15 -4 -15 4 -3 8 10 7 19 -1 29 -10 12 -9 14 7 8 17
-7 17 -6 5 10 -12 15 -12 16 4 10 24 -9 21 0 -4 14 -15 8 -19 8 -15 0z"/>
<path d="M3268 8843 c7 -3 16 -2 19 1 4 3 -2 6 -13 5 -11 0 -14 -3 -6 -6z"/>
<path d="M4350 8835 c-6 -8 -9 -19 -5 -25 11 -18 23 -11 21 15 -1 29 0 29 -16
10z"/>
<path d="M2895 8798 c-4 -16 -11 -25 -16 -23 -4 3 -3 -8 2 -25 6 -16 15 -30
19 -30 14 0 21 54 11 81 l-9 24 -7 -27z m10 -38 c-4 -12 -9 -19 -12 -17 -3 3
-2 15 2 27 4 12 9 19 12 17 3 -3 2 -15 -2 -27z"/>
<path d="M2626 8775 c-9 -26 -7 -32 5 -12 6 10 9 21 6 23 -2 3 -7 -2 -11 -11z"/>
<path d="M895 8682 c12 -167 26 -262 51 -359 31 -114 63 -183 130 -273 69 -94
71 -95 78 -56 5 27 -1 49 -30 107 -34 67 -35 73 -19 85 15 11 23 6 62 -39 62
-71 69 -77 47 -43 l-19 30 25 -7 c14 -4 34 -7 44 -7 18 0 18 -2 -4 -25 -23
-24 -23 -25 -5 -45 13 -15 18 -33 16 -59 -1 -21 5 -55 13 -76 19 -44 19 -45 7
-45 -4 0 -20 28 -35 61 -15 34 -29 59 -33 56 -3 -4 -1 -12 4 -19 6 -7 13 -22
15 -33 3 -11 13 -37 22 -57 26 -61 4 -43 -29 22 -16 33 -33 60 -37 60 -7 0 6
-33 36 -89 10 -18 13 -30 7 -27 -6 4 -11 3 -11 -1 0 -20 27 -33 70 -33 41 0
48 -3 59 -27 10 -24 10 -26 -2 -10 -8 9 -17 17 -20 17 -8 0 -1 -106 8 -120 3
-6 8 -32 11 -58 10 -110 54 -306 73 -325 6 -6 16 2 28 19 10 16 32 42 50 58
30 29 31 32 17 61 -14 28 -13 29 2 8 14 -20 17 -21 35 -5 10 9 19 22 19 29 0
7 5 13 10 13 7 0 7 6 2 18 -5 9 -7 22 -5 29 2 6 -3 26 -12 43 -9 18 -14 34
-12 37 3 2 1 18 -5 33 -6 19 -16 28 -29 27 -34 -2 -37 -57 -3 -57 12 0 11 -6
-7 -31 -18 -26 -20 -35 -10 -57 11 -27 11 -27 -5 -4 -9 12 -23 22 -31 22 -8 0
-12 4 -9 8 3 5 -4 22 -14 40 -17 27 -31 100 -31 157 0 24 -18 47 -32 38 -5 -3
-7 -1 -4 4 4 6 0 28 -9 48 -8 20 -10 34 -5 30 6 -3 11 -2 11 4 0 5 9 12 19 16
30 9 33 34 9 76 -29 51 -35 43 -8 -11 12 -23 18 -40 13 -37 -4 3 -24 37 -43
75 -27 54 -43 74 -69 87 -31 15 -33 18 -19 31 14 14 22 14 74 -1 33 -9 77 -26
99 -37 l40 -19 -25 20 c-21 18 -23 22 -10 31 15 10 49 14 84 10 10 -1 23 4 27
12 7 10 9 10 9 0 0 -7 5 -10 10 -7 14 9 12 31 -2 33 -7 1 -35 4 -61 8 l-48 7
33 34 c23 24 40 33 58 31 14 -2 24 -8 23 -15 -2 -7 11 -22 28 -34 18 -12 28
-27 25 -35 -3 -8 -1 -14 3 -14 5 0 12 6 14 13 3 6 6 2 6 -10 1 -27 20 -40 32
-22 7 10 8 6 4 -12 -4 -17 -1 -30 9 -38 9 -8 16 -21 17 -30 0 -12 2 -11 9 4
10 23 13 5 4 -20 -6 -14 -8 -14 -27 2 -20 18 -20 18 -4 -8 26 -40 57 -175 57
-249 0 -36 4 -70 9 -75 5 -6 15 -50 22 -100 11 -85 21 -116 34 -103 4 3 -12
131 -35 284 -43 296 -46 314 -48 354 -2 20 -10 29 -39 39 -54 19 -143 89 -143
113 0 10 7 33 16 50 l17 32 33 -37 c43 -47 64 -48 63 -4 0 17 -6 48 -14 67
l-13 35 0 -43 c0 -24 -2 -45 -5 -48 -3 -3 -19 14 -35 38 -17 24 -39 51 -49 58
-12 9 -10 6 4 -11 l23 -25 -26 -38 c-15 -21 -27 -49 -26 -62 0 -20 -3 -22 -14
-13 -8 6 -14 19 -14 28 0 10 -7 26 -15 37 -8 10 -15 27 -15 37 0 13 -9 17 -37
17 l-38 1 28 17 c36 22 34 30 -4 24 -36 -5 -33 13 5 28 18 7 18 9 3 9 -10 1
-26 -3 -36 -8 -15 -9 -19 -3 -29 40 -7 28 -12 62 -12 76 0 15 -3 23 -7 19 -5
-4 -8 -37 -8 -72 0 -36 -5 -68 -11 -72 -6 -4 -14 -19 -18 -34 -10 -41 -36 -36
-36 6 0 19 5 38 10 41 12 8 13 45 1 45 -13 0 -20 -24 -27 -83 l-5 -52 45 -27
45 -27 3 30 c3 29 4 29 19 11 15 -18 15 -22 -3 -62 -23 -49 -17 -64 12 -27 19
24 21 25 64 12 25 -8 54 -19 66 -25 21 -11 20 -13 -24 -60 -25 -27 -51 -61
-58 -75 -15 -34 -50 -31 -145 11 -17 8 -47 14 -67 14 -43 0 -68 31 -65 81 1
19 -2 46 -6 61 -6 24 -3 29 17 37 14 5 41 11 61 12 32 3 39 -1 67 -39 28 -39
50 -54 50 -33 0 5 -20 29 -43 54 l-44 45 -54 -10 c-30 -5 -71 -10 -91 -12 -36
-3 -36 -3 -21 20 8 13 19 24 24 24 4 0 1 12 -7 28 -7 15 -14 52 -14 83 0 45 4
60 23 77 26 24 49 29 43 10 -11 -35 -15 -78 -7 -73 5 3 12 23 16 45 5 28 12
40 23 40 10 0 27 3 39 6 18 5 24 0 36 -29 16 -38 43 -63 34 -31 -20 70 -19 81
8 86 17 4 28 1 32 -9 3 -8 13 -11 26 -7 17 5 19 3 13 -20 -8 -31 4 -34 22 -6
11 18 10 25 -8 50 -12 17 -27 30 -33 30 -7 0 -75 -10 -153 -22 l-141 -22 -7
-185 c-4 -102 -9 -187 -12 -190 -9 -10 -22 22 -43 103 -11 45 -34 113 -52 151
-26 57 -33 66 -39 50 -5 -13 -10 13 -14 70 -4 50 -10 99 -12 110 -4 16 -1 14
10 -5 l15 -25 1 31 c0 24 -5 33 -21 37 -20 5 -21 3 -14 -81z m99 -357 c33 -90
32 -92 -8 -20 -19 33 -39 87 -45 119 -15 83 -13 90 9 26 10 -30 30 -86 44
-125z m516 -29 c-1 -16 -5 -12 -15 13 -19 42 -19 52 0 27 8 -11 15 -29 15 -40z
m-400 -90 c0 -2 -7 -7 -16 -10 -8 -3 -12 -2 -9 4 6 10 25 14 25 6z m613 -131
c-3 -9 -8 -14 -10 -11 -3 3 -2 9 2 15 9 16 15 13 8 -4z m-423 -111 c0 -21 -4
-33 -10 -29 -5 3 -10 22 -10 41 0 21 4 33 10 29 6 -3 10 -22 10 -41z m44 30
c3 -8 2 -12 -4 -9 -6 3 -10 10 -10 16 0 14 7 11 14 -7z m36 -64 c11 -22 18
-40 15 -40 -2 0 -14 18 -25 40 -11 22 -18 40 -15 40 2 0 14 -18 25 -40z m-25
0 c9 -16 13 -30 11 -30 -3 0 -12 14 -21 30 -9 17 -13 30 -11 30 3 0 12 -13 21
-30z m-16 -20 c11 -24 11 -24 -3 -6 -9 11 -16 24 -16 30 0 12 5 7 19 -24z
m-29 -60 c0 -5 -4 -10 -10 -10 -5 0 -10 5 -10 10 0 6 5 10 10 10 6 0 10 -4 10
-10z m37 -6 c-3 -3 -12 -4 -19 -1 -8 3 -5 6 6 6 11 1 17 -2 13 -5z m-14 -21
c-7 -2 -21 -2 -30 0 -10 3 -4 5 12 5 17 0 24 -2 18 -5z m57 -93 c6 -11 8 -20
6 -20 -3 0 -10 9 -16 20 -6 11 -8 20 -6 20 3 0 10 -9 16 -20z m-10 -30 c6 -11
8 -20 6 -20 -3 0 -10 9 -16 20 -6 11 -8 20 -6 20 3 0 10 -9 16 -20z m164 -66
c3 -8 2 -12 -4 -9 -6 3 -10 10 -10 16 0 14 7 11 14 -7z m16 -74 c6 -11 8 -20
6 -20 -3 0 -10 9 -16 20 -6 11 -8 20 -6 20 3 0 10 -9 16 -20z m-146 -56 c3 -8
2 -12 -4 -9 -6 3 -10 10 -10 16 0 14 7 11 14 -7z m141 -25 c9 -17 15 -33 13
-35 -3 -2 -12 12 -21 31 -21 43 -13 47 8 4z m23 -4 c-3 -3 -9 2 -12 12 -6 14
-5 15 5 6 7 -7 10 -15 7 -18z m-28 -39 c0 -12 -5 -7 -19 24 -11 24 -11 24 3 6
9 -11 16 -24 16 -30z"/>
<path d="M2922 8741 c-7 -19 -10 -36 -7 -39 6 -7 26 49 22 62 -2 6 -9 -5 -15
-23z"/>
<path d="M4542 8740 c0 -14 2 -19 5 -12 2 6 2 18 0 25 -3 6 -5 1 -5 -13z"/>
<path d="M1890 8735 c0 -5 5 -17 10 -25 5 -8 10 -10 10 -5 0 6 -5 17 -10 25
-5 8 -10 11 -10 5z"/>
<path d="M4075 8709 c33 -10 69 -18 80 -16 23 4 -36 22 -100 31 -33 4 -30 2
20 -15z"/>
<path d="M1286 8692 l-19 -27 24 22 c12 12 21 24 18 27 -2 2 -13 -8 -23 -22z"/>
<path d="M1925 8710 c3 -5 8 -10 11 -10 2 0 4 5 4 10 0 6 -5 10 -11 10 -5 0
-7 -4 -4 -10z"/>
<path d="M1176 8693 c-6 -14 -5 -15 5 -6 7 7 10 15 7 18 -3 3 -9 -2 -12 -12z"/>
<path d="M3050 8700 c0 -6 6 -10 13 -10 6 0 22 -3 35 -6 16 -5 22 -2 22 10 0
9 -4 16 -10 16 -5 0 -10 -4 -10 -10 0 -6 -9 -6 -25 0 -16 6 -25 6 -25 0z"/>
<path d="M4552 8690 c0 -14 2 -19 5 -12 2 6 2 18 0 25 -3 6 -5 1 -5 -13z"/>
<path d="M933 8640 c0 -30 2 -43 4 -27 2 15 2 39 0 55 -2 15 -4 2 -4 -28z"/>
<path d="M1101 8674 c0 -11 3 -14 6 -6 3 7 2 16 -1 19 -3 4 -6 -2 -5 -13z"/>
<path d="M794 8598 c-10 -46 -18 -112 -18 -148 0 -97 24 -308 40 -349 l14 -36
-5 35 c-3 19 -7 46 -10 60 -13 67 -17 351 -6 429 7 45 11 85 8 87 -2 2 -12
-33 -23 -78z"/>
<path d="M4190 8630 c-6 -11 -8 -20 -6 -20 3 0 10 9 16 20 6 11 8 20 6 20 -3
0 -10 -9 -16 -20z"/>
<path d="M4210 8604 c-18 -25 -30 -47 -28 -49 1 -2 18 19 36 46 41 62 34 65
-8 3z"/>
<path d="M1495 8597 c3 -15 2 -27 -2 -26 -5 1 -15 1 -23 0 -12 -1 -11 -5 4
-16 19 -14 19 -15 -6 -15 -15 0 -30 -4 -33 -10 -4 -6 8 -10 30 -10 32 0 36 -3
30 -20 -5 -15 -2 -20 12 -20 11 0 25 -6 33 -12 7 -7 6 -2 -3 12 -10 13 -17 35
-17 47 0 13 -4 23 -10 23 -5 0 -7 6 -4 13 2 7 0 24 -6 38 -10 24 -10 24 -5 -4z"/>
<path d="M1455 8590 c-3 -6 1 -7 9 -4 18 7 21 14 7 14 -6 0 -13 -4 -16 -10z"/>
<path d="M2427 8561 c-23 -21 -36 -40 -32 -49 4 -12 3 -12 -8 -3 -11 9 -17 8
-27 -4 -11 -14 -10 -17 8 -22 12 -3 19 -10 15 -16 -3 -5 -1 -7 5 -3 6 3 13 2
17 -4 3 -5 15 -10 26 -10 17 0 18 3 8 23 -6 12 -8 19 -4 15 4 -4 21 6 38 22
l31 29 -19 23 -20 23 23 -19 c17 -15 25 -17 34 -8 8 8 8 15 -1 26 -19 23 -52
15 -94 -23z m84 12 c13 -16 12 -17 -3 -4 -17 13 -22 21 -14 21 2 0 10 -8 17
-17z m-70 -50 c13 -16 12 -17 -3 -4 -17 13 -22 21 -14 21 2 0 10 -8 17 -17z"/>
<path d="M4165 8589 c-4 -6 -5 -12 -2 -15 2 -3 7 2 10 11 7 17 1 20 -8 4z"/>
<path d="M2805 8570 c10 -11 20 -20 23 -20 3 0 -3 9 -13 20 -10 11 -20 20 -23
20 -3 0 3 -9 13 -20z"/>
<path d="M4507 8535 c-10 -33 -40 -130 -69 -215 -28 -85 -51 -161 -51 -167 0
-7 -4 -13 -8 -13 -3 0 -9 -10 -12 -22 -2 -13 -19 -61 -36 -107 -36 -97 -35
-91 -18 -91 7 0 30 38 52 85 33 69 44 85 63 85 18 0 22 5 22 34 0 19 5 38 11
42 6 3 9 19 7 35 -3 22 2 35 24 56 29 28 36 49 17 55 -8 3 -4 18 10 46 22 43
27 119 12 197 l-7 40 -17 -60z"/>
<path d="M762 8560 c0 -14 2 -19 5 -12 2 6 2 18 0 25 -3 6 -5 1 -5 -13z"/>
<path d="M2653 8560 c-1 -11 2 -22 8 -25 5 -4 9 -11 9 -16 0 -6 -4 -8 -9 -4
-10 6 -8 -76 3 -93 3 -6 1 -12 -5 -14 -6 -2 10 -29 36 -61 27 -34 43 -62 39
-70 -4 -6 2 -3 13 8 21 21 18 40 -11 65 -22 17 -20 1 2 -23 9 -11 12 -17 5
-14 -6 4 -26 26 -44 50 -29 37 -30 39 -6 18 15 -14 27 -19 27 -13 0 6 -4 13
-10 17 -5 3 -19 20 -30 38 l-22 32 24 -26 c12 -14 39 -45 59 -70 l37 -44 28
28 c27 27 27 28 9 45 -18 16 -18 16 -6 -1 8 -9 12 -20 9 -22 -2 -2 -21 16 -42
40 -32 38 -40 44 -57 35 -10 -6 -19 -9 -20 -8 0 2 -2 12 -4 23 -7 43 -15 68
-25 80 -6 7 -8 20 -4 29 3 9 2 16 -3 16 -5 0 -9 -9 -10 -20z m35 -106 c-4 -3
-12 5 -18 18 -12 22 -12 22 6 6 10 -10 15 -20 12 -24z m104 -89 c10 -18 10
-19 -5 -6 -17 14 -23 3 -9 -15 4 -5 -10 9 -30 31 -36 38 -50 63 -28 50 6 -3
10 0 10 7 0 13 41 -31 62 -67z"/>
<path d="M2730 8413 c0 -5 9 -18 20 -28 11 -10 20 -14 20 -8 0 5 -9 18 -20 28
-11 10 -20 14 -20 8z"/>
<path d="M3045 8510 c-3 -5 -1 -10 4 -10 6 0 11 5 11 10 0 6 -2 10 -4 10 -3 0
-8 -4 -11 -10z"/>
<path d="M4326 8492 c-9 -18 -14 -38 -10 -44 4 -7 3 -8 -4 -4 -7 4 -12 3 -12
-2 0 -15 -102 -113 -127 -123 -14 -5 -23 -17 -23 -29 0 -21 -74 -130 -88 -130
-14 0 -63 -52 -59 -63 2 -7 19 -11 38 -11 28 1 29 0 5 -3 -25 -4 -27 -8 -22
-31 18 -79 18 -138 -2 -196 -30 -87 -11 -122 24 -43 10 23 21 44 24 47 3 3 6
19 7 35 2 17 4 44 6 60 2 17 0 32 -3 35 -4 3 -10 20 -13 38 -5 25 -3 32 9 32
23 0 53 41 54 71 0 19 10 31 39 47 52 30 81 77 83 138 1 46 2 47 5 10 l4 -39
24 39 c14 21 25 47 25 57 0 10 4 16 8 13 9 -5 52 63 52 81 0 5 -6 18 -14 28
-13 18 -14 17 -30 -13z m-49 -144 c-3 -7 -5 -2 -5 12 0 14 2 19 5 13 2 -7 2
-19 0 -25z m-40 -55 c-3 -10 -5 -2 -5 17 0 19 2 27 5 18 2 -10 2 -26 0 -35z
m-50 -35 c-3 -7 -5 -2 -5 12 0 14 2 19 5 13 2 -7 2 -19 0 -25z m-90 -144 c-3
-3 -12 -4 -19 -1 -8 3 -5 6 6 6 11 1 17 -2 13 -5z m-41 -99 c3 -25 4 -69 2
-98 -5 -53 -34 -135 -44 -124 -3 3 2 20 12 38 21 42 30 156 16 198 -6 17 -7
31 -2 31 5 0 12 -20 16 -45z"/>
<path d="M752 8485 c0 -16 2 -22 5 -12 2 9 2 23 0 30 -3 6 -5 -1 -5 -18z"/>
<path d="M1262 8486 c-14 -32 -16 -56 -2 -56 12 0 23 41 18 66 -2 14 -6 12
-16 -10z"/>
<path d="M1460 8490 c0 -5 5 -10 10 -10 6 0 10 5 10 10 0 6 -4 10 -10 10 -5 0
-10 -4 -10 -10z"/>
<path d="M2477 8479 c7 -7 15 -10 18 -7 3 3 -2 9 -12 12 -14 6 -15 5 -6 -5z"/>
<path d="M2915 8470 c10 -11 20 -20 23 -20 3 0 -3 9 -13 20 -10 11 -20 20 -23
20 -3 0 3 -9 13 -20z"/>
<path d="M3039 8473 c-13 -16 -12 -17 4 -4 9 7 17 15 17 17 0 8 -8 3 -21 -13z"/>
<path d="M2200 8466 c0 -17 14 -29 23 -20 8 8 -3 34 -14 34 -5 0 -9 -6 -9 -14z"/>
<path d="M2895 8460 c10 -11 20 -20 23 -20 3 0 -3 9 -13 20 -10 11 -20 20 -23
20 -3 0 3 -9 13 -20z"/>
<path d="M2510 8467 c14 -16 120 -55 125 -47 6 10 -23 28 -58 37 -57 13 -72
15 -67 10z"/>
<path d="M2885 8436 c10 -14 19 -26 22 -26 7 0 -17 39 -28 46 -6 3 -3 -5 6
-20z"/>
<path d="M3844 8432 c0 -11 -7 -18 -22 -20 -19 -3 -20 -5 -7 -18 13 -13 19
-12 49 13 19 15 34 28 33 29 -1 1 -14 4 -28 8 -21 5 -26 2 -25 -12z"/>
<path d="M2860 8431 c0 -5 7 -15 17 -22 15 -13 15 -12 4 9 -12 23 -21 28 -21
13z"/>
<path d="M2960 8415 c13 -14 26 -25 28 -25 3 0 -5 11 -18 25 -13 14 -26 25
-28 25 -3 0 5 -11 18 -25z"/>
<path d="M2395 8414 c17 -8 41 -26 56 -40 14 -13 31 -24 38 -24 7 0 9 -4 6
-10 -3 -5 1 -10 10 -10 9 0 13 -4 10 -10 -3 -5 1 -10 10 -10 9 0 14 -4 10 -9
-3 -5 5 -18 17 -28 25 -20 26 -24 41 -98 15 -79 13 -76 54 -73 37 3 38 4 43
48 3 25 11 55 18 67 21 38 13 39 -18 3 -19 -23 -30 -30 -31 -20 -1 8 -2 20 -4
25 -1 6 -3 17 -3 26 -3 25 -59 90 -100 116 -35 21 -151 63 -176 63 -6 0 3 -7
19 -16z"/>
<path d="M2935 8410 c10 -11 20 -20 23 -20 3 0 -3 9 -13 20 -10 11 -20 20 -23
20 -3 0 3 -9 13 -20z"/>
<path d="M4095 8420 c-3 -5 -1 -10 4 -10 6 0 11 5 11 10 0 6 -2 10 -4 10 -3 0
-8 -4 -11 -10z"/>
<path d="M2938 8366 c3 -5 -2 -6 -12 -3 -9 4 -14 3 -11 -2 3 -5 -4 -12 -15
-16 -23 -7 -27 -25 -5 -25 8 0 15 3 15 8 0 10 50 32 75 32 12 0 27 -6 35 -12
12 -11 12 -10 2 4 -10 13 -10 17 0 21 7 3 -10 4 -38 3 -29 0 -49 -5 -46 -10z"/>
<path d="M3581 8364 c0 -11 3 -14 6 -6 3 7 2 16 -1 19 -3 4 -6 -2 -5 -13z"/>
<path d="M2400 8366 c0 -2 8 -10 18 -17 15 -13 16 -12 3 4 -13 16 -21 21 -21
13z"/>
<path d="M2625 8310 c10 -11 19 -20 21 -20 1 0 2 9 1 20 -1 13 -8 20 -21 20
-18 0 -19 -1 -1 -20z"/>
<path d="M2860 8321 c0 -7 -5 -9 -12 -5 -8 5 -9 2 -4 -11 6 -16 4 -16 -11 -4
-15 12 -16 12 -10 -5 6 -14 5 -16 -5 -8 -9 7 -17 6 -25 -3 -7 -8 -9 -16 -4
-20 5 -3 12 0 14 5 3 6 4 5 3 -2 -2 -7 -11 -12 -20 -10 -15 3 -16 0 -5 -20 9
-18 9 -21 -1 -11 -10 9 -15 9 -25 0 -11 -10 -10 -15 2 -29 14 -15 19 -12 61
40 25 31 50 60 56 64 8 5 7 11 -2 20 -9 9 -12 9 -12 -1z"/>
<path d="M3051 8304 c9 -11 9 -17 -1 -29 -7 -9 -10 -18 -6 -22 3 -3 6 -1 6 4
0 13 18 12 40 -2 11 -6 10 -3 -2 12 -21 23 -23 37 -5 27 9 -5 9 -4 0 6 -7 8
-20 15 -28 16 -13 2 -14 -1 -4 -12z"/>
<path d="M3594 8303 c2 -10 11 -20 22 -22 19 -3 19 -3 0 18 -23 26 -25 26 -22
4z"/>
<path d="M3506 8301 c-3 -5 0 -11 8 -14 8 -3 17 1 20 9 6 15 -19 20 -28 5z"/>
<path d="M2401 8261 c19 -22 40 -40 48 -40 8 -1 -3 17 -25 39 -50 51 -67 52
-23 1z"/>
<path d="M1770 8264 c0 -4 8 -13 17 -20 27 -19 7 -29 -25 -14 -44 23 -48 23
-22 1 14 -11 39 -21 55 -21 25 -1 27 -3 10 -9 -11 -5 -26 -6 -32 -4 -7 3 -13
0 -13 -7 0 -8 11 -11 30 -8 24 4 27 2 19 -9 -7 -7 -18 -13 -25 -13 -8 0 -14
-7 -14 -16 0 -8 5 -12 10 -9 6 3 10 -1 10 -9 0 -20 40 -16 41 4 0 8 1 32 3 52
2 27 -3 43 -21 62 -22 25 -43 34 -43 20z"/>
<path d="M3110 8252 c0 -5 7 -15 15 -22 8 -7 15 -8 15 -2 0 5 -7 15 -15 22 -8
7 -15 8 -15 2z"/>
<path d="M1310 8222 c0 -12 7 -25 15 -29 27 -10 30 6 7 30 l-22 21 0 -22z"/>
<path d="M2377 8190 c15 -22 33 -40 40 -40 20 0 16 8 -21 45 -44 46 -51 44
-19 -5z"/>
<path d="M1716 8194 c11 -16 20 -22 27 -15 15 15 0 41 -23 41 -20 0 -20 -1 -4
-26z"/>
<path d="M2460 8168 c21 -47 66 -74 102 -62 19 6 17 11 -28 55 -28 27 -59 48
-71 49 l-22 0 19 -42z"/>
<path d="M3165 8193 c15 -40 16 -81 2 -109 -8 -16 -12 -35 -10 -41 3 -7 -1
-13 -7 -13 -9 0 -11 -10 -6 -30 3 -19 2 -29 -4 -25 -14 8 -13 3 12 -107 12
-54 25 -98 30 -98 5 0 7 8 4 18 -3 9 0 49 7 87 8 45 9 90 4 125 -4 30 -6 80
-4 109 5 54 -7 101 -26 101 -5 0 -6 -8 -2 -17z"/>
<path d="M731 8184 c0 -11 3 -14 6 -6 3 7 2 16 -1 19 -3 4 -6 -2 -5 -13z"/>
<path d="M2734 8159 c-1 -27 1 -37 7 -28 6 9 9 10 9 2 0 -15 32 -6 117 32 88
39 71 43 -23 5 -73 -29 -78 -30 -93 -13 -15 16 -15 16 2 4 19 -15 22 -9 7 20
-16 30 -25 23 -26 -22z"/>
<path d="M3032 8147 c-47 -48 -52 -56 -47 -87 l5 -35 -12 35 c-8 24 -13 30
-15 17 -3 -9 -8 -15 -13 -12 -4 3 -10 -2 -14 -10 -3 -8 -1 -15 4 -15 6 0 10
-11 10 -24 0 -14 5 -28 11 -31 7 -5 8 6 5 32 -5 34 -2 33 10 -6 6 -19 64 48
64 74 0 13 3 16 8 8 9 -15 62 61 62 89 0 31 -24 20 -78 -35z"/>
<path d="M3965 8180 c3 -5 8 -10 11 -10 2 0 4 5 4 10 0 6 -5 10 -11 10 -5 0
-7 -4 -4 -10z"/>
<path d="M1606 8115 c-3 -8 -1 -15 4 -15 6 0 10 7 10 15 0 8 -2 15 -4 15 -2 0
-6 -7 -10 -15z"/>
<path d="M3980 8091 c0 -5 7 -25 15 -44 8 -20 15 -47 14 -59 -1 -15 -4 -9 -10
15 -5 21 -14 47 -19 58 -10 18 -13 17 -51 -19 -28 -28 -38 -44 -34 -58 5 -16
3 -15 -11 4 -9 12 -26 22 -38 22 -17 0 -18 -2 -6 -10 10 -6 11 -10 3 -10 -7 0
-13 -9 -13 -21 0 -17 5 -20 38 -17 28 2 41 -2 55 -19 9 -11 17 -26 17 -33 0
-6 4 -9 9 -6 5 3 11 -9 15 -26 8 -41 23 -27 35 33 6 32 9 37 10 16 1 -15 -6
-43 -13 -62 -8 -19 -11 -35 -6 -35 5 0 17 25 26 56 18 62 14 128 -11 188 -15
35 -25 46 -25 27z m8 -141 l-1 -55 -7 65 c-4 36 -10 74 -14 85 -3 11 0 7 8
-10 8 -16 15 -55 14 -85z m-19 1 c1 -61 -5 -48 -12 24 -3 36 -2 52 3 40 5 -11
9 -40 9 -64z m-32 47 c-3 -8 -6 -5 -6 6 -1 11 2 17 5 13 3 -3 4 -12 1 -19z
m10 -55 c-3 -10 -5 -4 -5 12 0 17 2 24 5 18 2 -7 2 -21 0 -30z m30 -75 c-3 -8
-6 -5 -6 6 -1 11 2 17 5 13 3 -3 4 -12 1 -19z"/>
<path d="M2653 8050 c0 -25 2 -35 4 -22 2 12 2 32 0 45 -2 12 -4 2 -4 -23z"/>
<path d="M2674 7965 c0 -71 1 -99 3 -62 2 37 2 96 0 130 -2 34 -3 4 -3 -68z"/>
<path d="M3271 8052 c-21 -39 -24 -93 -6 -137 9 -25 20 -45 24 -45 11 0 31 71
31 107 0 36 -19 93 -31 93 -4 0 -13 -8 -18 -18z"/>
<path d="M1995 8025 c-19 -43 -16 -116 6 -157 11 -21 12 -21 30 13 23 44 23
94 0 144 l-19 40 -17 -40z"/>
<path d="M1515 8025 c30 -25 59 -39 51 -26 -4 6 -22 18 -39 27 -30 14 -31 14
-12 -1z"/>
<path d="M2351 8003 c5 -15 15 -33 20 -40 6 -7 7 -18 3 -24 -5 -8 -3 -9 6 -4
10 6 12 4 7 -9 -4 -9 -3 -15 2 -12 5 3 14 -8 21 -24 7 -16 19 -35 27 -42 9 -7
-5 29 -30 79 -45 89 -79 135 -56 76z"/>
<path d="M2694 7915 c0 -66 1 -92 3 -57 2 34 2 88 0 120 -2 31 -3 3 -3 -63z"/>
<path d="M2236 7955 c3 -27 5 -61 5 -75 -1 -26 80 -186 90 -179 3 2 13 -2 22
-10 10 -7 17 -10 17 -6 0 4 7 1 17 -6 19 -16 18 -12 -20 59 -17 32 -32 50 -39
46 -6 -4 -8 -3 -5 3 4 6 -15 58 -42 114 -50 104 -50 104 -45 54z m132 -250
c-3 -3 -9 2 -12 12 -6 14 -5 15 5 6 7 -7 10 -15 7 -18z"/>
<path d="M1575 7969 c4 -5 15 -34 26 -62 10 -29 18 -43 18 -32 1 22 -35 105
-44 105 -3 0 -3 -5 0 -11z"/>
<path d="M1157 7946 c-4 -9 -2 -15 6 -13 7 1 12 -10 13 -25 1 -15 7 -34 14
-43 14 -17 40 -20 40 -5 0 6 -8 10 -17 8 -14 -2 -17 3 -16 22 2 14 -6 36 -16
49 -15 20 -19 21 -24 7z"/>
<path d="M3848 7933 c12 -2 32 -2 45 0 12 2 2 4 -23 4 -25 0 -35 -2 -22 -4z"/>
<path d="M3853 7913 c15 -2 39 -2 55 0 15 2 2 4 -28 4 -30 0 -43 -2 -27 -4z"/>
<path d="M3545 7897 c-17 -13 -18 -18 -6 -43 l13 -29 10 25 c5 13 8 32 6 43
-3 16 -5 17 -23 4z"/>
<path d="M3566 7824 c-4 -9 -4 -19 -1 -22 2 -3 7 3 11 12 4 9 4 19 1 22 -2 3
-7 -3 -11 -12z"/>
<path d="M2175 7810 c-3 -6 -2 -10 4 -10 6 0 8 -6 5 -13 -6 -16 31 -52 69 -66
25 -10 27 -9 18 7 -16 29 -90 92 -96 82z"/>
<path d="M3597 7790 c-4 -16 -3 -39 2 -51 5 -16 8 -8 9 30 1 58 -3 65 -11 21z"/>
<path d="M1631 7800 c0 -8 4 -22 9 -30 12 -18 12 -2 0 25 -6 13 -9 15 -9 5z"/>
<path d="M3826 7765 c-11 -83 -35 -228 -43 -255 -6 -24 -6 -24 11 -7 36 35 69
234 48 287 -9 23 -10 21 -16 -25z"/>
<path d="M2582 7710 c2 -40 14 -70 28 -70 16 0 11 32 -10 70 l-20 35 2 -35z"/>
<path d="M1280 7708 c1 -34 60 -302 69 -311 20 -20 21 0 6 64 -8 35 -23 106
-33 158 -9 53 -22 96 -29 99 -7 2 -13 -2 -13 -10z"/>
<path d="M4828 7710 c-210 -33 -383 -123 -520 -269 -112 -118 -178 -236 -220
-393 -30 -114 -30 -317 0 -430 27 -100 80 -214 136 -292 59 -82 187 -202 267
-249 254 -149 567 -165 826 -42 96 45 154 85 237 164 300 287 360 730 149
1090 -80 136 -245 282 -396 351 -135 61 -343 91 -479 70z m-42 -375 c27 -8 58
-22 69 -31 18 -14 18 -15 2 -10 -11 4 -16 2 -11 -5 3 -6 -10 -28 -31 -49 -21
-21 -34 -43 -30 -49 3 -6 2 -10 -4 -9 -16 5 -81 -76 -71 -86 6 -6 18 2 32 20
13 16 37 45 55 64 l32 35 33 -30 33 -30 -29 32 c-31 35 -28 51 17 74 27 15 71
-29 108 -106 24 -49 29 -73 29 -133 0 -68 -16 -132 -37 -145 -5 -3 -1 20 10
51 33 98 4 230 -67 305 -40 40 -40 33 -2 -17 70 -92 90 -210 52 -309 -16 -42
-21 -47 -47 -45 -16 1 -29 5 -29 8 0 3 -21 16 -47 29 -120 61 -161 92 -165
122 -3 16 -1 29 3 29 9 0 21 31 14 38 -3 3 -18 -10 -34 -28 -33 -39 -34 -39
-149 28 -46 27 -61 42 -58 55 2 9 0 14 -5 11 -11 -6 -6 58 7 90 6 15 4 17 -6
11 -9 -5 -11 -4 -6 4 6 9 11 9 21 1 9 -7 16 -6 26 7 13 16 12 17 -3 4 -12 -8
-18 -9 -18 -2 0 11 85 58 130 72 42 12 123 10 176 -6z m-385 -209 c5 3 9 -2 9
-11 0 -9 5 -13 10 -10 6 3 10 -2 10 -12 0 -14 2 -15 9 -5 7 12 14 11 40 -2 17
-9 31 -14 31 -11 0 3 10 -3 22 -15 12 -11 25 -20 29 -20 5 0 25 -11 45 -25 20
-14 40 -22 45 -19 5 3 9 1 9 -5 0 -11 69 -53 84 -51 5 1 12 -2 15 -7 3 -5 22
-19 41 -31 70 -43 67 -38 40 -69 l-25 -28 26 23 c32 28 54 28 73 0 23 -32 20
-39 -28 -76 -126 -95 -326 -76 -431 40 -47 51 -84 131 -92 196 -5 47 15 171
24 144 3 -6 9 -10 14 -6z"/>
<path d="M4683 7333 c9 -2 23 -2 30 0 6 3 -1 5 -18 5 -16 0 -22 -2 -12 -5z"/>
<path d="M4618 7323 c6 -2 18 -2 25 0 6 3 1 5 -13 5 -14 0 -19 -2 -12 -5z"/>
<path d="M4755 7320 c72 -20 80 -21 46 -6 -18 9 -43 16 -55 15 -16 -1 -14 -3
9 -9z"/>
<path d="M4633 7303 c9 -2 23 -2 30 0 6 3 -1 5 -18 5 -16 0 -22 -2 -12 -5z"/>
<path d="M4728 7303 c6 -2 18 -2 25 0 6 3 1 5 -13 5 -14 0 -19 -2 -12 -5z"/>
<path d="M4484 7228 l-19 -23 23 19 c21 18 27 26 19 26 -2 0 -12 -10 -23 -22z"/>
<path d="M4529 7233 c-13 -16 -12 -17 4 -4 9 7 17 15 17 17 0 8 -8 3 -21 -13z"/>
<path d="M4885 7230 c10 -11 20 -20 23 -20 3 0 -3 9 -13 20 -10 11 -20 20 -23
20 -3 0 3 -9 13 -20z"/>
<path d="M4932 7015 c0 -16 2 -22 5 -12 2 9 2 23 0 30 -3 6 -5 -1 -5 -18z"/>
<path d="M4402 7065 c0 -16 2 -22 5 -12 2 9 2 23 0 30 -3 6 -5 -1 -5 -18z"/>
<path d="M4423 7020 c0 -30 2 -43 4 -27 2 15 2 39 0 55 -2 15 -4 2 -4 -28z"/>
<path d="M4372 7015 c0 -16 2 -22 5 -12 2 9 2 23 0 30 -3 6 -5 -1 -5 -18z"/>
<path d="M4402 6975 c0 -16 2 -22 5 -12 2 9 2 23 0 30 -3 6 -5 -1 -5 -18z"/>
<path d="M4431 6944 c0 -11 3 -14 6 -6 3 7 2 16 -1 19 -3 4 -6 -2 -5 -13z"/>
<path d="M4420 6901 c0 -6 4 -13 10 -16 6 -3 7 1 4 9 -7 18 -14 21 -14 7z"/>
<path d="M4495 6830 c10 -11 20 -20 23 -20 3 0 -3 9 -13 20 -10 11 -20 20 -23
20 -3 0 3 -9 13 -20z"/>
<path d="M4490 6805 c13 -14 26 -25 28 -25 3 0 -5 11 -18 25 -13 14 -26 25
-28 25 -3 0 5 -11 18 -25z"/>
<path d="M4879 6803 l-24 -28 28 24 c25 23 32 31 24 31 -2 0 -14 -12 -28 -27z"/>
<path d="M4895 6790 c-27 -29 -112 -68 -175 -79 l-55 -10 55 4 c62 5 174 55
190 86 14 25 8 24 -15 -1z"/>
<path d="M4489 6776 c13 -16 51 -41 51 -33 0 2 -15 14 -32 27 -21 15 -28 17
-19 6z"/>
<path d="M4708 6753 c6 -2 18 -2 25 0 6 3 1 5 -13 5 -14 0 -19 -2 -12 -5z"/>
<path d="M4628 6733 c7 -3 16 -2 19 1 4 3 -2 6 -13 5 -11 0 -14 -3 -6 -6z"/>
<path d="M4738 6733 c7 -3 16 -2 19 1 4 3 -2 6 -13 5 -11 0 -14 -3 -6 -6z"/>
<path d="M4608 6713 c7 -3 16 -2 19 1 4 3 -2 6 -13 5 -11 0 -14 -3 -6 -6z"/>
<path d="M2516 7690 c7 -28 12 -35 18 -29 2 2 -2 15 -10 29 l-15 25 7 -25z"/>
<path d="M3586 7634 c-4 -14 -5 -29 -2 -31 3 -3 8 7 12 21 3 15 4 29 1 32 -2
3 -8 -7 -11 -22z"/>
<path d="M3751 7605 c-7 -17 -22 -55 -33 -85 -12 -30 -29 -66 -38 -80 -9 -14
-30 -62 -46 -107 -22 -63 -26 -85 -17 -94 9 -9 19 5 43 57 17 38 38 92 47 119
9 28 27 76 40 109 13 32 23 70 21 84 l-3 27 -14 -30z"/>
<path d="M3410 7610 c8 -5 20 -10 25 -10 6 0 3 5 -5 10 -8 5 -19 10 -25 10 -5
0 -3 -5 5 -10z"/>
<path d="M1129 7538 c-6 -21 -5 -38 2 -38 5 0 9 9 9 20 0 16 -7 28 -11 18z"/>
<path d="M1120 7470 c0 -11 4 -20 9 -20 6 0 8 -9 6 -20 -2 -12 2 -20 10 -20
11 0 12 6 5 24 -5 13 -6 27 -3 30 4 3 0 6 -8 6 -11 0 -11 2 1 10 13 8 12 10
-2 10 -11 0 -18 -8 -18 -20z"/>
<path d="M1134 7384 c3 -9 6 -22 6 -30 0 -8 5 -14 10 -14 6 0 9 14 8 30 -1 18
-8 30 -16 30 -9 0 -12 -6 -8 -16z"/>
<path d="M2727 7368 c-5 -16 -1 -19 21 -16 35 4 43 36 8 36 -16 0 -26 -7 -29
-20z"/>
<path d="M2728 7333 c7 -3 16 -2 19 1 4 3 -2 6 -13 5 -11 0 -14 -3 -6 -6z"/>
<path d="M1145 7313 c4 -10 8 -24 8 -30 0 -7 4 -13 9 -13 5 0 6 -5 3 -10 -8
-13 3 -50 15 -50 4 0 7 8 5 18 -2 9 -4 27 -4 39 -1 12 -8 28 -16 36 -11 12
-12 17 -2 20 7 3 4 6 -7 6 -13 1 -16 -3 -11 -16z"/>
<path d="M2457 7214 c-4 -4 -7 -43 -7 -86 l0 -78 30 0 30 0 0 80 c0 44 -4 80
-9 80 -5 0 -16 2 -23 5 -8 3 -17 2 -21 -1z"/>
<path d="M2817 7213 c-9 -8 -9 -141 -1 -210 6 -46 10 -53 29 -53 21 0 22 4 23
117 1 65 -1 126 -4 135 -5 18 -34 24 -47 11z"/>
<path d="M3177 7214 c-4 -4 -7 -40 -7 -81 0 -72 1 -73 25 -73 26 0 26 0 23 77
-2 61 -6 78 -18 81 -9 1 -19 0 -23 -4z"/>
<path d="M2090 7130 c0 -79 0 -80 25 -80 23 0 25 4 25 43 0 23 3 59 6 80 6 36
6 37 -25 37 l-31 0 0 -80z"/>
<path d="M1180 7193 c1 -5 10 -24 21 -43 11 -19 18 -27 15 -17 -4 11 -9 30
-12 43 -6 22 -25 35 -24 17z"/>
<path d="M3670 7115 c39 -22 171 -72 210 -79 19 -3 -4 7 -52 23 -48 17 -105
39 -127 50 -46 24 -69 28 -31 6z"/>
<path d="M1199 7050 c32 -91 33 -93 42 -78 7 10 9 10 9 1 0 -8 13 -13 32 -13
l31 0 -23 25 c-12 13 -27 22 -31 19 -5 -3 -9 1 -9 9 0 7 -16 31 -35 53 l-35
39 19 -55z"/>
<path d="M3630 7060 c8 -5 20 -10 25 -10 6 0 3 5 -5 10 -8 5 -19 10 -25 10 -5
0 -3 -5 5 -10z"/>
<path d="M1598 7055 c-3 -6 -8 -26 -12 -45 l-6 -35 16 34 c14 30 16 68 2 46z"/>
<path d="M2620 6995 l-44 -45 82 0 c45 0 82 2 82 3 0 2 -17 22 -38 45 l-38 41
-44 -44z"/>
<path d="M1888 6997 c-26 -17 -48 -35 -48 -39 0 -5 32 -8 70 -8 l70 0 -20 40
c-11 22 -21 40 -23 40 -1 0 -23 -15 -49 -33z"/>
<path d="M3360 6990 l-20 -40 70 0 c38 0 70 3 70 8 0 6 -33 31 -87 65 -8 5
-19 -6 -33 -33z"/>
<path d="M2268 6995 c-27 -36 -22 -45 22 -45 44 0 50 11 24 48 -19 28 -25 27
-46 -3z"/>
<path d="M3006 6998 c-26 -37 -20 -48 24 -48 45 0 50 12 21 48 -24 27 -26 27
-45 0z"/>
<path d="M1770 5715 l0 -1035 101 -203 c158 -315 413 -780 530 -966 l29 -46 0
1643 0 1642 -330 0 -330 0 0 -1035z"/>
<path d="M3187 6743 c-4 -3 -7 -993 -7 -2199 l0 -2192 62 -84 c132 -179 589
-738 603 -738 3 0 5 1175 5 2610 l0 2610 -328 0 c-181 0 -332 -3 -335 -7z"/>
<path d="M6020 4128 l1 -2623 36 40 c133 149 371 439 541 659 l92 118 0 2214
0 2214 -335 0 -335 0 0 -2622z"/>
<path d="M7440 5093 c0 -966 4 -1653 9 -1648 35 38 355 613 518 931 l133 261
0 1056 0 1057 -330 0 -330 0 0 -1657z"/>
<path d="M4600 3278 l0 -2544 143 -131 c153 -142 190 -173 204 -173 4 0 78 65
163 143 l155 143 3 2548 2 2548 -22 -5 c-144 -35 -388 -41 -531 -13 -48 9 -94
19 -102 22 -13 5 -15 -284 -15 -2538z"/>
</g>
</svg>
