<?xml version="1.0" encoding="UTF-8"?>
<!-- Generator: visioncortex VTracer 0.6.4 -->
<svg version="1.1" xmlns="http://www.w3.org/2000/svg" width="960" height="1259">
<path d="M0 0 C1.98 1.36 1.98 1.36 3.39 2.6 C8.6 6.9 13.17 7.22 19.8 7.11 C20.78 7.11 21.76 7.1 22.77 7.1 C29.46 6.87 33.98 5.84 38.98 1.09 C45.49 -4.53 55.68 -3.21 63.73 -2.82 C72.97 -2.06 79.98 2.46 85.98 9.36 C91.95 18.64 92.62 29.56 90.39 40.18 C88.98 45.68 87.31 51.09 85.54 56.48 C84.89 58.36 84.89 58.36 84.98 60.36 C94.46 64.64 101.91 65.3 111.8 61.93 C124.63 56.24 134.46 46.38 143.98 36.36 C151.13 28.87 158.03 25.98 168.32 25.11 C178.25 25.79 186.97 29.36 195.8 33.74 C196.88 34.27 197.96 34.8 199.07 35.34 C231.33 51.35 262.31 71.35 289.47 95.05 C291 96.38 292.55 97.67 294.11 98.96 C307.44 110.01 319.79 122.08 332.05 134.3 C332.79 135.04 332.79 135.04 333.54 135.79 C339.24 141.47 344.75 147.25 349.98 153.36 C351.44 154.97 352.9 156.58 354.36 158.18 C359.09 163.43 363.56 168.86 367.98 174.36 C368.9 175.48 369.81 176.61 370.73 177.73 C389.89 201.32 407.33 226.32 422.98 252.36 C423.79 253.69 423.79 253.69 424.61 255.05 C432.99 268.86 440.73 282.93 447.98 297.36 C448.72 298.82 448.72 298.82 449.48 300.31 C480.83 362.4 499.9 434.75 500.22 504.46 C500.23 505.22 500.23 505.98 500.24 506.76 C500.26 510.81 500.27 514.86 500.28 518.91 C500.29 522.17 500.31 525.43 500.34 528.69 C500.65 560.28 497.96 590.96 491.86 621.99 C491.57 623.48 491.57 623.48 491.28 625 C479.31 687.14 461.2 747.88 436.98 806.36 C436.49 807.56 435.99 808.76 435.48 810 C420 847.22 402.65 884.01 382.41 918.89 C380.61 922.01 378.87 925.17 377.14 928.33 C371.37 938.85 365.25 949.14 358.98 959.36 C358.54 960.09 358.09 960.82 357.64 961.56 C344.04 983.66 329.57 1005.41 314.38 1026.44 C312.83 1028.58 311.3 1030.73 309.77 1032.88 C303.08 1042.24 296.2 1051.4 288.98 1060.36 C288.47 1061.01 287.95 1061.65 287.42 1062.31 C281.33 1069.88 275.17 1077.39 268.86 1084.79 C266.07 1088.06 263.36 1091.38 260.67 1094.74 C255.8 1100.73 250.52 1106.3 245.22 1111.91 C242.22 1115.09 239.34 1118.36 236.49 1121.68 C234.37 1124.06 232.09 1126.27 229.82 1128.5 C228.08 1130.27 226.46 1132.09 224.86 1133.98 C220.63 1138.84 216.11 1143.38 211.55 1147.93 C210.34 1149.14 210.34 1149.14 209.1 1150.38 C204.82 1154.66 200.47 1158.77 195.89 1162.71 C192.73 1165.46 189.71 1168.36 186.67 1171.24 C180.65 1176.9 174.45 1182.21 167.98 1187.36 C166.78 1188.35 165.58 1189.35 164.38 1190.34 C154.56 1198.47 144.43 1206.05 133.98 1213.36 C133.36 1213.8 132.74 1214.24 132.1 1214.69 C94.67 1241.01 47.76 1262.91 0.89 1255.29 C-35.15 1248.52 -67.92 1228.97 -97.02 1207.36 C-97.71 1206.85 -98.4 1206.34 -99.11 1205.81 C-119.5 1190.6 -138.94 1174.17 -157.43 1156.73 C-159.6 1154.68 -161.79 1152.65 -164 1150.66 C-171.69 1143.7 -179.05 1136.43 -186.39 1129.11 C-186.91 1128.59 -187.44 1128.07 -187.97 1127.54 C-193.36 1122.18 -198.64 1116.79 -203.58 1111.01 C-205.46 1108.85 -207.46 1106.85 -209.52 1104.86 C-212.89 1101.53 -216.06 1098.11 -219.14 1094.52 C-221.35 1091.98 -223.62 1089.52 -225.89 1087.05 C-230.04 1082.5 -233.95 1077.82 -237.82 1073.02 C-239.89 1070.51 -242.05 1068.12 -244.27 1065.74 C-250.07 1059.36 -255.19 1052.45 -260.36 1045.56 C-261.95 1043.46 -263.54 1041.36 -265.13 1039.27 C-266.13 1037.95 -267.14 1036.63 -268.14 1035.3 C-268.57 1034.74 -269 1034.18 -269.44 1033.6 C-300.13 992.85 -327.12 948.38 -351.02 903.36 C-351.48 902.49 -351.95 901.61 -352.43 900.71 C-356.01 893.95 -359.53 887.17 -363.02 880.36 C-363.31 879.78 -363.61 879.2 -363.92 878.6 C-400.45 807.59 -428.73 731.49 -460.22 545.52 C-460.22 544.73 -460.22 543.95 -460.23 543.13 C-460.24 538.94 -460.25 534.75 -460.26 530.56 C-460.26 527.17 -460.27 523.78 -460.3 520.38 C-460.44 498.82 -459.79 477.77 -457.02 456.36 C-456.9 455.49 -456.79 454.61 -456.68 453.71 C-456.04 448.78 -455.29 443.88 -454.45 438.99 C-454.33 438.26 -454.21 437.54 -454.08 436.79 C-444.07 378.22 -423.61 321.48 -393.65 270.17 C-392.02 267.38 -390.41 264.58 -388.8 261.77 C-381.37 248.95 -373.4 236.58 -365.02 224.36 C-364.43 223.51 -363.85 222.66 -363.25 221.78 C-355.65 210.71 -347.79 199.89 -339.53 189.31 C-338.08 187.45 -336.65 185.59 -335.21 183.72 C-325.73 171.44 -315.45 159.84 -305.02 148.36 C-304.28 147.54 -303.55 146.71 -302.79 145.86 C-296.37 138.7 -289.62 131.86 -282.83 125.05 C-282.35 124.57 -281.88 124.1 -281.39 123.61 C-275.78 117.97 -270.07 112.53 -264.02 107.36 C-262.84 106.33 -261.66 105.29 -260.48 104.26 C-168.62 23.82 -168.62 23.82 -125.58 25.43 C-116.4 26.34 -110.32 29.77 -104.02 36.36 C-85.99 55.35 -85.99 55.35 -62.02 64.36 C-56.01 64.35 -51.23 63.52 -46.02 60.36 C-46.02 57.09 -46.17 55.42 -47.11 52.45 C-50.81 40.16 -54.55 25.98 -48.95 13.68 C-43.85 5.36 -37.54 0.5 -28.15 -2.17 C-19.58 -4.05 -7.8 -4.19 0 0 Z " fill="#1B1C20" transform="translate(460.015625,2.63671875)"/>
<path d="M0 0 C286.11 0 572.22 0 867 0 C879.08 54.38 859 124.04 842.92 176.01 C841.91 179.28 840.95 182.57 839.99 185.86 C818.45 259.3 791.53 334.94 744 413.43 C740.89 418.52 737.85 423.64 734.88 428.81 C729.24 438.54 722.98 447.86 716.8 457.25 C714.99 460.02 713.21 462.81 711.44 465.61 C708.29 470.58 705.02 475.46 701.69 480.31 C701.13 481.13 700.57 481.94 699.99 482.79 C690.11 497.13 679.84 511.05 668.92 524.62 C667.64 526.2 666.38 527.79 665.11 529.38 C660.02 535.81 654.74 542.08 649.42 548.33 C648.03 549.97 646.65 551.61 645.27 553.26 C639.6 560.05 633.74 566.61 627.71 573.07 C625.55 575.41 623.44 577.77 621.38 580.19 C617.93 584.18 614.17 587.84 610.42 591.55 C607.69 594.31 605.17 597.19 602.64 600.13 C598.15 605.24 593.18 609.75 588.04 614.18 C585.94 616.05 583.97 618 582 620 C578.16 623.88 574.14 627.45 570 631 C568.99 631.88 567.99 632.76 566.98 633.65 C557.97 641.52 548.6 648.85 539 656 C537.9 656.82 537.9 656.82 536.78 657.66 C525.9 665.78 514.74 673.19 503 680 C502.19 680.47 501.39 680.94 500.55 681.43 C489.07 688.1 477.56 693.68 465 698 C464.02 698.34 463.05 698.67 462.04 699.02 C459.71 699.77 457.38 700.42 455 701 C454.19 701.2 453.39 701.41 452.55 701.62 C439.68 704.42 426.58 703.79 414 700 C412.79 699.64 411.57 699.27 410.32 698.9 C401.89 696.27 393.92 692.9 386 689 C385.39 688.7 384.77 688.4 384.14 688.1 C360.84 676.8 339.2 663.25 319 647 C318.1 646.28 317.2 645.56 316.27 644.81 C305.29 635.93 294.64 626.72 284.33 617.08 C282.52 615.39 280.7 613.73 278.85 612.09 C272.17 606.17 265.82 599.97 259.52 593.65 C257.81 591.93 256.09 590.22 254.37 588.51 C249.25 583.39 244.21 578.26 239.51 572.75 C236.97 569.81 234.29 567.01 231.62 564.19 C227 559.25 222.61 554.2 218.38 548.92 C215.46 545.33 212.42 541.86 209.38 538.38 C204.73 533.04 200.26 527.64 196 522 C195.04 520.76 194.08 519.51 193.11 518.27 C172.82 492.05 154.38 464.23 137 436 C136.38 435 135.76 434 135.12 432.96 C124.17 415.28 113.78 397.36 104 379 C103.64 378.33 103.29 377.66 102.92 376.98 C63.59 302.97 31.54 223.71 11.55 142.25 C11.17 140.69 10.78 139.14 10.4 137.58 C7.11 124.43 4.45 111.26 2.31 97.88 C2.16 96.94 2.01 96.01 1.86 95.05 C-0.59 79.73 -2.52 64.53 -3 49 C-3.04 47.88 -3.07 46.77 -3.11 45.61 C-3.21 42.14 -3.27 38.66 -3.31 35.19 C-3.33 34.19 -3.35 33.19 -3.37 32.16 C-3.35 21.12 -1.53 11.23 0 0 Z " fill="#D84B05" transform="translate(47,514)"/>
<path d="M0 0 C18.75 15.97 31.71 34.74 37.44 58.75 C37.79 60.07 37.79 60.07 38.15 61.41 C39.44 66.47 40.08 70.86 37.38 75.62 C35.9 78.96 35.85 82.17 36.44 85.75 C38.46 88.78 39.82 89.56 43.29 90.63 C46.52 91.08 46.52 91.08 48.87 88.92 C49.65 88.03 50.43 87.14 51.23 86.22 C52.11 85.26 52.99 84.31 53.89 83.32 C55.26 81.79 56.62 80.25 57.97 78.7 C65.47 70.12 65.47 70.12 70.32 69.21 C84.21 70.16 95.51 79.18 104.55 89.05 C110.17 95.7 114.31 103.12 118.44 110.75 C118.74 110.05 119.05 109.34 119.36 108.62 C126.96 92.22 138.49 78.82 155.44 71.75 C160.31 70.02 164.31 68.93 169.44 69.75 C173.13 72.51 176.22 75.78 179.38 79.12 C180.69 80.46 180.69 80.46 182.03 81.82 C188.44 88.43 188.44 88.43 188.44 90.75 C193.07 91.07 195.72 90.61 199.44 87.75 C200.63 84.16 200.69 81.53 200.44 77.75 C199.92 76.8 199.41 75.85 198.88 74.88 C196.85 70.47 197.54 67.42 198.44 62.75 C198.59 61.81 198.74 60.88 198.9 59.91 C202.75 39.92 213.55 23.29 227.44 8.75 C228.04 8.08 228.64 7.4 229.25 6.71 C246.24 -11.68 272.28 -21.46 296.78 -22.52 C318.93 -23.08 337.34 -17.31 356.31 -6.02 C361.67 -2.99 364.88 -2.07 371.06 -2.44 C391.71 -2.98 411.98 7.08 428.44 18.75 C429.49 19.48 430.53 20.21 431.61 20.96 C447.86 32.76 463.5 48.66 475.17 64.99 C476.59 66.96 478.05 68.91 479.52 70.86 C490.51 85.63 499.96 101.3 509.12 117.25 C509.63 118.13 510.14 119.01 510.66 119.91 C511.12 120.73 511.59 121.56 512.07 122.41 C512.48 123.13 512.89 123.85 513.32 124.59 C514.52 126.9 515.47 129.33 516.44 131.75 C253.76 131.75 -8.92 131.75 -279.56 131.75 C-270.16 112.94 -270.16 112.94 -267.06 107.75 C-266.66 107.08 -266.26 106.4 -265.85 105.71 C-256.69 90.5 -246.83 75.49 -235.56 61.75 C-235.13 61.22 -234.7 60.7 -234.26 60.16 C-211.5 32.52 -183.93 5.99 -147.56 -1.25 C-146.79 -1.45 -146.02 -1.64 -145.23 -1.85 C-142.34 -2.28 -139.65 -2.12 -136.74 -1.93 C-128.05 -1.46 -123.06 -2.92 -115.79 -8.02 C-81.03 -32.02 -31.92 -25.27 0 0 Z " fill="#FEFEFE" transform="translate(361.5625,285.25)"/>
<path d="M0 0 C1.49 0 1.49 0 3.01 0 C4.16 -0 5.3 -0 6.48 -0.01 C8.4 -0 8.4 -0 10.35 0 C11.71 0 13.07 -0 14.43 -0 C18.2 -0 21.97 -0 25.75 0 C29.84 0.01 33.93 0 38.02 0 C45.2 -0 52.38 0 59.57 0.01 C70.25 0.01 80.92 0.01 91.6 0.01 C109.56 0.01 127.52 0.01 145.49 0.02 C163.28 0.02 181.07 0.03 198.86 0.03 C200.52 0.03 200.52 0.03 202.21 0.03 C207.82 0.03 213.43 0.03 219.04 0.03 C258.82 0.03 298.59 0.04 338.37 0.05 C377.02 0.06 415.67 0.07 454.32 0.07 C455.51 0.07 456.7 0.07 457.93 0.07 C469.88 0.07 481.84 0.07 493.8 0.07 C518.15 0.08 542.51 0.08 566.87 0.08 C568.55 0.08 568.55 0.08 570.26 0.08 C645.1 0.09 719.94 0.11 794.78 0.12 C796.71 4.13 798.64 8.13 800.57 12.14 C801.11 13.26 801.66 14.39 802.22 15.55 C805.99 23.39 809.5 31.24 812.59 39.37 C813.26 41.12 813.26 41.12 813.95 42.9 C829.78 84.37 829.78 84.37 829.78 97.12 C543.67 97.12 257.56 97.12 -37.22 97.12 C-32.52 73.62 -32.52 73.62 -29.66 64.56 C-29.32 63.48 -28.98 62.41 -28.64 61.3 C-9.09 0.51 -9.09 0.51 0 0 Z " fill="#3590CE" transform="translate(84.22132376208901,416.87532883509994)"/>
<path d="M0 0 C1.98 1.36 1.98 1.36 3.39 2.6 C8.6 6.9 13.17 7.22 19.8 7.11 C20.78 7.11 21.76 7.1 22.77 7.1 C29.46 6.87 33.98 5.84 38.98 1.09 C45.49 -4.53 55.68 -3.21 63.73 -2.82 C72.97 -2.06 79.98 2.46 85.98 9.36 C91.95 18.64 92.62 29.56 90.39 40.18 C88.98 45.68 87.31 51.09 85.54 56.48 C84.89 58.36 84.89 58.36 84.98 60.36 C94.46 64.64 101.91 65.3 111.8 61.93 C124.63 56.24 134.46 46.38 143.98 36.36 C151.13 28.87 158.03 25.98 168.32 25.11 C178.25 25.79 186.97 29.36 195.8 33.74 C196.88 34.27 197.96 34.8 199.07 35.34 C231.33 51.35 262.31 71.35 289.47 95.05 C291 96.38 292.55 97.67 294.11 98.96 C307.44 110.01 319.79 122.08 332.05 134.3 C332.79 135.04 332.79 135.04 333.54 135.79 C339.24 141.47 344.75 147.25 349.98 153.36 C351.44 154.97 352.9 156.58 354.36 158.18 C359.09 163.43 363.56 168.86 367.98 174.36 C368.9 175.48 369.81 176.61 370.73 177.73 C389.89 201.32 407.33 226.32 422.98 252.36 C423.79 253.69 423.79 253.69 424.61 255.05 C432.99 268.86 440.73 282.93 447.98 297.36 C448.72 298.82 448.72 298.82 449.48 300.31 C480.83 362.4 499.9 434.75 500.22 504.46 C500.23 505.22 500.23 505.98 500.24 506.76 C500.26 510.81 500.27 514.86 500.28 518.91 C500.29 522.17 500.31 525.43 500.34 528.69 C500.65 560.28 497.96 590.96 491.86 621.99 C491.57 623.48 491.57 623.48 491.28 625 C479.31 687.14 461.2 747.88 436.98 806.36 C436.49 807.56 435.99 808.76 435.48 810 C420 847.22 402.65 884.01 382.41 918.89 C380.61 922.01 378.87 925.17 377.14 928.33 C371.37 938.85 365.25 949.14 358.98 959.36 C358.54 960.09 358.09 960.82 357.64 961.56 C344.04 983.66 329.57 1005.41 314.38 1026.44 C312.83 1028.58 311.3 1030.73 309.77 1032.88 C303.08 1042.24 296.2 1051.4 288.98 1060.36 C288.47 1061.01 287.95 1061.65 287.42 1062.31 C281.33 1069.88 275.17 1077.39 268.86 1084.79 C266.07 1088.06 263.36 1091.38 260.67 1094.74 C255.8 1100.73 250.52 1106.3 245.22 1111.91 C242.22 1115.09 239.34 1118.36 236.49 1121.68 C234.37 1124.06 232.09 1126.27 229.82 1128.5 C228.08 1130.27 226.46 1132.09 224.86 1133.98 C220.63 1138.84 216.11 1143.38 211.55 1147.93 C210.34 1149.14 210.34 1149.14 209.1 1150.38 C204.82 1154.66 200.47 1158.77 195.89 1162.71 C192.73 1165.46 189.71 1168.36 186.67 1171.24 C180.65 1176.9 174.45 1182.21 167.98 1187.36 C166.78 1188.35 165.58 1189.35 164.38 1190.34 C154.56 1198.47 144.43 1206.05 133.98 1213.36 C133.36 1213.8 132.74 1214.24 132.1 1214.69 C94.67 1241.01 47.76 1262.91 0.89 1255.29 C-35.15 1248.52 -67.92 1228.97 -97.02 1207.36 C-97.71 1206.85 -98.4 1206.34 -99.11 1205.81 C-119.5 1190.6 -138.94 1174.17 -157.43 1156.73 C-159.6 1154.68 -161.79 1152.65 -164 1150.66 C-171.69 1143.7 -179.05 1136.43 -186.39 1129.11 C-186.91 1128.59 -187.44 1128.07 -187.97 1127.54 C-193.36 1122.18 -198.64 1116.79 -203.58 1111.01 C-205.46 1108.85 -207.46 1106.85 -209.52 1104.86 C-212.89 1101.53 -216.06 1098.11 -219.14 1094.52 C-221.35 1091.98 -223.62 1089.52 -225.89 1087.05 C-230.04 1082.5 -233.95 1077.82 -237.82 1073.02 C-239.89 1070.51 -242.05 1068.12 -244.27 1065.74 C-250.07 1059.36 -255.19 1052.45 -260.36 1045.56 C-261.95 1043.46 -263.54 1041.36 -265.13 1039.27 C-266.13 1037.95 -267.14 1036.63 -268.14 1035.3 C-268.57 1034.74 -269 1034.18 -269.44 1033.6 C-300.13 992.85 -327.12 948.38 -351.02 903.36 C-351.48 902.49 -351.95 901.61 -352.43 900.71 C-356.01 893.95 -359.53 887.17 -363.02 880.36 C-363.31 879.78 -363.61 879.2 -363.92 878.6 C-400.45 807.59 -428.73 731.49 -460.22 545.52 C-460.22 544.73 -460.22 543.95 -460.23 543.13 C-460.24 538.94 -460.25 534.75 -460.26 530.56 C-460.26 527.17 -460.27 523.78 -460.3 520.38 C-460.44 498.82 -459.79 477.77 -457.02 456.36 C-456.9 455.49 -456.79 454.61 -456.68 453.71 C-456.04 448.78 -455.29 443.88 -454.45 438.99 C-454.33 438.26 -454.21 437.54 -454.08 436.79 C-444.07 378.22 -423.61 321.48 -393.65 270.17 C-392.02 267.38 -390.41 264.58 -388.8 261.77 C-381.37 248.95 -373.4 236.58 -365.02 224.36 C-364.43 223.51 -363.85 222.66 -363.25 221.78 C-355.65 210.71 -347.79 199.89 -339.53 189.31 C-338.08 187.45 -336.65 185.59 -335.21 183.72 C-325.73 171.44 -315.45 159.84 -305.02 148.36 C-304.28 147.54 -303.55 146.71 -302.79 145.86 C-296.37 138.7 -289.62 131.86 -282.83 125.05 C-282.35 124.57 -281.88 124.1 -281.39 123.61 C-275.78 117.97 -270.07 112.53 -264.02 107.36 C-262.84 106.33 -261.66 105.29 -260.48 104.26 C-168.62 23.82 -168.62 23.82 -125.58 25.43 C-116.4 26.34 -110.32 29.77 -104.02 36.36 C-85.99 55.35 -85.99 55.35 -62.02 64.36 C-56.01 64.35 -51.23 63.52 -46.02 60.36 C-46.02 57.09 -46.17 55.42 -47.11 52.45 C-50.81 40.16 -54.55 25.98 -48.95 13.68 C-43.85 5.36 -37.54 0.5 -28.15 -2.17 C-19.58 -4.05 -7.8 -4.19 0 0 Z M-30.68 21.2 C-33.64 25.99 -32.39 31.58 -31.29 36.86 C-29.31 44.57 -26.81 51.94 -23.87 59.34 C-22.94 62.63 -22.83 64.18 -24.02 67.36 C-30.87 75.82 -41.61 80.89 -52.02 83.36 C-69.87 84.96 -84.9 79.15 -98.83 67.86 C-100.57 66.37 -102.3 64.87 -104.02 63.36 C-104.75 62.75 -105.48 62.14 -106.23 61.52 C-109.7 58.59 -112.77 55.58 -115.7 52.11 C-120.05 47.06 -120.05 47.06 -126.29 45.09 C-134.15 44.79 -139.59 46.81 -146.52 50.36 C-147.58 50.89 -148.65 51.42 -149.75 51.97 C-167.85 61.14 -185.39 71.73 -202.02 83.36 C-202.88 83.96 -202.88 83.96 -203.76 84.57 C-220.36 96.11 -235.91 108.94 -251.02 122.36 C-251.82 123.07 -252.62 123.78 -253.44 124.51 C-258.15 128.7 -262.69 132.99 -267.1 137.48 C-268.92 139.27 -270.81 140.91 -272.77 142.55 C-278.1 147.15 -282.72 152.42 -287.44 157.63 C-288.99 159.34 -290.56 161.02 -292.14 162.71 C-297.49 168.42 -302.66 174.21 -307.56 180.32 C-309.42 182.62 -311.29 184.9 -313.19 187.16 C-326.07 202.54 -337.88 218.68 -349.02 235.36 C-349.87 236.64 -349.87 236.64 -350.74 237.94 C-359.97 251.81 -368.72 265.91 -377.02 280.36 C-377.68 281.51 -377.68 281.51 -378.35 282.68 C-413.12 343.23 -433.48 409.97 -440.02 479.36 C-440.14 480.51 -440.14 480.51 -440.27 481.68 C-441.08 489.62 -441.21 497.54 -441.25 505.52 C-441.26 506.59 -441.26 506.59 -441.27 507.68 C-441.3 513.08 -441.32 518.47 -441.33 523.86 C-441.33 524.65 -441.33 525.44 -441.33 526.26 C-441.37 549.54 -440.88 572.34 -437.02 595.36 C-436.7 597.48 -436.38 599.59 -436.07 601.7 C-435.17 607.61 -434.12 613.49 -433.02 619.36 C-432.81 620.48 -432.6 621.6 -432.38 622.76 C-427.51 648.68 -421.81 674.55 -413.83 699.71 C-413 702.43 -412.21 705.17 -411.42 707.91 C-408.12 719.34 -404.35 730.6 -400.52 741.86 C-400.17 742.89 -399.82 743.92 -399.46 744.98 C-393.19 763.34 -386.48 781.46 -379.02 799.36 C-378.76 799.98 -378.5 800.6 -378.23 801.24 C-361.75 840.77 -343.11 879.55 -321.61 916.61 C-319.94 919.49 -318.29 922.37 -316.63 925.26 C-298.37 956.96 -278.34 987.64 -257.02 1017.36 C-256.45 1018.16 -255.88 1018.95 -255.29 1019.77 C-240.63 1040.16 -224.46 1059.31 -207.42 1077.75 C-205.48 1079.86 -203.58 1082 -201.7 1084.18 C-190.75 1096.76 -178.97 1108.57 -167.16 1120.35 C-164.62 1122.88 -162.08 1125.43 -159.54 1127.97 C-157.9 1129.61 -156.26 1131.25 -154.62 1132.89 C-153.87 1133.64 -153.13 1134.39 -152.36 1135.16 C-148.28 1139.22 -144.12 1143.11 -139.76 1146.86 C-137.18 1149.09 -134.7 1151.41 -132.2 1153.74 C-127.56 1158.03 -122.77 1162.1 -117.84 1166.06 C-115.34 1168.1 -112.88 1170.19 -110.43 1172.3 C-92.97 1187.31 -73.86 1200.69 -54.02 1212.36 C-53.43 1212.71 -52.85 1213.06 -52.25 1213.42 C-36.81 1222.67 -20.5 1229.98 -3.02 1234.36 C-1.23 1234.89 -1.23 1234.89 0.58 1235.42 C33.6 1244.56 70.29 1228.62 98.57 1212.93 C103.82 1209.91 108.93 1206.7 113.98 1203.36 C114.66 1202.92 115.33 1202.48 116.02 1202.02 C130.86 1192.22 144.94 1181.37 158.39 1169.74 C160.03 1168.33 161.68 1166.93 163.34 1165.54 C178.13 1153.07 191.86 1139.58 205.55 1125.93 C206.54 1124.94 206.54 1124.94 207.55 1123.93 C216.82 1114.73 216.82 1114.73 225.57 1105.03 C227.91 1102.28 230.39 1099.68 232.86 1097.05 C237.4 1092.18 241.68 1087.16 245.85 1081.96 C247.94 1079.41 250.12 1076.98 252.36 1074.55 C256.34 1070.18 260 1065.62 263.62 1060.95 C266.6 1057.11 269.64 1053.34 272.73 1049.59 C279.66 1041.18 286.08 1032.48 292.39 1023.59 C293.91 1021.47 295.44 1019.37 296.99 1017.28 C311.92 996.99 325.77 975.81 338.98 954.36 C339.61 953.35 340.24 952.33 340.89 951.28 C354.93 928.57 368 905.41 380.23 881.67 C381.93 878.38 383.65 875.12 385.42 871.87 C393.45 857.11 400.24 841.76 407.07 826.42 C407.94 824.47 408.81 822.53 409.69 820.58 C429.31 776.94 445.48 731.25 457.48 684.93 C457.87 683.45 458.25 681.97 458.64 680.49 C458.85 679.7 459.05 678.9 459.27 678.08 C459.79 676.09 460.33 674.11 460.88 672.14 C463.78 661.56 466.13 650.91 468.36 640.18 C468.55 639.24 468.75 638.31 468.95 637.35 C488.77 541.76 484.93 444.78 398.26 249.14 C396.27 246.12 394.25 243.12 392.2 240.14 C390.93 238.29 389.67 236.42 388.42 234.56 C377.78 218.87 366.51 203.7 354.42 189.1 C352.34 186.58 350.29 184.03 348.23 181.49 C344.65 177.11 340.92 172.89 337.11 168.7 C335.18 166.58 333.29 164.42 331.42 162.24 C328.42 158.78 325.22 155.58 321.96 152.37 C320.03 150.41 318.22 148.39 316.42 146.3 C311.47 140.57 306.14 135.44 300.41 130.5 C297.89 128.28 295.44 125.99 292.99 123.69 C286.53 117.63 279.92 111.88 272.98 106.36 C271.88 105.46 270.77 104.55 269.67 103.64 C249.25 86.88 226.95 72.16 203.62 59.77 C201.7 58.74 199.78 57.71 197.86 56.67 C194.46 54.83 191.04 53.03 187.61 51.24 C186.54 50.66 185.47 50.08 184.37 49.48 C177.32 45.86 170.95 43.83 162.98 45.36 C158.31 48.14 155.16 52.14 151.67 56.24 C141.73 67.89 128.27 76.18 113.98 81.36 C113.32 81.61 112.66 81.86 111.98 82.11 C101.45 85.4 89.75 84.21 79.98 79.36 C65.26 71.46 65.26 71.46 61.98 64.36 C62.45 61.5 62.45 61.5 63.62 58.4 C64.04 57.27 64.45 56.14 64.87 54.97 C65.32 53.8 65.77 52.63 66.23 51.43 C67.1 49.11 67.96 46.78 68.81 44.46 C69.2 43.43 69.59 42.41 70 41.35 C71.87 35.67 72.96 29.33 71.98 23.36 C68.54 18.74 64.81 16.81 59.19 15.92 C52.08 15.63 48.27 16.7 42.92 21.44 C40.93 23.37 40.93 23.37 39.04 25.61 C36.98 27.36 36.98 27.36 34.68 27.54 C33.83 27.4 32.98 27.26 32.11 27.11 C23.78 26.02 15.32 25.62 7.05 27.3 C4.3 27.68 3.4 27.67 1.13 26.01 C-0.06 24.78 -1.22 23.51 -2.35 22.22 C-5.61 18.58 -8.79 16.65 -13.66 16.02 C-20.06 15.81 -26.14 16.17 -30.68 21.2 Z " fill="#FDFDFD" transform="translate(460.015625,2.63671875)"/>
<path d="M0 0 C62.04 0 124.08 0 188 0 C200.08 54.38 180 124.04 163.92 176.01 C162.91 179.28 161.95 182.57 160.99 185.86 C139.45 259.3 112.53 334.94 65 413.43 C61.89 418.52 58.85 423.64 55.88 428.81 C50.24 438.54 43.98 447.86 37.8 457.25 C35.99 460.02 34.21 462.81 32.44 465.61 C29.29 470.58 26.02 475.46 22.69 480.31 C22.13 481.12 21.57 481.94 21 482.77 C16.09 489.91 11.07 496.97 6 504 C5.55 504.64 5.11 505.28 4.64 505.94 C3.45 507.65 2.23 509.32 1 511 C0.67 511 0.34 511 0 511 C0 342.37 0 173.74 0 0 Z " fill="#E62802" transform="translate(726,514)"/>
<path d="M0 0 C32.01 0 64.02 0 97 0 C97.22 59.17 97.22 59.17 97.28 77.7 C97.28 78.36 97.29 79.01 97.29 79.69 C97.36 101.74 97.42 123.79 97.47 145.84 C97.47 146.56 97.47 147.28 97.47 148.03 C97.5 163.67 97.53 179.32 97.56 194.96 C97.58 202.64 97.59 210.31 97.6 217.98 C97.61 219.13 97.61 219.13 97.61 220.29 C97.66 245.03 97.74 269.76 97.84 294.5 C97.94 319.92 98.01 345.35 98.03 370.77 C98.04 374.37 98.04 377.96 98.04 381.55 C98.04 382.26 98.05 382.97 98.05 383.7 C98.06 395.07 98.11 406.44 98.18 417.81 C98.24 429.25 98.26 440.69 98.25 452.13 C98.24 458.33 98.25 464.52 98.31 470.71 C98.36 476.39 98.37 482.07 98.33 487.74 C98.33 489.79 98.34 491.84 98.37 493.89 C98.57 506.17 97.42 514.01 88.8 523.14 C88.33 523.61 87.86 524.09 87.37 524.58 C85.25 526.77 83.39 529.17 81.5 531.56 C77.32 536.64 73.08 541.67 68.82 546.68 C66.96 548.86 65.11 551.06 63.28 553.26 C57.6 560.04 51.74 566.6 45.71 573.07 C43.55 575.41 41.44 577.77 39.38 580.19 C35.93 584.18 32.17 587.84 28.42 591.55 C25.69 594.31 23.17 597.19 20.64 600.13 C14.47 607.16 7.47 613.4 0 619 C0 414.73 0 210.46 0 0 Z " fill="#FEDF00" transform="translate(629,514)"/>
<path d="M0 0 C31.68 0 63.36 0 96 0 C96 204.27 96 408.54 96 619 C92.93 617.46 91.32 616.58 88.95 614.37 C88.37 613.82 87.78 613.27 87.18 612.71 C86.54 612.1 85.91 611.5 85.25 610.88 C84.23 609.92 84.23 609.92 83.2 608.94 C76.52 602.58 69.97 596.08 63.44 589.56 C62.92 589.05 62.41 588.54 61.87 588.01 C56.59 582.75 51.4 577.46 46.55 571.8 C44 568.84 41.3 566.03 38.62 563.19 C34 558.25 29.61 553.2 25.38 547.92 C22.46 544.33 19.42 540.86 16.38 537.38 C11.73 532.05 7.23 526.67 3 521 C2.48 520.48 1.97 519.96 1.44 519.42 C-0.67 515.88 -0.41 512.43 -0.37 508.43 C-0.37 507.56 -0.38 506.68 -0.38 505.77 C-0.39 502.81 -0.37 499.85 -0.36 496.89 C-0.36 494.76 -0.36 492.62 -0.37 490.48 C-0.38 484.6 -0.36 478.71 -0.35 472.83 C-0.34 466.49 -0.34 460.15 -0.34 453.8 C-0.34 442.81 -0.33 431.82 -0.32 420.83 C-0.3 409.3 -0.29 397.77 -0.28 386.24 C-0.28 385.53 -0.28 384.81 -0.28 384.07 C-0.28 380.43 -0.28 376.79 -0.28 373.16 C-0.27 347.37 -0.25 321.59 -0.23 295.81 C-0.2 270.76 -0.18 245.72 -0.16 220.67 C-0.16 219.89 -0.16 219.12 -0.16 218.33 C-0.16 210.58 -0.16 202.82 -0.15 195.07 C-0.14 179.28 -0.14 163.49 -0.13 147.7 C-0.13 146.97 -0.13 146.25 -0.13 145.5 C-0.11 123.24 -0.1 100.98 -0.08 78.72 C-0.08 77.48 -0.07 76.23 -0.07 74.94 C-0.05 49.96 -0.03 24.98 0 0 Z " fill="#FEDF00" transform="translate(240,515)"/>
<path d="M0 0 C32.01 0 64.02 0 97 0 C97.22 58.94 97.43 117.88 97.55 176.82 C97.55 178.13 97.55 178.13 97.56 179.46 C97.59 198.42 97.63 217.38 97.66 236.34 C97.68 245.64 97.7 254.94 97.71 264.23 C97.72 265.16 97.72 266.08 97.72 267.04 C97.77 297.02 97.87 327.01 97.99 357 C98.11 387.82 98.19 418.63 98.22 449.45 C98.22 453.8 98.23 458.16 98.23 462.51 C98.23 463.79 98.23 463.79 98.24 465.1 C98.25 478.89 98.31 492.68 98.39 506.47 C98.47 520.34 98.49 534.2 98.48 548.06 C98.47 556.3 98.49 564.53 98.57 572.77 C98.62 578.92 98.61 585.07 98.57 591.23 C98.57 593.71 98.58 596.2 98.62 598.69 C98.93 618.22 98.93 618.22 94.19 624.04 C91.09 627.19 87.68 629.57 84 632 C82.21 633.46 80.44 634.94 78.69 636.44 C77.35 637.51 77.35 637.51 75.98 638.61 C73.77 640.38 71.58 642.17 69.39 643.99 C14.99 689 14.99 689 0 689 C0 578.45 0 467.9 0 354 C8.41 350.04 8.41 350.04 17 346 C49.71 325.49 74.2 297.07 84 259 C92.23 222.84 87.8 187.53 70 155 C69.51 154.09 69.02 153.18 68.51 152.24 C60.04 137.39 48.5 124.39 35 114 C34.12 113.32 33.25 112.64 32.34 111.94 C22.19 104.3 11.83 98.73 0 94 C0 62.98 0 31.96 0 0 Z " fill="#E62802" transform="translate(532,514)"/>
<path d="M0 0 C31.68 0 63.36 0 96 0 C96 30.36 96 60.72 96 92 C88.08 95.96 88.08 95.96 80 100 C46.35 118 21.79 147.4 10.57 184.07 C0.4 218.84 4.62 258.08 21.38 290.06 C38.71 321.69 63.66 339.68 96 355 C96 464.89 96 574.78 96 688 C89.85 685.95 84.66 684.06 79.12 680.94 C78.01 680.31 78.01 680.31 76.87 679.67 C60.21 670.12 43.86 659.16 29 647 C28.1 646.28 27.21 645.56 26.29 644.82 C20.97 640.53 15.76 636.12 10.56 631.69 C9.97 631.18 9.38 630.68 8.77 630.16 C8.21 629.68 7.65 629.2 7.07 628.7 C6.32 628.06 6.32 628.06 5.56 627.41 C5.05 626.95 4.53 626.48 4 626 C3.32 625.52 2.64 625.04 1.93 624.55 C-1.09 620.57 -0.54 616.66 -0.49 611.79 C-0.5 610.74 -0.5 609.68 -0.51 608.6 C-0.52 605.03 -0.5 601.47 -0.48 597.91 C-0.48 595.34 -0.49 592.77 -0.49 590.2 C-0.5 584.6 -0.49 579 -0.48 573.4 C-0.45 565.07 -0.45 556.74 -0.45 548.41 C-0.46 534.4 -0.45 520.39 -0.42 506.39 C-0.4 492.51 -0.38 478.64 -0.38 464.76 C-0.38 463.9 -0.38 463.04 -0.38 462.15 C-0.38 457.77 -0.38 453.4 -0.37 449.02 C-0.37 418 -0.34 386.97 -0.3 355.95 C-0.27 325.81 -0.24 295.67 -0.22 265.53 C-0.22 264.6 -0.22 263.67 -0.22 262.71 C-0.21 253.39 -0.21 244.06 -0.2 234.73 C-0.19 215.73 -0.18 196.73 -0.17 177.73 C-0.17 176.86 -0.17 175.98 -0.17 175.08 C-0.13 116.72 -0.07 58.36 0 0 Z " fill="#E62802" transform="translate(337,514)"/>
<path d="M0 0 C0 110.55 0 221.1 0 335 C-28.72 348.26 -50.99 351.49 -81 341.48 C-86.4 339.48 -91.69 337.21 -97 335 C-97 224.78 -97 114.56 -97 1 C-91.06 2.32 -85.12 3.64 -79 5 C-53.29 10.24 -30.03 8.21 -5.05 0.52 C-3 0 -3 0 0 0 Z " fill="#FEDF00" transform="translate(531,869)"/>
<path d="M0 0 C31.35 0 62.7 0 95 0 C95 118.8 95 237.6 95 360 C91.2 354.94 88.67 349.5 85.94 343.81 C85.64 343.19 85.34 342.57 85.03 341.93 C70.75 312.19 57.85 281.78 46 251 C45.29 249.15 45.29 249.15 44.56 247.27 C20.52 184.43 -0.91 116.74 -3 49 C-3.04 47.88 -3.07 46.77 -3.11 45.61 C-3.21 42.14 -3.27 38.66 -3.31 35.19 C-3.33 34.19 -3.35 33.19 -3.37 32.16 C-3.35 21.12 -1.53 11.23 0 0 Z " fill="#FEDF00" transform="translate(47,514)"/>
<path d="M0 0 C29.7 0 59.4 0 90 0 C103.23 52.9 81.58 124.4 65.92 175.01 C64.91 178.28 63.95 181.57 62.99 184.86 C48.82 233.18 31.59 280.36 11.44 326.5 C10.99 327.52 10.99 327.52 10.54 328.55 C7.52 335.45 4.46 342.31 1 349 C0.67 349 0.34 349 0 349 C0 233.83 0 118.66 0 0 Z " fill="#FEDF00" transform="translate(824,515)"/>
<path d="M0 0 C32.01 0 64.02 0 97 0 C97 30.36 97 60.72 97 92 C91.39 90.35 85.78 88.7 80 87 C68.43 84.4 57.43 83.72 45.62 83.69 C44.94 83.68 44.26 83.68 43.55 83.68 C27.8 83.63 15.55 86.68 0 91 C0 60.97 0 30.94 0 0 Z " fill="#FEDF00" transform="translate(434,515)"/>
<path d="M0 0 C3.93 -0.58 6.98 -0.54 10.37 1.75 C32.91 20.55 48.69 50.77 52.68 79.61 C52.77 80.26 52.86 80.92 52.95 81.59 C54.81 96.17 55.02 112.24 51.68 126.61 C51.41 127.79 51.14 128.97 50.86 130.18 C45.88 150.36 37.12 168.74 23.68 184.61 C23.24 185.12 22.8 185.64 22.35 186.17 C6.93 204.17 -13.68 218.23 -36.32 225.61 C-37.31 225.28 -38.3 224.95 -39.32 224.61 C-38.36 224.06 -37.39 223.51 -36.39 222.95 C-28.9 218.64 -22.38 214.33 -16.18 208.26 C-14.32 206.61 -14.32 206.61 -12.32 206.61 C-12.07 206.02 -11.81 205.44 -11.55 204.84 C-10.21 202.4 -8.7 200.78 -6.76 198.79 C18.33 170.97 21.25 131.25 19.68 95.61 C19.18 88.5 18.15 81.57 16.68 74.61 C16.5 73.79 16.33 72.98 16.16 72.15 C11.05 49 0.9 26.4 -18.32 11.61 C-15.94 5.89 -10.9 3.81 -5.51 1.29 C-3.67 0.9 -1.83 0.48 0 0 Z " fill="#D48800" transform="translate(557.32421875,637.39453125)"/>
<path d="M0 0 C9.95 4.47 19.84 9.54 28.81 15.75 C26.48 18.09 24.88 18.46 21.75 19.44 C15.48 21.62 10.5 25.06 5.81 29.75 C3.52 29.88 1.23 29.98 -1.06 30.06 C-13.33 30.72 -22.78 34.9 -31.31 43.81 C-34.06 47.05 -35.18 50.41 -36.62 54.38 C-38.4 58.34 -39.53 60.33 -43.2 62.7 C-54.67 67.03 -69.63 68.32 -81.25 63.94 C-84.05 62.61 -86.31 61.25 -88.19 58.75 C-89.69 45.52 -82 31.76 -74.19 21.75 C-67.18 13.39 -59.44 5.87 -51.19 -1.25 C-50.38 -2 -49.57 -2.75 -48.73 -3.53 C-36.3 -13.92 -13.63 -5.39 0 0 Z " fill="#D58800" transform="translate(528.1875,615.25)"/>
<path d="M0 0 C0 0.66 0 1.32 0 2 C-1.45 3.29 -2.96 4.51 -4.5 5.69 C-5.88 6.77 -5.88 6.77 -7.29 7.88 C-8.87 9.12 -10.46 10.36 -12.06 11.59 C-24.92 22.1 -37.11 39.45 -40 56 C-40.07 57.96 -40.14 59.92 -40.19 61.88 C-40.52 66.53 -40.52 66.53 -42.55 68.51 C-44.71 69.64 -46.65 70.36 -49 71 C-50.23 71.35 -51.46 71.7 -52.73 72.07 C-63.38 74.67 -76.36 74.49 -86 69 C-91.35 65.36 -96.4 61.44 -100 56 C-100.11 51.88 -96.75 48.9 -94.19 45.94 C-93.7 45.37 -93.2 44.79 -92.7 44.21 C-79.35 28.99 -63.42 18.22 -45 10 C-44.37 9.72 -43.73 9.43 -43.08 9.14 C-29.65 3.3 -14.69 -0.44 0 0 Z " fill="#D48800" transform="translate(476,607)"/>
<path d="M0 0 C16 0 16 0 20.48 3.95 C21.68 5.73 22.82 7.55 23.91 9.41 C24.53 10.36 25.15 11.32 25.79 12.3 C27.75 15.33 29.62 18.41 31.5 21.5 C32.82 23.57 34.14 25.65 35.47 27.71 C38.72 32.77 41.85 37.88 45 43 C45.33 28.81 45.66 14.62 46 0 C50.62 0 55.24 0 60 0 C60 21.12 60 42.24 60 64 C44 64 44 64 39.9 59.96 C38.86 58.13 37.87 56.27 36.94 54.38 C35.81 52.37 34.68 50.36 33.55 48.36 C32.98 47.32 32.41 46.27 31.83 45.2 C28.74 39.8 25.18 34.73 21.62 29.62 C19.44 26.45 17.25 23.27 15 20 C14.67 34.52 14.34 49.04 14 64 C9.38 64 4.76 64 0 64 C0 42.88 0 21.76 0 0 Z " fill="#FEFEFE" transform="translate(382,436)"/>
<path d="M0 0 C5.94 0 11.88 0 18 0 C20.92 7.22 23.84 14.44 26.75 21.67 C27.74 24.12 28.73 26.58 29.73 29.03 C31.16 32.57 32.59 36.11 34.02 39.65 C34.67 41.28 34.67 41.28 35.35 42.94 C36.17 44.99 37 47.04 37.83 49.1 C38.61 51.04 39.4 52.98 40.2 54.92 C40.57 55.82 40.93 56.72 41.31 57.65 C41.64 58.44 41.96 59.23 42.3 60.05 C43 62 43 62 43 64 C37.72 64 32.44 64 27 64 C25.35 59.71 23.7 55.42 22 51 C13.09 50.67 4.18 50.34 -5 50 C-5.99 53.3 -6.98 56.6 -8 60 C-8.66 61.32 -9.32 62.64 -10 64 C-14.95 64 -19.9 64 -25 64 C-24.08 59.42 -22.7 55.47 -20.94 51.19 C-20.63 50.44 -20.32 49.68 -20.01 48.9 C-19.01 46.45 -18 44.01 -17 41.56 C-16.32 39.89 -15.63 38.21 -14.95 36.54 C-13.27 32.43 -11.6 28.33 -9.91 24.23 C-8.61 21.04 -7.31 17.85 -6 14.66 C-4.01 9.77 -2.01 4.89 0 0 Z " fill="#FDFEFE" transform="translate(597,436)"/>
<path d="M0 0 C5.94 0 11.88 0 18 0 C21.26 8.05 24.52 16.1 27.78 24.15 C29.29 27.89 30.8 31.62 32.32 35.36 C33.78 38.96 35.24 42.57 36.7 46.17 C37.25 47.55 37.81 48.93 38.37 50.31 C39.15 52.23 39.93 54.16 40.71 56.08 C41.15 57.18 41.59 58.28 42.05 59.41 C43 62 43 62 43 64 C37.72 64 32.44 64 27 64 C25.35 59.71 23.7 55.42 22 51 C13.09 51 4.18 51 -5 51 C-6.65 55.29 -8.3 59.58 -10 64 C-14.95 64 -19.9 64 -25 64 C-22.31 53.91 -18.19 44.43 -14.19 34.81 C-13.13 32.26 -12.07 29.71 -11.02 27.16 C-10.33 25.49 -9.64 23.83 -8.95 22.17 C-5.91 14.8 -2.94 7.41 0 0 Z " fill="#FDFDFE" transform="translate(188,436)"/>
<path d="M0 0 C3.74 2.79 5.32 5.56 7.25 9.69 C12.22 20.05 20.16 26.44 30 32 C25.11 36.89 12.58 36.16 5.88 36.31 C-3.86 36.16 -13.43 34.75 -23 33 C-23.68 32.88 -24.37 32.75 -25.08 32.63 C-32.92 31.1 -37.61 28.58 -42.21 22 C-50.9 7.42 -50.9 7.42 -52 0 C-35.34 -12.02 -17.69 -8.98 0 0 Z " fill="#D58800" transform="translate(476,833)"/>
<path d="M0 0 C17.49 0 34.98 0 53 0 C53 3.63 53 7.26 53 11 C40.46 11 27.92 11 15 11 C15 15.62 15 20.24 15 25 C26.22 25 37.44 25 49 25 C49 28.3 49 31.6 49 35 C37.78 35.33 26.56 35.66 15 36 C14.67 41.61 14.34 47.22 14 53 C27.2 53 40.4 53 54 53 C54 56.63 54 60.26 54 64 C36.18 64 18.36 64 0 64 C0 42.88 0 21.76 0 0 Z " fill="#FEFEFE" transform="translate(310,436)"/>
<path d="M0 0 C5.61 3.83 9.88 8.77 11.42 15.49 C11.54 16.24 11.66 16.98 11.79 17.75 C6.69 18.21 1.87 18.47 -3.21 17.75 C-5.37 15.84 -6.15 14.36 -7.16 11.69 C-8.09 9.54 -8.09 9.54 -10.49 8.51 C-16.23 6.9 -22.71 6.57 -28.15 9.31 C-32.67 12.91 -35.1 17.01 -36.21 22.75 C-36.88 31.59 -36.53 39.53 -30.9 46.68 C-25.98 50.45 -21.34 51.38 -15.21 50.75 C-10.44 49.25 -7.23 47.39 -4.71 43 C-4.22 41.92 -3.72 40.85 -3.21 39.75 C1.41 39.75 6.03 39.75 10.79 39.75 C9.57 47.08 7.34 52.06 1.31 56.62 C-8.83 62.85 -20.88 63.58 -32.47 61.03 C-40.67 57.91 -46.42 52.69 -50.21 44.75 C-53.36 35.66 -54.17 22.89 -50.45 13.8 C-45.88 6.24 -39.45 -0.51 -30.99 -3.33 C-20.72 -5.84 -9.29 -5.27 0 0 Z " fill="#FDFDFE" transform="translate(512.2109375,439.25390625)"/>
<path d="M0 0 C5.73 4.59 8.88 9.29 9.91 16.61 C4.82 17.07 -0 17.34 -5.09 16.61 C-7.24 14.7 -8.03 13.23 -9.03 10.55 C-9.97 8.4 -9.97 8.4 -12.37 7.38 C-18.09 5.76 -24.58 5.45 -30.02 8.11 C-34.72 11.95 -36.91 16.7 -38.09 22.61 C-38.66 29.58 -38.46 36.35 -35.09 42.61 C-31.2 47.17 -26.6 49.38 -20.71 49.92 C-16.42 49.55 -13.8 48.81 -10.09 46.61 C-9.35 45.24 -8.67 43.84 -8.02 42.42 C-6.88 40.29 -6.88 40.29 -5.09 38.61 C-0.36 37.89 4.17 38.15 8.91 38.61 C8.12 44.85 6.09 48.92 1.91 53.61 C-8.33 61.35 -18.65 61.65 -31.09 60.61 C-34.8 59.76 -37.83 58.56 -41.09 56.61 C-41.99 56.07 -42.9 55.54 -43.84 54.98 C-51.74 46.64 -54.55 37.15 -54.52 25.82 C-54.26 16.94 -51.36 9.64 -45.27 3.11 C-33.19 -7.88 -13.61 -9.07 0 0 Z " fill="#FDFEFE" transform="translate(735.0859375,440.390625)"/>
<path d="M0 0 C17.16 0 34.32 0 52 0 C52 3.63 52 7.26 52 11 C39.46 11 26.92 11 14 11 C14 15.95 14 20.9 14 26 C24.89 26 35.78 26 47 26 C47 29.63 47 33.26 47 37 C36.11 37 25.22 37 14 37 C14 45.91 14 54.82 14 64 C9.38 64 4.76 64 0 64 C0 42.88 0 21.76 0 0 Z " fill="#FEFEFE" transform="translate(798,436)"/>
<path d="M0 0 C4.95 0 9.9 0 15 0 C18.93 9.37 22.07 18.98 25.25 28.62 C25.81 30.31 26.37 32 26.93 33.69 C28.29 37.79 29.65 41.9 31 46 C32.71 43.43 33.56 41.68 34.5 38.82 C34.77 37.98 35.05 37.14 35.34 36.28 C35.63 35.38 35.92 34.48 36.22 33.55 C36.53 32.63 36.83 31.7 37.15 30.75 C38.12 27.79 39.09 24.83 40.06 21.88 C41.04 18.91 42.01 15.94 42.99 12.98 C43.6 11.13 44.2 9.29 44.8 7.44 C45.08 6.61 45.35 5.78 45.63 4.92 C45.87 4.19 46.11 3.45 46.36 2.69 C47 1 47 1 48 0 C50.53 -0.07 53.03 -0.09 55.56 -0.06 C56.63 -0.06 56.63 -0.06 57.72 -0.05 C59.48 -0.04 61.24 -0.02 63 0 C61.04 6.03 58.92 11.97 56.64 17.88 C56.17 19.11 56.17 19.11 55.68 20.36 C55.02 22.08 54.36 23.8 53.69 25.52 C52.7 28.1 51.71 30.68 50.71 33.26 C47.7 41.08 44.67 48.89 41.58 56.68 C41.11 57.88 40.63 59.08 40.14 60.32 C39 63 39 63 38 64 C35.65 64.07 33.29 64.08 30.94 64.06 C29 64.05 29 64.05 27.03 64.04 C26.03 64.02 25.03 64.01 24 64 C23.56 62.86 23.11 61.73 22.66 60.55 C20.97 56.23 19.29 51.91 17.6 47.58 C16.88 45.73 16.16 43.88 15.44 42.03 C14.39 39.32 13.33 36.62 12.28 33.92 C11.93 33.03 11.58 32.13 11.22 31.21 C9.41 26.55 7.57 21.91 5.68 17.28 C5.31 16.37 4.94 15.45 4.56 14.51 C3.85 12.76 3.13 11.01 2.41 9.27 C2.1 8.49 1.78 7.71 1.45 6.9 C1.17 6.22 0.89 5.54 0.6 4.83 C0 3 0 3 0 0 Z " fill="#FDFDFE" transform="translate(101,436)"/>
<path d="M0 0 C4.95 0 9.9 0 15 0 C15 17.49 15 34.98 15 53 C26.88 53 38.76 53 51 53 C51 56.63 51 60.26 51 64 C34.17 64 17.34 64 0 64 C0 42.88 0 21.76 0 0 Z " fill="#FEFEFE" transform="translate(243,436)"/>
<path d="M0 0 C4.95 0 9.9 0 15 0 C15 21.12 15 42.24 15 64 C10.05 64 5.1 64 0 64 C0 42.88 0 21.76 0 0 Z " fill="#FAFBFC" transform="translate(543,436)"/>
<path d="M0 0 C0.99 0.33 1.98 0.66 3 1 C2.52 5.25 -0.16 7.63 -3 10.56 C-4.02 11.64 -5.03 12.72 -6.04 13.81 C-6.55 14.35 -7.05 14.89 -7.57 15.44 C-11.26 19.46 -14.62 23.73 -18 28 C-18.49 28.62 -18.99 29.23 -19.49 29.86 C-54.96 74.19 -87.7 127.19 -90.56 185.44 C-90.61 186.26 -90.65 187.09 -90.69 187.94 C-90.8 189.96 -90.9 191.98 -91 194 C-91.33 194 -91.66 194 -92 194 C-93.81 153.97 -81.56 117 -63 82 C-62.66 81.35 -62.31 80.69 -61.95 80.02 C-46.13 50.35 -23.99 23.45 0 0 Z " fill="#EDEEEE" transform="translate(323,67)"/>
<path d="M0 0 C7.42 3.71 12.8 10.64 18.11 16.84 C19.45 18.37 20.81 19.87 22.2 21.35 C29.77 29.43 36.44 38.1 43 47 C43.42 47.56 43.83 48.13 44.26 48.71 C74.11 89.57 95.05 139.92 94 191 C93.67 191 93.34 191 93 191 C92.92 190.3 92.85 189.59 92.77 188.87 C91.91 180.9 90.99 172.95 90 165 C89.9 164.22 89.81 163.44 89.71 162.63 C86.46 137.9 75.34 114.92 64 93 C63.59 92.2 63.18 91.39 62.75 90.56 C49.62 65.19 31.93 41.33 13 20 C11.2 17.94 9.4 15.87 7.61 13.8 C6.42 12.48 5.21 11.17 3.99 9.88 C3.33 9.18 2.68 8.48 2 7.75 C1.4 7.13 0.8 6.5 0.19 5.86 C-1 4 -1 4 -0.69 1.77 C-0.46 1.18 -0.23 0.6 0 0 Z " fill="#EDEDED" transform="translate(638,67)"/>
<path d="M0 0 C16.03 -0.92 26.43 4.36 38.49 14.41 C42.01 18.12 43.67 22.51 45.38 27.25 C47.46 32.82 49.91 37.92 53 43 C32.63 36.86 12.25 19.11 0 2 C0 1.34 0 0.68 0 0 Z " fill="#D48800" transform="translate(376,814)"/>
<path d="M0 0 C2.74 1.37 2.87 2.75 3.95 5.59 C4.3 6.52 4.65 7.45 5.02 8.41 C5.38 9.39 5.75 10.37 6.12 11.38 C6.5 12.35 6.87 13.32 7.25 14.32 C10 21.6 10 21.6 10 25 C3.73 25 -2.54 25 -9 25 C-6.62 16.39 -3.4 8.25 0 0 Z " fill="#398FCA" transform="translate(196,451)"/>
<path d="M0 0 C0.66 0 1.32 0 2 0 C3.34 3.6 4.67 7.21 6 10.81 C6.38 11.84 6.76 12.86 7.16 13.92 C7.52 14.9 7.88 15.88 8.25 16.89 C8.75 18.25 8.75 18.25 9.27 19.64 C10 22 10 22 10 25 C3.73 25 -2.54 25 -9 25 C-6.62 16.39 -3.4 8.25 0 0 Z " fill="#3B90CA" transform="translate(605,451)"/>
<path d="M0 0 C4.95 0 9.9 0 15 0 C15 4.29 15 8.58 15 13 C10.05 13 5.1 13 0 13 C0 8.71 0 4.42 0 0 Z " fill="#F6F8FA" transform="translate(852,487)"/>
<path d="M0 0 C4.95 0 9.9 0 15 0 C15 4.29 15 8.58 15 13 C10.05 13 5.1 13 0 13 C0 8.71 0 4.42 0 0 Z " fill="#F9FAFB" transform="translate(764,487)"/>
<path d="M0 0 C0.33 0.66 0.66 1.32 1 2 C1.66 2 2.32 2 3 2 C2.38 4.79 1.76 7.58 1.12 10.38 C0.95 11.17 0.78 11.96 0.6 12.78 C0.42 13.54 0.25 14.3 0.07 15.09 C-0.09 15.79 -0.24 16.49 -0.41 17.21 C-1 19 -1 19 -3 21 C-2.58 13.78 -2.05 6.95 0 0 Z " fill="#D4D4D4" transform="translate(237,206)"/>
<path d="M0 0 C0.99 0 1.98 0 3 0 C4.39 5.45 5.24 10.37 5 16 C2.22 13.22 2.14 10.7 1.38 6.88 C1.11 5.59 0.85 4.31 0.59 2.99 C0.39 2 0.2 1.02 0 0 Z " fill="#DCDCDD" transform="translate(724,212)"/>
</svg>
