<?xml version="1.0" standalone="no"?>
<!DOCTYPE svg PUBLIC "-//W3C//DTD SVG 20010904//EN"
 "http://www.w3.org/TR/2001/REC-SVG-20010904/DTD/svg10.dtd">
<svg version="1.0" xmlns="http://www.w3.org/2000/svg"
 width="960.000000pt" height="1259.000000pt" viewBox="0 0 960.000000 1259.000000"
 preserveAspectRatio="xMidYMid meet">

<g transform="translate(0.000000,1259.000000) scale(0.100000,-0.100000)"
fill="#000000" stroke="none">
<path d="M4365 12393 c-11 -3 -32 -14 -47 -25 -54 -38 -49 -113 24 -338 l40
-124 -54 -51 c-161 -149 -361 -174 -566 -71 -96 48 -184 116 -288 222 -96 98
-118 110 -187 102 -46 -6 -264 -110 -422 -203 -365 -214 -648 -437 -996 -784
-382 -383 -673 -759 -969 -1251 -409 -679 -638 -1388 -701 -2173 -24 -310 -3
-849 46 -1156 209 -1298 801 -2719 1640 -3934 265 -385 418 -577 727 -912 791
-857 1502 -1379 2023 -1486 85 -18 264 -15 370 5 361 69 791 317 1265 729 166
145 552 534 724 732 983 1126 1753 2536 2146 3926 104 368 205 853 247 1179
25 198 25 854 0 1060 -109 890 -368 1573 -889 2347 -569 846 -1240 1466 -1991
1839 -150 75 -175 84 -224 84 l-55 0 -99 -100 c-232 -234 -428 -321 -631 -279
-74 16 -178 72 -237 129 l-50 48 25 64 c36 90 84 266 84 305 0 77 -59 123
-156 123 -55 0 -93 -19 -155 -77 l-47 -44 -81 12 c-64 10 -98 10 -162 0 l-81
-12 -47 44 c-26 25 -62 52 -79 61 -29 15 -103 20 -147 9z m-1110 -496 c0 -8
-48 -71 -107 -139 -503 -580 -798 -1175 -831 -1673 l-3 -50 -2 57 c-1 31 5
110 13 175 69 525 352 1069 805 1546 97 102 125 121 125 84z m3257 -99 c238
-257 363 -425 503 -678 108 -197 186 -393 241 -609 34 -137 69 -384 61 -443
-3 -28 -4 -26 -5 12 -3 80 -32 242 -63 360 -111 418 -418 936 -812 1372 -45
50 -67 83 -63 93 3 8 10 15 15 15 5 0 60 -55 123 -122z m-3292 -1867 c185 -48
366 -157 505 -302 140 -148 226 -311 266 -505 19 -91 19 -92 -1 -135 -28 -62
-26 -101 7 -133 54 -54 64 -50 188 74 l113 113 63 -12 c159 -32 291 -144 396
-339 l40 -72 32 62 c74 142 198 270 309 320 23 10 70 24 103 30 l61 11 113
-113 c124 -124 134 -128 188 -74 33 32 35 71 7 131 -16 37 -18 51 -9 102 32
201 128 387 279 545 135 141 314 247 500 298 73 20 108 23 250 22 137 0 178
-4 243 -22 86 -24 216 -82 307 -137 57 -35 64 -36 167 -40 134 -4 221 -28 368
-100 259 -128 539 -397 774 -745 283 -418 502 -898 622 -1360 48 -184 58 -323
40 -545 -66 -786 -371 -1859 -814 -2858 l-92 -208 -3 1755 -2 1756 -490 0
-490 0 0 -2558 0 -2558 -111 -139 c-205 -257 -402 -478 -631 -710 l-227 -230
-1 3098 0 3097 -490 0 -490 0 0 -465 0 -464 -42 15 c-168 61 -434 88 -622 65
-83 -11 -235 -46 -288 -66 -17 -7 -18 19 -18 454 l0 461 -487 0 -488 0 3
-3106 c1 -2044 -1 -3105 -8 -3102 -20 7 -308 287 -443 433 -156 167 -332 369
-450 517 l-77 98 2 2580 3 2580 -487 0 -488 0 0 -1802 -1 -1803 -31 60 c-145
279 -399 875 -541 1270 -289 803 -435 1560 -398 2065 21 293 135 676 311 1048
l59 122 183 2 183 3 -183 2 -182 3 24 49 c81 158 262 445 379 600 262 344 563
579 847 661 50 15 112 23 186 25 101 4 116 7 150 31 100 68 255 131 390 159
102 21 315 14 424 -14z m1540 -3415 c0 -2 -38 -36 -84 -75 -195 -166 -326
-383 -326 -542 0 -48 -1 -51 -37 -66 -115 -48 -254 -57 -348 -22 -69 26 -140
74 -178 122 l-30 36 29 42 c40 58 157 175 232 233 211 161 458 255 725 275 9
0 17 -1 17 -3z m297 -22 c116 -20 221 -57 343 -120 121 -63 173 -100 150 -107
-73 -23 -119 -45 -168 -82 -54 -40 -61 -43 -137 -47 -107 -6 -187 -42 -255
-114 -45 -48 -100 -140 -100 -170 0 -15 -84 -51 -151 -65 -28 -6 -91 -9 -138
-7 -69 4 -97 10 -140 32 l-54 28 5 74 c11 171 158 374 408 562 62 47 63 47
237 16z m685 -374 c609 -631 438 -1669 -342 -2070 -103 -53 -209 -94 -218 -85
-3 3 -1 5 5 5 26 0 197 124 263 191 161 163 254 348 307 614 25 124 25 508 1
640 -53 280 -153 489 -307 640 l-61 60 22 18 c50 40 142 77 193 77 50 0 50 0
137 -90z m-428 -47 c81 -13 213 -170 288 -346 99 -228 142 -576 107 -862 -47
-385 -245 -688 -547 -839 l-74 -37 -46 27 c-60 36 -127 106 -157 164 l-24 48
85 41 c201 96 309 285 291 506 -7 76 -37 186 -69 249 -19 38 -19 38 3 149 51
259 -8 475 -168 615 -55 48 -55 50 -44 83 30 92 138 182 238 199 65 11 72 11
117 3z m-1553 -199 c52 -56 142 -110 213 -129 92 -25 235 -17 331 18 l69 26
66 -32 c62 -31 69 -32 190 -32 111 1 134 4 203 29 89 32 93 31 166 -45 81 -84
130 -219 131 -355 0 -66 -25 -226 -40 -253 -6 -12 -41 -25 -107 -39 -348 -78
-716 -66 -1083 35 -124 34 -376 128 -386 145 -9 15 16 200 42 296 13 51 38
127 54 169 33 83 98 203 109 203 4 0 23 -16 42 -36z m-165 -738 c291 -123 583
-180 924 -180 224 -1 353 13 507 53 l71 19 26 -57 c119 -265 40 -528 -195
-645 -39 -20 -80 -36 -91 -36 -10 0 -44 13 -76 29 -182 92 -356 102 -494 29
l-57 -30 -54 48 c-105 97 -241 149 -371 142 l-70 -3 -48 90 c-62 117 -103 231
-127 352 -19 96 -35 223 -29 223 2 0 40 -15 84 -34z m333 -705 c113 -35 237
-137 261 -216 15 -48 55 -129 82 -167 11 -16 16 -28 12 -28 -19 0 -183 98
-253 151 -86 64 -261 243 -261 265 0 21 86 18 159 -5z m653 -110 c41 -11 106
-34 142 -52 64 -31 69 -36 96 -96 34 -74 104 -152 182 -204 47 -30 55 -38 40
-44 -9 -4 -93 -10 -187 -12 -133 -4 -190 -2 -260 11 -168 32 -191 41 -234 100
-42 56 -85 137 -107 198 l-13 38 40 27 c81 54 180 65 301 34z m726 -2097 l-3
-1676 -82 -34 c-126 -52 -256 -84 -368 -90 -87 -5 -113 -2 -200 21 -55 14
-147 45 -205 68 l-105 42 -3 1668 c-1 917 1 1667 4 1667 4 0 37 -9 73 -19 260
-77 584 -74 814 8 29 10 58 19 65 20 10 1 12 -337 10 -1675z"/>
<path d="M3138 8413 c1002 -2 2642 -2 3645 0 1002 1 182 2 -1823 2 -2005 0
-2825 -1 -1822 -2z"/>
<path d="M4873 8243 c9 -2 23 -2 30 0 6 3 -1 5 -18 5 -16 0 -22 -2 -12 -5z"/>
<path d="M4953 8243 c9 -2 23 -2 30 0 6 3 -1 5 -18 5 -16 0 -22 -2 -12 -5z"/>
<path d="M7083 8243 c9 -2 23 -2 30 0 6 3 -1 5 -18 5 -16 0 -22 -2 -12 -5z"/>
<path d="M7163 8243 c9 -2 23 -2 30 0 6 3 -1 5 -18 5 -16 0 -22 -2 -12 -5z"/>
<path d="M1043 8233 c26 -2 67 -2 90 0 23 2 2 3 -48 3 -49 0 -68 -1 -42 -3z"/>
<path d="M1500 8234 c58 -8 150 -8 150 -1 0 4 -39 6 -87 6 -49 -1 -77 -3 -63
-5z"/>
<path d="M1965 8233 c55 -2 93 -9 98 -16 6 -9 7 -8 4 3 -3 12 -23 15 -98 16
l-94 0 90 -3z"/>
<path d="M2458 8233 c23 -2 61 -2 85 0 23 2 4 4 -43 4 -47 0 -66 -2 -42 -4z"/>
<path d="M3092 7913 l3 -328 2 322 3 323 268 3 267 2 -272 3 -273 2 2 -327z"/>
<path d="M3858 8233 c23 -2 61 -2 85 0 23 2 4 4 -43 4 -47 0 -66 -2 -42 -4z"/>
<path d="M4268 8019 c-2 -121 0 -223 5 -226 4 -2 7 95 7 216 l0 220 73 4 72 3
-77 2 -77 2 -3 -221z"/>
<path d="M5422 7913 l3 -328 2 322 3 322 78 4 77 3 -82 2 -83 2 2 -327z"/>
<path d="M5967 8233 c-3 -5 25 -7 61 -5 116 5 130 9 35 10 -50 1 -94 -1 -96
-5z"/>
<path d="M8103 8233 c76 -2 198 -2 270 0 73 1 11 3 -138 3 -148 0 -208 -2
-132 -3z"/>
<path d="M5140 8187 c0 -2 15 -16 33 -33 l32 -29 -29 33 c-28 30 -36 37 -36
29z"/>
<path d="M7350 8187 c0 -2 15 -16 33 -33 l32 -29 -29 33 c-28 30 -36 37 -36
29z"/>
<path d="M4674 8148 l-19 -23 23 19 c21 18 27 26 19 26 -2 0 -12 -10 -23 -22z"/>
<path d="M4898 8123 c7 -3 16 -2 19 1 4 3 -2 6 -13 5 -11 0 -14 -3 -6 -6z"/>
<path d="M4948 8123 c6 -2 18 -2 25 0 6 3 1 5 -13 5 -14 0 -19 -2 -12 -5z"/>
<path d="M7108 8123 c7 -3 16 -2 19 1 4 3 -2 6 -13 5 -11 0 -14 -3 -6 -6z"/>
<path d="M7158 8123 c6 -2 18 -2 25 0 6 3 1 5 -13 5 -14 0 -19 -2 -12 -5z"/>
<path d="M3343 8113 c53 -2 141 -2 195 0 53 1 9 3 -98 3 -107 0 -151 -2 -97
-3z"/>
<path d="M8124 8106 c-3 -7 -3 -42 -1 -77 l3 -64 2 72 2 73 188 3 187 2 -188
3 c-150 2 -189 -1 -193 -12z"/>
<path d="M6055 8060 c3 -5 8 -10 11 -10 2 0 4 5 4 10 0 6 -5 10 -11 10 -5 0
-7 -4 -4 -10z"/>
<path d="M3960 7815 c0 -126 2 -226 5 -224 6 7 8 440 1 447 -3 3 -6 -97 -6
-223z"/>
<path d="M7290 8018 c0 -5 37 -7 83 -7 85 2 75 6 -26 11 -31 2 -57 0 -57 -4z"/>
<path d="M5118 8013 c23 -2 61 -2 85 0 23 2 4 4 -43 4 -47 0 -66 -2 -42 -4z"/>
<path d="M3332 7983 c48 -2 129 -2 180 0 51 1 12 3 -87 3 -99 0 -141 -2 -93
-3z"/>
<path d="M4591 7964 c0 -11 3 -14 6 -6 3 7 2 16 -1 19 -3 4 -6 -2 -5 -13z"/>
<path d="M6802 7940 c0 -19 2 -27 5 -17 2 9 2 25 0 35 -3 9 -5 1 -5 -18z"/>
<path d="M6802 7870 c0 -19 2 -27 5 -17 2 9 2 25 0 35 -3 9 -5 1 -5 -18z"/>
<path d="M4592 7850 c0 -14 2 -19 5 -12 2 6 2 18 0 25 -3 6 -5 1 -5 -13z"/>
<path d="M8124 7725 c0 -77 2 -107 3 -67 2 40 2 103 0 140 -2 37 -3 4 -3 -73z"/>
<path d="M1960 7840 l-95 -6 98 -2 c59 -1 97 2 97 8 0 6 -1 9 -2 8 -2 -1 -46
-5 -98 -8z"/>
<path d="M6055 7840 l-90 -6 93 -2 c56 -1 92 2 92 8 0 6 -1 9 -2 8 -2 -1 -43
-5 -93 -8z"/>
<path d="M4810 7735 c13 -14 26 -25 28 -25 3 0 -5 11 -18 25 -13 14 -26 25
-28 25 -3 0 5 -11 18 -25z"/>
<path d="M7015 7740 c10 -11 20 -20 23 -20 3 0 -3 9 -13 20 -10 11 -20 20 -23
20 -3 0 3 -9 13 -20z"/>
<path d="M7244 7728 l-29 -33 33 29 c30 28 37 36 29 36 -2 0 -16 -15 -33 -32z"/>
<path d="M4620 7741 c0 -6 4 -13 10 -16 6 -3 7 1 4 9 -7 18 -14 21 -14 7z"/>
<path d="M5010 7710 c-9 -6 -10 -10 -3 -10 6 0 15 5 18 10 8 12 4 12 -15 0z"/>
<path d="M7633 7655 c0 -38 2 -53 4 -32 2 20 2 52 0 70 -2 17 -4 1 -4 -38z"/>
<path d="M8513 7655 c0 -38 2 -53 4 -32 2 20 2 52 0 70 -2 17 -4 1 -4 -38z"/>
<path d="M4680 7655 c13 -14 26 -25 28 -25 3 0 -5 11 -18 25 -13 14 -26 25
-28 25 -3 0 5 -11 18 -25z"/>
<path d="M6885 7660 c10 -11 20 -20 23 -20 3 0 -3 9 -13 20 -10 11 -20 20 -23
20 -3 0 3 -9 13 -20z"/>
<path d="M7369 7653 l-24 -28 28 24 c15 14 27 26 27 28 0 8 -8 1 -31 -24z"/>
<path d="M5154 7648 l-19 -23 23 19 c21 18 27 26 19 26 -2 0 -12 -10 -23 -22z"/>
<path d="M4848 7573 c7 -3 16 -2 19 1 4 3 -2 6 -13 5 -11 0 -14 -3 -6 -6z"/>
</g>
</svg>
