<?xml version="1.0" standalone="no"?>
<!DOCTYPE svg PUBLIC "-//W3C//DTD SVG 20010904//EN"
 "http://www.w3.org/TR/2001/REC-SVG-20010904/DTD/svg10.dtd">
<svg version="1.0" xmlns="http://www.w3.org/2000/svg"
 width="962.000000pt" height="1198.000000pt" viewBox="0 0 962.000000 1198.000000"
 preserveAspectRatio="xMidYMid meet">

<g transform="translate(0.000000,1198.000000) scale(0.100000,-0.100000)"
fill="#000000" stroke="none">
<path d="M4720 11871 c-96 -31 -177 -108 -206 -194 -19 -57 -21 -156 -5 -199
10 -26 8 -28 -12 -28 -56 0 -127 -32 -180 -80 -71 -65 -101 -130 -101 -226 -1
-121 62 -222 174 -279 50 -26 166 -32 226 -11 26 9 49 16 52 16 9 0 -12 -110
-33 -167 -71 -196 -241 -346 -440 -388 -89 -19 -134 -19 -230 0 -175 33 -340
158 -418 316 -20 41 -37 80 -37 86 0 7 31 12 78 15 175 8 296 132 296 303 0
94 -30 160 -100 224 -62 57 -123 81 -204 81 l-57 0 -5 73 c-8 116 -68 205
-173 257 -70 35 -188 34 -260 0 -167 -81 -222 -275 -127 -452 2 -3 -17 -15
-41 -26 -61 -27 -123 -86 -155 -146 -23 -44 -27 -63 -27 -136 0 -73 4 -92 27
-135 59 -111 155 -170 278 -169 62 0 85 5 129 27 67 34 71 30 71 -83 0 -166
-59 -310 -174 -425 -126 -125 -262 -176 -466 -177 -89 0 -130 4 -180 21 -64
20 -160 73 -160 88 0 5 20 16 45 26 64 27 137 110 160 182 36 114 2 240 -85
319 -124 112 -299 108 -429 -9 -23 -21 -43 -36 -45 -34 -1 2 -27 47 -56 99
-113 199 -146 239 -219 261 -86 26 -188 -16 -394 -160 l-118 -82 83 -88 c46
-49 141 -148 211 -222 l129 -134 1 -91 c2 -82 5 -95 32 -140 59 -95 179 -148
292 -127 57 10 57 10 108 -27 392 -295 968 -267 1350 65 52 45 81 78 165 186
15 19 17 19 97 -16 129 -56 220 -76 374 -82 205 -8 397 31 564 114 72 37 184
115 229 162 l39 40 56 -48 c332 -286 770 -349 1170 -169 36 15 67 25 71 21 3
-5 26 -34 50 -66 95 -127 252 -249 408 -318 340 -149 734 -117 1037 86 92 62
95 63 137 53 24 -5 66 -7 93 -3 105 13 179 68 223 164 21 46 24 64 20 127 -5
68 -3 75 20 96 13 13 109 111 213 220 l190 196 -128 88 c-181 125 -250 158
-333 158 -106 1 -143 -36 -287 -287 l-44 -78 -49 41 c-106 89 -229 110 -341
58 -120 -55 -184 -163 -177 -298 7 -119 71 -215 171 -256 26 -10 47 -22 47
-25 0 -4 -18 -18 -40 -33 -133 -88 -340 -106 -532 -46 -187 58 -342 222 -393
415 -16 62 -21 250 -7 259 5 3 32 -7 62 -22 78 -38 182 -38 262 1 112 55 173
153 172 277 0 124 -61 223 -170 276 -42 21 -53 31 -48 43 34 77 46 130 41 186
-18 238 -300 366 -489 222 -79 -60 -119 -142 -120 -243 l-1 -54 -58 0 c-255 0
-398 -291 -242 -494 22 -28 61 -62 93 -80 49 -28 64 -31 137 -31 50 0 83 -4
83 -10 0 -24 -70 -154 -109 -203 -49 -62 -144 -135 -217 -168 -61 -27 -185
-54 -246 -54 -139 1 -308 72 -409 173 -80 80 -126 156 -156 259 -20 71 -30
138 -19 138 2 0 23 -7 46 -15 55 -19 144 -19 203 1 84 29 174 128 192 212 11
55 7 130 -10 182 -32 96 -137 182 -240 197 -41 5 -45 8 -38 27 5 12 8 59 8
106 -1 68 -5 93 -23 127 -56 107 -143 164 -256 169 -39 2 -82 0 -96 -5z m197
-42 c60 -29 129 -110 148 -172 19 -65 19 -110 -3 -173 l-18 -52 55 -6 c104
-12 185 -67 233 -159 32 -59 32 -184 1 -243 -34 -63 -66 -97 -125 -129 -46
-26 -63 -30 -128 -30 -62 0 -84 5 -129 29 l-54 28 7 -71 c27 -269 214 -491
471 -556 76 -19 214 -19 290 0 210 53 389 224 449 428 l14 48 -36 -8 c-143
-31 -275 33 -333 161 -25 56 -25 167 0 222 54 119 201 197 313 166 l37 -10 -6
62 c-15 164 112 306 273 306 148 0 257 -88 284 -230 12 -65 -6 -151 -45 -208
l-25 -37 38 -11 c131 -39 211 -144 212 -274 0 -113 -61 -208 -165 -256 -92
-43 -224 -26 -292 38 -13 12 -25 19 -28 16 -3 -2 -9 -28 -15 -58 -32 -171 21
-366 138 -506 207 -249 641 -301 881 -106 l43 35 -59 18 c-73 23 -135 75 -170
143 -22 42 -27 65 -27 126 0 64 4 83 29 129 57 104 152 157 268 149 76 -5 123
-27 192 -90 29 -26 55 -48 58 -48 3 0 31 46 62 103 89 159 142 235 177 257 51
31 128 27 206 -10 50 -23 255 -156 295 -190 4 -3 -87 -105 -203 -226 -144
-150 -208 -224 -204 -234 13 -31 16 -107 5 -114 -6 -4 -11 0 -11 10 0 9 -11
36 -25 60 -63 108 -231 111 -300 6 -63 -96 -33 -213 70 -266 l30 -16 -37 0
c-20 0 -48 4 -61 9 -21 8 -33 3 -83 -35 -84 -64 -243 -140 -359 -171 -89 -24
-118 -27 -265 -27 -146 0 -176 3 -262 27 -113 30 -238 86 -329 147 -80 54
-218 187 -266 257 -20 29 -39 53 -43 53 -4 0 -45 -18 -91 -39 -380 -178 -849
-100 -1156 192 l-42 40 -53 -48 c-175 -157 -378 -248 -619 -276 -187 -21 -384
10 -552 89 l-84 39 -29 -46 c-44 -71 -167 -193 -250 -251 -99 -68 -223 -125
-342 -157 -86 -24 -116 -27 -262 -27 -147 0 -176 3 -265 27 -117 32 -274 106
-362 172 -52 39 -65 44 -82 36 -11 -6 -39 -11 -63 -11 l-43 0 34 18 c134 68
133 254 -1 323 -93 47 -201 6 -250 -96 l-19 -40 4 55 c2 30 6 60 8 66 2 7 -86
106 -197 220 -110 115 -203 214 -207 220 -8 14 205 162 295 204 78 37 153 41
204 10 34 -21 90 -104 183 -268 59 -104 47 -102 134 -26 91 81 208 97 315 43
102 -50 154 -135 155 -251 1 -55 -4 -76 -29 -124 -35 -70 -105 -127 -177 -146
l-50 -12 41 -36 c120 -107 317 -145 527 -101 192 40 323 133 423 301 31 53 70
177 77 250 6 59 -7 190 -22 212 -3 5 -15 0 -27 -11 -61 -57 -184 -78 -278 -45
-107 36 -181 143 -181 262 0 115 53 200 155 251 34 17 69 31 79 31 16 0 15 5
-10 46 -96 151 -39 341 123 415 27 12 64 19 111 19 113 0 201 -54 253 -154 21
-42 26 -65 26 -127 l1 -76 76 1 c65 1 83 -3 134 -29 205 -105 208 -388 5 -499
-55 -30 -129 -39 -202 -23 l-37 8 15 -53 c76 -257 320 -438 590 -438 265 1
498 166 584 415 18 52 45 214 36 222 -1 2 -25 -9 -52 -24 -42 -24 -60 -28
-124 -28 -62 0 -84 5 -126 27 -98 51 -155 146 -153 257 1 67 14 105 56 164 41
59 106 96 192 111 l69 11 -15 29 c-20 39 -28 132 -14 181 45 169 233 258 388
184z"/>
<path d="M4761 11370 c-101 -24 -165 -143 -126 -236 66 -158 266 -163 336 -9
21 46 23 66 9 117 -26 93 -124 150 -219 128z"/>
<path d="M3260 11178 c-82 -23 -130 -89 -130 -178 0 -82 46 -144 126 -170 140
-47 278 106 220 243 -17 43 -76 93 -123 106 -44 13 -46 12 -93 -1z"/>
<path d="M6257 11175 c-91 -32 -141 -125 -117 -214 23 -88 116 -151 202 -137
108 17 179 126 149 227 -17 55 -74 113 -126 128 -50 14 -61 13 -108 -4z"/>
<path d="M4455 9949 c-611 -36 -1240 -181 -1801 -414 -86 -36 -169 -72 -184
-80 -71 -37 -121 -101 -138 -178 -6 -30 -25 -46 -163 -139 -269 -180 -458
-334 -688 -561 -838 -825 -1321 -1871 -1412 -3057 -15 -194 -6 -654 16 -840
47 -411 136 -785 270 -1145 130 -349 279 -641 490 -960 179 -271 328 -456 560
-694 393 -403 794 -696 1295 -945 482 -240 1004 -396 1526 -456 104 -12 207
-24 229 -26 39 -5 44 -10 173 -188 74 -100 143 -195 156 -210 l22 -28 154 211
c152 206 156 210 195 215 22 2 126 14 230 26 1209 139 2345 771 3119 1735 606
754 961 1648 1036 2609 13 166 13 566 0 732 -112 1427 -849 2713 -2025 3533
-77 54 -176 120 -221 147 -74 44 -83 53 -98 97 -33 93 -93 134 -342 233 -754
299 -1582 431 -2399 383z m825 -39 c566 -56 1049 -171 1549 -366 275 -108 325
-144 351 -254 10 -41 9 -58 -4 -104 -36 -123 -222 -346 -378 -454 -122 -84
-339 -173 -500 -206 -138 -28 -121 -39 -258 153 -66 92 -120 171 -120 174 0 4
35 25 78 46 76 38 80 41 107 103 l28 63 22 -70 c21 -68 22 -70 56 -73 32 -3
40 2 83 53 l48 56 31 -42 30 -41 -23 -72 c-12 -39 -24 -76 -27 -82 -6 -18 252
13 372 44 l110 28 -50 37 c-28 20 -103 64 -167 97 -315 162 -676 261 -1169
322 -167 20 -228 22 -654 23 -307 0 -512 -5 -590 -13 -452 -47 -764 -111
-1052 -217 -54 -20 -199 -86 -323 -146 -124 -60 -232 -109 -241 -109 -28 0
-182 196 -214 274 -21 49 -19 142 4 191 34 76 66 95 366 215 493 197 1058 330
1580 370 77 6 160 12 185 14 85 7 665 -3 770 -14z m-226 -611 c94 -6 174 -14
178 -18 3 -3 7 -721 9 -1596 l2 -1590 -218 -795 c-119 -437 -220 -798 -224
-802 -3 -4 -104 350 -224 785 l-218 792 1 1607 0 1606 83 6 c45 4 100 8 122 9
98 8 331 6 489 -4z m-731 -31 c-5 -7 -204 -270 -441 -585 -422 -559 -432 -573
-432 -618 l0 -45 -146 0 -146 0 29 38 c78 104 897 1188 903 1195 7 8 231 36
239 30 2 -1 -1 -8 -6 -15z m1108 -4 l77 -6 458 -606 c253 -333 463 -612 467
-619 6 -10 -19 -13 -133 -13 l-140 0 0 43 c-1 40 -24 73 -426 612 -234 314
-430 578 -436 589 -9 17 -7 18 23 13 19 -3 68 -9 110 -13z m2004 -150 c578
-386 1081 -918 1437 -1519 358 -606 564 -1243 640 -1975 19 -188 16 -716 -5
-909 -125 -1115 -589 -2087 -1366 -2861 -535 -533 -1122 -897 -1841 -1141
-321 -109 -743 -197 -1080 -225 l-84 -6 25 33 c173 227 3449 4671 3449 4678 0
6 -369 498 -819 1093 l-820 1083 297 5 297 5 3 323 2 322 -547 0 -548 0 -168
223 -168 222 48 5 c30 4 54 1 63 -7 8 -7 78 -95 155 -197 l140 -185 270 -1
c149 0 395 -3 548 -7 l277 -6 0 -383 0 -384 -245 -2 -245 -3 781 -1045 c430
-575 783 -1050 786 -1057 3 -7 -745 -1027 -1662 -2268 -917 -1241 -1664 -2259
-1661 -2262 11 -11 329 48 519 97 1001 254 1886 842 2509 1667 1157 1530 1226
3628 173 5233 -339 515 -806 981 -1320 1316 -66 42 -121 78 -123 80 -1 1 9 23
22 49 14 26 28 63 32 83 10 66 10 66 51 41 21 -12 101 -64 178 -115z m-5062
-36 l27 -46 -66 -41 c-380 -239 -786 -605 -1093 -988 -572 -713 -912 -1581
-982 -2503 -15 -196 -6 -657 15 -840 63 -531 206 -1022 431 -1485 590 -1209
1680 -2092 2985 -2419 173 -44 477 -100 505 -94 10 2 -571 798 -1655 2267
-930 1261 -1666 2269 -1663 2275 4 6 364 481 801 1056 l794 1045 -271 3 -271
2 0 385 0 385 153 0 c83 0 338 3 564 7 l412 6 143 189 c153 201 148 198 226
182 l30 -6 -166 -219 -165 -219 -566 -2 -566 -3 0 -320 0 -320 318 -5 318 -5
-820 -1083 -820 -1084 34 -46 c19 -26 801 -1086 1738 -2357 937 -1270 1703
-2312 1701 -2314 -2 -2 -56 2 -121 8 -1423 142 -2699 914 -3486 2112 -329 500
-560 1057 -676 1629 -71 349 -95 590 -95 965 1 330 14 490 65 794 112 669 388
1344 776 1898 348 496 778 915 1273 1243 l124 81 11 -44 c6 -24 23 -64 38 -89z
m1327 -50 c-51 -73 -131 -190 -178 -260 l-87 -127 -42 -1 c-23 0 -48 -3 -57
-6 -14 -5 -16 6 -16 83 l0 89 -55 87 c-30 47 -55 90 -55 94 0 6 537 167 573
172 4 1 -33 -59 -83 -131z m-339 -1968 l88 -305 1 -2335 1 -2335 452 -577 452
-577 5 1323 5 1324 185 -642 c239 -830 231 -805 240 -781 4 11 108 382 231
824 l224 805 5 -1421 c3 -782 8 -1424 11 -1427 3 -3 207 259 452 583 l447 590
0 2478 0 2478 42 153 41 152 347 0 346 0 814 -1076 c448 -592 819 -1084 823
-1093 7 -14 -403 -574 -1877 -2570 -1036 -1403 -1888 -2551 -1893 -2551 -4 1
-574 770 -1266 1708 -693 939 -1540 2089 -1884 2555 -510 692 -624 852 -617
867 5 10 374 500 819 1089 l810 1071 304 -3 303 -2 89 -305z"/>
<path d="M4578 9752 c-108 -43 -199 -80 -202 -83 -4 -3 89 -49 206 -102 l211
-97 206 91 c113 50 209 94 213 98 8 7 -401 171 -424 170 -7 0 -102 -35 -210
-77z"/>
<path d="M2696 9309 c-92 -83 -166 -153 -164 -155 2 -1 107 -10 233 -18 l230
-15 163 162 c89 89 162 165 162 169 0 5 -103 8 -228 8 l-229 0 -167 -151z"/>
<path d="M6415 9291 l170 -170 229 15 c126 8 231 15 232 17 2 2 -73 71 -166
155 l-169 152 -233 0 -233 0 170 -169z"/>
<path d="M2228 6527 l-448 -568 0 -788 0 -789 448 -558 447 -557 3 366 c1 202
4 367 7 367 2 0 34 -8 72 -17 47 -11 108 -16 198 -16 149 1 232 18 364 79 l81
37 0 340 0 340 -32 -27 c-130 -104 -267 -139 -406 -102 -102 27 -197 103 -253
201 l-29 50 0 280 0 280 29 50 c39 68 128 150 198 183 51 24 70 27 163 27 99
0 110 -2 171 -32 36 -18 87 -49 112 -68 l47 -36 0 340 0 340 -46 27 c-25 15
-85 41 -132 57 -139 49 -355 49 -519 1 l-23 -6 -2 384 -3 383 -447 -568z"/>
<path d="M6920 6718 l0 -378 -310 0 -310 0 0 -1185 0 -1185 305 0 305 0 2 488
c2 397 4 335 8 -340 l5 -828 443 552 442 552 0 778 0 779 -80 105 -80 105 0
89 0 89 -72 3 -73 3 -273 350 c-150 193 -282 361 -292 375 -19 25 -19 21 -20
-352z m-3 -1175 c-1 -54 -3 -10 -3 97 0 107 2 151 3 98 2 -54 2 -142 0 -195z"/>
</g>
</svg>
